<?xml version="1.0" encoding="utf-8"?>
<svg fill="#d1d1d1" width="32" height="32" viewBox="0 0 32 32" xmlns="http://www.w3.org/2000/svg">
  <path d="M 16 27.258 C 22.218 27.258 27.258 22.218 27.258 16 C 27.258 9.782 22.218 4.742 16 4.742 C 9.782 4.742 4.742 9.782 4.742 16 C 4.742 22.218 9.782 27.258 16 27.258 Z M 16 26.596 C 10.148 26.596 5.404 21.852 5.404 16 C 5.404 10.148 10.148 5.404 16 5.404 C 21.852 5.404 26.596 10.148 26.596 16 C 26.596 21.852 21.852 26.596 16 26.596 Z M 14.09 24.132 C 14.338 24.03 15.308 23.282 16.245 22.477 C 17.406 21.489 18.523 20.451 19.593 19.364 C 20.619 18.338 21 17.897 21.063 17.669 C 21.285 16.868 18.858 8.063 18.364 7.874 C 18.063 7.758 15.371 9.997 12.987 12.341 C 11.589 13.715 11.202 14.172 11.172 14.471 C 11.152 14.702 11.232 15.281 11.381 15.967 C 11.974 18.689 13.053 22.45 13.599 23.685 C 13.828 24.209 13.854 24.232 14.089 24.132 L 14.09 24.132 Z"/>
</svg>
