<?xml version="1.0" encoding="utf-8"?>
<svg fill="#d1d1d1" width="32" height="32" viewBox="0 0 32 32" xmlns="http://www.w3.org/2000/svg">
  <path d="M 13.842 5.5 L 13.731 5.5 C 13.031 5.511 10.959 5.762 10.135 8.269 C 9.88 7.624 9.645 6.685 9.645 6.685 C 9.645 6.685 9.637 6.691 9.625 6.704 L 9.57 6.759 C 9.28 7.062 8.269 8.292 8.864 10.166 C 7.505 9.662 6.142 9.169 4.774 8.689 L 4.688 8.661 C 4.682 8.659 4.675 8.657 4.669 8.656 C 4.542 8.637 4.506 8.692 4.506 8.692 C 4.506 8.692 4.469 8.748 4.578 8.84 C 4.778 9.005 8.591 11.86 9.426 12.412 C 9.245 13.075 9.245 13.388 9.426 13.702 C 9.681 14.125 9.699 14.346 9.663 14.659 C 9.626 14.972 9.299 17.679 9.227 18.011 C 9.154 18.342 8.392 19.521 8.427 19.871 C 8.464 20.221 8.937 21.712 9.354 21.878 C 9.663 21.988 10.425 22.228 10.934 22.228 C 11.115 22.228 11.279 22.191 11.351 22.118 C 11.66 21.841 11.751 21.786 11.969 21.786 L 12.023 21.786 C 12.113 21.786 12.223 21.804 12.35 21.804 C 12.64 21.804 13.022 21.749 13.294 21.491 C 13.694 21.086 14.384 20.533 14.601 20.276 C 14.874 19.926 15.019 19.446 14.946 18.968 C 14.892 18.526 15.128 18.139 15.4 17.753 C 15.745 17.293 16.38 16.463 16.38 16.463 C 17.634 17.421 18.414 18.876 18.414 20.497 C 18.414 23.369 15.945 25.69 12.894 25.69 C 12.429 25.69 11.966 25.634 11.514 25.524 C 12.913 26.021 14.093 26.187 15.055 26.187 C 17.107 26.187 18.197 25.432 18.197 25.432 C 18.197 25.432 17.815 25.929 17.197 26.5 L 17.217 26.5 C 20.612 26.021 22.264 23.185 22.264 23.185 C 22.264 23.185 22.137 24.106 21.974 24.732 C 26.494 21.288 25.732 16.979 25.714 16.832 C 25.75 16.887 26.204 17.44 26.44 17.734 C 27.06 11.267 22.704 8.533 21.405 7.867 L 21.269 7.799 C 21.196 7.763 21.122 7.729 21.047 7.698 C 21.047 7.698 21.955 7.735 22.899 7.845 C 20.775 6.151 18.759 5.654 17.125 5.654 C 14.874 5.654 13.349 6.593 13.258 6.648 L 13.966 5.507 C 13.966 5.507 13.922 5.502 13.842 5.501 L 13.842 5.5 Z M 16.09 9.466 C 19.813 9.871 22.718 13.076 22.718 16.961 C 22.724 19.849 21.082 22.486 18.488 23.756 C 19.668 22.836 20.575 21.546 20.975 20.091 C 20.993 20.036 21.156 19.944 21.265 19.871 C 21.447 19.778 21.628 19.668 21.665 19.521 C 21.737 19.097 21.774 18.655 21.774 18.213 C 21.774 18.047 21.61 17.882 21.447 17.716 C 21.356 17.606 21.211 17.476 21.211 17.384 C 21.064 16.048 20.548 14.78 19.721 13.72 C 19.359 11.51 17.906 10.829 17.87 10.81 L 17.893 10.846 L 17.942 10.926 C 18.159 11.296 18.75 12.496 18.197 13.867 C 17.525 15.507 15.8 15.248 15.655 15.267 C 15.509 15.267 14.946 16.003 14.238 17.366 C 13.944 17.277 13.633 17.258 13.33 17.311 C 13.657 16.39 14.147 15.083 14.238 14.972 C 14.275 14.935 14.547 14.862 14.728 14.806 C 15.073 14.714 15.237 14.659 15.291 14.586 C 15.328 14.53 15.509 14.106 15.691 13.665 C 15.854 13.665 16.271 13.628 16.308 13.609 C 16.345 13.572 16.69 12.67 16.69 12.559 C 16.69 12.468 15.981 10.681 15.709 9.999 C 15.849 9.831 15.977 9.653 16.09 9.466 Z M 19.776 14.106 C 20.486 15.079 20.924 16.223 21.047 17.421 C 21.065 17.569 21.211 17.716 21.356 17.863 C 21.483 17.973 21.628 18.121 21.628 18.213 C 21.628 18.637 21.592 19.06 21.519 19.483 C 21.501 19.539 21.338 19.631 21.211 19.705 C 21.029 19.797 20.866 19.889 20.829 20.036 L 20.744 20.318 C 20.347 21.521 19.624 22.59 18.657 23.408 L 18.434 23.588 L 18.588 23.42 C 20.17 21.62 20.898 18.785 19.631 16.519 C 19.813 15.579 19.831 14.769 19.776 14.106 Z M 14.783 7.11 C 14.783 7.11 15.455 8.601 14.747 9.688 C 14.02 10.774 13.312 10.977 13.312 10.977 C 13.312 10.977 14.311 11.161 15.237 10.48 C 15.618 11.382 15.981 12.321 16 12.45 L 15.653 13.284 L 15.506 13.637 C 15.335 14.043 15.178 14.409 15.146 14.457 C 15.11 14.494 14.856 14.567 14.674 14.605 C 14.365 14.697 14.184 14.752 14.111 14.807 C 13.984 14.917 13.403 16.538 13.131 17.33 C 12.763 17.425 12.445 17.655 12.241 17.975 C 12.368 17.883 12.767 17.827 13.058 17.791 C 13.312 17.772 14.093 18.196 14.293 18.988 L 14.293 19.024 C 14.329 19.319 14.238 19.595 14.093 19.816 C 14.02 19.908 13.712 20.185 13.493 20.387 C 13.276 20.59 13.04 20.792 12.858 20.977 C 12.786 21.05 12.64 21.087 12.422 21.087 L 11.878 21.087 C 12.15 20.719 12.949 19.871 13.221 19.687 C 13.548 19.467 13.711 19.245 13.511 18.859 C 13.312 18.472 12.786 18.564 12.786 18.564 C 12.786 18.564 13.094 18.435 13.366 18.435 C 13.022 18.343 12.586 18.435 12.386 18.638 C 12.168 18.84 12.205 19.558 12.114 20.018 C 12.023 20.498 11.714 20.737 11.242 21.179 C 10.988 21.419 10.806 21.492 10.662 21.492 C 10.347 21.436 10.037 21.356 9.735 21.252 C 9.554 21.013 9.281 20.222 9.209 19.89 C 9.263 19.706 9.481 19.319 9.589 19.098 C 9.808 18.674 9.935 18.435 9.971 18.214 C 10.044 17.901 10.28 15.967 10.371 15.157 C 10.607 15.47 10.934 15.986 10.861 16.317 C 11.388 15.562 11.006 14.826 10.825 14.531 C 10.661 14.236 10.443 13.647 10.625 13.021 C 10.806 12.395 11.46 10.664 11.46 10.664 C 11.46 10.664 11.678 11.051 11.987 10.977 C 12.295 10.903 14.783 7.11 14.783 7.11 Z M 10.433 18.694 C 10.433 18.694 9.838 19.75 9.784 19.896 C 9.73 20.06 9.82 20.351 10.054 20.333 C 10.289 20.315 10.577 19.969 10.577 19.713 C 10.577 19.386 10.289 19.423 10.289 19.423 L 10.433 18.694 Z M 12.749 18.859 C 12.895 18.822 13.239 18.877 13.239 19.135 C 13.239 19.375 12.985 19.43 12.804 19.595 C 12.677 19.725 12.422 20 12.386 20.037 L 12.387 20.036 L 12.439 19.941 C 12.53 19.735 12.535 19.468 12.544 19.324 L 12.55 19.264 C 12.568 19.134 12.604 18.895 12.75 18.859 L 12.749 18.859 Z M 13.602 11.395 C 13.602 11.395 11.757 14.332 11.594 14.388 C 11.431 14.443 11.269 13.8 11.269 13.8 C 10.925 15.14 11.848 15.324 11.956 14.902 C 12.463 14.773 13.331 14.222 13.675 13.837 C 14.018 13.433 13.837 12.68 13.205 12.552 C 13.367 12.166 13.602 11.395 13.602 11.395 Z M 14.622 8.233 L 13.424 10.068 L 13.44 10.068 C 13.526 10.062 13.922 10.005 14.372 9.475 C 14.784 8.975 14.622 8.233 14.622 8.233 Z" style=""/>
</svg>
