<?xml version="1.0" encoding="utf-8"?>
<svg fill="#d1d1d1" width="32" height="32" viewBox="0 0 32 32" xmlns="http://www.w3.org/2000/svg">
  <path d="M 15.263 24.856 L 15.263 26.319 L 16 26.319 L 16 24.13 L 14.537 24.13 L 14.537 24.856 L 15.263 24.856 Z M 7.926 16.826 L 7.2 16.826 L 7.2 20.478 L 7.926 20.478 L 7.926 19.015 L 8.663 19.015 L 8.663 17.552 L 7.926 17.552 L 7.926 16.826 Z M 16.737 21.204 L 16.737 23.393 L 17.463 23.393 L 17.463 21.204 L 16.737 21.204 Z M 16 23.393 L 16 24.13 L 16.737 24.13 L 16.737 23.393 L 16 23.393 Z M 8.663 22.667 L 8.663 24.856 L 10.863 24.856 L 10.863 22.667 L 8.663 22.667 Z M 7.2 15.363 L 7.2 16.089 L 7.937 16.089 L 7.937 15.363 L 7.2 15.363 Z M 11.6 13.9 L 11.6 14.637 L 12.337 14.637 L 12.337 13.9 L 11.6 13.9 Z M 16 13.163 L 16 14.626 L 16.737 14.626 L 16.737 13.163 L 16 13.163 Z M 6.463 10.974 L 6.463 13.163 L 8.663 13.163 L 8.663 10.974 L 6.463 10.974 Z M 13.063 24.856 L 13.063 26.319 L 13.8 26.319 L 13.8 24.856 L 13.063 24.856 Z M 13.8 13.163 L 13.074 13.163 L 13.074 14.626 L 13.8 14.626 L 13.8 13.9 L 14.537 13.9 L 14.537 12.437 L 13.8 12.437 L 13.8 13.163 Z M 14.537 11.711 L 14.537 12.437 L 15.263 12.437 L 15.263 11.711 L 14.537 11.711 Z M 14.537 13.9 L 14.537 14.626 L 15.263 14.626 L 15.263 13.9 L 14.537 13.9 Z M 10.863 15.363 L 10.863 16.089 L 13.063 16.089 L 13.063 15.363 L 10.863 15.363 Z M 13.8 12.437 L 13.8 11.711 L 14.526 11.711 L 14.526 10.974 L 13.8 10.974 L 13.8 9.522 L 11.6 9.522 L 11.6 10.248 L 13.063 10.248 L 13.063 10.974 L 12.326 10.974 L 12.326 11.7 L 11.6 11.7 L 11.6 12.426 L 10.874 12.426 L 10.874 11.711 L 10.126 11.711 L 10.126 10.985 L 10.863 10.985 L 10.863 11.7 L 11.6 11.7 L 11.6 10.974 L 10.874 10.974 L 10.874 9.522 L 5 9.522 L 5 14.637 L 10.874 14.637 L 10.874 13.9 L 11.6 13.9 L 11.6 12.437 L 12.337 12.437 L 12.337 13.163 L 13.074 13.163 L 13.074 12.437 L 13.8 12.437 Z M 9.4 13.9 L 5.737 13.9 L 5.737 10.248 L 9.4 10.248 L 9.4 13.9 Z M 10.126 13.9 L 10.126 12.437 L 10.863 12.437 L 10.863 13.9 L 10.126 13.9 Z M 13.063 11.7 L 13.063 10.985 L 13.8 10.985 L 13.8 11.7 L 13.063 11.7 Z M 18.937 19.741 L 18.937 19.015 L 17.463 19.015 L 17.463 17.552 L 16.737 17.552 L 16.737 18.278 L 16.011 18.278 L 16.011 17.552 L 16.737 17.552 L 16.737 15.352 L 15.274 15.352 L 15.274 16.089 L 14.526 16.089 L 14.526 17.552 L 13.8 17.552 L 13.8 18.278 L 14.537 18.278 L 14.537 17.552 L 15.263 17.552 L 15.263 19.741 L 13.8 19.741 L 13.8 19.015 L 13.063 19.015 L 13.063 17.552 L 12.337 17.552 L 12.337 16.826 L 10.863 16.826 L 10.863 16.1 L 10.126 16.1 L 10.126 15.374 L 8.663 15.374 L 8.663 16.1 L 7.926 16.1 L 7.926 16.826 L 8.663 16.826 L 8.663 17.552 L 9.4 17.552 L 9.4 16.826 L 10.137 16.826 L 10.137 17.552 L 9.4 17.552 L 9.4 18.278 L 10.137 18.278 L 10.137 19.004 L 10.863 19.004 L 10.863 18.278 L 11.6 18.278 L 11.6 17.552 L 12.326 17.552 L 12.326 18.278 L 11.6 18.278 L 11.6 19.004 L 10.874 19.004 L 10.874 20.467 L 12.337 20.467 L 12.337 21.204 L 10.863 21.204 L 10.863 20.478 L 10.126 20.478 L 10.126 21.204 L 8.663 21.204 L 8.663 20.478 L 7.937 20.478 L 7.937 21.204 L 7.2 21.204 L 7.2 26.319 L 12.337 26.319 L 12.337 21.93 L 13.063 21.93 L 13.063 24.13 L 14.537 24.13 L 14.537 23.404 L 15.274 23.404 L 15.274 21.93 L 14.537 21.93 L 14.537 21.204 L 13.8 21.204 L 13.8 21.93 L 13.074 21.93 L 13.074 20.467 L 15.274 20.467 L 15.274 21.193 L 16.011 21.193 L 16.011 19.741 L 17.463 19.741 L 17.463 20.478 L 18.2 20.478 L 18.2 19.741 L 18.937 19.741 Z M 11.6 25.582 L 7.937 25.582 L 7.937 21.93 L 11.6 21.93 L 11.6 25.582 Z M 12.337 19.741 L 11.6 19.741 L 11.6 19.015 L 12.337 19.015 L 12.337 19.741 Z M 13.8 22.667 L 14.537 22.667 L 14.537 23.393 L 13.8 23.393 L 13.8 22.667 Z M 18.937 9.522 L 18.937 10.974 L 19.663 10.974 L 19.663 9.522 L 18.937 9.522 Z M 17.463 9.522 L 16.737 9.522 L 16.737 11.711 L 16 11.711 L 16 12.437 L 16.737 12.437 L 16.737 13.163 L 17.463 13.163 L 17.463 14.626 L 18.2 14.626 L 18.2 13.163 L 18.937 13.163 L 18.937 14.637 L 19.663 14.637 L 19.663 13.9 L 20.4 13.9 L 20.4 12.437 L 18.937 12.437 L 18.937 10.974 L 17.463 10.974 L 17.463 9.522 Z M 24.063 17.552 L 22.6 17.552 L 22.6 18.278 L 21.863 18.278 L 21.863 19.015 L 21.137 19.015 L 21.137 16.826 L 21.863 16.826 L 21.863 16.089 L 21.137 16.089 L 21.137 16.815 L 20.4 16.815 L 20.4 17.552 L 19.663 17.552 L 19.663 16.089 L 18.937 16.089 L 18.937 17.552 L 18.2 17.552 L 18.2 18.289 L 18.937 18.278 L 19.663 18.278 L 19.663 19.741 L 21.863 19.741 L 21.863 20.478 L 19.663 20.478 L 19.663 21.204 L 18.937 21.204 L 18.937 21.93 L 18.2 21.93 L 18.2 22.667 L 18.937 22.667 L 18.937 23.393 L 18.2 23.393 L 18.2 24.13 L 18.937 24.13 L 18.937 24.856 L 19.663 24.856 L 19.663 25.582 L 18.937 25.582 L 18.937 26.319 L 24.8 26.319 L 24.8 21.93 L 24.063 21.93 L 24.063 25.582 L 20.4 25.582 L 20.4 21.93 L 22.6 21.93 L 22.6 19.015 L 23.337 19.015 L 23.337 19.741 L 24.8 19.741 L 24.8 18.289 L 24.074 18.289 L 24.074 17.552 L 24.8 17.552 L 24.8 15.363 L 24.063 15.363 L 24.063 17.552 Z M 18.2 20.478 L 18.2 21.204 L 18.937 21.204 L 18.937 20.478 L 18.2 20.478 Z M 21.863 16.826 L 21.863 17.552 L 22.6 17.552 L 22.6 16.826 L 21.863 16.826 Z M 23.337 20.478 L 23.337 21.215 L 24.8 21.215 L 24.8 20.478 L 23.337 20.478 Z M 23.337 10.985 L 23.337 13.174 L 25.537 13.174 L 25.537 10.985 L 23.337 10.985 Z M 20.4 13.9 L 20.4 14.637 L 21.137 14.637 L 21.137 13.9 L 20.4 13.9 Z M 17.463 15.363 L 17.463 16.089 L 18.2 16.089 L 18.2 15.363 L 17.463 15.363 Z M 22.6 15.363 L 22.6 16.089 L 23.337 16.089 L 23.337 15.363 L 22.6 15.363 Z M 21.137 22.667 L 21.137 24.856 L 23.337 24.856 L 23.337 22.667 L 21.137 22.667 Z M 20.4 15.363 L 20.4 16.089 L 21.137 16.089 L 21.137 15.363 L 20.4 15.363 Z M 15.263 10.974 L 15.263 11.711 L 16 11.711 L 16 10.974 L 15.263 10.974 Z M 20.4 9.522 L 20.4 10.248 L 21.863 10.248 L 21.863 10.974 L 21.126 10.974 L 21.126 11.7 L 20.4 11.7 L 20.4 10.974 L 19.663 10.974 L 19.663 11.711 L 20.4 11.711 L 20.4 12.426 L 21.137 12.426 L 21.137 13.152 L 21.874 13.152 L 21.874 14.615 L 27 14.615 L 27 9.522 L 20.4 9.522 Z M 26.263 13.9 L 22.6 13.9 L 22.6 10.248 L 26.263 10.248 L 26.263 13.9 Z M 9.851 8.235 C 10.357 8.576 10.929 8.642 11.38 8.664 C 11.765 8.686 12.414 8.686 13.096 8.686 C 14.361 8.686 15.846 8.708 16 8.708 C 16.407 8.719 17.65 8.719 18.75 8.719 C 19.432 8.719 20.07 8.708 20.466 8.697 C 20.917 8.675 21.489 8.598 21.995 8.268 C 22.633 7.839 22.952 7.135 22.952 6.178 C 22.952 5.408 22.633 4.946 22.369 4.682 C 21.654 3.989 20.554 4.033 20.191 4.044 L 20.147 4.044 C 19.927 4.044 19.135 4.165 18.2 4.693 C 17.375 5.155 16.66 5.815 16.077 6.64 L 16.011 6.805 L 15.956 6.717 C 15.34 5.793 14.537 5.166 13.646 4.66 C 12.722 4.132 11.93 4.022 11.71 4.022 L 11.666 4.022 C 11.303 4.011 10.203 3.967 9.488 4.66 C 9.004 5.122 8.905 5.727 8.905 6.156 C 8.894 7.102 9.213 7.806 9.851 8.235 Z M 18.739 5.771 C 19.52 5.32 20.114 5.254 20.158 5.254 L 20.235 5.254 C 20.862 5.232 21.302 5.331 21.533 5.551 C 21.676 5.694 21.753 5.892 21.753 6.178 C 21.753 7.223 21.258 7.454 20.411 7.498 C 19.696 7.531 18.035 7.52 16.957 7.509 C 17.401 6.793 18.012 6.196 18.739 5.771 Z M 10.313 5.518 C 10.522 5.32 10.896 5.221 11.435 5.221 L 11.699 5.221 C 11.743 5.221 12.337 5.287 13.118 5.738 C 13.822 6.145 14.427 6.728 14.911 7.476 C 13.822 7.487 12.161 7.498 11.446 7.465 C 10.599 7.421 10.104 7.19 10.104 6.145 C 10.104 5.859 10.17 5.661 10.313 5.518 Z M 17.463 24.856 L 16.737 24.856 L 16.737 26.319 L 17.474 26.319 L 17.474 24.856 L 18.2 24.856 L 18.2 24.13 L 17.463 24.13 L 17.463 24.856 Z"/>
</svg>
