<?xml version="1.0" encoding="utf-8"?>
<svg fill="#d1d1d1" width="32" height="32" viewBox="0 0 32 32" xmlns="http://www.w3.org/2000/svg">
  <path d="M 16.243 7 L 15.77 7 C 15.178 7 14.731 7.343 14.429 8.042 L 12.102 13.938 L 10.341 13.938 C 9.813 13.94 9.385 14.386 9.381 14.938 L 9.381 14.952 C 9.385 15.505 9.813 15.951 10.341 15.953 L 11.287 15.953 L 9.066 21.574 C 9.024 21.698 9.002 21.827 9 21.958 C 9 22.273 9.092 22.52 9.263 22.712 C 9.433 22.904 9.67 23 9.973 23 C 10.173 22.997 10.366 22.929 10.525 22.808 C 10.695 22.685 10.814 22.506 10.905 22.301 L 13.351 15.953 L 15.047 15.953 C 15.574 15.951 16.002 15.504 16.007 14.952 L 16.007 14.925 C 16.002 14.372 15.574 13.925 15.047 13.924 L 14.14 13.924 L 16.006 9.057 L 21.093 22.3 C 21.185 22.505 21.303 22.684 21.474 22.807 C 21.635 22.929 21.828 22.997 22.027 22.999 C 22.329 22.999 22.566 22.903 22.737 22.711 C 22.907 22.519 22.999 22.272 22.999 21.957 C 23.004 21.826 22.982 21.695 22.934 21.573 L 17.584 8.041 C 17.28 7.342 16.834 7 16.243 7 Z"/>
</svg>
