<?xml version="1.0" encoding="utf-8"?>
<svg fill="#d1d1d1" width="32" height="32" viewBox="0 0 32 32" xmlns="http://www.w3.org/2000/svg">
  <path fill-rule="evenodd" d="M 6.5 10.487 L 6.5 21.513 L 16 27 L 25.5 21.513 L 25.5 10.487 L 16 5 L 6.5 10.487 Z M 7.412 20.457 L 7.412 11.544 L 13.155 14.867 L 11.222 18.252 L 7.412 20.457 Z M 7.869 21.248 L 11.533 19.128 L 15.571 21.441 L 15.571 25.697 L 7.869 21.248 Z M 24.588 11.575 L 24.588 20.425 L 20.828 18.25 L 18.896 14.868 L 24.588 11.575 Z M 24.158 10.767 L 18.443 14.074 L 16.483 10.643 L 16.483 6.334 L 24.158 10.767 Z M 18.111 15.322 L 19.264 17.345 L 16.939 16 L 18.111 15.322 Z M 17.658 14.528 L 16.483 15.208 L 16.483 12.468 L 17.658 14.528 Z M 12.794 17.343 L 13.945 15.323 L 15.115 16 L 12.795 17.343 L 12.794 17.343 Z M 12.448 18.599 L 15.571 16.792 L 15.571 20.387 L 12.448 18.6 L 12.448 18.599 Z M 7.868 10.752 L 15.571 6.303 L 15.571 10.637 L 13.609 14.073 L 7.869 10.752 L 7.868 10.752 Z M 24.158 21.233 L 16.483 25.666 L 16.483 21.47 L 20.523 19.13 L 24.158 21.233 Z M 19.61 18.601 L 16.483 20.414 L 16.483 16.792 L 19.61 18.602 L 19.61 18.601 Z M 14.398 14.53 L 15.571 12.473 L 15.571 15.208 L 14.398 14.53 Z"/>
</svg>
