<?xml version="1.0" encoding="utf-8"?>
<svg fill="#d1d1d1" width="32" height="32" viewBox="0 0 32 32" xmlns="http://www.w3.org/2000/svg">
  <path d="M 4.406 21.711 C 4.25 21.958 4.115 22.216 4 22.484 C 4 22.52 4.144 22.52 4.295 22.52 C 4.635 22.49 4.968 22.417 5.289 22.302 L 5.73 22.192 C 6.195 21.99 6.639 21.743 7.055 21.454 L 7.864 20.792 C 8.256 20.474 8.614 20.116 8.932 19.724 L 9.815 18.471 C 10.442 17.626 11.14 17.221 11.951 17.257 C 12.415 17.239 12.869 17.113 13.276 16.89 L 15.558 15.418 C 15.791 15.275 16.012 15.114 16.221 14.938 C 16.119 14.675 15.983 14.428 15.815 14.202 L 15.374 13.467 C 14.896 12.694 14.896 12.656 15.338 11.847 L 15.374 11.737 C 15.514 11.5 15.637 11.254 15.744 11 C 15.739 10.636 15.688 10.274 15.594 9.922 C 15.476 10.068 15.378 10.23 15.302 10.402 C 14.896 11.247 14.639 11.727 14.601 11.727 C 14.491 11.727 14.565 10.695 14.786 10.071 L 15.779 6.951 C 16.036 6.03 16.074 6.03 16.331 6.951 L 17.8 11.552 C 17.987 12.178 18.136 12.289 18.76 12.289 L 19.79 12.289 C 20.598 12.25 21.112 12.62 21.52 13.503 C 21.742 13.893 22.015 14.253 22.331 14.571 L 27.448 19.88 C 27.61 20.081 27.796 20.263 28 20.422 L 28 20.386 C 27.874 20.161 27.74 19.94 27.597 19.724 L 23.805 14.276 C 23.515 13.86 23.194 13.466 22.845 13.098 L 21.669 11.848 C 21.337 11.51 20.889 11.313 20.416 11.295 L 20.123 11.295 C 19.202 11.295 18.318 10.633 17.951 9.711 L 16.331 5.698 C 16.257 5.443 16.132 5.206 15.964 5 C 15.773 5.197 15.611 5.42 15.484 5.662 L 11.735 11.406 C 11.553 11.775 11.095 11.91 10.742 11.698 L 10.703 11.698 C 10.331 11.478 9.964 11.588 9.743 11.994 L 4.406 21.71 L 4.406 21.711 Z"/>
</svg>
