<?xml version="1.0" encoding="utf-8"?>
<svg fill="#d1d1d1" width="32" height="32" viewBox="0 0 32 32" xmlns="http://www.w3.org/2000/svg">
  <path d="M 15.725 6.06 C 15.335 6.212 15.235 6.767 15.539 7.048 C 15.826 7.341 16.386 7.238 16.534 6.855 C 16.789 6.384 16.204 5.813 15.724 6.059 L 15.725 6.06 Z M 10.57 6.606 C 10.165 6.712 10.12 7.34 10.513 7.49 C 10.81 7.65 11.231 7.401 11.2 7.063 C 11.23 6.75 10.861 6.488 10.57 6.606 Z M 21.128 7.499 C 21.438 7.577 21.668 7.329 21.74 7.059 C 21.69 6.742 21.378 6.437 21.039 6.599 C 20.601 6.741 20.673 7.445 21.128 7.499 Z M 11.743 8.764 C 11.287 8.994 11.224 9.678 11.638 9.976 C 12.066 10.356 12.824 10.03 12.849 9.469 C 12.924 8.912 12.229 8.461 11.743 8.764 Z M 19.173 9.086 C 18.902 9.622 19.449 10.236 20.026 10.13 C 20.461 9.988 20.762 9.471 20.517 9.054 C 20.27 8.518 19.39 8.535 19.173 9.086 Z M 15.104 10.099 C 15.078 10.485 15.359 10.801 15.692 10.962 C 15.91 10.975 16.147 11.016 16.347 10.906 C 16.785 10.716 17.001 10.144 16.758 9.728 C 16.628 9.428 16.298 9.3 15.995 9.24 C 15.537 9.273 15.099 9.625 15.104 10.099 Z M 7.438 10.789 C 7.05 10.964 6.996 11.555 7.338 11.801 C 7.66 12.063 8.222 11.896 8.314 11.485 C 8.483 11.01 7.883 10.519 7.438 10.788 L 7.438 10.789 Z M 23.9 10.787 C 23.512 11.021 23.555 11.645 23.967 11.827 C 24.341 12.047 24.88 11.725 24.854 11.298 C 24.899 10.83 24.277 10.499 23.9 10.788 L 23.9 10.787 Z M 17.26 11.638 C 16.484 11.87 16.024 12.796 16.34 13.536 C 16.618 14.363 17.717 14.747 18.47 14.294 C 19.195 13.911 19.444 12.894 18.976 12.227 C 18.622 11.681 17.882 11.417 17.26 11.638 Z M 13.607 11.711 C 12.872 12.034 12.534 12.987 12.915 13.689 C 13.255 14.414 14.245 14.712 14.947 14.319 C 15.648 13.97 15.951 13.029 15.559 12.353 C 15.226 11.659 14.297 11.39 13.607 11.711 Z M 9.95 12.94 C 9.849 13.454 10.315 13.976 10.848 13.93 C 11.332 13.933 11.685 13.494 11.715 13.045 C 11.661 12.591 11.3 12.235 10.845 12.188 C 10.422 12.218 10.003 12.503 9.95 12.94 Z M 20.752 12.284 C 20.165 12.556 20.122 13.456 20.687 13.776 C 21.231 14.16 22.071 13.699 22.034 13.044 C 22.058 12.426 21.299 11.971 20.752 12.284 Z M 12.122 14.591 C 11.254 14.797 10.746 15.847 11.164 16.63 C 11.529 17.484 12.79 17.736 13.474 17.11 C 14.008 16.683 14.148 15.874 13.805 15.292 C 13.491 14.714 12.76 14.418 12.121 14.591 L 12.122 14.591 Z M 19.049 14.588 C 18.175 14.823 17.713 15.913 18.172 16.684 C 18.552 17.43 19.619 17.68 20.308 17.204 C 20.965 16.793 21.176 15.842 20.734 15.205 C 20.4 14.648 19.67 14.413 19.049 14.588 Z M 8.009 15.314 C 7.479 15.462 7.322 16.218 7.747 16.557 C 8.11 16.919 8.813 16.737 8.95 16.247 C 9.173 15.708 8.561 15.109 8.009 15.314 Z M 22.978 16.096 C 23.07 16.306 23.181 16.526 23.398 16.634 C 23.862 16.885 24.517 16.522 24.482 15.987 C 24.512 15.581 24.144 15.281 23.766 15.222 C 23.308 15.248 22.956 15.638 22.978 16.096 Z M 5.294 15.58 C 5.019 15.703 4.9 16.07 5.1 16.309 C 5.326 16.652 5.943 16.494 5.96 16.083 C 6.037 15.72 5.626 15.437 5.294 15.58 Z M 26.243 15.571 C 25.853 15.776 26.006 16.483 26.478 16.441 C 26.814 16.491 27.102 16.088 26.945 15.794 C 26.852 15.525 26.477 15.408 26.243 15.571 Z M 13.926 17.544 C 13.272 17.684 12.768 18.295 12.77 18.953 C 12.747 19.64 13.29 20.296 13.982 20.406 C 14.877 20.612 15.802 19.819 15.745 18.924 C 15.74 18.038 14.8 17.321 13.925 17.544 L 13.926 17.544 Z M 17.388 17.543 C 16.862 17.671 16.416 18.098 16.3 18.623 C 16.07 19.41 16.678 20.301 17.503 20.406 C 18.379 20.58 19.276 19.813 19.229 18.935 C 19.243 18.029 18.275 17.299 17.389 17.543 L 17.388 17.543 Z M 10.712 18.088 C 10.049 18.154 9.699 19.031 10.167 19.51 C 10.567 20.01 11.471 19.844 11.653 19.232 C 11.902 18.659 11.326 17.985 10.713 18.088 L 10.712 18.088 Z M 20.866 18.115 C 20.205 18.322 20.094 19.315 20.701 19.651 C 21.236 20.027 22.066 19.583 22.044 18.94 C 22.086 18.355 21.414 17.89 20.866 18.115 Z M 23.704 20.915 C 23.849 21.313 24.454 21.408 24.721 21.075 C 24.918 20.896 24.869 20.618 24.84 20.385 C 24.699 20.241 24.544 20.07 24.323 20.074 C 23.879 20.001 23.49 20.522 23.704 20.915 Z M 7.436 20.183 C 7.041 20.381 7.027 21 7.409 21.217 C 7.765 21.457 8.305 21.216 8.354 20.794 C 8.448 20.317 7.851 19.912 7.436 20.184 L 7.436 20.183 Z M 15.629 21.066 C 14.975 21.273 14.877 22.259 15.466 22.594 C 15.997 22.984 16.853 22.534 16.812 21.884 C 16.864 21.296 16.172 20.831 15.629 21.066 Z M 11.835 21.937 C 11.509 22.057 11.376 22.411 11.37 22.728 C 11.482 23.019 11.708 23.326 12.055 23.333 C 12.475 23.395 12.889 23.039 12.875 22.621 C 12.917 22.111 12.297 21.698 11.835 21.937 Z M 19.521 21.945 C 19.057 22.178 19.005 22.882 19.433 23.175 C 19.876 23.549 20.64 23.185 20.628 22.615 C 20.673 22.071 19.997 21.655 19.521 21.945 Z M 20.858 25.195 C 21.075 25.561 21.708 25.431 21.749 25.005 C 21.807 24.689 21.515 24.485 21.239 24.43 C 20.895 24.502 20.646 24.881 20.858 25.196 L 20.858 25.195 Z M 10.247 24.922 C 10.277 25.281 10.675 25.592 11.017 25.365 C 11.398 25.165 11.269 24.52 10.834 24.49 C 10.535 24.425 10.331 24.673 10.247 24.922 Z M 15.367 25.209 C 15.214 25.582 15.58 26.033 15.985 25.986 C 16.203 25.991 16.372 25.838 16.503 25.686 C 16.528 25.583 16.554 25.479 16.583 25.376 C 16.529 25.178 16.467 24.946 16.255 24.856 C 15.935 24.66 15.45 24.84 15.366 25.209 L 15.367 25.209 Z"/>
</svg>
