<?xml version="1.0" encoding="utf-8"?>
<svg fill="#d1d1d1" width="32" height="32" viewBox="0 0 32 32" xmlns="http://www.w3.org/2000/svg">
  <path d="M 24.984 17.631 L 20.056 17.631 L 19.176 14.991 L 24.976 14.991 C 25.552 14.991 25.912 14.368 25.624 13.869 C 25.49 13.638 25.243 13.495 24.976 13.495 L 18.7 13.495 L 16.183 5.822 C 16.08 5.002 15.127 4.601 14.468 5.1 C 14.258 5.26 14.113 5.492 14.063 5.752 L 8.043 24.055 C 8.027 24.155 8.027 24.255 8.043 24.355 C 8.056 25.134 8.908 25.606 9.576 25.205 C 9.8 25.071 9.964 24.854 10.032 24.601 L 15.083 9.201 L 16.526 13.495 L 15.276 13.495 C 14.7 13.495 14.34 14.118 14.628 14.617 C 14.762 14.848 15.009 14.991 15.276 14.991 L 17.036 14.991 L 17.916 17.631 L 15.276 17.631 C 14.7 17.631 14.34 18.254 14.628 18.753 C 14.762 18.984 15.009 19.127 15.276 19.127 L 18.436 19.127 L 19.861 23.351 L 12.302 23.351 C 11.489 23.351 10.981 24.231 11.387 24.935 C 11.576 25.262 11.925 25.463 12.302 25.463 L 21.243 25.463 C 21.797 25.463 22.246 25.014 22.246 24.46 C 22.247 24.308 22.213 24.158 22.149 24.02 L 20.539 19.127 L 24.939 19.127 C 25.515 19.127 25.875 18.504 25.587 18.005 C 25.453 17.774 25.206 17.631 24.939 17.631 L 24.983 17.631 L 24.984 17.631 Z"/>
</svg>
