<?xml version="1.0" encoding="utf-8"?>
<svg fill="#d1d1d1" viewBox="0 0 32 32" xmlns="http://www.w3.org/2000/svg">
  <path fill-rule="evenodd" d="M 9.752 11 C 7.279 11.174 5.161 13.228 5 15.621 L 5 16.406 C 5.17 18.804 7.317 20.834 9.787 21 L 10.59 21 C 12.55 20.828 14.198 19.585 15.386 18.138 C 15.096 17.713 14.803 17.289 14.502 16.872 C 13.738 18 12.742 19.064 11.4 19.532 C 10.192 19.97 8.79 19.689 7.785 18.936 C 6.443 17.986 5.955 16.143 6.555 14.657 C 7.237 12.853 9.525 11.791 11.398 12.47 C 12.913 13.021 13.848 14.385 14.764 15.598 C 15.828 16.97 16.708 18.511 18.079 19.634 C 19.023 20.436 20.235 20.9 21.482 21 L 22.228 21 C 24.254 20.82 26.107 19.466 26.743 17.583 C 26.28 17.58 25.817 17.582 25.354 17.589 C 24.446 19.443 21.861 20.34 20.013 19.243 C 17.456 17.726 16.352 14.849 14.343 12.811 C 13.375 11.821 12.069 11.134 10.656 11 L 9.752 11 Z M 21.432 11 C 19.458 11.183 17.822 12.453 16.649 13.921 C 16.924 14.328 17.208 14.73 17.494 15.128 C 18.237 14.053 19.201 13.047 20.481 12.588 C 22.087 11.978 24.096 12.553 25.046 13.958 C 25.436 14.496 25.586 15.147 25.7 15.783 C 24.076 15.793 22.453 15.783 20.827 15.787 C 20.829 16.147 20.829 16.504 20.827 16.864 C 22.884 16.862 24.943 16.874 27 16.855 L 27 15.625 C 26.795 13.228 24.675 11.157 22.182 11 L 21.432 11 Z"/>
</svg>
