<?xml version="1.0" encoding="utf-8"?>
<svg fill="#d1d1d1" width="32" height="32" viewBox="0 0 32 32" xmlns="http://www.w3.org/2000/svg">
  <path d="M 26.965 14.71 C 26.637 11.746 21.455 9.912 15.395 10.615 C 9.335 11.317 4.689 14.29 5.017 17.255 C 5.346 20.219 10.524 22.052 16.587 21.35 C 22.652 20.647 27.294 17.674 26.965 14.71 Z M 20.625 16.194 C 20.011 16.632 19.116 16.848 17.941 16.853 L 16.8 16.857 L 16.765 17.02 C 16.755 17.056 16.749 17.093 16.748 17.13 C 16.743 17.153 16.743 17.175 16.743 17.193 C 16.743 17.445 16.86 17.63 17.089 17.753 C 17.319 17.882 17.659 17.943 18.105 17.943 C 18.528 17.943 18.935 17.895 19.319 17.807 C 19.699 17.718 20.067 17.586 20.417 17.409 L 20.127 18.964 C 19.691 19.07 19.272 19.154 18.857 19.207 C 18.458 19.264 18.055 19.294 17.651 19.296 C 17.098 19.296 16.64 19.229 16.272 19.088 C 15.892 18.942 15.468 18.624 15.257 18.169 C 14.866 18.542 14.412 18.844 13.917 19.061 C 13.458 19.257 12.963 19.358 12.464 19.357 C 11.834 19.362 11.336 19.207 10.982 18.902 C 10.623 18.598 10.446 18.173 10.442 17.639 C 10.437 16.817 10.744 16.194 11.354 15.761 C 11.967 15.324 12.862 15.108 14.038 15.103 L 15.178 15.099 L 15.213 14.935 C 15.224 14.899 15.23 14.862 15.231 14.825 C 15.235 14.803 15.235 14.781 15.235 14.763 C 15.235 14.511 15.118 14.326 14.889 14.202 C 14.66 14.074 14.319 14.012 13.873 14.012 C 13.45 14.012 13.043 14.061 12.659 14.149 C 12.279 14.237 11.911 14.369 11.561 14.547 L 11.851 12.992 C 12.287 12.886 12.706 12.802 13.121 12.749 C 13.52 12.692 13.923 12.662 14.327 12.66 C 14.881 12.66 15.339 12.727 15.707 12.868 C 16.087 13.014 16.51 13.332 16.722 13.787 C 17.113 13.414 17.567 13.111 18.062 12.894 C 18.521 12.698 19.015 12.597 19.514 12.598 C 20.145 12.594 20.642 12.748 20.996 13.053 C 21.356 13.358 21.532 13.783 21.536 14.317 C 21.541 15.134 21.239 15.761 20.625 16.194 Z M 13.999 16.322 C 13.502 16.322 13.126 16.406 12.866 16.565 C 12.616 16.72 12.49 16.955 12.49 17.263 C 12.49 17.493 12.568 17.679 12.715 17.811 C 12.866 17.944 13.078 18.01 13.342 18.01 C 13.752 18.01 14.094 17.882 14.366 17.63 C 14.639 17.374 14.824 17.016 14.916 16.557 L 14.958 16.322 L 13.998 16.322 L 13.999 16.322 Z M 19.263 14.153 C 19.112 14.021 18.9 13.955 18.637 13.955 C 18.226 13.955 17.884 14.083 17.612 14.335 C 17.34 14.591 17.154 14.949 17.063 15.408 L 17.02 15.642 L 17.98 15.638 C 18.477 15.638 18.853 15.554 19.112 15.395 C 19.362 15.24 19.488 15.006 19.488 14.697 C 19.488 14.467 19.415 14.286 19.263 14.153 Z M 16.523 21.703 C 15.646 21.805 14.777 21.853 13.934 21.853 C 11.928 21.853 10.053 21.571 8.492 21.018 C 7.847 20.796 7.229 20.5 6.652 20.135 C 6.439 21.253 6.582 22.238 7.131 22.971 C 8.708 25.078 13.121 24.407 17.487 21.571 C 17.167 21.619 16.847 21.663 16.523 21.703 Z M 15.499 10.306 C 18.459 9.961 21.312 10.204 23.529 10.99 C 24.175 11.212 24.793 11.509 25.371 11.874 C 25.582 10.756 25.44 9.771 24.891 9.038 C 23.313 6.931 18.901 7.602 14.535 10.438 C 14.855 10.385 15.179 10.341 15.499 10.306 Z M 12.279 24.266 C 11.702 24.404 11.112 24.485 10.519 24.508 C 10.965 25.688 11.661 26.514 12.581 26.823 C 14.803 27.57 17.677 25.123 19.713 21.071 C 19.233 21.204 18.736 21.323 18.235 21.425 C 16.246 22.83 14.172 23.824 12.279 24.265 L 12.279 24.266 Z M 19.877 7.712 C 20.455 7.576 21.044 7.498 21.637 7.478 C 21.195 6.298 20.504 5.468 19.583 5.155 C 17.366 4.399 14.479 6.833 12.43 10.871 C 12.91 10.739 13.407 10.624 13.912 10.527 C 15.901 9.127 17.98 8.145 19.877 7.712 Z"/>
</svg>
