<?xml version="1.0" encoding="utf-8"?>
<svg fill="#d1d1d1" width="32" height="32" viewBox="0 0 32 32" xmlns="http://www.w3.org/2000/svg">
  <path d="M 15.952 18.986 C 15.983 18.986 16.014 18.986 16.045 18.986 C 16.047 18.99 16.048 18.995 16.049 19 C 16.044 19.037 16 19.055 15.97 19.032 C 15.956 19.021 15.949 19.003 15.952 18.986 Z M 9.938 15.493 C 7.244 20.153 10.605 25.983 15.988 25.986 C 15.99 25.986 15.991 25.986 15.993 25.986 C 19.853 25.981 22.981 22.853 22.986 18.993 C 22.988 17.763 22.663 16.554 22.046 15.49 C 24.738 10.828 21.374 5 15.991 5 C 10.607 5 7.242 10.827 9.934 15.489 C 9.935 15.49 9.935 15.492 9.936 15.493 L 9.938 15.493 Z M 16.048 12 C 16.016 12 15.983 12 15.951 12 C 15.95 11.973 15.973 11.95 16 11.95 C 16.026 11.953 16.047 11.974 16.049 12 L 16.048 12 Z"/>
</svg>
