<?xml version="1.0" encoding="utf-8"?>
<svg fill="#d1d1d1" height="32" viewBox="0 0 32 32" width="32" xmlns="http://www.w3.org/2000/svg">
  <path d="M 17.144 6.424 C 17.646 6.907 18.1 7.434 18.5 8 C 19.453 9.641 19.405 11.679 18.375 13.273 C 18.238 13.504 18.264 13.796 18.438 14 C 18.652 14.29 19.062 14.37 19.375 14.182 C 20.563 13.212 20.625 11.152 20.688 10.727 C 20.687 10.296 20.623 9.868 20.5 9.455 C 20.371 9.056 20.204 8.67 20 8.303 C 19.806 7.94 19.552 7.612 19.25 7.333 C 18.718 6.786 18.08 6.354 17.375 6.061 C 17.28 6 17.157 6 17.062 6.061 C 16.993 6.185 17.029 6.341 17.144 6.424 Z M 15.3 25.006 C 14.79 24.525 14.33 23.996 13.925 23.43 C 12.972 21.789 13.021 19.752 14.05 18.158 C 14.239 17.952 14.239 17.636 14.05 17.43 C 13.83 17.138 13.425 17.06 13.112 17.248 C 11.925 18.218 11.862 20.278 11.8 20.703 C 11.8 21.133 11.864 21.563 11.988 21.976 C 12.116 22.374 12.283 22.76 12.488 23.127 C 12.681 23.488 12.934 23.816 13.238 24.097 C 13.77 24.644 14.408 25.077 15.113 25.37 C 15.175 25.43 15.3 25.37 15.363 25.31 C 15.426 25.25 15.425 25.127 15.3 25.006 Z M 20.694 20.006 C 20.603 18.843 20.143 17.738 19.381 16.855 C 18.609 16.079 17.724 15.425 16.756 14.915 C 15.912 14.448 15.116 13.898 14.381 13.273 C 13.777 12.705 13.362 11.964 13.194 11.152 C 13.045 10.313 13.151 9.449 13.5 8.672 C 13.918 7.807 14.517 7.043 15.256 6.43 C 15.341 6.354 15.367 6.231 15.319 6.127 C 15.243 5.991 15.059 5.961 14.944 6.067 C 13.948 6.501 13.101 7.217 12.506 8.127 C 11.841 9.083 11.529 10.24 11.625 11.4 C 11.675 11.986 11.823 12.56 12.063 13.097 C 12.323 13.629 12.66 14.119 13.063 14.552 C 13.858 15.311 14.764 15.945 15.75 16.43 C 16.598 16.87 17.395 17.399 18.125 18.006 C 18.767 18.569 19.188 19.343 19.313 20.188 C 19.489 21.067 19.379 21.978 19 22.794 C 18.575 23.653 17.954 24.4 17.187 24.976 C 17.08 25.038 17.05 25.18 17.124 25.279 C 17.159 25.343 17.224 25.389 17.297 25.4 C 17.37 25.411 17.446 25.39 17.5 25.34 C 18.429 24.804 19.238 24.081 19.875 23.218 C 20.495 22.26 20.781 21.134 20.694 20.006 Z"/>
  <path d="M17.144 6.424a.28.28 0 01-.081-.363.289.289 0 01.312 0 5.63 5.63 0 011.875 1.272c.303.281.557.609.75.97.204.368.371.753.5 1.152.123.413.187.842.188 1.272-.063.425-.125 2.485-1.313 3.455a.714.714 0 01-.938-.182.627.627 0 01-.062-.727A5.047 5.047 0 0018.5 8c-.4-.566-.854-1.093-1.356-1.576zM15.3 25.006c.125.121.125.242.063.303s-.188.121-.25.06a5.63 5.63 0 01-1.875-1.272 3.709 3.709 0 01-.75-.97 6.463 6.463 0 01-.5-1.151 4.482 4.482 0 01-.188-1.273c.063-.424.125-2.485 1.313-3.455a.714.714 0 01.937.182.539.539 0 010 .728 5.047 5.047 0 00-.125 5.272c.405.567.866 1.095 1.375 1.576z" fill-opacity=".5"/>
</svg>
