<?xml version="1.0" encoding="utf-8"?>
<svg fill="#d1d1d1" height="32" viewBox="0 0 32 32" width="32" xmlns="http://www.w3.org/2000/svg">
  <path d="M 19.755 17.334 C 22.001 13.815 23.75 8 23.75 8 L 20.005 8.849 L 18.634 13.699 C 18.505 10.063 16.012 8.732 16.012 8.732 C 14.015 7.759 12.235 8.187 10.952 8.856 C 9.364 9.682 8.209 11.122 7.656 12.78 C 6.87 15.139 6.966 17.786 7.07 18.984 C 7.112 19.546 7.236 20.099 7.44 20.627 C 8.818 24.2 12.635 23.997 12.635 23.997 C 16.132 23.873 18.257 19.755 18.257 19.755 L 19.259 22.783 C 20.157 24.302 22.146 23.733 22.555 23.648 C 22.627 23.632 22.691 23.624 22.764 23.608 L 25 23.267 L 25 22.294 C 20.132 22.426 19.755 17.335 19.755 17.335 L 19.755 17.334 Z M 15.016 20.993 C 14.715 21.302 14.335 21.522 13.918 21.631 C 13.011 21.857 12.314 21.476 11.833 21.009 C 11.296 20.466 10.928 19.779 10.774 19.031 C 9.892 14.041 11.111 11.854 11.921 10.849 C 12.369 10.277 13.064 9.956 13.789 9.985 C 16.933 10.149 17.639 16.727 17.639 16.727 C 16.749 19.062 15.602 20.417 15.016 20.993 Z" fill-rule="evenodd"/>
</svg>
