<?xml version="1.0" encoding="utf-8"?>
<svg fill="#d1d1d1" viewBox="0 0 32 32" xmlns="http://www.w3.org/2000/svg">
  <path d="M 15.971 23.15 C 19.928 23.15 23.147 19.951 23.147 16.02 C 23.147 12.088 19.928 8.89 15.971 8.89 C 12.014 8.89 8.795 12.088 8.795 16.02 C 8.795 19.951 12.015 23.15 15.971 23.15 Z M 15.971 10.286 C 19.153 10.286 21.741 12.858 21.741 16.02 C 21.741 19.181 19.153 21.753 15.971 21.753 C 12.79 21.753 10.201 19.181 10.201 16.02 C 10.201 12.858 12.79 10.286 15.971 10.286 Z M 20.996 7.871 L 21.732 6.681 C 19.997 5.624 18.004 5.065 15.972 5.067 C 14.098 5.067 12.248 5.543 10.622 6.442 L 11.305 7.663 C 12.734 6.876 14.34 6.464 15.971 6.465 C 17.751 6.465 19.488 6.951 20.996 7.871 Z M 23.091 24.381 C 25.564 22.308 26.993 19.247 26.993 16.02 L 25.587 16.02 C 25.586 18.835 24.34 21.506 22.182 23.314 L 23.091 24.381 Z M 15.971 26.971 C 17.733 26.971 19.487 26.548 21.041 25.747 L 20.393 24.507 C 19.026 25.214 17.509 25.58 15.971 25.575 C 13.74 25.575 11.578 24.803 9.851 23.39 L 8.955 24.466 C 10.934 26.086 13.413 26.971 15.971 26.972 L 15.971 26.971 Z M 25.351 13.425 L 26.479 13.115 C 26.067 11.636 25.343 10.263 24.354 9.089 L 23.454 9.834 C 24.336 10.881 24.983 12.106 25.351 13.425 Z M 6.86 21.976 L 7.838 21.336 C 6.792 19.761 6.235 17.911 6.237 16.02 C 6.229 13.394 7.302 10.88 9.203 9.068 L 8.389 8.231 C 6.259 10.261 5.057 13.078 5.066 16.02 C 5.066 18.147 5.686 20.207 6.859 21.976 L 6.86 21.976 Z"/>
  <path d="M25.35 13.425a9.558 9.558 0 00-1.896-3.59l.9-.746a10.71 10.71 0 012.125 4.025l-1.128.311zM6.86 21.976a10.742 10.742 0 01-1.793-5.956c0-2.962 1.18-5.728 3.323-7.789l.814.837a9.564 9.564 0 00-2.966 6.952c0 1.899.554 3.737 1.6 5.316l-.978.64z" opacity=".5"/>
</svg>
