<?xml version="1.0" encoding="utf-8"?>
<svg fill="#d1d1d1" height="32" viewBox="0 0 32 32" width="32" xmlns="http://www.w3.org/2000/svg">
  <path d="M 27 16.015 L 26.999 16.001 L 26.999 15.978 C 26.999 15.971 26.999 15.963 26.997 15.956 L 26.997 15.955 C 26.992 15.89 26.974 15.826 26.945 15.767 L 26.942 15.762 L 26.936 15.75 C 26.797 15.495 23.446 9.5 16 9.5 C 8.554 9.5 5.203 15.494 5.063 15.75 C 5.061 15.754 5.059 15.758 5.057 15.762 L 5.055 15.766 C 5.025 15.825 5.007 15.889 5.001 15.955 L 5 15.978 L 5 16.023 C 5.004 16.103 5.025 16.181 5.064 16.251 C 5.203 16.506 8.556 22.5 16.001 22.5 C 23.446 22.5 26.798 16.506 26.937 16.251 C 26.975 16.181 26.997 16.103 27 16.023 L 27 16.015 Z M 25.89 16 C 25.332 16.868 23.245 19.747 19.467 20.94 L 19.555 20.875 C 19.727 20.748 19.697 20.483 19.502 20.397 C 19.412 20.358 19.308 20.372 19.23 20.432 C 18.566 20.932 17.798 21.272 16.985 21.424 C 16.33 21.478 15.672 21.478 15.017 21.424 C 12.833 21.021 11.115 19.304 10.685 17.094 C 10.907 16.935 10.994 16.646 10.897 16.391 C 10.799 16.135 10.542 15.979 10.273 16.014 C 10.004 16.049 9.795 16.266 9.764 16.539 C 9.733 16.812 9.891 17.07 10.145 17.165 C 10.427 18.678 11.276 20.027 12.519 20.935 C 8.75 19.74 6.667 16.867 6.11 16 C 6.673 15.126 8.785 12.213 12.615 11.036 C 12.591 11.053 12.566 11.07 12.542 11.088 C 12.446 11.159 12.405 11.283 12.442 11.397 C 12.498 11.572 12.708 11.643 12.858 11.537 C 13.576 11.018 14.41 10.684 15.288 10.566 C 15.305 10.564 15.322 10.56 15.338 10.555 C 15.779 10.53 16.222 10.53 16.663 10.555 C 16.679 10.56 16.696 10.564 16.713 10.566 C 18.965 10.866 20.793 12.582 21.287 14.805 C 21.088 14.991 21.039 15.289 21.168 15.529 C 21.375 15.928 21.936 15.954 22.178 15.576 C 22.244 15.474 22.276 15.354 22.27 15.233 C 22.267 14.961 22.078 14.725 21.813 14.663 C 21.48 13.192 20.611 11.898 19.376 11.033 C 23.212 12.207 25.328 15.126 25.891 16 L 25.89 16 Z M 20.82 16.017 C 20.82 13.319 18.658 11.126 16 11.126 C 13.342 11.126 11.18 13.32 11.18 16.017 C 11.18 18.714 13.343 20.91 16 20.91 C 18.657 20.91 20.82 18.715 20.82 16.018 L 20.82 16.017 Z M 20.276 16.017 C 20.276 18.41 18.358 20.357 16 20.357 C 13.642 20.357 11.723 18.41 11.723 16.017 C 11.723 13.624 13.643 11.678 16 11.678 C 18.357 11.678 20.276 13.625 20.276 16.018 L 20.276 16.017 Z M 17.576 14.674 C 17.576 13.929 17.057 13.288 16.336 13.144 C 15.616 12.999 14.896 13.391 14.616 14.08 C 14.336 14.769 14.576 15.563 15.189 15.974 L 14.761 18.601 C 14.72 18.8 14.875 18.986 15.079 18.98 L 16.999 18.98 C 17.208 18.98 17.349 18.81 17.315 18.601 L 16.886 15.975 C 17.317 15.686 17.576 15.198 17.576 14.675 L 17.576 14.674 Z M 21.923 16.717 C 21.943 16.554 21.817 16.411 21.653 16.409 C 21.514 16.41 21.398 16.515 21.383 16.653 C 21.256 17.791 20.776 18.861 20.01 19.713 C 19.802 19.668 19.624 19.864 19.688 20.067 C 19.752 20.268 20.009 20.325 20.153 20.171 C 20.249 20.192 20.348 20.159 20.413 20.085 C 21.255 19.147 21.783 17.97 21.923 16.717 Z M 12.053 11.849 C 11.944 11.744 11.771 11.749 11.668 11.86 C 10.824 12.763 10.277 13.903 10.101 15.127 C 10.076 15.293 10.203 15.442 10.371 15.444 C 10.506 15.444 10.62 15.344 10.64 15.208 C 10.8 14.096 11.296 13.061 12.063 12.24 C 12.167 12.129 12.162 11.955 12.053 11.85 L 12.053 11.849 Z"/>
</svg>
