<?xml version="1.0" encoding="utf-8"?>
<svg fill="#d1d1d1" viewBox="0 0 32 32" xmlns="http://www.w3.org/2000/svg">
  <path fill-rule="evenodd" d="M 8.303 11.957 C 7.376 11.957 6.793 12.403 6.557 13.294 C 6.521 13.567 6.534 13.844 6.598 14.126 C 6.662 14.408 6.771 14.663 6.925 14.89 C 7.08 15.117 7.28 15.295 7.525 15.422 C 7.771 15.549 8.067 15.604 8.412 15.586 C 9.364 15.609 10.268 16.011 10.922 16.704 C 11.599 17.362 11.975 18.27 11.959 19.214 C 11.959 19.724 12.136 20.156 12.491 20.511 C 12.846 20.865 13.278 21.043 13.787 21.043 C 14.277 21.043 14.701 20.865 15.055 20.511 C 15.41 20.156 15.587 19.724 15.587 19.215 C 15.59 18.751 15.409 18.304 15.083 17.973 C 14.771 17.629 14.333 17.427 13.869 17.413 C 12.905 17.432 12.032 17.095 11.249 16.404 C 10.54 15.714 10.167 14.849 10.131 13.812 C 10.095 12.812 10.449 11.939 11.195 11.192 C 11.941 10.447 12.832 10.092 13.869 10.129 C 14.333 10.115 14.771 9.913 15.083 9.569 C 15.413 9.23 15.594 8.774 15.587 8.301 C 15.587 7.81 15.41 7.387 15.055 7.032 C 14.724 6.687 14.265 6.495 13.787 6.5 C 13.277 6.5 12.846 6.677 12.491 7.032 C 12.146 7.363 11.953 7.823 11.959 8.301 C 11.959 9.265 11.613 10.12 10.922 10.866 C 10.212 11.575 9.376 11.939 8.412 11.957 L 8.303 11.957 Z M 8.328 17.414 C 7.818 17.414 7.387 17.592 7.032 17.946 C 6.687 18.277 6.494 18.737 6.5 19.215 C 6.5 19.743 6.686 20.184 7.06 20.538 C 7.419 20.888 7.909 21.071 8.41 21.043 C 9.362 21.066 10.266 21.469 10.92 22.162 C 11.61 22.853 11.956 23.699 11.956 24.699 C 11.956 25.19 12.129 25.613 12.475 25.968 C 12.82 26.323 13.239 26.5 13.73 26.5 L 13.784 26.5 C 14.275 26.5 14.698 26.323 15.053 25.968 C 15.408 25.613 15.585 25.19 15.585 24.699 C 15.585 23.699 15.93 22.853 16.622 22.162 C 17.294 21.452 18.14 21.079 19.159 21.043 L 19.241 21.043 C 20.15 21.043 20.731 20.588 20.987 19.679 C 21.114 19.133 21.005 18.615 20.659 18.124 C 20.314 17.614 19.813 17.378 19.159 17.414 C 18.177 17.396 17.331 17.032 16.622 16.323 C 15.951 15.599 15.605 14.772 15.586 13.843 L 15.587 13.758 C 15.587 12.775 15.933 11.938 16.624 11.248 C 17.278 10.555 18.181 10.151 19.134 10.128 C 20.171 10.111 21.053 10.465 21.78 11.193 C 22.526 11.957 22.89 12.839 22.872 13.839 C 22.89 14.331 23.076 14.744 23.431 15.081 C 23.77 15.411 24.226 15.593 24.699 15.586 C 25.191 15.586 25.613 15.408 25.969 15.054 C 26.323 14.699 26.5 14.267 26.5 13.758 C 26.5 13.248 26.31 12.816 25.927 12.462 C 25.545 12.107 25.109 11.939 24.617 11.957 C 23.636 11.939 22.79 11.575 22.08 10.866 C 21.39 10.12 21.044 9.265 21.044 8.301 L 21.044 8.083 C 21.044 8.064 21.034 8.046 21.016 8.028 L 21.016 7.946 C 21.016 7.928 21.007 7.91 20.989 7.892 L 20.989 7.81 L 20.962 7.782 L 20.962 7.728 L 20.948 7.714 C 20.939 7.705 20.935 7.692 20.935 7.674 L 20.935 7.646 C 20.916 7.646 20.907 7.628 20.907 7.591 L 20.88 7.564 L 20.866 7.55 C 20.857 7.541 20.853 7.528 20.853 7.51 L 20.853 7.482 C 20.835 7.482 20.825 7.473 20.825 7.455 L 20.812 7.441 C 20.802 7.432 20.798 7.419 20.798 7.401 L 20.771 7.401 L 20.771 7.373 L 20.744 7.346 L 20.744 7.29 L 20.716 7.263 L 20.689 7.236 L 20.675 7.222 C 20.666 7.213 20.662 7.199 20.662 7.182 L 20.635 7.154 C 20.616 7.154 20.607 7.144 20.607 7.127 L 20.594 7.113 C 20.584 7.103 20.58 7.09 20.58 7.072 L 20.553 7.072 L 20.553 7.045 C 20.534 7.045 20.525 7.035 20.525 7.018 L 20.498 6.99 C 20.48 6.99 20.462 6.981 20.444 6.963 L 20.416 6.936 L 20.389 6.936 L 20.389 6.908 C 20.371 6.908 20.362 6.899 20.362 6.881 C 20.325 6.881 20.307 6.871 20.307 6.854 L 20.28 6.854 L 20.28 6.826 L 20.252 6.799 C 20.216 6.799 20.198 6.79 20.198 6.772 L 20.171 6.772 L 20.143 6.745 C 20.125 6.745 20.112 6.74 20.103 6.731 C 20.098 6.726 20.094 6.722 20.089 6.717 L 20.062 6.69 L 20.034 6.69 L 20.034 6.663 L 19.98 6.663 L 19.952 6.635 C 19.934 6.635 19.916 6.626 19.898 6.608 L 19.843 6.608 L 19.816 6.581 L 19.761 6.581 L 19.734 6.554 L 19.68 6.554 C 19.661 6.554 19.648 6.549 19.639 6.54 L 19.625 6.526 L 19.571 6.526 C 19.552 6.526 19.539 6.522 19.53 6.513 L 19.516 6.499 L 18.943 6.499 C 18.943 6.517 18.934 6.526 18.916 6.526 L 18.834 6.526 L 18.807 6.554 L 18.725 6.554 L 18.698 6.581 L 18.643 6.581 L 18.616 6.608 L 18.561 6.608 L 18.561 6.635 L 18.507 6.635 L 18.479 6.663 L 18.452 6.663 L 18.452 6.69 L 18.397 6.69 L 18.37 6.717 L 18.343 6.717 C 18.343 6.736 18.333 6.745 18.316 6.745 C 18.297 6.745 18.288 6.754 18.288 6.772 L 18.261 6.772 L 18.234 6.799 L 18.206 6.826 C 18.188 6.826 18.179 6.836 18.179 6.854 L 18.125 6.854 L 18.125 6.881 L 18.097 6.908 C 18.079 6.908 18.07 6.918 18.07 6.936 L 18.015 6.936 L 17.988 6.963 C 17.988 6.981 17.979 6.99 17.961 6.99 L 17.961 7.018 L 17.934 7.018 L 17.934 7.045 L 17.906 7.072 C 17.888 7.072 17.879 7.082 17.879 7.099 L 17.852 7.127 L 17.824 7.154 C 17.561 7.457 17.416 7.844 17.415 8.245 C 17.433 9.264 17.07 10.146 16.324 10.892 C 15.624 11.591 14.806 11.946 13.867 11.958 C 13.819 11.956 13.772 11.956 13.724 11.958 L 13.678 11.956 C 13.638 11.959 13.598 11.963 13.558 11.969 C 13.151 12.012 12.773 12.196 12.488 12.489 C 12.143 12.82 11.951 13.279 11.956 13.757 C 11.956 14.248 12.125 14.671 12.461 15.026 C 12.794 15.392 13.269 15.596 13.763 15.585 L 13.787 15.585 C 14.741 15.593 15.577 15.939 16.294 16.622 C 17.005 17.275 17.411 18.195 17.413 19.16 C 17.431 20.178 17.076 21.051 16.349 21.779 C 15.639 22.506 14.794 22.87 13.812 22.87 L 13.73 22.87 C 12.73 22.87 11.874 22.506 11.165 21.779 C 10.455 21.033 10.11 20.16 10.129 19.159 C 10.113 18.692 9.911 18.25 9.569 17.932 C 9.243 17.598 8.795 17.411 8.328 17.413 L 8.328 17.414 Z"/>
</svg>
