<?xml version="1.0" encoding="utf-8"?>
<svg fill="#d1d1d1" width="32" height="32" viewBox="0 0 32 32" xmlns="http://www.w3.org/2000/svg">
  <path d="M 16.583 6.25 C 16.301 6.323 16.029 6.4 15.753 6.477 C 15.736 6.517 10.238 20.267 10.238 20.267 C 10.119 20.557 9.984 20.843 9.832 21.12 C 9.724 21.322 9.598 21.512 9.454 21.69 C 9.244 21.945 8.972 22.141 8.663 22.258 C 8.6 22.282 8.536 22.304 8.472 22.324 C 8.236 22.394 7.997 22.45 7.755 22.491 C 7.672 22.501 7.589 22.517 7.509 22.541 C 7.496 22.777 7.497 23.014 7.511 23.25 L 7.511 23.249 L 13.202 23.249 C 13.222 23.247 13.242 23.243 13.262 23.239 C 13.266 23.227 13.268 23.215 13.27 23.203 L 13.27 22.585 C 13.268 22.569 13.264 22.553 13.259 22.537 L 13.212 22.529 C 12.994 22.495 12.775 22.465 12.558 22.426 C 12.361 22.394 12.167 22.345 11.978 22.28 C 11.861 22.24 11.749 22.184 11.648 22.113 C 11.494 22.004 11.393 21.835 11.371 21.647 C 11.355 21.505 11.359 21.361 11.384 21.22 C 11.415 21.008 15.652 9.772 15.665 9.764 C 15.705 9.799 19.655 21.003 19.705 21.192 C 19.739 21.313 19.761 21.437 19.773 21.562 C 19.794 21.838 19.693 22.054 19.442 22.192 C 19.396 22.219 19.348 22.242 19.298 22.262 C 19.198 22.298 19.098 22.334 18.995 22.362 C 18.74 22.427 18.48 22.477 18.219 22.511 C 18.165 22.516 18.111 22.526 18.059 22.541 C 18.055 22.55 18.052 22.559 18.05 22.568 L 18.05 23.207 C 18.053 23.222 18.057 23.236 18.064 23.25 L 24.427 23.25 C 24.447 23.248 24.467 23.244 24.493 23.24 C 24.498 23.162 24.5 23.085 24.497 23.007 C 24.497 22.927 24.5 22.842 24.497 22.767 C 24.495 22.691 24.511 22.615 24.485 22.536 L 24.305 22.51 C 24.051 22.477 23.798 22.428 23.55 22.363 C 23.092 22.249 22.693 21.967 22.433 21.573 C 22.349 21.447 22.271 21.318 22.199 21.185 C 22.035 20.875 16.599 6.29 16.583 6.25 Z"/>
</svg>
