<?xml version="1.0" encoding="utf-8"?>
<svg fill="#d1d1d1" width="32" height="32" viewBox="0 0 32 32" xmlns="http://www.w3.org/2000/svg">
  <path d="M 16.05 11.4 C 13.524 11.4 11.503 13.45 11.503 15.9 C 11.503 17.95 12.867 19.65 14.787 20.2 L 14.787 23 L 9.178 20.2 C 9.027 20.1 8.926 19.95 8.926 19.8 L 8.926 18.25 L 6.5 18.25 L 6.5 19.8 C 6.5 20.9 7.106 21.85 8.066 22.35 L 14.636 25.7 C 15.04 25.9 15.495 26 15.949 26 C 16.404 26 16.859 25.9 17.263 25.7 L 23.883 22.35 C 24.843 21.85 25.449 20.85 25.449 19.8 L 25.449 18.25 L 23.024 18.25 L 23.024 19.8 C 23.024 20 22.923 20.15 22.771 20.2 L 17.314 23 L 17.314 20.2 C 19.249 19.665 20.592 17.908 20.598 15.9 C 20.598 13.4 18.527 11.4 16.051 11.4 L 16.05 11.4 Z M 16 13.85 C 17.112 13.85 18.072 14.75 18.072 15.9 C 18.072 17.05 17.112 17.95 16 17.95 C 14.888 17.95 13.928 17.05 13.928 15.9 C 13.928 14.75 14.838 13.85 16 13.85 Z M 17.314 6.3 C 16.454 5.9 15.494 5.9 14.686 6.3 L 8.066 9.65 C 7.106 10.15 6.5 11.15 6.5 12.2 L 6.5 13.75 L 8.926 13.75 L 8.926 12.2 C 8.926 12 9.026 11.85 9.178 11.8 L 15.798 8.45 C 15.949 8.4 16.101 8.4 16.202 8.45 L 22.822 11.8 C 22.973 11.9 23.074 12.05 23.074 12.2 L 23.074 13.75 L 25.5 13.75 L 25.5 12.2 C 25.5 11.1 24.894 10.15 23.934 9.65 L 17.314 6.3 Z"/>
</svg>
