<?xml version="1.0" encoding="utf-8"?>
<svg fill="#d1d1d1" viewBox="0 0 32 32" xmlns="http://www.w3.org/2000/svg">
  <path fill-rule="evenodd" d="M 7.965 17.598 C 7.371 16.459 6.881 15.27 6.499 14.044 C 6.317 13.47 6.164 12.887 6.039 12.298 C 7.851 10.81 9.989 9.536 12.287 8.47 C 13.148 8.07 13.984 7.722 14.773 7.425 C 15.263 7.241 15.673 7.099 15.995 6.995 C 16.327 7.103 16.725 7.241 17.215 7.425 C 18.005 7.723 18.84 8.07 19.701 8.47 C 22.001 9.537 24.139 10.81 25.951 12.297 C 25.552 14.083 24.929 15.812 24.098 17.442 C 23.572 18.477 22.949 19.46 22.238 20.378 C 19.127 20.156 19.316 18.278 19.316 18.278 C 19.316 18.203 19.316 18.128 19.33 18.054 C 19.33 18.054 19.48 16.577 20.782 16.577 C 20.951 16.567 21.118 16.605 21.267 16.685 C 21.948 17.051 21.505 17.735 21.505 17.735 C 22.358 17.6 23.415 16.651 23.245 14.991 C 23.074 13.331 21.082 12.477 21.082 12.477 C 21.144 12.097 21.082 11.969 21.082 11.969 C 16.854 9.428 13.561 9.977 13.561 9.977 L 14.379 10.79 C 14.297 10.783 14.209 10.783 14.127 10.783 C 10.697 10.905 7.955 13.764 7.955 17.281 C 7.955 17.391 7.959 17.496 7.965 17.598 Z M 27 11.902 L 26.774 11.742 C 24.932 10.192 22.754 8.862 20.402 7.746 C 19.077 7.11 17.713 6.56 16.318 6.1 L 16.21 6.065 L 15.993 6 L 15.675 6.1 C 14.592 6.447 13.157 7 11.588 7.746 C 9.233 8.865 7.052 10.196 5.208 11.748 L 5.12 11.823 L 5 11.923 L 5.052 12.211 C 5.042 12.171 5.097 12.451 5.147 12.675 C 5.562 14.48 6.197 16.227 7.037 17.878 C 7.938 19.635 9.037 21.171 10.305 22.452 C 11.813 23.985 13.647 25.158 15.671 25.885 L 15.789 25.925 L 15.999 26 L 16.213 25.918 L 16.325 25.878 C 18.333 25.16 20.135 24.008 21.692 22.446 C 22.954 21.178 24.054 19.638 24.96 17.872 C 25.606 16.607 26.131 15.285 26.529 13.922 C 26.747 13.177 26.924 12.399 26.95 12.182 L 27 11.902 Z M 19.398 12.626 L 19.384 12.64 C 18.191 12.389 17.761 11.78 17.761 11.78 C 18.887 11.772 19.903 12.037 20.646 12.484 C 20.646 12.484 20.244 12.355 19.835 12.301 C 19.63 12.511 19.453 12.599 19.398 12.626 Z"/>
</svg>
