<?xml version="1.0" encoding="utf-8"?>
<svg fill="#d1d1d1" width="32" height="32" viewBox="0 0 32 32" xmlns="http://www.w3.org/2000/svg">
  <path d="M 28.445 14.517 L 28.378 14.683 L 28.371 14.713 L 28.371 14.753 C 28.311 15.2 28.211 15.656 28.071 16.113 C 27.846 16.811 27.507 17.466 27.067 18.053 C 26.701 18.57 26.261 19.03 25.761 19.42 C 25.629 19.53 25.521 19.659 25.455 19.788 C 25.389 19.936 25.345 20.094 25.325 20.255 L 25.311 20.46 L 25.296 20.633 L 25.286 20.734 L 25.275 20.828 L 25.263 20.916 L 25.249 21.001 L 25.233 21.087 L 25.225 21.131 C 25.031 22.197 24.665 22.961 24.078 23.848 L 23.47 24.728 C 22.588 25.888 21.556 26.646 20.326 27.03 L 19.959 27.142 L 19.687 27.179 C 19.295 27.244 18.92 27.279 18.581 27.279 L 18.073 27.279 L 17.763 27.299 C 17.54 27.299 17.328 27.339 17.091 27.424 C 16.235 27.692 15.209 27.829 13.953 27.839 L 13.724 27.839 L 13.473 27.837 L 13.303 27.833 L 13.038 27.825 L 12.758 27.813 L 12.456 27.798 L 11.655 27.75 C 11.847 27.82 12.042 27.886 12.239 27.948 L 12.448 27.958 L 12.751 27.973 L 12.941 27.982 L 13.211 27.992 L 13.385 27.995 L 13.639 27.999 L 13.808 28 C 15.146 28 16.234 27.86 17.143 27.575 C 17.343 27.499 17.554 27.46 17.768 27.459 L 18.078 27.439 L 18.581 27.439 C 18.93 27.439 19.313 27.403 19.711 27.338 L 19.994 27.298 L 20.27 27.215 C 21.58 26.831 22.673 26.044 23.602 24.822 L 24.214 23.937 C 24.79 23.065 25.158 22.309 25.362 21.28 L 25.402 21.071 L 25.417 20.984 L 25.43 20.895 L 25.442 20.803 L 25.452 20.703 L 25.462 20.596 L 25.482 20.343 L 25.487 20.27 C 25.505 20.126 25.542 19.993 25.602 19.855 C 25.655 19.751 25.749 19.639 25.864 19.545 C 26.375 19.146 26.824 18.674 27.199 18.145 C 27.649 17.545 27.996 16.874 28.226 16.16 L 28.272 16.005 L 28.362 15.667 C 28.39 15.554 28.416 15.441 28.439 15.328 L 28.498 14.996 L 28.492 14.92 L 28.445 14.517 Z M 27.871 12.119 L 27.85 12.382 L 27.817 12.657 L 27.777 12.919 L 27.768 12.979 L 27.768 13.03 C 27.682 13.488 27.548 13.936 27.367 14.365 L 27.349 14.4 L 27.341 14.433 L 27.341 14.48 L 27.325 14.55 C 27.322 14.564 27.321 14.579 27.321 14.593 L 27.321 14.653 C 27.275 15.041 27.188 15.423 27.061 15.793 C 26.871 16.353 26.611 16.873 26.288 17.337 L 26.218 17.435 C 25.878 17.918 25.465 18.345 24.994 18.702 C 24.794 18.841 24.621 19.042 24.486 19.287 C 24.369 19.499 24.306 19.729 24.296 19.977 L 24.294 20.044 C 24.294 20.335 24.261 20.622 24.194 20.951 C 24.083 21.519 23.89 22.067 23.62 22.579 L 23.571 22.671 L 23.523 22.759 L 23.474 22.845 L 23.422 22.934 L 23.366 23.028 L 23.266 23.188 L 23.188 23.311 L 22.743 23.95 C 21.949 25.034 21.045 25.713 19.961 26.024 L 19.898 26.045 L 19.868 26.052 L 19.828 26.062 L 19.759 26.082 C 19.719 26.094 19.678 26.101 19.637 26.102 L 19.613 26.105 L 19.553 26.125 C 19.252 26.179 18.947 26.205 18.642 26.202 L 18.098 26.202 L 17.988 26.206 L 17.751 26.219 L 17.655 26.222 L 17.626 26.222 C 17.541 26.222 17.463 26.228 17.375 26.242 L 17.295 26.257 L 17.208 26.275 L 17.11 26.299 L 16.936 26.345 C 16.01 26.615 15.033 26.743 13.808 26.743 L 13.655 26.743 L 13.502 26.74 L 13.272 26.735 L 13.113 26.73 L 12.863 26.72 L 12.497 26.7 L 12.189 26.682 L 11.557 26.642 L 11.451 26.642 L 11.365 26.624 L 11.191 26.601 L 11.123 26.593 L 11.063 26.588 L 11.006 26.584 L 10.951 26.583 L 10.923 26.583 C 9.992 26.49 9.343 26.353 8.578 26.008 L 8.458 25.949 L 8.362 25.892 C 8.27 25.841 8.18 25.787 8.091 25.731 C 8.321 25.917 8.56 26.096 8.796 26.263 C 9.464 26.53 10.078 26.649 10.916 26.732 L 10.946 26.732 L 11.003 26.734 L 11.063 26.738 L 11.127 26.744 L 11.243 26.758 L 11.339 26.771 L 11.436 26.791 L 11.553 26.792 L 12.39 26.844 L 12.679 26.86 L 12.943 26.873 L 13.189 26.883 L 13.423 26.889 L 13.577 26.891 L 13.807 26.892 C 15.047 26.892 16.037 26.762 16.977 26.489 L 17.092 26.459 L 17.192 26.433 L 17.237 26.423 L 17.32 26.404 L 17.394 26.391 C 17.46 26.38 17.527 26.373 17.594 26.371 L 17.687 26.371 L 17.757 26.368 L 18.064 26.353 L 18.117 26.351 L 18.756 26.351 C 19.058 26.345 19.337 26.32 19.591 26.27 L 19.649 26.25 L 19.699 26.247 C 19.721 26.244 19.743 26.24 19.764 26.235 L 19.809 26.223 L 19.889 26.201 L 19.921 26.193 C 19.926 26.192 19.931 26.191 19.936 26.19 L 20.006 26.167 C 21.122 25.847 22.053 25.147 22.867 24.036 L 23.315 23.393 L 23.465 23.156 L 23.554 23.009 L 23.632 22.875 L 23.681 22.787 L 23.731 22.695 C 24.021 22.157 24.227 21.579 24.344 20.98 C 24.409 20.672 24.443 20.359 24.446 20.044 C 24.446 19.796 24.504 19.568 24.619 19.359 C 24.744 19.133 24.901 18.949 25.084 18.823 C 25.534 18.479 25.93 18.083 26.265 17.628 L 26.342 17.522 C 26.707 17.022 26.996 16.455 27.204 15.839 C 27.35 15.385 27.435 15.026 27.472 14.661 L 27.472 14.593 L 27.474 14.577 L 27.485 14.532 C 27.49 14.513 27.493 14.493 27.493 14.473 L 27.493 14.451 L 27.505 14.426 C 27.699 13.96 27.838 13.496 27.918 13.043 L 27.919 12.99 L 27.949 12.806 L 27.953 12.778 L 27.974 12.628 L 27.993 12.485 C 27.953 12.362 27.913 12.24 27.871 12.119 Z M 20.084 6.147 L 19.894 6.148 L 19.71 6.151 L 19.534 6.155 L 19.365 6.161 L 19.206 6.169 L 19.056 6.178 C 18.949 6.185 18.842 6.195 18.735 6.208 L 18.653 6.216 L 18.457 6.23 L 18.395 6.236 L 18.369 6.238 L 18.324 6.245 L 18.304 6.249 L 18.294 6.249 L 18.28 6.25 L 18.238 6.259 C 18.217 6.264 18.196 6.267 18.175 6.267 C 17.611 6.327 17.093 6.497 16.554 6.763 C 16.474 6.802 16.395 6.842 16.317 6.884 L 16.168 6.966 L 15.967 7.078 L 15.857 7.131 C 15.717 7.198 15.574 7.26 15.429 7.316 L 15.332 7.352 L 15.239 7.371 L 15.198 7.378 C 15.088 7.402 14.974 7.393 14.87 7.352 L 14.834 7.337 C 14.2 7.058 13.654 6.889 13.178 6.889 L 12.975 6.889 C 11.974 6.949 11.127 7.229 10.348 7.929 L 10.228 8.027 L 10.098 8.175 C 9.738 8.615 9.555 8.993 9.393 9.502 L 9.374 9.552 L 9.316 9.72 L 9.294 9.778 L 9.256 9.853 C 9.105 10.247 9.007 10.66 8.964 11.08 L 8.947 11.177 L 8.939 11.207 L 8.927 11.245 L 8.898 11.323 L 8.835 11.508 L 8.765 11.726 C 8.705 11.876 8.632 12.037 8.551 12.202 L 8.484 12.338 L 8.447 12.39 L 8.404 12.474 L 8.394 12.491 L 8.371 12.528 L 8.359 12.548 C 8.352 12.56 8.344 12.57 8.334 12.58 C 7.836 13.297 7.555 13.921 7.522 14.73 L 7.522 14.974 L 7.502 15.331 C 7.483 15.413 7.446 15.489 7.393 15.554 L 7.329 15.618 L 7.269 15.68 L 7.211 15.74 L 7.155 15.803 L 7.097 15.868 L 7.037 15.939 L 6.973 16.017 L 6.825 16.203 L 6.643 16.434 L 6.543 16.565 L 6.462 16.667 C 6.455 16.676 6.447 16.685 6.44 16.694 L 6.355 16.819 C 5.511 18.038 5.365 19.021 5.798 20.564 L 5.795 20.585 L 5.802 20.616 L 5.822 20.656 L 5.896 20.879 L 5.932 20.986 L 5.966 21.08 L 5.982 21.125 C 6.041 21.285 6.101 21.425 6.168 21.56 L 6.209 21.64 C 6.225 21.688 6.249 21.748 6.281 21.817 L 6.325 21.907 L 6.371 21.999 L 6.454 22.187 L 6.537 22.368 C 7.141 23.671 7.732 24.422 8.857 25.054 L 8.914 25.092 L 9.003 25.136 C 9.575 25.389 10.046 25.502 10.754 25.59 L 10.954 25.613 L 11.058 25.624 L 11.328 25.662 L 11.504 25.684 L 11.634 25.684 L 12.346 25.731 L 12.726 25.753 L 12.898 25.761 L 13.061 25.769 L 13.293 25.777 L 13.441 25.781 L 13.661 25.784 L 13.808 25.784 C 14.992 25.784 15.938 25.652 16.874 25.381 L 16.894 25.372 C 16.91 25.362 16.928 25.355 16.946 25.351 L 16.98 25.343 L 17.028 25.333 L 17.064 25.325 C 17.069 25.323 17.075 25.322 17.08 25.32 L 17.132 25.314 L 17.265 25.304 L 17.601 25.286 L 18.117 25.264 L 18.683 25.264 C 18.93 25.264 19.178 25.244 19.425 25.203 L 19.565 25.183 L 19.717 25.141 C 19.822 25.109 19.928 25.068 20.037 25.016 C 20.461 24.814 20.91 24.466 21.367 24.014 C 21.629 23.755 21.878 23.478 22.106 23.201 L 22.197 23.088 L 22.281 22.982 L 22.396 22.83 C 22.868 22.116 23.128 21.571 23.281 20.779 C 23.371 20.266 23.375 19.779 23.323 19.157 L 23.323 19.002 C 23.336 18.851 23.388 18.707 23.473 18.582 C 23.581 18.432 23.693 18.335 23.826 18.286 C 24.482 18.003 25.023 17.539 25.484 16.877 C 25.796 16.467 26.041 15.998 26.204 15.497 C 26.314 15.225 26.382 14.925 26.43 14.542 L 26.431 14.436 C 26.43 14.387 26.436 14.338 26.449 14.29 C 26.453 14.203 26.474 14.117 26.511 14.038 L 26.528 13.998 L 26.575 13.876 C 26.711 13.513 26.805 13.179 26.857 12.861 L 26.857 12.81 C 27.042 11.796 27.026 11.101 26.607 10.274 L 26.566 10.194 L 26.498 10.103 C 26.418 9.972 26.328 9.846 26.23 9.727 C 26.076 9.539 25.904 9.367 25.716 9.214 L 25.605 9.124 L 25.511 9.049 C 25.481 9.028 25.452 9.006 25.425 8.981 L 25.391 8.949 L 25.232 8.793 C 25.111 8.684 24.998 8.567 24.894 8.443 L 24.787 8.313 L 24.585 8.063 C 23.985 7.331 23.419 6.903 22.378 6.508 L 22.297 6.478 L 22.267 6.448 L 22.237 6.431 C 21.621 6.242 20.917 6.147 20.084 6.147 Z M 20.22 6.287 C 20.936 6.297 21.55 6.379 22.095 6.534 L 22.18 6.559 L 22.208 6.586 L 22.233 6.602 C 23.31 6.999 23.871 7.414 24.475 8.149 L 24.741 8.479 L 24.786 8.533 C 24.896 8.662 25 8.771 25.135 8.893 L 25.289 9.045 L 25.331 9.084 C 25.361 9.112 25.394 9.137 25.428 9.16 L 25.565 9.271 C 25.888 9.524 26.165 9.832 26.381 10.181 L 26.446 10.266 L 26.48 10.336 C 26.883 11.13 26.899 11.798 26.718 12.798 L 26.717 12.85 C 26.658 13.184 26.566 13.511 26.443 13.827 L 26.397 13.947 L 26.366 14.025 C 26.331 14.103 26.312 14.187 26.31 14.273 C 26.295 14.326 26.288 14.38 26.29 14.435 L 26.29 14.533 C 26.258 14.847 26.184 15.154 26.072 15.449 C 25.915 15.934 25.678 16.39 25.37 16.796 C 24.92 17.44 24.4 17.886 23.773 18.156 C 23.613 18.216 23.481 18.331 23.358 18.501 C 23.259 18.637 23.208 18.793 23.183 18.993 L 23.183 19.163 C 23.234 19.779 23.23 20.256 23.143 20.753 C 22.993 21.524 22.741 22.053 22.28 22.752 L 22.207 22.849 L 22.129 22.949 L 22.087 23.002 L 21.997 23.113 C 21.772 23.387 21.527 23.66 21.267 23.916 C 20.82 24.358 20.383 24.696 19.975 24.891 C 19.879 24.937 19.779 24.977 19.677 25.008 L 19.537 25.048 L 19.404 25.066 C 19.166 25.105 18.925 25.125 18.683 25.125 L 18.113 25.125 L 17.432 25.155 L 17.235 25.167 L 17.14 25.175 L 17.071 25.182 L 17.046 25.186 L 17.014 25.194 L 16.941 25.209 L 16.911 25.216 C 16.885 25.222 16.86 25.232 16.837 25.244 L 16.827 25.25 C 15.911 25.515 14.979 25.646 13.807 25.646 L 13.662 25.646 L 13.444 25.642 L 13.371 25.64 L 13.221 25.636 L 13.066 25.63 L 12.732 25.614 L 12.55 25.604 L 11.639 25.546 L 11.512 25.546 L 11.172 25.5 L 11.075 25.486 L 10.972 25.476 L 10.776 25.452 C 10.078 25.366 9.618 25.256 9.063 25.011 L 8.984 24.972 L 8.931 24.936 C 7.886 24.349 7.313 23.658 6.748 22.486 L 6.665 22.312 L 6.624 22.222 L 6.541 22.036 L 6.497 21.936 L 6.43 21.802 L 6.41 21.759 C 6.383 21.702 6.359 21.644 6.338 21.585 L 6.334 21.575 C 6.264 21.443 6.202 21.307 6.149 21.168 L 6.099 21.033 L 6.066 20.94 L 5.953 20.603 L 5.936 20.569 L 5.936 20.545 C 5.52 19.053 5.646 18.119 6.424 16.968 L 6.554 16.776 L 6.634 16.676 L 6.754 16.519 L 7.013 16.192 L 7.082 16.106 L 7.175 15.993 L 7.233 15.926 L 7.289 15.863 L 7.346 15.801 L 7.404 15.741 L 7.5 15.644 C 7.57 15.558 7.618 15.456 7.64 15.348 L 7.662 14.978 L 7.662 14.734 C 7.694 13.959 7.966 13.355 8.442 12.669 C 8.456 12.655 8.469 12.639 8.479 12.621 L 8.515 12.558 L 8.528 12.54 L 8.569 12.46 L 8.605 12.407 L 8.628 12.364 C 8.726 12.171 8.816 11.974 8.897 11.773 L 9 11.458 L 9.03 11.368 L 9.069 11.263 L 9.081 11.222 L 9.09 11.177 L 9.104 11.097 C 9.145 10.69 9.239 10.29 9.384 9.907 L 9.422 9.835 L 9.44 9.79 L 9.466 9.717 L 9.504 9.607 L 9.526 9.549 C 9.684 9.049 9.86 8.687 10.206 8.264 L 10.326 8.126 L 10.44 8.033 C 11.194 7.356 12.012 7.085 12.979 7.027 L 13.178 7.027 C 13.628 7.027 14.16 7.193 14.774 7.462 C 14.866 7.505 14.966 7.528 15.067 7.529 C 15.117 7.529 15.167 7.524 15.221 7.515 L 15.266 7.507 L 15.368 7.487 C 15.583 7.41 15.803 7.314 16.033 7.201 L 16.237 7.087 L 16.303 7.05 C 16.413 6.99 16.515 6.937 16.617 6.887 C 17.142 6.627 17.645 6.462 18.182 6.406 C 18.202 6.406 18.223 6.404 18.243 6.4 L 18.302 6.388 L 18.317 6.386 L 18.362 6.379 L 18.412 6.374 L 18.505 6.366 L 18.665 6.354 L 18.751 6.346 L 18.808 6.339 L 18.932 6.327 L 19.068 6.317 L 19.216 6.307 L 19.373 6.3 C 19.4 6.299 19.427 6.297 19.455 6.297 L 19.625 6.291 L 19.715 6.29 L 19.896 6.287 L 20.22 6.287 Z M 28.399 18.113 C 28.299 18.278 28.194 18.438 28.083 18.593 L 27.997 18.711 C 27.662 19.186 27.271 19.619 26.832 19.999 C 26.622 20.187 26.483 20.459 26.437 20.753 L 26.415 20.96 L 26.401 21.081 L 26.391 21.149 L 26.381 21.212 L 26.364 21.299 C 26.362 21.309 26.359 21.319 26.357 21.329 C 26.13 22.559 25.686 23.494 25.07 24.406 L 24.457 25.301 C 24.67 25.111 24.875 24.912 25.074 24.707 L 25.214 24.501 C 25.842 23.571 26.296 22.616 26.527 21.362 L 26.534 21.332 L 26.551 21.242 L 26.567 21.143 L 26.582 21.028 L 26.609 20.774 C 26.649 20.522 26.769 20.286 26.947 20.128 C 27.36 19.771 27.73 19.369 28.052 18.928 L 28.138 18.811 L 28.318 18.556 C 28.348 18.411 28.374 18.264 28.398 18.117 L 28.399 18.113 Z M 19.922 7.17 C 19.734 7.17 19.552 7.176 19.349 7.186 L 19.139 7.198 L 18.678 7.23 L 18.591 7.24 L 18.418 7.253 L 18.361 7.259 C 18.333 7.262 18.306 7.266 18.279 7.272 C 18.27 7.271 18.261 7.272 18.253 7.274 L 18.2 7.287 L 18.182 7.29 C 17.565 7.359 17.026 7.586 16.392 7.962 L 16.316 8 C 15.914 8.192 15.496 8.351 15.068 8.475 C 14.9 8.512 14.725 8.492 14.57 8.42 L 14.556 8.415 L 14.517 8.396 L 14.422 8.349 L 14.367 8.319 L 14.314 8.284 L 14.123 8.189 L 14.051 8.155 C 13.707 7.996 13.401 7.912 13.056 7.912 L 12.914 7.912 C 12.124 7.969 11.52 8.168 10.957 8.672 L 10.894 8.734 L 10.768 8.896 C 10.742 8.93 10.717 8.965 10.693 9.001 L 10.649 9.069 C 10.606 9.139 10.567 9.211 10.533 9.285 L 10.496 9.367 L 10.458 9.457 L 10.418 9.559 L 10.341 9.768 L 10.329 9.801 L 10.32 9.824 L 10.302 9.874 L 10.241 10.059 L 10.221 10.109 L 10.208 10.139 L 10.203 10.165 L 10.202 10.194 C 10.092 10.547 10.018 10.861 9.98 11.178 L 9.961 11.303 L 9.95 11.37 L 9.939 11.427 L 9.933 11.453 L 9.922 11.5 L 9.909 11.545 L 9.785 11.915 L 9.746 12.041 L 9.738 12.072 L 9.698 12.176 L 9.656 12.283 L 9.633 12.338 L 9.586 12.447 L 9.538 12.553 L 9.49 12.653 C 9.427 12.783 9.367 12.892 9.323 12.949 L 9.276 13.04 L 9.27 13.05 L 9.246 13.083 L 9.187 13.161 C 9.184 13.165 9.182 13.169 9.179 13.173 L 9.022 13.423 L 8.957 13.533 C 8.707 13.959 8.57 14.335 8.557 14.753 L 8.557 14.895 L 8.56 14.958 L 8.564 15.005 L 8.57 15.052 L 8.58 15.105 L 8.6 15.208 L 8.703 15.518 C 8.718 15.562 8.718 15.61 8.703 15.654 L 8.7 15.676 C 8.7 15.708 8.676 15.751 8.639 15.788 L 8.569 15.853 C 8.204 16.188 7.869 16.554 7.569 16.948 L 7.454 17.098 C 7.411 17.167 7.365 17.234 7.314 17.298 L 7.253 17.377 L 7.217 17.411 C 6.55 18.356 6.461 18.997 6.813 20.224 L 6.811 20.246 C 6.904 20.577 7.009 20.854 7.143 21.118 L 7.191 21.225 L 7.276 21.407 L 7.442 21.78 C 7.955 22.916 8.434 23.549 9.345 24.054 L 9.429 24.095 C 9.735 24.235 9.989 24.32 10.318 24.385 L 10.445 24.408 C 10.51 24.42 10.578 24.431 10.651 24.441 L 10.801 24.461 L 10.963 24.482 L 11.139 24.502 L 11.625 24.562 L 11.715 24.563 C 12.381 24.627 13.112 24.663 13.808 24.663 L 14.017 24.663 L 14.217 24.659 C 15.194 24.635 15.837 24.517 16.26 24.273 C 16.368 24.229 16.48 24.194 16.593 24.173 L 16.707 24.154 L 16.757 24.147 L 16.814 24.14 L 16.907 24.13 L 17.055 24.12 L 17.23 24.109 L 17.496 24.097 L 17.82 24.085 L 17.893 24.082 L 17.931 24.082 C 17.981 24.076 18.031 24.071 18.081 24.068 L 18.168 24.064 L 18.211 24.063 L 18.598 24.063 C 18.761 24.067 18.924 24.053 19.084 24.021 L 19.167 24.001 L 19.233 23.979 C 19.317 23.954 19.405 23.919 19.495 23.875 C 19.817 23.717 20.156 23.445 20.503 23.092 C 20.701 22.89 20.888 22.674 21.06 22.458 L 21.104 22.402 L 21.184 22.298 L 21.251 22.208 L 21.279 22.168 C 21.695 21.524 21.9 21.096 22.022 20.479 C 22.067 20.246 22.079 20 22.068 19.67 L 22.058 19.446 L 22.036 19.008 L 22.026 18.845 L 22.02 18.69 L 22.018 18.654 C 22.006 18.274 22.033 18.03 22.107 17.947 L 22.165 17.89 L 22.178 17.872 L 22.218 17.792 C 22.362 17.582 22.607 17.405 22.891 17.305 C 23.513 17.1 23.992 16.731 24.408 16.137 C 24.65 15.801 24.838 15.43 24.965 15.036 C 25.052 14.779 25.111 14.516 25.131 14.279 L 25.131 14.175 L 25.134 14.15 L 25.142 14.108 L 25.17 13.968 L 25.203 13.826 L 25.223 13.748 L 25.233 13.712 L 25.251 13.649 L 25.271 13.591 C 25.281 13.564 25.291 13.539 25.303 13.513 L 25.327 13.463 C 25.467 13.139 25.559 12.843 25.597 12.559 L 25.598 12.51 L 25.618 12.398 C 25.738 11.648 25.721 11.172 25.448 10.635 L 25.408 10.555 C 25.36 10.476 25.309 10.4 25.253 10.327 C 25.087 10.108 24.953 9.986 24.698 9.79 L 24.574 9.691 L 24.488 9.618 L 24.453 9.587 L 24.42 9.555 L 24.38 9.515 L 24.296 9.442 L 24.258 9.407 L 24.186 9.34 C 24.14 9.295 24.095 9.248 24.052 9.2 L 23.982 9.122 C 23.97 9.108 23.957 9.093 23.945 9.079 L 23.865 8.983 L 23.714 8.799 C 23.149 8.09 22.71 7.751 21.754 7.395 L 21.729 7.391 L 21.698 7.39 L 21.492 7.334 C 21.046 7.225 20.531 7.17 19.922 7.17 Z M 19.922 7.31 C 20.619 7.31 21.188 7.382 21.668 7.527 L 21.688 7.53 L 21.714 7.529 L 21.914 7.606 C 22.649 7.903 23.043 8.206 23.504 8.764 L 23.757 9.073 L 23.839 9.17 C 23.916 9.26 23.982 9.334 24.051 9.403 L 24.121 9.472 L 24.198 9.542 L 24.283 9.617 L 24.338 9.671 L 24.373 9.704 L 24.433 9.757 L 24.483 9.797 L 24.573 9.87 L 24.716 9.982 C 24.877 10.104 25.02 10.248 25.141 10.41 C 25.191 10.476 25.239 10.547 25.285 10.622 L 25.323 10.698 C 25.559 11.165 25.591 11.585 25.502 12.219 L 25.458 12.499 L 25.458 12.55 C 25.422 12.81 25.333 13.095 25.199 13.405 C 25.169 13.464 25.146 13.519 25.124 13.586 L 25.102 13.656 L 25.08 13.738 L 25.057 13.832 L 25.03 13.948 L 25.004 14.078 C 24.998 14.112 24.993 14.147 24.991 14.182 L 24.991 14.274 C 24.966 14.519 24.912 14.761 24.831 14.994 C 24.711 15.368 24.531 15.722 24.292 16.057 C 23.893 16.627 23.438 16.978 22.845 17.174 L 22.783 17.197 C 22.507 17.3 22.268 17.483 22.097 17.722 L 22.057 17.799 L 22.005 17.852 C 21.898 17.97 21.867 18.21 21.876 18.597 L 21.88 18.732 L 21.923 19.565 L 21.925 19.591 C 21.939 19.955 21.93 20.213 21.884 20.453 C 21.766 21.049 21.568 21.463 21.162 22.092 L 21.108 22.167 L 21.072 22.215 L 20.992 22.317 C 20.807 22.553 20.61 22.779 20.402 22.995 C 20.065 23.338 19.737 23.6 19.432 23.75 C 19.373 23.78 19.312 23.806 19.249 23.827 L 19.127 23.867 L 19.051 23.886 C 18.902 23.915 18.75 23.927 18.598 23.923 L 18.256 23.923 C 18.142 23.923 18.056 23.928 17.922 23.944 L 17.89 23.944 L 17.43 23.96 L 17.219 23.97 L 17.04 23.981 L 16.89 23.993 L 16.795 24.003 L 16.712 24.013 L 16.639 24.025 C 16.487 24.047 16.338 24.089 16.197 24.15 C 15.845 24.351 15.329 24.464 14.574 24.506 L 14.396 24.514 C 14.335 24.517 14.272 24.518 14.208 24.52 L 14.013 24.524 L 13.808 24.524 C 13.111 24.524 12.415 24.49 11.722 24.424 L 11.634 24.424 L 11.155 24.365 L 10.983 24.345 L 10.823 24.325 L 10.676 24.305 L 10.54 24.283 C 10.176 24.231 9.823 24.126 9.49 23.97 L 9.41 23.93 C 8.534 23.445 8.072 22.835 7.57 21.723 L 7.404 21.35 L 7.289 21.102 L 7.271 21.06 C 7.137 20.793 7.03 20.514 6.949 20.226 L 6.951 20.206 L 6.929 20.126 L 6.889 19.972 C 6.621 18.917 6.733 18.339 7.325 17.5 L 7.357 17.469 L 7.425 17.385 C 7.485 17.307 7.528 17.245 7.571 17.175 L 7.681 17.032 C 7.991 16.632 8.254 16.338 8.665 15.954 L 8.737 15.887 L 8.759 15.864 C 8.801 15.82 8.829 15.764 8.839 15.704 L 8.839 15.689 L 8.846 15.666 C 8.861 15.602 8.858 15.536 8.836 15.474 L 8.736 15.178 L 8.718 15.084 L 8.71 15.034 L 8.704 14.991 L 8.7 14.95 L 8.698 14.892 L 8.698 14.755 C 8.71 14.365 8.84 14.01 9.078 13.602 L 9.12 13.532 L 9.297 13.248 L 9.37 13.151 C 9.382 13.135 9.392 13.119 9.402 13.102 L 9.442 13.022 C 9.486 12.966 9.544 12.863 9.605 12.738 L 9.652 12.641 L 9.7 12.538 L 9.723 12.484 L 9.769 12.377 L 9.791 12.323 L 9.834 12.216 L 9.872 12.113 L 9.887 12.06 L 9.931 11.923 L 10.035 11.61 L 10.052 11.558 L 10.066 11.503 L 10.079 11.443 L 10.092 11.374 L 10.105 11.292 L 10.119 11.197 C 10.161 10.867 10.236 10.543 10.34 10.227 L 10.344 10.206 L 10.343 10.181 L 10.356 10.149 C 10.362 10.134 10.368 10.12 10.373 10.105 L 10.396 10.041 L 10.436 9.919 L 10.452 9.872 C 10.455 9.865 10.457 9.858 10.46 9.851 L 10.528 9.668 L 10.568 9.563 L 10.586 9.515 L 10.623 9.427 C 10.65 9.363 10.679 9.301 10.712 9.24 L 10.75 9.174 L 10.79 9.109 L 10.811 9.077 L 10.858 9.011 L 10.883 8.977 L 10.938 8.906 L 11 8.824 L 11.054 8.772 C 11.588 8.295 12.163 8.106 12.919 8.05 L 13.056 8.05 C 13.353 8.05 13.62 8.118 13.916 8.247 L 14.017 8.293 L 14.164 8.364 L 14.244 8.404 L 14.297 8.44 L 14.411 8.5 C 14.445 8.519 14.48 8.535 14.517 8.548 C 14.7 8.632 14.905 8.654 15.102 8.61 C 15.472 8.509 16.01 8.305 16.38 8.124 L 16.46 8.083 C 17.083 7.714 17.606 7.493 18.183 7.429 C 18.19 7.429 18.196 7.429 18.203 7.428 L 18.231 7.422 L 18.253 7.417 C 18.267 7.413 18.282 7.41 18.297 7.409 L 18.337 7.402 L 18.38 7.397 L 18.432 7.392 L 18.652 7.373 L 18.692 7.369 L 19.036 7.345 C 19.378 7.321 19.645 7.309 19.922 7.309 L 19.922 7.31 Z M 20.023 5.02 C 19.516 5.02 18.992 5.053 18.573 5.101 L 18.45 5.114 L 18.341 5.126 L 18.247 5.138 L 18.166 5.15 L 18.099 5.162 L 18.084 5.162 L 18.066 5.166 L 18.034 5.173 C 18.014 5.178 17.993 5.181 17.972 5.181 C 17.019 5.296 16.311 5.594 15.374 6.133 L 15.344 6.147 C 15.277 6.181 15.203 6.2 15.128 6.203 C 15.033 6.202 14.939 6.184 14.851 6.148 C 14.308 5.92 13.726 5.803 13.137 5.802 L 12.833 5.802 L 12.739 5.81 L 12.566 5.826 C 12.266 5.856 12.042 5.893 11.74 5.968 C 10.961 6.158 10.236 6.526 9.624 7.044 L 9.349 7.284 L 9.159 7.513 C 8.711 8.053 8.509 8.476 8.272 9.18 C 8.258 9.26 8.231 9.338 8.194 9.41 L 8.154 9.49 L 8.117 9.586 C 7.957 10.029 7.851 10.49 7.801 10.958 L 7.801 10.971 L 7.785 11.011 L 7.764 11.07 L 7.68 11.335 L 7.664 11.38 L 7.625 11.48 L 7.587 11.572 L 7.569 11.615 L 7.534 11.692 L 7.509 11.745 L 7.498 11.755 L 7.425 11.87 L 7.415 11.909 L 7.392 11.927 C 7.381 11.943 7.371 11.959 7.362 11.976 L 7.342 12.003 C 6.776 12.841 6.46 13.528 6.379 14.468 C 6.362 14.583 6.329 14.71 6.281 14.851 L 6.161 15.148 C 6.135 15.211 6.101 15.269 6.059 15.323 L 6.008 15.391 C 5.973 15.431 5.938 15.474 5.898 15.524 L 5.762 15.7 L 5.706 15.769 L 5.683 15.797 L 5.643 15.844 L 5.549 15.951 L 5.523 15.983 L 5.5 16.013 L 5.378 16.173 C 4.325 17.68 4.122 18.987 4.655 20.847 L 4.697 20.971 C 4.804 21.332 4.932 21.675 5.087 22.001 L 5.156 22.138 L 5.236 22.293 C 5.267 22.354 5.289 22.403 5.306 22.453 L 5.426 22.714 L 5.501 22.872 L 5.511 22.894 C 5.72 23.211 5.943 23.518 6.181 23.814 L 6.187 23.824 L 6.174 23.802 L 6.157 23.776 L 6.092 23.67 L 6.028 23.562 C 6.017 23.544 6.007 23.525 5.996 23.507 L 5.934 23.395 L 5.871 23.278 L 5.807 23.154 L 5.742 23.024 L 5.674 22.884 L 5.603 22.734 L 5.488 22.488 L 5.447 22.399 C 5.431 22.353 5.413 22.308 5.391 22.265 L 5.342 22.168 L 5.283 22.056 C 5.102 21.693 4.954 21.315 4.841 20.926 L 4.8 20.803 C 4.28 18.989 4.476 17.728 5.501 16.26 L 5.631 16.089 L 5.654 16.062 L 5.789 15.906 L 5.822 15.865 L 5.869 15.808 L 6.018 15.616 L 6.09 15.526 L 6.13 15.481 L 6.185 15.406 C 6.232 15.344 6.271 15.276 6.301 15.203 L 6.423 14.903 C 6.475 14.749 6.511 14.614 6.53 14.485 C 6.605 13.605 6.893 12.955 7.408 12.176 L 7.493 12.051 C 7.498 12.042 7.503 12.033 7.508 12.025 L 7.543 11.975 L 7.553 11.959 L 7.56 11.943 L 7.616 11.847 L 7.626 11.842 L 7.639 11.822 L 7.655 11.791 L 7.689 11.717 L 7.727 11.631 L 7.766 11.535 L 7.786 11.485 L 7.809 11.423 L 7.844 11.32 L 7.894 11.159 L 7.92 11.082 L 7.946 11.017 L 7.952 10.987 L 7.952 10.967 C 8.017 10.435 8.124 9.975 8.292 9.551 L 8.33 9.477 C 8.372 9.396 8.402 9.308 8.418 9.218 L 8.448 9.131 L 8.507 8.965 C 8.703 8.431 8.899 8.062 9.276 7.608 L 9.458 7.388 L 9.633 7.235 C 9.811 7.076 9.996 6.933 10.189 6.805 C 10.674 6.484 11.212 6.25 11.777 6.113 C 12.067 6.04 12.363 5.991 12.662 5.967 L 12.839 5.951 L 13.137 5.951 C 13.707 5.951 14.265 6.066 14.794 6.287 C 14.9 6.33 15.013 6.352 15.128 6.353 C 15.225 6.35 15.321 6.326 15.408 6.283 L 15.445 6.265 C 16.37 5.733 17.063 5.441 17.981 5.33 C 18.001 5.33 18.021 5.328 18.041 5.324 L 18.105 5.311 L 18.185 5.299 L 18.225 5.293 L 18.312 5.281 L 18.413 5.268 L 18.588 5.25 C 19.004 5.202 19.522 5.17 20.023 5.17 C 20.913 5.17 21.683 5.271 22.333 5.472 C 22.159 5.372 21.983 5.277 21.812 5.187 C 21.223 5.071 20.623 5.015 20.023 5.021 L 20.023 5.02 Z M 20.741 16.49 L 20.704 16.496 C 20.677 16.504 20.652 16.518 20.632 16.538 C 20.49 16.738 20.287 17.099 20.145 17.36 C 20.064 17.52 19.982 17.66 19.922 17.78 C 19.718 18.101 19.718 18.362 19.698 18.602 C 19.698 18.882 19.678 19.163 19.353 19.384 C 19.129 19.524 18.947 19.564 17.951 19.704 C 17.829 19.724 17.789 19.744 17.728 19.764 C 17.667 19.804 17.586 19.824 17.423 19.864 C 17.383 19.864 17.342 19.904 17.322 19.945 L 17.268 20.018 C 17.127 20.165 16.959 20.283 16.773 20.366 C 16.713 20.386 16.672 20.426 16.672 20.486 C 16.672 20.626 16.631 20.786 16.55 20.886 C 16.488 20.97 16.391 21.022 16.286 21.027 L 16.245 21.027 C 16.042 21.027 15.92 20.947 15.859 20.867 C 15.859 20.847 15.839 20.867 15.839 20.867 C 15.778 21.107 15.656 21.307 15.392 21.367 C 15.352 21.387 15.331 21.387 15.29 21.387 C 15.148 21.387 15.067 21.347 15.006 21.287 C 14.986 21.267 14.925 21.267 14.925 21.307 C 14.906 21.409 14.864 21.505 14.803 21.588 C 14.731 21.701 14.611 21.775 14.478 21.788 L 14.417 21.788 C 14.313 21.795 14.21 21.759 14.133 21.688 C 14.072 21.628 13.909 21.628 13.848 21.708 C 13.848 21.728 13.828 21.728 13.828 21.748 C 13.686 21.928 13.462 22.029 13.158 22.029 L 13.138 22.029 C 12.893 22.029 12.751 21.909 12.69 21.809 C 12.666 21.764 12.646 21.717 12.63 21.669 C 12.589 21.569 12.426 21.529 12.325 21.529 L 12.305 21.529 C 12.223 21.529 12.203 21.448 12.183 21.408 C 12.183 21.388 12.163 21.408 12.163 21.408 L 12.203 21.648 C 12.223 21.688 12.223 21.808 12.061 21.888 C 11.939 21.948 11.756 21.969 11.553 21.969 C 11.187 21.969 10.72 21.869 10.537 21.689 C 10.492 21.662 10.451 21.628 10.415 21.589 C 10.355 21.509 10.212 21.468 10.131 21.529 C 10.05 21.589 10.009 21.589 9.969 21.589 L 9.928 21.589 C 9.745 21.569 9.623 21.408 9.522 21.167 C 9.502 21.107 9.44 21.087 9.379 21.087 C 9.278 21.107 9.156 21.107 9.054 21.107 C 8.95 21.106 8.847 21.086 8.75 21.047 C 8.648 21.007 8.608 20.927 8.567 20.827 L 8.364 20.827 C 8.324 20.827 8.303 20.807 8.283 20.807 C 8.263 20.787 8.222 20.787 8.201 20.767 C 8.201 20.747 8.181 20.767 8.181 20.787 L 8.288 21.025 C 8.775 22.107 9.108 22.779 9.847 23.171 C 10.172 23.351 10.679 23.391 11.675 23.512 C 12.406 23.592 12.955 23.592 13.868 23.592 C 14.742 23.592 15.006 23.552 15.168 23.512 C 15.473 23.452 15.615 23.392 15.778 23.332 C 15.961 23.252 16.143 23.172 16.488 23.112 C 16.814 23.052 17.22 23.032 17.992 23.012 C 18.312 22.996 18.517 22.992 18.66 22.992 L 18.854 22.991 C 18.929 22.991 18.938 22.987 18.987 22.971 C 19.577 22.791 19.942 22.23 20.287 21.708 C 20.572 21.288 20.775 20.947 20.877 20.446 C 20.917 20.206 20.917 20.046 20.897 19.785 C 20.877 19.525 20.856 19.143 20.877 18.502 C 20.897 17.961 20.937 17.741 21.059 17.5 C 21.161 17.34 21.242 17.24 21.323 17.14 C 21.384 17.06 21.445 17 21.486 16.899 C 21.486 16.879 21.486 16.859 21.466 16.859 C 21.404 16.799 21.12 16.659 20.775 16.499 L 20.741 16.49 Z M 12.995 20.706 C 12.873 21.007 12.751 21.468 12.873 21.668 C 12.893 21.708 12.954 21.768 13.117 21.768 C 13.361 21.768 13.523 21.708 13.625 21.568 C 13.767 21.388 13.787 21.128 13.767 20.927 L 13.747 20.747 L 12.995 20.706 Z M 11.939 19.123 C 11.899 19.163 11.837 19.243 11.736 19.363 C 11.696 19.444 11.614 19.544 11.533 19.664 C 11.431 19.844 11.35 19.945 11.289 20.025 L 11.269 20.065 C 11.167 20.225 11.086 20.325 10.862 20.706 C 10.802 20.826 10.72 20.926 10.659 21.007 C 10.619 21.047 10.599 21.087 10.578 21.127 C 10.538 21.187 10.517 21.227 10.517 21.267 C 10.517 21.387 10.577 21.447 10.659 21.508 L 10.679 21.528 C 10.781 21.628 11.126 21.728 11.492 21.728 C 11.736 21.728 11.878 21.688 11.918 21.668 C 11.898 21.488 11.878 21.308 11.858 21.148 C 11.806 20.688 11.806 20.225 11.858 19.765 C 11.878 19.585 11.898 19.444 11.898 19.344 C 11.918 19.264 11.938 19.184 11.938 19.124 L 11.939 19.123 Z M 14.762 20.446 C 14.64 20.446 14.376 20.486 14.152 20.546 L 14.152 20.752 C 14.154 21.02 14.173 21.363 14.315 21.488 C 14.356 21.528 14.397 21.528 14.458 21.528 C 14.498 21.508 14.559 21.488 14.6 21.428 C 14.783 21.208 14.783 20.646 14.762 20.446 Z M 9.502 19.905 C 9.502 20.065 9.502 20.305 9.562 20.506 C 9.582 20.586 9.602 20.686 9.644 20.786 C 9.724 21.047 9.826 21.288 9.928 21.308 C 9.948 21.308 10.07 21.228 10.294 20.927 C 10.558 20.567 10.72 20.185 10.74 20.045 C 10.7 20.045 10.66 20.045 10.639 20.065 L 10.442 20.063 C 10.002 20.053 9.697 20.01 9.502 19.905 Z M 12.609 19.244 C 12.447 19.244 12.304 19.284 12.264 19.364 C 12.183 19.464 12.142 19.604 12.122 19.764 L 12.122 19.804 C 12.061 20.306 12.243 20.927 12.345 21.187 C 12.467 21.027 12.65 20.747 12.812 20.426 C 12.975 20.126 13.076 19.805 13.097 19.584 C 13.097 19.424 13.015 19.344 12.954 19.324 L 12.874 19.286 C 12.789 19.256 12.699 19.242 12.609 19.244 Z M 15.636 20.246 C 15.554 20.246 15.473 20.266 15.392 20.286 C 15.25 20.306 15.128 20.326 15.047 20.326 C 15.027 20.586 15.047 20.967 15.189 21.087 C 15.209 21.127 15.27 21.147 15.351 21.127 C 15.554 21.087 15.615 20.827 15.636 20.627 L 15.636 20.246 Z M 16.408 20.106 L 16.001 20.206 C 15.981 20.346 15.961 20.586 16.062 20.706 C 16.102 20.766 16.184 20.786 16.286 20.786 C 16.326 20.786 16.346 20.766 16.366 20.746 C 16.448 20.626 16.428 20.326 16.408 20.106 Z M 8.79 19.644 C 8.75 19.945 8.75 20.246 8.81 20.526 C 8.81 20.586 8.831 20.666 8.851 20.706 C 8.871 20.746 8.912 20.746 8.953 20.746 L 9.339 20.746 L 9.359 20.726 C 9.339 20.666 9.319 20.626 9.319 20.526 C 9.252 20.278 9.231 20.02 9.258 19.765 C 9.097 19.747 8.94 19.706 8.79 19.645 L 8.79 19.644 Z M 8.201 19.484 C 8.161 19.704 8.161 19.904 8.161 20.105 C 8.161 20.205 8.161 20.305 8.221 20.405 L 8.303 20.486 C 8.323 20.506 8.343 20.506 8.363 20.506 L 8.486 20.506 L 8.466 20.401 C 8.454 20.33 8.447 20.257 8.446 20.185 C 8.446 19.985 8.466 19.785 8.486 19.585 C 8.427 19.559 8.366 19.539 8.303 19.525 L 8.201 19.484 Z M 14.031 19.364 C 13.95 19.304 13.686 19.324 13.462 19.384 L 13.32 20.246 C 13.523 20.286 13.726 20.306 13.787 20.286 C 13.807 20.226 13.848 20.166 13.868 20.086 C 13.95 19.905 14.112 19.464 14.031 19.364 Z M 14.701 19.384 C 14.62 19.324 14.498 19.324 14.437 19.364 C 14.397 19.384 14.336 19.484 14.295 19.624 C 14.255 19.764 14.214 19.924 14.173 20.105 L 14.742 20.125 C 14.762 20.005 14.802 19.805 14.823 19.745 C 14.863 19.605 14.823 19.484 14.701 19.384 Z M 15.493 19.264 L 15.209 19.284 L 15.189 19.284 C 15.189 19.304 15.149 19.324 15.149 19.444 C 15.149 19.604 15.108 19.844 15.087 20.025 L 15.534 19.885 C 15.534 19.705 15.534 19.424 15.494 19.264 L 15.493 19.264 Z M 12.975 9.164 L 12.935 9.164 C 12.325 9.204 12.04 9.344 11.797 9.584 C 11.736 9.644 11.654 9.804 11.39 10.526 C 11.269 10.886 11.228 11.087 11.208 11.288 C 11.188 11.468 11.167 11.648 11.065 11.929 C 11.005 12.109 10.944 12.289 10.903 12.43 C 10.781 12.85 10.679 13.171 10.375 13.572 C 10.326 13.633 10.285 13.7 10.253 13.772 C 10.192 13.872 10.111 14.013 9.989 14.153 C 9.908 14.253 9.725 14.654 9.745 14.775 C 9.765 14.975 9.826 15.095 9.887 15.235 C 9.969 15.375 10.05 15.536 10.05 15.757 L 10.05 15.797 C 10.07 16.137 10.03 16.317 9.36 16.899 C 8.933 17.279 8.628 17.64 8.425 17.901 C 8.405 17.921 8.425 17.961 8.465 17.961 L 8.608 17.961 C 8.77 17.981 8.933 18.041 9.034 18.161 C 9.054 18.181 9.074 18.181 9.115 18.181 C 9.227 18.144 9.346 18.137 9.461 18.161 C 9.603 18.181 9.725 18.221 9.826 18.301 C 9.867 18.341 9.908 18.341 9.948 18.341 C 10.056 18.318 10.169 18.325 10.273 18.361 C 10.354 18.381 10.415 18.442 10.476 18.482 C 10.516 18.542 10.619 18.542 10.679 18.502 C 10.699 18.482 10.74 18.482 10.761 18.462 C 10.909 18.429 11.063 18.435 11.208 18.482 C 11.268 18.502 11.35 18.522 11.411 18.562 C 11.512 18.622 11.573 18.722 11.634 18.842 C 11.674 18.922 11.776 18.963 11.858 18.902 C 11.938 18.842 12.02 18.822 12.101 18.862 C 12.121 18.882 12.162 18.902 12.183 18.922 C 12.243 18.983 12.325 19.043 12.406 19.023 C 12.632 18.967 12.87 18.996 13.076 19.103 C 13.129 19.13 13.177 19.166 13.218 19.21 L 13.279 19.284 L 13.279 19.244 C 13.279 19.224 13.299 19.204 13.32 19.204 L 13.36 19.184 C 13.462 19.144 14.031 18.983 14.254 19.224 C 14.254 19.224 14.274 19.244 14.295 19.224 C 14.315 19.184 14.356 19.184 14.356 19.164 C 14.498 19.084 14.742 19.064 14.904 19.204 C 14.945 19.224 14.986 19.224 15.006 19.184 L 15.066 19.124 C 15.128 19.084 15.189 19.044 15.27 19.064 L 15.575 19.044 C 15.656 19.044 15.9 19.024 15.981 19.004 L 16.001 19.004 C 16.041 19.004 16.062 18.983 16.103 18.983 C 16.245 18.943 16.428 18.923 16.57 18.983 C 16.712 19.043 16.692 19.203 16.672 19.323 C 16.672 19.383 16.652 19.444 16.652 19.484 L 16.652 19.564 C 16.652 19.644 16.652 19.716 16.645 19.778 L 16.631 19.865 L 16.651 19.925 C 16.671 19.985 16.733 20.025 16.793 19.985 C 16.87 19.94 16.946 19.884 16.996 19.833 L 17.037 19.783 L 17.037 19.765 C 17.037 19.745 17.057 19.725 17.057 19.665 C 17.077 19.545 17.098 19.324 17.098 18.843 L 17.098 18.342 C 17.078 18.082 17.078 17.881 17.2 17.68 C 17.322 17.48 17.443 17.4 17.565 17.34 C 17.708 17.26 17.85 17.16 18.114 16.819 C 18.236 16.639 18.256 16.579 18.276 16.519 C 18.296 16.398 18.337 16.318 18.54 16.157 C 18.703 16.037 19.17 15.677 19.82 15.797 C 19.99 15.83 20.257 15.905 20.542 16.011 L 20.714 16.077 C 20.734 16.077 20.734 16.077 20.754 16.097 L 20.774 16.097 C 21.079 16.217 21.364 16.337 21.547 16.438 C 21.607 16.458 21.668 16.458 21.709 16.398 C 21.77 16.338 21.831 16.278 21.892 16.238 C 21.912 16.218 21.932 16.218 21.952 16.198 C 22.014 16.138 22.014 16.038 21.932 15.998 C 21.265 15.707 20.58 15.459 19.881 15.256 C 19.267 15.077 19.247 14.282 19.293 13.446 L 19.313 13.131 C 19.333 12.791 19.353 12.471 19.333 12.21 C 19.272 11.328 19.129 10.346 18.398 9.905 C 17.681 9.458 16.527 9.53 15.731 9.623 L 15.554 9.644 C 15.27 9.724 14.986 9.784 14.783 9.784 C 14.315 9.764 13.95 9.564 13.645 9.404 C 13.401 9.264 13.178 9.164 12.975 9.164 Z M 7.835 19.084 L 7.82 19.156 C 7.8 19.351 7.884 19.72 7.937 19.965 C 7.937 19.985 7.957 19.985 7.957 19.965 C 7.957 19.745 7.998 19.505 8.059 19.284 L 8.059 19.264 L 7.999 19.204 C 7.937 19.164 7.897 19.124 7.836 19.084 L 7.835 19.084 Z M 16.387 19.184 C 16.327 19.184 16.204 19.204 16.123 19.224 L 16.001 19.244 C 15.981 19.284 15.981 19.404 15.981 19.484 L 15.981 19.824 C 16.123 19.824 16.245 19.824 16.367 19.784 L 16.367 19.484 C 16.367 19.404 16.387 19.344 16.387 19.284 C 16.387 19.244 16.407 19.204 16.387 19.184 Z M 10.984 18.723 L 10.924 18.723 C 10.903 18.723 10.883 18.723 10.883 18.743 C 10.883 18.743 10.863 18.743 10.863 18.763 C 10.863 18.763 10.853 18.763 10.847 18.769 L 10.842 18.783 L 10.822 18.803 C 10.822 18.803 10.822 18.812 10.816 18.818 L 10.801 18.823 C 10.781 18.863 10.741 18.903 10.721 18.943 C 10.659 19.043 10.578 19.143 10.517 19.243 C 10.456 19.323 10.395 19.423 10.334 19.504 L 10.233 19.644 L 10.213 19.664 L 10.334 19.684 C 10.436 19.704 10.517 19.724 10.619 19.724 C 10.801 19.744 11.004 19.764 11.208 19.764 L 11.228 19.764 C 11.268 19.704 11.329 19.624 11.39 19.524 C 11.431 19.464 11.472 19.404 11.492 19.364 C 11.431 19.324 11.411 19.304 11.411 19.264 C 11.391 19.144 11.371 19.024 11.329 18.923 L 11.314 18.893 L 11.299 18.863 L 11.289 18.843 C 11.289 18.843 11.289 18.823 11.269 18.823 L 11.249 18.803 L 11.228 18.803 C 11.228 18.803 11.208 18.803 11.208 18.783 L 11.188 18.783 C 11.147 18.769 11.097 18.747 11.05 18.733 L 10.984 18.723 Z M 10.171 18.543 L 10.071 18.543 C 10.005 18.541 9.939 18.562 9.887 18.603 C 9.887 18.623 9.867 18.623 9.867 18.623 C 9.725 18.723 9.623 18.863 9.542 19.003 L 9.42 19.243 C 9.4 19.303 9.38 19.343 9.36 19.383 L 9.379 19.403 C 9.391 19.417 9.399 19.431 9.399 19.444 C 9.42 19.464 9.42 19.464 9.44 19.464 L 9.623 19.524 C 9.684 19.544 9.765 19.564 9.847 19.584 L 9.927 19.464 C 9.969 19.404 10.029 19.324 10.07 19.264 C 10.172 19.124 10.253 18.983 10.354 18.843 L 10.342 18.797 C 10.33 18.75 10.319 18.697 10.273 18.622 C 10.273 18.622 10.233 18.562 10.253 18.582 L 10.213 18.562 L 10.192 18.562 C 10.192 18.549 10.182 18.544 10.171 18.542 L 10.171 18.543 Z M 19.631 16.163 L 19.491 16.168 C 19.128 16.202 18.861 16.398 18.764 16.478 C 18.642 16.558 18.622 16.578 18.622 16.618 C 18.581 16.718 18.561 16.818 18.398 17.039 C 18.093 17.44 17.89 17.56 17.748 17.66 C 17.647 17.74 17.586 17.78 17.504 17.9 C 17.424 18.021 17.424 18.121 17.444 18.362 L 17.444 18.862 C 17.444 19.063 17.424 19.224 17.424 19.364 C 17.403 19.444 17.484 19.484 17.545 19.464 C 17.565 19.444 17.565 19.444 17.585 19.444 C 17.647 19.424 17.728 19.384 17.89 19.364 C 18.865 19.224 19.008 19.204 19.15 19.104 C 19.332 19.004 19.332 18.883 19.353 18.602 C 19.373 18.342 19.393 18.002 19.617 17.62 C 19.677 17.52 19.759 17.36 19.84 17.22 C 19.971 16.967 20.114 16.719 20.267 16.478 C 20.307 16.418 20.267 16.338 20.206 16.318 C 20.066 16.265 19.923 16.218 19.779 16.178 L 19.631 16.164 L 19.631 16.163 Z M 9.379 18.422 C 9.319 18.422 9.258 18.402 9.197 18.442 C 9.156 18.462 9.115 18.522 9.075 18.562 C 8.973 18.682 8.892 18.802 8.811 18.922 C 8.771 19.023 8.709 19.103 8.648 19.203 C 8.668 19.223 8.688 19.223 8.709 19.243 L 8.872 19.303 C 8.932 19.323 8.973 19.323 9.034 19.343 L 9.054 19.303 L 9.217 18.983 C 9.339 18.783 9.461 18.603 9.623 18.462 C 9.623 18.462 9.603 18.462 9.563 18.442 C 9.501 18.422 9.44 18.422 9.379 18.422 Z M 8.531 18.232 L 8.486 18.242 C 8.443 18.264 8.407 18.299 8.384 18.342 C 8.324 18.442 8.242 18.562 8.181 18.662 C 8.141 18.722 8.1 18.782 8.079 18.842 C 8.079 18.862 8.059 18.902 8.039 18.943 L 8.059 18.943 C 8.059 18.963 8.099 18.983 8.099 18.983 L 8.222 19.063 C 8.282 19.083 8.323 19.103 8.384 19.123 C 8.404 19.043 8.465 18.983 8.506 18.903 L 8.614 18.723 C 8.691 18.605 8.777 18.489 8.872 18.382 C 8.804 18.305 8.71 18.255 8.608 18.242 L 8.576 18.237 L 8.531 18.233 L 8.531 18.232 Z M 18.325 4.002 L 18.313 4.005 L 18.161 4.02 L 18.075 4.03 L 18.002 4.04 L 17.941 4.05 C 17.932 4.052 17.924 4.053 17.915 4.055 L 17.897 4.055 L 17.8 4.071 L 17.768 4.073 C 16.989 4.16 16.308 4.381 15.52 4.743 C 15.186 4.914 14.8 4.955 14.438 4.858 C 13.992 4.752 13.535 4.698 13.076 4.695 L 12.731 4.695 C 12.194 4.721 11.662 4.809 11.145 4.958 C 10.26 5.224 9.444 5.681 8.756 6.298 L 8.512 6.519 L 8.262 6.807 C 7.765 7.412 7.539 7.839 7.269 8.562 L 7.204 8.742 L 7.17 8.836 L 7.162 8.864 L 7.148 8.911 L 7.113 9.005 L 7.068 9.138 L 7.023 9.268 C 6.87 9.713 6.76 10.172 6.693 10.638 L 6.68 10.747 L 6.666 10.782 L 6.648 10.829 L 6.616 10.923 C 6.606 10.953 6.596 10.983 6.589 11.01 L 6.579 11.048 C 6.573 11.071 6.565 11.093 6.555 11.115 L 6.521 11.189 L 6.505 11.226 L 6.499 11.242 L 6.446 11.327 L 6.434 11.367 L 6.421 11.387 L 6.385 11.437 C 5.796 12.308 5.438 13.047 5.277 14.061 C 5.254 14.264 5.188 14.46 5.083 14.636 L 4.759 15.196 L 4.717 15.256 C 4.691 15.293 4.662 15.327 4.63 15.359 L 4.461 15.566 C 4.125 16.036 3.847 16.546 3.634 17.083 L 3.544 17.33 C 3.558 17.47 3.574 17.61 3.592 17.75 C 3.77 17.046 4.091 16.379 4.592 15.662 L 4.751 15.466 C 4.782 15.436 4.811 15.403 4.836 15.368 L 4.875 15.313 L 4.897 15.28 L 5.225 14.714 C 5.345 14.5 5.419 14.294 5.439 14.081 C 5.589 13.137 5.917 12.435 6.454 11.624 L 6.542 11.492 L 6.553 11.481 C 6.57 11.459 6.582 11.434 6.59 11.408 L 6.593 11.396 L 6.646 11.309 L 6.653 11.293 L 6.659 11.276 L 6.691 11.209 C 6.705 11.179 6.718 11.148 6.728 11.116 L 6.736 11.086 C 6.756 11.01 6.796 10.893 6.835 10.796 L 6.84 10.776 C 6.901 10.279 7.014 9.791 7.178 9.318 L 7.271 9.046 L 7.293 8.988 C 7.306 8.953 7.316 8.918 7.325 8.882 L 7.358 8.79 L 7.422 8.615 C 7.685 7.911 7.904 7.497 8.386 6.909 L 8.629 6.63 L 8.866 6.417 C 9.536 5.817 10.329 5.371 11.19 5.112 C 11.693 4.967 12.211 4.881 12.734 4.855 L 13.076 4.855 C 13.504 4.855 13.964 4.911 14.398 5.013 C 14.805 5.119 15.231 5.074 15.592 4.886 C 16.362 4.533 17.028 4.317 17.778 4.233 C 17.791 4.233 17.807 4.233 17.827 4.23 L 17.921 4.214 L 17.931 4.214 L 17.989 4.204 L 18.058 4.194 L 18.181 4.179 L 18.331 4.164 L 18.446 4.154 L 18.652 4.133 L 18.872 4.113 C 18.69 4.071 18.507 4.034 18.324 4 L 18.325 4.002 Z M 11.533 14.065 L 11.675 14.073 C 11.858 14.093 12 14.113 12.142 14.153 C 12.264 14.193 12.365 14.213 12.447 14.253 C 12.447 14.253 12.467 14.253 12.467 14.273 C 12.487 14.273 12.507 14.293 12.507 14.293 C 12.527 14.313 12.548 14.313 12.568 14.313 C 12.588 14.333 12.629 14.333 12.65 14.353 L 12.67 14.353 C 12.772 14.393 12.853 14.454 12.934 14.494 C 12.974 14.514 12.995 14.554 13.036 14.574 C 13.056 14.574 13.056 14.594 13.056 14.594 L 13.076 14.614 C 13.442 14.935 13.422 15.256 13.381 15.456 C 13.178 16.358 11.736 17.38 11.086 17.38 L 10.964 17.38 C 10.813 17.331 10.674 17.249 10.558 17.14 C 10.479 17.06 10.416 16.964 10.375 16.859 C 10.375 16.839 10.375 16.819 10.355 16.799 C 10.314 16.639 10.273 16.458 10.415 16.137 L 10.476 16.017 L 10.496 15.977 C 10.516 15.937 10.516 15.917 10.537 15.877 C 10.557 15.837 10.577 15.797 10.577 15.757 L 10.598 15.717 C 10.638 15.617 10.638 15.557 10.638 15.517 C 10.638 15.476 10.638 15.436 10.659 15.376 C 10.699 15.196 10.72 15.056 10.74 14.935 C 10.781 14.695 10.801 14.495 10.923 14.314 C 10.943 14.274 10.963 14.254 11.004 14.234 L 11.034 14.204 L 11.045 14.194 C 11.085 14.174 11.106 14.154 11.147 14.134 C 11.167 14.134 11.167 14.114 11.187 14.114 C 11.207 14.114 11.248 14.094 11.269 14.094 C 11.39 14.074 11.533 14.054 11.675 14.074 L 11.533 14.065 Z M 11.695 14.515 L 11.553 14.515 C 11.451 14.515 11.37 14.535 11.35 14.575 C 11.269 14.675 11.248 14.795 11.228 14.995 C 11.208 15.115 11.188 15.295 11.147 15.476 C 11.127 15.496 11.127 15.536 11.127 15.556 C 11.106 15.676 11.065 15.796 10.862 16.278 C 10.781 16.458 10.802 16.538 10.822 16.658 C 10.842 16.678 10.842 16.698 10.842 16.718 C 10.862 16.778 10.984 16.858 11.065 16.898 C 11.025 16.498 11.147 16.198 11.248 15.977 C 11.288 15.917 11.309 15.857 11.329 15.797 C 11.349 15.717 11.349 15.637 11.349 15.557 C 11.349 15.376 11.37 15.175 11.533 14.795 C 11.593 14.655 11.634 14.595 11.695 14.515 Z M 21.445 8.522 C 20.612 8.222 19.8 8.322 18.865 8.422 C 18.723 8.422 18.561 8.442 18.418 8.462 C 17.951 8.502 17.484 8.762 17.118 8.983 L 16.982 9.063 C 16.895 9.114 16.814 9.163 16.732 9.203 C 17.382 9.203 18.052 9.283 18.561 9.604 C 19.434 10.145 19.597 11.208 19.657 12.19 C 19.677 12.47 19.657 12.81 19.637 13.151 C 19.577 13.913 19.536 14.795 19.942 14.915 C 20.307 15.015 21.323 15.456 22.502 16.057 L 22.643 16.057 C 23.05 16.017 23.375 15.597 23.557 15.356 C 23.781 15.056 23.882 14.775 23.943 14.614 C 24.004 14.394 24.025 14.294 24.045 14.114 L 24.057 14.023 C 24.067 13.93 24.075 13.833 24.106 13.713 C 24.187 13.312 24.268 13.091 24.35 12.911 L 24.38 12.823 C 24.43 12.679 24.482 12.54 24.532 12.29 C 24.614 11.829 24.675 11.488 24.512 11.147 C 24.452 11.047 24.411 11.027 24.248 10.887 L 24.182 10.835 C 24.064 10.743 23.902 10.626 23.7 10.426 C 23.212 9.986 22.968 9.765 22.826 9.484 C 22.623 9.084 21.831 8.662 21.445 8.522 Z M 6.341 8.303 C 6.246 8.417 6.153 8.533 6.062 8.65 L 6.063 8.69 L 6.045 8.761 L 5.992 8.913 C 5.818 9.427 5.692 9.956 5.617 10.493 L 5.561 10.656 L 5.548 10.672 L 5.54 10.685 L 5.489 10.758 L 5.323 11.011 L 5.222 11.169 L 5.162 11.264 L 5.108 11.354 L 5.056 11.444 L 5.006 11.533 L 4.98 11.579 L 4.93 11.675 L 4.875 11.779 C 4.562 12.382 4.34 13.028 4.216 13.696 C 4.197 13.856 4.139 14.01 4.048 14.143 L 3.55 14.935 L 3.546 14.967 L 3.519 15.301 L 3.663 15.081 L 4.193 14.237 C 4.293 14.097 4.363 13.907 4.387 13.722 C 4.508 13.072 4.725 12.444 5.03 11.857 L 5.083 11.755 L 5.133 11.66 L 5.183 11.57 L 5.233 11.484 L 5.298 11.374 L 5.312 11.351 L 5.402 11.208 L 5.507 11.045 L 5.633 10.852 L 5.673 10.793 L 5.683 10.786 L 5.708 10.761 L 5.708 10.748 L 5.715 10.738 C 5.719 10.732 5.723 10.725 5.725 10.718 L 5.727 10.703 L 5.785 10.533 C 5.867 9.946 6.01 9.368 6.211 8.81 L 6.234 8.722 L 6.236 8.702 L 6.236 8.602 L 6.252 8.574 L 6.263 8.541 C 6.267 8.528 6.271 8.514 6.274 8.501 L 6.341 8.303 Z M 15.636 10.445 C 15.758 10.345 16.366 9.904 17.118 10.125 C 17.647 10.265 17.931 10.685 18.033 10.825 C 18.113 10.946 18.378 11.327 18.378 11.848 C 18.398 12.248 18.236 12.549 17.931 13.07 C 17.748 13.39 17.647 13.571 17.484 13.691 C 17.159 13.952 16.794 14.012 16.489 14.012 C 16.265 14.012 16.083 13.972 15.961 13.952 C 15.636 13.892 15.047 13.792 14.843 13.331 C 14.803 13.231 14.803 13.191 14.803 13.111 L 14.802 13.029 C 14.797 12.895 14.784 12.761 14.762 12.629 L 14.762 12.609 C 14.742 12.469 14.722 12.329 14.762 12.129 L 14.762 12.109 C 14.864 11.547 14.904 11.467 14.925 11.407 C 14.985 11.307 15.128 11.247 15.229 11.307 C 15.331 11.367 15.392 11.487 15.331 11.607 C 15.311 11.647 15.291 11.767 15.209 12.189 L 15.209 12.209 C 15.189 12.321 15.189 12.437 15.209 12.549 L 15.209 12.569 C 15.244 12.844 15.249 12.986 15.249 13.072 L 15.249 13.17 C 15.29 13.25 15.351 13.31 15.433 13.35 C 15.513 13.39 15.595 13.31 15.575 13.23 C 15.473 12.75 15.493 12.189 15.676 11.848 C 15.713 11.776 15.771 11.675 15.834 11.566 L 15.961 11.346 C 15.981 11.326 15.981 11.306 16.001 11.286 C 16.001 11.266 16.021 11.246 16.021 11.246 C 16.062 11.166 16.123 11.086 16.143 11.046 C 16.143 11.046 16.143 11.026 16.163 11.026 C 16.163 11.026 16.163 11.006 16.184 11.006 L 16.204 10.966 L 16.204 10.926 L 16.224 10.906 C 16.245 10.866 16.286 10.826 16.306 10.786 C 16.366 10.706 16.306 10.606 16.204 10.646 C 16.042 10.726 15.94 10.806 15.92 10.806 C 15.819 10.885 15.674 10.867 15.595 10.766 C 15.515 10.667 15.533 10.521 15.635 10.445 L 15.636 10.445 Z M 13.279 9.864 C 13.523 9.864 13.787 9.944 13.97 10.084 C 14.051 10.144 14.173 10.284 14.234 10.665 C 14.234 10.845 14.174 11.207 14.051 12.008 L 14.031 12.168 C 13.97 12.549 13.828 13.05 13.279 13.19 C 12.751 13.31 12.629 13.35 12.264 13.35 L 12.244 13.35 C 11.979 13.35 11.451 13.19 11.35 12.77 C 11.289 12.49 11.41 12.309 11.614 11.968 C 11.654 11.908 11.674 11.848 11.715 11.788 C 11.979 11.347 12.081 11.026 12.162 10.786 C 12.243 10.546 12.304 10.325 12.487 10.164 C 12.527 10.124 12.568 10.084 12.629 10.044 L 12.731 9.984 C 12.771 9.964 12.833 9.944 12.893 9.924 C 13.015 9.884 13.137 9.864 13.279 9.864 Z M 13.097 10.324 C 13.015 10.344 12.934 10.384 12.833 10.404 C 12.69 10.505 12.65 10.625 12.548 10.906 C 12.467 11.166 12.345 11.527 12.061 12.008 C 12.021 12.068 12 12.128 11.959 12.188 C 11.797 12.469 11.736 12.549 11.756 12.649 C 11.796 12.769 12.02 12.869 12.162 12.889 C 12.102 12.609 12.122 12.349 12.202 12.129 C 12.243 11.989 12.304 11.908 12.386 11.788 C 12.466 11.688 12.548 11.568 12.65 11.367 C 12.71 11.247 12.833 10.926 12.954 10.645 C 13.015 10.525 13.056 10.425 13.097 10.325 L 13.097 10.324 Z"/>
</svg>
