<?xml version="1.0" encoding="utf-8"?>
<svg fill="#d1d1d1" height="32" viewBox="0 0 32 32" width="32" xmlns="http://www.w3.org/2000/svg">
  <path d="M 23.772 21.883 L 21.799 16.574 L 22.977 16.574 C 23.441 16.575 23.82 16.202 23.827 15.738 C 23.827 15.528 23.741 15.325 23.59 15.177 C 23.439 15.029 23.232 14.944 23.017 14.944 L 21.177 14.944 L 20.882 14.118 L 22.977 14.118 C 23.431 14.122 23.806 13.765 23.823 13.311 C 23.824 13.089 23.735 12.877 23.575 12.721 C 23.415 12.565 23.199 12.477 22.973 12.478 L 20.253 12.478 L 18.78 8.51 C 18.558 7.941 18.194 7.438 17.723 7.049 C 17.253 6.672 16.662 6.477 16.06 6.501 C 15.456 6.481 14.864 6.676 14.389 7.049 C 13.918 7.438 13.553 7.94 13.329 8.509 L 11.786 12.513 L 9.082 12.513 C 8.637 12.509 8.272 12.865 8.265 13.31 C 8.265 13.768 8.644 14.139 9.112 14.139 L 11.165 14.139 L 10.849 14.943 L 9.009 14.943 C 8.562 14.938 8.196 15.296 8.191 15.743 C 8.191 16.197 8.565 16.564 9.027 16.566 L 10.208 16.566 L 8.202 21.882 C 8.079 22.182 8.011 22.5 8 22.823 C 8.02 23.276 8.222 23.703 8.56 24.013 C 8.934 24.33 9.41 24.501 9.9 24.496 C 10.744 24.547 11.509 24.004 11.74 23.191 L 12.516 20.922 L 19.66 20.922 L 20.437 23.245 C 20.696 24.029 21.453 24.539 22.277 24.485 C 22.587 24.492 22.892 24.415 23.161 24.265 C 23.394 24.095 23.601 23.895 23.775 23.667 C 23.927 23.412 24.005 23.12 24 22.823 C 23.951 22.508 23.875 22.198 23.772 21.896 L 23.772 21.883 Z M 13.66 17.386 L 16.045 10.274 L 18.475 17.386 L 13.66 17.386 Z"/>
</svg>
