<?xml version="1.0" encoding="utf-8"?>
<svg fill="#d1d1d1" width="32" height="32" viewBox="0 0 32 32" xmlns="http://www.w3.org/2000/svg">
  <path d="M 10.755 5.246 L 10.765 5.235 C 5.518 7.826 2.921 13.836 4.628 19.433 C 5.106 21.076 5.961 22.585 7.123 23.84 C 7.93 22.067 8.557 20.22 9.3 18.435 L 11.52 12.807 C 11.87 11.947 12.146 11.033 12.762 10.322 C 13.41 9.568 14.408 9.239 15.364 9.132 C 16.557 8.962 17.773 9.151 18.858 9.674 C 19.633 10.099 20.132 10.884 20.429 11.702 L 23.509 19.773 C 24.019 21.111 24.475 22.47 25.07 23.766 C 31.095 16.829 27.351 5.971 18.331 4.221 C 15.762 3.723 13.1 4.083 10.755 5.246 Z M 15.194 13.38 C 13.654 17.235 12.157 21.1 10.628 24.955 C 10.448 25.401 10.203 25.837 10.15 26.325 C 10.67 26.697 11.286 26.909 11.88 27.154 C 15.101 28.357 18.683 28.117 21.714 26.495 C 21.824 26.433 21.924 26.354 22.012 26.262 C 21.905 25.72 21.64 25.221 21.459 24.701 C 20.089 21.079 18.73 17.447 17.349 13.837 C 17.212 13.497 17.105 13.115 16.809 12.892 C 16.256 12.531 15.406 12.743 15.194 13.38 Z"/>
</svg>
