<?xml version="1.0" encoding="utf-8"?>
<svg fill="#d1d1d1" height="32" viewBox="0 0 32 32" width="32" xmlns="http://www.w3.org/2000/svg">
  <path d="M 11.76 14.102 C 12.07 14.477 12.055 15.023 11.725 15.38 L 15.599 22.28 C 15.872 22.153 16.187 22.155 16.459 22.285 L 20.221 15.497 C 19.72 15.114 19.707 14.364 20.196 13.965 L 16.122 6.565 C 16.066 6.541 16.05 6.55 16.042 6.564 L 11.76 14.102 Z M 11.35 15.636 C 11.192 15.697 11.022 15.718 10.854 15.696 L 8.362 20.083 C 8.6 20.586 8.882 21.067 9.206 21.521 C 9.969 21.701 11.919 22.165 15.057 22.917 C 15.092 22.787 15.154 22.666 15.238 22.561 L 11.35 15.636 Z M 10.811 13.753 C 11.009 13.719 11.213 13.744 11.397 13.826 L 15.559 6.5 C 12.439 6.55 9.828 7.135 7.724 8.254 L 10.811 13.753 Z M 10.391 13.929 L 7.335 8.483 C 7.109 8.664 6.986 8.943 7.003 9.231 L 7.465 16.613 C 7.529 17.627 7.755 18.624 8.136 19.566 L 10.426 15.536 C 9.856 15.159 9.839 14.329 10.393 13.929 L 10.391 13.929 Z M 16.991 22.927 L 22.88 21.4 C 23.152 21.003 23.394 20.587 23.604 20.155 L 21.13 15.661 C 20.969 15.71 20.799 15.718 20.634 15.685 L 16.816 22.572 C 16.896 22.676 16.957 22.796 16.991 22.927 Z M 16.25 24.127 L 16.25 26.488 C 16.336 26.464 16.419 26.426 16.494 26.378 L 20.117 24.065 C 21.004 23.5 21.793 22.793 22.453 21.973 L 16.997 23.388 C 16.91 23.757 16.62 24.044 16.25 24.128 L 16.25 24.127 Z M 15.796 24.127 C 15.421 24.042 15.129 23.749 15.046 23.374 C 13.243 22.942 11.44 22.512 9.637 22.084 C 10.278 22.857 11.036 23.525 11.883 24.065 L 15.506 26.379 C 15.596 26.437 15.695 26.477 15.796 26.5 L 15.796 24.127 Z M 21.166 13.793 L 24.246 8.238 C 22.184 7.148 19.637 6.57 16.605 6.503 L 20.602 13.765 C 20.789 13.721 20.984 13.731 21.166 13.793 Z M 21.549 14.034 C 21.939 14.424 21.927 15.061 21.522 15.436 L 23.835 19.639 C 24.233 18.676 24.47 17.654 24.535 16.614 L 24.998 9.231 C 25.016 8.93 24.88 8.641 24.638 8.462 L 21.549 14.034 Z M 16 11.235 C 16.294 11.24 16.532 11.474 16.541 11.768 L 16.541 13.722 L 19.427 15.5 L 19.074 16.211 L 16.541 15.321 L 16.541 17.276 L 17.263 17.809 L 17.263 18.342 L 16 17.987 L 14.737 18.342 L 14.737 17.809 L 15.459 17.276 L 15.459 15.322 L 12.882 16.166 L 12.572 15.499 L 15.459 13.722 L 15.459 11.768 C 15.468 11.474 15.706 11.24 16 11.235 Z"/>
</svg>
