<?xml version="1.0" encoding="utf-8"?>
<svg fill="#d1d1d1" width="32" height="32" viewBox="0 0 32 32" xmlns="http://www.w3.org/2000/svg">
  <path d="M 7.975 23.475 C 8.559 24.088 9.206 24.638 9.905 25.115 C 10.085 25.233 10.275 25.35 10.482 25.467 C 11.041 25.792 11.573 26.035 12.051 26.225 C 12.186 26.279 12.321 26.333 12.475 26.387 C 13.533 26.745 14.64 26.939 15.757 26.964 L 15.757 25.188 L 11.866 24.331 L 7.975 23.475 Z M 23.98 23.511 C 21.455 24.07 18.93 24.629 16.406 25.179 L 16.406 26.955 L 16.761 26.936 C 19.513 26.746 22.092 25.523 23.98 23.511 Z M 22.122 20.22 C 21.743 20.292 21.428 20.355 21.212 20.4 C 21.202 20.4 21.193 20.4 21.184 20.409 C 20.851 20.481 20.535 20.544 20.229 20.599 C 20.057 20.634 19.895 20.652 19.742 20.679 C 19.706 20.689 19.661 20.689 19.607 20.698 C 19.607 20.698 19.498 20.716 19.354 20.725 C 19.261 20.732 19.167 20.729 19.074 20.715 C 19.026 20.713 18.979 20.697 18.939 20.67 C 18.894 20.643 18.867 20.607 18.84 20.58 L 17.731 22.528 L 16.622 24.475 C 18.876 23.98 21.122 23.475 23.375 22.979 C 23.324 22.915 23.275 22.849 23.231 22.78 C 23.168 22.69 23.114 22.582 23.051 22.465 C 22.992 22.356 22.937 22.245 22.889 22.131 L 22.884 22.119 C 22.774 21.89 22.674 21.656 22.582 21.419 C 22.555 21.356 22.537 21.302 22.51 21.248 C 22.373 20.908 22.243 20.566 22.122 20.22 Z M 9.968 20.22 C 9.905 20.4 9.842 20.571 9.77 20.752 C 9.709 20.922 9.643 21.091 9.571 21.257 C 9.508 21.419 9.445 21.572 9.382 21.725 C 9.322 21.865 9.259 22.003 9.192 22.14 C 9.087 22.363 8.97 22.58 8.841 22.79 C 8.805 22.859 8.759 22.922 8.706 22.979 L 15.45 24.466 L 15.445 24.458 L 14.309 22.51 L 14.102 22.154 L 13.205 20.616 L 13.169 20.652 L 13.142 20.674 L 13.115 20.689 C 13.034 20.734 12.88 20.743 12.645 20.725 C 12.452 20.704 12.26 20.677 12.069 20.643 C 11.988 20.634 11.916 20.616 11.843 20.607 C 11.771 20.589 11.69 20.58 11.618 20.562 C 11.458 20.532 11.299 20.499 11.14 20.463 L 10.897 20.409 L 10.572 20.339 C 10.371 20.297 10.17 20.257 9.968 20.219 L 9.968 20.22 Z M 22.843 11.438 L 9.157 11.438 L 9.103 11.549 C 9.063 11.62 9.013 11.684 8.958 11.744 L 16.045 24.214 L 23.105 11.798 L 23.022 11.72 C 22.944 11.639 22.883 11.543 22.843 11.438 Z M 5.947 19.147 L 5.712 19.823 L 5.864 20.208 C 6.235 21.098 6.715 21.924 7.299 22.681 C 7.534 22.735 7.759 22.781 7.993 22.834 C 7.99 22.719 8.003 22.604 8.03 22.492 C 8.066 22.32 8.11 22.14 8.165 21.932 L 8.219 21.716 L 8.303 21.422 C 8.363 21.222 8.426 21.016 8.498 20.806 C 8.525 20.725 8.552 20.652 8.57 20.58 C 8.616 20.436 8.66 20.292 8.706 20.157 C 8.723 20.092 8.744 20.029 8.769 19.967 C 8.525 19.913 8.237 19.841 7.93 19.777 C 7.628 19.709 7.327 19.634 7.029 19.552 C 6.812 19.489 6.614 19.435 6.443 19.372 C 6.38 19.354 6.325 19.327 6.271 19.309 C 6.207 19.285 6.144 19.258 6.082 19.228 C 6.035 19.205 5.99 19.178 5.947 19.147 Z M 26.252 19.02 C 26.17 19.129 26.035 19.21 25.828 19.291 C 25.579 19.383 25.326 19.464 25.07 19.534 C 25.016 19.552 24.962 19.561 24.917 19.58 L 24.782 19.616 L 24.592 19.664 L 24.403 19.706 C 24.329 19.727 24.254 19.745 24.178 19.76 L 24.04 19.793 C 23.844 19.84 23.606 19.891 23.34 19.949 C 23.411 20.202 23.502 20.481 23.61 20.797 C 23.709 21.112 23.808 21.419 23.89 21.707 C 23.916 21.797 23.934 21.879 23.961 21.969 C 24.007 22.104 24.043 22.239 24.07 22.402 C 24.079 22.429 24.079 22.456 24.088 22.482 C 24.124 22.627 24.133 22.735 24.124 22.816 C 24.124 22.816 24.502 22.744 24.692 22.699 C 25.44 21.735 26.022 20.654 26.414 19.499 L 26.252 19.02 Z M 15.712 19.58 C 15.836 19.58 15.937 19.68 15.937 19.805 C 15.937 19.94 15.837 20.039 15.711 20.039 L 15.651 20.031 C 15.551 20.004 15.483 19.912 15.486 19.809 C 15.486 19.68 15.587 19.579 15.711 19.579 L 15.712 19.58 Z M 11.059 16.73 C 11.032 16.816 11.011 16.903 10.996 16.992 C 10.978 17.082 10.951 17.182 10.924 17.289 L 10.87 17.506 L 10.806 17.726 C 10.762 17.873 10.716 18.026 10.662 18.182 C 10.607 18.337 10.556 18.493 10.509 18.651 C 10.455 18.804 10.409 18.957 10.356 19.101 C 10.599 19.165 10.834 19.219 11.041 19.273 C 11.149 19.3 11.248 19.327 11.348 19.345 C 11.447 19.372 11.537 19.39 11.627 19.417 C 11.672 19.427 11.717 19.435 11.753 19.453 L 11.88 19.48 C 11.96 19.498 12.033 19.516 12.105 19.543 C 12.249 19.58 12.385 19.616 12.493 19.652 C 12.601 19.679 12.691 19.715 12.773 19.742 L 11.059 16.73 Z M 21.031 16.748 L 19.336 19.724 L 19.346 19.714 L 19.421 19.688 C 19.479 19.668 19.538 19.65 19.598 19.634 C 19.832 19.561 20.12 19.489 20.472 19.399 C 20.824 19.309 21.239 19.209 21.725 19.084 C 21.626 18.786 21.518 18.48 21.419 18.164 C 21.317 17.87 21.227 17.572 21.149 17.271 C 21.101 17.099 21.061 16.924 21.031 16.748 Z M 8.4 12.068 L 6.172 18.48 L 6.245 18.47 C 6.295 18.465 6.346 18.461 6.407 18.461 C 6.614 18.461 6.857 18.471 7.137 18.498 C 7.425 18.525 7.741 18.57 8.084 18.633 C 8.435 18.696 8.796 18.759 9.166 18.84 C 9.265 18.56 9.364 18.263 9.472 17.939 C 9.622 17.497 9.788 17.061 9.968 16.631 C 10.019 16.515 10.073 16.401 10.13 16.289 C 10.166 16.207 10.202 16.144 10.239 16.09 C 10.268 16.045 10.301 16.003 10.338 15.964 C 10.357 15.946 10.378 15.931 10.401 15.919 C 10.442 15.895 10.489 15.882 10.536 15.883 L 8.4 12.069 L 8.4 12.068 Z M 23.764 11.997 L 23.728 11.997 L 21.538 15.847 L 21.558 15.851 L 21.591 15.856 C 21.601 15.856 21.601 15.856 21.609 15.865 C 21.619 15.865 21.619 15.865 21.627 15.874 C 21.637 15.874 21.637 15.883 21.645 15.883 C 21.655 15.883 21.655 15.883 21.663 15.892 C 21.69 15.906 21.714 15.924 21.735 15.946 C 21.771 15.982 21.799 16.018 21.808 16.027 C 21.817 16.037 21.817 16.045 21.826 16.054 C 21.846 16.083 21.864 16.113 21.88 16.144 C 21.925 16.225 21.952 16.27 21.952 16.27 C 22.06 16.478 22.168 16.721 22.276 17.01 C 22.385 17.298 22.502 17.605 22.61 17.93 C 22.637 18.002 22.655 18.065 22.682 18.137 C 22.745 18.327 22.826 18.561 22.917 18.831 C 23.295 18.759 23.656 18.687 24.007 18.624 C 24.359 18.561 24.675 18.516 24.963 18.489 C 25.252 18.461 25.495 18.443 25.703 18.452 C 25.82 18.452 25.91 18.462 25.991 18.48 C 26.009 18.48 26.036 18.489 26.054 18.489 C 25.883 18.011 25.703 17.479 25.495 16.911 L 23.765 11.997 L 23.764 11.997 Z M 6.534 10.473 C 5.621 12.024 5.107 13.778 5.037 15.576 L 5.037 16.334 L 5.058 16.755 C 5.106 17.454 5.216 18.132 5.388 18.786 C 6.191 16.46 7.003 14.143 7.805 11.816 C 7.7 11.736 7.614 11.635 7.553 11.519 C 7.487 11.397 7.453 11.261 7.453 11.122 L 7.453 11.059 L 7.456 11.047 C 7.459 11.03 7.461 11.013 7.462 10.996 L 6.534 10.473 Z M 25.54 10.563 C 25.207 10.753 24.882 10.933 24.549 11.123 C 24.549 11.149 24.549 11.176 24.539 11.203 C 24.531 11.257 24.521 11.303 24.512 11.348 C 24.503 11.375 24.494 11.393 24.485 11.42 C 24.459 11.487 24.426 11.55 24.386 11.609 C 24.368 11.627 24.359 11.645 24.341 11.663 C 25.126 13.926 25.91 16.18 26.694 18.443 C 26.74 18.254 26.776 18.056 26.812 17.866 C 26.812 17.848 26.821 17.83 26.821 17.803 C 26.832 17.74 26.841 17.677 26.848 17.613 C 26.857 17.578 26.857 17.551 26.866 17.515 C 26.875 17.425 26.893 17.343 26.902 17.245 L 26.915 17.108 L 26.929 16.965 C 26.929 16.938 26.938 16.911 26.938 16.884 C 26.938 16.83 26.947 16.784 26.947 16.73 C 26.965 16.45 26.974 16.19 26.974 15.946 C 26.966 14.306 26.59 12.688 25.874 11.212 L 25.847 11.158 L 25.788 11.041 L 25.73 10.924 L 25.676 10.816 L 25.608 10.689 L 25.54 10.563 Z M 13.81 17.361 C 13.936 17.361 14.035 17.461 14.035 17.587 C 14.035 17.713 13.936 17.812 13.81 17.812 C 13.685 17.813 13.584 17.712 13.585 17.587 L 13.593 17.527 L 13.601 17.502 C 13.636 17.417 13.718 17.362 13.81 17.362 L 13.81 17.361 Z M 16.592 13.061 C 16.708 12.941 16.975 12.758 17.426 12.925 L 18.453 13.295 L 18.94 13.466 C 18.94 13.476 19.229 13.584 19.454 13.394 L 19.977 13.043 C 19.977 13.043 20.257 12.817 20.554 12.97 C 20.559 12.97 20.564 12.973 20.57 12.984 C 20.572 12.98 20.572 12.989 20.581 12.998 C 20.635 13.322 20.338 13.53 20.338 13.53 L 19.851 13.917 L 19.779 13.976 C 19.685 14.077 19.631 14.208 19.626 14.346 L 19.626 14.386 L 19.697 16 L 19.697 16.137 C 19.662 16.692 19.218 16.793 19.21 16.793 L 19.2 16.793 L 19.192 16.784 C 19.186 16.784 19.184 16.781 19.182 16.775 C 19.182 16.775 19.174 16.766 19.174 16.757 C 19.039 15.892 18.93 15.243 18.876 14.927 L 18.867 14.882 C 18.861 14.856 18.849 14.801 18.825 14.762 C 18.816 14.752 18.806 14.744 18.795 14.738 C 18.714 14.693 18.597 14.774 18.515 14.818 L 18.454 14.858 C 18.312 14.947 18.158 15.045 17.424 15.558 C 17.389 15.585 17.352 15.612 17.316 15.648 C 17.285 15.679 17.26 15.716 17.244 15.757 C 17.244 15.766 17.235 15.775 17.235 15.784 C 17.217 15.82 17.199 15.856 17.217 16.027 C 17.217 16.072 17.217 16.153 17.181 16.234 C 17.172 16.264 17.153 16.289 17.127 16.307 C 17.118 16.316 17.1 16.325 17.091 16.343 C 17.073 16.361 17.046 16.37 17.019 16.388 L 16.992 16.388 L 16.987 16.381 C 16.974 16.37 16.974 16.361 16.974 16.351 L 16.974 16.243 C 16.974 16.179 16.965 16.115 16.947 16.054 C 16.937 16.01 16.922 15.968 16.902 15.928 L 16.83 15.828 L 16.748 15.711 C 16.706 15.654 16.658 15.601 16.604 15.555 L 16.579 15.535 L 16.561 15.522 L 16.575 15.533 L 16.559 15.523 C 16.505 15.487 16.448 15.457 16.388 15.432 C 16.369 15.421 16.347 15.415 16.325 15.414 C 16.307 15.404 16.298 15.404 16.28 15.404 L 16.267 15.399 C 16.257 15.387 16.248 15.387 16.234 15.387 C 16.234 15.377 16.234 15.369 16.244 15.36 C 16.262 15.341 16.282 15.323 16.304 15.308 L 16.316 15.297 C 16.334 15.287 16.343 15.279 16.361 15.27 C 16.388 15.26 16.424 15.252 16.451 15.243 C 16.521 15.235 16.592 15.245 16.658 15.27 C 16.811 15.333 16.848 15.333 16.893 15.333 L 16.92 15.333 L 16.964 15.327 C 16.992 15.32 17.02 15.31 17.046 15.297 C 17.086 15.281 17.123 15.256 17.154 15.225 C 17.91 14.635 18.048 14.525 18.15 14.438 L 18.191 14.404 L 18.237 14.364 L 18.277 14.325 C 18.321 14.277 18.355 14.223 18.344 14.17 C 18.335 14.107 18.254 14.07 18.227 14.052 L 18.2 14.034 C 17.939 13.899 17.334 13.593 16.532 13.196 C 16.523 13.186 16.514 13.186 16.514 13.178 C 16.504 13.178 16.514 13.168 16.514 13.16 C 16.514 13.157 16.536 13.119 16.582 13.07 L 16.592 13.061 Z M 13.368 13.466 C 13.493 13.466 13.594 13.567 13.594 13.692 C 13.594 13.827 13.494 13.926 13.368 13.926 L 13.308 13.918 C 13.208 13.891 13.14 13.799 13.143 13.696 C 13.143 13.567 13.243 13.466 13.368 13.466 Z M 15.072 12.339 C 15.197 12.339 15.298 12.44 15.298 12.565 C 15.298 12.7 15.198 12.799 15.072 12.799 L 15.012 12.791 C 14.912 12.764 14.844 12.672 14.847 12.569 C 14.847 12.44 14.947 12.339 15.072 12.339 Z M 10.952 12.339 C 11.076 12.339 11.177 12.44 11.177 12.565 C 11.182 12.693 11.08 12.799 10.952 12.799 L 10.892 12.791 C 10.792 12.764 10.724 12.672 10.727 12.569 C 10.727 12.44 10.827 12.339 10.952 12.339 Z M 16.082 9.012 C 15.749 9.355 15.469 9.652 15.235 9.905 L 15.072 10.076 L 15.054 10.094 L 14.951 10.199 C 14.886 10.268 14.826 10.332 14.766 10.392 L 14.64 10.518 L 14.543 10.608 C 14.465 10.682 14.383 10.751 14.297 10.816 L 17.858 10.816 L 17.84 10.802 L 17.822 10.789 C 17.786 10.743 17.742 10.716 17.705 10.68 C 17.66 10.644 17.624 10.608 17.579 10.572 L 17.299 10.32 L 17.002 10.021 C 16.896 9.914 16.793 9.803 16.695 9.689 C 16.587 9.571 16.488 9.454 16.389 9.346 C 16.289 9.229 16.181 9.12 16.082 9.012 Z M 13.594 5.712 L 9.12 10.725 L 9.139 10.766 L 9.157 10.806 L 13.611 10.806 L 13.584 10.775 L 13.557 10.743 C 13.539 10.725 13.53 10.698 13.52 10.68 C 13.502 10.635 13.484 10.59 13.484 10.545 C 13.484 10.518 13.494 10.482 13.502 10.437 C 13.502 10.427 13.512 10.419 13.512 10.41 C 13.52 10.392 13.53 10.365 13.548 10.338 C 13.575 10.284 13.611 10.22 13.656 10.158 C 13.665 10.148 13.665 10.139 13.674 10.139 C 13.944 9.759 14.236 9.395 14.548 9.049 C 14.605 8.98 14.666 8.914 14.728 8.85 C 14.792 8.787 14.846 8.715 14.909 8.652 C 15.044 8.498 15.179 8.345 15.297 8.201 C 15.306 8.191 15.315 8.183 15.315 8.174 C 14.986 7.793 14.664 7.405 14.35 7.011 C 14.26 6.893 14.179 6.776 14.098 6.668 C 13.964 6.479 13.841 6.284 13.728 6.082 L 13.674 5.974 L 13.651 5.921 L 13.629 5.875 C 13.611 5.811 13.593 5.757 13.593 5.712 L 13.594 5.712 Z M 18.534 5.658 L 18.534 5.676 L 18.537 5.715 C 18.53 5.773 18.518 5.829 18.499 5.884 C 18.478 5.948 18.448 6.009 18.409 6.064 C 18.348 6.176 18.282 6.284 18.21 6.389 C 18.165 6.452 18.12 6.524 18.075 6.596 C 17.957 6.768 17.834 6.937 17.705 7.101 C 17.642 7.173 17.588 7.254 17.525 7.335 C 17.515 7.345 17.507 7.362 17.498 7.371 C 17.381 7.516 17.254 7.669 17.119 7.822 C 17.019 7.939 16.929 8.048 16.821 8.165 C 16.957 8.318 17.11 8.48 17.263 8.661 C 17.317 8.715 17.371 8.778 17.417 8.841 C 17.525 8.958 17.624 9.075 17.723 9.193 L 18.012 9.535 C 18.192 9.761 18.345 9.959 18.472 10.139 C 18.58 10.302 18.634 10.419 18.652 10.509 L 18.652 10.545 L 18.644 10.613 C 18.623 10.687 18.582 10.754 18.526 10.807 L 22.836 10.807 L 22.883 10.704 L 22.943 10.608 L 18.535 5.658 L 18.534 5.658 Z M 19.301 5.541 C 20.699 7.11 22.096 8.688 23.503 10.257 C 23.521 10.257 23.548 10.247 23.566 10.247 L 23.756 10.247 L 23.796 10.255 C 23.842 10.263 23.906 10.275 23.981 10.302 C 23.99 10.302 23.999 10.311 24.008 10.32 L 24.044 10.338 L 24.145 10.398 L 24.233 10.464 C 24.242 10.464 24.242 10.473 24.251 10.473 C 24.278 10.491 24.296 10.518 24.314 10.536 C 24.612 10.365 24.909 10.202 25.198 10.031 C 24.25 8.58 22.974 7.373 21.474 6.506 L 21.28 6.39 L 21.086 6.28 C 21.068 6.271 21.059 6.262 21.041 6.262 C 20.92 6.197 20.797 6.137 20.671 6.082 C 20.647 6.076 20.626 6.063 20.608 6.046 C 20.491 5.992 20.374 5.938 20.248 5.884 C 20.221 5.874 20.203 5.866 20.176 5.857 C 20.046 5.8 19.913 5.749 19.779 5.703 L 19.725 5.685 L 19.516 5.61 L 19.301 5.541 Z M 12.944 5.46 L 12.593 5.568 L 12.387 5.64 C 11.613 5.916 10.634 6.355 9.617 7.083 C 8.648 7.787 7.797 8.638 7.093 9.607 C 7.021 9.716 6.94 9.815 6.867 9.923 C 7.174 10.094 7.481 10.275 7.787 10.446 C 7.832 10.41 7.887 10.356 7.977 10.32 C 8.082 10.272 8.195 10.244 8.31 10.239 C 8.463 10.229 8.58 10.275 8.644 10.293 C 10.077 8.679 11.511 7.073 12.944 5.46 Z M 15.992 5.027 L 15.74 5.027 L 15.623 5.032 L 15.514 5.036 L 15.487 5.036 L 15.369 5.042 L 15.244 5.054 L 14.832 5.09 C 14.559 5.12 14.291 5.16 14.026 5.207 C 13.99 5.243 13.963 5.28 13.927 5.325 C 13.945 5.325 13.954 5.315 13.972 5.315 L 14.008 5.315 L 14.048 5.322 C 14.075 5.33 14.108 5.346 14.144 5.37 L 14.189 5.398 L 14.288 5.474 L 14.342 5.523 C 14.504 5.667 14.685 5.839 14.892 6.046 C 15.09 6.244 15.298 6.461 15.514 6.696 C 15.721 6.92 15.911 7.128 16.082 7.299 C 16.163 7.218 16.244 7.128 16.326 7.029 C 16.425 6.92 16.524 6.812 16.623 6.695 C 16.723 6.587 16.821 6.47 16.93 6.37 C 17.029 6.262 17.128 6.163 17.227 6.064 L 17.371 5.92 L 17.451 5.844 L 17.525 5.775 C 17.615 5.695 17.696 5.622 17.777 5.559 C 17.949 5.415 18.075 5.352 18.174 5.352 C 18.21 5.352 18.246 5.361 18.282 5.37 L 18.183 5.252 L 18.053 5.225 L 17.921 5.198 C 17.912 5.198 17.903 5.198 17.894 5.189 C 17.814 5.171 17.732 5.162 17.651 5.153 L 17.633 5.153 L 17.381 5.117 L 17.371 5.117 L 17.031 5.08 C 16.686 5.046 16.339 5.028 15.992 5.027 Z"/>
</svg>
