<?xml version="1.0" encoding="utf-8"?>
<svg fill="#d1d1d1" height="32" viewBox="0 0 32 32" width="32" xmlns="http://www.w3.org/2000/svg">
  <path d="M 23.917 21.11 L 16.328 23.843 C 16.137 23.919 15.924 23.919 15.733 23.843 L 8.12 21.11 C 7.761 20.977 7.523 20.633 7.525 20.25 L 7.525 21.35 C 7.519 21.734 7.758 22.08 8.12 22.21 L 15.708 24.943 C 15.907 25.019 16.118 25.019 16.304 24.943 L 23.892 22.211 C 24.251 22.078 24.489 21.734 24.487 21.351 L 24.487 20.251 C 24.513 20.634 24.28 20.986 23.917 21.111 L 23.917 21.11 Z M 23.917 19.162 L 16.328 21.895 C 16.137 21.971 15.924 21.971 15.733 21.895 L 8.12 19.162 C 7.76 19.023 7.523 18.676 7.525 18.29 L 7.525 19.403 C 7.519 19.787 7.758 20.133 8.12 20.263 L 15.708 22.995 C 15.907 23.071 16.118 23.071 16.304 22.995 L 23.892 20.263 C 24.251 20.13 24.489 19.786 24.487 19.403 L 24.487 18.303 C 24.506 18.684 24.275 19.033 23.917 19.163 L 23.917 19.162 Z M 23.917 17.202 L 16.328 19.934 C 16.137 20.01 15.924 20.01 15.733 19.934 L 8.12 17.202 C 7.761 17.069 7.523 16.725 7.525 16.342 L 7.525 17.442 C 7.519 17.826 7.758 18.172 8.12 18.302 L 15.72 21.047 C 15.92 21.123 16.13 21.123 16.316 21.047 L 23.904 18.315 C 24.264 18.182 24.502 17.838 24.5 17.455 L 24.5 16.355 C 24.508 16.733 24.273 17.074 23.917 17.202 Z M 7.5 10.662 L 7.5 15.494 C 7.494 15.878 7.733 16.224 8.095 16.354 L 15.684 19.086 C 15.875 19.162 16.088 19.162 16.279 19.086 L 23.892 16.354 C 24.251 16.221 24.489 15.877 24.487 15.494 L 24.487 10.662 C 24.493 10.278 24.254 9.932 23.892 9.802 L 16.292 7.057 C 16.101 6.981 15.887 6.981 15.696 7.057 L 8.096 9.802 C 7.734 9.932 7.495 10.277 7.5 10.662 Z"/>
</svg>
