<?xml version="1.0" encoding="utf-8"?>
<svg fill="#d1d1d1" viewBox="0 0 32 32" xmlns="http://www.w3.org/2000/svg">
  <path d="M 16.01 6 L 7.095 15.029 L 6 16.14 L 6.385 16.48 C 6.781 16.829 7.192 17.159 7.618 17.471 C 8.847 18.351 10.209 19.03 11.651 19.483 C 13.061 19.933 14.531 20.154 16.01 20.154 C 17.18 20.155 18.345 20.013 19.481 19.734 C 21.122 19.331 22.678 18.639 24.077 17.692 C 24.422 17.462 24.767 17.202 25.093 16.941 C 25.28 16.791 25.458 16.641 25.625 16.481 L 26 16.141 L 16.01 6 Z M 24.748 16.47 C 24.435 16.728 24.109 16.969 23.771 17.191 C 22.425 18.099 20.929 18.764 19.353 19.153 C 18.259 19.424 17.137 19.562 16.01 19.563 C 13.116 19.573 10.293 18.669 7.943 16.981 C 7.627 16.761 7.322 16.511 7.016 16.261 L 6.829 16.1 L 16 6.81 L 25.172 16.1 C 25.043 16.23 24.896 16.35 24.748 16.47 Z M 9.718 15.99 L 9.274 16.18 L 9.817 16.18 C 12.779 16.18 15.683 17.011 18.209 18.582 L 18.239 18.602 L 18.279 18.592 C 19.929 18.292 21.506 17.67 22.923 16.761 L 23.062 16.671 L 22.923 16.591 C 20.78 15.331 18.339 14.667 15.853 14.669 C 13.74 14.679 11.653 15.129 9.718 15.989 L 9.718 15.99 Z M 18.357 17.992 C 16.444 16.821 14.308 16.061 12.085 15.76 C 13.308 15.42 14.572 15.249 15.842 15.25 C 17.952 15.25 20.024 15.74 21.907 16.701 C 20.801 17.32 19.602 17.756 18.357 17.992 Z M 21.661 19.964 C 21.661 19.964 20.201 20.884 19.649 21.155 C 17.818 22.204 15.769 22.817 13.663 22.947 L 13.032 22.987 L 16.01 26 L 20.24 21.716 C 20.741 21.155 21.215 20.57 21.66 19.964 L 21.661 19.964 Z M 14.314 23.468 C 15.943 23.301 17.531 22.853 19.008 22.146 L 16.01 25.19 L 14.314 23.468 Z" fill-rule="evenodd"/>
</svg>
