<?xml version="1.0" encoding="utf-8"?>
<svg fill="#d1d1d1" width="32" height="32" viewBox="0 0 32 32" xmlns="http://www.w3.org/2000/svg">
  <path d="M 18.5 21.312 L 13.5 21.312 L 16 26.25 L 18.5 21.312 Z M 16.64 6.25 L 15.36 6.25 C 15.035 6.25 14.943 6.44 14.796 6.698 L 7.576 22.242 C 7.37 22.684 7.604 22.793 8.027 22.793 L 10.98 22.792 C 11.305 22.792 11.382 22.545 11.53 22.241 L 16 12.748 L 20.47 22.241 C 20.618 22.545 20.695 22.791 21.02 22.791 L 23.973 22.793 C 24.396 22.793 24.63 22.684 24.424 22.243 L 17.204 6.698 C 17.056 6.44 16.964 6.25 16.639 6.25 L 16.64 6.25 Z"/>
</svg>
