<?xml version="1.0" encoding="utf-8"?>
<svg fill="#d1d1d1" viewBox="0 0 32 32" xmlns="http://www.w3.org/2000/svg">
  <path d="M 20.167 18.702 C 22.144 17.499 22.839 14.962 21.753 12.919 L 18.53 6.857 C 17.397 4.727 14.751 3.918 12.621 5.051 L 12.497 5.117 C 10.367 6.25 9.559 8.895 10.691 11.025 L 11.647 12.823 C 11.719 12.779 11.792 12.737 11.867 12.697 L 11.991 12.631 C 14.121 11.498 16.767 12.307 17.9 14.437 L 20.167 18.702 Z M 20.167 18.702 C 20.095 18.746 20.022 18.788 19.947 18.828 L 19.823 18.893 C 17.693 20.026 15.047 19.217 13.914 17.087 L 11.647 12.823 C 9.671 14.026 8.975 16.562 10.061 18.605 L 13.283 24.665 C 14.416 26.795 17.061 27.603 19.191 26.471 L 19.315 26.405 C 21.445 25.272 22.254 22.627 21.122 20.497 L 20.167 18.702 Z" fill-rule="evenodd"/>
</svg>
