<?xml version="1.0" encoding="utf-8"?>
<svg fill="#d1d1d1" width="32" height="32" viewBox="0 0 32 32" xmlns="http://www.w3.org/2000/svg">
  <path d="M 14.395 23.582 C 14.816 25.395 15.389 26.509 16.02 26.509 C 17.015 26.509 17.866 23.733 18.206 19.816 C 21.766 21.486 24.596 22.14 25.096 21.277 C 25.595 20.416 23.619 18.287 20.401 16.029 C 23.631 13.784 25.614 11.664 25.119 10.799 C 24.799 10.242 23.505 10.313 21.669 10.877 C 21.544 10.655 21.31 10.518 21.055 10.516 C 20.621 10.522 20.288 10.905 20.343 11.336 C 19.673 11.59 18.957 11.894 18.208 12.241 C 17.868 8.315 17.017 5.531 16.02 5.531 C 15.024 5.531 14.174 8.307 13.834 12.223 C 10.274 10.554 7.443 9.9 6.944 10.763 C 6.632 11.303 7.288 12.339 8.613 13.591 C 8.598 13.651 8.591 13.712 8.591 13.774 C 8.591 14.183 8.911 14.514 9.306 14.514 C 9.404 14.514 9.501 14.494 9.59 14.454 C 10.252 15.001 10.935 15.52 11.639 16.011 C 8.409 18.256 6.426 20.376 6.922 21.241 C 7.418 22.105 10.257 21.458 13.832 19.799 C 13.908 20.678 14.01 21.5 14.132 22.247 C 13.937 22.388 13.821 22.616 13.823 22.857 C 13.823 23.214 14.069 23.513 14.395 23.582 Z M 14.859 23.519 C 15.105 23.389 15.257 23.134 15.255 22.856 C 15.261 22.47 14.966 22.147 14.581 22.117 C 14.457 21.317 14.369 20.446 14.308 19.574 C 14.883 19.297 15.451 19.008 16.013 18.706 C 16.605 19.026 17.186 19.325 17.751 19.599 C 17.659 20.574 17.533 21.545 17.374 22.511 C 16.877 25.325 16.182 25.917 16.182 25.917 C 16.034 26.115 15.885 25.967 15.885 25.967 C 15.289 25.275 14.991 23.992 14.991 23.992 C 14.943 23.836 14.899 23.678 14.859 23.519 Z M 9.942 14.114 C 9.995 14.008 10.022 13.892 10.022 13.774 C 10.022 13.364 9.702 13.034 9.306 13.034 C 9.152 13.034 9.002 13.085 8.88 13.179 C 7.494 11.849 7.375 11.198 7.375 11.198 L 7.375 11.196 C 7.278 10.968 7.481 10.913 7.481 10.913 C 8.378 10.743 9.638 11.13 9.638 11.13 C 10.823 11.4 12.328 12.034 13.792 12.748 C 13.745 13.389 13.712 14.03 13.694 14.672 C 13.123 15.022 12.575 15.374 12.057 15.725 C 11.336 15.209 10.631 14.672 9.942 14.115 L 9.942 14.114 Z M 20.56 11.79 C 20.691 11.922 20.87 11.997 21.056 11.997 C 21.412 11.997 21.707 11.727 21.762 11.375 C 23.592 10.801 24.334 10.868 24.594 10.939 C 24.681 10.963 24.739 11.047 24.729 11.137 C 24.679 11.674 23.729 12.644 23.729 12.644 C 22.576 13.782 21.332 14.823 20.009 15.757 C 19.463 15.384 18.909 15.024 18.346 14.677 C 18.328 14.031 18.296 13.386 18.249 12.742 C 19.009 12.401 19.779 12.084 20.559 11.79 L 20.56 11.79 Z M 19.986 16.314 C 23.967 19.202 24.611 20.505 24.712 20.892 C 24.735 20.979 24.691 21.07 24.609 21.107 C 24.119 21.332 22.804 20.997 22.804 20.997 C 21.242 20.569 19.717 20.013 18.246 19.336 C 18.293 18.705 18.326 18.046 18.346 17.369 C 18.919 17.019 19.466 16.665 19.986 16.314 Z M 13.683 16.832 C 13.281 16.573 12.884 16.306 12.492 16.032 C 12.892 15.769 13.292 15.514 13.682 15.272 C 13.674 15.792 13.674 16.312 13.683 16.832 Z M 13.695 17.362 C 13.715 18.029 13.747 18.676 13.793 19.298 C 12.896 19.705 11.986 20.081 11.063 20.425 C 8.376 21.393 7.516 21.085 7.516 21.085 C 7.27 21.055 7.326 20.851 7.326 20.851 C 7.628 19.991 8.592 19.093 8.592 19.093 C 9.419 18.203 10.722 17.218 12.072 16.31 C 12.586 16.66 13.129 17.013 13.695 17.363 L 13.695 17.362 Z M 18.359 15.242 C 18.872 15.547 19.177 15.738 19.177 15.738 C 19.323 15.841 19.466 15.941 19.604 16.04 C 19.127 16.368 18.704 16.642 18.358 16.856 C 18.367 16.318 18.368 15.779 18.359 15.241 L 18.359 15.242 Z M 17.796 19.126 C 17.275 18.879 16.826 18.649 16.47 18.459 C 16.95 18.195 17.425 17.922 17.896 17.641 C 17.872 18.153 17.836 18.653 17.796 19.126 Z M 14.211 17.676 C 14.654 17.942 15.101 18.201 15.552 18.452 C 15.118 18.675 14.688 18.884 14.276 19.076 C 14.248 18.61 14.227 18.143 14.211 17.676 Z M 14.195 17.156 C 14.176 16.428 14.169 15.7 14.172 14.972 C 14.777 14.604 15.388 14.246 16.004 13.896 C 16.736 14.296 17.396 14.674 17.922 14.982 C 17.926 15.316 17.922 15.502 17.922 15.502 C 17.936 16.043 17.934 16.584 17.916 17.124 C 17.599 17.314 17.416 17.412 17.416 17.412 C 16.957 17.692 16.49 17.959 16.015 18.211 C 15.692 18.031 15.515 17.921 15.515 17.921 C 15.068 17.679 14.627 17.423 14.195 17.155 L 14.195 17.156 Z M 16.522 13.605 C 17.042 13.315 17.361 13.147 17.361 13.147 C 17.517 13.074 17.671 13.003 17.821 12.935 C 17.868 13.506 17.894 14.006 17.908 14.409 C 17.451 14.133 16.988 13.865 16.522 13.605 Z M 14.238 12.969 C 14.668 13.185 15.092 13.405 15.498 13.622 C 15.054 13.868 14.614 14.121 14.178 14.381 C 14.185 13.787 14.198 13.428 14.198 13.428 L 14.238 12.968 L 14.238 12.969 Z M 14.29 12.44 C 14.793 7.548 15.598 6.337 15.882 6.055 C 15.946 5.991 16.047 5.983 16.12 6.036 C 16.56 6.349 16.93 7.653 16.93 7.653 C 17.397 9.389 17.646 11.08 17.778 12.445 C 17.188 12.728 16.605 13.024 16.028 13.333 C 15.455 13.022 14.876 12.725 14.29 12.44 Z M 15.996 17.229 C 16.946 17.229 17.54 16.201 17.065 15.378 C 16.844 14.996 16.437 14.761 15.996 14.761 C 15.046 14.761 14.452 15.789 14.927 16.612 C 15.148 16.994 15.555 17.229 15.996 17.229 Z"/>
</svg>
