<?xml version="1.0" encoding="utf-8"?>
<svg fill="#d1d1d1" width="32" height="32" viewBox="0 0 32 32" xmlns="http://www.w3.org/2000/svg">
  <path d="M 10.854 13.264 L 14.464 15.184 L 16.384 14.224 L 11.795 11.738 L 11.795 7.36 L 20.618 11.94 L 22.538 10.98 L 11.238 5.056 C 10.675 4.76 9.999 5.169 10 5.805 L 10 11.872 C 10.003 12.459 10.332 12.996 10.854 13.264 Z M 24.611 12.246 C 24.355 11.998 23.971 11.936 23.651 12.093 L 10.854 18.736 C 10.329 19.006 9.999 19.547 10 20.138 L 10 26.195 C 9.999 26.831 10.675 27.24 11.238 26.944 L 24.006 20.32 C 24.539 20.044 24.87 19.49 24.861 18.89 L 24.861 12.842 C 24.861 12.618 24.771 12.403 24.611 12.246 Z M 23.075 18.784 L 11.795 24.64 L 11.795 20.262 L 23.075 14.406 L 23.075 18.784 Z"/>
</svg>
