<?xml version="1.0" encoding="utf-8"?>
<svg fill="#d1d1d1" width="32" height="32" viewBox="0 0 32 32" xmlns="http://www.w3.org/2000/svg">
  <path d="M 23.564 6.786 C 23.238 7.503 22.921 8.224 22.597 8.942 C 22.501 9.144 22.455 9.337 22.259 9.47 C 21.577 9.94 20.857 10.352 20.106 10.702 C 19.936 10.785 19.768 10.872 19.606 10.972 C 19.721 10.972 19.84 10.972 19.953 10.958 C 20.639 10.842 21.292 10.628 21.947 10.401 C 21.722 10.87 21.526 11.353 21.292 11.818 C 17.744 11.808 14.196 11.82 10.648 11.813 C 10.529 11.577 10.434 11.33 10.362 11.075 C 11.129 11.039 11.875 11.027 12.622 10.824 L 12.58 10.724 C 12.413 10.709 12.247 10.685 12.083 10.654 C 11.693 10.584 11.279 10.492 10.926 10.311 C 10.616 10.16 10.376 9.958 10.032 9.879 C 9.9 9.83 9.763 9.846 9.708 9.694 C 9.285 8.725 8.836 7.765 8.431 6.789 C 7.875 7.249 7.351 7.748 6.884 8.298 C 7.124 8.878 7.4 9.446 7.66 10.02 C 7.046 10.053 6.493 9.797 6.04 9.402 C 4.982 10.961 4.313 12.75 4.09 14.621 C 4.28 14.329 4.507 14.059 4.74 13.801 C 5.033 13.497 5.338 13.173 5.68 12.926 L 5.698 12.914 C 6.494 12.288 7.428 11.911 8.428 11.749 C 8.615 12.134 10.235 15.738 10.304 15.915 C 8.203 15.924 6.102 15.915 4 15.919 L 4 16.529 C 6.197 16.539 8.394 16.528 10.59 16.533 C 10.678 16.713 15.493 27.335 15.791 27.998 C 15.897 28 16.003 28 16.109 28 C 16.379 27.422 21.243 16.748 21.36 16.535 C 23.57 16.529 25.781 16.535 27.99 16.531 C 27.998 16.328 28.002 16.124 28 15.919 C 25.874 15.915 23.75 15.924 21.624 15.914 C 21.691 15.766 24.659 9.282 24.659 9.282 C 25.132 9.24 25.564 9.281 26.005 9.463 C 25.334 8.453 24.505 7.553 23.564 6.786 Z M 15.977 16.532 L 19.185 16.534 C 19.105 16.736 16.219 23.237 15.994 23.845 C 15.769 23.339 12.864 16.757 12.769 16.533 C 14.909 16.531 17.047 16.531 19.185 16.534 L 15.977 16.532 Z M 20.487 13.692 L 19.457 15.946 L 12.439 15.946 L 11.501 13.692 L 20.488 13.692 L 20.487 13.692 Z M 27.13 11.588 C 26.345 11.678 25.579 11.983 24.913 12.402 C 24.686 12.546 24.48 12.712 24.318 12.928 L 24.358 13.09 C 24.833 13.136 25.318 13.083 25.795 13.091 C 26.421 13.083 27.045 13.127 27.662 13.23 C 27.525 12.67 27.347 12.122 27.13 11.588 Z M 11.534 5 L 11.432 5.01 C 10.354 5.46 9.344 6.059 8.432 6.789 C 8.806 6.776 9.186 6.869 9.562 6.899 C 10.764 7.058 11.929 6.941 13.128 6.86 C 14.249 6.774 15.333 6.769 16.446 6.592 C 16.437 6.339 16.217 6.324 16.028 6.234 C 14.692 5.758 13.266 5.521 11.914 5.088 C 11.749 5.041 11.608 4.975 11.432 5.01 L 11.534 5 Z"/>
</svg>
