<?xml version="1.0" encoding="utf-8"?>
<svg fill="#d1d1d1" width="32" height="32" viewBox="0 0 32 32" xmlns="http://www.w3.org/2000/svg">
  <path d="M 16.313 6.833 C 16.094 6.721 15.834 6.721 15.615 6.833 C 15.412 6.937 15.251 7.217 14.933 7.777 L 7.46 20.97 C 7.146 21.522 6.99 21.799 7 22.025 C 7.014 22.27 7.144 22.494 7.35 22.627 C 7.54 22.75 7.855 22.75 8.49 22.75 L 11.518 22.75 C 12.23 22.75 12.586 22.75 12.904 22.662 C 13.253 22.558 13.571 22.374 13.835 22.121 C 14.078 21.889 14.253 21.581 14.599 20.976 L 14.609 20.958 L 18.535 14.008 C 18.883 13.398 19.055 13.092 19.132 12.769 C 19.217 12.419 19.217 12.053 19.132 11.703 C 19.056 11.383 18.882 11.078 18.539 10.477 L 18.531 10.463 L 16.995 7.777 C 16.677 7.217 16.515 6.937 16.313 6.833 Z M 20.977 16.315 C 20.777 16.419 20.617 16.692 20.299 17.24 L 18.134 20.962 L 18.127 20.975 C 17.81 21.523 17.651 21.796 17.663 22.021 C 17.676 22.267 17.806 22.492 18.011 22.627 C 18.161 22.725 18.398 22.745 18.813 22.749 L 23.497 22.75 C 24.137 22.75 24.459 22.75 24.651 22.624 C 24.858 22.489 24.987 22.263 24.999 22.017 C 25.01 21.798 24.857 21.533 24.556 21.012 L 24.524 20.958 L 22.352 17.236 L 22.327 17.194 C 22.022 16.677 21.867 16.416 21.67 16.315 C 21.452 16.204 21.195 16.204 20.977 16.315 Z"/>
</svg>
