<?xml version="1.0" encoding="utf-8"?>
<svg fill="#d1d1d1" width="32" height="32" viewBox="0 0 32 32" xmlns="http://www.w3.org/2000/svg">
  <path d="M 16 4 C 9.373 4 4 9.373 4 16 C 4 22.627 9.373 28 16 28 C 22.627 28 28 22.627 28 16 C 28 9.373 22.627 4 16 4 Z M 16 27.77 C 9.5 27.77 4.23 22.5 4.23 16 C 4.23 9.5 9.5 4.23 16 4.23 C 22.5 4.23 27.77 9.5 27.77 16 C 27.77 22.5 22.5 27.77 16 27.77 Z M 19.29 13.5 L 19.26 13.39 L 19.23 13.28 L 19.2 13.16 L 19.16 13.06 L 19.13 12.95 L 19.09 12.85 L 19.04 12.74 L 19 12.64 L 18.95 12.55 L 18.9 12.45 L 18.85 12.36 L 18.79 12.27 L 18.74 12.19 L 18.68 12.1 L 18.62 12.03 L 18.55 11.95 L 18.49 11.88 L 18.43 11.81 L 18.36 11.75 L 18.29 11.69 L 18.22 11.63 L 18.15 11.58 L 18.07 11.53 L 18 11.49 L 17.92 11.44 L 17.85 11.41 L 17.77 11.37 L 17.69 11.34 L 17.61 11.31 L 17.52 11.29 L 17.44 11.27 L 17.36 11.25 L 17.27 11.24 L 17.18 11.23 L 17.1 11.22 L 16.83 11.22 L 16.74 11.23 L 16.65 11.24 L 16.55 11.25 L 16.46 11.27 L 16.37 11.29 L 16.28 11.31 L 16.18 11.34 L 16.09 11.37 L 15.99 11.4 L 15.89 11.44 L 15.8 11.48 L 15.7 11.53 L 15.61 11.57 L 15.51 11.62 L 15.41 11.68 L 15.32 11.73 L 15.22 11.79 L 15.12 11.86 L 15.03 11.92 L 14.93 11.99 L 14.83 12.07 L 14.73 12.14 L 14.64 12.22 L 14.54 12.3 L 14.45 12.39 L 14.35 12.48 L 14.25 12.57 L 14.16 12.67 L 14.06 12.77 L 13.97 12.87 L 13.88 12.97 L 13.78 13.08 L 13.69 13.19 L 13.6 13.3 L 13.51 13.42 L 13.42 13.54 L 13.33 13.67 L 13.21 13.84 L 13.09 14.02 L 12.97 14.21 L 12.86 14.39 L 12.75 14.59 L 12.64 14.78 L 12.54 14.97 L 12.44 15.17 L 12.35 15.37 L 12.26 15.57 L 12.18 15.77 L 12.11 15.93 L 19.3 13.58 L 19.29 13.5 Z M 12.8 17.01 L 19.17 16.96 L 19.2 16.82 L 19.23 16.68 L 19.26 16.54 L 19.29 16.39 L 19.31 16.25 L 19.34 16.11 L 19.36 15.97 L 19.37 15.83 L 19.39 15.69 L 19.4 15.55 L 19.41 15.42 L 19.42 15.28 L 19.43 15.14 L 19.43 14.85 L 12.8 17.01 Z M 16 4.56 C 9.682 4.56 4.56 9.682 4.56 16 C 4.56 22.318 9.682 27.44 16 27.44 C 22.318 27.44 27.44 22.318 27.44 16 C 27.44 9.682 22.318 4.56 16 4.56 Z M 22.48 16.92 L 22.28 18.1 L 20.49 18.1 L 20.43 18.3 L 20.32 18.6 L 20.21 18.9 L 20.09 19.2 L 20 19.5 L 19.87 19.79 L 19.73 20.08 L 19.59 20.37 L 19.44 20.65 L 19.29 20.93 L 19.13 21.2 L 18.97 21.47 L 18.8 21.74 L 18.6 22 L 18.51 22.13 L 18.42 22.26 L 17.49 20.7 L 17.58 20.57 L 17.67 20.44 L 17.75 20.31 L 17.83 20.18 L 17.91 20.05 L 17.99 19.92 L 18.07 19.79 L 18.14 19.66 L 18.21 19.52 L 18.28 19.38 L 18.35 19.24 L 18.42 19.1 L 18.48 18.96 L 18.54 18.82 L 18.6 18.68 L 18.66 18.54 L 18.72 18.4 L 18.77 18.26 L 18.77 18.14 L 11.5 18.2 L 11.5 20.05 L 9.64 21.34 L 9.64 18.2 L 9.1 18.2 L 8.9 18.27 L 8.56 17.08 L 10.24 16.53 L 10.24 16.4 L 10.31 16.19 L 10.41 16 L 10.48 15.8 L 10.56 15.6 L 10.64 15.4 L 10.72 15.2 L 10.8 15 L 10.89 14.8 L 10.98 14.6 L 11.07 14.4 L 11.16 14.21 L 11.26 14.02 L 11.36 13.83 L 11.46 13.64 L 11.56 13.45 L 11.67 13.26 L 11.78 13.08 L 11.89 12.9 L 12 12.71 L 12.11 12.53 L 12.23 12.36 L 12.35 12.19 L 12.46 12 L 12.58 11.83 L 12.7 11.67 L 12.83 11.51 L 13 11.37 L 13.13 11.22 L 13.26 11.07 L 13.39 10.92 L 13.53 10.78 L 13.67 10.64 L 13.81 10.5 L 13.95 10.37 L 14.09 10.24 L 14.23 10.11 L 14.34 10 L 14.49 9.88 L 14.64 9.77 L 14.79 9.66 L 14.94 9.55 L 15.09 9.45 L 15.24 9.36 L 15.39 9.27 L 15.54 9.19 L 15.69 9.11 L 15.82 9 L 16 8.95 L 16.14 8.89 L 16.28 8.83 L 16.42 8.78 L 18.83 8.78 L 18.94 8.83 L 19.05 8.88 L 19.16 8.94 L 19.27 9 L 19.37 9.07 L 19.47 9.14 L 19.57 9.22 L 19.67 9.3 L 19.76 9.39 L 19.85 9.48 L 19.94 9.58 L 20.03 9.68 L 20.11 9.79 L 20.19 9.9 L 20.27 10.01 L 20.35 10.13 L 20.42 10.25 L 20.49 10.38 L 20.56 10.51 L 20.62 10.65 L 20.68 10.79 L 20.74 10.93 L 20.8 11.08 L 20.85 11.23 L 20.85 13 L 21.85 12.68 L 22.19 13.87 L 20.91 14.29 L 20.91 15.92 L 20.86 16.22 L 20.8 16.52 L 20.73 16.82 L 20.73 16.95 L 22.48 16.92 Z"/>
</svg>
