<?xml version="1.0" encoding="utf-8"?>
<svg fill="#d1d1d1" width="32" height="32" viewBox="0 0 32 32" xmlns="http://www.w3.org/2000/svg">
  <path d="M 22.77 13.95 L 27.64 13.95 L 28 11.95 L 23.29 11.95 C 22.361 11.979 21.461 12.278 20.7 12.81 C 20.42 11.81 17.7 11.95 17.7 11.95 L 18.06 9.95 L 17 9.95 L 16.64 11.95 L 15.53 11.95 L 15.84 9.95 L 14.69 9.95 L 14.27 11.95 L 13.08 11.95 L 12.47 15.07 L 11.66 12.01 L 9 12.01 L 4 19.36 L 8.12 19.36 L 8.54 17.41 L 7.7 17.41 L 10.1 13.9 L 11 17.43 L 10.1 17.43 L 9.71 19.36 L 12.77 19.36 L 12.52 20.7 L 13.72 20.7 L 14 19.36 L 15 19.36 L 14.75 20.7 L 16 20.7 L 16.25 19.36 L 17.81 19.36 C 18.527 19.279 19.191 18.941 19.68 18.41 C 20.263 19 21.051 19.34 21.88 19.36 L 26.59 19.36 L 26.9 17.41 L 22.67 17.41 C 19.76 17.36 21 13.93 22.77 13.95 Z M 17.48 17.36 L 14.36 17.36 L 14.61 16.41 L 17.61 16.41 C 18.37 16.46 18.12 17.36 17.48 17.36 Z M 17.95 14.8 L 14.83 14.8 L 15.08 13.85 L 18.08 13.85 C 18.84 13.9 18.56 14.84 17.95 14.84 L 17.95 14.8 Z"/>
</svg>
