<?xml version="1.0" encoding="utf-8"?>
<svg fill="#d1d1d1" width="32" height="32" viewBox="0 0 32 32" xmlns="http://www.w3.org/2000/svg">
  <path d="M 23.173 16.503 C 21.622 17.448 19.098 18.065 16.243 18.065 C 13.317 18.065 10.738 17.559 9.2 16.572 C 7.23 17.287 6 18.302 6 19.428 C 6 21.586 10.518 23.196 16.092 23.196 C 21.667 23.196 26.185 21.446 26.185 19.285 C 26.185 18.197 25.031 17.21 23.173 16.503 Z M 21.092 12.361 C 19.91 12.978 18.139 13.372 16.152 13.372 C 14.165 13.372 12.394 12.978 11.212 12.362 C 9.556 12.902 8.5 13.714 8.5 14.62 C 8.5 16.255 11.926 17.58 16.152 17.58 C 20.38 17.58 23.807 16.255 23.804 14.62 C 23.804 13.714 22.751 12.905 21.092 12.361 Z M 16.124 8 C 12.857 8 10.208 9.095 10.208 10.44 C 10.208 11.786 12.858 12.88 16.124 12.88 C 19.39 12.88 22.04 11.786 22.04 10.44 C 22.04 9.095 19.39 8 16.124 8 Z"/>
</svg>
