<?xml version="1.0" encoding="utf-8"?>
<svg fill="#d1d1d1" viewBox="0 0 32 32" xmlns="http://www.w3.org/2000/svg">
  <path d="M 22.784 15.974 C 22.842 15.909 22.907 15.844 22.972 15.778 C 23.182 15.552 23.412 15.311 23.629 15.078 C 24.498 14.172 24.985 12.965 24.986 11.709 C 24.986 11.622 25 11.264 25 11.213 C 24.899 8.341 22.481 6 19.623 6 L 10.623 6 L 10.623 9.631 L 7 9.631 L 7 26 L 19.767 26 C 22.604 26 25 23.477 25 20.488 C 25.007 18.351 23.686 16.842 22.784 15.974 Z M 19.767 24.17 L 8.804 24.17 L 8.804 11.447 L 10.624 11.447 L 10.624 22.362 L 19.544 22.362 C 20.28 22.362 20.937 21.917 21.218 21.232 C 21.501 20.55 21.347 19.766 20.828 19.241 L 17.646 16.018 L 20.879 12.744 C 21.399 12.219 21.55 11.439 21.269 10.754 C 20.993 10.071 20.33 9.624 19.594 9.624 L 12.434 9.624 L 12.434 7.816 L 19.63 7.816 C 21.536 7.816 23.138 9.369 23.203 11.257 C 23.203 11.337 23.188 11.651 23.188 11.658 L 23.188 11.694 C 23.188 12.486 22.88 13.247 22.33 13.816 C 22.106 14.05 21.875 14.297 21.666 14.516 C 21.312 14.888 21.009 15.209 20.864 15.355 L 20.214 15.996 L 20.857 16.646 C 20.944 16.733 21.052 16.835 21.182 16.959 C 21.932 17.659 23.196 18.825 23.196 20.473 C 23.203 22.442 21.601 24.17 19.767 24.17 Z M 12.427 11.454 L 19.594 11.461 L 15.091 16.026 L 19.544 20.546 L 12.427 20.546 L 12.427 11.454 Z" fill-rule="evenodd"/>
</svg>
