<?xml version="1.0" encoding="utf-8"?>
<svg fill="#d1d1d1" height="32" viewBox="0 0 32 32" width="32" xmlns="http://www.w3.org/2000/svg">
  <path d="M 12.483 7.793 C 6.176 10.169 4.807 18.482 10.019 22.756 C 14.248 26.224 20.587 25.008 23.233 20.22 L 15.571 15.985 L 18.68 7.8 C 16.685 7.042 14.481 7.04 12.484 7.793 L 12.483 7.793 Z M 13.029 9.366 C 14.646 8.756 16.431 8.758 18.047 9.372 L 15.53 15.999 L 21.734 19.429 C 19.094 24.205 12.274 24.332 9.458 19.657 C 7.173 15.864 8.886 10.928 13.029 9.366 Z M 15.965 4.98 C 17.156 5.027 18.331 5.267 19.445 5.69 L 15.53 15.999 L 25.181 21.334 C 21.074 28.764 10.465 28.962 6.083 21.691 C 1.702 14.419 6.835 5.132 15.323 4.973 C 15.537 4.969 15.751 4.972 15.965 4.98 Z M 23.494 8.792 C 23.758 8.792 24.004 8.823 24.23 8.887 C 24.896 9.07 25.346 9.484 25.58 10.128 C 25.723 10.519 25.754 10.903 25.674 11.28 C 25.602 11.654 25.429 11.99 25.155 12.29 C 25.669 12.267 26.118 12.382 26.505 12.632 C 26.888 12.874 27.171 13.245 27.352 13.743 C 27.609 14.449 27.532 15.094 27.119 15.678 C 26.711 16.252 25.982 16.731 24.931 17.113 L 20.767 18.629 L 17.836 10.576 L 21.77 9.144 C 22.414 8.91 22.989 8.792 23.494 8.792 Z M 22.884 10.458 C 22.644 10.458 22.367 10.516 22.051 10.631 L 20.199 11.305 L 20.889 13.204 L 22.742 12.529 C 23.202 12.362 23.522 12.155 23.7 11.907 C 23.88 11.659 23.912 11.378 23.797 11.064 C 23.683 10.75 23.479 10.559 23.185 10.492 C 23.086 10.468 22.985 10.457 22.884 10.458 Z M 24.446 13.58 C 24.194 13.583 23.898 13.646 23.558 13.77 L 21.384 14.561 L 22.108 16.551 L 24.282 15.76 C 24.772 15.581 25.112 15.367 25.298 15.116 C 25.493 14.863 25.528 14.568 25.406 14.23 C 25.246 13.793 24.926 13.576 24.446 13.58 Z"/>
</svg>
