<?xml version="1.0" encoding="utf-8"?>
<svg fill="#d1d1d1" viewBox="0 0 32 32" xmlns="http://www.w3.org/2000/svg">
  <path d="M 7.351 19.32 C 7.358 21.902 8.941 24.251 11.357 25.108 C 13.787 25.972 15.989 25.514 17.887 23.744 C 18.074 23.569 18.175 23.572 18.338 23.748 C 18.617 24.048 18.908 24.339 19.205 24.622 C 19.367 24.775 19.423 24.913 19.37 25.155 C 19.188 25.998 19.612 26.819 20.38 27.203 C 21.083 27.554 21.988 27.383 22.542 26.795 C 23.108 26.196 23.214 25.296 22.803 24.582 C 22.387 23.869 21.549 23.517 20.749 23.72 C 20.541 23.772 20.41 23.734 20.27 23.589 C 19.92 23.223 19.561 22.864 19.195 22.514 C 19.042 22.368 19.021 22.254 19.116 22.054 C 20.372 19.416 19.772 16.52 17.568 14.598 C 17.365 14.422 17.388 14.328 17.551 14.15 C 18.898 12.684 20.239 11.212 21.575 9.736 C 21.735 9.558 21.88 9.498 22.129 9.55 C 23.357 9.805 24.567 8.868 24.645 7.624 C 24.703 6.694 24.235 5.902 23.383 5.489 C 22.659 5.139 21.657 5.299 21.051 5.864 C 20.387 6.484 20.181 7.421 20.533 8.288 C 20.601 8.456 20.644 8.568 20.495 8.729 C 19.052 10.303 17.612 11.881 16.177 13.462 C 16.074 13.576 15.991 13.616 15.837 13.55 C 15.427 13.373 14.994 13.254 14.551 13.196 C 14.318 13.166 14.289 13.061 14.291 12.865 C 14.301 12.188 14.309 11.512 14.288 10.835 C 14.28 10.565 14.355 10.411 14.595 10.259 C 15.273 9.829 15.565 8.997 15.355 8.232 C 15.147 7.472 14.443 6.899 13.672 6.862 C 12.812 6.822 12.065 7.332 11.784 8.153 C 11.517 8.93 11.815 9.793 12.544 10.269 C 12.753 10.405 12.83 10.549 12.825 10.793 C 12.809 11.47 12.809 12.146 12.825 12.823 C 12.832 13.076 12.758 13.163 12.498 13.211 C 9.464 13.78 7.343 16.308 7.351 19.321 L 7.351 19.32 Z"/>
</svg>
