<?xml version="1.0" encoding="utf-8"?>
<svg fill="#d1d1d1" height="32" viewBox="0 0 32 32" width="32" xmlns="http://www.w3.org/2000/svg">
  <path d="M 22.585 9.694 L 22.652 9.725 L 25.582 13.631 L 25.562 13.653 L 25.503 13.533 L 20.982 15.817 L 19.608 11.267 L 22.662 9.865 L 22.585 9.694 Z M 22.42 9.617 L 19.445 10.983 L 12.595 10.983 L 9.513 9.687 L 12.475 8.327 L 19.645 8.327 L 22.42 9.617 Z M 9.266 9.937 L 12.386 11.25 L 11.006 15.817 L 6.493 13.538 L 9.266 9.937 Z M 12.706 11.31 L 19.282 11.31 L 20.708 16.03 L 15.994 24.362 L 11.281 16.03 L 12.706 11.31 Z M 25.218 14.043 L 16.794 23.607 L 20.999 16.174 L 25.218 14.043 Z M 15.171 23.567 L 6.793 14.055 L 10.989 16.175 L 15.171 23.567 Z M 6.431 13.643 L 6.421 13.633 L 6.464 13.576 L 6.431 13.643 Z M 9.222 9.462 L 6 13.646 L 16 25 L 26 13.648 L 22.861 9.462 L 19.717 8 L 12.405 8 L 9.222 9.462 Z M 18.423 14.834 C 18.344 14.004 17.637 13.726 16.743 13.646 L 16.743 12.495 L 16.051 12.495 L 16.051 13.616 C 15.869 13.616 15.683 13.62 15.498 13.624 L 15.498 12.495 L 14.807 12.495 L 14.807 13.646 C 14.657 13.649 14.51 13.652 14.367 13.652 L 14.366 13.649 L 13.411 13.649 L 13.411 14.397 C 13.411 14.397 13.923 14.387 13.914 14.397 C 14.194 14.397 14.286 14.561 14.312 14.704 L 14.312 16.015 C 14.332 16.015 14.357 16.016 14.386 16.02 L 14.312 16.02 L 14.312 17.858 C 14.3 17.948 14.248 18.09 14.052 18.09 C 14.062 18.098 13.549 18.09 13.549 18.09 L 13.412 18.927 L 14.312 18.927 C 14.48 18.927 14.645 18.93 14.807 18.931 L 14.807 20.095 L 15.498 20.095 L 15.498 18.943 C 15.688 18.947 15.872 18.949 16.051 18.949 L 16.051 20.096 L 16.743 20.096 L 16.743 18.933 C 17.907 18.865 18.721 18.569 18.823 17.463 C 18.903 16.571 18.49 16.173 17.829 16.013 C 18.231 15.806 18.482 15.441 18.423 14.834 Z M 17.455 17.324 C 17.455 18.194 15.984 18.095 15.515 18.096 L 15.515 16.553 C 15.984 16.553 17.455 16.416 17.455 17.324 Z M 17.133 15.147 C 17.133 15.939 15.905 15.847 15.515 15.847 L 15.515 14.447 C 15.905 14.447 17.133 14.321 17.133 15.147 Z"/>
</svg>
