<?xml version="1.0" encoding="utf-8"?>
<svg fill="#d1d1d1" viewBox="0 0 32 32" xmlns="http://www.w3.org/2000/svg">
  <path d="M 21.236 10.691 C 20.459 8.719 18.514 8.541 16.248 8.981 L 15.441 6.168 L 13.729 6.659 L 14.514 9.399 C 14.064 9.527 13.607 9.668 13.152 9.809 L 12.362 7.051 L 10.65 7.541 L 11.456 10.354 C 11.087 10.468 10.726 10.579 10.37 10.681 L 10.368 10.673 L 8.006 11.349 L 8.531 13.178 C 8.531 13.178 9.788 12.791 9.774 12.821 C 10.467 12.621 10.809 12.96 10.974 13.288 L 11.894 16.493 C 11.941 16.48 12.004 16.463 12.078 16.453 L 11.897 16.505 L 13.184 20.995 C 13.216 21.222 13.187 21.607 12.703 21.747 C 12.73 21.76 11.458 22.103 11.458 22.103 L 11.704 24.246 L 13.933 23.606 C 14.347 23.488 14.757 23.378 15.159 23.266 L 15.975 26.111 L 17.685 25.621 L 16.879 22.806 C 17.337 22.684 17.794 22.558 18.25 22.426 L 19.053 25.229 L 20.765 24.738 L 19.952 21.898 C 22.783 20.907 24.59 19.604 24.065 16.828 C 23.643 14.594 22.34 13.916 20.593 13.992 C 21.441 13.202 21.807 12.133 21.236 10.691 Z M 20.585 17.461 C 21.195 19.588 17.485 20.39 16.325 20.724 L 15.245 16.954 C 16.405 16.621 19.949 15.244 20.585 17.462 L 20.585 17.461 Z M 18.263 12.371 C 18.817 14.306 15.716 14.951 14.75 15.228 L 13.77 11.809 C 14.736 11.532 17.684 10.354 18.263 12.371 Z" fill-rule="evenodd"/>
</svg>
