<?xml version="1.0" encoding="utf-8"?>
<svg fill="#d1d1d1" width="32" height="32" viewBox="0 0 32 32" xmlns="http://www.w3.org/2000/svg">
  <path d="M 11.94 7.436 C 11.266 7.475 10.888 8.23 11.259 8.794 C 11.411 9.025 11.664 9.171 11.94 9.187 C 12.614 9.148 12.992 8.393 12.621 7.829 C 12.469 7.598 12.216 7.452 11.94 7.436 Z M 15.99 5.006 C 15.316 5.038 14.929 5.788 15.294 6.356 C 15.448 6.595 15.707 6.744 15.99 6.758 C 16.664 6.726 17.051 5.976 16.686 5.408 C 16.532 5.169 16.273 5.02 15.99 5.006 Z M 15.99 14.725 C 15.316 14.764 14.938 15.519 15.309 16.083 C 15.461 16.314 15.714 16.46 15.99 16.476 C 16.664 16.437 17.042 15.682 16.671 15.118 C 16.519 14.887 16.266 14.741 15.99 14.725 Z M 20.039 12.295 C 19.364 12.296 18.943 13.027 19.281 13.611 C 19.438 13.882 19.728 14.048 20.041 14.048 C 20.716 14.047 21.137 13.316 20.799 12.732 C 20.642 12.461 20.352 12.295 20.039 12.295 Z M 24.089 9.865 C 23.414 9.865 22.992 10.596 23.33 11.181 C 23.487 11.452 23.777 11.619 24.09 11.619 C 24.765 11.595 25.161 10.85 24.803 10.278 C 24.648 10.03 24.38 9.876 24.088 9.866 L 24.089 9.865 Z M 11.939 17.155 C 11.265 17.194 10.887 17.949 11.258 18.513 C 11.41 18.744 11.663 18.89 11.939 18.906 C 12.613 18.867 12.991 18.112 12.62 17.548 C 12.468 17.317 12.215 17.171 11.939 17.155 Z M 7.89 9.865 C 7.215 9.866 6.794 10.597 7.132 11.181 C 7.289 11.452 7.579 11.618 7.892 11.618 C 8.566 11.617 8.987 10.887 8.649 10.303 C 8.492 10.032 8.203 9.866 7.89 9.866 L 7.89 9.865 Z M 7.89 19.585 C 7.216 19.586 6.795 20.316 7.133 20.9 C 7.29 21.171 7.579 21.337 7.892 21.337 C 8.567 21.336 8.988 20.605 8.65 20.021 C 8.493 19.75 8.203 19.584 7.89 19.584 L 7.89 19.585 Z M 7.89 14.725 C 7.216 14.764 6.838 15.519 7.209 16.083 C 7.361 16.314 7.614 16.46 7.89 16.476 C 8.564 16.437 8.942 15.682 8.571 15.118 C 8.419 14.887 8.166 14.741 7.89 14.725 Z M 15.99 9.865 C 15.315 9.865 14.893 10.596 15.23 11.181 C 15.387 11.452 15.677 11.619 15.99 11.619 C 16.665 11.596 17.062 10.852 16.705 10.279 C 16.55 10.031 16.282 9.876 15.99 9.866 L 15.99 9.865 Z M 20.039 7.435 C 19.364 7.436 18.943 8.167 19.281 8.751 C 19.438 9.023 19.728 9.189 20.041 9.189 C 20.716 9.165 21.112 8.42 20.754 7.848 C 20.599 7.6 20.331 7.446 20.039 7.436 L 20.039 7.435 Z M 20.039 17.155 C 19.365 17.155 18.944 17.886 19.281 18.469 C 19.438 18.74 19.727 18.907 20.04 18.907 C 20.714 18.907 21.135 18.176 20.798 17.593 C 20.641 17.322 20.352 17.155 20.039 17.155 Z M 24.089 14.725 C 23.415 14.764 23.037 15.519 23.408 16.083 C 23.56 16.314 23.813 16.46 24.089 16.476 C 24.763 16.437 25.141 15.682 24.77 15.118 C 24.618 14.887 24.365 14.741 24.089 14.725 Z M 20.039 22.014 C 19.364 22.014 18.943 22.745 19.281 23.329 C 19.437 23.6 19.727 23.767 20.04 23.767 C 20.715 23.767 21.136 23.036 20.798 22.452 C 20.642 22.181 20.352 22.014 20.039 22.014 Z M 24.089 19.584 C 23.415 19.616 23.028 20.366 23.393 20.934 C 23.547 21.173 23.806 21.322 24.089 21.336 C 24.763 21.304 25.15 20.554 24.785 19.986 C 24.631 19.747 24.372 19.598 24.089 19.584 Z M 15.989 24.444 C 15.315 24.483 14.937 25.238 15.308 25.802 C 15.46 26.033 15.713 26.179 15.989 26.195 C 16.473 26.195 16.865 25.804 16.866 25.32 C 16.865 24.836 16.474 24.445 15.99 24.444 L 15.989 24.444 Z M 15.989 19.584 C 15.314 19.585 14.893 20.316 15.231 20.9 C 15.388 21.172 15.678 21.338 15.991 21.338 C 16.666 21.338 17.088 20.607 16.75 20.022 C 16.593 19.751 16.303 19.584 15.99 19.584 L 15.989 19.584 Z M 11.939 12.295 C 11.265 12.334 10.887 13.089 11.258 13.653 C 11.41 13.884 11.663 14.03 11.939 14.046 C 12.613 14 12.984 13.243 12.608 12.682 C 12.457 12.457 12.21 12.314 11.939 12.296 L 11.939 12.295 Z M 11.939 22.014 C 11.265 22.053 10.887 22.808 11.258 23.372 C 11.41 23.603 11.663 23.749 11.939 23.765 C 12.613 23.726 12.991 22.971 12.62 22.407 C 12.468 22.176 12.215 22.03 11.939 22.014 Z"/>
</svg>
