<?xml version="1.0" encoding="utf-8"?>
<svg fill="#d1d1d1" viewBox="0 0 32 32" xmlns="http://www.w3.org/2000/svg">
  <path d="M 23.437 16.754 C 22.807 16.058 21.901 15.626 20.717 15.458 L 20.717 15.433 C 21.754 15.265 22.569 14.84 23.123 14.16 C 23.685 13.486 23.991 12.634 23.985 11.756 C 23.985 10.295 23.515 9.302 22.541 8.521 C 21.567 7.741 20.105 7.484 18.124 7.484 L 10.643 7.484 L 10.643 14.447 L 6.347 14.447 L 6.347 17.114 L 18.074 17.114 C 18.997 17.114 19.69 17.179 20.148 17.548 C 20.606 17.917 20.84 18.394 20.84 19.099 C 20.84 19.804 20.609 20.406 20.148 20.784 C 19.688 21.161 18.994 21.41 18.074 21.41 L 14.05 21.41 L 14.05 19.336 L 10.643 19.336 L 10.643 24.077 L 18.37 24.077 C 20.335 24.077 21.837 23.564 22.879 22.767 C 23.92 21.97 24.409 20.793 24.409 19.348 C 24.422 18.392 24.075 17.466 23.437 16.754 Z M 17.644 14.44 L 14.05 14.44 L 14.05 10.144 L 17.644 10.144 C 19.492 10.144 20.414 10.865 20.414 12.292 C 20.414 13.719 19.492 14.44 17.644 14.44 Z"/>
</svg>
