<?xml version="1.0" encoding="utf-8"?>
<svg fill="#d1d1d1" viewBox="0 0 32 32" xmlns="http://www.w3.org/2000/svg">
  <path d="M 14.122 20.826 C 13.952 21.128 13.864 21.469 13.864 21.816 C 13.864 22.931 14.767 23.839 15.898 23.881 L 15.898 24.251 C 15.441 24.287 15.087 24.666 15.082 25.124 C 15.082 25.608 15.484 26 15.98 26 C 16.47 26.006 16.872 25.614 16.878 25.124 C 16.874 24.696 16.565 24.333 16.143 24.261 L 16.143 23.876 C 17.235 23.795 18.096 22.904 18.096 21.816 C 18.096 21.456 18.001 21.116 17.834 20.821 L 19.368 19.958 C 19.74 20.48 20.36 20.822 21.061 20.822 C 21.769 20.822 22.394 20.474 22.765 19.943 L 23.278 20.233 C 23.229 20.343 23.204 20.462 23.204 20.582 C 23.204 21.066 23.606 21.458 24.102 21.458 C 24.598 21.458 25 21.066 25 20.582 C 25 20.098 24.598 19.705 24.102 19.705 C 23.833 19.704 23.578 19.823 23.405 20.029 L 22.891 19.739 C 23.04 19.46 23.124 19.144 23.124 18.809 C 23.124 17.704 22.211 16.806 21.082 16.796 L 21.082 15.178 C 22.197 15.168 23.097 14.282 23.097 13.191 C 23.097 12.871 23.019 12.568 22.881 12.3 L 23.381 11.982 C 23.553 12.206 23.82 12.336 24.102 12.335 C 24.598 12.335 25 11.942 25 11.458 C 25 10.974 24.598 10.582 24.102 10.582 C 23.612 10.576 23.21 10.968 23.204 11.458 C 23.204 11.568 23.225 11.674 23.264 11.772 L 22.758 12.093 C 22.374 11.534 21.739 11.201 21.061 11.204 C 20.344 11.204 19.714 11.566 19.351 12.112 L 17.821 11.251 C 17.962 10.978 18.042 10.669 18.042 10.343 C 18.042 9.271 17.184 8.395 16.102 8.333 L 16.102 7.745 C 16.542 7.691 16.874 7.319 16.878 6.876 C 16.872 6.386 16.47 5.994 15.98 6 C 15.49 5.994 15.088 6.386 15.082 6.876 C 15.082 7.32 15.419 7.686 15.857 7.745 L 15.857 8.333 C 14.775 8.395 13.917 9.271 13.917 10.343 C 13.917 10.668 13.997 10.976 14.137 11.248 L 12.604 12.098 C 12.219 11.548 11.589 11.221 10.918 11.224 C 10.231 11.224 9.623 11.557 9.255 12.066 L 8.735 11.776 C 8.775 11.675 8.795 11.567 8.795 11.458 C 8.789 10.969 8.388 10.576 7.898 10.582 C 7.402 10.582 7 10.974 7 11.458 C 7 11.942 7.402 12.335 7.898 12.335 C 8.179 12.336 8.444 12.207 8.616 11.985 L 9.126 12.269 C 8.966 12.557 8.883 12.881 8.883 13.211 C 8.883 14.281 9.75 15.155 10.837 15.197 L 10.837 16.751 C 9.721 16.793 8.829 17.689 8.829 18.789 C 8.829 19.146 8.923 19.481 9.089 19.773 L 8.608 20.045 C 8.436 19.829 8.174 19.704 7.898 19.705 C 7.402 19.705 7 20.098 7 20.582 C 7 21.066 7.402 21.458 7.898 21.458 C 8.388 21.464 8.79 21.072 8.796 20.582 C 8.796 20.469 8.774 20.357 8.73 20.252 L 9.219 19.975 C 9.598 20.492 10.218 20.828 10.919 20.828 C 11.618 20.828 12.237 20.493 12.616 19.978 L 14.122 20.826 Z M 14.252 20.623 L 12.747 19.776 C 12.913 19.483 13.007 19.146 13.007 18.789 C 13.007 17.716 12.159 16.837 11.082 16.756 L 11.082 15.192 C 12.13 15.111 12.954 14.255 12.954 13.212 C 12.955 12.895 12.877 12.582 12.729 12.302 L 14.26 11.455 C 14.63 11.998 15.262 12.355 15.98 12.355 C 16.696 12.355 17.328 11.999 17.697 11.457 L 19.231 12.32 C 19.096 12.59 19.026 12.889 19.026 13.191 C 19.026 14.215 19.818 15.057 20.836 15.166 L 20.836 16.807 C 19.803 16.917 18.999 17.771 18.999 18.809 C 18.999 19.151 19.086 19.472 19.239 19.754 L 17.704 20.619 C 17.301 20.071 16.66 19.748 15.98 19.751 C 15.298 19.748 14.655 20.072 14.252 20.623 Z M 10.918 19.857 C 10.321 19.864 9.832 19.386 9.824 18.789 C 9.824 18.199 10.314 17.721 10.918 17.721 C 11.523 17.721 12.013 18.199 12.013 18.789 C 12.013 19.379 11.523 19.857 10.918 19.857 Z M 10.918 14.252 C 10.329 14.252 9.852 13.786 9.852 13.212 C 9.852 12.638 10.329 12.17 10.918 12.17 C 11.508 12.17 11.985 12.636 11.985 13.211 C 11.985 13.786 11.507 14.252 10.918 14.252 Z M 15.98 11.397 C 15.383 11.397 14.9 10.925 14.9 10.343 C 14.9 9.76 15.383 9.288 15.98 9.288 C 16.576 9.288 17.06 9.76 17.06 10.343 C 17.06 10.925 16.576 11.397 15.98 11.397 Z M 21.061 14.232 C 20.48 14.239 20.003 13.773 19.995 13.192 C 19.995 12.616 20.472 12.15 21.061 12.15 C 21.65 12.15 22.128 12.616 22.128 13.191 C 22.128 13.766 21.65 14.232 21.061 14.232 Z M 21.061 19.863 C 20.465 19.863 19.981 19.391 19.981 18.809 C 19.981 18.226 20.465 17.754 21.061 17.754 C 21.658 17.754 22.141 18.226 22.141 18.809 C 22.141 19.391 21.658 19.863 21.061 19.863 Z M 15.98 22.9 C 15.367 22.9 14.871 22.415 14.871 21.818 C 14.871 21.221 15.367 20.736 15.98 20.736 C 16.592 20.736 17.088 21.22 17.088 21.818 C 17.088 22.416 16.592 22.9 15.98 22.9 Z M 15.98 18.92 C 17.632 18.92 18.97 17.613 18.97 16.001 C 18.97 14.389 17.632 13.081 15.98 13.081 C 14.328 13.081 12.989 14.389 12.989 16.001 C 12.989 17.613 14.328 18.921 15.979 18.921 L 15.98 18.92 Z M 15.98 17.145 C 15.332 17.145 14.807 16.633 14.807 16.001 C 14.807 15.369 15.332 14.857 15.98 14.857 C 16.627 14.857 17.152 15.369 17.152 16.001 C 17.152 16.633 16.627 17.145 15.98 17.145 Z" fill-rule="evenodd"/>
</svg>
