<?xml version="1.0" encoding="utf-8"?>
<svg fill="#d1d1d1" height="32" viewBox="0 0 32 32" width="32" xmlns="http://www.w3.org/2000/svg">
  <path d="M 16 27 C 22.075 27 27 22.075 27 16 C 27 9.925 22.075 5 16 5 C 9.925 5 5 9.925 5 16 C 5 22.075 9.925 27 16 27 Z M 16 25.898 C 10.534 25.898 6.102 21.466 6.102 16 C 6.102 10.534 10.534 6.102 16 6.102 C 21.466 6.102 25.898 10.534 25.898 16 C 25.898 21.466 21.466 25.898 16 25.898 Z M 22.043 12.12 C 22.043 12.12 22.043 8.794 16.943 8.572 L 10.845 8.572 L 10.845 23.43 L 17.608 23.43 C 17.608 23.43 22.43 23.261 22.43 18.939 C 22.43 18.939 22.596 16.279 19.492 15.835 C 19.492 15.835 22.208 15.059 22.042 12.121 L 22.043 12.12 Z M 14.337 11.233 L 16.942 11.233 C 18.605 11.343 18.605 12.507 18.605 12.507 L 18.605 13.394 C 18.495 14.78 16.776 14.835 16.776 14.835 L 14.337 14.835 L 14.337 11.233 Z M 18.937 19.383 C 18.827 20.769 17.109 20.823 17.109 20.823 L 14.336 20.823 L 14.336 17.22 L 17.275 17.22 C 18.938 17.331 18.938 18.496 18.938 18.496 L 18.937 19.383 Z"/>
</svg>
