<?xml version="1.0" encoding="utf-8"?>
<svg fill="#d1d1d1" viewBox="0 0 32 32" xmlns="http://www.w3.org/2000/svg">
  <path fill-rule="evenodd" d="M 9.328 8.617 C 9.324 11.734 9.328 14.85 9.324 17.968 C 9.968 15.889 11.612 14.143 13.674 13.431 C 15.468 12.802 17.534 12.918 19.216 13.821 C 19.216 13.646 19.216 13.472 19.218 13.297 C 17.112 12.285 14.531 12.335 12.482 13.465 C 12.502 10.749 12.479 8.033 12.493 5.317 C 11.508 6.31 10.519 7.298 9.525 8.282 C 9.445 8.382 9.309 8.47 9.328 8.617 Z M 22.718 20.279 C 22.728 16.354 22.706 12.428 22.728 8.503 C 21.648 7.418 20.568 6.331 19.478 5.257 C 19.508 5.766 19.499 6.276 19.498 6.785 C 19.496 10.84 19.512 14.895 19.506 18.949 C 19.499 19.735 19.579 20.556 19.259 21.299 C 18.756 22.609 17.399 23.529 15.993 23.494 C 14.531 23.51 13.148 22.489 12.711 21.098 C 12.221 19.688 12.778 18.009 14.007 17.163 C 15.124 16.353 16.732 16.318 17.889 17.065 C 18.474 17.431 18.916 17.983 19.214 18.6 C 19.202 17.106 19.202 15.612 19.214 14.118 C 17.389 13.113 15.094 13.038 13.209 13.926 C 11.772 14.593 10.615 15.745 9.941 17.179 C 9.348 18.453 9.155 19.919 9.44 21.298 C 9.768 23.04 10.839 24.62 12.318 25.593 C 15.002 27.374 18.574 26.992 20.821 24.683 C 21.979 23.502 22.655 21.932 22.718 20.279 Z"/>
</svg>
