<?xml version="1.0" encoding="utf-8"?>
<svg fill="#d1d1d1" width="32" height="32" viewBox="0 0 32 32" xmlns="http://www.w3.org/2000/svg">
  <path d="M 27.16 12.66 L 27.16 10.46 L 20 14.63 L 15.58 7.01 L 15.58 12.01 L 17.83 15.91 L 16.92 16.45 L 15.58 14.09 L 14.14 16.65 L 13.14 16.24 L 15.58 12.01 L 15.58 7.01 L 10.74 15.25 L 4 12.46 L 4 15.01 L 10 16.49 L 6.2 23.01 L 15.58 23.01 L 15.58 20.32 L 10.79 20.32 L 12.58 17.18 L 13.66 17.45 L 12.58 19.35 L 18.58 19.35 L 17.68 17.76 L 18.87 17.67 L 20.4 20.32 L 15.58 20.32 L 15.58 23.01 L 25 23.01 L 21.76 17.48 L 27.2 17.08 L 27.2 14.87 L 21.08 16.38 L 27.19 14.81 L 27.19 12.81 L 20.56 15.5 L 27.16 12.66 Z M 18.46 17.01 L 17.38 17.28 L 18.44 17.01 L 18.46 17.01 Z M 18.12 16.41 L 17.12 16.81 L 18.12 16.4 L 18.12 16.41 Z"/>
</svg>
