<?xml version="1.0" encoding="utf-8"?>
<svg fill="#d1d1d1" viewBox="0 0 32 32" xmlns="http://www.w3.org/2000/svg">
  <path d="M 8.297 11.568 C 7.516 12.927 7.106 14.468 7.108 16.036 C 7.108 20.986 11.113 25 16.054 25 C 20.995 25 25 20.987 25 16.036 C 25 11.086 20.995 7.072 16.054 7.072 C 14.472 7.07 12.918 7.489 11.553 8.288 C 10.685 6.643 8.362 6.554 7.371 8.128 C 7.127 8.515 6.999 8.964 7 9.422 C 6.999 10.323 7.499 11.15 8.297 11.568 Z M 16.054 20.446 C 13.624 20.446 11.654 18.472 11.654 16.036 C 11.654 13.6 13.624 11.626 16.054 11.626 C 18.484 11.626 20.454 13.601 20.454 16.036 C 20.454 18.471 18.484 20.446 16.054 20.446 Z" fill-rule="evenodd"/>
</svg>
