<?xml version="1.0" encoding="utf-8"?>
<svg fill="#d1d1d1" height="32" viewBox="0 0 32 32" width="32" xmlns="http://www.w3.org/2000/svg">
  <path d="M 16.941 24.577 L 23.179 21.034 C 23.37 21.243 23.647 21.374 23.955 21.374 C 24.532 21.374 25 20.914 25 20.346 C 25 19.859 24.656 19.451 24.195 19.345 L 24.213 12.324 C 24.665 12.211 25 11.807 25 11.327 C 25 10.759 24.532 10.299 23.955 10.299 C 23.617 10.298 23.299 10.46 23.101 10.734 L 16.993 7.265 C 17.14 6.614 16.643 5.997 15.976 6 C 15.306 5.997 14.809 6.62 14.961 7.272 L 8.889 10.72 C 8.69 10.454 8.377 10.297 8.045 10.298 C 7.473 10.295 7.006 10.755 7 11.327 C 7 11.807 7.333 12.209 7.784 12.323 L 7.784 19.35 C 7.326 19.463 7.003 19.874 7 20.346 C 7 20.914 7.468 21.374 8.045 21.374 C 8.34 21.374 8.606 21.254 8.796 21.06 L 15.007 24.587 C 14.957 24.709 14.931 24.84 14.931 24.972 C 14.931 25.54 15.399 26 15.976 26 C 16.553 26 17.021 25.54 17.021 24.972 C 17.021 24.832 16.993 24.699 16.941 24.577 Z M 16.662 24.197 C 16.471 24.033 16.228 23.943 15.976 23.944 C 15.71 23.944 15.466 24.042 15.282 24.204 L 9.04 20.659 C 9.105 20.459 9.107 20.244 9.044 20.043 L 15.021 16.016 C 15.491 16.613 16.381 16.655 16.904 16.104 L 22.97 20.004 C 22.898 20.204 22.891 20.421 22.95 20.625 L 16.662 24.197 Z M 16.781 7.684 L 22.922 11.172 C 22.844 11.714 23.202 12.223 23.738 12.332 L 23.72 19.344 C 23.53 19.387 23.36 19.481 23.226 19.61 L 17.155 15.707 C 17.207 15.573 17.235 15.427 17.235 15.276 C 17.232 14.683 16.803 14.179 16.218 14.08 L 16.234 8.025 C 16.451 7.97 16.642 7.849 16.781 7.685 L 16.781 7.684 Z M 15.176 7.689 C 15.323 7.861 15.526 7.986 15.759 8.034 L 15.743 14.087 C 15.056 14.227 14.629 14.916 14.808 15.594 L 8.803 19.638 C 8.656 19.486 8.466 19.381 8.259 19.339 L 8.259 12.334 C 8.804 12.224 9.165 11.703 9.075 11.154 L 15.176 7.689 Z" fill-rule="evenodd"/>
</svg>
