<?xml version="1.0" encoding="utf-8"?>
<svg fill="#d1d1d1" viewBox="0 0 32 32" xmlns="http://www.w3.org/2000/svg">
  <path d="M 7.9 7 C 7.403 7 7 7.403 7 7.9 L 7 14.1 C 7 14.597 7.403 15 7.9 15 L 14.1 15 C 14.597 15 15 14.597 15 14.1 L 15 7.9 C 15 7.403 14.597 7 14.1 7 L 7.9 7 Z M 17.9 7 C 17.403 7 17 7.403 17 7.9 L 17 14.1 C 17 14.597 17.403 15 17.9 15 L 24.1 15 C 24.597 15 25 14.597 25 14.1 L 25 7.9 C 25 7.403 24.597 7 24.1 7 L 17.9 7 Z M 17.9 17 C 17.403 17 17 17.403 17 17.9 L 17 24.1 C 17 24.597 17.403 25 17.9 25 L 24.1 25 C 24.597 25 25 24.597 25 24.1 L 25 17.9 C 25 17.403 24.597 17 24.1 17 L 17.9 17 Z M 7.9 17 C 7.403 17 7 17.403 7 17.9 L 7 24.1 C 7 24.597 7.403 25 7.9 25 L 14.1 25 C 14.597 25 15 24.597 15 24.1 L 15 17.9 C 15 17.403 14.597 17 14.1 17 L 7.9 17 Z" fill-rule="evenodd"/>
</svg>
