<?xml version="1.0" encoding="utf-8"?>
<svg fill="#d1d1d1" height="32" viewBox="0 0 32 32" width="32" xmlns="http://www.w3.org/2000/svg">
  <path d="M 11.633 20.336 C 10.976 19.661 9.892 19.659 9.233 20.333 C 8.913 20.657 8.733 21.098 8.733 21.558 C 8.733 22.018 8.913 22.458 9.233 22.783 C 9.897 23.457 10.971 23.456 11.633 22.78 C 12.295 22.104 12.295 21.01 11.633 20.336 Z M 22.696 8.726 C 22.061 8.459 21.327 8.608 20.846 9.102 C 20.526 9.429 20.347 9.868 20.348 10.325 C 20.348 10.784 20.527 11.224 20.846 11.548 C 21.331 12.042 22.062 12.19 22.696 11.923 C 23.33 11.656 23.744 11.024 23.744 10.325 C 23.744 9.625 23.33 8.995 22.696 8.727 L 22.696 8.726 Z M 11.41 19.003 L 13.202 20.828 L 14.842 19.156 C 14.019 18.817 13.371 18.156 13.047 17.327 L 11.41 19.003 Z M 21.107 12.866 L 19.316 11.041 L 17.675 12.713 C 18.08 12.878 18.447 13.126 18.756 13.44 C 19.064 13.752 19.306 14.126 19.466 14.538 L 21.107 12.866 Z M 20.42 20.808 C 20.157 21.454 20.301 22.194 20.788 22.693 C 21.107 23.018 21.538 23.201 21.989 23.201 C 22.439 23.201 22.871 23.018 23.189 22.693 C 23.676 22.194 23.821 21.454 23.558 20.808 C 23.301 20.166 22.68 19.744 21.989 19.741 C 21.302 19.741 20.683 20.162 20.42 20.808 Z M 9.035 9.51 C 8.772 10.156 8.916 10.896 9.403 11.395 C 9.722 11.719 10.153 11.902 10.604 11.902 C 11.054 11.902 11.486 11.719 11.804 11.395 C 12.29 10.896 12.435 10.156 12.173 9.51 C 11.916 8.868 11.296 8.445 10.604 8.442 C 9.917 8.442 9.298 8.863 9.035 9.51 Z M 19.18 20.754 L 20.972 18.929 L 19.331 17.257 C 19.007 18.087 18.358 18.748 17.535 19.087 L 19.18 20.754 Z M 13.339 10.944 L 11.547 12.77 L 13.188 14.442 C 13.351 14.029 13.594 13.654 13.902 13.34 C 14.209 13.026 14.576 12.78 14.98 12.617 L 13.339 10.944 Z M 16.281 9.463 C 17.219 9.463 17.981 8.688 17.981 7.731 C 17.981 7.272 17.801 6.831 17.483 6.507 C 17.167 6.183 16.733 6 16.28 6 C 15.341 6 14.58 6.775 14.58 7.731 C 14.58 8.687 15.341 9.463 16.28 9.463 L 16.281 9.463 Z M 17.981 24.269 C 17.981 23.809 17.801 23.369 17.483 23.044 C 17.167 22.72 16.734 22.538 16.281 22.537 C 15.342 22.537 14.581 23.312 14.581 24.269 C 14.581 25.226 15.342 26 16.281 26 C 17.22 26 17.981 25.225 17.981 24.269 Z M 16.898 10.369 L 15.828 10.369 L 15.828 12.513 C 16.182 12.45 16.544 12.45 16.898 12.513 L 16.898 10.369 Z M 16.898 19.581 C 16.544 19.644 16.182 19.644 15.828 19.581 L 15.828 21.726 L 16.898 21.726 L 16.898 19.581 Z M 22.23 16.189 C 22.676 17.328 24.148 17.626 25.002 16.751 C 25.322 16.426 25.5 15.985 25.5 15.526 C 25.5 14.826 25.086 14.194 24.45 13.926 C 23.814 13.659 23.08 13.808 22.599 14.302 C 22.112 14.802 21.967 15.543 22.23 16.189 Z M 6.5 15.82 C 6.5 16.776 7.261 17.551 8.2 17.551 C 8.65 17.551 9.083 17.369 9.402 17.044 C 9.721 16.72 9.899 16.279 9.899 15.82 C 9.899 14.863 9.138 14.088 8.199 14.089 C 7.261 14.089 6.499 14.864 6.5 15.82 Z M 21.583 16.365 L 21.583 15.274 L 19.48 15.274 C 19.541 15.634 19.541 16.003 19.48 16.363 L 21.583 16.365 Z M 12.94 16.365 C 12.879 16.004 12.879 15.636 12.94 15.275 L 10.835 15.275 L 10.835 16.365 L 12.94 16.365 Z M 16.23 18.402 C 17.56 18.402 18.64 17.303 18.64 15.948 C 18.639 14.592 17.56 13.494 16.23 13.493 C 14.899 13.493 13.82 14.592 13.82 15.948 C 13.82 17.304 14.899 18.402 16.23 18.402 Z" fill-rule="evenodd"/>
</svg>
