<?xml version="1.0" encoding="utf-8"?>
<svg fill="#d1d1d1" viewBox="0 0 32 32" xmlns="http://www.w3.org/2000/svg">
  <path d="M 12.116 14.404 L 16 10.52 L 19.886 14.406 L 22.146 12.146 L 16 6 L 9.856 12.144 L 12.116 14.404 Z M 6 16 L 8.26 18.26 L 10.52 16 L 8.26 13.74 L 6 16 Z M 12.116 17.596 L 9.853 19.853 L 9.856 19.856 L 16 26 L 22.146 19.854 L 22.146 19.853 L 19.886 17.593 L 16 21.48 L 12.116 17.596 Z M 21.48 16 L 23.74 18.26 L 26 16 L 23.74 13.74 L 21.48 16 Z M 18.292 15.998 L 18.293 15.998 L 16 13.706 L 14.305 15.4 L 14.11 15.595 L 13.709 15.997 L 13.705 16 L 13.709 16.003 L 15.999 18.294 L 18.293 16.001 L 18.294 16 L 18.292 15.999 L 18.292 15.998 Z"/>
</svg>
