<?xml version="1.0" encoding="utf-8"?>
<svg fill="#d1d1d1" height="32" viewBox="0 0 32 32" width="32" xmlns="http://www.w3.org/2000/svg">
  <path d="M 25.195 19.4 C 24.725 19.107 24.126 19.149 23.655 19.359 C 23.644 19.296 23.615 19.237 23.57 19.191 L 21.688 16 L 23.57 12.81 C 23.613 12.767 23.613 12.683 23.656 12.641 C 24.126 12.893 24.682 12.893 25.196 12.599 C 25.959 12.178 26.228 11.213 25.794 10.458 C 25.366 9.702 24.383 9.45 23.613 9.87 C 23.143 10.164 22.843 10.626 22.8 11.172 L 18.865 11.172 L 16.984 7.98 C 16.941 7.938 16.898 7.896 16.898 7.854 C 17.326 7.56 17.625 7.098 17.625 6.552 C 17.625 5.671 16.898 4.999 16.043 4.999 C 15.187 4.999 14.46 5.713 14.46 6.552 C 14.46 7.098 14.76 7.602 15.187 7.854 C 15.145 7.896 15.102 7.938 15.102 7.98 L 13.22 11.17 L 9.243 11.17 C 9.205 10.628 8.9 10.141 8.43 9.87 C 7.66 9.45 6.676 9.701 6.249 10.457 C 5.815 11.213 6.085 12.177 6.848 12.598 C 7.318 12.892 7.917 12.85 8.388 12.64 C 8.388 12.682 8.43 12.766 8.473 12.808 L 10.355 16 L 8.43 19.19 C 8.387 19.233 8.387 19.317 8.344 19.359 C 7.874 19.107 7.318 19.107 6.804 19.401 C 6.035 19.821 5.778 20.786 6.206 21.542 C 6.634 22.298 7.617 22.55 8.387 22.13 C 8.857 21.836 9.157 21.374 9.2 20.828 L 13.135 20.828 L 15.016 24.019 C 15.059 24.061 15.102 24.103 15.102 24.145 C 14.674 24.439 14.375 24.901 14.375 25.447 C 14.375 26.328 15.102 27 15.957 27 C 16.813 27 17.54 26.286 17.54 25.447 C 17.54 24.901 17.24 24.397 16.813 24.145 C 16.855 24.103 16.898 24.061 16.898 24.019 L 18.78 20.829 L 22.715 20.829 C 22.757 21.332 23.014 21.836 23.527 22.129 C 24.297 22.549 25.281 22.298 25.708 21.542 C 26.217 20.819 25.976 19.815 25.195 19.401 L 25.195 19.4 Z M 18.053 14.95 C 18.053 15.37 17.882 15.706 17.668 16.042 C 17.925 16.294 18.053 16.672 18.053 17.05 C 18.053 17.931 17.326 18.645 16.428 18.645 L 14.375 18.645 C 14.164 18.648 13.991 18.478 13.99 18.267 L 13.99 13.733 C 13.991 13.522 14.164 13.352 14.375 13.355 L 16.428 13.355 C 17.326 13.355 18.053 14.069 18.053 14.95 Z"/>
</svg>
