<?xml version="1.0" encoding="utf-8"?>
<svg fill="#d1d1d1" width="32" height="32" viewBox="0 0 32 32" xmlns="http://www.w3.org/2000/svg">
  <path d="M 7.773 22.98 L 8.63 25.782 L 10.17 25.311 L 10.122 25.151 L 11.757 27.576 L 13.092 26.676 L 12.979 26.508 L 15.267 28.36 L 16.28 27.108 L 16.105 26.967 L 18.877 28.03 L 19.454 26.527 L 19.306 26.47 L 22.201 26.673 L 22.314 25.066 L 22.091 25.051 L 24.983 24.383 L 24.621 22.813 L 24.358 22.875 L 26.975 21.364 L 26.17 19.969 L 25.918 20.114 L 28 17.882 L 26.822 16.783 L 26.626 16.993 L 27.966 14.246 L 26.519 13.54 L 26.401 13.78 L 26.877 10.778 L 25.287 10.526 L 25.253 10.736 L 24.784 7.777 L 23.194 8.029 L 23.204 8.101 L 21.955 5.539 L 20.508 6.245 L 20.549 6.33 L 18.601 4.241 L 17.423 5.34 L 17.521 5.444 L 15.019 4 L 14.214 5.395 L 14.394 5.499 L 11.527 4.837 L 11.164 6.406 L 11.435 6.469 L 8.433 6.679 L 8.545 8.285 L 8.88 8.262 L 6.013 9.362 L 6.59 10.866 L 6.897 10.748 L 4.496 12.692 L 5.509 13.944 L 5.669 13.814 L 4 16.289 L 5.335 17.189 L 5.442 17.031 L 4.572 19.876 L 6.112 20.347 L 6.162 20.184 L 6.162 23.137 L 7.772 23.137 L 7.772 22.981 L 7.773 22.98 Z M 7.773 21.066 L 7.773 18.376 L 6.715 18.376 L 7.505 15.794 L 6.485 15.483 L 7.997 13.243 L 7.112 12.646 L 9.209 10.948 L 8.537 10.118 L 11.034 9.16 L 10.642 8.138 L 13.294 7.953 L 13.219 6.88 L 15.803 7.477 L 16.04 6.449 L 18.337 7.775 L 18.856 6.875 L 20.67 8.821 L 21.422 8.12 L 22.595 10.523 L 23.517 10.073 L 23.938 12.731 L 24.963 12.569 L 24.542 15.227 L 25.613 15.397 L 24.433 17.817 L 25.412 18.296 L 23.575 20.265 L 24.372 21.007 L 22.047 22.349 L 22.587 23.283 L 19.982 23.885 L 20.222 24.92 L 17.565 24.734 L 17.492 25.774 L 15.01 24.821 L 14.641 25.781 L 12.581 24.113 L 11.917 24.933 L 10.43 22.729 L 9.56 23.316 L 8.779 20.759 L 7.773 21.066 Z M 11.333 11.217 L 10.115 19.927 L 13.682 19.927 C 14.068 19.927 14.462 19.886 14.863 19.804 C 15.251 19.727 15.625 19.59 15.971 19.398 C 16.307 19.209 16.594 18.961 16.831 18.653 C 17.07 18.346 17.221 17.963 17.287 17.503 C 17.328 17.241 17.32 16.974 17.262 16.716 C 17.21 16.482 17.11 16.262 16.967 16.07 C 16.823 15.882 16.641 15.727 16.432 15.615 C 16.2 15.491 15.948 15.41 15.688 15.375 L 15.688 15.35 C 16.155 15.211 16.551 14.98 16.875 14.655 C 17.199 14.332 17.394 13.924 17.459 13.431 C 17.525 12.956 17.484 12.574 17.336 12.287 C 17.192 12.004 16.967 11.771 16.69 11.617 C 16.385 11.45 16.051 11.341 15.706 11.297 C 15.333 11.244 14.957 11.217 14.58 11.217 L 11.332 11.217 L 11.333 11.217 Z M 12.76 14.7 L 13.018 12.842 L 14.322 12.842 C 14.47 12.842 14.619 12.856 14.772 12.885 C 14.922 12.914 15.056 12.961 15.171 13.026 C 15.284 13.09 15.376 13.187 15.435 13.303 C 15.5 13.444 15.519 13.601 15.491 13.753 C 15.466 13.925 15.411 14.073 15.325 14.195 C 15.241 14.316 15.132 14.416 15.005 14.49 C 14.877 14.564 14.738 14.618 14.593 14.65 C 14.445 14.683 14.297 14.7 14.15 14.7 L 12.76 14.7 Z M 12.255 18.304 L 12.538 16.324 L 13.99 16.324 C 14.146 16.324 14.312 16.336 14.488 16.36 C 14.664 16.385 14.826 16.43 14.974 16.496 C 15.115 16.556 15.235 16.656 15.319 16.785 C 15.401 16.912 15.429 17.078 15.405 17.283 C 15.386 17.456 15.322 17.622 15.22 17.763 C 15.03 18.019 14.752 18.195 14.439 18.255 C 14.279 18.287 14.125 18.304 13.978 18.304 L 12.255 18.304 Z M 21.515 11.356 L 19.064 11.007 L 17.796 18.678 L 19.478 18.796 L 21.515 11.356 Z M 19.739 19.572 L 17.485 19.028 L 16.973 21.549 L 19.21 22.201 L 19.74 19.572 L 19.739 19.572 Z"/>
</svg>
