<?xml version="1.0" encoding="utf-8"?>
<svg fill="#d1d1d1" width="32" height="32" viewBox="0 0 32 32" xmlns="http://www.w3.org/2000/svg">
  <path fill-rule="evenodd" d="M 14.432 18.95 L 17.091 18.95 C 21.031 18.95 23 17.869 23 15.705 L 23 10.245 C 23 8.083 21.03 7 17.09 7 L 10 7 L 10 12.016 L 12.66 12.016 L 12.66 8.918 L 17.386 8.918 C 19.356 8.918 20.341 9.41 20.341 10.393 L 20.341 15.557 C 20.341 16.541 19.356 17.033 17.386 17.033 L 14.432 17.033 L 14.432 18.951 L 14.432 18.95 Z M 20.341 20.131 L 20.341 21.607 C 20.341 22.59 19.356 23.082 17.386 23.082 L 12.66 23.082 L 12.66 15.41 L 17.387 15.41 C 17.709 15.41 18.005 15.423 18.274 15.45 L 18.274 13.528 C 17.88 13.503 17.486 13.491 17.092 13.492 L 10 13.492 L 10 25 L 17.09 25 C 21.03 25 23 23.918 23 21.754 L 23 20.131 L 20.34 20.131 L 20.341 20.131 Z"/>
</svg>
