<?xml version="1.0" encoding="utf-8"?>
<svg fill="#d1d1d1" height="32" viewBox="0 0 32 32" width="32" xmlns="http://www.w3.org/2000/svg">
  <path d="M 25.884 20.737 C 25.904 20.697 25.927 20.661 25.947 20.619 C 28.584 15.066 26.106 8.432 20.475 5.966 L 20.475 5.95 C 20.365 5.901 20.253 5.866 20.143 5.82 C 19.998 5.76 19.851 5.703 19.703 5.65 C 19.504 5.576 19.303 5.51 19.099 5.453 C 18.618 5.307 18.127 5.197 17.63 5.123 C 17.057 5.035 16.478 4.993 15.898 5 C 15.774 5 15.65 5 15.528 5.01 C 14.804 5.04 14.084 5.142 13.38 5.316 C 12.871 5.439 12.371 5.6 11.886 5.798 C 11.567 5.925 11.255 6.067 10.95 6.224 C 10.753 6.327 10.557 6.437 10.36 6.551 C 10.253 6.614 10.148 6.679 10.045 6.747 C 9.853 6.876 9.661 7.007 9.471 7.14 C 9.185 7.35 8.907 7.573 8.64 7.807 C 8.377 8.043 8.125 8.292 7.885 8.552 C 7.642 8.817 7.412 9.095 7.197 9.384 C 7.101 9.511 7.01 9.642 6.924 9.777 C 6.857 9.875 6.782 9.973 6.717 10.067 C 6.652 10.162 6.619 10.243 6.567 10.329 C 6.497 10.447 6.428 10.567 6.371 10.689 C 6.251 10.907 6.137 11.127 6.033 11.349 C 5.997 11.386 5.97 11.432 5.954 11.481 C 5.935 11.538 5.914 11.593 5.89 11.648 C 5.643 12.218 5.448 12.809 5.306 13.414 C 5.143 14.094 5.045 14.789 5.013 15.488 C 5.013 15.638 5.001 15.788 5.001 15.94 C 5.001 16.136 5.001 16.333 5.017 16.53 C 5.017 16.685 5.034 16.84 5.048 16.995 C 5.066 17.192 5.093 17.389 5.121 17.585 C 5.135 17.727 5.168 17.885 5.188 18.035 C 5.225 18.232 5.272 18.428 5.321 18.625 C 5.365 18.771 5.391 18.906 5.43 19.048 C 5.489 19.244 5.557 19.453 5.626 19.653 C 5.671 19.781 5.716 19.909 5.766 20.035 C 5.846 20.231 5.936 20.44 6.029 20.638 C 6.174 20.956 6.337 21.266 6.517 21.566 C 6.586 21.684 6.654 21.8 6.727 21.914 C 6.839 22.089 6.959 22.26 7.081 22.429 C 7.169 22.553 7.26 22.675 7.354 22.795 C 7.449 22.915 7.598 23.088 7.724 23.231 C 7.948 23.49 8.186 23.737 8.437 23.97 C 8.691 24.213 8.958 24.441 9.237 24.654 C 9.417 24.794 9.597 24.928 9.786 25.048 C 9.836 25.081 9.878 25.118 9.928 25.152 C 15.029 28.573 21.948 27.104 25.22 21.906 L 25.232 21.906 C 25.269 21.847 25.299 21.784 25.336 21.723 C 25.416 21.592 25.491 21.454 25.568 21.316 C 25.682 21.13 25.788 20.935 25.885 20.736 L 25.884 20.737 Z M 11.828 25.237 C 10.79 24.769 9.838 24.129 9.012 23.344 C 8.901 23.241 8.792 23.135 8.686 23.026 C 8.58 22.916 8.462 22.784 8.356 22.662 C 8.25 22.54 8.128 22.399 8.02 22.269 C 7.911 22.139 7.85 22.045 7.768 21.931 C 7.656 21.773 7.544 21.616 7.442 21.455 C 7.375 21.349 7.312 21.243 7.245 21.135 C 7.143 20.96 7.048 20.783 6.95 20.604 C 6.895 20.498 6.846 20.389 6.795 20.281 C 6.718 20.087 6.635 19.904 6.561 19.715 C 6.516 19.601 6.476 19.485 6.435 19.371 C 6.367 19.185 6.306 18.997 6.25 18.807 C 6.213 18.679 6.182 18.553 6.15 18.427 C 6.105 18.243 6.062 18.057 6.026 17.873 C 6.001 17.728 5.979 17.6 5.953 17.464 C 5.925 17.281 5.903 17.098 5.885 16.914 C 5.871 16.774 5.863 16.634 5.855 16.495 C 5.855 16.308 5.839 16.122 5.839 15.935 C 5.839 15.799 5.839 15.664 5.851 15.53 C 5.851 15.333 5.873 15.137 5.893 14.94 C 5.904 14.818 5.922 14.694 5.938 14.572 C 5.982 14.252 6.042 13.935 6.117 13.621 C 6.172 13.394 6.237 13.169 6.313 12.945 C 6.342 12.853 6.373 12.761 6.403 12.67 C 6.516 12.343 6.645 12.022 6.791 11.708 C 6.889 11.496 6.988 11.291 7.107 11.088 C 7.168 10.981 7.227 10.873 7.292 10.765 C 7.472 10.468 7.667 10.179 7.874 9.9 C 8.074 9.635 8.286 9.38 8.509 9.135 C 8.651 8.983 8.795 8.833 8.942 8.685 C 9.184 8.453 9.436 8.233 9.699 8.026 C 9.786 7.956 9.875 7.891 9.966 7.83 C 10.14 7.698 10.318 7.577 10.499 7.464 C 10.771 7.292 11.05 7.132 11.335 6.984 C 11.617 6.841 11.904 6.71 12.196 6.591 C 12.778 6.355 13.38 6.175 13.996 6.054 C 14.184 6.016 14.372 5.984 14.562 5.958 C 14.685 5.941 14.809 5.925 14.934 5.911 C 15.141 5.89 15.348 5.875 15.557 5.866 L 15.895 5.866 C 16.11 5.866 16.325 5.871 16.542 5.881 L 16.878 5.905 C 17.211 5.933 17.543 5.979 17.871 6.043 C 18.206 6.106 18.538 6.187 18.865 6.284 C 19.19 6.38 19.51 6.493 19.823 6.624 C 25.238 8.815 27.666 15.133 25.111 20.386 C 25.021 20.582 24.914 20.756 24.821 20.936 C 24.751 21.058 24.684 21.182 24.611 21.302 C 21.939 25.633 16.472 27.315 11.828 25.235 L 11.828 25.237 Z M 15.98 24.412 C 20.626 24.403 24.389 20.636 24.392 15.99 C 24.389 9.51 17.372 5.463 11.762 8.706 C 6.151 11.949 6.155 20.049 11.768 23.286 C 13.049 24.025 14.502 24.413 15.98 24.412 Z M 15.98 10.334 L 15.98 10.33 C 19.102 10.337 21.63 12.868 21.633 15.99 C 21.636 20.347 16.921 23.074 13.146 20.898 C 9.372 18.722 9.368 13.275 13.14 11.094 C 14.003 10.595 14.983 10.333 15.98 10.334 Z"/>
</svg>
