<?xml version="1.0" encoding="utf-8"?>
<svg fill="#d1d1d1" viewBox="0 0 32 32" xmlns="http://www.w3.org/2000/svg">
  <path fill-rule="evenodd" d="M 9.966 21.094 C 12.353 23.197 15.628 22.922 17.599 21.142 C 19.62 19.317 20.072 16.386 18.677 14.091 C 17.754 12.572 16.397 11.683 14.633 11.414 C 12.852 11.142 11.323 11.707 9.95 12.854 C 9.95 11.862 9.947 10.914 9.952 9.968 C 9.962 9.459 9.767 8.968 9.41 8.605 C 9.044 8.217 8.534 7.998 8 8 L 8 22.367 L 9.966 22.367 L 9.966 21.094 Z M 9.962 16.954 C 9.962 14.844 11.688 13.136 13.82 13.134 C 15.96 13.121 17.697 14.862 17.678 17.002 C 17.677 19.086 15.953 20.789 13.831 20.802 C 11.697 20.814 9.962 19.088 9.961 16.954 L 9.962 16.954 Z M 16.325 22.341 C 18.471 23.001 20.349 22.575 22.047 21.152 L 22.047 24.022 C 22.047 24.553 22.227 25.017 22.599 25.398 C 22.978 25.786 23.444 25.985 24 26 L 24 11.631 L 22.03 11.631 L 22.03 12.907 C 21.25 12.259 20.416 11.785 19.45 11.566 C 18.477 11.346 17.518 11.409 16.534 11.679 L 16.692 11.775 C 17.209 12.072 17.694 12.417 18.094 12.859 C 18.31 13.097 18.541 13.218 18.864 13.279 C 21.034 13.693 22.347 15.599 21.975 17.759 C 21.692 19.402 20.188 20.747 18.518 20.843 C 18.372 20.848 18.234 20.913 18.138 21.023 C 17.666 21.526 17.107 21.94 16.487 22.244 C 16.444 22.266 16.403 22.294 16.325 22.341 Z"/>
</svg>
