<?xml version="1.0" encoding="utf-8"?>
<svg fill="#d1d1d1" height="32" viewBox="0 0 32 32" width="32" xmlns="http://www.w3.org/2000/svg">
  <path d="M 8 9.039 L 8 22.961 C 8 23.535 8.472 24 9.054 24 L 16.486 24 C 21.17 24 22.91 23.245 23.976 22.194 C 24.676 21.476 25.046 20.499 24.996 19.498 C 24.996 17.374 23.676 16.318 21.078 15.864 C 23.768 15.313 24.765 14.058 24.765 12.207 C 24.821 11.239 24.465 10.292 23.785 9.601 C 22.697 8.528 21.118 8 16.642 8 L 9.054 8 C 8.472 8 8 8.465 8 9.039 Z M 13.761 15.001 L 13.761 16.818 C 13.755 17.009 13.829 17.194 13.965 17.328 C 14.101 17.464 14.288 17.538 14.481 17.533 L 16.861 17.533 C 18.387 17.533 19.522 17.573 20.058 18.101 C 20.301 18.361 20.426 18.707 20.404 19.061 C 20.427 19.408 20.301 19.749 20.058 19.997 C 19.528 20.525 18.393 20.639 16.861 20.639 L 12.361 20.639 L 12.361 11.407 L 16.907 11.407 C 18.318 11.407 19.361 11.492 19.851 11.974 C 20.071 12.211 20.181 12.529 20.151 12.849 C 20.172 13.177 20.055 13.499 19.828 13.74 C 19.344 14.24 18.301 14.308 16.907 14.308 L 14.464 14.308 C 14.079 14.305 13.764 14.616 13.761 15.001 Z" fill-rule="evenodd"/>
</svg>
