<?xml version="1.0" encoding="utf-8"?>
<svg fill="#d1d1d1" width="32" height="32" viewBox="0 0 32 32" xmlns="http://www.w3.org/2000/svg">
  <path d="M 22.15 14.57 C 22.116 14.57 22.085 14.59 22.07 14.62 L 22.07 14.18 L 21.96 14.24 C 21.89 14.31 21.89 14.32 21.89 14.43 L 21.89 15.25 C 21.876 15.329 21.876 15.411 21.89 15.49 C 21.899 15.629 21.868 15.768 21.8 15.89 L 21.62 16.01 L 21.53 16.01 C 21.522 15.98 21.522 15.95 21.53 15.92 L 21.53 15.59 L 21.46 15.59 C 21.422 15.631 21.392 15.679 21.37 15.73 C 21.278 15.895 21.229 16.081 21.23 16.27 C 21.206 16.42 21.206 16.57 21.23 16.72 C 21.289 16.918 21.244 17.133 21.11 17.29 C 21.08 17.327 21.037 17.352 20.99 17.36 C 20.909 17.36 20.835 17.407 20.8 17.48 L 20.74 17.61 C 20.699 17.51 20.669 17.406 20.65 17.3 L 20.65 16.92 C 20.588 16.96 20.531 17.007 20.48 17.06 C 20.205 17.503 20.05 18.009 20.03 18.53 C 20.01 18.65 20.01 18.79 19.82 18.77 C 19.63 18.75 19.54 18.92 19.49 19.01 C 19.44 19.1 19.39 19.1 19.32 19.01 C 19.212 18.835 19.212 18.615 19.32 18.44 L 19.39 18.3 C 19.275 18.272 19.154 18.298 19.06 18.37 C 18.781 18.531 18.539 18.749 18.35 19.01 L 17.92 19.7 C 17.783 19.961 17.607 20.2 17.4 20.41 C 17.069 20.715 16.609 20.839 16.17 20.74 C 15.814 20.641 15.487 20.455 15.22 20.2 C 14.923 19.902 14.667 19.566 14.46 19.2 C 14.298 18.886 14.186 18.549 14.13 18.2 C 14.11 18.13 14.08 18.2 13.99 18.2 C 13.74 18.35 13.448 18.41 13.16 18.37 C 12.784 18.311 12.473 18.044 12.36 17.68 C 12.344 17.631 12.312 17.589 12.27 17.56 C 12.2 17.49 12.1 17.44 12.03 17.37 C 11.912 17.215 11.852 17.024 11.86 16.83 C 11.674 16.888 11.478 16.778 11.43 16.59 C 11.276 16.328 11.276 16.002 11.43 15.74 C 11.44 15.711 11.44 15.679 11.43 15.65 C 11.26 15.46 10.93 15.13 10.93 15.13 L 10.93 15.04 C 11.08 14.78 11.272 14.546 11.5 14.35 C 11.535 14.299 11.535 14.231 11.5 14.18 C 11.438 14.057 11.438 13.913 11.5 13.79 C 11.564 13.669 11.645 13.558 11.74 13.46 L 11.39 13.37 L 10.39 13.16 C 10.322 13.136 10.248 13.136 10.18 13.16 C 9.888 13.358 9.625 13.597 9.4 13.87 C 9.324 13.969 9.254 14.073 9.19 14.18 L 9.19 14.25 L 9.31 14.18 L 9.48 14 C 9.385 14.121 9.298 14.248 9.22 14.38 C 9.03 14.75 8.82 15.13 8.65 15.51 C 8.536 15.704 8.477 15.925 8.48 16.15 L 8.48 16.27 L 8.57 16.18 C 8.607 16.131 8.637 16.077 8.66 16.02 C 8.593 16.19 8.536 16.363 8.49 16.54 C 8.339 17.022 8.268 17.525 8.28 18.03 C 8.297 18.245 8.361 18.454 8.47 18.64 C 8.49 18.73 8.61 18.78 8.61 18.73 L 8.61 18.18 C 8.685 18.373 8.748 18.57 8.8 18.77 C 8.843 18.94 8.873 19.115 8.89 19.29 C 8.96 19.64 9.01 20 9.1 20.35 C 9.164 20.497 9.252 20.632 9.36 20.75 L 9.55 20.75 L 9.55 20.58 L 9.48 20.44 C 9.432 20.318 9.432 20.182 9.48 20.06 L 10.12 20.77 C 10.129 20.792 10.129 20.818 10.12 20.84 C 10.144 21.17 10.233 21.493 10.38 21.79 C 10.505 22.099 10.807 22.298 11.14 22.29 L 11.26 22.29 C 11.17 22.24 11.22 22.25 11.17 22.17 C 11.12 22.09 11.05 22.08 11 22 C 10.95 21.92 11.05 21.83 11.12 21.83 C 11.211 21.846 11.299 21.876 11.38 21.92 C 11.844 22.257 12.344 22.542 12.87 22.77 L 13.56 23.05 L 13.8 23.14 C 13.64 23.59 13.47 24.02 13.33 24.42 C 13.23 24.21 13.14 23.97 13.02 23.76 L 12.88 23.48 C 12.821 23.355 12.706 23.265 12.57 23.24 C 12.37 23.251 12.172 23.203 12 23.1 C 11.81 23.08 11.53 23.15 11.46 23.34 C 11.664 23.271 11.889 23.317 12.05 23.46 C 11.93 23.72 12 23.89 12.24 23.96 C 12.4 24.003 12.513 24.145 12.52 24.31 C 12.58 24.483 12.603 24.667 12.59 24.85 C 12.438 24.812 12.311 24.71 12.24 24.57 C 12.087 24.304 11.857 24.092 11.58 23.96 C 11.39 23.86 11.18 23.82 11.04 24.03 L 10.95 24.03 C 10.847 24.018 10.743 24.018 10.64 24.03 C 10.41 24.07 10.31 24.29 10.24 24.5 C 10.38 24.408 10.543 24.359 10.71 24.36 C 10.76 24.36 10.8 24.4 10.8 24.45 C 10.82 24.574 10.936 24.658 11.06 24.64 L 11.6 24.85 C 11.813 24.927 11.984 25.09 12.07 25.3 L 11.93 25.3 C 11.74 25.288 11.55 25.288 11.36 25.3 C 11.107 25.318 10.862 25.401 10.65 25.54 C 10.457 25.624 10.304 25.777 10.22 25.97 C 10.197 26.038 10.197 26.112 10.22 26.18 L 10.22 26.32 C 10.208 26.4 10.208 26.48 10.22 26.56 C 10.251 26.705 10.324 26.837 10.43 26.94 C 10.397 26.719 10.44 26.494 10.55 26.3 C 10.83 26.44 10.93 26.42 11.14 26.18 L 11.28 26 C 11.437 25.907 11.624 25.882 11.8 25.93 L 12.51 26.02 C 12.517 26.043 12.517 26.067 12.51 26.09 C 12.375 26.291 12.206 26.467 12.01 26.61 C 11.746 26.784 11.656 27.129 11.8 27.41 C 11.812 27.466 11.812 27.524 11.8 27.58 C 11.737 27.807 11.872 28.041 12.1 28.1 L 12.1 27.72 C 12.329 27.802 12.581 27.686 12.67 27.46 C 12.749 27.302 12.806 27.133 12.84 26.96 C 12.925 26.654 13.14 26.401 13.43 26.27 C 13.641 26.222 13.826 26.097 13.95 25.92 L 14.02 26.01 C 14.152 26.266 14.422 26.423 14.71 26.41 C 14.76 26.41 14.8 26.45 14.8 26.5 L 14.87 26.98 C 14.92 26.91 15.04 26.84 15.04 26.77 C 15.164 26.555 15.196 26.299 15.13 26.06 C 15.106 26.024 15.106 25.976 15.13 25.94 C 15.213 25.827 15.213 25.673 15.13 25.56 C 15.032 25.354 14.866 25.188 14.66 25.09 L 14.28 24.92 L 14.42 24.85 L 14.85 24.64 C 14.9 24.64 14.94 24.57 14.99 24.64 C 15.04 24.71 15.11 24.78 15.11 24.85 C 15.095 24.939 15.071 25.026 15.04 25.11 L 15.16 25.11 C 15.401 25.003 15.571 24.781 15.61 24.52 C 15.63 24.38 15.71 24.26 15.8 24.26 C 15.89 24.26 15.99 24.19 16.06 24.26 C 16.128 24.328 16.155 24.427 16.13 24.52 L 16.06 24.73 C 16.2 24.64 16.34 24.56 16.46 24.47 C 16.733 24.292 16.92 24.01 16.98 23.69 C 17.022 23.557 17.127 23.452 17.26 23.41 C 17.475 23.392 17.688 23.362 17.9 23.32 C 18.281 23.256 18.659 23.169 19.03 23.06 C 19.58 22.897 20.105 22.658 20.59 22.35 C 20.95 22.13 21.28 21.92 21.59 21.66 C 21.873 21.431 22.134 21.177 22.37 20.9 C 22.603 20.65 22.817 20.382 23.01 20.1 C 23.236 19.76 23.44 19.406 23.62 19.04 C 23.835 18.634 24.003 18.204 24.12 17.76 C 24.282 17.183 24.376 16.589 24.4 15.99 C 24.424 15.587 24.424 15.183 24.4 14.78 C 24.411 14.67 24.411 14.56 24.4 14.45 L 25.11 14.64 C 25.068 14.729 25.01 14.81 24.94 14.88 C 24.798 14.982 24.741 15.166 24.8 15.33 C 24.875 15.502 24.976 15.66 25.1 15.8 C 25.2 15.916 25.347 15.979 25.5 15.97 C 25.45 15.89 25.52 15.97 25.38 15.8 C 25.24 15.63 25.24 15.61 25.38 15.49 C 25.427 15.449 25.467 15.402 25.5 15.35 C 25.544 15.269 25.574 15.181 25.59 15.09 L 25.8 15.18 C 26.039 15.283 26.234 15.467 26.35 15.7 C 26.393 15.839 26.542 15.916 26.68 15.87 C 26.8 15.85 26.87 15.87 26.87 15.99 L 26.87 16.04 L 26.92 16.04 C 27.044 15.981 27.097 15.834 27.04 15.71 C 26.97 15.56 26.87 15.42 26.8 15.28 C 26.67 15.045 26.436 14.886 26.17 14.85 C 26.284 14.793 26.394 14.73 26.5 14.66 C 26.639 14.577 26.811 14.577 26.95 14.66 C 27.02 14.727 27.13 14.727 27.2 14.66 C 27.25 14.612 27.33 14.612 27.38 14.66 L 27.57 14.8 C 27.578 14.77 27.578 14.74 27.57 14.71 C 27.558 14.582 27.497 14.464 27.4 14.38 C 27.348 14.345 27.307 14.297 27.28 14.24 C 27.207 14.074 27.025 13.985 26.85 14.03 C 26.725 14.067 26.598 14.097 26.47 14.12 C 26.527 14.044 26.59 13.974 26.66 13.91 C 26.8 13.82 26.87 13.77 26.8 13.63 L 27.13 13.47 C 27.07 13.332 26.93 13.248 26.78 13.26 C 26.664 13.283 26.546 13.283 26.43 13.26 C 26.391 13.246 26.349 13.246 26.31 13.26 C 26.19 13.31 26.17 13.47 26.12 13.57 C 26.06 13.665 26.019 13.77 26 13.88 C 25.91 13.69 25.83 13.67 26 13.48 C 26.17 13.29 26.14 13.2 26 13.03 C 26.071 12.906 26.071 12.754 26 12.63 C 25.831 12.67 25.709 12.817 25.7 12.99 L 25.61 12.99 C 25.42 12.96 25.33 13.15 25.33 13.34 C 25.342 13.56 25.342 13.78 25.33 14 L 25.26 14 C 25.238 13.949 25.208 13.901 25.17 13.86 C 24.952 13.618 24.722 13.388 24.48 13.17 C 24.269 12.957 24.008 12.803 23.72 12.72 C 23.65 12.72 23.65 12.63 23.65 12.63 C 23.556 12.335 23.403 12.063 23.2 11.83 C 23.017 11.645 22.907 11.4 22.89 11.14 C 22.89 11.07 22.8 11.02 22.8 10.95 C 22.643 11.31 22.619 11.714 22.73 12.09 C 22.79 12.263 22.813 12.447 22.8 12.63 C 22.729 12.662 22.662 12.702 22.6 12.75 C 22.55 12.8 22.43 12.94 22.43 12.87 L 22.43 12.8 C 22.441 12.754 22.441 12.706 22.43 12.66 C 22.412 12.626 22.388 12.596 22.36 12.57 L 22.29 12.64 C 22.301 12.686 22.301 12.734 22.29 12.78 C 22.194 13.141 22.218 13.524 22.36 13.87 C 22.394 13.96 22.394 14.06 22.36 14.15 C 22.371 14.213 22.371 14.277 22.36 14.34 C 22.22 14.29 22.22 14.36 22.22 14.43 L 22.15 14.57 Z M 9.86 10.01 C 9.916 10.054 9.958 10.113 9.98 10.18 C 10.306 10.388 10.664 10.54 11.04 10.63 C 11.46 10.76 11.96 10.83 12.46 10.93 C 12.707 10.945 12.951 10.985 13.19 11.05 C 13.697 11.184 14.181 11.39 14.63 11.66 C 14.674 11.683 14.726 11.683 14.77 11.66 C 14.98 11.59 15.17 11.49 15.38 11.42 C 15.754 11.296 16.146 11.231 16.54 11.23 L 17.15 11.23 C 17.432 11.275 17.71 11.345 17.98 11.44 C 18.45 11.613 18.877 11.886 19.23 12.24 L 19.23 11.89 C 19.23 11.58 19.415 11.3 19.7 11.18 C 19.92 11.088 20.174 11.139 20.34 11.31 C 20.498 11.485 20.584 11.714 20.58 11.95 C 20.605 12.283 20.605 12.617 20.58 12.95 C 20.555 13.172 20.457 13.38 20.3 13.54 L 20.3 13.71 C 20.481 14.144 20.57 14.61 20.56 15.08 C 20.573 15.398 20.55 15.717 20.49 16.03 L 20.49 16.22 C 20.54 16.17 20.55 16.22 20.63 16.08 C 20.71 15.94 20.73 15.77 20.8 15.63 C 20.889 15.344 21.127 15.129 21.42 15.07 L 21.42 14.55 C 21.422 14.215 21.591 13.904 21.87 13.72 L 21.87 13.65 C 21.823 13.352 21.823 13.048 21.87 12.75 C 21.89 12.52 22.002 12.307 22.18 12.16 C 22.19 12.131 22.19 12.099 22.18 12.07 C 22.168 11.85 22.168 11.63 22.18 11.41 C 22.287 11.088 22.334 10.749 22.32 10.41 C 22.299 10.26 22.252 10.114 22.18 9.98 C 22.092 9.869 22.012 9.752 21.94 9.63 C 21.826 9.463 21.699 9.306 21.56 9.16 C 21.46 9.042 21.314 8.973 21.16 8.97 C 21.23 9.16 21.44 9.3 21.35 9.56 C 21.286 9.49 21.216 9.427 21.14 9.37 C 21.069 9.339 21.016 9.276 21 9.2 C 20.923 8.97 20.785 8.766 20.6 8.61 C 20.445 8.442 20.213 8.37 19.99 8.42 L 20.08 8.49 C 20.214 8.553 20.31 8.675 20.34 8.82 L 20.34 9.03 L 20.2 9.03 C 20.08 8.96 19.97 8.86 19.8 8.77 C 19.702 8.399 19.436 8.095 19.08 7.95 C 18.945 7.885 18.799 7.844 18.65 7.83 C 18.56 7.76 18.48 7.83 18.39 7.83 L 18.46 7.83 C 18.612 7.88 18.716 8.02 18.72 8.18 C 18.682 8.198 18.641 8.212 18.6 8.22 L 18.53 8.22 C 18.425 8.081 18.253 8.009 18.08 8.03 C 18.038 7.897 17.981 7.77 17.91 7.65 C 17.73 7.388 17.446 7.217 17.13 7.18 C 17.021 7.159 16.909 7.159 16.8 7.18 L 16.8 7.33 L 17 7.33 C 17.136 7.393 17.194 7.555 17.13 7.69 C 17.11 7.6 17.16 7.67 17.04 7.6 C 16.913 7.55 16.777 7.526 16.64 7.53 C 16.58 7.516 16.523 7.492 16.47 7.46 C 16.336 7.282 16.156 7.144 15.95 7.06 C 15.666 6.946 15.342 6.991 15.1 7.18 L 15.17 7.18 C 15.301 7.176 15.417 7.263 15.45 7.39 L 15.45 7.48 L 15.38 7.48 C 15.263 7.41 15.117 7.41 15 7.48 C 14.897 7.505 14.789 7.471 14.72 7.39 L 14.65 7.39 C 14.495 7.268 14.307 7.195 14.11 7.18 C 13.894 7.151 13.674 7.208 13.5 7.34 C 13.461 7.382 13.461 7.448 13.5 7.49 C 13.59 7.49 13.5 7.56 13.59 7.49 C 13.68 7.42 13.71 7.51 13.8 7.56 C 13.89 7.61 13.89 7.68 13.8 7.68 L 13.45 7.8 C 13.28 7.89 13.07 7.8 13 7.8 L 12.96 7.8 C 12.69 7.717 12.4 7.717 12.13 7.8 C 11.97 7.87 11.8 8.01 11.8 8.18 C 11.83 8.188 11.86 8.188 11.89 8.18 C 11.98 8.06 12.08 8.13 12.15 8.18 C 12.22 8.23 12.24 8.32 12.15 8.32 L 11.58 8.63 C 11.536 8.652 11.484 8.652 11.44 8.63 C 11.181 8.537 10.899 8.537 10.64 8.63 C 10.481 8.699 10.36 8.834 10.31 9 L 10.31 9.12 L 10.4 9.12 C 10.48 9.12 10.57 9.05 10.57 9.12 C 10.57 9.19 10.64 9.26 10.57 9.33 C 10.525 9.352 10.484 9.383 10.45 9.42 L 9.86 10.01 Z M 19.31 14.71 L 19.09 14.72 C 18.84 14.701 18.635 14.516 18.59 14.27 C 18.581 14.158 18.492 14.069 18.38 14.06 C 18.17 14.08 18.12 13.96 18.05 13.82 C 18.039 13.774 18.039 13.726 18.05 13.68 C 18.099 13.447 18.312 13.285 18.55 13.3 L 19.4 13.3 C 19.697 13.336 19.969 13.127 20.01 12.83 C 20.082 12.501 20.082 12.159 20.01 11.83 C 20.01 11.75 20.04 11.66 19.92 11.66 C 19.8 11.66 19.8 11.73 19.8 11.8 L 19.8 12.44 C 19.758 12.658 19.58 12.824 19.36 12.85 C 19.19 12.896 19.01 12.896 18.84 12.85 C 18.63 12.803 18.415 12.78 18.2 12.78 C 17.887 12.734 17.58 12.896 17.44 13.18 C 17.39 13.27 17.49 13.32 17.3 13.44 C 17.116 13.555 16.926 13.658 16.73 13.75 C 16.654 13.81 16.546 13.81 16.47 13.75 C 16.229 13.559 15.904 13.513 15.62 13.63 L 15.5 13.63 C 15.394 13.566 15.338 13.442 15.36 13.32 C 15.479 12.997 15.479 12.643 15.36 12.32 C 15.279 12.163 15.104 12.077 14.93 12.11 C 14.77 12.18 14.63 12.25 14.46 12.11 C 14.051 11.754 13.554 11.516 13.02 11.42 C 12.57 11.32 12.1 11.25 11.65 11.18 C 11.37 11.13 11.08 11.08 10.8 11.01 C 10.312 10.885 9.856 10.661 9.46 10.35 C 9.305 10.212 9.155 10.068 9.01 9.92 L 8.75 9.64 C 8.696 9.617 8.634 9.617 8.58 9.64 L 8.58 9.85 C 8.68 10.151 8.869 10.416 9.12 10.61 C 9.419 10.855 9.757 11.048 10.12 11.18 C 10.47 11.287 10.828 11.37 11.19 11.43 L 11.85 11.5 C 12.337 11.54 12.815 11.651 13.27 11.83 C 13.512 11.935 13.75 12.051 13.98 12.18 L 13.98 12.29 C 13.857 12.341 13.73 12.381 13.6 12.41 C 13.564 12.434 13.516 12.434 13.48 12.41 C 13.17 12.29 12.86 12.15 12.53 12.03 C 12.322 11.965 12.107 11.925 11.89 11.91 L 11.32 11.84 C 11.06 11.77 10.85 11.82 10.54 11.77 C 10.23 11.72 9.93 11.65 9.62 11.58 C 9.238 11.481 8.879 11.312 8.56 11.08 C 8.3 10.89 8.06 10.63 7.8 10.42 L 7.64 10.33 L 7.52 10.33 L 7.52 10.45 C 7.552 10.566 7.599 10.676 7.66 10.78 C 7.92 11.18 8.26 11.52 8.66 11.78 C 9.047 12.024 9.468 12.21 9.91 12.33 C 10.276 12.462 10.655 12.556 11.04 12.61 C 11.316 12.644 11.586 12.718 11.84 12.83 C 12.12 12.92 12.41 13.06 12.69 13.18 C 12.8 13.24 12.903 13.31 13 13.39 C 12.851 13.518 12.672 13.607 12.48 13.65 L 11.94 13.75 C 11.814 13.773 11.713 13.866 11.68 13.99 C 12.005 14.002 12.325 14.067 12.63 14.18 C 12.976 14.3 13.246 14.573 13.36 14.92 L 13.29 14.85 C 13.103 14.668 12.877 14.532 12.63 14.45 C 12.362 14.355 12.068 14.355 11.8 14.45 C 11.66 14.55 11.49 14.71 11.4 14.78 C 11.31 14.85 11.33 14.9 11.4 14.97 C 11.614 15.19 11.873 15.36 12.16 15.47 L 12.04 15.47 C 11.831 15.529 11.674 15.705 11.64 15.92 C 11.642 15.96 11.642 16 11.64 16.04 L 11.76 16.04 C 11.83 16.04 11.91 15.97 12 16.04 C 12.123 16.099 12.23 16.189 12.31 16.3 C 12.333 16.344 12.333 16.396 12.31 16.44 C 12.259 16.563 12.219 16.69 12.19 16.82 C 12.12 16.84 12.14 16.96 12.19 16.96 C 12.234 16.936 12.275 16.906 12.31 16.87 L 12.38 17.01 C 12.42 17.132 12.485 17.244 12.57 17.34 C 12.814 17.582 13.185 17.638 13.49 17.48 C 13.672 17.377 13.846 17.26 14.01 17.13 C 14.06 17.077 14.128 17.045 14.2 17.04 C 14.293 17.028 14.387 17.028 14.48 17.04 C 14.521 17.045 14.555 17.072 14.57 17.11 C 14.599 17.228 14.565 17.353 14.48 17.44 C 14.381 17.513 14.287 17.593 14.2 17.68 C 14.351 17.739 14.519 17.739 14.67 17.68 C 14.854 17.606 15.017 17.486 15.14 17.33 C 15.206 17.253 15.239 17.152 15.23 17.05 C 15.15 16.818 15.086 16.581 15.04 16.34 C 15.02 16.15 14.95 16.03 14.76 16.03 C 14.77 16.076 14.77 16.124 14.76 16.17 C 14.69 16.26 14.71 16.26 14.57 16.17 L 14.17 15.89 C 13.995 15.777 13.895 15.578 13.91 15.37 C 13.91 15.265 13.995 15.18 14.1 15.18 C 14.264 15.27 14.364 15.443 14.36 15.63 C 14.369 15.676 14.369 15.724 14.36 15.77 L 14.57 15.63 L 15.02 15.75 C 15.17 15.762 15.32 15.762 15.47 15.75 C 15.458 15.86 15.458 15.97 15.47 16.08 C 15.548 16.529 15.7 16.961 15.92 17.36 C 16.11 17.73 16.32 18.11 16.49 18.49 C 16.62 18.722 16.645 18.998 16.56 19.25 L 16.56 19.32 C 16.436 19.616 16.095 19.754 15.8 19.63 C 15.588 19.486 15.415 19.289 15.3 19.06 C 15.16 18.87 14.95 18.55 14.9 18.47 C 14.86 18.362 14.755 18.293 14.64 18.3 L 14.64 18.44 C 14.686 18.587 14.743 18.731 14.81 18.87 C 14.93 19.06 15.07 19.25 15.21 19.44 C 15.371 19.655 15.571 19.838 15.8 19.98 C 16.352 20.399 17.15 20.063 17.237 19.375 C 17.245 19.311 17.246 19.245 17.24 19.18 C 17.256 18.838 17.198 18.497 17.07 18.18 C 16.93 17.87 16.76 17.53 16.62 17.18 C 16.418 16.797 16.306 16.373 16.29 15.94 C 16.301 15.724 16.394 15.52 16.55 15.37 C 16.55 15.44 16.62 15.32 16.55 15.44 C 16.491 15.558 16.467 15.689 16.48 15.82 C 16.83 15.75 16.97 15.49 17.09 15.18 C 17.08 15.25 17.08 15.32 17.09 15.39 C 17.114 15.434 17.144 15.475 17.18 15.51 C 17.234 15.507 17.285 15.481 17.32 15.44 C 17.396 15.358 17.466 15.271 17.53 15.18 C 17.591 15.22 17.648 15.268 17.7 15.32 C 17.84 15.53 17.94 15.51 18.01 15.32 C 18.043 15.195 18.131 15.091 18.25 15.04 C 18.337 15.133 18.43 15.22 18.53 15.3 L 18.67 15.3 C 18.675 15.26 18.675 15.22 18.67 15.18 L 18.67 14.83 C 19 14.92 19.31 14.88 19.31 14.71 Z M 13.74 14.02 L 13.85 13.9 C 14.02 13.946 14.2 13.946 14.37 13.9 L 14.54 13.83 C 14.625 13.808 14.715 13.808 14.8 13.83 C 14.885 13.871 14.947 13.948 14.97 14.04 L 14.97 14.11 C 14.849 14.205 14.722 14.292 14.59 14.37 C 14.451 14.475 14.259 14.475 14.12 14.37 C 13.987 14.26 13.86 14.143 13.74 14.02 Z M 17 14.35 C 17.31 14.257 17.642 14.275 17.94 14.4 C 18.01 14.457 18.073 14.52 18.13 14.59 C 18.06 14.61 18.01 14.68 17.94 14.68 C 17.824 14.691 17.706 14.691 17.59 14.68 C 17.474 14.545 17.315 14.453 17.14 14.42 C 17.089 14.408 17.041 14.384 17 14.35 Z M 4.54 17.43 C 4.567 17.497 4.574 17.57 4.56 17.64 C 4.65 17.941 4.916 18.156 5.23 18.18 C 5.42 18.204 5.61 18.204 5.8 18.18 C 5.991 18.165 6.178 18.114 6.35 18.03 C 6.643 17.874 6.876 17.624 7.01 17.32 C 7.1 17.11 7.2 16.92 7.27 16.71 L 7.55 15.91 C 7.67 15.56 7.81 15.16 7.95 14.85 C 8.09 14.54 8.25 14.26 8.42 13.95 C 8.638 13.547 8.907 13.174 9.22 12.84 L 9.36 12.72 L 9.03 12.58 L 8.51 12.3 C 8.46 12.3 8.37 12.23 8.37 12.3 C 8.206 12.559 8.056 12.826 7.92 13.1 C 7.71 13.55 7.57 14.02 7.38 14.47 C 7.307 14.664 7.195 14.841 7.05 14.99 C 6.783 15.244 6.413 15.358 6.05 15.3 C 5.885 15.268 5.727 15.211 5.58 15.13 C 5.43 15.047 5.327 14.899 5.3 14.73 C 4.813 15.102 4.839 15.843 5.35 16.18 C 5.787 16.48 6.363 16.48 6.8 16.18 C 6.895 16.088 6.995 16.001 7.1 15.92 C 6.825 16.483 6.203 16.788 5.59 16.66 L 5.45 16.66 C 4.76 16.444 4.375 15.71 4.59 15.02 C 4.115 15.331 3.896 15.914 4.05 16.46 C 4.13 16.827 4.363 17.144 4.69 17.33 C 5.032 17.507 5.425 17.557 5.8 17.47 C 5.755 17.586 5.659 17.675 5.54 17.71 C 5.181 17.811 4.795 17.703 4.54 17.43 Z M 18.61 16.63 C 18.68 16.63 18.68 16.63 18.93 16.71 L 19 16.71 L 19 16.62 C 19.006 16.474 18.943 16.333 18.83 16.24 C 18.647 16.109 18.479 15.958 18.33 15.79 C 18.301 15.748 18.259 15.716 18.21 15.7 L 18.04 15.63 L 18.04 15.84 C 18.04 15.89 18.13 16.03 18.04 16.03 L 17.78 16.17 C 17.42 15.74 17.42 15.86 17.28 15.86 C 17.3 15.93 17.37 15.98 17.37 16.05 C 17.419 16.155 17.419 16.275 17.37 16.38 C 17.202 16.508 16.968 16.508 16.8 16.38 L 16.7 16.26 C 16.746 16.63 16.857 16.99 17.03 17.32 L 17.17 17.32 C 17.249 17.266 17.337 17.225 17.43 17.2 C 17.546 17.151 17.68 17.205 17.73 17.32 L 17.8 17.53 L 17.91 17.53 C 17.952 17.501 17.984 17.459 18 17.41 C 18.082 17.246 18.082 17.054 18 16.89 L 18.12 16.89 L 18.4 17.03 C 18.52 17.1 18.61 17.1 18.61 16.96 C 18.622 16.85 18.622 16.74 18.61 16.63 Z M 6.8 15.04 C 6.879 14.766 6.802 14.471 6.6 14.27 C 6.478 14.16 6.305 14.126 6.15 14.18 C 6.041 14.229 5.973 14.341 5.98 14.46 C 5.98 14.53 5.95 14.58 5.86 14.53 C 5.77 14.48 5.69 14.36 5.6 14.36 C 5.49 14.588 5.63 14.858 5.88 14.9 C 5.973 14.912 6.067 14.912 6.16 14.9 C 6.383 14.877 6.607 14.926 6.8 15.04 Z"/>
</svg>
