<?xml version="1.0" encoding="utf-8"?>
<svg fill="#d1d1d1" viewBox="0 0 32 32" xmlns="http://www.w3.org/2000/svg">
  <path fill-rule="evenodd" d="M 23.189 14.02 C 23.503 11.924 21.906 10.797 19.724 10.045 L 20.432 7.205 L 18.704 6.775 L 18.014 9.54 C 17.56 9.426 17.094 9.32 16.629 9.214 L 17.324 6.431 L 15.596 6 L 14.888 8.839 C 14.512 8.753 14.142 8.669 13.784 8.579 L 13.786 8.57 L 11.402 7.975 L 10.942 9.821 C 10.942 9.821 12.225 10.115 12.198 10.133 C 12.898 10.308 13.024 10.771 13.003 11.139 L 12.197 14.374 C 12.245 14.386 12.307 14.404 12.377 14.431 L 12.194 14.386 L 11.064 18.918 C 10.978 19.13 10.761 19.449 10.271 19.328 C 10.289 19.353 9.015 19.015 9.015 19.015 L 8.157 20.993 L 10.407 21.554 C 10.825 21.659 11.235 21.769 11.638 21.872 L 10.923 24.744 L 12.65 25.174 L 13.358 22.334 C 13.83 22.461 14.288 22.579 14.736 22.691 L 14.03 25.519 L 15.758 25.949 L 16.473 23.083 C 19.421 23.641 21.637 23.416 22.57 20.75 C 23.322 18.604 22.533 17.365 20.982 16.558 C 22.112 16.298 22.962 15.555 23.189 14.02 Z M 19.239 19.558 C 18.706 21.705 15.091 20.544 13.919 20.253 L 14.869 16.448 C 16.041 16.741 19.798 17.32 19.239 19.558 Z M 19.774 13.989 C 19.287 15.942 16.279 14.949 15.304 14.706 L 16.164 11.256 C 17.139 11.499 20.282 11.952 19.774 13.989 Z"/>
</svg>
