<?xml version="1.0" encoding="utf-8"?>
<svg fill="#d1d1d1" viewBox="0 0 32 32" xmlns="http://www.w3.org/2000/svg">
  <path d="M 17.078 19.356 C 17.986 20.778 18.423 23.756 18.346 24.823 C 30.31 20.71 26.562 7.567 18.586 7 C 18.586 9.945 17.908 12.322 17.078 12.322 C 20.345 12.522 22.158 17.789 17.078 19.356 Z M 6 17.8 C 11.954 17.8 16.773 12.977 16.773 7.01 L 11.212 7.01 C 11.222 9.933 8.895 12.322 6.011 12.333 L 6 12.333 L 6 17.8 Z M 13.287 16.81 C 11.78 18.167 10.938 18.867 6.809 19.533 C 9.245 19.533 11.212 21.978 11.212 25 L 16.772 25 C 16.772 24.089 16.587 19.522 13.287 16.81 Z"/>
</svg>
