<?xml version="1.0" encoding="utf-8"?>
<svg fill="#d1d1d1" width="32" height="32" viewBox="0 0 32 32" xmlns="http://www.w3.org/2000/svg">
  <path d="M 13.682 14.51 C 13.372 14.712 13.017 14.926 12.649 15.15 L 12.649 17.171 C 12.983 17.002 13.327 16.831 13.682 16.662 L 13.682 14.509 L 13.682 14.51 Z M 8.515 18.247 C 8.71 18.626 9.174 18.777 9.555 18.587 L 10.521 18.1 C 10.527 17.288 10.531 16.671 10.531 16.426 L 10.531 16.361 C 9.711 16.769 9.089 17.082 8.85 17.201 C 8.469 17.397 8.319 17.866 8.515 18.247 Z M 13.974 18.042 C 13.972 18.468 14.318 18.815 14.744 18.815 L 14.753 18.815 C 15.18 18.814 15.525 18.469 15.525 18.042 L 15.525 11.639 C 15.524 11.212 15.179 10.867 14.752 10.866 C 14.719 10.866 14.685 10.87 14.652 10.873 C 14.266 10.92 13.977 11.248 13.977 11.636 L 13.977 14.834 C 13.974 15.908 13.974 16.974 13.974 18.042 Z M 24.985 13.083 C 24.936 12.709 24.688 12.501 24.311 12.403 C 24.011 12.326 23.701 12.311 23.385 12.308 C 22.649 12.305 21.919 12.424 21.195 12.565 C 20.149 12.768 19.115 13.028 18.098 13.345 C 17.791 13.439 17.488 13.537 17.181 13.635 L 17.178 13.623 L 17.233 13.577 C 17.825 13.071 18.413 12.565 19.009 12.065 C 20.315 10.961 21.493 9.75 22.587 8.472 C 22.885 8.125 23.142 7.754 23.274 7.331 C 23.474 6.696 23.25 6.301 22.606 6.123 C 22.333 6.057 22.053 6.026 21.772 6.031 C 21.158 6.028 20.552 6.129 19.953 6.251 C 19.328 6.381 18.423 6.611 17.81 6.797 C 16.829 7.097 15.617 7.613 14.535 8.051 C 13.983 8.266 13.395 8.542 12.845 8.757 L 10.766 9.603 C 8.006 10.79 7.203 9.937 7.203 9.937 C 7.203 9.941 7.204 9.944 7.206 9.947 C 7.201 9.939 7.197 9.931 7.194 9.922 C 6.657 10.98 7.104 12.902 10.208 11.529 C 10.696 11.339 11.192 11.133 11.677 10.946 C 12.612 10.581 13.538 10.13 14.477 9.769 C 15.123 9.503 15.774 9.251 16.43 9.011 L 17.022 8.781 C 17.629 8.581 18.236 8.383 18.855 8.229 C 19.53 8.055 20.119 7.95 20.475 7.996 C 20.511 7.999 20.548 8.002 20.582 8.009 C 20.744 8.03 20.83 8.116 20.815 8.229 C 20.809 8.404 20.527 8.984 17.96 11.121 C 17.773 11.281 17.586 11.443 17.399 11.602 C 17.111 11.851 16.832 12.096 16.549 12.342 L 16.313 12.55 L 16.31 12.553 L 16.2 12.651 C 16.191 12.66 16.182 12.668 16.172 12.676 L 16.145 12.7 L 15.93 12.863 C 15.915 12.877 15.9 12.89 15.884 12.903 L 15.884 15.616 C 16.792 15.306 21.21 13.832 21.686 14.264 C 21.723 14.314 22.284 14.663 17.147 18.177 C 16.945 18.33 16.749 18.483 16.547 18.637 L 15.804 19.204 C 14.875 19.876 13.952 20.55 13.024 21.222 L 12.621 21.513 C 12.615 22.246 12.612 22.948 12.609 23.593 L 22.409 16.361 C 23.007 15.857 23.573 15.318 24.105 14.745 C 24.405 14.424 24.675 14.083 24.853 13.694 C 24.945 13.491 25.013 13.295 24.985 13.084 L 24.985 13.083 Z M 9.018 24.205 C 8.757 24.531 8.779 25 9.07 25.3 C 9.334 25.58 9.758 25.639 10.089 25.441 L 10.481 25.153 C 10.484 24.564 10.491 23.847 10.496 23.073 L 9.172 24.055 C 9.115 24.099 9.063 24.149 9.018 24.205 Z M 12.364 12.945 C 12.273 12.607 11.966 12.372 11.616 12.372 C 11.188 12.368 10.839 12.714 10.84 13.142 L 10.84 16.34 C 10.84 16.987 10.812 20.198 10.788 22.862 C 10.782 23.626 10.775 24.343 10.772 24.942 C 10.766 25.702 10.763 26.272 10.763 26.505 C 10.761 26.931 11.107 27.278 11.533 27.278 L 11.542 27.278 C 11.969 27.278 12.315 26.932 12.315 26.505 C 12.315 25.969 12.321 24.99 12.327 23.791 C 12.33 23.151 12.337 22.445 12.339 21.712 C 12.361 18.379 12.391 14.452 12.389 13.142 C 12.388 13.076 12.38 13.009 12.364 12.945 Z"/>
</svg>
