<?xml version="1.0" encoding="utf-8"?>
<svg fill="#d1d1d1" height="32" viewBox="0 0 32 32" width="32" xmlns="http://www.w3.org/2000/svg">
  <path d="M 20.215 7.2 L 18.492 6.77 L 17.819 9.546 C 17.365 9.429 16.899 9.325 16.446 9.22 L 17.132 6.43 L 15.41 6 L 14.71 8.842 C 14.335 8.751 13.973 8.672 13.61 8.582 L 11.24 7.982 L 10.786 9.833 C 10.786 9.833 12.068 10.133 12.042 10.146 C 12.742 10.316 12.872 10.785 12.846 11.15 L 12.327 13.236 L 11.874 15.048 L 10.903 18.96 C 10.812 19.168 10.605 19.494 10.113 19.377 C 10.125 19.403 8.856 19.064 8.856 19.064 L 8 21.033 L 10.24 21.593 C 10.655 21.698 11.07 21.815 11.472 21.919 L 10.759 24.801 L 12.482 25.231 L 13.182 22.375 L 13.738 20.289 L 14.684 16.469 C 14.878 16.522 15.086 16.561 15.306 16.613 C 16.006 16.769 16.731 16.834 17.443 16.887 C 17.883 16.926 18.311 16.939 18.751 16.939 C 19.408 16.924 20.059 16.81 20.681 16.599 C 21.2 16.43 21.808 16.209 22.197 15.791 C 22.65 15.309 22.871 14.671 22.961 14.031 C 23.272 11.932 21.679 10.798 19.516 10.041 L 20.215 7.2 Z M 20.073 17.5 C 19.593 17.578 19.347 17.617 18.868 17.643 L 18.194 17.682 C 18.842 18.125 19.244 18.738 19.036 19.585 C 18.648 21.176 16.588 20.955 15.06 20.615 L 14.541 22.728 L 14.516 22.818 L 13.855 25.57 L 15.565 26 L 16.277 23.119 C 19.205 23.679 21.42 23.458 22.339 20.772 C 22.922 19.116 22.495 17.825 21.601 17.03 C 21.588 17.043 21.562 17.043 21.549 17.056 C 21.135 17.226 20.552 17.421 20.073 17.499 L 20.073 17.5 Z M 19.567 14.005 C 19.088 15.961 16.083 14.97 15.111 14.722 L 15.966 11.254 C 16.938 11.515 20.073 11.958 19.567 14.005 Z" fill-rule="evenodd"/>
</svg>
