<?xml version="1.0" encoding="utf-8"?>
<svg fill="#d1d1d1" viewBox="0 0 32 32" xmlns="http://www.w3.org/2000/svg">
  <path d="M 16 27 C 17.135 27 18.263 26.826 19.344 26.481 C 20 26.29 20.203 25.46 19.71 24.987 C 19.469 24.757 19.121 24.68 18.806 24.789 C 17.899 25.078 16.952 25.225 16 25.224 C 10.914 25.224 6.776 21.086 6.776 16 C 6.776 10.914 10.914 6.776 16 6.776 C 21.086 6.776 25.224 10.914 25.224 16 C 25.224 16.84 25.11 17.678 24.884 18.488 C 24.7 19.147 25.298 19.757 25.96 19.587 C 26.268 19.509 26.51 19.272 26.595 18.966 C 26.865 18 27 17.002 27 16 C 27 9.937 22.063 5 16 5 C 9.937 5 5 9.934 5 16 C 5 22.066 9.934 27 16 27 Z M 19.375 15.974 C 18.984 15.652 18.499 15.466 17.993 15.442 C 18.357 15.181 18.626 14.809 18.76 14.382 C 18.89 13.97 18.908 13.532 18.814 13.112 C 18.689 12.546 18.373 12.04 17.92 11.678 C 17.697 11.504 17.441 11.376 17.168 11.301 C 16.88 11.223 16.578 11.218 16.288 11.286 L 15.727 11.408 C 15.568 11.443 15.41 11.343 15.374 11.184 L 15.226 10.516 C 15.19 10.357 15.032 10.257 14.873 10.292 L 14.196 10.442 C 14.037 10.476 13.936 10.633 13.969 10.792 L 14.119 11.465 C 14.154 11.625 14.054 11.783 13.894 11.818 L 12.061 12.224 C 11.672 12.31 11.425 12.695 11.511 13.084 L 13.161 20.544 C 13.247 20.933 13.632 21.18 14.021 21.094 L 15.854 20.687 C 16.014 20.652 16.172 20.752 16.207 20.912 L 16.355 21.579 C 16.39 21.739 16.548 21.839 16.708 21.804 L 17.385 21.654 C 17.545 21.619 17.645 21.461 17.61 21.301 L 17.461 20.629 C 17.426 20.471 17.524 20.315 17.681 20.277 L 17.934 20.216 C 18.342 20.126 18.423 20.069 18.765 19.892 C 19.089 19.731 19.382 19.516 19.633 19.255 C 19.863 19.014 20.031 18.723 20.127 18.405 C 20.223 18.062 20.229 17.699 20.143 17.353 C 20.011 16.752 19.755 16.292 19.375 15.974 Z M 13.945 14.377 C 13.859 13.988 14.106 13.603 14.495 13.517 L 15.875 13.211 C 16.086 13.161 16.308 13.202 16.486 13.325 C 16.676 13.449 16.802 13.657 16.866 13.949 C 16.936 14.265 16.901 14.518 16.759 14.706 C 16.626 14.889 16.43 15.017 16.209 15.064 L 14.904 15.353 C 14.514 15.439 14.129 15.193 14.043 14.803 L 13.945 14.377 Z M 17.854 18.144 C 17.718 18.358 17.499 18.506 17.25 18.553 L 15.681 18.9 C 15.292 18.986 14.907 18.739 14.821 18.35 L 14.704 17.823 C 14.618 17.434 14.865 17.049 15.254 16.963 L 16.91 16.596 C 17.143 16.541 17.389 16.599 17.573 16.752 C 17.777 16.914 17.916 17.143 17.965 17.399 C 18.033 17.652 17.993 17.921 17.856 18.144 L 17.854 18.144 Z M 21.152 23.527 C 21.11 23.577 21.087 23.641 21.087 23.707 L 21.087 23.987 C 21.087 24.14 21.211 24.264 21.364 24.264 L 23.816 24.264 C 23.969 24.265 24.094 24.14 24.094 23.987 L 24.094 23.772 C 24.094 23.619 23.969 23.494 23.816 23.495 L 22.765 23.495 C 22.552 23.496 22.418 23.265 22.524 23.08 C 22.531 23.068 22.539 23.056 22.548 23.045 L 24.014 21.203 C 24.054 21.154 24.075 21.094 24.075 21.031 L 24.075 20.747 C 24.075 20.594 23.951 20.47 23.798 20.47 L 21.44 20.47 C 21.287 20.469 21.162 20.594 21.162 20.747 L 21.162 20.963 C 21.162 21.116 21.286 21.24 21.44 21.24 L 22.472 21.24 C 22.685 21.239 22.819 21.47 22.713 21.655 C 22.705 21.669 22.696 21.682 22.685 21.695 L 21.152 23.527 Z"/>
</svg>
