<?xml version="1.0" encoding="utf-8"?>
<svg fill="#d1d1d1" width="32" height="32" viewBox="0 0 32 32" xmlns="http://www.w3.org/2000/svg">
  <path d="M 16 3 C 23.179 3 29 8.821 29 16 C 29 23.179 23.179 29 16 29 C 8.821 29 3 23.179 3 16 C 3 8.821 8.821 3 16 3 Z M 15.962 4.94 C 22.049 4.94 26.985 9.874 26.985 15.962 C 26.985 22.049 22.049 26.985 15.962 26.985 C 9.874 26.985 4.94 22.049 4.94 15.962 C 4.94 9.874 9.874 4.94 15.962 4.94 Z M 15.962 28.022 C 22.621 28.022 28.019 22.624 28.019 15.964 C 28.019 9.304 22.62 3.907 15.962 3.907 C 9.302 3.907 3.904 9.305 3.904 15.964 C 3.904 22.624 9.302 28.022 15.962 28.022 Z M 18.012 16.978 C 18.145 17.058 18.22 17.208 18.204 17.363 C 18.076 18.683 19.073 19.843 20.397 19.916 C 22.187 19.985 23.38 18.091 22.546 16.506 C 22.158 15.771 21.408 15.298 20.577 15.266 C 19.852 15.249 19.16 15.571 18.707 16.137 C 18.58 16.294 18.356 16.331 18.185 16.225 L 16.465 15.167 C 16.346 15.093 16.273 14.964 16.272 14.824 L 16.272 14.807 C 16.272 14.62 16.402 14.464 16.58 14.417 C 17.666 14.135 18.394 13.117 18.311 11.998 C 18.221 10.828 17.276 9.906 16.104 9.846 C 14.315 9.764 13.108 11.649 13.931 13.239 C 14.21 13.776 14.687 14.184 15.261 14.376 C 15.426 14.431 15.537 14.584 15.538 14.758 L 15.538 14.857 C 15.538 15.002 15.458 15.137 15.332 15.208 L 13.694 16.126 C 13.532 16.218 13.327 16.185 13.202 16.046 C 12.752 15.541 12.105 15.257 11.429 15.269 C 10.164 15.296 9.15 16.326 9.143 17.591 C 9.153 19.379 11.095 20.486 12.638 19.584 C 13.448 19.11 13.894 18.197 13.768 17.267 C 13.746 17.11 13.82 16.954 13.955 16.871 L 15.656 15.821 C 15.784 15.742 15.945 15.741 16.074 15.819 L 18.012 16.979 L 18.012 16.978 Z M 15.997 6.686 C 13.118 6.687 10.73 8.916 10.533 11.789 C 11.192 11.685 11.863 11.692 12.52 11.809 C 12.703 10.027 14.203 8.671 15.995 8.67 C 17.924 8.672 19.487 10.237 19.488 12.166 C 19.488 13.156 19.075 14.049 18.413 14.684 C 19.198 14.111 20.183 13.883 21.14 14.051 C 22.454 10.476 19.807 6.684 15.998 6.685 L 15.997 6.686 Z M 11.465 23.01 C 13.185 23.01 14.716 22.21 15.711 20.96 C 15.278 20.345 14.968 19.651 14.799 18.918 C 14.256 20.282 12.936 21.177 11.468 21.177 C 8.705 21.131 7.028 18.111 8.449 15.741 C 9.087 14.678 10.228 14.019 11.468 13.998 C 12.257 13.998 12.985 14.254 13.576 14.685 C 12.913 14.051 12.527 13.181 12.501 12.264 C 9.152 11.611 6.04 14.176 6.042 17.588 C 6.041 20.583 8.47 23.011 11.465 23.01 Z M 20.521 23.01 C 23.876 23.053 26.729 19.599 25.789 15.852 C 25.361 14.144 24.143 12.936 21.851 12.33 C 21.835 12.947 21.721 13.557 21.513 14.138 C 24.168 14.905 24.997 18.258 23.006 20.174 C 22.338 20.817 21.448 21.176 20.521 21.177 C 18.678 21.176 17.135 19.779 16.951 17.945 C 16.342 18.045 15.72 18.049 15.11 17.956 C 15.305 20.801 17.669 22.973 20.521 23.01 Z"/>
</svg>
