<?xml version="1.0" encoding="utf-8"?>
<svg fill="#d1d1d1" viewBox="0 0 32 32" xmlns="http://www.w3.org/2000/svg">
  <path d="M 16 27 C 22.075 27 27 22.075 27 16 C 27 9.925 22.075 5 16 5 C 9.925 5 5 9.925 5 16 C 5 22.075 9.925 27 16 27 Z M 15.012 6.74 C 15.448 6.71 15.887 6.69 16.324 6.675 C 16.329 7.572 16.327 8.47 16.324 9.367 L 15.014 9.365 C 15.014 8.49 15.014 7.615 15.012 6.74 Z M 18.164 9.407 L 18.165 9.407 C 18.163 8.582 18.163 7.757 18.169 6.933 C 20.599 7.542 22.763 9.13 24.036 11.291 C 25.477 13.688 25.719 16.749 24.698 19.351 C 23.622 22.171 21.093 24.351 18.163 25.066 C 18.165 24.246 18.167 23.428 18.161 22.609 C 19.553 22.477 21.078 22.355 22.204 21.429 C 23.341 20.433 23.604 18.738 23.274 17.324 C 23.02 16.245 22.003 15.561 20.976 15.322 C 22.692 14.412 22.872 11.772 21.471 10.515 C 20.553 9.738 19.316 9.562 18.164 9.407 Z M 9.418 9.372 C 10.536 8.39 11.802 7.563 13.224 7.102 C 13.231 7.874 13.229 8.646 13.229 9.418 C 11.958 9.42 10.687 9.433 9.419 9.372 L 9.418 9.372 Z M 7.936 11.362 C 8.306 10.669 8.888 10.12 9.254 9.426 C 9.32 9.511 9.344 9.614 9.325 9.734 C 9.334 10.261 9.342 10.787 9.418 11.308 C 10.065 11.312 10.722 11.262 11.363 11.389 C 11.751 11.463 11.985 11.866 11.962 12.239 C 11.983 14.553 11.956 16.868 11.975 19.182 C 11.955 19.587 12.056 20.076 11.704 20.372 C 11.101 20.575 10.45 20.466 9.826 20.479 C 9.584 21.146 9.417 21.841 9.403 22.549 C 10.675 22.619 11.953 22.572 13.228 22.585 C 13.228 23.355 13.23 24.127 13.225 24.897 C 10.728 24.094 8.595 22.23 7.52 19.834 C 6.275 17.161 6.443 13.903 7.936 11.361 L 7.936 11.362 Z M 15.066 11.463 C 16.174 11.495 17.392 11.327 18.39 11.919 C 19.245 12.405 19.298 13.778 18.47 14.319 C 17.472 14.981 16.207 14.854 15.067 14.875 L 15.067 11.463 L 15.066 11.463 Z M 15.066 16.711 L 15.067 16.711 C 16.429 16.748 17.92 16.515 19.147 17.248 C 20.05 17.751 20.155 19.188 19.279 19.77 C 18.054 20.619 16.474 20.382 15.067 20.496 L 15.067 16.71 L 15.066 16.711 Z M 15.015 22.636 L 16.38 22.636 C 16.38 23.532 16.382 24.428 16.378 25.324 C 15.922 25.312 15.466 25.292 15.01 25.263 C 15.013 24.387 15.015 23.511 15.015 22.636 Z"/>
</svg>
