<?xml version="1.0" encoding="utf-8"?>
<svg fill="#d1d1d1" viewBox="0 0 32 32" xmlns="http://www.w3.org/2000/svg">
  <path d="M 10.827 15.376 L 12.572 11.676 L 7.23 17.02 L 6 18.248 L 9.894 22.106 L 9.082 19.074 L 10.827 15.375 L 9.082 19.075 L 14.524 13.632 L 12.572 11.677 L 10.827 15.376 Z M 12.926 9.082 L 18.368 14.524 L 13.752 6 L 9.892 9.894 L 12.926 9.082 Z M 19.074 22.918 L 13.632 17.476 L 18.248 26 L 22.106 22.106 L 19.074 22.918 Z M 20.04 9.34 L 22.106 9.892 L 22.92 12.924 L 17.476 18.368 L 19.428 20.321 L 26 13.75 L 24.362 7.637 L 18.248 6 L 17.476 6.775 L 20.04 9.34 Z M 13.752 26 L 14.524 25.225 L 11.96 22.658 L 9.894 22.106 L 6 18.248 L 7.64 24.36 L 13.752 26 Z M 26 18.248 L 25.225 17.476 L 22.66 20.04 L 22.106 22.106 L 18.248 26 L 24.362 24.362 L 26 18.248 Z M 6 13.752 L 6.775 14.524 L 9.34 11.958 L 9.892 9.894 L 13.752 6 L 7.64 7.638 L 6 13.752 Z M 20.32 12.569 L 14.98 7.231 L 13.752 6 L 18.368 14.524 L 20.321 12.569 L 20.32 12.569 Z M 11.68 19.429 L 18.247 26 L 13.631 17.476 L 11.678 19.428 L 11.68 19.429 Z"/>
</svg>
