<?xml version="1.0" encoding="utf-8"?>
<svg fill="#d1d1d1" width="32" height="32" viewBox="0 0 32 32" xmlns="http://www.w3.org/2000/svg">
  <path d="M 9.03 5 L 9.036 5.003 C 9.03 7.578 9.036 10.153 9.03 12.733 C 9.024 12.788 9.046 12.843 9.089 12.878 L 14.633 18.42 C 14.91 18.262 15.208 18.134 15.523 18.075 C 15.532 15.681 15.523 13.286 15.526 10.889 C 15.527 10.846 15.524 10.803 15.517 10.76 C 15.456 10.688 15.377 10.632 15.304 10.565 L 9.03 5 Z M 16.477 13.607 L 16.48 13.607 C 16.48 15.097 16.47 16.587 16.48 18.075 C 16.818 18.143 17.141 18.275 17.43 18.463 C 18.148 17.757 18.857 17.04 19.571 16.328 C 19.909 15.984 20.262 15.655 20.589 15.305 C 19.441 14.305 17.996 13.709 16.477 13.607 Z M 9.033 14.275 L 9.03 14.272 L 9.03 20.091 L 13.502 20.091 C 13.578 19.749 13.714 19.423 13.904 19.128 C 12.28 17.512 10.661 15.888 9.034 14.275 L 9.033 14.275 Z M 20.639 16.608 L 20.639 16.611 C 19.793 17.454 18.944 18.297 18.104 19.143 C 18.271 19.39 18.393 19.664 18.463 19.953 C 18.48 20.009 18.48 20.111 18.568 20.091 C 20.035 20.088 21.505 20.094 22.972 20.088 C 22.869 18.572 22.272 17.132 21.272 15.988 C 21.047 16.185 20.852 16.404 20.639 16.608 Z M 9.03 21.042 C 9.131 22.547 9.721 23.977 10.71 25.116 C 10.737 25.16 10.774 25.105 10.798 25.087 L 13.898 21.995 C 13.71 21.706 13.578 21.385 13.51 21.047 C 13.289 21.033 13.07 21.042 12.851 21.042 L 9.031 21.042 L 9.03 21.042 Z M 18.492 21.047 C 18.431 21.357 18.314 21.654 18.148 21.922 C 18.594 22.383 19.055 22.83 19.507 23.285 L 21.315 25.087 C 22.292 23.955 22.874 22.535 22.972 21.042 L 20.376 21.042 C 19.746 21.047 19.122 21.032 18.492 21.047 Z M 17.238 22.777 L 17.235 22.774 C 16.998 22.906 16.743 23.001 16.477 23.054 L 16.477 27.517 C 18.003 27.419 19.454 26.818 20.604 25.81 L 17.448 22.66 C 17.378 22.695 17.308 22.736 17.238 22.777 Z M 12.647 24.571 L 12.647 24.574 C 12.236 24.991 11.813 25.396 11.41 25.819 C 12.557 26.821 14.003 27.418 15.523 27.517 L 15.523 23.054 C 15.185 22.981 14.863 22.847 14.572 22.66 C 13.925 23.29 13.289 23.935 12.647 24.57 L 12.647 24.571 Z"/>
</svg>
