<?xml version="1.0" encoding="utf-8"?>
<svg fill="#d1d1d1" width="32" height="32" viewBox="0 0 32 32" xmlns="http://www.w3.org/2000/svg">
  <path d="M 27.743 13.539 C 27.585 12.771 27.351 12.02 27.045 11.298 C 26.743 10.587 26.374 9.906 25.943 9.265 C 25.515 8.632 25.027 8.041 24.486 7.502 C 23.946 6.961 23.356 6.473 22.722 6.045 C 22.08 5.616 21.4 5.247 20.69 4.943 C 17.724 3.685 14.374 3.685 11.408 4.943 C 9.988 5.542 8.699 6.411 7.612 7.503 C 7.071 8.042 6.583 8.632 6.155 9.265 C 5.726 9.907 5.357 10.588 5.053 11.298 C 3.795 14.264 3.795 17.614 5.053 20.58 C 5.347 21.29 5.727 21.963 6.155 22.612 C 6.583 23.246 7.071 23.836 7.612 24.376 C 8.152 24.917 8.742 25.405 9.376 25.833 C 10.012 26.261 10.698 26.629 11.408 26.935 C 14.374 28.193 17.724 28.193 20.69 26.935 C 21.4 26.641 22.073 26.261 22.722 25.833 C 23.356 25.405 23.946 24.917 24.486 24.376 C 25.027 23.836 25.515 23.246 25.943 22.612 C 26.371 21.976 26.739 21.29 27.045 20.58 C 27.987 18.358 28.23 15.902 27.743 13.539 Z M 16.06 26.384 C 10.293 26.384 5.628 21.706 5.628 15.951 C 5.628 10.196 10.306 5.518 16.06 5.518 C 21.815 5.518 26.493 10.196 26.493 15.951 C 26.493 21.706 21.816 26.384 16.06 26.384 Z M 16.244 25.478 L 16.527 25.478 C 16.576 25.478 16.624 25.478 16.673 25.465 L 16.686 25.465 C 16.735 25.465 16.771 25.465 16.82 25.453 L 16.857 25.453 C 16.894 25.453 16.931 25.453 16.967 25.441 L 17.004 25.441 C 17.041 25.441 17.078 25.429 17.127 25.429 L 17.151 25.429 C 17.2 25.429 17.249 25.416 17.298 25.416 C 17.347 25.416 17.384 25.404 17.433 25.392 L 17.457 25.392 C 17.494 25.392 17.531 25.38 17.567 25.38 L 17.592 25.38 C 17.641 25.367 17.678 25.367 17.727 25.355 C 17.824 25.343 17.922 25.318 18.008 25.294 L 18.033 25.294 C 18.069 25.282 18.118 25.282 18.155 25.269 L 18.167 25.269 C 18.265 25.245 18.351 25.22 18.449 25.196 C 17.532 25.225 16.615 25.139 15.719 24.939 C 14.371 24.645 13.086 24.119 11.996 23.212 C 10.256 21.764 9.258 19.611 9.278 17.347 C 9.287 15.679 9.88 14.067 10.955 12.792 C 12.351 11.139 14.335 10.269 16.367 10.22 L 16.649 10.22 L 16.649 8.592 L 16.331 8.592 C 15.713 8.603 15.097 8.677 14.494 8.812 C 13.887 8.949 13.296 9.15 12.731 9.412 C 12.155 9.682 11.616 10.012 11.114 10.392 C 10.595 10.786 10.123 11.238 9.706 11.739 C 9.313 12.202 8.973 12.707 8.69 13.245 C 8.41 13.763 8.184 14.309 8.016 14.873 C 7.851 15.429 7.74 15.999 7.686 16.576 L 7.649 17.114 L 7.649 17.432 C 7.661 18.057 7.735 18.669 7.869 19.269 C 8.004 19.882 8.212 20.469 8.469 21.033 C 8.776 21.706 9.327 22.698 10.147 23.445 C 11.821 24.765 13.892 25.481 16.024 25.478 L 16.245 25.478 L 16.244 25.478 Z M 18.914 23.91 C 18.31 23.888 17.708 23.823 17.114 23.714 C 14.591 23.261 12.424 21.718 11.628 19.392 C 10.66 16.563 12.142 13.502 14.958 12.572 C 15.495 12.392 16.057 12.301 16.623 12.302 C 17.346 12.302 18.068 12.449 18.73 12.718 L 19.415 11.261 C 19.209 11.178 19.001 11.101 18.791 11.029 C 18.089 10.809 17.358 10.697 16.623 10.698 C 15.886 10.699 15.155 10.819 14.456 11.053 C 13.564 11.347 12.743 11.822 12.044 12.449 C 11.707 12.749 11.399 13.082 11.126 13.441 C 10.856 13.796 10.622 14.178 10.428 14.58 C 10.033 15.388 9.8 16.266 9.742 17.164 C 9.681 18.094 9.803 19.024 10.109 19.906 C 10.421 20.813 10.922 21.644 11.579 22.343 C 12.179 22.992 12.877 23.482 13.721 23.935 C 14.603 24.4 15.693 24.645 16.831 24.805 C 17.566 24.902 18.546 24.927 19.121 24.927 C 19.623 24.743 19.831 24.657 20.101 24.547 C 20.334 24.437 20.566 24.327 20.799 24.192 C 21.032 24.057 21.069 24.032 21.46 23.776 C 21.495 23.754 21.528 23.73 21.558 23.702 C 20.211 23.935 19.868 23.922 18.913 23.91 L 18.914 23.91 Z M 21.926 22.086 C 21.546 22.11 21.007 22.146 20.395 22.146 C 19.305 22.146 17.97 22.049 16.832 21.669 C 15.068 21.082 13.403 19.576 13.403 17.714 C 13.401 15.86 14.904 14.357 16.758 14.359 C 18.019 14.359 19.109 15.057 19.685 16.073 L 21.142 15.351 C 20.914 14.921 20.62 14.529 20.272 14.188 C 18.332 12.245 15.183 12.245 13.243 14.188 C 12.31 15.12 11.786 16.384 11.786 17.702 C 11.789 18.386 11.936 19.062 12.216 19.686 C 12.472 20.249 12.828 20.776 13.281 21.266 C 14.077 22.122 15.166 22.808 16.33 23.2 C 17.444 23.567 19.085 23.702 20.677 23.592 C 21.117 23.555 21.448 23.518 22.011 23.396 C 22.554 22.967 23.047 22.478 23.481 21.939 C 23.101 21.976 22.403 22.049 21.926 22.086 Z"/>
</svg>
