<?xml version="1.0" encoding="utf-8"?>
<svg fill="#d1d1d1" viewBox="0 0 32 32" xmlns="http://www.w3.org/2000/svg">
  <path fill-rule="evenodd" d="M 22.632 14.02 C 22.946 11.924 21.35 10.797 19.167 10.045 L 19.875 7.205 L 18.147 6.775 L 17.457 9.54 C 17.003 9.426 16.537 9.32 16.073 9.214 L 16.767 6.431 L 15.039 6 L 14.331 8.839 C 13.955 8.753 13.585 8.669 13.227 8.579 L 13.229 8.57 L 10.845 7.975 L 10.385 9.821 C 10.385 9.821 11.668 10.115 11.641 10.133 C 12.341 10.308 12.467 10.771 12.446 11.139 L 11.64 14.374 C 11.688 14.386 11.75 14.404 11.82 14.431 L 11.637 14.386 L 10.507 18.918 C 10.421 19.13 10.204 19.449 9.714 19.328 C 9.732 19.353 8.458 19.015 8.458 19.015 L 7.6 20.993 L 9.85 21.554 C 10.268 21.659 10.678 21.769 11.082 21.872 L 10.366 24.744 L 12.093 25.174 L 12.801 22.334 C 13.273 22.461 13.731 22.579 14.179 22.691 L 13.473 25.519 L 15.201 25.949 L 15.917 23.083 C 18.864 23.641 21.08 23.416 22.013 20.75 C 22.765 18.604 21.976 17.365 20.425 16.558 C 21.555 16.298 22.405 15.555 22.632 14.02 Z M 18.682 19.558 C 18.149 21.705 14.535 20.544 13.363 20.253 L 14.313 16.448 C 15.483 16.741 19.241 17.32 18.683 19.558 L 18.682 19.558 Z M 19.217 13.989 C 18.73 15.942 15.722 14.949 14.747 14.706 L 15.607 11.256 C 16.583 11.499 19.725 11.952 19.217 13.989 Z M 24.247 21.618 L 24.401 20.951 C 24.228 20.923 24.051 20.932 23.883 20.98 C 23.729 21.026 23.593 21.1 23.475 21.202 C 23.353 21.308 23.252 21.435 23.175 21.577 C 23.092 21.729 23.031 21.892 22.993 22.061 C 22.936 22.283 22.928 22.515 22.968 22.741 C 23.009 22.946 23.088 23.128 23.206 23.286 C 23.323 23.445 23.474 23.578 23.659 23.686 C 23.843 23.795 24.049 23.875 24.274 23.927 C 24.496 23.978 24.71 23.994 24.916 23.974 C 25.312 23.943 25.674 23.741 25.909 23.421 C 26.031 23.258 26.119 23.058 26.174 22.82 C 26.264 22.43 26.232 22.093 26.078 21.81 C 25.924 21.526 25.658 21.307 25.278 21.154 L 25.124 21.82 C 25.335 21.902 25.486 22.02 25.578 22.174 C 25.67 22.329 25.693 22.504 25.648 22.699 C 25.597 22.949 25.419 23.154 25.178 23.239 C 25.061 23.282 24.937 23.304 24.812 23.303 C 24.681 23.303 24.552 23.289 24.428 23.261 C 24.237 23.224 24.054 23.152 23.888 23.05 C 23.774 22.978 23.677 22.881 23.603 22.768 C 23.545 22.676 23.51 22.571 23.501 22.462 C 23.494 22.357 23.501 22.262 23.521 22.177 C 23.553 22.009 23.641 21.856 23.771 21.745 C 23.906 21.641 24.078 21.595 24.247 21.618 Z M 26.939 19.505 C 26.994 19.285 27.004 19.055 26.969 18.831 C 26.936 18.632 26.861 18.443 26.749 18.276 C 26.635 18.109 26.487 17.968 26.315 17.862 C 26.124 17.744 25.914 17.659 25.695 17.611 C 25.479 17.559 25.256 17.544 25.035 17.566 C 24.834 17.586 24.639 17.648 24.463 17.748 C 24.293 17.846 24.146 17.981 24.022 18.151 C 23.892 18.337 23.8 18.548 23.753 18.77 C 23.698 18.99 23.688 19.219 23.723 19.443 C 23.76 19.651 23.833 19.836 23.943 19.999 C 24.053 20.162 24.198 20.299 24.377 20.413 C 24.557 20.526 24.761 20.609 24.991 20.663 C 25.225 20.717 25.447 20.732 25.658 20.709 C 25.859 20.689 26.053 20.627 26.229 20.527 C 26.403 20.425 26.553 20.288 26.67 20.124 C 26.801 19.938 26.893 19.727 26.94 19.505 L 26.939 19.505 Z M 24.315 16.707 L 27.338 17.405 L 27.492 16.739 L 26.054 16.407 C 25.903 16.375 25.757 16.318 25.624 16.24 C 25.514 16.175 25.418 16.091 25.34 15.99 C 25.201 15.808 25.152 15.572 25.208 15.35 C 25.218 15.302 25.233 15.255 25.25 15.208 L 25.303 15.069 L 24.66 14.921 L 24.627 15.009 C 24.617 15.037 24.602 15.09 24.584 15.169 C 24.561 15.271 24.557 15.377 24.574 15.48 C 24.608 15.686 24.698 15.878 24.834 16.036 C 24.893 16.106 24.966 16.163 25.047 16.205 L 25.044 16.217 L 24.46 16.082 L 24.315 16.707 Z M 26.595 14.517 L 27.107 12.297 C 26.893 12.218 26.667 12.181 26.439 12.188 C 26.223 12.194 26.01 12.242 25.812 12.33 C 25.62 12.417 25.452 12.543 25.309 12.71 C 25.162 12.884 25.06 13.092 25.012 13.315 C 24.96 13.524 24.957 13.742 25.001 13.953 C 25.045 14.152 25.126 14.332 25.242 14.492 C 25.359 14.652 25.506 14.789 25.684 14.902 C 26.06 15.129 26.499 15.233 26.937 15.197 C 27.339 15.171 27.707 14.965 27.941 14.637 C 28.061 14.472 28.148 14.271 28.203 14.033 C 28.24 13.869 28.254 13.707 28.244 13.547 C 28.235 13.391 28.199 13.239 28.139 13.095 C 28.013 12.8 27.781 12.562 27.489 12.428 L 27.344 13.058 C 27.484 13.14 27.594 13.264 27.659 13.412 C 27.716 13.573 27.722 13.748 27.676 13.912 C 27.651 14.037 27.597 14.155 27.52 14.257 C 27.452 14.344 27.365 14.414 27.266 14.463 C 27.165 14.511 27.056 14.539 26.945 14.546 C 26.828 14.554 26.71 14.545 26.595 14.518 L 26.595 14.517 Z M 26.413 19.384 C 26.359 19.647 26.174 19.865 25.923 19.96 C 25.802 20.007 25.674 20.033 25.545 20.036 C 25.276 20.044 25.009 19.982 24.77 19.857 C 24.655 19.798 24.551 19.719 24.464 19.623 C 24.281 19.427 24.212 19.151 24.279 18.891 C 24.332 18.628 24.516 18.41 24.767 18.314 C 24.882 18.267 25.008 18.241 25.144 18.238 C 25.413 18.231 25.68 18.292 25.919 18.417 C 26.034 18.476 26.138 18.556 26.225 18.651 C 26.409 18.847 26.48 19.124 26.413 19.384 Z M 26.515 12.861 L 26.155 14.417 C 25.945 14.361 25.762 14.233 25.639 14.054 C 25.582 13.968 25.544 13.871 25.526 13.769 C 25.489 13.549 25.544 13.324 25.676 13.145 C 25.804 12.984 25.991 12.881 26.196 12.858 C 26.301 12.844 26.408 12.845 26.515 12.861 Z"/>
</svg>
