<?xml version="1.0" encoding="utf-8"?>
<svg fill="#d1d1d1" viewBox="0 0 32 32" xmlns="http://www.w3.org/2000/svg">
  <path d="M 11.706 19.296 L 12.231 17.006 L 13.76 17.006 L 12.497 24 L 17.372 24 C 20.389 24 22.248 22.653 22.704 20.127 L 22.932 18.862 C 23.227 17.226 22.832 16.092 21.66 15.491 C 22.844 14.912 23.533 13.909 23.806 12.401 L 23.906 11.845 C 24.373 9.255 23.109 8 19.99 8 L 15.384 8 L 14.242 14.329 L 9.664 14.326 L 9.154 16.769 L 4 16.769 L 11.706 19.296 Z M 16.772 16.549 L 18.262 16.549 C 19.775 16.549 20.309 17.163 20.031 18.706 L 19.786 20.06 C 19.568 21.267 18.926 21.779 17.773 21.779 L 15.828 21.779 L 16.772 16.549 Z M 17.915 10.22 L 19.51 10.22 C 20.69 10.22 21.157 10.84 20.932 12.088 L 20.775 12.955 C 20.545 14.233 19.791 14.785 18.503 14.785 L 17.09 14.785 L 17.915 10.22 Z" fill-rule="evenodd"/>
</svg>
