<?xml version="1.0" encoding="utf-8"?>
<svg fill="#d1d1d1" width="32" height="32" viewBox="0 0 32 32" xmlns="http://www.w3.org/2000/svg">
  <path d="M 14.96 5.75 L 11.333 5.75 L 10.031 13.091 L 14.65 13.091 L 9.163 18.038 L 8 24.695 C 8 24.695 12.387 24.819 16.107 24.695 C 19.842 24.57 24.197 21.366 24.833 17.742 C 25.701 12.842 22.896 10.945 22.896 10.945 L 20.354 13.434 C 20.354 13.434 22.493 15.814 20.524 19.08 C 18.587 22.284 12.154 21.693 12.154 21.693 L 12.65 18.878 L 21.702 10.043 L 14.2 10.043 L 14.96 5.75 Z M 20.927 10.338 L 12.387 18.768 L 11.813 21.988 C 11.813 21.988 13.72 22.128 15.223 21.988 C 16.727 21.833 18.416 21.211 18.416 21.211 L 13.952 24.461 L 8.264 24.461 L 9.38 18.146 L 15.285 12.827 L 10.263 12.827 L 14.324 10.338 L 20.927 10.338 Z"/>
</svg>
