<?xml version="1.0" encoding="utf-8"?>
<svg fill="#d1d1d1" width="32" height="32" viewBox="0 0 32 32" xmlns="http://www.w3.org/2000/svg">
  <path d="M 16.017 21.804 C 15.253 21.839 14.49 21.696 13.79 21.388 C 13.052 21.07 12.392 20.598 11.853 20.002 C 10.957 19.022 10.464 17.739 10.473 16.411 C 10.447 15.671 10.548 14.931 10.771 14.225 C 10.97 13.629 11.271 13.072 11.659 12.579 C 12.106 12.006 12.665 11.531 13.302 11.181 C 13.895 10.853 14.548 10.647 15.222 10.575 C 15.77 10.505 16.326 10.512 16.872 10.596 C 17.572 10.712 18.242 10.97 18.838 11.354 C 19.455 11.749 19.987 12.265 20.4 12.87 C 20.451 12.941 20.51 12.97 20.586 12.895 L 21.074 12.406 C 21.234 12.246 21.407 12.091 21.55 11.926 C 21.693 11.762 21.866 11.636 22.017 11.476 C 22.451 11.017 22.91 10.579 23.357 10.129 C 23.432 10.053 23.44 10.015 23.52 10.149 C 23.6 10.284 23.71 10.399 23.798 10.524 C 24.624 11.666 25.185 12.978 25.44 14.364 C 25.508 14.702 25.549 15.044 25.563 15.388 C 25.595 15.993 25.583 16.599 25.525 17.202 C 25.429 17.989 25.247 18.762 24.982 19.51 C 24.686 20.306 24.287 21.059 23.794 21.75 C 23.71 21.855 23.697 21.93 23.794 22.028 C 24.262 22.491 24.724 22.966 25.188 23.434 C 25.327 23.598 25.365 23.594 25.487 23.434 C 26.287 22.387 26.905 21.214 27.318 19.964 C 27.488 19.46 27.628 18.947 27.739 18.428 C 27.87 17.808 27.904 17.173 27.971 16.545 C 28.03 15.994 27.908 15.442 27.908 14.891 C 27.909 14.88 27.909 14.868 27.908 14.857 C 27.778 14.263 27.723 13.657 27.554 13.063 C 27.354 12.342 27.094 11.638 26.779 10.958 C 26.386 10.135 25.899 9.361 25.327 8.651 C 24.876 8.081 24.377 7.55 23.837 7.063 C 23.659 6.903 23.617 6.908 23.453 7.084 L 22.051 8.574 L 21.078 9.602 C 21.015 9.67 20.952 9.703 20.872 9.632 C 20.465 9.304 20.023 9.022 19.554 8.79 C 19.11 8.552 18.639 8.367 18.152 8.238 C 17.581 8.069 16.991 7.975 16.396 7.96 C 16.332 7.964 16.267 7.964 16.203 7.96 C 15.84 7.931 15.475 7.94 15.113 7.985 C 14.643 8.03 14.179 8.12 13.727 8.255 C 13.17 8.415 12.632 8.636 12.123 8.912 C 10.781 9.622 9.666 10.696 8.906 12.011 C 8.552 12.635 8.278 13.302 8.089 13.994 C 7.976 14.447 7.895 14.907 7.845 15.371 C 7.779 15.84 7.772 16.315 7.824 16.785 C 7.872 17.427 7.991 18.061 8.177 18.676 C 8.29 19.013 8.416 19.343 8.557 19.666 C 8.742 20.076 8.967 20.468 9.226 20.836 C 9.686 21.511 10.239 22.117 10.868 22.638 C 11.565 23.214 12.359 23.66 13.213 23.956 C 14.205 24.288 15.25 24.431 16.295 24.377 C 17.115 24.347 17.927 24.197 18.704 23.931 C 19.332 23.712 19.928 23.41 20.476 23.034 C 20.611 22.941 20.616 22.904 20.502 22.785 L 18.922 21.16 C 18.861 21.07 18.735 21.054 18.653 21.126 C 18.435 21.266 18.203 21.381 17.958 21.468 C 17.343 21.72 16.681 21.834 16.018 21.804 L 16.017 21.804 Z M 25.037 23.711 L 20.777 19.374 C 20.684 19.277 20.607 19.274 20.532 19.374 C 20.231 19.813 19.866 20.205 19.45 20.536 C 19.349 20.616 19.349 20.679 19.45 20.772 C 19.833 21.155 20.212 21.547 20.591 21.93 C 21.084 22.431 21.576 22.932 22.073 23.433 C 22.161 23.521 22.157 23.563 22.073 23.639 C 21.875 23.787 21.681 23.939 21.475 24.06 C 20.395 24.805 19.17 25.314 17.879 25.551 C 17.378 25.665 16.865 25.724 16.351 25.728 L 16.145 25.728 C 15.781 25.753 15.415 25.742 15.055 25.694 C 14.633 25.631 14.237 25.58 13.837 25.492 C 13.33 25.377 12.834 25.217 12.355 25.016 C 11.541 24.677 10.777 24.228 10.085 23.681 C 9.402 23.143 8.792 22.518 8.271 21.821 C 7.722 21.091 7.285 20.284 6.974 19.425 C 6.633 18.584 6.439 17.691 6.401 16.785 C 6.394 16.689 6.394 16.594 6.401 16.498 L 6.401 15.505 C 6.378 15.398 6.378 15.287 6.401 15.18 C 6.401 15.1 6.435 15.025 6.448 14.945 C 6.49 14.572 6.556 14.202 6.646 13.837 C 6.761 13.347 6.914 12.867 7.105 12.401 C 7.953 10.325 9.494 8.608 11.467 7.542 C 12.634 6.894 13.926 6.505 15.257 6.402 L 15.5 6.402 C 16.885 6.314 18.273 6.533 19.564 7.042 L 19.926 7.193 C 20.478 7.438 21.007 7.732 21.505 8.073 C 21.581 8.142 21.7 8.131 21.761 8.048 C 22.208 7.538 22.679 7.054 23.147 6.566 C 23.235 6.473 23.239 6.389 23.147 6.313 C 21.604 5.191 19.815 4.452 17.93 4.157 C 17.389 4.071 16.843 4.019 16.296 4.001 C 15.448 3.988 14.601 4.067 13.77 4.237 C 13.239 4.342 12.716 4.483 12.204 4.658 C 11.292 4.963 10.422 5.381 9.614 5.9 C 8.644 6.52 7.767 7.272 7.008 8.136 C 5.994 9.286 5.212 10.622 4.705 12.069 C 4.493 12.681 4.325 13.307 4.204 13.943 C 4.111 14.5 4.048 15.063 4.014 15.627 C 3.98 16.233 4.008 16.841 4.098 17.441 C 4.164 18.038 4.278 18.628 4.439 19.206 C 4.553 19.597 4.667 19.989 4.814 20.368 C 5.108 21.128 5.477 21.858 5.917 22.545 C 6.464 23.39 7.11 24.167 7.841 24.86 C 8.314 25.296 8.821 25.693 9.357 26.048 C 10.075 26.539 10.847 26.948 11.657 27.265 C 12.463 27.585 13.304 27.813 14.161 27.947 C 14.804 28.043 15.453 28.099 16.103 28.115 C 16.523 28.115 16.945 28.048 17.34 28.039 C 17.64 28.017 17.937 27.972 18.229 27.905 C 18.553 27.85 18.873 27.765 19.193 27.681 C 20.39 27.368 21.527 26.862 22.561 26.182 C 23.498 25.582 24.348 24.857 25.088 24.027 C 25.21 23.887 25.206 23.863 25.038 23.711 L 25.037 23.711 Z"/>
</svg>
