<?xml version="1.0" encoding="utf-8"?>
<svg fill="#d1d1d1" width="32" height="32" viewBox="0 0 32 32" xmlns="http://www.w3.org/2000/svg">
  <path d="M 14.09 4.261 C 13.285 4.399 12.496 4.619 11.736 4.918 C 10.368 5.461 9.106 6.239 8.007 7.218 C 7.121 7.988 6.385 8.924 5.755 9.911 C 5.715 9.981 5.677 10.05 5.643 10.121 C 5.526 10.32 5.417 10.524 5.317 10.732 C 5.217 10.904 5.135 11.085 5.071 11.273 L 5.018 11.336 C 4.991 11.427 4.958 11.516 4.918 11.603 C 4.851 11.793 4.786 11.983 4.714 12.17 C 4.675 12.275 4.642 12.38 4.609 12.485 C 4.476 12.897 4.371 13.316 4.294 13.742 C 4.217 13.981 4.229 14.235 4.168 14.478 C 4.106 14.777 4.126 15.084 4.078 15.384 C 4.034 15.744 4.058 16.11 4.058 16.472 C 4.121 16.906 4.102 17.35 4.2 17.78 C 4.21 17.963 4.242 18.145 4.296 18.32 C 4.321 18.476 4.355 18.63 4.399 18.783 C 4.51 19.279 4.657 19.767 4.839 20.242 C 4.916 20.459 5.032 20.662 5.074 20.89 L 5.132 20.916 C 5.464 21.712 5.917 22.456 6.429 23.149 C 6.686 23.514 6.985 23.849 7.276 24.187 C 7.458 24.377 7.644 24.56 7.832 24.743 C 8.009 24.916 8.218 25.053 8.382 25.24 C 8.432 25.273 8.516 25.365 8.562 25.273 C 8.711 25.061 8.876 24.857 9.09 24.707 C 9.807 24.317 10.63 24.222 11.426 24.107 C 12.124 23.987 12.829 23.903 13.522 23.761 C 15.055 23.475 16.592 23.031 17.914 22.179 C 18.302 21.932 18.647 21.628 18.99 21.323 C 18.883 21.325 18.777 21.335 18.672 21.353 C 18.398 21.445 18.113 21.497 17.835 21.575 C 17.399 21.691 16.959 21.792 16.515 21.872 C 15.669 22.026 14.795 22.128 13.935 22.016 C 13.292 21.916 12.635 21.748 12.104 21.354 C 11.464 20.939 11.014 20.286 10.724 19.589 C 10.502 19.098 10.381 18.566 10.28 18.041 C 10.228 17.854 10.201 17.661 10.198 17.467 C 10.195 17.257 10.138 17.05 10.138 16.84 C 10.133 16.21 10.115 15.58 10.153 14.95 C 10.21 14.675 10.229 14.395 10.263 14.117 C 10.367 13.693 10.436 13.262 10.577 12.849 C 10.647 12.655 10.721 12.462 10.8 12.271 C 10.908 12.004 11.04 11.749 11.17 11.494 C 11.316 11.254 11.47 11.02 11.627 10.789 C 12.454 9.697 13.597 8.88 14.84 8.324 C 15.509 8.057 16.185 7.799 16.888 7.641 C 18.455 7.216 20.08 7.093 21.676 6.819 C 22.03 6.741 22.402 6.684 22.713 6.485 C 22.847 6.398 22.928 6.178 22.777 6.068 C 22.235 5.562 21.536 5.282 20.869 4.984 C 19.952 4.636 19.012 4.326 18.037 4.192 C 17.536 4.1 17.028 4.055 16.519 4.055 C 15.705 4.032 14.889 4.101 14.091 4.261 L 14.09 4.261 Z M 23.241 7.39 C 22.832 7.655 22.349 7.751 21.872 7.851 C 20.509 8.085 19.125 8.201 17.773 8.505 C 17.156 8.65 16.536 8.797 15.939 9.018 C 14.9 9.39 13.911 9.934 13.103 10.694 C 13.671 10.586 14.225 10.418 14.787 10.285 C 15.987 10.015 17.238 9.795 18.463 10.023 C 19.201 10.151 19.916 10.486 20.441 11.025 C 21.128 11.695 21.491 12.622 21.698 13.542 C 21.925 14.608 21.95 15.702 21.905 16.788 C 21.815 18.246 21.439 19.718 20.625 20.945 C 20.058 21.815 19.288 22.541 18.415 23.098 C 17.128 23.933 15.641 24.388 14.154 24.708 C 13.259 24.906 12.348 25.007 11.446 25.164 C 10.947 25.241 10.448 25.322 9.962 25.463 C 9.794 25.518 9.613 25.595 9.512 25.75 C 9.446 25.877 9.51 26.023 9.611 26.111 C 10.001 26.501 10.499 26.759 10.999 26.979 C 11.919 27.374 12.886 27.645 13.876 27.784 C 15.167 27.961 16.486 28.012 17.778 27.821 C 20.589 27.432 23.227 25.966 25.065 23.809 C 29.397 18.772 28.814 11.175 23.764 6.858 C 23.612 7.055 23.46 7.262 23.241 7.39 Z"/>
</svg>
