<?xml version="1.0" encoding="utf-8"?>
<svg fill="#d1d1d1" viewBox="0 0 32 32" xmlns="http://www.w3.org/2000/svg">
  <path d="M 16 6 L 14.34 9.016 C 14.152 9.344 13.815 9.314 13.477 9.131 L 12.277 8.524 L 13.171 13.157 C 13.36 14.004 12.756 14.004 12.458 13.637 L 10.36 11.35 L 10.02 12.512 C 9.98 12.665 9.808 12.825 9.549 12.787 L 6.899 12.243 L 7.594 14.711 C 7.744 15.26 7.86 15.487 7.444 15.631 L 6.499 16.065 L 11.062 19.677 C 11.247 19.818 11.33 20.057 11.27 20.282 L 10.87 21.56 C 12.442 21.383 13.85 21.118 15.422 20.954 C 15.561 20.94 15.793 21.163 15.792 21.32 L 15.585 26 L 16.349 26 L 16.229 21.33 C 16.228 21.173 16.439 20.94 16.577 20.954 C 18.149 21.118 19.557 21.384 21.128 21.56 L 20.729 20.282 C 20.669 20.057 20.751 19.818 20.937 19.677 L 25.5 16.065 L 24.555 15.632 C 24.139 15.487 24.255 15.26 24.405 14.711 L 25.101 12.243 L 22.45 12.787 C 22.191 12.825 22.018 12.665 21.98 12.512 L 21.639 11.35 L 19.542 13.638 C 19.244 14.004 18.64 14.004 18.829 13.158 L 19.724 8.524 L 18.523 9.131 C 18.185 9.314 17.848 9.344 17.66 9.016 L 16 6 Z" fill-rule="evenodd"/>
</svg>
