<?xml version="1.0" encoding="utf-8"?>
<svg fill="#d1d1d1" height="32" viewBox="0 0 32 32" width="32" xmlns="http://www.w3.org/2000/svg">
  <path d="M 27 16.03 C 26.975 9.971 22.128 5.057 16.12 5 L 16.12 7.802 C 20.064 7.8 23.436 10.665 24.104 14.584 L 20.214 14.584 C 20.364 15.042 20.442 15.519 20.448 16 C 20.447 16.482 20.368 16.96 20.214 17.416 L 24.104 17.416 C 23.445 21.341 20.068 24.21 16.12 24.198 L 16.12 27 C 19.006 27 21.773 25.845 23.814 23.788 C 25.858 21.723 27.003 18.934 27 16.029 L 27 16.03 Z M 19.746 18.389 C 18.473 20.413 15.792 21.009 13.781 19.715 C 11.77 18.42 11.181 15.727 12.465 13.7 C 13.738 11.676 16.419 11.079 18.43 12.373 C 18.952 12.723 19.4 13.173 19.746 13.7 L 22.818 13.7 C 21.682 10.395 18.346 8.4 14.925 8.98 C 11.505 9.56 9 12.547 9 16.044 C 9 19.541 11.505 22.528 14.925 23.108 C 18.346 23.688 21.682 21.694 22.818 18.388 L 19.746 18.389 Z"/>
</svg>
