<?xml version="1.0" encoding="utf-8"?>
<svg fill="#d1d1d1" width="32" height="32" viewBox="0 0 32 32" xmlns="http://www.w3.org/2000/svg">
  <path fill-rule="evenodd" d="M 12.984 10.622 C 13.148 10.642 13.266 10.65 13.382 10.67 C 14.465 10.856 15.547 11.05 16.632 11.23 C 17.995 11.458 18.899 12.336 19.03 13.665 C 19.095 14.328 19.021 15.005 19.06 15.672 C 19.071 15.874 19.205 16.153 19.364 16.239 C 19.527 16.326 19.851 16.299 19.996 16.182 C 20.935 15.421 21.858 14.638 22.762 13.836 C 22.888 13.726 22.966 13.499 22.976 13.322 C 23.006 12.765 23.002 12.206 22.995 11.647 C 22.97 9.681 21.705 8.119 19.814 7.733 C 18.748 7.516 17.67 7.36 16.609 7.123 C 14.698 6.695 13.091 7.392 12.1 9.11 C 12.009 9.26 11.87 9.375 11.706 9.436 C 10.23 9.916 9.066 11.369 9.04 12.935 C 8.994 15.441 8.988 17.947 9.021 20.453 C 9.048 22.315 10.283 23.871 11.955 24.229 C 13.253 24.507 14.557 24.784 15.871 24.959 C 17.474 25.171 18.971 24.574 19.843 23.023 C 19.958 22.797 20.16 22.627 20.403 22.553 C 21.82 22.073 22.924 20.575 22.973 19.053 C 22.999 18.211 22.981 17.366 22.993 16.523 C 22.998 16.185 22.914 15.917 22.593 15.762 C 22.289 15.615 22.057 15.745 21.831 15.935 C 21.001 16.635 20.158 17.322 19.347 18.045 C 19.188 18.186 19.077 18.463 19.067 18.683 C 19.032 19.426 19.057 20.171 19.052 20.916 C 19.049 21.402 19.032 21.411 18.547 21.357 C 18.475 21.349 18.403 21.342 18.332 21.328 C 17.31 21.138 16.29 20.938 15.266 20.759 C 13.849 20.511 12.956 19.451 12.954 17.975 C 12.95 15.729 12.952 13.483 12.954 11.237 C 12.954 11.053 12.972 10.869 12.984 10.622 Z M 21.627 17.878 C 21.828 19.343 21.327 20.576 20.365 20.982 C 20.365 20.322 20.363 19.685 20.369 19.047 C 20.369 18.994 20.411 18.928 20.453 18.891 C 20.827 18.564 21.205 18.241 21.627 17.878 Z M 20.469 13.981 C 20.319 13.389 20.244 12.777 20.009 12.238 C 19.403 10.848 18.294 10.12 16.841 9.884 C 15.783 9.712 14.731 9.495 13.601 9.284 C 14.067 8.752 14.574 8.427 15.195 8.406 C 15.707 8.389 16.229 8.463 16.738 8.55 C 17.738 8.719 18.736 8.902 19.726 9.122 C 20.828 9.368 21.624 10.395 21.67 11.558 C 21.674 11.658 21.671 11.756 21.67 11.856 C 21.667 13.122 21.54 13.343 20.47 13.981 L 20.469 13.981 Z M 11.646 10.973 L 11.646 11.499 C 11.646 13.731 11.644 15.962 11.646 18.194 C 11.649 20.146 13.117 21.823 15.01 22.104 C 16.116 22.269 17.21 22.509 18.377 22.728 C 18.011 23.242 17.547 23.461 17.027 23.591 C 16.391 23.749 15.781 23.567 15.165 23.447 C 14.193 23.259 13.212 23.115 12.251 22.881 C 11.129 22.607 10.351 21.598 10.342 20.421 C 10.322 17.991 10.315 15.561 10.349 13.131 C 10.362 12.231 10.786 11.507 11.646 10.973 Z"/>
</svg>
