<?xml version="1.0" encoding="utf-8"?>
<svg fill="#d1d1d1" width="32" height="32" viewBox="0 0 32 32" xmlns="http://www.w3.org/2000/svg">
  <path fill-rule="evenodd" d="M 16.28 23.325 C 17.308 24.036 18.612 24.459 20.024 24.459 C 20.375 24.459 20.722 24.433 21.063 24.382 C 21.18 24.43 21.293 24.489 21.432 24.569 C 21.732 24.745 22.133 25.015 22.632 25.379 C 23.041 25.678 23.62 25.389 23.62 24.886 L 23.62 23.425 C 23.83 23.289 24.028 23.142 24.215 22.983 C 25.345 22.025 26 20.715 26 19.31 C 26 18.385 25.72 17.52 25.228 16.773 C 25.073 17.303 24.863 17.816 24.601 18.303 C 24.705 18.626 24.76 18.963 24.76 19.31 C 24.76 20.344 24.272 21.32 23.408 22.052 C 23.185 22.24 22.945 22.407 22.691 22.551 C 22.499 22.659 22.381 22.862 22.38 23.082 L 22.38 23.706 C 21.787 23.326 21.38 23.147 21.07 23.147 C 21.035 23.147 21 23.15 20.966 23.156 C 20.097 23.301 19.207 23.243 18.364 22.986 C 17.682 23.163 16.984 23.277 16.281 23.326 L 16.28 23.325 Z M 8.814 20.403 C 9.144 20.682 9.493 20.938 9.858 21.168 L 9.858 23.66 C 9.858 24.29 10.583 24.65 11.094 24.276 C 12.504 23.246 13.484 22.664 13.729 22.606 C 14.295 22.696 14.873 22.741 15.457 22.741 C 20.657 22.741 24.915 19.134 24.915 14.621 C 24.915 10.107 20.656 6.5 15.457 6.5 C 10.258 6.5 6 10.107 6 14.62 C 6 16.83 7.03 18.891 8.814 20.403 Z M 13.763 21.069 C 13.26 21.069 12.525 21.424 11.409 22.173 L 11.409 20.736 C 11.408 20.461 11.259 20.207 11.019 20.072 C 10.595 19.832 10.195 19.553 9.823 19.239 C 8.37 18.01 7.55 16.366 7.55 14.62 C 7.55 11.01 11.066 8.032 15.457 8.032 C 19.849 8.032 23.364 11.01 23.364 14.62 C 23.364 18.23 19.849 21.209 15.457 21.209 C 14.927 21.209 14.404 21.165 13.893 21.079 C 13.85 21.072 13.807 21.069 13.763 21.069 Z M 11.426 16.153 C 12.111 16.153 12.666 15.603 12.666 14.927 C 12.666 14.25 12.111 13.701 11.426 13.701 C 10.741 13.701 10.186 14.25 10.186 14.927 C 10.186 15.604 10.741 16.153 11.426 16.153 Z M 15.457 16.153 C 16.142 16.153 16.697 15.603 16.697 14.927 C 16.697 14.25 16.142 13.701 15.457 13.701 C 14.772 13.701 14.217 14.25 14.217 14.927 C 14.217 15.604 14.772 16.153 15.457 16.153 Z M 19.488 16.153 C 20.173 16.153 20.728 15.603 20.728 14.927 C 20.728 14.25 20.173 13.701 19.488 13.701 C 18.803 13.701 18.248 14.25 18.248 14.927 C 18.248 15.604 18.803 16.153 19.488 16.153 Z"/>
</svg>
