<?xml version="1.0" encoding="utf-8"?>
<svg fill="#d1d1d1" height="32" viewBox="0 0 32 32" width="32" xmlns="http://www.w3.org/2000/svg">
  <path d="M 13.548 25.408 C 14.553 25.742 15.603 25.923 16.688 25.981 C 17.396 26.026 18.107 25.998 18.81 25.899 C 20.001 25.73 21.148 25.332 22.189 24.729 C 22.459 24.572 22.711 24.387 22.966 24.218 L 19.894 21.18 C 19.861 21.205 19.821 21.239 19.778 21.265 C 19.474 21.449 19.185 21.667 18.862 21.807 C 17.968 22.195 17.032 22.279 16.084 22.131 C 15.239 23.223 14.393 24.316 13.548 25.408 Z M 12.582 25.032 C 12.586 24.981 12.598 24.93 12.618 24.883 L 14.063 21.393 C 13.643 21.126 13.264 20.799 12.939 20.422 C 12.417 19.825 12.014 19.134 11.749 18.387 L 11.637 18.401 C 11.196 18.459 10.891 17.983 11.139 17.623 L 11.447 17.176 C 11.396 16.844 11.366 16.508 11.358 16.172 C 11.342 15.518 11.417 14.872 11.575 14.237 C 11.948 12.738 12.745 11.522 14.075 10.677 C 14.8 10.213 15.627 9.934 16.484 9.862 C 17.341 8.617 18.199 7.373 19.056 6.128 C 18.659 6.065 18.256 6.025 17.846 6.008 C 17.183 5.978 16.513 6.036 15.85 6.092 C 14.972 6.171 14.109 6.369 13.285 6.682 C 11.548 7.33 10.08 8.339 8.962 9.812 C 7.751 11.41 7.15 13.226 7.027 15.2 C 6.979 15.97 6.993 16.742 7.089 17.508 C 7.214 18.497 7.465 19.454 7.875 20.368 C 8.669 22.136 9.899 23.525 11.586 24.518 C 11.912 24.71 12.244 24.881 12.582 25.032 Z M 20.025 6.334 C 20.046 6.427 20.039 6.525 20.005 6.614 L 19.971 6.702 L 18.688 10.077 C 19.113 10.211 19.514 10.407 19.888 10.673 C 20.01 10.759 20.073 10.743 20.173 10.643 C 21.081 9.743 21.993 8.847 22.905 7.949 C 22.934 7.921 22.958 7.889 23 7.841 L 22.917 7.783 C 22.785 7.68 22.659 7.569 22.521 7.475 C 21.759 6.957 20.915 6.571 20.025 6.334 Z M 16.321 17.282 L 13.098 25.071 L 13.141 25.101 L 22.041 13.591 L 16.465 14.471 L 19.52 6.441 L 19.476 6.421 L 11.568 17.903 L 16.321 17.283 L 16.321 17.282 Z"/>
</svg>
