<?xml version="1.0" encoding="utf-8"?>
<svg fill="#d1d1d1" width="32" height="32" viewBox="0 0 32 32" xmlns="http://www.w3.org/2000/svg">
  <path d="M 18.503 5.5 L 16.781 6.478 L 16.781 14.782 L 17.721 15.316 L 17.721 8.992 L 20.951 10.825 L 20.954 10.824 L 21.581 11.179 L 22.105 10.884 L 22.105 10.384 L 17.722 7.9 L 17.722 7.036 L 18.503 6.592 L 23.043 9.169 L 23.043 11.463 L 20.863 12.693 L 20.79 12.656 C 20.694 12.608 20.591 12.577 20.485 12.564 L 20.382 12.557 C 19.902 12.56 19.501 12.922 19.448 13.399 L 19.442 13.51 C 19.44 13.99 19.796 14.395 20.272 14.456 L 20.382 14.463 C 20.824 14.461 21.205 14.15 21.295 13.717 L 21.312 13.607 L 21.32 13.525 L 23.52 12.284 L 25.56 13.442 L 25.56 18.565 L 23.517 19.723 L 15.219 15.011 L 15.219 6.478 L 13.496 5.5 L 8.017 8.61 L 8.017 11.45 L 5.5 12.877 L 5.5 19.117 L 8.017 20.546 L 8.017 23.389 L 13.497 26.5 L 15.219 25.522 L 15.219 17.2 L 14.279 16.666 L 14.279 23.008 L 10.419 20.821 L 9.895 21.116 L 9.895 21.616 L 14.278 24.1 L 14.278 24.964 L 13.496 25.408 L 8.957 22.831 L 8.957 20.537 L 11.137 19.308 L 11.21 19.344 C 11.31 19.393 11.412 19.424 11.515 19.436 L 11.618 19.442 C 12.1 19.442 12.498 19.074 12.552 18.601 L 12.558 18.49 C 12.56 18.01 12.204 17.605 11.728 17.544 L 11.618 17.537 C 11.176 17.539 10.796 17.85 10.706 18.283 L 10.688 18.393 L 10.68 18.475 L 8.48 19.716 L 6.44 18.558 L 6.44 13.435 L 8.483 12.277 L 16.781 16.989 L 16.781 25.522 L 18.503 26.5 L 23.983 23.39 L 23.983 20.55 L 26.5 19.123 L 26.5 12.883 L 23.983 11.455 L 23.983 8.611 L 18.503 5.5 Z M 23.043 21.084 L 23.043 22.831 L 18.503 25.408 L 17.722 24.964 L 17.722 24.1 L 23.042 21.084 L 23.043 21.084 Z M 17.722 17.524 L 22.555 20.268 L 17.722 23.008 L 17.722 17.523 L 17.722 17.524 Z M 14.278 8.992 L 14.278 14.476 L 9.445 11.732 L 14.278 8.992 Z M 13.496 6.592 L 14.278 7.036 L 14.278 7.9 L 8.958 10.916 L 8.958 9.17 L 13.496 6.593 L 13.496 6.592 Z"/>
</svg>
