<?xml version="1.0" encoding="utf-8"?>
<svg fill="#d1d1d1" width="32" height="32" viewBox="0 0 32 32" xmlns="http://www.w3.org/2000/svg">
  <path d="M 24.668 18.863 L 18.034 22.522 L 15.242 18.793 L 7.169 23.045 L 7.169 23.985 L 15 19.862 L 17.792 23.59 L 25.156 19.528 L 25.301 20.798 L 26.921 18.162 L 25.966 18.173 L 25.966 18.148 L 25.918 18.174 L 23.608 18.201 L 24.667 18.864 L 24.668 18.863 Z M 14.556 17.958 L 14.556 8.644 L 11.496 8.644 L 11.496 19.569 L 14.556 17.958 Z M 23.209 18.439 L 23.209 8.644 L 20.149 8.644 L 20.149 20.139 L 23.209 18.439 Z M 18.883 20.843 L 18.883 9.893 L 15.822 9.893 L 15.822 17.997 L 18.226 21.207 L 18.883 20.843 Z M 10.229 20.236 L 10.229 11.312 L 7.169 11.312 L 7.169 21.848 L 10.229 20.236 Z"/>
  <path d="M18.883 20.843l-.657.364-2.404-3.21V9.894h3.06v10.949zm-8.654-.607l-3.06 1.612V11.312h3.06v8.924z" opacity=".5"/>
</svg>
