<?xml version="1.0" encoding="utf-8"?>
<svg fill="#d1d1d1" viewBox="0 0 32 32" xmlns="http://www.w3.org/2000/svg">
  <path d="M 17.81 7.87 C 17.81 8.753 17.782 11.875 17.435 15.023 C 17.108 17.99 16.589 21.246 16.47 21.977 C 16.62 21.991 16.762 22.014 16.896 22.044 C 17.182 21.469 18.589 18.585 19.234 16.418 C 19.972 13.938 20.398 10.63 20.41 9.292 L 20.412 9.051 C 20.167 8.678 19.633 7.983 18.942 7.797 C 18.338 7.635 17.987 7.707 17.809 7.781 L 17.81 7.87 Z M 20.709 9.294 C 20.696 10.649 20.266 13.995 19.52 16.501 C 18.887 18.63 17.53 21.434 17.19 22.121 C 17.336 22.167 17.478 22.222 17.615 22.288 C 17.98 21.818 19.653 19.625 20.701 17.643 C 21.936 15.303 23.084 12.201 23.239 11.599 L 23.303 11.352 C 23.166 10.934 22.838 10.156 22.202 9.747 C 21.545 9.324 20.97 9.277 20.709 9.283 L 20.709 9.294 Z M 20.966 17.778 C 19.933 19.733 18.301 21.886 17.88 22.431 C 18.054 22.535 18.217 22.655 18.368 22.791 C 18.816 22.356 20.685 20.524 21.929 18.98 C 23.365 17.197 24.792 14.695 25.026 14.152 L 25.147 13.87 C 25.114 13.51 25.012 12.94 24.703 12.518 C 24.341 12.024 23.785 11.775 23.526 11.681 C 23.33 12.426 22.142 15.551 20.966 17.778 Z M 11.005 9.526 C 11.117 10.403 11.649 13.183 12.577 16.178 C 13.409 18.863 14.647 21.543 14.925 22.134 C 15.069 22.087 15.217 22.05 15.366 22.024 C 15.256 21.384 14.69 18.02 14.339 14.857 C 13.955 11.4 13.799 8.471 13.778 7.876 L 13.776 7.817 C 13.515 7.741 12.931 7.647 12.182 7.99 C 11.492 8.305 11.132 8.897 10.97 9.252 L 11.005 9.526 Z M 14.076 7.866 C 14.097 8.458 14.253 11.377 14.636 14.826 C 14.987 17.994 15.556 21.366 15.662 21.981 C 15.805 21.967 15.948 21.959 16.092 21.959 L 16.17 21.961 C 16.278 21.297 16.807 17.994 17.138 14.991 C 17.484 11.858 17.511 8.749 17.511 7.871 L 17.511 7.729 C 17.23 7.483 16.578 7 15.78 7 C 14.983 7 14.345 7.483 14.071 7.73 L 14.075 7.866 L 14.076 7.866 Z M 16.092 22.253 C 14.464 22.253 13.722 23.21 13.502 23.565 C 14.878 24.56 15.753 25 16.105 25 C 16.457 25 17.454 24.467 18.679 23.608 C 18.454 23.234 17.709 22.253 16.092 22.253 Z M 25.293 14.285 C 25.036 14.868 23.603 17.377 22.163 19.163 C 20.911 20.717 19.035 22.557 18.579 22.998 C 18.705 23.134 18.819 23.281 18.919 23.437 C 19.896 22.733 20.828 21.969 21.71 21.15 C 24.062 18.961 25.935 16.797 25.997 15.706 C 26.043 15.139 25.772 14.592 25.293 14.285 Z M 6.82 14.073 C 7.357 15.414 8.38 17.003 9.862 18.795 C 11.053 20.233 12.361 21.569 13.772 22.791 C 13.872 22.701 13.979 22.617 14.091 22.541 C 13.673 22.053 12.181 20.233 10.808 17.6 C 9.27 14.65 8.686 12.61 8.436 11.738 L 8.399 11.608 L 8.397 11.602 C 8.053 11.693 7.185 11.977 6.844 12.597 C 6.691 12.883 6.612 13.202 6.613 13.526 C 6.678 13.71 6.747 13.892 6.82 14.073 Z M 13.56 23.001 C 12.142 21.771 10.827 20.427 9.63 18.981 C 8.182 17.229 7.166 15.666 6.603 14.329 C 6.393 14.511 5.954 14.999 6.003 15.862 C 6.069 16.993 7.718 18.784 10.729 21.358 C 11.548 22.065 12.393 22.742 13.261 23.388 C 13.35 23.251 13.45 23.121 13.561 23.001 L 13.56 23.001 Z M 8.687 11.527 L 8.724 11.657 C 8.972 12.521 9.55 14.542 11.074 17.466 C 12.468 20.139 13.982 21.96 14.347 22.382 C 14.444 22.329 14.543 22.281 14.645 22.238 C 14.345 21.6 13.12 18.934 12.292 16.264 C 11.358 13.251 10.822 10.448 10.71 9.563 L 10.705 9.529 C 10.212 9.505 9.726 9.65 9.327 9.939 C 8.862 10.278 8.672 10.826 8.595 11.192 C 8.619 11.284 8.648 11.394 8.687 11.527 Z" fill-rule="evenodd"/>
</svg>
