<?xml version="1.0" encoding="utf-8"?>
<svg fill="#d1d1d1" viewBox="0 0 32 32" xmlns="http://www.w3.org/2000/svg">
  <path d="M 16.003 5 C 9.94 5 5.003 9.929 5 15.986 C 4.997 22.053 9.925 26.994 15.986 27 L 15.996 27 C 22.062 27 26.998 22.067 27 16.003 C 27.002 9.946 22.069 5.01 16.003 5 Z M 16 6.418 L 16.001 6.418 C 18.557 6.418 20.961 7.416 22.772 9.228 C 24.574 11.019 25.585 13.457 25.577 15.998 C 25.573 21.278 21.271 25.574 15.987 25.574 C 10.714 25.57 6.425 21.274 6.426 15.998 C 6.428 10.716 10.723 6.418 16 6.418 Z M 20.728 15.017 C 20.279 12.776 18.312 11.163 16.027 11.161 C 15.672 11.161 15.312 11.201 14.957 11.279 C 12.575 11.801 10.99 13.955 11.187 16.399 C 11.28 17.56 11.727 18.536 12.55 19.384 L 12.708 19.547 L 12.918 19.458 L 13.306 19.298 L 13.795 19.102 L 13.408 18.743 C 12.823 18.203 12.432 17.487 12.294 16.703 C 12.071 15.517 12.376 14.409 13.174 13.499 C 13.889 12.685 14.92 12.218 16.004 12.219 C 16.992 12.219 17.922 12.599 18.624 13.286 C 19.423 14.066 19.807 15.014 19.768 16.1 C 19.729 17.186 19.32 18.087 18.551 18.777 L 18.157 19.131 L 18.647 19.335 C 18.77 19.386 18.891 19.441 19.01 19.499 L 19.226 19.605 L 19.396 19.434 C 20.631 18.18 21.067 16.736 20.728 15.017 Z M 9.973 21.307 L 10.217 21.58 L 11.133 20.594 L 10.937 20.367 C 10.246 19.571 9.755 18.621 9.507 17.597 C 9.208 16.401 9.25 15.145 9.627 13.971 C 9.998 12.79 10.694 11.737 11.636 10.934 C 12.851 9.886 14.402 9.31 16.007 9.309 C 17.768 9.309 19.426 9.987 20.674 11.218 C 21.904 12.43 22.576 13.902 22.672 15.592 C 22.775 17.442 22.205 19.082 20.977 20.465 L 20.779 20.688 L 21.677 21.69 L 21.926 21.422 C 23.889 19.317 24.546 16.165 23.601 13.392 C 22.467 10.078 19.315 7.882 15.814 7.966 C 12.415 8.045 9.435 10.254 8.371 13.483 C 7.301 16.741 8.497 19.661 9.973 21.307 Z" fill-rule="evenodd"/>
</svg>
