<?xml version="1.0" encoding="utf-8"?>
<svg fill="#d1d1d1" width="32" height="32" viewBox="0 0 32 32" xmlns="http://www.w3.org/2000/svg">
  <path d="M 16.57 4.007 C 13.868 3.913 11.216 4.751 9.058 6.38 C 8.165 7.051 8.112 8.372 8.948 9.112 C 9.57 9.7 10.528 9.746 11.204 9.221 C 14.635 6.551 19.539 6.946 22.498 10.131 C 23.088 10.741 23.106 11.702 22.54 12.334 C 21.942 12.976 20.936 13.011 20.295 12.412 L 20.218 12.334 C 17.501 9.355 12.578 10.434 11.356 14.276 C 10.134 18.119 13.53 21.843 17.469 20.98 C 18.528 20.748 19.488 20.194 20.218 19.393 C 20.687 18.868 21.45 18.724 22.078 19.04 C 23.011 19.508 23.241 20.736 22.54 21.51 C 19.592 24.737 14.665 25.17 11.2 22.506 C 10.517 21.986 9.559 22.032 8.93 22.616 C 8.1 23.376 8.172 24.706 9.079 25.372 C 16.407 30.807 26.871 26.27 27.913 17.206 C 28.703 10.341 23.475 4.259 16.569 4.008 L 16.57 4.007 Z M 16.35 18.795 C 14.092 18.787 12.69 16.337 13.826 14.386 C 14.354 13.48 15.324 12.925 16.372 12.929 C 18.63 12.937 20.032 15.386 18.896 17.338 C 18.369 18.243 17.399 18.799 16.351 18.795 L 16.35 18.795 Z"/>
</svg>
