<?xml version="1.0" encoding="utf-8"?>
<svg fill="#d1d1d1" height="32" viewBox="0 0 32 32" width="32" xmlns="http://www.w3.org/2000/svg">
  <path d="M 16.276 26 C 17.626 26.008 18.965 25.746 20.213 25.23 C 21.907 24.54 23.324 23.487 24.432 22.044 C 25.516 20.653 26.203 18.995 26.422 17.245 C 26.666 15.327 26.333 13.509 25.515 11.773 C 24.921 10.513 24.067 9.435 23.011 8.513 C 21.584 7.269 19.921 6.501 18.054 6.163 C 16.68 5.913 15.268 5.951 13.909 6.273 C 12.407 6.615 11.001 7.29 9.794 8.247 C 9.54 8.449 9.514 8.607 9.702 8.873 C 9.826 9.049 9.97 9.213 10.114 9.375 C 10.419 9.717 10.555 9.723 10.914 9.443 C 11.637 8.876 12.449 8.433 13.317 8.133 C 14.962 7.567 16.636 7.466 18.34 7.878 C 20.249 8.338 21.829 9.313 23.045 10.822 C 24.781 12.976 25.271 15.429 24.612 18.077 C 24.087 20.187 22.832 21.837 20.994 23.024 C 19.461 24.013 17.764 24.454 15.919 24.39 C 14.182 24.343 12.499 23.769 11.096 22.744 C 10.487 22.306 10.49 22.303 9.976 22.86 L 9.939 22.899 C 9.519 23.351 9.534 23.558 10.027 23.919 C 11.881 25.282 13.957 25.994 16.276 25.999 L 16.276 26 Z M 15.64 19.617 C 15.542 19.611 15.52 19.604 15.507 19.61 C 15.467 19.63 15.428 19.654 15.389 19.676 C 14.919 19.939 14.425 20.035 13.891 19.894 C 13.69 19.841 13.636 19.76 13.755 19.574 C 14.192 18.888 14.345 18.127 14.307 17.332 C 14.26 16.34 13.947 15.452 13.174 14.764 C 12.386 14.046 11.357 13.651 10.291 13.658 C 9.828 13.655 9.364 13.686 8.9 13.703 C 8.705 13.71 8.632 13.633 8.689 13.441 C 8.764 13.182 8.834 12.921 8.9 12.661 C 8.94 12.505 9.027 12.445 9.192 12.444 C 9.929 12.44 10.666 12.43 11.403 12.413 C 12.113 12.396 12.765 12.196 13.335 11.766 C 13.817 11.403 14.077 10.936 14.039 10.33 C 14.035 10.256 14.003 10.158 13.949 10.123 C 13.914 10.099 13.803 10.151 13.749 10.196 C 13.295 10.57 12.779 10.828 12.193 10.858 C 11.404 10.898 10.611 10.889 9.821 10.87 C 9.294 10.858 8.77 10.779 8.243 10.75 C 7.885 10.73 7.64 10.889 7.546 11.196 C 7.116 12.596 6.694 13.997 6.277 15.401 C 6.219 15.595 6.067 15.814 6.294 15.998 C 6.513 16.174 6.717 16.01 6.904 15.924 C 8.172 15.339 9.461 15.294 10.779 15.744 C 12.281 16.256 12.678 17.641 12.063 18.897 C 11.927 19.175 11.846 19.181 11.574 19.019 C 11.1 18.736 10.636 18.43 10.14 18.189 C 9.054 17.663 7.919 17.449 6.726 17.799 C 6.08 17.989 5.453 18.567 5.503 19.414 C 5.532 19.9 5.773 20.246 6.115 20.539 C 6.569 20.929 7.102 21.158 7.697 21.284 C 9.505 21.668 11.221 21.522 12.815 20.522 C 12.932 20.458 13.064 20.425 13.197 20.426 C 13.542 20.418 13.888 20.448 14.233 20.436 C 14.731 20.421 15.143 20.208 15.483 19.853 C 15.538 19.795 15.573 19.719 15.64 19.617 Z M 11.072 19.843 C 10.837 19.943 10.608 20.068 10.364 20.14 C 9.412 20.422 8.464 20.412 7.53 20.052 C 7.436 20.019 7.347 19.973 7.266 19.915 C 7.02 19.727 6.809 19.512 6.896 19.167 C 6.976 18.854 7.248 18.785 7.52 18.722 C 8.124 18.581 8.701 18.726 9.256 18.929 C 9.8 19.127 10.323 19.387 10.853 19.622 C 10.925 19.654 10.989 19.705 11.056 19.746 L 11.072 19.843 Z" fill-rule="evenodd"/>
</svg>
