<?xml version="1.0" encoding="utf-8"?>
<svg fill="#d1d1d1" viewBox="0 0 32 32" xmlns="http://www.w3.org/2000/svg">
  <path d="M 19.473 11.48 L 22.14 10.868 L 23.173 9.168 L 22.153 7.494 L 20.847 6.592 L 18.164 6 L 16.509 6.933 L 13.861 6.461 L 10.225 8.981 L 9.942 11.922 L 8.399 12.566 L 8.577 15.295 L 7.5 16.153 L 8.576 19.225 L 8.738 19.547 L 9.876 22.71 L 12.216 23.538 L 13.949 25.302 L 15.943 26 L 16.845 25.74 L 18.276 25.575 L 20.374 24.974 L 23.5 23.209 L 22.682 19.977 L 21.108 19.357 L 20.324 20.254 L 18.119 20.796 L 14.912 20.288 L 13.877 19.091 L 14.237 17.921 L 12.721 15.521 L 13.996 13.965 L 14.132 11.32 L 15.958 10.272 L 17.21 9.772 L 18.91 10.079 L 19.473 11.48 Z" fill-rule="evenodd"/>
</svg>
