<?xml version="1.0" encoding="utf-8"?>
<svg fill="#d1d1d1" viewBox="0 0 32 32" xmlns="http://www.w3.org/2000/svg">
  <g fill-rule="evenodd">
    <path d="M 14.514 25.556 C 15.274 26.182 16.137 26.67 17.064 27 L 16.922 25.626 C 21.362 25.199 24.935 21.792 25.572 17.377 C 26.19 16.622 26.673 15.766 27 14.847 L 25.617 14.99 C 25.153 10.587 21.759 7.06 17.377 6.428 C 16.622 5.81 15.766 5.327 14.847 5 L 14.99 6.383 C 10.587 6.847 7.06 10.241 6.428 14.623 C 5.81 15.378 5.327 16.234 5 17.153 L 6.383 17.01 C 6.842 21.373 10.18 24.88 14.514 25.556 Z M 15.084 21.424 C 12.652 21.012 10.79 19.032 10.53 16.579 L 11.83 16.444 C 11.354 16.072 10.928 15.639 10.564 15.157 C 10.947 12.692 12.94 10.793 15.421 10.53 L 15.556 11.83 C 15.928 11.354 16.361 10.928 16.843 10.564 C 19.308 10.947 21.207 12.94 21.47 15.421 L 20.17 15.556 C 20.646 15.928 21.071 16.361 21.436 16.843 C 21.048 19.34 19.008 21.252 16.491 21.478 L 16.355 20.169 C 15.966 20.66 15.543 21.079 15.084 21.424 Z"/>
    <path d="M6.383 17.01L5 17.153c.74-2.07 2.203-3.726 4.391-4.968.207 1.716 1.02 3.135 2.44 4.259l-1.3.135a5.503 5.503 0 004.553 4.845 6.084 6.084 0 01-2.987 1.185c.681 1.2 1.487 2.183 2.417 2.947a9.674 9.674 0 01-8.131-8.546zm19.234-2.02L27 14.847c-.74 2.07-2.203 3.726-4.391 4.968-.207-1.716-1.02-3.135-2.44-4.259l1.3-.135a5.503 5.503 0 00-4.626-4.857 6.085 6.085 0 012.972-1.173c-.687-1.209-1.499-2.196-2.438-2.963a9.674 9.674 0 018.24 8.562z" opacity=".5"/>
  </g>
</svg>
