<?xml version="1.0" encoding="utf-8"?>
<svg fill="#d1d1d1" viewBox="0 0 32 32" xmlns="http://www.w3.org/2000/svg">
  <path d="M 9.171 8 L 9.171 9.925 L 22.987 9.925 L 22.987 8 L 9.171 8 Z M 7.631 13.641 L 7.631 15.586 L 12.526 15.586 L 12.526 15.971 C 12.447 17.857 12.053 19.378 11.303 20.571 C 10.553 21.651 9.132 22.574 7 23.306 L 8.105 25 C 10.315 24.25 11.895 23.19 12.882 21.843 C 13.888 20.379 14.441 18.416 14.539 15.971 L 14.539 15.586 L 17.461 15.586 L 17.461 22.516 C 17.461 23.922 18.151 24.634 19.553 24.634 L 22.691 24.634 C 23.381 24.634 23.895 24.422 24.25 24.037 C 24.605 23.633 24.862 22.343 25 20.167 L 23.145 19.59 C 23.105 21.15 23.007 22.093 22.868 22.4 C 22.75 22.69 22.553 22.844 22.316 22.844 L 20.145 22.844 C 19.691 22.844 19.474 22.594 19.474 22.093 L 19.474 15.586 L 24.704 15.586 L 24.704 13.64 L 7.631 13.641 Z" fill-rule="evenodd"/>
</svg>
