<?xml version="1.0" encoding="utf-8"?>
<svg fill="#d1d1d1" height="32" viewBox="0 0 32 32" width="32" xmlns="http://www.w3.org/2000/svg">
  <path d="M 16 25 L 20.536 25 L 18.264 21.043 L 13.736 21.043 L 11.464 25 L 16 25 Z M 13.737 10.956 L 18.264 10.956 L 20.536 7 L 11.464 7 L 13.736 10.957 L 13.737 10.956 Z M 23.736 20.495 L 26 16.538 L 21.464 16.538 L 19.199 20.495 L 19.2 20.495 L 21.463 24.453 L 23.736 20.496 L 23.734 20.496 L 23.736 20.496 L 23.736 20.495 Z M 8.264 11.496 L 6 15.453 L 10.536 15.453 L 12.8 11.496 L 10.536 7.539 L 8.264 11.496 Z M 12.799 20.496 L 12.8 20.496 L 10.536 16.538 L 6 16.538 L 8.264 20.495 L 10.536 24.453 L 12.8 20.496 L 12.799 20.496 Z M 23.736 11.496 L 21.463 7.539 L 19.199 11.496 L 21.463 15.453 L 26 15.453 L 23.736 11.496 Z" fill-rule="evenodd"/>
</svg>
