<?xml version="1.0" encoding="utf-8"?>
<svg fill="#d1d1d1" width="32" height="32" viewBox="0 0 32 32" xmlns="http://www.w3.org/2000/svg">
  <path d="M 25.678 13.283 L 23.99 11.595 C 23.478 11.08 22.78 10.792 22.054 10.795 L 21.794 10.795 L 21.794 10.525 C 21.794 10.052 21.682 9.602 21.446 9.197 C 21.325 8.962 21.165 8.749 20.973 8.567 L 19.285 6.878 C 18.772 6.363 18.075 6.075 17.348 6.078 L 9.57 6.078 C 8.838 6.078 8.152 6.36 7.634 6.878 L 5.946 8.566 C 5.43 9.073 5.141 9.767 5.146 10.491 L 5.101 17.786 C 5.091 18.517 5.383 19.226 5.901 19.744 L 7.589 21.433 C 8.101 21.948 8.799 22.235 9.525 22.232 L 9.829 22.232 L 9.829 22.502 C 9.829 22.975 9.942 23.425 10.178 23.83 C 10.302 24.067 10.459 24.28 10.651 24.46 L 12.339 26.15 C 12.852 26.664 13.549 26.951 14.275 26.948 L 22.065 26.948 C 22.797 26.948 23.483 26.667 24.001 26.149 L 25.69 24.461 C 26.204 23.948 26.492 23.251 26.489 22.525 L 26.489 15.208 C 26.485 14.484 26.194 13.792 25.679 13.283 L 25.678 13.283 Z M 9.525 19.755 C 9.454 19.755 9.385 19.727 9.334 19.677 L 8.49 18.832 L 7.645 17.988 C 7.609 17.945 7.582 17.896 7.566 17.842 L 7.566 10.503 C 7.566 10.423 7.6 10.356 7.646 10.311 L 9.334 8.623 C 9.356 8.6 9.379 8.589 9.401 8.578 C 9.443 8.556 9.489 8.545 9.536 8.544 L 17.326 8.544 C 17.371 8.544 17.405 8.555 17.45 8.578 C 17.484 8.589 17.506 8.612 17.529 8.634 L 19.217 10.323 C 19.242 10.344 19.261 10.371 19.273 10.401 C 19.285 10.413 19.285 10.424 19.285 10.435 C 19.285 10.446 19.295 10.458 19.295 10.469 C 19.295 10.48 19.307 10.514 19.307 10.536 L 19.307 10.896 C 19.307 11.054 19.183 11.166 19.037 11.166 L 17.687 11.166 C 17.615 11.166 17.546 11.138 17.495 11.088 L 16.729 10.323 L 10.133 10.323 L 9.852 10.603 L 9.469 10.987 L 9.469 17.324 L 10.133 17.988 L 16.718 17.988 L 17.484 17.212 L 17.494 17.2 C 17.517 17.189 17.54 17.166 17.562 17.155 C 17.596 17.133 17.642 17.133 17.675 17.133 L 19.025 17.133 C 19.115 17.133 19.195 17.178 19.251 17.245 C 19.286 17.29 19.306 17.346 19.307 17.403 L 19.307 17.786 C 19.307 17.858 19.278 17.926 19.228 17.977 L 18.384 18.821 L 17.54 19.665 C 17.529 19.677 17.506 19.688 17.495 19.699 C 17.495 19.699 17.484 19.71 17.472 19.71 C 17.461 19.722 17.45 19.722 17.438 19.722 C 17.428 19.722 17.428 19.722 17.416 19.733 C 17.405 19.733 17.393 19.744 17.382 19.744 L 9.525 19.744 L 9.525 19.755 Z M 24.024 22.502 C 24.024 22.574 23.995 22.642 23.944 22.693 L 22.256 24.382 C 22.236 24.401 22.214 24.416 22.189 24.427 C 22.147 24.449 22.101 24.46 22.054 24.461 L 14.264 24.461 C 14.22 24.46 14.178 24.449 14.14 24.427 C 14.11 24.415 14.083 24.396 14.062 24.371 L 12.373 22.682 C 12.351 22.66 12.328 22.637 12.317 22.603 C 12.305 22.593 12.305 22.581 12.305 22.57 C 12.305 22.558 12.295 22.547 12.295 22.536 C 12.295 22.525 12.283 22.491 12.283 22.468 L 12.283 22.108 C 12.283 21.951 12.407 21.838 12.553 21.838 L 13.903 21.838 C 13.983 21.838 14.05 21.872 14.095 21.917 L 14.861 22.682 L 21.446 22.682 L 21.727 22.401 L 22.11 22.018 L 22.11 15.681 L 21.446 15.016 L 14.872 15.016 L 14.107 15.793 L 14.095 15.804 C 14.073 15.816 14.05 15.838 14.028 15.849 C 13.994 15.872 13.949 15.872 13.915 15.872 L 12.565 15.872 C 12.476 15.87 12.393 15.829 12.339 15.759 C 12.304 15.714 12.285 15.659 12.283 15.602 L 12.283 15.219 C 12.283 15.147 12.311 15.079 12.362 15.028 L 13.206 14.184 L 14.05 13.339 C 14.062 13.328 14.084 13.317 14.095 13.305 C 14.095 13.305 14.107 13.295 14.118 13.295 C 14.129 13.283 14.14 13.283 14.152 13.283 C 14.162 13.283 14.162 13.283 14.174 13.272 C 14.185 13.272 14.197 13.26 14.208 13.26 L 22.054 13.26 C 22.132 13.26 22.2 13.294 22.245 13.34 L 23.089 14.184 L 23.934 15.028 C 23.948 15.041 23.959 15.056 23.967 15.073 C 23.987 15.104 24.002 15.138 24.012 15.174 L 24.012 15.23 C 24.024 15.208 24.024 22.502 24.024 22.502 Z"/>
</svg>
