<?xml version="1.0" encoding="utf-8"?>
<svg fill="#d1d1d1" width="32" height="32" viewBox="0 0 32 32" xmlns="http://www.w3.org/2000/svg">
  <path d="M 8.466 16.207 C 8.075 16.201 7.754 16.514 7.75 16.905 L 7.75 20.158 C 7.75 20.741 8.061 21.282 8.57 21.588 L 15.735 25.877 C 15.869 25.957 16.025 26 16.184 26 C 16.652 26.005 17.035 25.628 17.038 25.16 L 17.038 21.79 C 17.038 21.292 16.768 20.833 16.328 20.583 L 8.826 16.302 C 8.716 16.24 8.592 16.207 8.466 16.207 Z M 11.896 11.035 C 11.505 11.029 11.183 11.342 11.179 11.733 L 11.179 16.02 L 17.769 19.877 C 18.201 20.13 18.464 20.587 18.464 21.077 L 18.464 24.876 C 18.487 24.87 18.51 24.861 18.531 24.849 L 20.173 23.945 C 20.351 23.848 20.463 23.662 20.463 23.459 L 20.463 16.619 C 20.46 16.118 20.19 15.657 19.754 15.411 L 12.254 11.13 C 12.145 11.068 12.022 11.035 11.896 11.035 Z M 15.536 6.095 C 15.196 5.901 14.763 6.013 14.559 6.347 C 14.497 6.454 14.464 6.575 14.463 6.699 L 14.463 10.765 L 21.199 14.718 C 21.628 14.971 21.892 15.426 21.892 15.918 L 21.892 22.873 L 23.449 22.05 C 23.632 21.954 23.747 21.765 23.75 21.559 L 23.75 11.568 C 23.75 11.07 23.48 10.608 23.039 10.358 L 15.536 6.095 Z"/>
</svg>
