<?xml version="1.0" encoding="utf-8"?>
<svg fill="#d1d1d1" viewBox="0 0 32 32" xmlns="http://www.w3.org/2000/svg">
  <path d="M 21.833 9.744 L 22.409 9.156 C 20.805 7.813 18.832 7.057 16.775 7.057 C 12.128 7.057 8.303 10.71 8.015 15.454 L 8.837 15.454 C 9.125 11.214 12.58 7.897 16.775 7.897 C 18.625 7.897 20.395 8.527 21.833 9.744 Z M 21.545 12.515 L 22.122 11.928 C 20.875 10.22 18.89 9.207 16.775 9.198 C 13.073 9.198 10.071 12.264 10.071 16 C 10.071 19.778 13.073 22.843 16.775 22.843 C 18.873 22.843 20.846 21.835 22.122 20.114 L 21.545 19.526 C 20.449 21.075 18.672 21.998 16.775 22.004 C 13.526 22.004 10.894 19.316 10.894 16 C 10.894 12.725 13.526 10.038 16.774 10.038 C 18.671 10.043 20.449 10.966 21.545 12.515 Z M 22.491 10.374 C 22.697 10.584 22.861 10.794 23.026 11.004 L 23.602 10.416 C 23.437 10.206 23.272 9.996 23.068 9.786 L 22.491 10.374 Z M 16.734 24.984 C 18.802 24.977 20.8 24.233 22.368 22.885 L 21.792 22.298 C 20.38 23.497 18.586 24.152 16.734 24.145 C 12.539 24.145 9.084 20.828 8.796 16.588 L 7.974 16.588 C 8.262 21.332 12.087 24.984 16.734 24.984 Z M 22.491 21.668 L 23.068 22.256 C 23.273 22.046 23.438 21.836 23.602 21.626 L 23.026 21.038 C 22.862 21.248 22.697 21.458 22.491 21.668 Z M 6.823 16 C 6.823 10.416 11.305 5.84 16.775 5.84 C 19.736 5.84 22.532 7.184 24.425 9.535 L 25 8.947 C 22.944 6.427 19.941 5 16.775 5 C 10.853 5 6 9.912 6 16 C 6 22.045 10.812 27 16.775 27 C 19.983 27 22.945 25.572 25 23.053 L 24.424 22.466 C 22.532 24.859 19.736 26.16 16.774 26.16 C 11.305 26.16 6.823 21.584 6.823 16 Z" fill-rule="evenodd"/>
</svg>
