<?xml version="1.0" encoding="utf-8"?>
<svg fill="#d1d1d1" width="32" height="32" viewBox="0 0 32 32" xmlns="http://www.w3.org/2000/svg">
  <path d="M 12.997 7.25 C 9.101 7.25 7.75 11.86 7.75 14.987 C 7.75 18.115 8.427 20.347 8.955 21.663 C 9.484 22.98 10.525 25.25 12.765 25.25 C 15.005 25.25 15.528 22.396 15.976 21.653 C 16.424 20.909 23.613 19.833 24.532 19.018 C 25.452 18.203 27.297 14.028 23.187 11.056 C 19.077 8.085 14.748 7.25 12.997 7.25 Z M 11.603 15.529 L 11.738 15.533 C 13.004 15.625 14.254 17.019 14.526 19.655 C 14.816 22.479 13.359 23.785 12.376 23.785 C 11.393 23.785 9.763 21.943 9.62 19.781 C 9.477 17.619 10.114 15.635 11.467 15.534 L 11.603 15.529 Z M 15.249 12.543 C 14.365 10.607 17.164 11.277 19.059 12.014 C 20.953 12.752 23.372 13.811 22.315 14.68 C 21.609 15.26 19.495 15.679 15.97 15.939 C 15.787 14.327 15.547 13.195 15.249 12.543 Z"/>
</svg>
