<?xml version="1.0" encoding="utf-8"?>
<svg fill="#d1d1d1" width="32" height="32" viewBox="0 0 32 32" xmlns="http://www.w3.org/2000/svg">
  <path fill-rule="evenodd" d="M 24.833 15.346 C 24.769 15.467 24.742 15.526 24.708 15.582 C 24.314 16.229 23.916 16.873 23.525 17.522 C 22.795 18.734 22.067 19.948 21.34 21.162 C 21.258 21.298 21.17 21.369 21.007 21.284 C 19.861 20.696 18.616 20.512 17.367 20.372 C 16.032 20.223 14.683 20.278 13.365 20.535 C 12.892 20.626 12.89 20.615 13.099 21.062 C 13.289 21.472 13.36 21.506 13.761 21.437 C 16.319 20.997 18.797 21.218 21.163 22.38 C 21.521 22.555 21.598 22.53 21.805 22.183 L 26.834 13.73 C 26.882 13.65 26.924 13.565 27 13.422 C 26.889 13.466 26.847 13.478 26.81 13.497 C 25.66 14.067 24.49 14.573 23.222 14.785 C 22.325 14.935 21.432 14.985 20.555 14.651 C 19.661 14.311 18.985 13.671 18.352 12.969 L 17.913 12.487 L 17.588 13.014 C 17.461 13.22 17.501 13.4 17.668 13.558 C 18.012 13.886 18.346 14.228 18.706 14.536 C 19.597 15.298 20.606 15.771 21.783 15.816 C 22.663 15.849 23.513 15.674 24.359 15.453 C 24.494 15.417 24.632 15.391 24.833 15.346 Z M 7.179 15.467 L 7.224 15.411 C 7.614 15.489 8.005 15.571 8.397 15.644 C 9.254 15.803 10.112 15.844 10.967 15.639 C 12.054 15.379 12.98 14.806 13.807 14.048 C 14.73 13.2 15.429 12.166 16.123 11.122 C 16.434 10.654 16.521 10.252 16.153 9.801 C 16.085 9.718 16.032 9.624 15.949 9.5 C 15.877 9.628 15.836 9.7 15.796 9.774 C 15.166 10.906 14.473 11.992 13.618 12.96 C 13.084 13.563 12.491 14.092 11.771 14.451 C 10.614 15.028 9.415 14.993 8.201 14.691 C 7.255 14.457 6.361 14.073 5.479 13.66 C 5.334 13.592 5.186 13.53 5.039 13.466 L 5 13.52 C 5.045 13.606 5.085 13.696 5.134 13.78 C 5.481 14.365 5.83 14.949 6.178 15.534 C 7.466 17.7 8.753 19.867 10.044 22.032 C 10.409 22.642 10.334 22.572 10.932 22.297 C 11.209 22.17 11.21 22.162 11.049 21.897 C 9.929 20.036 8.806 18.176 7.685 16.316 C 7.515 16.034 7.347 15.751 7.179 15.468 L 7.179 15.467 Z"/>
</svg>
