<?xml version="1.0" encoding="utf-8"?>
<svg fill="#d1d1d1" height="32" viewBox="0 0 32 32" width="32" xmlns="http://www.w3.org/2000/svg">
  <path d="M 16 27 C 22.075 27 27 22.075 27 16 C 27 9.925 22.075 5 16 5 C 9.925 5 5 9.925 5 16 C 5 22.075 9.925 27 16 27 Z M 16 25.454 C 8.722 25.454 4.174 17.576 7.813 11.273 C 9.501 8.348 12.622 6.546 16 6.546 C 23.278 6.546 27.826 14.424 24.187 20.727 C 22.499 23.652 19.378 25.454 16 25.454 Z M 16.072 22.541 C 18.86 22.541 20.462 21.337 21.649 19.701 L 19.022 17.833 C 18.267 18.749 17.493 19.36 16.18 19.36 C 14.417 19.36 13.176 17.887 13.176 16 L 13.176 15.964 C 13.176 14.131 14.417 12.64 16.18 12.64 C 17.385 12.64 18.213 13.215 18.932 14.113 L 21.559 12.083 C 20.443 10.538 18.789 9.459 16.216 9.459 C 12.403 9.459 9.578 12.334 9.578 16 L 9.578 16.036 C 9.578 19.791 12.475 22.541 16.072 22.541 Z"/>
</svg>
