<?xml version="1.0" encoding="utf-8"?>
<svg fill="#d1d1d1" width="32" height="32" viewBox="0 0 32 32" xmlns="http://www.w3.org/2000/svg">
  <path d="M 15.897 4.398 L 15.897 4.391 L 20.745 18 C 20.826 18.171 20.73 18.373 20.547 18.419 L 16.953 19.409 C 16.66 19.482 16.726 19.966 17.027 19.981 L 26.186 21.807 C 26.362 21.836 26.538 21.895 26.721 21.895 C 23.291 15.978 19.859 10.063 16.425 4.148 C 16.279 3.833 15.751 4.068 15.897 4.398 Z M 15.369 4.428 C 11.918 10.388 8.461 16.344 5 22.298 L 5 22.468 C 5.073 22.57 5.161 22.673 5.293 22.673 C 5.477 22.651 5.572 22.475 5.682 22.358 L 15.127 11.262 C 15.223 11.122 15.435 11.035 15.582 11.167 C 16.492 12.135 17.372 13.132 18.295 14.1 C 18.471 14.29 18.831 14.078 18.735 13.822 C 17.657 10.742 16.543 7.662 15.457 4.582 C 15.432 4.528 15.403 4.477 15.369 4.428 Z M 12.48 14.995 C 10.273 17.62 8.08 20.275 5.88 22.915 L 26.86 22.915 L 27 22.768 L 27 22.563 C 26.927 22.504 26.86 22.431 26.765 22.416 C 21.823 21.426 16.88 20.4 11.937 19.41 C 11.783 19.402 11.637 19.256 11.695 19.094 C 12.077 17.826 12.465 16.557 12.832 15.281 C 12.891 15.068 12.656 14.944 12.48 14.995 Z"/>
</svg>
