<?xml version="1.0" encoding="utf-8"?>
<svg fill="#d1d1d1" viewBox="0 0 32 32" xmlns="http://www.w3.org/2000/svg">
  <path d="M 17.161 16.779 C 17.972 16.39 18.489 15.571 18.491 14.672 C 18.491 13.378 17.429 12.329 16.121 12.329 C 14.811 12.329 13.748 13.378 13.748 14.672 C 13.75 15.572 14.268 16.39 15.08 16.778 L 15.08 19.672 L 17.161 19.672 L 17.161 16.779 Z M 16.121 23.5 C 11.935 23.5 8.531 20.136 8.531 16 C 8.531 11.864 11.935 8.5 16.121 8.5 C 19.536 8.5 22.431 10.74 23.381 13.812 L 25.997 13.812 C 24.987 9.342 20.949 6 16.12 6 C 10.531 6 6 10.477 6 16 C 6 21.523 10.531 26 16.12 26 C 20.949 26 24.987 22.658 25.997 18.188 L 23.38 18.188 C 22.43 21.26 19.535 23.5 16.12 23.5 L 16.121 23.5 Z"/>
</svg>
