<?xml version="1.0" encoding="utf-8"?>
<svg fill="#d1d1d1" width="32" height="32" viewBox="0 0 32 32" xmlns="http://www.w3.org/2000/svg">
  <path d="M 15.829 8 L 9.277 8 L 9.277 13.194 L 7 13.194 L 7 15.055 L 9.277 15.055 L 9.277 17.008 L 7 17.008 L 7 18.868 L 9.277 18.868 L 9.277 24 L 15.829 24 C 19.769 24 22.767 21.905 23.92 18.869 L 26 18.869 L 26 17.009 L 24.376 17.009 C 24.416 16.679 24.436 16.341 24.436 15.999 L 24.436 15.953 C 24.436 15.649 24.42 15.349 24.389 15.055 L 26 15.055 L 26 13.195 L 23.959 13.195 C 22.835 10.114 19.814 8 15.829 8 Z M 21.913 18.869 C 20.906 20.944 18.742 22.331 15.829 22.331 L 11.109 22.331 L 11.109 18.869 L 21.913 18.869 Z M 22.477 15.055 C 22.519 15.362 22.541 15.677 22.541 15.999 L 22.541 16.044 C 22.541 16.373 22.518 16.694 22.474 17.008 L 11.108 17.008 L 11.108 15.055 L 22.478 15.055 L 22.477 15.055 Z M 15.83 9.666 C 18.756 9.666 20.927 11.09 21.928 13.194 L 11.108 13.194 L 11.108 9.666 L 15.828 9.666 L 15.83 9.666 Z"/>
</svg>
