<?xml version="1.0" encoding="utf-8"?>
<svg fill="#d1d1d1" width="32" height="32" viewBox="0 0 32 32" xmlns="http://www.w3.org/2000/svg">
  <path d="M 19.086 8.004 L 11.81 8.004 L 11.208 11.371 L 17.77 11.381 C 21.001 11.381 21.96 12.554 21.929 14.501 C 21.915 15.499 21.48 17.187 21.296 17.731 C 20.799 19.191 19.775 20.853 15.937 20.848 L 9.559 20.844 L 8.957 24.215 L 16.214 24.215 C 18.773 24.215 19.863 23.916 21.014 23.385 C 23.568 22.207 25.089 19.684 25.7 16.391 C 26.606 11.491 25.476 8.004 19.085 8.004 L 19.086 8.004 Z M 15.806 15.798 C 16.044 14.813 16.119 14.418 16.119 14.418 L 8.673 14.418 C 6.769 14.418 6.497 15.658 6.316 16.408 C 6.079 17.389 6.004 17.789 6.004 17.789 L 13.451 17.789 C 15.354 17.789 15.626 16.549 15.807 15.798 L 15.806 15.798 Z"/>
</svg>
