<?xml version="1.0" encoding="utf-8"?>
<svg fill="#d1d1d1" viewBox="0 0 32 32" xmlns="http://www.w3.org/2000/svg">
  <path d="M 24.14 9.914 L 25.747 8.32 C 26.127 7.944 26.048 7.256 25.573 6.785 C 25.098 6.313 24.403 6.236 24.024 6.613 L 21.008 9.603 L 20.905 9.706 L 18.277 12.311 C 16.473 11.01 13.994 11.2 12.41 12.761 C 10.837 14.319 10.644 16.795 11.956 18.578 L 9.95 20.568 C 9.43 19.875 9.028 19.1 8.761 18.275 C 8.088 16.237 8.269 14.005 9.361 12.165 C 11.064 9.295 14.111 8.047 16.999 8.413 C 17.614 8.499 18.172 8.046 18.215 7.427 C 18.254 6.729 17.737 6.123 17.041 6.053 C 14.14 5.756 11.141 6.703 8.926 8.899 C 5.256 12.537 5.041 18.308 8.266 22.237 L 6.426 24.062 C 6.063 24.422 6.153 25.097 6.629 25.568 C 7.104 26.039 7.784 26.13 8.147 25.77 L 10.128 23.806 L 10.129 23.806 L 11.561 22.386 L 11.564 22.382 L 13.886 20.08 C 15.574 20.767 17.509 20.384 18.806 19.104 C 20.095 17.829 20.484 15.9 19.791 14.225 L 22.425 11.614 C 24.356 14.522 23.973 18.548 21.315 21.182 C 19.698 22.793 17.462 23.624 15.185 23.461 C 14.658 23.431 14.203 23.824 14.155 24.349 L 14.127 24.669 C 14.074 25.26 14.526 25.775 15.118 25.799 C 18.035 25.956 20.882 24.867 22.95 22.803 C 26.547 19.236 26.963 13.742 24.14 9.913 L 24.14 9.914 Z M 17.139 17.449 C 16.29 18.285 14.928 18.285 14.079 17.449 C 13.236 16.614 13.236 15.251 14.079 14.416 C 14.927 13.579 16.291 13.579 17.139 14.416 C 17.982 15.251 17.982 16.614 17.139 17.449 Z"/>
</svg>
