<?xml version="1.0" encoding="utf-8"?>
<svg fill="#d1d1d1" viewBox="0 0 32 32" xmlns="http://www.w3.org/2000/svg">
  <path d="M 13.785 16.928 C 13.943 16.762 13.943 16.648 13.775 16.49 C 13.45 16.182 13.122 15.876 12.797 15.568 L 11.289 14.137 C 11.159 14.013 11.026 13.891 10.895 13.768 C 10.821 13.698 10.738 13.666 10.632 13.692 C 10.543 13.719 10.452 13.733 10.359 13.735 C 10.217 13.731 10.143 13.805 10.076 13.913 C 9.521 14.803 8.963 15.692 8.406 16.581 C 8.134 17.017 7.86 17.453 7.589 17.891 C 7.47 18.084 7.552 18.246 7.779 18.276 L 8.912 18.424 C 9.409 18.488 9.905 18.554 10.402 18.614 C 10.643 18.643 10.717 18.709 10.746 18.946 C 10.768 19.127 10.792 19.308 10.82 19.488 C 10.838 19.605 10.937 19.686 11.067 19.707 C 11.127 19.667 11.199 19.635 11.249 19.583 C 11.547 19.275 11.839 18.962 12.134 18.653 L 13.784 16.928 L 13.785 16.928 Z M 24.875 19.247 C 24.477 18.911 24.072 18.583 23.682 18.239 C 23.519 18.095 23.357 18.036 23.146 18.103 C 23.008 18.148 22.857 18.135 22.728 18.069 C 22.552 17.979 22.403 18.009 22.243 18.113 C 21.485 18.603 20.723 19.086 19.963 19.571 L 18.605 20.439 C 18.493 20.511 18.41 20.6 18.406 20.741 L 18.372 21.936 C 18.354 22.081 18.403 22.227 18.507 22.33 C 18.755 22.615 19.001 22.903 19.247 23.19 L 19.84 23.874 C 19.893 23.942 19.97 23.986 20.055 23.997 C 20.29 24.024 20.464 23.877 20.461 23.642 C 20.459 23.437 20.446 23.232 20.438 23.028 C 20.433 22.92 20.479 22.815 20.563 22.746 C 20.61 22.706 20.659 22.67 20.711 22.637 L 22.354 21.572 C 23.204 21.021 24.054 20.468 24.904 19.918 C 25.048 19.825 25.116 19.701 25.091 19.532 C 25.071 19.399 24.969 19.325 24.876 19.247 L 24.875 19.247 Z M 17.577 20.239 C 17.175 19.834 16.767 19.436 16.362 19.034 L 14.563 17.244 C 14.403 17.089 14.145 17.102 14.001 17.272 C 13.551 17.747 13.1 18.221 12.649 18.694 C 12.231 19.131 11.815 19.569 11.394 20.003 C 11.207 20.194 11.21 20.433 11.406 20.611 C 11.756 20.931 12.095 21.264 12.439 21.591 C 12.499 21.649 12.564 21.704 12.626 21.761 C 12.69 21.824 12.776 21.858 12.866 21.856 L 13.062 21.856 C 13.328 21.842 13.616 21.824 13.905 21.813 C 14.394 21.793 14.883 21.78 15.372 21.757 C 15.493 21.752 15.626 21.747 15.732 21.697 C 16.322 21.425 16.906 21.14 17.492 20.857 C 17.667 20.773 17.742 20.646 17.704 20.46 C 17.683 20.376 17.639 20.3 17.577 20.239 Z M 20.055 12.19 C 20.146 12.33 20.231 12.476 20.318 12.62 C 21.088 13.887 21.861 15.153 22.626 16.423 C 22.801 16.72 23.22 16.749 23.433 16.478 C 23.956 15.773 24.486 15.072 25.01 14.368 C 25.104 14.256 25.158 14.116 25.164 13.97 L 25.186 13.96 C 25.149 13.875 25.124 13.782 25.074 13.705 C 24.702 13.133 24.325 12.563 23.949 11.993 C 23.771 11.723 23.594 11.45 23.414 11.181 C 23.31 11.025 23.16 10.938 22.971 10.971 C 22.114 11.121 21.259 11.284 20.401 11.427 C 20.08 11.48 19.861 11.892 20.055 12.19 Z M 18.55 15.722 L 18.702 14.398 L 18.832 13.268 L 18.932 12.388 C 18.922 12.37 18.905 12.309 18.871 12.298 C 18.83 12.284 18.772 12.308 18.725 12.324 C 18.702 12.332 18.685 12.359 18.667 12.379 L 18.011 13.069 C 17.565 13.537 17.121 14.006 16.674 14.474 L 14.716 16.523 C 14.579 16.666 14.58 16.708 14.722 16.84 C 15.15 17.24 15.577 17.64 16.002 18.043 C 16.492 18.505 16.981 18.97 17.47 19.433 C 17.606 19.563 17.741 19.693 17.883 19.816 C 17.915 19.843 17.979 19.863 18.015 19.849 C 18.051 19.835 18.084 19.779 18.093 19.737 C 18.112 19.649 18.113 19.557 18.123 19.466 L 18.271 18.165 C 18.313 17.795 18.358 17.426 18.4 17.057 L 18.55 15.722 Z M 22.356 16.742 C 22.182 16.459 22.012 16.174 21.84 15.89 L 19.885 12.674 C 19.832 12.586 19.782 12.495 19.721 12.413 C 19.698 12.383 19.641 12.354 19.606 12.36 C 19.573 12.366 19.544 12.415 19.518 12.448 C 19.508 12.462 19.508 12.484 19.504 12.503 L 19.405 13.213 L 19.143 15.119 L 18.873 17.07 L 18.626 18.852 L 18.516 19.66 C 18.526 19.691 18.53 19.756 18.562 19.802 C 18.619 19.886 18.726 19.892 18.83 19.825 C 19.093 19.659 19.355 19.492 19.617 19.324 C 20.451 18.79 21.284 18.255 22.121 17.724 C 22.228 17.657 22.28 17.58 22.268 17.454 C 22.251 17.313 22.284 17.17 22.36 17.05 C 22.43 16.943 22.42 16.845 22.356 16.741 L 22.356 16.742 Z M 18.303 11.838 L 17.578 11.965 L 14.608 12.486 L 12.093 12.926 C 11.831 12.971 11.569 13.016 11.308 13.063 C 11.165 13.088 11.093 13.159 11.083 13.284 C 11.076 13.376 11.126 13.441 11.189 13.501 C 11.661 13.944 12.133 14.387 12.603 14.831 C 13.087 15.288 13.57 15.748 14.053 16.206 C 14.208 16.354 14.329 16.354 14.478 16.198 C 14.893 15.764 15.305 15.327 15.719 14.892 L 17.701 12.818 L 18.381 12.103 C 18.431 12.05 18.475 11.988 18.426 11.922 C 18.394 11.879 18.334 11.858 18.303 11.838 Z M 11.564 12.47 C 11.524 12.498 11.491 12.536 11.454 12.569 L 11.476 12.61 C 11.513 12.61 11.55 12.616 11.586 12.61 L 14.156 12.148 L 16.51 11.725 C 17.173 11.606 17.836 11.485 18.5 11.367 C 18.59 11.351 18.64 11.307 18.673 11.223 C 18.71 11.136 18.756 11.053 18.811 10.975 C 18.853 10.913 18.875 10.855 18.841 10.785 L 18.722 10.525 C 18.413 9.859 18.104 9.192 17.793 8.526 C 17.718 8.364 17.623 8.343 17.473 8.445 L 12.963 11.517 C 12.496 11.834 12.03 12.151 11.564 12.47 Z M 6.874 13.996 C 6.931 13.983 6.988 13.976 7.042 13.957 C 7.843 13.672 8.644 13.384 9.446 13.102 C 9.569 13.066 9.664 12.967 9.695 12.842 C 9.756 12.589 9.954 12.392 10.207 12.332 C 10.342 12.3 10.454 12.205 10.507 12.077 C 10.783 11.504 11.065 10.933 11.343 10.361 C 11.495 10.049 11.647 9.738 11.794 9.424 C 11.86 9.299 11.847 9.147 11.76 9.035 C 11.681 8.921 11.542 8.864 11.406 8.891 C 11.335 8.906 11.267 8.933 11.205 8.971 C 10.229 9.533 9.255 10.097 8.279 10.658 C 8.175 10.716 8.089 10.8 8.029 10.903 C 7.663 11.532 7.293 12.159 6.925 12.788 C 6.797 13.005 6.665 13.219 6.546 13.441 C 6.405 13.704 6.58 13.991 6.875 13.996 L 6.874 13.996 Z M 11.027 12.17 C 11.023 12.245 11.09 12.287 11.16 12.257 C 11.191 12.243 11.22 12.222 11.248 12.203 L 12.428 11.399 L 16.122 8.886 L 16.74 8.465 C 16.82 8.411 16.882 8.347 16.875 8.25 C 16.875 8.091 16.763 7.993 16.601 8 C 16.374 8.011 16.147 8.027 15.921 8.036 L 13.991 8.109 C 13.664 8.122 13.337 8.139 13.01 8.149 C 12.886 8.154 12.813 8.209 12.763 8.319 C 12.548 8.798 12.327 9.275 12.109 9.753 C 11.759 10.519 11.409 11.284 11.061 12.05 C 11.042 12.088 11.031 12.128 11.027 12.17 Z M 9.664 13.82 C 9.696 13.77 9.735 13.717 9.688 13.654 C 9.636 13.584 9.573 13.612 9.51 13.631 L 9.245 13.713 L 7.23 14.353 C 6.874 14.466 6.518 14.579 6.162 14.694 C 6.043 14.733 6.002 14.787 6 14.914 C 6.006 14.937 6.017 14.985 6.033 15.032 L 6.703 16.914 C 6.779 17.129 6.854 17.344 6.935 17.558 C 6.985 17.692 7.125 17.745 7.231 17.668 C 7.272 17.634 7.306 17.593 7.332 17.547 L 9.172 14.607 C 9.336 14.344 9.501 14.083 9.664 13.82 Z M 25.782 16.429 C 25.705 15.991 25.627 15.554 25.551 15.116 C 25.529 14.987 25.461 14.896 25.329 14.866 C 25.203 14.839 25.104 14.889 25.029 14.992 L 24.804 15.295 C 24.435 15.792 24.068 16.29 23.698 16.785 C 23.618 16.894 23.597 17.003 23.659 17.126 C 23.724 17.254 23.729 17.392 23.705 17.528 C 23.681 17.664 23.725 17.763 23.827 17.848 C 24.28 18.227 24.733 18.606 25.184 18.987 C 25.404 19.172 25.622 19.108 25.698 18.833 L 25.963 17.877 C 25.979 17.818 25.989 17.758 26 17.709 C 25.994 17.66 25.99 17.622 25.984 17.585 L 25.782 16.429 Z M 18.218 8.485 L 18.763 9.667 C 18.906 9.974 19.051 10.28 19.193 10.587 C 19.227 10.663 19.273 10.717 19.363 10.72 C 19.61 10.73 19.803 10.84 19.96 11.023 C 19.988 11.055 20.032 11.072 20.055 11.087 L 20.135 11.071 C 20.941 10.926 21.748 10.78 22.555 10.636 C 22.629 10.623 22.692 10.606 22.706 10.522 C 22.72 10.438 22.666 10.399 22.6 10.366 L 22.003 10.066 L 18.641 8.386 C 18.558 8.346 18.479 8.296 18.391 8.268 C 18.335 8.251 18.274 8.255 18.221 8.279 C 18.161 8.313 18.171 8.383 18.199 8.443 L 18.218 8.485 Z" fill-rule="evenodd"/>
</svg>
