<?xml version="1.0" encoding="utf-8"?>
<svg fill="#d1d1d1" width="32" height="32" viewBox="0 0 32 32" xmlns="http://www.w3.org/2000/svg">
  <path fill-rule="evenodd" d="M 8.023 24.067 C 5.849 21.932 4.627 19.013 4.631 15.966 C 4.631 9.687 9.72 4.597 16 4.597 C 22.28 4.597 27.369 9.687 27.369 15.966 C 27.369 19.242 25.983 22.194 23.768 24.268 C 23.357 23.616 22.95 22.962 22.546 22.306 C 20.494 18.949 18.945 15.367 17.844 11.592 C 17.24 9.52 16.676 7.435 16.093 5.356 C 16.066 5.236 16.009 5.126 15.929 5.033 C 15.839 5.32 15.74 5.604 15.657 5.892 C 14.728 9.134 13.755 12.361 12.537 15.505 C 11.411 18.413 9.689 21.423 8.023 24.067 Z M 19.533 26.629 C 18.295 27.172 14.304 27.455 12 26.759 C 13.27 23.176 14.543 19.594 15.816 16.013 L 15.925 16.015 C 17.176 19.787 18.294 22.853 19.533 26.629 Z" style=""/>
</svg>
