<?xml version="1.0" encoding="utf-8"?>
<svg fill="#d1d1d1" viewBox="0 0 32 32" xmlns="http://www.w3.org/2000/svg">
  <path fill-rule="evenodd" d="M 14.856 17.62 L 20.879 22.877 L 24.869 22.877 L 21.385 19.835 C 23.867 18.812 25.281 16.179 24.765 13.545 C 24.259 10.911 21.956 9.005 19.274 9 L 14.855 9 L 17.869 11.629 L 19.275 11.629 C 20.924 11.634 22.257 12.975 22.253 14.624 C 22.257 16.273 20.924 17.614 19.275 17.619 L 14.855 17.619 L 14.856 17.62 Z M 17.013 14.26 L 10.993 9 L 7.003 9 L 10.484 12.043 C 8.002 13.066 6.588 15.699 7.104 18.333 C 7.61 20.967 9.912 22.873 12.594 22.878 L 17.012 22.878 L 14 20.25 L 12.593 20.25 C 10.944 20.245 9.611 18.904 9.615 17.255 C 9.611 15.606 10.944 14.265 12.593 14.26 L 17.013 14.26 Z"/>
</svg>
