<?xml version="1.0" encoding="utf-8"?>
<svg fill="#d1d1d1" width="32" height="32" viewBox="0 0 32 32" xmlns="http://www.w3.org/2000/svg">
  <path d="M 13.707 19.86 C 13.704 20.502 13.713 21.145 13.734 21.787 L 19.317 18.497 C 22.127 16.841 24.217 15.604 24.807 15.249 C 20.578 12.641 16.342 10.043 12.1 7.456 L 11.339 7 L 10.23 7.75 C 9.774 8.06 9.393 8.32 9.197 8.456 C 9.324 8.538 9.532 8.666 9.799 8.826 C 9.907 8.89 20.579 15.374 20.608 15.499 C 20.638 15.602 20.638 15.602 18.915 16.656 C 17.174 17.716 15.438 18.785 13.707 19.861 L 13.707 19.86 Z M 11.339 13.564 L 11.339 19.776 C 11.341 22.887 11.346 25.273 11.35 25.972 C 12.937 25.072 24.324 18.555 24.739 18.309 L 24.809 18.269 L 25 15.585 L 24.42 15.927 C 13.59 22.316 13.578 22.32 13.55 22.329 L 13.489 22.351 L 13.435 22.314 C 13.355 22.257 13.355 22.257 13.289 16.68 L 13.267 14.75 L 12.237 14.112 C 11.94 13.926 11.64 13.743 11.339 13.564 Z M 9 24.8 L 10.037 25.441 C 10.423 25.681 10.752 25.884 10.945 26.001 C 10.947 25.261 10.95 22.723 10.952 19.669 L 10.957 12.901 L 11.608 13.28 C 11.858 13.426 13.096 14.182 14.368 14.968 C 15.634 15.751 16.904 16.526 17.199 16.7 L 17.671 16.975 L 20.035 15.529 L 19.32 15.099 C 18.832 14.807 16.538 13.409 14.206 11.981 C 12.612 11.002 11.014 10.029 9.413 9.061 L 9.025 8.833 L 9 24.8 Z"/>
</svg>
