<?xml version="1.0" encoding="utf-8"?>
<svg fill="#d1d1d1" viewBox="0 0 32 32" xmlns="http://www.w3.org/2000/svg">
  <path d="M 24.884 18.507 L 20.463 16 L 24.884 13.493 C 25.948 12.901 26.316 11.55 25.701 10.5 C 25.085 9.452 23.72 9.093 22.653 9.698 L 18.231 12.205 L 18.231 7.19 C 18.231 5.981 17.232 5 16 5 C 14.768 5 13.769 5.981 13.769 7.191 L 13.769 12.205 L 9.347 9.698 C 8.28 9.093 6.915 9.452 6.3 10.5 C 5.685 11.55 6.053 12.901 7.117 13.493 L 11.537 16 L 7.117 18.507 C 6.053 19.099 5.684 20.449 6.299 21.5 C 6.915 22.548 8.28 22.907 9.347 22.302 L 13.769 19.795 L 13.769 24.809 C 13.769 26.019 14.768 27 16 27 C 17.232 27 18.231 26.019 18.231 24.809 L 18.231 19.795 L 22.653 22.302 C 23.72 22.907 25.085 22.548 25.701 21.5 C 26.316 20.45 25.948 19.099 24.884 18.507 Z M 25.082 21.149 C 24.654 21.864 23.734 22.106 23.01 21.695 L 18.231 18.985 L 18.231 17.265 L 19.749 16.405 L 24.527 19.114 C 25.253 19.525 25.501 20.437 25.082 21.149 Z M 17.517 24.809 C 17.517 25.632 16.838 26.299 16 26.299 C 15.162 26.299 14.483 25.632 14.483 24.809 L 14.483 19.39 L 16 18.53 L 17.517 19.39 L 17.517 24.809 Z M 8.99 21.695 C 8.266 22.106 7.346 21.864 6.918 21.149 C 6.5 20.435 6.75 19.517 7.473 19.114 L 12.251 16.404 L 13.769 17.265 L 13.769 18.985 L 8.99 21.695 Z M 7.473 12.886 C 6.75 12.483 6.5 11.565 6.918 10.851 C 7.346 10.136 8.266 9.894 8.99 10.305 L 13.769 13.015 L 13.769 14.735 L 12.251 15.595 L 7.473 12.886 Z M 14.483 7.191 C 14.483 6.368 15.163 5.701 16 5.701 C 16.838 5.701 17.517 6.368 17.517 7.191 L 17.517 12.609 L 16 13.47 L 14.483 12.61 L 14.483 7.191 Z M 18.231 15.545 L 19.035 16 L 18.231 16.455 L 18.231 15.545 Z M 16.714 13.875 L 17.517 13.419 L 17.517 14.33 L 16.714 13.875 Z M 14.483 14.33 L 14.483 13.42 L 15.286 13.875 L 14.483 14.33 Z M 13.769 16.455 L 12.965 16 L 13.769 15.545 L 13.769 16.455 Z M 15.286 18.125 L 14.483 18.581 L 14.483 17.67 L 15.286 18.125 Z M 17.517 17.67 L 17.517 18.58 L 16.714 18.125 L 17.517 17.67 Z M 16 17.72 L 14.483 16.86 L 14.483 15.14 L 16 14.28 L 17.517 15.14 L 17.517 16.86 L 16 17.72 Z M 23.01 10.305 C 23.734 9.894 24.654 10.136 25.082 10.851 C 25.502 11.563 25.252 12.475 24.527 12.886 L 19.749 15.596 L 18.231 14.735 L 18.231 13.015 L 23.01 10.305 Z" fill-rule="evenodd"/>
</svg>
