<?xml version="1.0" encoding="utf-8"?>
<svg fill="#d1d1d1" height="32" viewBox="0 0 32 32" width="32" xmlns="http://www.w3.org/2000/svg">
  <path d="M 12.161 22.816 L 11.89 22.816 L 11.89 9.183 L 12.235 9.183 C 12.531 9.183 12.816 9.068 13.026 8.863 C 13.236 8.659 13.354 8.381 13.354 8.092 C 13.354 7.489 12.853 7 12.234 7 L 10.678 7 C 10.365 7 10.066 7.12 9.845 7.336 C 9.625 7.549 9.501 7.843 9.5 8.149 L 9.5 23.822 C 9.5 24.134 9.627 24.434 9.854 24.655 C 10.08 24.875 10.387 25 10.708 25 L 12.161 25 C 12.779 25 13.281 24.511 13.281 23.908 C 13.281 23.305 12.779 22.817 12.161 22.816 Z M 24.331 11.364 C 23.565 10.039 22.451 8.95 21.109 8.214 C 19.74 7.453 18.209 7.072 16.518 7.072 L 16.169 7.072 C 15.872 7.072 15.588 7.187 15.378 7.392 C 15.168 7.596 15.05 7.874 15.05 8.164 C 15.05 8.767 15.551 9.255 16.17 9.255 L 16.466 9.255 C 17.693 9.255 18.809 9.545 19.813 10.121 C 20.803 10.685 21.623 11.504 22.189 12.493 C 22.769 13.497 23.059 14.626 23.06 15.881 C 23.06 17.119 22.774 18.241 22.202 19.243 C 21.629 20.247 20.997 21.178 20.011 21.746 C 19.024 22.315 18.146 22.816 16.935 22.816 L 16.245 22.816 C 15.627 22.816 15.125 23.304 15.125 23.907 C 15.125 24.51 15.628 25 16.246 25 L 16.813 25 C 18.522 25 19.901 24.496 21.22 23.642 C 22.657 22.712 23.532 21.687 24.319 20.348 C 25.106 19.009 25.501 17.513 25.501 15.856 C 25.501 14.199 25.111 12.703 24.332 11.365 L 24.331 11.364 Z" fill-rule="evenodd"/>
</svg>
