<?xml version="1.0" encoding="utf-8"?>
<svg fill="#d1d1d1" viewBox="0 0 32 32" xmlns="http://www.w3.org/2000/svg">
  <path fill-rule="evenodd" d="M 12.368 25 L 14.236 25 C 14.498 25 14.593 24.933 14.688 24.682 C 14.842 24.274 14.998 23.867 15.145 23.456 C 15.186 23.338 15.25 23.286 15.369 23.256 C 16.709 22.934 18.003 22.478 19.227 21.829 C 20.361 21.227 21.395 20.483 22.291 19.547 C 23.591 18.187 24.489 16.575 25.121 14.801 C 25.388 14.051 25.535 13.275 25.493 12.471 C 25.449 11.64 25.172 10.905 24.614 10.289 C 24.202 9.834 23.701 9.509 23.15 9.26 C 22.425 8.933 21.66 8.755 20.876 8.659 C 20.831 8.653 20.786 8.643 20.73 8.633 L 20.791 8.46 C 20.929 8.093 21.068 7.727 21.203 7.358 C 21.288 7.128 21.203 7.002 20.965 7.001 C 20.401 6.999 19.836 7.001 19.272 7.001 C 19.139 7.001 19.137 7.002 19.087 7.135 L 18.591 8.452 C 18.574 8.497 18.552 8.541 18.533 8.585 L 17.728 8.585 C 17.75 8.517 17.767 8.46 17.788 8.405 C 17.911 8.073 18.037 7.743 18.16 7.412 C 18.18 7.36 18.2 7.308 18.208 7.254 C 18.227 7.124 18.154 7.024 18.028 7.004 C 17.985 6.998 17.941 7.001 17.898 7.001 L 16.114 7.001 L 15.513 8.591 L 9.648 8.591 C 9.351 8.579 9.074 8.743 8.942 9.009 L 7.554 11.509 C 7.534 11.545 7.524 11.586 7.5 11.645 L 18.52 11.645 C 19.088 11.649 19.614 11.793 20.082 12.13 C 20.435 12.386 20.672 12.728 20.78 13.16 C 20.879 13.555 20.856 13.951 20.783 14.346 C 20.66 15.021 20.434 15.674 20.113 16.281 C 18.645 19.058 16.373 20.536 13.277 20.671 C 13.232 20.673 13.187 20.667 13.129 20.663 C 13.155 20.588 13.173 20.53 13.194 20.474 L 15.252 15 C 15.409 14.582 15.571 14.165 15.723 13.744 C 15.839 13.426 15.655 13.146 15.324 13.121 C 15.292 13.119 15.259 13.119 15.227 13.119 L 11.956 13.119 C 11.908 13.119 11.861 13.126 11.821 13.129 C 11.661 13.436 7.611 23.648 7.598 23.781 C 8.308 23.862 9.021 23.875 9.754 23.894 L 9.352 24.979 C 9.385 24.989 9.4 24.998 9.415 24.998 C 10.045 24.998 10.674 25 11.303 24.998 C 11.446 24.998 11.549 24.92 11.616 24.795 C 11.647 24.737 11.667 24.673 11.691 24.611 L 11.997 23.801 L 12.847 23.718 L 12.368 25 Z"/>
</svg>
