<?xml version="1.0" encoding="utf-8"?>
<svg fill="#d1d1d1" height="32" viewBox="0 0 32 32" width="32" xmlns="http://www.w3.org/2000/svg">
  <path d="M 15.807 8.958 C 15.847 8.871 15.933 8.815 16.029 8.815 C 16.123 8.815 16.209 8.872 16.249 8.96 L 22.539 22.655 C 22.68 22.967 22.99 23.169 23.333 23.171 L 23.417 23.171 C 23.674 23.17 23.899 22.996 23.965 22.748 C 24.027 22.526 24.006 22.29 23.907 22.082 L 16.614 6.83 C 16.582 6.764 16.536 6.705 16.479 6.659 C 16.219 6.444 15.843 6.447 15.587 6.667 C 15.455 6.781 15.348 6.921 15.274 7.078 L 8.084 22.226 C 7.902 22.611 8.024 23.072 8.374 23.316 L 8.43 23.356 C 8.568 23.45 8.73 23.5 8.896 23.5 L 19.648 23.5 C 19.995 23.498 20.315 23.309 20.483 23.005 C 20.579 22.833 20.59 22.627 20.514 22.445 L 20.504 22.42 C 20.392 22.146 20.126 21.966 19.83 21.965 L 9.713 21.965 L 15.807 8.958 Z"/>
</svg>
