<?xml version="1.0" encoding="utf-8"?>
<svg fill="#d1d1d1" height="32" viewBox="0 0 32 32" width="32" xmlns="http://www.w3.org/2000/svg">
  <path d="M 25.075 19.1 C 24.248 19.054 24.708 17.738 24.34 16.237 C 23.903 14.575 24.547 13.42 25.397 13.467 C 25.797 13.529 26.175 13.687 26.5 13.928 C 26.353 13.205 26.089 12.511 25.719 11.873 C 24.96 10.603 23.306 8.756 21.238 7.302 L 21.238 21.224 C 21.691 22.2 20.918 23.301 19.846 23.205 C 19.129 23.141 18.578 22.544 18.572 21.824 C 16.304 23.237 13.346 22.792 11.594 20.774 C 9.836 18.752 9.792 15.757 11.49 13.684 C 13.181 11.615 16.125 11.082 18.434 12.427 L 18.434 7.025 C 18.427 6.604 18.614 6.203 18.94 5.94 C 16.251 4.693 13.241 4.439 10.667 6.725 C 6.347 10.58 4.187 15.96 6.347 21.316 C 6.393 21.432 6.439 21.547 6.485 21.639 C 6.548 21.509 6.634 21.393 6.738 21.293 C 7.864 20.139 9.105 22.493 11.748 23.856 C 13.425 24.71 14.39 25.841 14.758 26.903 C 17.216 27.203 19.744 26.811 21.766 25.633 C 24.409 24.11 25.949 21.339 26.5 18.523 C 26.104 18.87 25.601 19.074 25.075 19.1 Z M 14.712 19.192 C 16.045 19.954 17.653 19.654 17.952 17.945 C 18.112 16.953 18.021 15.405 17.148 14.921 C 14.252 13.259 11.816 17.53 14.712 19.192 Z M 16.068 8.156 C 16.688 8.133 17.262 8.872 17.285 9.218 C 17.308 9.565 16.757 9.426 16.159 9.634 C 15.493 9.864 15.01 9.657 14.988 9.311 C 14.965 8.964 15.424 8.179 16.068 8.156 Z"/>
</svg>
