<?xml version="1.0" encoding="utf-8"?>
<svg fill="#d1d1d1" width="32" height="32" viewBox="0 0 32 32" xmlns="http://www.w3.org/2000/svg">
  <path d="M 15.931 10.771 L 15.931 10.767 C 9.814 10.052 5.217 16.226 7.656 21.881 C 10.094 27.536 17.74 28.43 21.418 23.491 C 22.414 22.153 22.967 20.537 23 18.87 L 22.999 18.803 L 22.999 6.142 C 22.999 5.262 22.046 4.712 21.284 5.152 C 20.931 5.356 20.713 5.734 20.713 6.142 L 20.713 18.718 C 20.696 23.102 15.94 25.824 12.152 23.617 C 8.363 21.411 8.384 15.931 12.189 13.753 C 13.345 13.092 14.696 12.856 16.008 13.088 L 14.301 14.795 C 13.694 15.432 14.003 16.487 14.858 16.695 C 15.236 16.787 15.635 16.68 15.917 16.411 L 19.557 12.775 C 20.004 12.329 20.004 11.604 19.557 11.158 L 15.921 7.522 L 15.883 7.484 C 15.246 6.875 14.189 7.184 13.98 8.039 C 13.883 8.437 14.006 8.855 14.301 9.138 L 15.931 10.771 Z"/>
</svg>
