<?xml version="1.0" encoding="utf-8"?>
<svg fill="#d1d1d1" viewBox="0 0 32 32" xmlns="http://www.w3.org/2000/svg">
  <path fill-rule="evenodd" d="M 10.482 16.896 L 10.482 24 L 17.031 24 C 18.241 24 19.288 23.79 20.173 23.373 C 21.058 22.954 21.78 22.383 22.341 21.658 C 22.901 20.934 23.318 20.086 23.591 19.115 C 23.864 18.144 24 17.105 24 16 C 24.007 14.948 23.869 13.9 23.59 12.885 C 23.318 11.915 22.901 11.066 22.34 10.342 C 21.78 9.617 21.058 9.046 20.173 8.627 C 19.288 8.21 18.24 8 17.03 8 L 10.481 8 L 10.481 14.61 L 9 14.61 L 9 16.896 L 10.482 16.896 Z M 13.248 14.611 L 13.248 10.286 L 15.969 10.286 C 17.046 10.286 17.927 10.431 18.613 10.723 C 19.299 11.014 19.837 11.417 20.228 11.933 C 20.628 12.47 20.9 13.09 21.024 13.748 C 21.164 14.443 21.234 15.193 21.234 16 C 21.239 16.756 21.168 17.51 21.024 18.252 C 20.884 18.947 20.619 19.552 20.228 20.067 C 19.837 20.583 19.298 20.986 18.613 21.277 C 17.927 21.569 17.046 21.714 15.969 21.714 L 13.248 21.714 L 13.248 16.896 L 17.562 16.896 L 17.562 14.611 L 13.248 14.611 Z"/>
</svg>
