<?xml version="1.0" encoding="utf-8"?>
<svg fill="#d1d1d1" width="32" height="32" viewBox="0 0 32 32" xmlns="http://www.w3.org/2000/svg">
  <path d="M 15.417 23.003 C 15.292 23.609 15.667 24.215 16.29 24.34 C 16.901 24.472 17.503 24.079 17.627 23.466 C 17.751 22.843 17.377 22.254 16.753 22.13 C 16.142 21.998 15.542 22.391 15.417 23.003 Z M 16.272 6.625 C 12.565 6.625 9.536 9.637 9.536 13.361 C 9.536 14.11 9.66 14.841 9.892 15.553 C 10.063 16.042 10.594 16.304 11.086 16.142 C 11.575 15.971 11.836 15.44 11.674 14.948 C 11.478 14.393 11.388 13.806 11.407 13.218 C 11.478 10.706 13.51 8.638 16.023 8.514 C 18.801 8.368 21.134 10.579 21.138 13.361 C 21.135 15.934 19.127 18.06 16.558 18.209 C 16.558 18.209 15.613 18.262 15.15 18.334 C 14.918 18.369 14.74 18.405 14.615 18.423 C 14.561 18.441 14.508 18.387 14.525 18.333 L 14.686 17.55 L 15.559 13.522 C 15.665 13.021 15.347 12.528 14.847 12.417 C 14.345 12.311 13.852 12.629 13.742 13.13 C 13.742 13.13 11.639 22.932 11.621 23.039 C 11.515 23.541 11.833 24.034 12.334 24.144 C 12.836 24.25 13.329 23.932 13.439 23.431 C 13.456 23.324 13.742 22.023 13.742 22.023 C 13.949 21.046 14.748 20.304 15.738 20.169 C 16.088 20.131 16.438 20.101 16.789 20.08 C 20.298 19.807 23.007 16.881 23.009 13.361 C 23.009 9.637 19.979 6.625 16.272 6.625 Z"/>
</svg>
