<?xml version="1.0" encoding="utf-8"?>
<svg fill="#d1d1d1" width="32" height="32" viewBox="0 0 32 32" xmlns="http://www.w3.org/2000/svg">
  <path d="M 23.134 17.467 C 22.583 15.04 20.87 12.364 20.87 12.364 C 22.844 17.751 22.084 21.814 21.561 24.119 C 21.561 24.119 20.871 26.697 22.356 24.549 C 24.208 21.861 23.134 17.467 23.134 17.467 Z M 18.258 7.91 C 19.285 11.568 19.75 14.673 19.895 17.262 C 20.15 21.674 19.477 24.577 19.059 26.11 C 18.925 26.609 19.483 26.98 19.808 26.603 L 19.814 26.597 C 20.626 25.668 21.01 23.492 21.19 21.582 L 21.242 20.955 C 21.41 18.655 21.312 16.334 20.772 14.11 C 19.779 10.006 18.258 7.91 18.258 7.91 Z M 16.418 14.354 C 16.168 8.346 15.715 3.011 15.715 3.011 C 15.715 3.011 15.257 8.079 15.007 13.953 C 14.967 14.906 14.931 15.875 14.902 16.85 C 14.862 18.267 14.844 19.69 14.844 21.065 C 14.85 23.509 14.944 25.802 15.164 27.631 C 15.251 28.356 16.191 28.356 16.278 27.631 C 16.429 26.383 16.516 24.85 16.551 23.166 C 16.583 21.345 16.576 19.524 16.528 17.704 C 16.498 16.589 16.464 15.463 16.418 14.354 Z M 9.399 21.594 C 9.262 20.461 9.231 19.318 9.306 18.18 C 9.364 17.286 9.492 16.328 9.713 15.306 C 9.916 14.371 10.194 13.39 10.572 12.357 C 10.572 12.357 9.364 14.244 8.656 16.281 C 8.516 16.671 8.401 17.071 8.313 17.46 C 8.313 17.46 8.087 18.482 8.053 19.846 C 8.029 20.792 8.104 21.912 8.406 22.969 C 8.559 23.522 8.787 24.052 9.086 24.542 C 9.086 24.542 10.572 26.754 9.881 24.112 C 9.666 23.284 9.505 22.442 9.399 21.593 L 9.399 21.594 Z M 11.518 20.409 C 11.47 19.213 11.489 18.015 11.576 16.821 C 11.636 15.94 11.729 15.061 11.855 14.186 C 12.115 12.305 12.54 10.221 13.185 7.91 C 13.185 7.91 11.657 10.006 10.665 14.11 C 10.612 14.33 10.565 14.551 10.519 14.766 C 10.339 15.66 10.223 16.566 10.165 17.483 C 10.095 18.633 10.113 19.793 10.195 20.949 L 10.247 21.582 C 10.427 23.492 10.804 25.668 11.622 26.597 L 11.628 26.603 C 11.953 26.975 12.516 26.603 12.378 26.11 C 12.075 24.978 11.628 23.097 11.518 20.409 Z M 14.055 20.635 C 14.022 19.304 14.016 17.972 14.037 16.641 C 14.049 15.765 14.072 14.841 14.113 13.872 C 14.212 11.37 14.682 7.753 15.007 4.688 C 15.007 4.688 13.405 8.003 12.673 13.983 C 12.575 14.801 12.482 15.683 12.412 16.636 L 12.36 17.344 C 12.36 17.344 12.273 18.609 12.307 20.316 C 12.354 22.51 12.597 25.436 13.503 27.352 C 13.533 27.41 13.567 27.462 13.613 27.502 L 13.619 27.509 C 13.962 27.834 14.49 27.526 14.444 27.021 C 14.231 24.898 14.101 22.768 14.054 20.635 L 14.055 20.635 Z M 17.375 20.635 C 17.3 23.747 17.103 25.924 16.987 27.021 C 16.94 27.526 17.468 27.834 17.811 27.509 L 17.817 27.503 C 17.863 27.46 17.901 27.409 17.927 27.352 C 18.833 25.436 19.077 22.51 19.123 20.316 C 19.158 18.609 19.071 17.344 19.071 17.344 L 19.018 16.636 C 18.952 15.75 18.866 14.865 18.758 13.983 C 18.026 8.003 16.423 4.688 16.423 4.688 C 16.749 7.753 17.219 11.37 17.317 13.872 C 17.358 14.842 17.381 15.765 17.393 16.642 C 17.414 17.973 17.408 19.304 17.375 20.635 Z"/>
</svg>
