<?xml version="1.0" encoding="utf-8"?>
<svg fill="#d1d1d1" height="32" viewBox="0 0 32 32" width="32" xmlns="http://www.w3.org/2000/svg">
  <path d="M 24.963 14.512 L 24.943 12.563 L 13.791 6 L 11.078 7.674 L 11.072 7.671 L 8 9.484 L 8 22.506 L 10.811 24.307 L 10.812 24.307 L 10.831 24.32 L 10.831 24.318 L 13.823 26 L 25 19.479 L 24.983 14.511 L 24.963 14.512 Z M 21.688 17.624 L 13.834 22.242 L 11.542 20.879 L 19.349 16.285 L 21.688 17.624 Z M 18.822 15.984 L 13.985 18.907 L 14.006 13.226 L 18.822 15.984 Z M 14.008 12.618 L 14.018 9.929 L 21.75 14.444 L 21.75 17.149 L 14.008 12.618 Z M 10.82 23.57 L 8.486 22.175 L 8.486 9.896 L 10.832 11.297 L 10.832 20.869 L 10.85 20.859 L 10.82 23.57 Z M 11.236 20.569 L 11.236 11.296 L 13.581 9.895 L 13.581 19.151 L 11.236 20.569 Z M 14.116 22.601 L 24.536 16.481 L 24.506 19.301 L 14.069 25.437 L 14.116 22.601 Z M 21.909 14.017 L 11.477 7.917 L 13.883 6.527 L 24.338 12.631 L 21.909 14.017 Z" fill-rule="evenodd"/>
</svg>
