<?xml version="1.0" encoding="utf-8"?>
<svg fill="#d1d1d1" width="32" height="32" viewBox="0 0 32 32" xmlns="http://www.w3.org/2000/svg">
  <path d="M 16.084 4 C 10.614 4.004 6.18 8.436 6.174 13.905 C 6.179 14.439 6.239 14.971 6.352 15.493 C 6.377 15.6 6.503 15.647 6.592 15.583 C 6.971 15.312 7.424 15.166 7.89 15.165 C 7.986 15.168 8.061 15.083 8.045 14.988 C 7.979 14.634 7.945 14.276 7.943 13.916 C 7.943 7.65 14.726 3.733 20.153 6.867 C 22.672 8.321 24.223 11.008 24.223 13.916 C 24.223 18.406 18.479 24.141 16.423 26.166 C 16.235 26.351 15.933 26.351 15.745 26.166 C 14.875 25.317 14.031 24.441 13.213 23.541 L 13.171 23.541 C 12.385 23.464 11.613 23.279 10.877 22.991 L 10.741 22.936 C 10.634 22.888 10.516 22.974 10.528 23.09 C 10.531 23.121 10.543 23.15 10.563 23.173 C 11.836 24.694 13.186 26.148 14.609 27.53 C 15.428 28.329 16.735 28.329 17.554 27.53 C 21.174 23.954 25.994 18.664 25.994 13.905 C 25.988 8.435 21.554 4.004 16.084 4 Z M 20.204 14.907 L 20.204 14.502 C 20.197 14.245 20.166 13.989 20.113 13.738 C 20.06 13.485 19.986 13.236 19.893 12.995 C 19.796 12.753 19.68 12.519 19.548 12.295 C 19.005 11.384 18.204 10.655 17.245 10.202 C 16.785 9.982 16.288 9.849 15.78 9.809 L 13.637 9.809 C 13.475 9.831 13.346 9.954 13.316 10.114 L 13.316 10.148 C 13.316 10.154 13.316 10.16 13.316 10.166 L 13.316 16.657 C 13.323 16.849 13.317 17.041 13.298 17.232 C 13.266 17.46 13.207 17.682 13.12 17.895 C 12.934 18.361 12.599 18.754 12.168 19.011 C 11.968 19.13 11.754 19.221 11.53 19.284 C 11.282 19.353 11.027 19.392 10.77 19.4 C 11.565 19.975 12.5 20.33 13.477 20.427 C 14.502 20.517 15.534 20.352 16.48 19.945 C 17.435 19.541 18.289 18.932 18.98 18.159 L 18.97 18.15 C 19.32 17.757 19.607 17.313 19.823 16.834 C 20.023 16.352 20.144 15.84 20.18 15.32 C 20.194 15.183 20.202 15.045 20.204 14.907 Z M 21.968 14.441 C 21.957 14.081 21.914 13.722 21.839 13.37 C 21.69 12.673 21.428 12.005 21.063 11.393 C 20.339 10.176 19.268 9.203 17.986 8.6 C 17.331 8.289 16.625 8.101 15.902 8.046 C 15.811 8.046 15.723 8.046 15.623 8.036 L 13.625 8.036 C 13.561 8.036 13.495 8.036 13.43 8.05 C 13.169 8.08 12.915 8.16 12.682 8.284 C 12.031 8.632 11.605 9.29 11.554 10.027 L 11.554 16.657 C 11.554 16.773 11.546 16.889 11.53 17.004 C 11.52 17.082 11.501 17.158 11.473 17.232 C 11.451 17.287 11.421 17.338 11.383 17.384 C 11.291 17.483 11.171 17.552 11.039 17.582 C 10.842 17.632 10.639 17.648 10.436 17.629 C 9.712 17.558 9.031 17.253 8.495 16.761 C 7.995 16.299 7.183 16.551 7.033 17.215 C 6.985 17.424 7.016 17.643 7.118 17.832 C 7.742 18.972 8.598 19.968 9.632 20.755 C 10.165 21.153 10.749 21.477 11.368 21.72 C 11.989 21.962 12.641 22.119 13.305 22.184 C 14.623 22.306 15.95 22.098 17.168 21.58 C 18.381 21.078 19.456 20.294 20.305 19.293 L 20.316 19.302 C 20.784 18.773 21.169 18.175 21.456 17.529 C 21.728 16.871 21.892 16.174 21.941 15.464 C 21.955 15.286 21.964 15.125 21.97 14.955 L 21.97 14.704 C 21.977 14.63 21.971 14.529 21.97 14.441 L 21.968 14.441 Z"/>
</svg>
