<?xml version="1.0" encoding="utf-8"?>
<svg fill="#d1d1d1" height="32" viewBox="0 0 32 32" width="32" xmlns="http://www.w3.org/2000/svg">
  <g fill-rule="evenodd">
    <path d="M 18.032 22.87 L 18.032 9.08 C 18.032 7.934 17.112 7.005 15.976 7.005 C 14.84 7.005 13.921 7.934 13.921 9.08 L 13.921 22.87 C 13.921 24.015 14.841 24.944 15.976 24.944 C 17.111 24.944 18.032 24.015 18.032 22.869 L 18.032 22.87 Z M 11.112 22.875 L 11.112 19.775 C 11.126 19.03 10.738 18.335 10.097 17.955 C 9.459 17.578 8.667 17.578 8.029 17.955 C 7.388 18.335 7.001 19.03 7.015 19.775 L 7.015 22.875 C 7.001 23.62 7.388 24.315 8.029 24.695 C 8.668 25.071 9.459 25.071 10.097 24.695 C 10.738 24.315 11.125 23.62 11.111 22.875 L 11.112 22.875 Z M 24.955 17.4 L 24.955 12.167 C 24.955 11.021 24.035 10.092 22.899 10.092 C 21.763 10.092 20.843 11.021 20.843 12.167 L 20.843 17.4 C 20.843 18.546 21.763 19.475 22.899 19.475 C 24.035 19.475 24.955 18.545 24.955 17.4 Z"/>
    <path d="M24.956 17.4c0 1.145-.92 2.074-2.056 2.074s-2.056-.93-2.056-2.075v-5.233c0-1.146.92-2.075 2.056-2.075s2.056.929 2.056 2.075z" fill-rule="nonzero" opacity=".5"/>
  </g>
</svg>
