<?xml version="1.0" encoding="utf-8"?>
<svg fill="#d1d1d1" height="32" viewBox="0 0 32 32" width="32" xmlns="http://www.w3.org/2000/svg">
  <path d="M 9.928 16.574 L 7.123 16.574 L 4 19.072 L 10.522 19.072 C 11.78 22.062 14.71 24.005 17.954 24 C 22.398 24 26 20.418 26 16 C 26 11.582 22.398 8 17.954 8 C 14.683 7.995 11.735 9.97 10.494 12.996 L 4 12.996 L 7.123 15.494 L 9.923 15.494 C 9.901 15.854 9.902 16.215 9.928 16.574 Z M 22.537 16.149 L 22.537 16.455 C 22.537 16.557 22.531 16.659 22.517 16.761 L 15.48 16.761 C 15.523 17.395 15.831 17.982 16.329 18.378 C 16.573 18.576 16.849 18.732 17.158 18.847 C 17.467 18.962 17.788 19.019 18.122 19.019 C 18.7 19.019 19.189 18.914 19.587 18.703 C 19.986 18.493 20.313 18.203 20.57 17.833 L 22.113 19.057 C 21.2 20.282 19.876 20.895 18.141 20.895 C 17.421 20.895 16.759 20.783 16.155 20.56 C 15.574 20.35 15.04 20.028 14.584 19.612 C 14.133 19.192 13.778 18.68 13.543 18.11 C 13.292 17.517 13.167 16.844 13.167 16.091 C 13.167 15.351 13.292 14.678 13.543 14.072 C 13.794 13.466 14.137 12.95 14.574 12.522 C 15.011 12.095 15.529 11.763 16.126 11.527 C 16.723 11.291 17.37 11.173 18.064 11.173 C 18.707 11.173 19.301 11.278 19.847 11.489 C 20.393 11.7 20.866 12.012 21.265 12.426 C 21.663 12.841 21.975 13.358 22.2 13.976 C 22.425 14.594 22.537 15.319 22.537 16.149 Z M 20.223 15.115 C 20.224 14.83 20.182 14.546 20.098 14.273 C 20.018 14.012 19.883 13.77 19.703 13.565 C 19.523 13.361 19.295 13.198 19.018 13.077 C 18.741 12.956 18.418 12.895 18.045 12.895 C 17.351 12.895 16.763 13.103 16.28 13.517 C 15.805 13.917 15.516 14.495 15.48 15.115 L 20.223 15.115 Z"/>
</svg>
