<?xml version="1.0" encoding="utf-8"?>
<svg fill="#d1d1d1" width="32" height="32" viewBox="0 0 32 32" xmlns="http://www.w3.org/2000/svg">
  <path d="M 15.999 25.612 C 15.756 25.614 15.561 25.813 15.563 26.056 C 15.561 26.299 15.756 26.498 15.999 26.5 C 16.242 26.498 16.437 26.299 16.435 26.056 C 16.436 25.813 16.242 25.615 15.999 25.612 Z M 7.219 11.358 C 7.372 11.448 7.564 11.435 7.705 11.326 C 7.847 11.215 7.908 11.03 7.862 10.856 C 8.027 10.563 7.813 10.203 7.477 10.206 C 7.195 10.209 6.991 10.475 7.059 10.748 C 6.937 10.961 7.008 11.232 7.219 11.358 Z M 7.219 20.652 C 7.01 20.777 6.939 21.046 7.059 21.258 C 7.179 21.47 7.446 21.543 7.655 21.421 C 7.864 21.296 7.935 21.027 7.815 20.815 C 7.697 20.604 7.428 20.531 7.219 20.652 Z M 24.779 11.358 C 25.077 11.184 25.075 10.753 24.775 10.582 C 24.744 10.564 24.71 10.55 24.675 10.54 C 24.503 10.494 24.32 10.557 24.214 10.7 C 24.106 10.844 24.094 11.039 24.183 11.195 C 24.301 11.406 24.57 11.479 24.779 11.358 Z M 16 6.388 C 16.179 6.391 16.341 6.284 16.409 6.119 C 16.479 5.954 16.443 5.763 16.319 5.633 C 16.196 5.504 16.006 5.465 15.842 5.533 C 15.678 5.603 15.571 5.764 15.572 5.943 C 15.572 6.186 15.762 6.383 16 6.388 Z M 23.8 20.582 C 24.014 20.195 24.483 20.028 24.893 20.195 L 24.893 11.8 C 24.485 11.966 24.017 11.802 23.803 11.417 C 23.585 11.032 23.678 10.545 24.023 10.267 L 16.871 6.067 C 16.814 6.505 16.443 6.834 16.001 6.837 C 15.559 6.834 15.188 6.505 15.131 6.067 L 7.981 10.268 C 8.325 10.547 8.416 11.033 8.197 11.418 C 7.983 11.802 7.516 11.965 7.109 11.8 L 7.109 20.2 C 7.517 20.034 7.985 20.198 8.199 20.583 C 8.417 20.968 8.324 21.455 7.979 21.733 L 15.131 25.934 C 15.188 25.496 15.56 25.168 16.001 25.165 C 16.439 25.165 16.81 25.493 16.871 25.934 L 24.022 21.734 C 23.675 21.456 23.582 20.968 23.801 20.582 L 23.8 20.582 Z M 17.688 19.295 C 18.461 18.841 19.043 18.123 19.327 17.273 C 19.752 16.008 21.663 16.713 20.948 18.357 C 20.948 18.373 20.935 18.388 20.929 18.402 L 23.281 19.782 C 23.479 19.904 23.544 20.16 23.429 20.362 C 23.317 20.563 23.062 20.634 22.862 20.52 L 20.525 19.152 C 20.057 19.899 19.418 20.524 18.66 20.974 C 17.989 21.375 17.238 21.624 16.46 21.704 L 16.46 24.304 C 16.46 24.547 16.266 24.744 16.027 24.744 C 15.786 24.742 15.592 24.545 15.594 24.304 L 15.594 21.726 C 13.851 21.621 12.255 20.716 11.269 19.276 L 9.14 20.522 C 8.939 20.64 8.681 20.57 8.567 20.367 C 8.45 20.164 8.518 19.904 8.719 19.784 L 10.839 18.539 C 10.701 18.248 10.586 17.946 10.497 17.636 L 10.295 16.492 C 10.218 15.456 10.421 14.419 10.885 13.49 L 8.72 12.216 C 8.52 12.096 8.452 11.839 8.567 11.636 C 8.68 11.434 8.937 11.363 9.137 11.48 L 11.321 12.761 C 11.785 12.107 12.383 11.56 13.074 11.154 C 13.841 10.702 14.706 10.443 15.595 10.4 L 15.595 7.696 C 15.595 7.453 15.789 7.256 16.028 7.256 C 16.267 7.256 16.46 7.453 16.46 7.696 L 16.46 10.426 C 18.098 10.615 19.571 11.514 20.488 12.885 L 22.87 11.48 C 23.07 11.357 23.332 11.428 23.442 11.635 C 23.555 11.839 23.486 12.097 23.285 12.216 L 20.046 14.122 L 20.002 14.143 L 19.24 14.593 L 17.632 15.537 L 12.914 18.301 C 14.012 19.811 16.077 20.241 17.687 19.295 L 17.688 19.295 Z M 24.78 20.652 C 24.571 20.53 24.303 20.604 24.185 20.815 C 24.065 21.027 24.136 21.296 24.345 21.421 C 24.554 21.544 24.823 21.471 24.94 21.259 C 25.06 21.047 24.989 20.778 24.78 20.652 Z M 12.284 16.587 L 18.144 13.145 C 16.97 12.186 15.324 12.06 14.018 12.829 C 12.438 13.757 12.241 14.92 12.284 16.587 Z"/>
</svg>
