<?xml version="1.0" encoding="utf-8"?>
<svg fill="#d1d1d1" viewBox="0 0 32 32" xmlns="http://www.w3.org/2000/svg">
  <path fill-rule="evenodd" d="M 24.99 12.502 C 24.987 12.103 24.899 11.709 24.733 11.347 C 24.475 10.776 24.078 10.242 23.537 9.921 C 21.507 8.729 19.475 7.547 17.446 6.356 C 17.214 6.22 16.952 6.144 16.695 6.072 C 16.118 5.961 15.522 5.995 14.961 6.17 C 14.628 6.284 14.337 6.492 14.031 6.662 C 12.165 7.752 10.301 8.842 8.436 9.928 C 8.192 10.078 7.976 10.268 7.797 10.492 C 7.357 11.022 7.047 11.684 7.009 12.384 L 7.009 19.57 C 7.009 20.051 7.169 20.513 7.389 20.933 C 7.659 21.417 8.025 21.867 8.515 22.14 C 10.521 23.31 12.528 24.483 14.535 25.652 C 14.83 25.822 15.158 25.921 15.495 25.966 C 16.141 26.046 16.829 25.993 17.411 25.682 C 19.317 24.57 21.218 23.457 23.125 22.348 C 23.405 22.181 23.7 22.034 23.936 21.808 C 24.438 21.334 24.787 20.721 24.938 20.047 C 25.005 19.757 24.99 19.454 24.99 19.158 L 24.99 12.502 Z M 15.94 10.026 C 16.004 10.048 16.056 10.096 16.082 10.159 C 16.444 10.833 16.952 11.415 17.483 11.96 C 17.827 12.297 18.081 12.736 18.167 13.216 C 18.28 13.75 17.966 14.341 17.461 14.534 C 17.091 14.678 16.661 14.651 16.306 14.477 C 16.239 14.454 16.126 14.375 16.086 14.469 C 16.153 14.931 16.389 15.335 16.602 15.736 C 16.654 15.823 16.554 15.884 16.505 15.94 C 16.285 16.144 16.098 16.387 15.859 16.572 C 15.788 16.549 15.739 16.481 15.687 16.432 C 15.482 16.216 15.265 16.008 15.06 15.788 C 15.056 15.773 15.052 15.735 15.049 15.72 C 15.277 15.311 15.565 14.91 15.639 14.437 C 15.565 14.426 15.49 14.437 15.422 14.467 C 15.045 14.615 14.614 14.649 14.234 14.497 C 13.851 14.347 13.579 14 13.527 13.592 C 13.489 13.293 13.579 12.995 13.713 12.732 C 13.88 12.362 14.161 12.063 14.453 11.786 C 15.011 11.255 15.509 10.665 15.94 10.026 Z M 12.307 16.536 C 12.883 16.192 13.588 16.144 14.206 16.406 C 14.254 16.426 14.266 16.436 14.303 16.46 C 14.497 16.536 14.665 16.66 14.822 16.8 C 15.177 17.107 15.464 17.485 15.827 17.784 C 16.179 17.451 16.503 17.087 16.859 16.763 C 17.359 16.301 18.092 16.165 18.741 16.297 C 19.758 16.497 20.513 17.549 20.441 18.591 C 20.408 19.249 20.08 19.9 19.541 20.275 C 19.175 20.529 18.741 20.71 18.292 20.699 C 17.702 20.722 17.123 20.457 16.705 20.044 C 15.916 19.254 15.155 18.436 14.362 17.648 C 14.13 17.398 13.816 17.216 13.472 17.194 C 13.226 17.187 12.982 17.242 12.763 17.354 C 12.423 17.535 12.195 17.898 12.139 18.281 C 12.069 18.686 12.214 19.124 12.516 19.401 C 12.983 19.852 13.802 19.848 14.257 19.386 C 14.373 19.288 14.481 19.091 14.661 19.17 C 14.773 19.238 14.851 19.352 14.949 19.44 C 15.024 19.526 15.139 19.598 15.15 19.727 C 15.15 19.857 15.035 19.931 14.956 20.015 C 14.746 20.235 14.504 20.42 14.22 20.534 C 13.67 20.75 13.036 20.754 12.49 20.519 C 11.626 20.129 11.07 19.133 11.208 18.179 C 11.306 17.501 11.706 16.862 12.308 16.536 L 12.307 16.536 Z M 17.344 17.588 C 17.068 17.876 16.784 18.152 16.507 18.44 C 16.511 18.459 16.515 18.5 16.518 18.523 C 16.851 18.833 17.142 19.185 17.489 19.48 C 17.956 19.878 18.7 19.825 19.133 19.404 C 19.556 18.992 19.653 18.273 19.323 17.774 C 19.108 17.433 18.736 17.221 18.333 17.209 C 17.969 17.179 17.603 17.33 17.344 17.589 L 17.344 17.588 Z"/>
</svg>
