<?xml version="1.0" encoding="utf-8"?>
<svg fill="#d1d1d1" height="32" viewBox="0 0 32 32" width="32" xmlns="http://www.w3.org/2000/svg">
  <path d="M 13.06 23.874 L 14.769 25.596 C 15.307 26.135 16.18 26.135 16.718 25.596 L 18.437 23.874 L 15.743 21.177 L 13.06 23.874 Z M 20.01 14.632 L 22.703 11.935 L 20.011 9.238 L 17.318 11.935 L 20.01 14.632 Z M 19.341 22.995 L 25.596 16.73 C 26.135 16.19 26.135 15.317 25.596 14.777 L 23.878 13.056 L 16.648 20.298 L 19.341 22.995 Z M 11.938 22.717 L 19.156 15.487 L 16.464 12.79 L 9.246 20.02 L 11.938 22.717 Z M 8.116 18.917 L 10.821 16.219 L 8.128 13.521 L 6.41 15.243 C 5.868 15.779 5.862 16.652 6.397 17.195 L 8.116 18.917 Z M 18.883 8.129 L 17.164 6.404 C 16.626 5.865 15.753 5.865 15.215 6.404 L 8.96 12.67 L 11.653 15.367 L 18.883 8.129 Z" fill-rule="evenodd"/>
</svg>
