<?xml version="1.0" encoding="utf-8"?>
<svg fill="#d1d1d1" viewBox="0 0 32 32" xmlns="http://www.w3.org/2000/svg">
  <path d="M 9.471 9.016 C 8.963 9.016 8.431 8.97 7.969 9.196 C 7.726 9.57 7.669 10.102 7.958 10.476 C 8.235 10.725 8.639 10.725 8.998 10.736 C 10.604 10.736 12.21 10.725 13.817 10.736 C 13.771 12.128 13.817 13.532 13.794 14.936 C 12.361 14.936 10.916 14.924 9.484 14.936 C 9.114 14.936 8.674 15.004 8.512 15.377 C 8.385 15.717 8.385 16.158 8.674 16.418 C 8.917 16.622 9.264 16.622 9.576 16.634 C 10.986 16.634 12.384 16.622 13.794 16.634 C 13.794 18.162 13.771 19.701 13.805 21.24 C 11.979 21.274 10.142 21.218 8.315 21.274 C 7.542 21.229 7.253 22.271 7.738 22.757 C 8.015 23.007 8.42 22.972 8.778 22.995 C 12.06 22.995 15.331 23.006 18.613 22.995 C 20.3 22.984 22.08 22.565 23.351 21.422 C 24.784 20.176 25.408 18.264 25.489 16.442 C 25.57 14.607 25.212 12.638 23.987 11.178 C 22.947 9.921 21.34 9.265 19.734 9.095 C 18.127 8.948 17.057 9.015 14.904 9.015 L 9.47 9.015 L 9.471 9.016 Z M 15.805 14.936 L 15.805 11.325 C 15.816 11.121 15.828 10.838 16.059 10.77 C 16.787 10.702 17.459 10.725 18.243 10.725 C 19.618 10.645 21.098 10.985 22.08 11.981 C 23.166 13.091 23.444 14.721 23.409 16.203 C 23.386 17.539 23.039 18.943 22.091 19.95 C 21.167 20.912 19.781 21.32 18.463 21.263 C 17.576 21.263 16.891 21.286 16.105 21.218 C 15.816 21.195 15.805 20.856 15.793 20.629 C 15.793 19.294 15.805 17.969 15.793 16.634 C 16.452 16.622 17.123 16.69 17.769 16.588 C 18.567 16.475 18.567 15.094 17.781 14.981 C 17.122 14.891 16.463 14.947 15.805 14.936 Z"/>
</svg>
