<?xml version="1.0" encoding="utf-8"?>
<svg fill="#d1d1d1" width="32" height="32" viewBox="0 0 32 32" xmlns="http://www.w3.org/2000/svg">
  <g fill-rule="evenodd">
    <path d="M 6 10.23 L 16 15.934 L 26 10.23 L 21 7.43 L 15.996 10.302 L 11 7.432 L 6 10.231 L 6 10.23 Z M 6 19.23 L 16 24.934 L 26 19.23 L 21 16.43 L 16 19.304 L 11 16.433 L 6 19.231 L 6 19.23 Z"/>
    <g fill-rule="nonzero">
      <path fill-opacity=".604" d="M11 22.119l5-2.82v5.635l-5-2.815zm0-9l5-2.82v5.635l-5-2.815z"/>
      <path fill-opacity=".299" d="M26 19.23l-5 2.886V16.43l5 2.8zm0-9l-5 2.886V7.43l5 2.8z"/>
      <path fill-opacity=".197" d="M11 22.116v-5.683l5 2.87-5 2.813zm0-9V7.433l5 2.87-5 2.813z"/>
      <path fill-opacity=".404" d="M21 22.116l-5 2.818v-5.63l5 2.812zm0-9l-5 2.818v-5.63l5 2.812z"/>
      <path fill-opacity=".5" d="M11 16.433v5.683l-5-2.885 5-2.798zm0-9v5.683l-5-2.885 5-2.798z"/>
    </g>
  </g>
</svg>
