<?xml version="1.0" encoding="utf-8"?>
<svg fill="#d1d1d1" viewBox="0 0 32 32" xmlns="http://www.w3.org/2000/svg">
  <path d="M 26 15.962 C 26.001 13.646 24.209 11.827 21.91 11.812 C 19.658 11.797 17.8 13.661 17.788 15.947 C 17.776 18.234 19.614 20.107 21.878 20.113 C 24.19 20.12 25.999 18.298 26 15.963 L 26 15.962 Z M 9.09 23.92 C 10.013 23.924 10.825 23.601 11.377 22.866 C 11.721 22.409 11.925 21.828 12.117 21.276 C 12.469 20.264 12.939 19.378 14.009 18.989 C 14.607 18.772 15.191 18.962 15.779 19.065 C 16.445 19.181 16.977 18.833 17.154 18.185 C 17.314 17.616 17.028 17.016 16.484 16.783 C 15.898 16.531 15.238 16.752 14.947 17.346 C 14.661 17.93 14.21 18.329 13.68 18.658 C 13.315 18.885 12.92 18.98 12.507 18.844 C 11.842 18.626 11.189 18.367 10.521 18.158 C 10.051 18.011 9.567 17.831 9.085 17.82 C 7.408 17.781 6.075 19.16 6.069 20.866 C 6.05 22.548 7.408 23.921 9.09 23.92 Z M 9.026 8.082 C 6.802 8.082 5.342 10.422 6.298 12.452 C 7.039 14.058 8.995 14.685 10.532 13.81 C 10.934 13.587 11.335 13.348 11.762 13.187 C 12.992 12.725 13.897 12.995 14.712 14.025 C 14.832 14.175 14.932 14.342 15.039 14.502 C 15.339 14.949 15.892 15.156 16.381 15.004 C 16.934 14.831 17.238 14.401 17.225 13.81 C 17.206 12.958 16.415 12.43 15.592 12.73 C 14.664 13.069 13.201 12.948 12.618 11.707 C 12.383 11.207 12.106 10.72 11.922 10.199 C 11.458 8.883 10.393 8.082 9.026 8.082 Z M 18.556 23.99 C 18.569 22.868 17.707 21.938 16.579 21.949 C 15.4 21.96 14.552 22.899 14.582 24.053 C 14.608 25.073 15.488 25.98 16.542 26 C 17.631 26.02 18.544 25.109 18.557 23.99 L 18.556 23.99 Z M 14.594 8.02 C 14.542 8.998 15.295 10.029 16.574 10.053 C 17.698 10.074 18.552 9.159 18.56 8.018 C 18.569 6.933 17.667 6.01 16.589 6 C 15.48 5.99 14.593 6.888 14.594 8.02 Z" fill-rule="evenodd"/>
</svg>
