<?xml version="1.0" encoding="utf-8"?>
<svg fill="#d1d1d1" height="32" viewBox="0 0 32 32" width="32" xmlns="http://www.w3.org/2000/svg">
  <path d="M 10.098 23.596 L 15.985 25.941 L 21.869 23.593 L 18.683 15.983 L 21.871 8.365 L 15.985 6.023 L 10.098 8.368 L 13.287 15.983 L 10.098 23.596 Z"/>
  <path d="M15.985 15.984v5.306l-5.89 2.31 5.89-7.62v-5.306l5.89-2.31z" fill-opacity=".197"/>
  <path d="M15.985 21.29v4.651l-5.89-2.344 5.89-2.315v-5.298l-5.89-7.62 5.89 2.31V6.023l5.89 2.343-5.89 2.315v5.299l5.89 7.62z" fill-opacity=".5"/>
  <path d="M10.095 8.366l5.89-2.343v4.658zm11.78 15.231l-5.89 2.344v-4.659z" fill-opacity=".75"/>
</svg>
