<?xml version="1.0" encoding="utf-8"?>
<svg fill="#d1d1d1" viewBox="0 0 32 32" xmlns="http://www.w3.org/2000/svg">
  <path d="M 18.073 13.212 L 20.28 11.005 L 16 5 L 11.75 11.062 L 13.913 13.226 L 16 11.14 L 18.073 13.212 Z M 13.19 13.95 L 10.99 11.75 L 5 16 L 11.056 20.229 L 13.212 18.073 L 11.14 16 L 13.19 13.95 Z M 18.774 18.087 L 20.956 20.269 L 27 16 L 21.022 11.71 L 18.796 13.936 L 20.86 16 L 18.774 18.087 Z M 13.936 18.797 L 11.796 20.936 L 16 27 L 20.232 20.993 L 18.05 18.81 L 16 20.86 L 13.936 18.797 Z M 16 12.527 L 12.528 16 L 16 19.472 L 19.472 16 L 16 12.527 Z" fill-rule="evenodd"/>
</svg>
