<?xml version="1.0" encoding="utf-8"?>
<svg fill="#d1d1d1" width="32" height="32" viewBox="0 0 32 32" xmlns="http://www.w3.org/2000/svg">
  <path d="M 15.657 5.108 L 15.573 5.178 L 5.179 15.568 C 4.971 15.775 4.941 16.101 5.108 16.343 L 5.178 16.428 L 15.568 26.821 C 15.775 27.029 16.102 27.059 16.344 26.892 L 16.428 26.822 L 26.818 16.432 C 27.059 16.195 27.061 15.807 26.822 15.568 L 16.432 5.178 C 16.225 4.97 15.898 4.941 15.657 5.108 Z M 16.044 7.436 L 16.084 7.463 L 24.538 15.916 C 24.574 15.95 24.584 16.002 24.565 16.047 L 24.538 16.088 L 16.922 23.704 L 16.922 16 L 15.074 16 L 15.074 23.704 L 7.458 16.088 C 7.423 16.054 7.413 16.002 7.431 15.957 L 7.458 15.917 L 15.912 7.463 C 15.946 7.428 15.999 7.417 16.044 7.436 Z"/>
</svg>
