<?xml version="1.0" encoding="utf-8"?>
<svg fill="#d1d1d1" viewBox="0 0 32 32" xmlns="http://www.w3.org/2000/svg">
  <path d="M 6 22.998 L 19.095 22.998 L 20.988 19.159 L 7.894 19.159 L 6 23 L 6 22.998 Z M 8.51 17.908 L 21.606 17.908 L 23.494 14.08 L 10.4 14.08 L 8.512 17.908 L 8.51 17.908 Z M 11.017 12.828 L 24.11 12.828 L 26 9 L 12.905 9 L 11.017 12.829 L 11.017 12.828 Z"/>
  <path fill-opacity=".4" d="M7.894 19.16h8.781l-1.894 3.838H6l1.894-3.839zm.617-1.252L10.4 14.08h8.78l-1.888 3.828H8.51zm2.506-5.08L12.905 9h8.781l-1.889 3.829h-8.78z"/>
  <path fill-opacity=".4" d="M7.894 19.161h4.397L10.398 23H6l1.894-3.839zm2.505-5.08h4.398L12.91 17.91h-4.4l1.89-3.83zm2.506-5.08h4.398l-1.889 3.83h-4.397L12.905 9z"/>
</svg>
