<?xml version="1.0" encoding="utf-8"?>
<svg fill="#d1d1d1" viewBox="0 0 32 32" xmlns="http://www.w3.org/2000/svg">
  <path d="M 25.149 10.295 C 25.127 10.283 25.106 10.27 25.085 10.257 L 25.083 10.256 L 25.081 10.255 L 22.414 8.703 L 20.719 7.716 L 18.983 6.706 C 18.053 6.166 17.093 5.606 16.146 5.057 L 16.05 5 L 15.947 5.04 C 15.855 5.075 15.767 5.116 15.682 5.165 L 15.672 5.171 L 11.702 7.526 L 9.964 8.556 C 8.915 9.178 7.83 9.821 6.77 10.454 C 6.51 10.579 6.517 10.856 6.52 10.99 L 6.521 11.022 L 6.521 11.082 C 6.517 13.514 6.514 16.029 6.508 18.505 L 6.5 21.257 C 6.486 21.461 6.58 21.64 6.738 21.717 C 8.63 22.805 10.55 23.913 12.406 24.984 L 15.748 26.912 C 15.829 26.966 15.924 26.997 16.021 27 C 16.098 27 16.174 26.975 16.235 26.928 L 21.08 24.1 L 22.9 23.038 C 23.654 22.597 24.435 22.14 25.2 21.695 C 25.384 21.613 25.497 21.424 25.482 21.223 L 25.497 10.806 C 25.523 10.496 25.262 10.356 25.148 10.296 L 25.149 10.295 Z M 16.38 25.965 L 16.386 21.522 L 18.03 20.567 C 18.485 20.301 18.95 20.031 19.4 19.77 L 20.644 19.046 L 20.645 19.045 L 20.671 19.028 C 20.743 18.989 20.806 18.935 20.855 18.869 L 20.9 18.807 L 20.9 18.731 C 20.892 17.781 20.89 16.725 20.893 15.406 L 20.894 14.794 L 20.894 13.63 L 24.744 11.378 L 24.738 15.243 L 24.729 21.092 C 22.933 22.139 21.137 23.186 19.342 24.235 L 16.38 25.965 Z M 12.184 13.41 L 16.006 11.166 L 19.789 13.398 L 16.012 15.606 L 14.708 14.857 C 13.867 14.374 13.026 13.891 12.184 13.41 Z M 11.794 14.06 L 15.639 16.265 L 15.633 20.645 L 11.865 18.449 L 11.794 14.06 Z M 7.274 11.466 L 11.034 13.626 L 11.116 18.584 C 11.106 18.779 11.202 18.957 11.357 19.03 C 11.892 19.343 12.437 19.66 12.964 19.966 L 13.992 20.565 L 15.632 21.52 L 15.629 25.97 L 7.255 21.14 L 7.274 11.466 Z M 24.368 10.72 L 20.538 12.958 L 16.263 10.437 C 16.114 10.332 15.916 10.328 15.763 10.427 L 11.43 12.97 L 7.65 10.806 L 10.276 9.249 C 12.036 8.204 13.913 7.092 16.012 5.852 C 17.902 6.958 19.732 8.022 21.276 8.918 C 21.816 9.234 22.366 9.554 22.898 9.863 L 24.367 10.719 L 24.368 10.72 Z M 16.386 20.647 L 16.389 16.265 L 20.178 14.051 L 20.178 18.443 C 18.913 19.176 17.649 19.911 16.386 20.647 Z M 21.513 19.854 C 21.648 19.822 21.76 19.725 21.811 19.596 C 21.886 19.427 21.856 19.23 21.733 19.092 L 21.732 19.09 C 21.649 18.994 21.529 18.939 21.402 18.937 C 21.184 18.94 21 19.098 20.965 19.313 C 20.932 19.475 20.987 19.643 21.111 19.754 C 21.186 19.83 21.29 19.873 21.397 19.871 C 21.436 19.871 21.475 19.865 21.513 19.854 Z M 23.577 21.262 C 23.698 21.369 23.871 21.394 24.017 21.326 C 24.168 21.263 24.273 21.124 24.293 20.962 C 24.321 20.783 24.242 20.604 24.091 20.505 C 24.02 20.455 23.935 20.428 23.848 20.428 C 23.77 20.428 23.693 20.451 23.627 20.494 C 23.494 20.576 23.411 20.718 23.405 20.874 C 23.394 21.024 23.458 21.17 23.577 21.262 Z M 10.388 18.942 C 10.173 18.946 9.99 19.1 9.948 19.311 C 9.884 19.59 10.09 19.858 10.376 19.868 C 10.41 19.868 10.446 19.863 10.478 19.855 C 10.619 19.824 10.736 19.727 10.792 19.594 C 10.867 19.428 10.837 19.234 10.715 19.098 C 10.635 19 10.515 18.943 10.388 18.942 Z M 22.344 20.518 C 22.466 20.616 22.63 20.643 22.777 20.588 C 22.923 20.535 23.031 20.409 23.059 20.256 C 23.1 20.092 23.046 19.919 22.92 19.807 C 22.839 19.73 22.732 19.686 22.62 19.686 C 22.399 19.694 22.215 19.858 22.182 20.076 C 22.153 20.242 22.215 20.41 22.344 20.518 Z M 9.439 19.795 C 9.362 19.725 9.263 19.686 9.159 19.685 C 9.106 19.685 9.054 19.696 9.005 19.717 C 8.84 19.779 8.727 19.932 8.716 20.108 C 8.7 20.293 8.786 20.468 8.933 20.554 C 8.999 20.596 9.076 20.619 9.155 20.62 C 9.221 20.619 9.286 20.604 9.345 20.576 L 9.346 20.576 C 9.482 20.515 9.578 20.389 9.6 20.242 C 9.632 20.075 9.57 19.903 9.439 19.795 Z M 15.949 6.167 C 15.924 6.167 15.899 6.17 15.875 6.174 C 15.721 6.195 15.589 6.292 15.523 6.433 L 15.523 6.435 C 15.454 6.577 15.463 6.744 15.549 6.877 C 15.651 7.036 15.84 7.116 16.025 7.08 L 16.027 7.08 L 16.03 7.079 C 16.21 7.054 16.356 6.919 16.396 6.742 C 16.437 6.593 16.396 6.434 16.289 6.322 C 16.203 6.224 16.079 6.168 15.949 6.167 Z M 8.15 20.49 C 8.017 20.41 7.851 20.41 7.718 20.49 C 7.572 20.575 7.484 20.732 7.487 20.9 C 7.487 21.074 7.579 21.233 7.723 21.308 C 7.783 21.343 7.853 21.362 7.927 21.362 C 8.014 21.361 8.098 21.336 8.171 21.288 C 8.31 21.2 8.391 21.044 8.382 20.88 C 8.382 20.717 8.293 20.568 8.15 20.49 Z M 16.19 9.205 C 16.113 9.155 16.023 9.128 15.931 9.128 C 15.852 9.128 15.774 9.148 15.705 9.188 C 15.569 9.26 15.48 9.399 15.472 9.553 C 15.457 9.708 15.525 9.859 15.65 9.952 C 15.73 10.015 15.827 10.048 15.934 10.048 C 16.002 10.047 16.07 10.032 16.132 10.004 L 16.133 10.004 C 16.289 9.939 16.394 9.792 16.405 9.624 C 16.417 9.455 16.334 9.293 16.19 9.204 L 16.19 9.205 Z M 15.62 8.447 C 15.705 8.527 15.812 8.569 15.93 8.569 C 15.999 8.569 16.067 8.554 16.13 8.525 C 16.295 8.456 16.403 8.294 16.405 8.115 C 16.41 7.945 16.319 7.787 16.169 7.706 C 16.097 7.667 16.017 7.646 15.935 7.646 C 15.848 7.645 15.763 7.67 15.691 7.718 C 15.567 7.794 15.486 7.925 15.473 8.07 L 15.473 8.073 C 15.459 8.214 15.515 8.353 15.621 8.447 L 15.62 8.447 Z" fill-rule="evenodd"/>
</svg>
