<?xml version="1.0" encoding="utf-8"?>
<svg fill="#d1d1d1" height="32" viewBox="0 0 32 32" width="32" xmlns="http://www.w3.org/2000/svg">
  <path d="M 22.313 9 C 19.291 9 16.27 9 13.261 9.006 C 12.431 9.088 11.589 9.126 10.766 9.303 C 8.448 9.794 7.395 10.903 7.119 13.16 C 7.072 13.513 7.039 13.872 7 14.231 L 7 17.867 C 7.06 18.327 7.105 18.794 7.184 19.254 C 7.534 21.246 8.567 22.254 10.641 22.664 C 11.523 22.834 12.418 22.941 13.314 22.96 C 16.224 23.017 19.134 23.01 22.044 22.96 C 22.741 22.953 23.446 22.903 24.117 22.695 C 24.901 22.455 25.25 21.523 24.802 20.855 C 24.572 20.508 24.202 20.458 23.808 20.458 C 20.707 20.458 17.613 20.464 14.512 20.445 C 13.623 20.439 12.734 20.388 11.872 20.155 C 11.095 19.947 10.614 19.481 10.417 18.731 C 10.312 18.328 10.285 17.918 10.252 17.501 C 10.212 17.048 10.206 17.048 10.687 17.048 L 23.677 17.048 C 23.86 17.048 24.051 17.042 24.236 17.01 C 24.676 16.928 24.934 16.702 24.96 16.292 C 24.993 15.782 25.138 15.227 24.558 14.874 C 24.384 14.773 24.186 14.721 23.985 14.723 L 10.957 14.723 C 10.213 14.723 10.213 14.723 10.272 14.01 C 10.404 12.492 10.996 11.868 12.57 11.622 C 13.04 11.544 13.516 11.504 13.992 11.502 C 17.165 11.489 20.345 11.483 23.518 11.477 C 23.752 11.476 23.985 11.46 24.216 11.427 C 24.604 11.363 24.848 11.13 24.914 10.752 C 25.078 9.819 24.762 9.359 23.794 9.176 C 23.307 9.088 22.807 9.056 22.314 9 L 22.313 9 Z"/>
</svg>
