<?xml version="1.0" encoding="utf-8"?>
<svg fill="#d1d1d1" width="32" height="32" viewBox="0 0 32 32" xmlns="http://www.w3.org/2000/svg">
  <path d="M 14.737 4.502 C 14.629 4.517 14.212 4.595 13.811 4.656 C 11.573 5.034 9.506 6.13 7.793 7.85 C 6.073 9.563 5.023 11.546 4.583 13.907 C 4.383 14.98 4.383 17.078 4.583 18.151 C 5.023 20.511 6.073 22.494 7.793 24.207 C 9.506 25.927 11.488 26.977 13.849 27.417 C 14.922 27.617 17.02 27.617 18.093 27.417 C 20.453 26.977 22.437 25.927 24.15 24.207 C 25.87 22.494 26.92 20.512 27.36 18.151 C 27.56 17.078 27.56 14.98 27.36 13.907 C 26.92 11.547 25.87 9.563 24.15 7.85 C 22.475 6.168 20.585 5.142 18.294 4.68 C 17.584 4.533 15.223 4.417 14.737 4.502 Z M 18.857 8.592 C 18.949 8.63 18.98 8.745 18.98 9.054 L 18.98 9.471 L 18.494 9.471 C 17.877 9.471 17.391 9.702 17.19 10.088 C 17.059 10.335 17.051 10.636 17.051 14.293 C 17.051 16.453 17.021 18.266 16.99 18.32 C 16.828 18.567 15.64 18.637 15.107 18.428 L 14.891 18.343 L 14.891 14.355 C 14.891 10.635 14.883 10.335 14.752 10.088 C 14.552 9.702 14.065 9.471 13.448 9.471 L 12.962 9.471 L 12.962 9.054 C 12.962 8.792 13.001 8.622 13.062 8.599 C 13.202 8.537 18.71 8.537 18.857 8.591 L 18.857 8.592 Z M 14.428 11.808 L 14.428 12.758 L 14.204 12.888 C 13.873 13.082 13.317 13.66 13.094 14.038 C 12.958 14.286 12.85 14.547 12.769 14.818 L 12.646 15.258 L 11.759 15.258 C 10.748 15.258 10.779 15.296 10.995 14.448 C 11.265 13.421 11.921 12.379 12.715 11.747 C 13.155 11.392 14.127 10.859 14.32 10.859 C 14.405 10.859 14.428 11.06 14.428 11.809 L 14.428 11.808 Z M 18.255 11.13 C 19.589 11.796 20.57 13.005 20.948 14.447 C 21.164 15.296 21.195 15.257 20.184 15.257 L 19.297 15.257 L 19.173 14.817 C 19.093 14.547 18.984 14.286 18.849 14.038 C 18.625 13.66 18.069 13.082 17.738 12.888 L 17.514 12.758 L 17.514 11.808 C 17.514 11.06 17.537 10.859 17.622 10.859 C 17.676 10.859 17.962 10.983 18.255 11.129 L 18.255 11.13 Z M 12.654 15.983 C 12.654 16.345 12.893 17.086 13.14 17.472 C 14.459 19.562 17.483 19.562 18.803 17.472 C 19.05 17.086 19.289 16.345 19.289 15.982 L 19.289 15.72 L 21.133 15.72 L 21.094 16.121 C 20.901 17.996 19.867 19.509 18.247 20.311 C 17.499 20.681 16.843 20.836 15.971 20.836 C 13.271 20.836 11.134 18.868 10.848 16.121 L 10.81 15.721 L 12.654 15.721 L 12.654 15.983 Z M 17.09 21.561 C 17.19 22.101 17.746 22.433 18.579 22.433 L 18.98 22.433 L 18.98 23.281 L 12.962 23.281 L 12.962 22.455 L 13.525 22.417 C 13.888 22.394 14.181 22.325 14.343 22.232 C 14.583 22.093 14.891 21.63 14.891 21.414 C 14.891 21.337 15.138 21.314 15.963 21.314 L 17.043 21.314 L 17.09 21.561 Z"/>
</svg>
