<?xml version="1.0" encoding="utf-8"?>
<svg fill="#d1d1d1" width="32" height="32" viewBox="0 0 32 32" xmlns="http://www.w3.org/2000/svg">
  <path d="M 15.81 27.675 C 15.91 27.728 16.043 27.754 16.123 27.754 C 16.275 27.747 16.419 27.688 16.533 27.588 C 17.402 27.04 21.493 24.461 23.631 23.2 C 24.061 22.954 24.185 22.708 24.061 22.277 C 23.338 18.893 22.62 15.509 21.908 12.123 L 21.9 12.143 C 21.894 11.987 21.817 11.848 21.662 11.631 C 21.662 11.631 18.277 6.708 16.8 4.554 C 16.492 4.184 16.308 4 16.123 4 C 15.938 4 15.693 4.185 15.446 4.554 C 13.969 6.646 10.585 11.631 10.585 11.631 C 10.445 11.827 10.368 11.959 10.35 12.097 L 10.338 12.062 C 10.338 12.062 8.862 19.138 8.123 22.277 C 8 22.707 8.123 22.954 8.553 23.2 C 10.953 24.615 15.815 27.692 15.815 27.692 L 15.81 27.675 Z M 10.768 13.419 C 11.405 15.189 13.115 19.96 13.908 22.339 C 14.246 23.269 14.963 25.392 15.378 26.629 L 10.954 23.939 C 10.338 23.569 9.662 23.2 9.046 22.769 C 8.8 22.585 8.8 22.4 8.8 22.277 C 9.415 19.386 10.092 16.249 10.768 13.419 Z M 16.901 26.571 C 17.393 25.164 17.872 23.753 18.338 22.338 C 19.117 20.053 20.779 15.383 21.442 13.526 C 22.11 16.328 22.777 19.422 23.385 22.276 C 23.385 22.4 23.385 22.585 23.138 22.769 C 22.523 23.2 21.846 23.569 21.231 23.939 C 19.889 24.755 18.271 25.737 16.901 26.571 Z M 20.551 12.492 C 19.953 14.252 17.37 21.852 16.123 25.538 C 14.598 21.192 13.082 16.844 11.574 12.492 L 20.551 12.492 Z M 11.656 11.815 C 12.406 10.718 14.966 6.972 16.062 5.354 C 17.527 7.51 18.996 9.663 20.467 11.815 L 11.657 11.815 L 11.656 11.815 Z"/>
</svg>
