<?xml version="1.0" encoding="utf-8"?>
<svg fill="#d1d1d1" viewBox="0 0 32 32" xmlns="http://www.w3.org/2000/svg">
  <path d="M 10.572 11.547 L 8.102 22.831 C 8.065 22.973 8.129 23.123 8.257 23.194 L 15.83 27.939 C 15.886 27.974 15.946 27.989 16.003 27.989 C 16.065 27.99 16.125 27.972 16.177 27.939 L 23.75 23.194 C 23.878 23.122 23.941 22.973 23.904 22.831 L 21.434 11.547 C 21.425 11.5 21.405 11.455 21.376 11.417 L 16.266 4.435 C 16.206 4.35 16.107 4.3 16.003 4.303 C 15.899 4.3 15.801 4.35 15.741 4.435 L 10.631 11.418 C 10.602 11.456 10.582 11.501 10.572 11.548 L 10.572 11.547 Z M 9.177 20.914 L 10.944 12.844 L 11.954 16.015 L 9.177 20.914 Z M 8.961 22.594 L 12.218 16.846 L 14.048 22.593 L 8.96 22.593 L 8.961 22.594 Z M 9.526 23.234 L 14.252 23.234 L 15.43 26.933 L 9.526 23.233 L 9.526 23.234 Z M 12.383 15.256 L 11.24 11.668 L 15.68 5.603 L 15.68 9.439 L 12.383 15.256 Z M 16.003 26.625 L 14.923 23.233 L 17.083 23.233 L 16.003 26.625 Z M 16.577 26.933 L 17.755 23.233 L 22.481 23.233 L 16.577 26.933 Z M 21.063 12.844 L 22.829 20.914 L 20.053 16.015 L 21.063 12.845 L 21.063 12.844 Z M 19.623 15.256 L 16.327 9.44 L 16.327 5.603 L 20.767 11.668 L 19.623 15.256 Z M 23.045 22.593 L 17.96 22.593 L 19.79 16.846 L 23.046 22.593 L 23.045 22.593 Z M 16.003 10.166 L 19.359 16.087 L 17.287 22.593 L 14.72 22.593 L 12.648 16.087 L 16.003 10.166 Z"/>
</svg>
