<?xml version="1.0" encoding="utf-8"?>
<svg fill="#d1d1d1" width="32" height="32" viewBox="0 0 32 32" xmlns="http://www.w3.org/2000/svg">
  <path d="M 10.027 19.38 L 10.771 17.9 C 10.826 17.784 10.819 17.647 10.751 17.538 C 10.681 17.432 10.564 17.368 10.437 17.367 L 8.835 17.367 L 13.032 9.611 L 16.781 16.431 C 16.847 16.546 16.971 16.622 17.105 16.622 L 18.793 16.622 C 18.924 16.626 19.045 16.557 19.108 16.442 C 19.173 16.327 19.177 16.187 19.118 16.069 L 13.346 5.691 C 13.213 5.452 12.831 5.452 12.698 5.691 L 5.296 19.036 C 5.232 19.153 5.236 19.295 5.306 19.408 C 5.372 19.522 5.496 19.589 5.62 19.589 L 9.693 19.589 C 9.835 19.589 9.965 19.507 10.027 19.379 L 10.027 19.38 Z M 26.701 19.036 L 19.29 5.69 C 19.22 5.572 19.093 5.499 18.956 5.499 C 18.821 5.505 18.698 5.581 18.632 5.699 L 16.782 9.41 C 16.734 9.516 16.734 9.638 16.782 9.744 L 17.526 11.222 C 17.65 11.47 18.06 11.47 18.193 11.222 L 18.985 9.639 L 23.173 17.366 L 15.265 17.366 C 15.065 17.366 14.893 17.528 14.893 17.738 L 14.893 19.216 C 14.893 19.416 15.055 19.588 15.265 19.588 L 26.378 19.588 C 26.509 19.592 26.631 19.522 26.693 19.407 C 26.767 19.295 26.771 19.151 26.703 19.035 L 26.701 19.036 Z M 21.884 20.514 C 21.817 20.398 21.694 20.326 21.56 20.324 L 19.709 20.324 C 19.575 20.326 19.452 20.398 19.385 20.514 C 19.317 20.63 19.321 20.774 19.395 20.886 L 20.167 22.174 L 11.83 22.174 L 15.588 15.688 C 15.653 15.58 15.657 15.446 15.598 15.335 L 14.854 13.856 C 14.795 13.731 14.667 13.653 14.529 13.656 C 14.39 13.649 14.26 13.723 14.195 13.846 L 11.238 19.026 L 8.272 23.843 C 8.202 23.956 8.198 24.098 8.262 24.215 C 8.329 24.332 8.452 24.404 8.587 24.406 L 23.41 24.406 C 23.541 24.41 23.663 24.34 23.725 24.225 C 23.792 24.11 23.792 23.968 23.725 23.853 L 21.884 20.514 Z"/>
</svg>
