<?xml version="1.0" encoding="utf-8"?>
<svg fill="#d1d1d1" height="32" viewBox="0 0 32 32" width="32" xmlns="http://www.w3.org/2000/svg">
  <path d="M 16.72 10.078 C 19.813 9.472 19.985 11.549 19.985 11.549 C 20.157 13.886 18.18 13.973 18.18 13.973 L 17.598 14.013 C 16.688 14.04 15.926 14.713 15.78 15.617 C 15.692 16.162 15.843 16.718 16.193 17.144 C 16.543 17.569 17.059 17.821 17.607 17.834 L 18.18 17.867 C 22.306 17.607 23.51 14.232 23.51 14.232 C 25.229 9.992 21.876 7.395 21.876 7.395 C 19.371 5.428 16.486 5.902 14.516 6.639 C 12.845 7.27 11.37 8.329 10.238 9.711 C 5.444 15.523 9.843 21.848 9.843 21.848 C 12.089 24.892 15.55 26.158 18.129 25.984 C 19.182 25.901 19.992 25.018 19.985 23.962 C 19.985 23.424 19.773 22.908 19.395 22.528 C 19.018 22.148 18.506 21.934 17.971 21.934 L 17.713 21.934 C 17.337 21.934 16.963 21.886 16.6 21.791 C 11.354 20.405 11.992 15.271 11.992 15.271 C 12.593 10.684 16.719 10.078 16.719 10.078 L 16.72 10.078 Z"/>
</svg>
