<?xml version="1.0" encoding="utf-8"?>
<svg fill="#d1d1d1" width="32" height="32" viewBox="0 0 32 32" xmlns="http://www.w3.org/2000/svg">
  <g fill-rule="evenodd">
    <path d="M 22.732 16 L 16 12.19 L 9.268 16 L 16 19.781 L 22.732 15.998 L 22.732 16 Z M 16 21.047 C 13.668 19.727 11.335 18.41 9 17.095 C 11.079 20.343 13.66 24.355 16 27.999 C 18.34 24.356 20.921 20.343 23 17.095 C 20.665 18.41 18.332 19.727 16 21.047 Z M 16 10.958 L 23 14.865 L 16 4 L 9 14.866 L 16 10.959 L 16 10.958 Z"/>
    <path fill-opacity=".296" fill-rule="nonzero" d="M22.71 15.976l-6.721.577v-4.379l6.72 3.802zm-6.721 5.038c1.98-1.12 4.537-2.564 6.988-3.944-2.076 3.242-4.652 7.246-6.988 10.882v-6.938zm0-10.069V4l6.988 10.845-6.988-3.9z"/>
    <path fill-opacity=".803" d="M15.989 16.553l6.72-.577-6.72 3.775z"/>
    <path opacity=".311" d="M15.988 16.553l-6.721-.577 6.721 3.775z"/>
  </g>
</svg>
