<?xml version="1.0" encoding="utf-8"?>
<svg fill="#d1d1d1" viewBox="0 0 32 32" xmlns="http://www.w3.org/2000/svg">
  <path d="M 16.035 14.286 C 17.232 14.27 18.194 13.295 18.194 12.098 C 18.192 11.528 18.476 10.994 18.95 10.678 C 19.8 10.102 20.962 10.402 21.427 11.318 C 21.655 11.769 21.675 12.297 21.48 12.763 C 21.283 13.226 20.893 13.58 20.413 13.732 C 20.248 13.783 20.076 13.809 19.903 13.808 C 18.641 13.808 17.64 14.874 17.72 16.134 C 17.789 17.29 18.746 18.192 19.904 18.192 C 20.474 18.189 21.007 18.473 21.323 18.948 C 21.642 19.423 21.703 20.026 21.485 20.556 C 21.314 20.968 20.989 21.297 20.58 21.474 C 20.152 21.657 19.668 21.658 19.239 21.479 C 18.933 21.349 18.671 21.133 18.485 20.857 C 18.294 20.575 18.193 20.242 18.194 19.902 C 18.194 18.689 17.207 17.707 15.994 17.714 C 14.784 17.714 13.806 18.694 13.806 19.902 C 13.808 20.472 13.524 21.005 13.05 21.322 C 12.363 21.786 11.441 21.689 10.866 21.091 L 10.866 21.089 C 9.952 20.141 10.407 18.56 11.684 18.243 C 11.819 18.209 11.957 18.192 12.096 18.192 C 13.385 18.193 14.395 17.085 14.276 15.802 C 14.176 14.673 13.229 13.808 12.096 13.808 C 11.868 13.808 11.642 13.763 11.431 13.675 C 11.125 13.544 10.863 13.328 10.677 13.052 C 10.074 12.16 10.438 10.939 11.431 10.522 C 11.856 10.344 12.336 10.344 12.761 10.522 C 13.067 10.652 13.329 10.868 13.515 11.143 C 13.705 11.425 13.807 11.758 13.805 12.098 C 13.805 13.323 14.81 14.31 16.035 14.286 Z M 16 7.426 C 13.583 5.402 10.019 5.561 7.792 7.793 C 5.562 10.02 5.401 13.582 7.422 16.001 C 5.43 18.387 5.557 21.891 7.715 24.128 C 9.931 26.428 13.548 26.623 15.999 24.575 C 18.443 26.619 22.05 26.432 24.269 24.145 C 26.44 21.908 26.573 18.392 24.576 15.998 C 26.141 14.122 26.434 11.492 25.32 9.318 C 24.895 8.49 24.286 7.771 23.54 7.215 L 23.535 7.212 C 21.276 5.531 18.16 5.62 16 7.425 L 16 7.426 Z"/>
  <path d="M14.275 15.803a2.188 2.188 0 01-2.179 2.39 1.69 1.69 0 00-.954.29 1.726 1.726 0 00-.622.754 1.71 1.71 0 00.346 1.852v.002a1.706 1.706 0 002.184.23 1.7 1.7 0 00.755-1.42 2.188 2.188 0 012.201-2.187c-1.208 0-2.188.98-2.188 2.188A6.084 6.084 0 0016 24.575a6.085 6.085 0 01-8.284-.447 6.087 6.087 0 01-.293-8.127 6.086 6.086 0 004.674 2.184 2.188 2.188 0 002.18-2.382zm10.3.195a6.081 6.081 0 00-4.671-2.183 2.188 2.188 0 00-2.189 2.182c0-1.209.98-2.189 2.188-2.189a1.71 1.71 0 001.577-1.045 1.721 1.721 0 00-.054-1.444 1.705 1.705 0 00-2.477-.64 1.698 1.698 0 00-.756 1.42 2.188 2.188 0 11-4.375-.001 6.085 6.085 0 019.717-4.886l.004.003a6.09 6.09 0 011.037 8.783z" opacity=".622"/>
</svg>
