<?xml version="1.0" encoding="utf-8"?>
<svg fill="#d1d1d1" viewBox="0 0 32 32" xmlns="http://www.w3.org/2000/svg">
  <path d="M 19.879 13.469 L 21.705 14.851 L 22.859 15.723 L 21.571 16.381 L 18.981 17.703 L 19.869 18.317 L 21.112 19.176 L 19.77 19.868 L 11.532 24.114 C 12.9 24.868 14.438 25.263 16 25.261 C 21.12 25.261 25.27 21.112 25.27 15.995 C 25.274 13.824 24.512 11.721 23.118 10.057 L 19.878 13.469 L 19.879 13.469 Z M 12.121 19.003 L 10.295 17.622 L 9.141 16.749 L 10.429 16.092 L 13.019 14.769 L 12.131 14.155 L 10.888 13.297 L 12.23 12.604 L 20.906 8.132 C 19.435 7.212 17.735 6.726 16 6.728 C 10.88 6.728 6.73 10.877 6.73 15.995 C 6.727 18.28 7.572 20.486 9.101 22.184 L 12.121 19.004 L 12.121 19.003 Z M 8.536 22.78 C 6.842 20.927 5.904 18.507 5.906 15.996 C 5.906 10.433 10.435 5.907 16 5.907 C 18.052 5.905 20.055 6.532 21.74 7.703 L 22.643 7.238 C 20.734 5.784 18.4 4.998 16 5 C 9.935 5 5 9.932 5 15.995 C 4.998 18.754 6.038 21.412 7.911 23.437 L 8.536 22.779 L 8.536 22.78 Z M 23.684 9.46 C 25.241 11.281 26.096 13.598 26.094 15.994 C 26.094 21.556 21.565 26.082 16 26.082 C 14.116 26.084 12.269 25.556 10.671 24.557 L 9.747 25.034 C 11.583 26.309 13.765 26.991 16 26.989 C 22.065 26.989 27 22.057 27 15.995 C 27.003 13.351 26.048 10.795 24.312 8.801 L 23.684 9.461 L 23.684 9.46 Z M 10.842 16.9 L 13.477 18.893 L 7.525 25.161 L 19.354 19.063 L 17.217 17.587 L 21.158 15.574 L 18.523 13.581 L 24.475 7.313 L 12.646 13.411 L 14.783 14.887 L 10.842 16.9 Z"/>
</svg>
