<?xml version="1.0" encoding="utf-8"?>
<svg fill="#d1d1d1" viewBox="0 0 32 32" xmlns="http://www.w3.org/2000/svg">
  <path d="M 8 19.004 L 9.994 19.004 C 11.097 23 13.733 25 17.9 25 C 19.485 25 20.851 24.784 22 24.352 L 22 21.979 C 20.791 22.473 19.68 22.719 18.666 22.719 C 17.247 22.719 16.154 22.448 15.389 21.904 C 14.623 21.359 13.973 20.393 13.44 19.004 L 18.396 19.004 L 19.196 17.001 L 13.012 17.001 C 12.982 16.623 12.967 16.195 12.967 15.716 C 12.967 15.3 12.986 14.968 13.023 14.721 L 20.119 14.721 L 20.93 12.718 L 13.508 12.718 C 14.221 10.426 15.824 9.28 18.317 9.28 C 19.586 9.274 20.842 9.538 22 10.056 L 22 7.532 C 20.733 7.172 19.421 6.993 18.103 7 C 13.943 7 11.27 8.906 10.083 12.718 L 8.812 12.718 L 8 14.721 L 9.69 14.721 C 9.651 15.137 9.632 15.554 9.633 15.971 C 9.633 16.303 9.644 16.646 9.667 17.001 L 8.81 17.001 L 8 19.004 Z" fill-rule="evenodd"/>
</svg>
