<?xml version="1.0" encoding="utf-8"?>
<svg fill="#d1d1d1" viewBox="0 0 32 32" xmlns="http://www.w3.org/2000/svg">
  <path d="M 10.082 17.21 C 10.624 17.566 11.327 17.562 11.865 17.2 L 12.979 18.314 L 14.142 17.152 L 12.559 15.57 C 12.42 14.799 11.749 14.238 10.966 14.236 C 10.159 14.236 9.489 14.828 9.366 15.601 L 6.88 18.089 C 6.723 17.404 6.644 16.703 6.644 16 C 6.644 10.84 10.841 6.644 16 6.644 C 21.159 6.644 25.356 10.84 25.356 16 C 25.356 16.764 25.264 17.506 25.09 18.217 L 21.216 14.343 C 21.131 13.517 20.436 12.888 19.606 12.887 C 18.762 12.887 18.059 13.536 17.992 14.378 L 9.575 22.795 L 8.413 23.958 C 8.811 24.338 9.238 24.688 9.69 25.005 C 11.537 26.306 13.741 27.002 16 27 C 22.065 27 27 22.065 27 16 C 27 9.935 22.065 5 16 5 C 9.935 5 5 9.935 5 16 C 4.999 17.761 5.422 19.496 6.234 21.058 L 7.464 19.828 L 10.082 17.21 Z M 18.791 15.904 C 19.301 16.204 19.935 16.199 20.441 15.892 L 24.486 19.938 C 22.996 23.135 19.753 25.356 16 25.356 C 14.178 25.358 12.395 24.825 10.873 23.822 L 18.791 15.904 Z M 19.635 13.788 C 20.195 13.768 20.567 14.361 20.305 14.856 C 20.174 15.103 19.913 15.254 19.634 15.243 C 19.074 15.222 18.747 14.602 19.045 14.128 C 19.173 13.924 19.394 13.797 19.635 13.788 Z M 10.975 15.115 C 11.535 15.116 11.885 15.723 11.604 16.208 C 11.474 16.433 11.233 16.571 10.973 16.571 C 10.413 16.571 10.063 15.964 10.343 15.479 C 10.473 15.253 10.714 15.115 10.974 15.115 L 10.975 15.115 Z" fill-rule="evenodd"/>
</svg>
