<?xml version="1.0" encoding="utf-8"?>
<svg fill="#d1d1d1" viewBox="0 0 32 32" xmlns="http://www.w3.org/2000/svg">
  <path d="M 19.7 13.055 L 19.171 12 L 18.071 12.5 L 15.186 20.297 L 16.286 19.797 L 16.812 20.852 L 16.83 20.805 L 19.698 13.055 L 19.7 13.055 Z M 26.88 13.238 L 26.944 13.055 L 26.419 12 L 25.319 12.5 L 22.452 20.26 L 22.385 20.442 L 23.485 19.942 L 24.012 21 L 26.88 13.238 Z M 20.74 19.95 L 22.429 15.387 L 21.326 15.887 L 20.802 14.83 L 19.108 19.392 L 19.633 20.45 L 20.74 19.95 Z M 11.603 15.45 L 6.558 15.45 L 7.418 16.25 L 6.558 17.063 L 11.598 17.063 L 12.454 16.25 L 11.603 15.45 Z M 5.86 18.833 L 5 19.64 L 5.86 20.445 L 14.015 20.445 L 13.158 19.64 L 14.015 18.832 L 5.86 18.832 L 5.86 18.833 Z M 8.361 12.065 L 7.501 12.873 L 8.361 13.678 L 16.511 13.678 L 15.657 12.872 L 16.512 12.065 L 8.362 12.065 L 8.361 12.065 Z"/>
</svg>
