<?xml version="1.0" encoding="utf-8"?>
<svg fill="#d1d1d1" width="32" height="32" viewBox="0 0 32 32" xmlns="http://www.w3.org/2000/svg">
  <path fill-rule="evenodd" d="M 26 14.717 L 26 10.733 C 25.957 10.749 25.912 10.76 25.873 10.782 L 21.217 13.395 C 21.137 13.439 21.13 13.478 21.167 13.555 C 21.948 15.189 21.945 16.82 21.152 18.448 C 21.112 18.53 21.119 18.571 21.202 18.618 C 22.754 19.481 24.305 20.348 25.856 21.213 C 25.886 21.229 25.918 21.242 25.962 21.262 C 25.967 21.162 25.974 21.082 25.974 21.002 L 25.978 18.495 C 25.981 17.275 25.985 16.053 25.99 14.833 C 25.99 14.794 25.996 14.756 26 14.717 Z M 16.3 5 L 16.28 5 C 16.274 5.048 16.263 5.095 16.263 5.143 C 16.263 5.843 16.263 6.543 16.266 7.242 C 16.269 8.255 16.275 9.269 16.276 10.282 C 16.276 10.381 16.312 10.417 16.406 10.417 C 16.459 10.417 16.513 10.42 16.566 10.427 C 18.35 10.635 19.754 11.455 20.777 12.89 C 20.858 13.004 20.857 13.005 20.977 12.938 L 25.596 10.359 C 25.626 10.342 25.655 10.322 25.697 10.295 C 25.65 10.267 25.617 10.245 25.584 10.227 L 16.535 5.142 C 16.455 5.097 16.378 5.047 16.3 5 Z M 15.68 27 L 15.74 27 C 15.744 26.975 15.751 26.95 15.751 26.925 L 15.746 24.38 C 15.743 23.483 15.739 22.586 15.74 21.689 C 15.74 21.589 15.702 21.563 15.606 21.559 C 15.436 21.553 15.267 21.537 15.099 21.511 C 13.46 21.245 12.154 20.46 11.199 19.134 C 11.141 19.054 11.099 19.035 11.006 19.087 C 9.476 19.944 7.946 20.798 6.416 21.653 C 6.386 21.67 6.36 21.691 6.32 21.718 C 6.379 21.753 6.42 21.778 6.463 21.802 L 15.579 26.927 C 15.615 26.947 15.646 26.975 15.68 27 Z M 6 20.45 L 6 21.267 C 6.045 21.256 6.095 21.254 6.134 21.232 C 7.663 20.375 9.191 19.516 10.719 18.657 C 10.849 18.584 10.847 18.585 10.782 18.453 C 9.986 16.81 9.982 15.167 10.782 13.525 C 10.826 13.433 10.814 13.395 10.725 13.345 C 9.201 12.498 7.68 11.648 6.158 10.798 C 6.128 10.781 6.096 10.768 6.052 10.747 C 6.049 10.792 6.045 10.82 6.045 10.847 L 6.04 11.809 C 6.035 13.296 6.03 14.782 6.027 16.269 L 6.02 19.095 C 6.02 19.516 6.018 19.937 6.016 20.358 C 6.016 20.388 6.006 20.42 6 20.451 L 6 20.45 Z M 19.473 19.52 C 19.47 19.478 19.467 19.437 19.466 19.396 C 19.448 18.886 19.378 18.383 19.2 17.9 C 19.007 17.376 18.728 16.907 18.26 16.565 C 18.149 16.485 18.144 16.486 18.076 16.604 C 17.813 17.061 17.498 17.486 17.138 17.871 C 15.708 19.385 13.806 19.651 12.078 19.056 C 12.044 19.045 12.012 19.03 11.979 19.016 C 12.338 19.043 12.69 19.064 13.042 19.011 C 13.799 18.897 14.412 18.563 14.802 17.899 C 14.877 17.773 14.877 17.772 14.739 17.711 C 13.683 17.244 12.96 16.479 12.576 15.415 C 12.267 14.562 12.216 13.682 12.31 12.789 C 12.319 12.709 12.33 12.628 12.341 12.548 C 12.354 12.468 12.369 12.389 12.383 12.31 C 12.407 12.339 12.413 12.367 12.421 12.394 C 12.521 12.74 12.607 13.09 12.724 13.429 C 12.858 13.816 13.062 14.169 13.354 14.468 C 13.5 14.618 13.669 14.736 13.871 14.805 C 14.026 14.858 14.031 14.857 14.111 14.715 C 14.654 13.728 15.551 12.984 16.62 12.63 C 17.49 12.331 18.389 12.271 19.302 12.357 C 19.449 12.371 19.595 12.393 19.742 12.411 L 19.762 12.379 L 19.594 12.235 C 18.101 10.961 16.395 10.552 14.472 11.065 C 11.912 11.749 10.196 14.34 10.764 17.019 C 11.372 19.881 14.341 21.683 17.268 20.963 C 19.906 20.315 21.605 17.868 21.222 15.261 C 21.073 14.231 20.605 13.273 19.885 12.521 C 19.843 12.478 19.785 12.452 19.725 12.45 C 19.295 12.466 18.87 12.549 18.466 12.696 C 17.886 12.92 17.415 13.27 17.146 13.833 C 17.027 14.083 17.048 14.032 17.249 14.133 C 18.007 14.513 18.629 15.036 19.059 15.758 C 19.433 16.385 19.611 17.066 19.654 17.784 C 19.693 18.368 19.632 18.955 19.473 19.519 L 19.473 19.52 Z M 25.741 21.732 C 25.685 21.699 25.649 21.676 25.613 21.656 L 20.969 19.081 C 20.832 19.005 20.833 19.005 20.739 19.134 C 19.669 20.599 18.211 21.405 16.369 21.557 C 16.287 21.564 16.264 21.592 16.264 21.67 C 16.266 23.4 16.265 25.129 16.266 26.859 C 16.266 26.892 16.273 26.926 16.278 26.981 L 25.741 21.731 L 25.741 21.732 Z M 15.739 5.036 C 15.671 5.072 15.619 5.097 15.569 5.125 C 12.532 6.81 9.494 8.495 6.458 10.181 C 6.403 10.212 6.354 10.253 6.302 10.289 C 6.352 10.323 6.402 10.359 6.455 10.389 L 10.975 12.899 C 11.102 12.969 11.1 12.968 11.185 12.85 C 12.274 11.356 13.759 10.543 15.636 10.407 C 15.736 10.4 15.746 10.36 15.746 10.28 L 15.746 5.16 C 15.746 5.126 15.742 5.092 15.739 5.036 Z"/>
</svg>
