<?xml version="1.0" encoding="utf-8"?>
<svg fill="#d1d1d1" viewBox="0 0 32 32" xmlns="http://www.w3.org/2000/svg">
  <path fill-rule="evenodd" d="M 8 24.254 L 8 24.52 L 8.045 24.695 C 8.205 25.294 8.62 25.667 9.22 25.849 C 9.928 26.064 10.652 26.021 11.37 25.896 C 12.422 25.714 13.302 25.219 14.045 24.497 C 14.559 23.997 14.981 23.433 15.326 22.814 C 16.038 21.537 16.473 20.165 16.862 18.778 C 17.056 18.088 17.224 17.392 17.399 16.698 C 17.429 16.579 17.482 16.54 17.616 16.54 C 18.109 16.543 18.603 16.537 19.096 16.518 C 19.384 16.507 19.655 16.428 19.849 16.199 C 19.942 16.089 20.045 15.985 20.131 15.87 C 20.396 15.517 20.351 15.067 20.035 14.753 C 19.776 14.497 19.448 14.404 19.093 14.391 C 18.763 14.379 18.433 14.389 18.099 14.389 C 18.097 14.361 18.092 14.343 18.096 14.327 C 18.176 14.001 18.261 13.675 18.338 13.348 C 18.356 13.268 18.406 13.269 18.469 13.268 C 18.944 13.26 19.419 13.256 19.893 13.24 C 20.248 13.228 20.588 13.179 20.878 12.941 C 21.234 12.651 21.309 12.351 21.236 11.97 C 21.164 11.595 20.891 11.376 20.534 11.242 C 20.241 11.132 19.935 11.131 19.628 11.136 C 19.416 11.139 19.203 11.136 18.986 11.136 C 18.991 11.093 18.989 11.066 18.997 11.04 C 19.247 10.224 19.551 9.428 19.971 8.676 C 20.173 8.315 20.413 7.978 20.72 7.689 C 20.777 7.635 20.854 7.599 20.922 7.555 L 20.949 7.59 C 20.937 7.623 20.924 7.656 20.914 7.69 C 20.78 8.138 20.821 8.56 21.154 8.92 C 21.508 9.306 21.966 9.45 22.498 9.432 C 23.191 9.409 23.956 8.837 23.998 7.937 C 24.014 7.62 23.881 7.352 23.744 7.083 C 23.533 6.662 23.162 6.343 22.714 6.199 C 21.938 5.933 21.141 5.967 20.352 6.107 C 19.162 6.318 18.169 6.894 17.326 7.707 C 16.686 8.324 16.17 9.035 15.73 9.792 C 15.489 10.208 15.285 10.644 15.077 11.077 C 15.017 11.203 14.95 11.252 14.799 11.249 C 14.175 11.24 13.55 11.238 12.926 11.245 C 12.778 11.245 12.631 11.263 12.488 11.3 C 12.09 11.41 11.841 11.669 11.783 12.057 C 11.726 12.441 11.823 12.787 12.176 13.031 C 12.46 13.227 12.789 13.304 13.128 13.318 C 13.56 13.335 13.993 13.322 14.431 13.322 C 14.431 13.356 14.436 13.379 14.431 13.399 C 14.339 13.745 14.248 14.092 14.15 14.436 C 14.141 14.467 14.082 14.506 14.046 14.506 C 13.66 14.512 13.274 14.505 12.887 14.511 C 12.484 14.518 12.072 14.492 11.68 14.561 C 11.12 14.657 10.826 15.038 10.836 15.534 C 10.846 16.101 11.254 16.47 11.853 16.516 C 12.293 16.55 12.737 16.537 13.179 16.544 C 13.309 16.546 13.438 16.544 13.579 16.544 C 13.559 16.637 13.546 16.716 13.525 16.792 C 12.998 18.732 12.475 20.675 11.939 22.613 C 11.84 22.97 11.693 23.315 11.562 23.663 C 11.542 23.716 11.485 23.756 11.445 23.801 C 11.408 23.755 11.361 23.713 11.337 23.661 C 11.252 23.475 11.116 23.316 10.945 23.204 C 10.412 22.842 9.825 22.778 9.21 22.947 C 8.604 23.114 8.198 23.482 8.043 24.079 L 8 24.254 Z"/>
</svg>
