<?xml version="1.0" encoding="utf-8"?>
<svg fill="#d1d1d1" viewBox="0 0 32 32" xmlns="http://www.w3.org/2000/svg">
  <path fill-rule="evenodd" d="M 8.012 10.005 L 8.034 9.982 L 8.097 9.898 L 8.161 9.813 C 8.109 9.875 8.059 9.939 8.011 10.005 L 8.012 10.005 Z M 7.94 10.088 C 7.887 10.166 7.838 10.243 7.78 10.321 C 7.775 10.326 7.77 10.331 7.765 10.336 C 7.819 10.25 7.877 10.168 7.94 10.088 Z M 8.012 10.005 C 7.927 10.095 7.843 10.215 7.765 10.336 C 7.765 10.337 7.764 10.337 7.764 10.338 C 7.729 10.393 7.695 10.449 7.661 10.505 L 8.012 10.005 Z M 7.568 10.66 C 7.525 10.745 7.441 10.914 7.356 10.999 C 7.401 10.872 7.473 10.756 7.568 10.66 C 7.483 10.787 7.398 10.872 7.356 10.999 C 7.314 11.084 7.271 11.169 7.271 11.253 C 7.398 11.041 7.568 10.83 7.695 10.618 C 7.789 10.367 7.883 10.186 8.012 10.005 L 7.568 10.66 Z M 8.84 9.073 C 8.953 8.951 9.086 8.844 9.22 8.711 C 9.299 8.613 9.384 8.519 9.474 8.431 C 9.416 8.481 9.36 8.532 9.304 8.584 C 9.404 8.484 9.445 8.444 9.532 8.374 C 10.11 7.821 11.034 7.226 12.016 6.804 C 12.267 6.7 12.506 6.614 12.729 6.546 C 12.923 6.469 13.119 6.41 13.313 6.362 C 9.593 8.326 9.674 8.264 9.813 8.161 C 9.643 8.288 9.643 8.288 9.304 8.584 C 9.116 8.773 8.927 8.927 8.799 9.108 L 8.711 9.178 C 8.597 9.323 8.498 9.479 8.414 9.643 C 8.414 9.686 8.372 9.77 8.372 9.813 C 8.424 9.749 8.48 9.687 8.539 9.629 C 8.494 9.673 8.452 9.72 8.414 9.77 C 8.372 9.813 8.372 9.855 8.372 9.898 C 8.33 10.067 8.372 10.152 8.414 10.278 L 8.431 10.258 C 8.753 10.657 9.924 10.564 11.381 9.94 C 11.889 9.77 12.355 9.516 12.779 9.262 C 12.863 9.177 12.821 9.05 12.779 9.008 C 12.736 8.966 12.567 8.754 12.439 8.796 C 12.101 9.008 11.719 9.177 11.338 9.346 C 10.18 9.843 9.264 9.936 8.984 9.624 L 9.007 9.601 C 8.923 9.516 8.923 9.389 8.965 9.262 L 8.848 9.356 L 8.965 9.262 C 9.007 9.092 9.092 8.923 9.219 8.754 C 9.093 8.848 8.967 8.967 8.84 9.074 L 8.84 9.073 Z M 6.406 18.587 L 6.41 18.6 C 6.408 18.649 6.409 18.697 6.412 18.746 C 6.406 18.693 6.404 18.639 6.406 18.586 L 6.38 18.498 C 6.296 18.37 6.253 18.243 6.21 18.116 C 6.285 18.338 6.359 18.657 6.433 18.904 C 6.735 20.404 9.898 20.323 14.093 18.498 C 18.923 16.464 23.287 13.032 23.88 10.788 C 24.007 10.278 23.965 9.898 23.71 9.601 C 23.499 9.389 23.287 9.135 23.075 8.923 C 23.372 9.22 23.457 9.601 23.33 10.152 C 22.736 12.355 18.457 15.744 13.753 17.735 C 10.067 19.302 7.185 19.557 6.423 18.498 C 6.465 18.794 6.55 19.048 6.635 19.302 C 6.482 19.103 6.403 18.858 6.412 18.607 C 6.486 18.857 6.56 19.08 6.635 19.302 C 6.554 19.219 6.496 19.117 6.465 19.006 C 6.454 18.972 6.443 18.938 6.433 18.904 L 6.406 18.587 Z M 6.211 17.407 C 6.924 18.428 9.696 18.225 13.287 16.676 C 17.821 14.769 21.974 11.507 22.524 9.389 C 22.652 8.839 22.524 8.415 22.185 8.119 L 21.762 7.822 L 21.422 7.61 C 21.592 7.737 21.932 7.949 21.889 8.542 C 21.762 11.846 9.007 19.642 6.169 16.633 C 6.169 16.761 6.169 16.898 6.174 17.036 C 6.179 16.898 6.168 16.761 6.168 16.633 C 6.084 16.464 5.999 16.295 5.999 16.04 C 5.999 16.226 6.022 16.48 6.034 16.702 C 6.027 16.787 6.03 16.872 6.042 16.953 L 6.042 16.93 C 6.042 16.864 6.039 16.79 6.034 16.711 C 6.028 16.801 6.031 16.885 6.042 16.966 C 6.046 17.161 6.091 17.319 6.211 17.438 L 6.211 17.408 L 6.211 17.407 Z M 6.19 14.177 C 6.21 14.049 6.232 13.922 6.253 13.795 L 6.253 13.88 L 6.168 14.219 L 6.084 14.812 C 6.084 14.775 6.092 14.739 6.101 14.702 L 6.084 14.812 C 6.05 15.038 6.096 15.269 6.214 15.465 C 6.214 15.474 6.212 15.482 6.211 15.49 C 6.061 15.282 6 15.023 6.041 14.77 C 5.999 15.278 6.168 15.617 6.592 15.829 C 6.677 15.871 6.719 15.701 6.762 15.574 C 6.762 15.574 6.846 15.151 6.719 14.981 C 6.589 14.924 6.473 14.841 6.377 14.737 L 6.38 14.727 C 6.21 14.557 6.168 14.261 6.253 13.922 L 6.19 14.176 L 6.19 14.177 Z M 10.344 7.775 L 10.279 7.822 L 10.261 7.831 C 10.134 7.916 10.009 8.005 9.887 8.097 L 9.93 8.06 C 10.005 8.008 10.1 7.96 10.321 7.822 C 10.448 7.695 10.448 7.695 10.745 7.525 C 10.872 7.44 10.872 7.44 11.168 7.271 C 11.338 7.186 11.338 7.186 11.635 7.017 C 11.805 6.932 11.805 6.932 12.143 6.805 C 12.202 6.775 12.261 6.746 12.32 6.718 C 12.247 6.748 12.174 6.777 12.1 6.805 C 11.931 6.847 11.931 6.847 11.592 7.017 C 11.422 7.101 11.422 7.101 11.126 7.271 C 10.999 7.356 10.999 7.356 10.702 7.525 C 10.581 7.606 10.461 7.689 10.344 7.775 C 10.952 7.376 11.597 7.037 12.27 6.763 C 12.38 6.701 12.49 6.647 12.6 6.599 L 10.344 7.775 Z M 12.422 6.675 C 12.499 6.644 12.595 6.612 12.779 6.551 C 12.835 6.528 12.876 6.511 12.915 6.497 C 13.085 6.445 13.154 6.424 13.235 6.393 C 13.142 6.42 13.05 6.449 12.959 6.481 C 13.953 6.222 14.563 6.372 14.431 6.932 C 14.389 7.102 14.261 7.313 14.05 7.567 C 14.135 7.652 14.6 7.737 14.813 7.652 C 15.067 7.398 15.236 7.144 15.279 6.89 C 15.449 6.17 14.643 6 13.372 6.339 L 13.312 6.362 L 12.422 6.675 Z M 6.812 13.136 L 6.635 13.668 C 7.185 14.473 9.305 14.261 12.058 13.118 C 15.533 11.634 18.711 9.135 19.135 7.525 C 19.305 6.932 19.092 6.551 18.541 6.339 C 18.457 6.339 18.33 6.297 18.16 6.254 C 17.906 6.169 17.906 6.169 17.821 6.212 C 18.287 6.382 18.457 6.72 18.33 7.271 C 17.948 8.711 15.024 10.999 11.846 12.397 C 9.371 13.446 7.435 13.622 6.904 12.926 L 6.931 12.863 C 6.794 12.633 6.763 12.355 6.846 12.1 C 6.729 12.332 6.63 12.573 6.55 12.82 C 6.507 12.905 6.507 12.948 6.507 13.032 C 6.465 13.287 6.507 13.499 6.635 13.668 C 6.672 13.484 6.732 13.306 6.812 13.136 Z M 7.355 11.889 C 7.228 11.719 7.228 11.592 7.228 11.38 C 7.228 11.592 7.27 11.762 7.355 11.889 Z M 13.35 25.346 C 13.351 25.346 13.351 25.346 13.352 25.346 C 14.469 25.307 16.004 24.931 17.779 24.174 C 21.719 22.48 25.321 19.641 25.829 17.82 C 25.872 17.777 25.872 17.735 25.872 17.693 C 25.872 17.481 25.914 17.184 25.957 16.93 L 25.999 16.803 C 25.566 19.868 17.736 24.559 13.272 25 C 12.491 25.077 11.812 25.024 11.296 24.81 C 11.507 24.937 11.846 25.064 12.101 25.191 C 12.419 25.311 12.841 25.363 13.35 25.346 Z M 13.846 23.604 C 11.734 24.195 10.156 24.208 9.474 23.624 C 9.685 23.794 9.982 24.004 10.194 24.174 C 10.786 24.578 11.925 24.623 13.427 24.308 C 13.422 24.32 13.418 24.332 13.414 24.344 L 13.433 24.307 C 14.293 24.127 15.273 23.828 16.338 23.412 C 16.592 23.285 16.592 23.115 16.55 23.072 C 16.55 23.072 16.38 22.776 15.914 22.903 C 15.183 23.19 14.491 23.423 13.848 23.603 L 13.923 23.497 L 13.846 23.604 Z M 8.542 22.692 C 8.585 22.692 8.627 22.734 8.627 22.776 C 8.457 22.564 8.203 22.268 8.034 22.056 C 8.161 22.268 8.373 22.48 8.542 22.692 Z M 15.28 6.042 L 15.11 6.042 C 16.085 5.958 16.636 6.254 16.466 6.932 C 16.254 7.652 15.28 8.627 13.966 9.516 C 13.966 9.516 13.924 9.516 13.924 9.559 C 13.839 9.729 14.136 10.109 14.432 9.982 C 15.915 8.966 17.059 7.822 17.272 7.017 C 17.44 6.339 17.016 6 16.126 6 C 15.872 6 15.533 6.042 15.279 6.042 L 15.28 6.042 Z M 20.364 7.017 C 20.11 6.89 19.771 6.763 19.517 6.635 C 20.067 6.847 20.322 7.271 20.153 7.906 C 19.686 9.686 16.169 12.482 12.313 14.134 C 11.593 14.431 10.915 14.684 10.28 14.854 C 10.237 14.897 10.195 14.897 10.153 14.981 C 9.983 15.235 10.025 15.744 10.407 15.701 C 11.085 15.49 11.847 15.235 12.61 14.897 C 16.678 13.16 20.407 10.237 20.915 8.33 C 21.085 7.695 20.873 7.27 20.365 7.017 L 20.364 7.017 Z M 24.771 11.211 L 24.432 10.618 C 24.559 10.788 24.602 10.957 24.602 11.211 C 24.644 11.423 24.898 11.931 25.025 11.973 L 25.025 11.931 C 25.025 11.761 25.025 11.761 24.898 11.423 L 24.771 11.211 Z M 25.661 13.456 C 25.619 13.202 25.491 12.863 25.364 12.524 C 25.449 12.778 25.449 13.074 25.364 13.414 C 24.856 15.32 21.594 18.116 17.694 20.15 C 17.593 20.204 17.518 20.295 17.484 20.404 C 17.398 20.7 17.653 20.997 18.076 20.828 C 21.932 18.836 25.11 16.083 25.619 14.218 C 25.703 13.922 25.703 13.668 25.661 13.456 Z M 25.958 15.236 L 25.873 14.685 C 25.915 14.897 25.873 15.108 25.831 15.32 C 25.534 16.506 24.093 18.032 22.101 19.514 C 22.002 19.607 21.929 19.724 21.89 19.854 C 21.847 20.065 22.017 20.362 22.314 20.15 C 24.22 18.71 25.619 17.227 25.915 16.083 C 25.958 15.871 25.958 15.743 25.958 15.574 L 25.958 15.235 L 25.958 15.236 Z M 8.415 10.278 C 8.373 10.151 8.331 10.066 8.373 9.897 C 8.331 10.066 8.373 10.151 8.415 10.277 L 8.415 10.278 Z M 10.788 11.464 C 10.788 11.464 10.788 11.083 10.618 11.125 C 9.178 11.591 8.118 11.591 7.78 11.167 C 7.61 11.422 7.483 11.633 7.356 11.887 C 7.695 12.269 8.416 12.311 8.924 12.227 C 10.746 11.972 10.788 11.676 10.788 11.464 Z M 6.636 13.667 C 6.508 13.497 6.466 13.286 6.508 13.031 C 6.466 13.286 6.508 13.498 6.636 13.667 Z M 22.61 15.15 C 22.568 15.023 22.44 14.768 22.102 14.938 C 20.237 16.59 17.483 18.328 14.602 19.556 C 10.788 21.208 7.822 21.42 7.017 20.361 C 7.102 20.488 7.144 20.657 7.229 20.784 C 7.271 20.827 7.271 20.869 7.314 20.911 C 7.356 20.996 7.398 21.038 7.441 21.123 C 7.271 20.869 7.271 20.657 7.271 20.615 C 7.229 20.657 7.186 20.572 7.229 20.699 C 7.525 22.225 10.746 22.097 15.025 20.319 C 17.907 19.089 20.661 17.395 22.525 15.7 C 22.646 15.543 22.678 15.336 22.61 15.15 Z M 11.89 22.902 C 11.847 22.818 11.636 22.563 11.339 22.563 C 9.686 22.818 8.542 22.648 8.076 22.055 C 8.246 22.267 8.5 22.563 8.669 22.775 C 9.178 23.326 10.279 23.453 11.805 23.199 C 11.975 23.157 11.932 22.987 11.89 22.902 Z M 25.237 19.81 C 23.754 22.86 16.89 26.25 14.178 25.826 C 13.862 25.78 13.551 25.709 13.246 25.614 C 14.22 25.91 16.042 25.571 18.246 24.639 C 21.806 23.114 25.068 20.572 25.576 18.92 C 25.492 19.174 25.364 19.556 25.237 19.81 Z M 23.034 22.86 C 23.076 22.818 23.076 22.775 23.076 22.775 C 23.034 22.775 23.034 22.733 23.034 22.733 C 22.992 22.733 22.992 22.775 22.949 22.775 C 21.889 23.665 20.449 24.512 18.966 25.148 C 17.483 25.741 16.254 26.038 15.406 25.995 L 16.466 25.995 C 17.186 25.953 18.161 25.698 19.263 25.232 C 20.576 24.682 21.847 23.919 22.78 23.157 C 22.95 23.03 23.034 22.902 23.034 22.86 Z M 6.508 12.863 C 6.593 12.609 6.678 12.355 6.805 12.143 C 6.847 12.016 6.89 11.931 6.89 11.803 C 6.805 12.058 6.636 12.439 6.55 12.693 C 6.55 12.736 6.508 12.821 6.508 12.863 Z"/>
</svg>
