<?xml version="1.0" encoding="utf-8"?>
<svg fill="#d1d1d1" width="32" height="32" viewBox="0 0 32 32" xmlns="http://www.w3.org/2000/svg">
  <path d="M 15.992 5 L 6.5 10.5 L 6.5 21.5 L 15.992 27 L 25.485 21.5 L 25.487 10.793 C 25.512 10.706 25.5 10.613 25.455 10.535 L 25.485 10.501 L 15.992 5 Z M 11.062 19.216 L 15.658 21.863 L 15.662 22.241 L 15.662 26.04 L 7.507 21.315 L 11.062 19.216 Z M 20.949 19.21 L 24.495 21.304 L 16.326 26.037 L 16.326 21.861 L 20.949 19.211 L 20.949 19.21 Z M 11.399 13.727 L 15.656 16.197 L 15.657 21.097 L 11.404 18.647 L 11.399 13.727 Z M 20.572 13.743 L 20.573 18.66 L 16.326 21.095 L 16.326 16.199 L 20.572 13.743 Z M 7.162 11.268 L 10.734 13.341 L 10.742 18.634 L 7.162 20.749 L 7.162 11.268 Z M 24.82 11.285 L 24.82 20.725 L 21.238 18.609 L 21.237 13.358 L 24.82 11.285 Z M 15.988 10.673 L 20.244 13.153 L 15.989 15.613 L 14.217 14.584 L 11.729 13.142 L 15.989 10.673 L 15.988 10.673 Z M 16.368 5.985 L 24.506 10.7 L 21.237 12.591 L 21.237 12.579 L 20.907 12.769 L 16.396 10.141 L 16.368 5.985 Z M 15.704 5.934 L 15.731 10.055 L 11.066 12.758 L 10.734 12.573 L 7.492 10.692 L 15.704 5.934 Z"/>
</svg>
