<?xml version="1.0" encoding="utf-8"?>
<svg fill="#d1d1d1" width="32" height="32" viewBox="0 0 32 32" xmlns="http://www.w3.org/2000/svg">
  <path d="M 16.194 12.326 L 16.191 12.326 L 16.194 12.326 L 15.51 15.3 C 15.936 15.394 16.38 15.55 16.818 15.427 C 17.104 15.337 17.326 15.111 17.411 14.823 C 17.493 14.56 17.534 14.29 17.606 14.028 L 18.33 14.212 C 18.362 14.217 18.325 14.236 18.345 14.215 L 18.363 14.201 C 18.663 13.879 19.005 13.526 19.275 13.185 C 18.832 12.963 18.359 12.805 17.872 12.716 L 16.238 12.336 L 16.242 12.327 L 16.196 12.327 L 16.194 12.326 Z M 20.306 11.828 C 20.355 11.749 20.399 11.644 20.444 11.554 C 21.462 9.751 21.998 7.715 22 5.644 C 20.565 4.816 19.05 4.294 17.402 4.113 C 18.012 6.775 18.876 9.353 20.125 11.782 L 20.306 11.828 Z M 12.077 11.373 L 12.033 11.363 L 11.683 11.283 L 11.683 11.277 L 11.678 11.277 L 11.993 9.904 C 12.226 9.954 12.459 10.009 12.691 10.066 L 12.696 10.066 C 13.545 8.15 14.207 6.156 14.672 4.113 C 12.525 4.351 10.482 5.164 8.76 6.468 L 8.76 6.472 C 5.831 8.689 4.077 12.125 4 15.798 L 4 16.038 C 5.281 16.774 6.685 17.271 8.144 17.504 L 8.151 17.497 C 9.682 15.607 11 13.553 12.081 11.374 L 12.078 11.374 L 12.077 11.373 Z M 19.591 13.398 L 19.535 13.36 C 19.265 13.702 19.002 13.982 18.702 14.297 L 18.787 14.313 L 18.897 14.35 L 17.815 19.038 L 16.517 18.738 C 16.585 18.355 16.754 17.973 16.675 17.575 C 16.601 17.286 16.393 17.049 16.116 16.938 C 15.824 16.799 15.498 16.75 15.186 16.675 L 14.582 19.297 C 14.545 19.474 14.545 19.672 14.657 19.822 C 14.747 19.954 14.901 20.022 15.051 20.059 L 16.015 20.284 L 15.726 21.439 C 19.106 21.406 22.546 21.933 25.776 22.927 C 26.304 22.213 26.526 21.929 26.883 21.117 C 24.91 19.287 23.285 16.959 21.82 14.704 L 21.46 16.267 L 20.009 15.93 C 20.132 15.345 20.249 14.722 20.076 14.13 C 19.951 13.737 19.853 13.539 19.591 13.398 Z M 8.18 17.805 C 7.215 18.994 6.206 20.15 5.083 21.191 C 5.435 22.005 5.66 22.177 6.185 22.89 C 7.967 22.352 9.789 21.954 11.634 21.701 C 11.728 21.292 11.75 21.18 11.84 20.767 L 9.624 20.254 C 9.729 19.8 9.838 19.342 9.939 18.884 C 10.273 18.949 10.603 19.039 10.933 19.106 C 11.095 19.146 11.266 19.116 11.405 19.024 C 11.544 18.922 11.615 18.754 11.653 18.592 L 11.866 17.775 C 11.795 17.777 11.724 17.784 11.653 17.794 C 10.734 17.924 9.838 17.906 8.915 17.824 C 8.657 17.797 8.463 17.818 8.211 17.762 L 8.181 17.805 L 8.18 17.805 Z M 13.325 21.109 L 13.235 21.559 L 14.184 21.491 L 14.214 21.315 L 13.325 21.109 Z M 11.686 17.531 C 11.756 17.521 11.826 17.515 11.896 17.512 L 11.896 17.508 L 13.039 12.558 C 13.084 12.333 13.174 12.108 13.103 11.883 C 13.047 11.719 12.919 11.591 12.755 11.536 L 12.718 11.524 C 12.528 11.473 12.674 11.509 12.481 11.464 C 12.46 11.459 12.364 11.491 12.342 11.487 C 11.273 13.641 9.968 15.67 8.45 17.535 C 8.702 17.587 8.66 17.572 8.911 17.598 C 9.836 17.683 10.767 17.66 11.686 17.531 Z M 14.229 10.417 L 14.229 10.421 C 14.405 9.678 14.57 8.932 14.75 8.19 L 16.228 8.53 L 15.714 10.762 L 16.599 10.968 C 16.687 10.597 16.774 10.225 16.859 9.853 L 16.988 9.295 L 17.117 8.737 L 18.594 9.075 C 18.574 9.175 18.552 9.275 18.53 9.375 C 18.387 10.021 18.228 10.662 18.085 11.311 L 19.787 11.707 C 18.537 9.277 17.71 6.737 17.101 4.075 C 16.719 4.03 16.558 4.045 16.171 4.038 L 15.935 4.038 C 15.511 4.038 15.354 4.027 14.938 4.075 C 14.471 6.118 13.918 8.261 13.068 10.177 L 14.229 10.417 Z M 26.964 11.156 C 25.93 8.842 24.455 7.1 22.262 5.83 C 22.26 7.902 21.762 9.751 20.744 11.556 C 20.682 11.669 20.626 11.785 20.575 11.903 C 21.261 12.053 21.689 12.145 22.375 12.299 L 22.375 12.306 L 21.933 14.293 C 23.395 16.547 25.026 19.029 26.995 20.859 C 27.623 19.427 27.965 17.886 28 16.322 L 28 15.759 C 27.962 14.171 27.61 12.606 26.965 11.155 L 26.964 11.156 Z M 4 16.3 L 4 16.473 C 4.023 18.072 4.365 19.387 5.005 20.853 C 6.067 19.874 7.053 18.816 7.956 17.688 C 6.501 17.456 5.275 17.04 4 16.3 Z M 15.685 21.7 L 15.182 23.89 L 15.179 23.89 L 13.694 23.55 L 14.107 21.753 L 13.162 21.82 L 12.812 23.343 L 12.81 23.343 L 11.324 23.002 C 11.399 22.664 11.474 22.334 11.557 22.001 C 9.788 22.241 8.042 22.626 6.337 23.152 C 8.557 26.164 12.053 27.971 15.794 28.038 L 16.285 28.038 C 19.997 27.942 23.458 26.139 25.664 23.152 C 22.432 22.157 19.066 21.667 15.685 21.7 Z"/>
</svg>
