<?xml version="1.0" encoding="utf-8"?>
<svg fill="#d1d1d1" viewBox="0 0 32 32" xmlns="http://www.w3.org/2000/svg">
  <path d="M 22.2 7.14 C 22.19 7.241 22.185 7.325 22.174 7.407 C 22.123 7.776 22.054 8.14 21.91 8.485 C 21.755 8.859 21.539 9.185 21.248 9.457 C 20.911 9.767 20.509 9.997 20.071 10.129 C 19.591 10.281 19.095 10.349 18.598 10.406 C 17.988 10.475 17.377 10.537 16.768 10.611 C 16.226 10.677 15.689 10.777 15.158 10.911 C 14.5 11.076 13.86 11.296 13.26 11.631 C 12.665 11.961 12.146 12.388 11.744 12.961 C 11.44 13.394 11.243 13.877 11.097 14.391 C 10.838 15.28 10.847 16.225 11.122 17.109 C 11.302 17.677 11.56 18.218 11.89 18.715 C 12.19 19.18 12.532 19.61 12.902 20.017 C 13.514 20.689 14.184 21.292 14.877 21.869 C 15.292 22.214 15.707 22.56 16.082 22.955 C 16.352 23.239 16.595 23.545 16.776 23.901 C 17.042 24.425 17.142 24.981 17.079 25.573 C 17.041 25.9 16.965 26.222 16.853 26.531 C 16.803 26.675 16.743 26.816 16.688 26.959 C 16.683 26.971 16.685 26.985 16.684 26.999 C 16.696 26.999 16.709 27.001 16.721 26.999 C 16.784 26.995 16.847 26.992 16.909 26.984 C 17.087 26.964 17.265 26.947 17.442 26.919 C 17.684 26.881 17.925 26.835 18.166 26.79 C 18.337 26.759 18.339 26.756 18.382 26.583 C 18.489 26.161 18.528 25.725 18.496 25.291 C 18.475 25.001 18.425 24.714 18.346 24.434 C 18.2 23.927 17.983 23.443 17.702 22.996 C 17.536 22.737 17.355 22.487 17.16 22.249 C 16.798 21.794 16.374 21.405 15.95 21.016 C 15.62 20.712 15.281 20.418 14.949 20.116 C 14.469 19.679 14.013 19.217 13.613 18.697 C 12.959 17.847 12.58 16.889 12.571 15.782 C 12.566 15.204 12.68 14.659 12.961 14.159 C 13.383 13.409 14.004 12.903 14.751 12.556 C 15.428 12.241 16.144 12.075 16.873 11.969 C 17.368 11.897 17.865 11.842 18.361 11.774 C 18.738 11.722 19.117 11.671 19.491 11.602 C 20.042 11.5 20.582 11.356 21.089 11.099 C 21.248 11.019 21.407 10.939 21.562 10.849 C 21.918 10.644 22.243 10.393 22.533 10.094 C 22.996 9.613 23.329 9.022 23.499 8.377 C 23.503 8.361 23.493 8.333 23.481 8.321 C 23.334 8.168 23.189 8.011 23.035 7.866 C 22.843 7.685 22.645 7.51 22.446 7.336 C 22.371 7.269 22.29 7.211 22.201 7.14 L 22.2 7.14 Z M 15.14 19.966 C 15.154 19.982 15.16 19.991 15.168 19.997 C 15.593 20.379 16.018 20.762 16.445 21.142 C 16.461 21.157 16.495 21.163 16.515 21.157 C 16.781 21.083 17.047 21.011 17.31 20.927 C 17.924 20.735 18.508 20.458 19.045 20.103 C 19.506 19.794 19.915 19.423 20.247 18.964 C 20.782 18.226 21.053 17.381 21.149 16.468 C 21.178 16.143 21.166 15.815 21.112 15.493 C 21.04 15.037 20.903 14.593 20.704 14.176 C 20.484 13.706 20.214 13.27 19.894 12.872 C 19.648 12.565 19.386 12.273 19.13 11.975 C 19.116 11.96 19.092 11.941 19.075 11.943 C 18.931 11.962 18.787 11.986 18.643 12.008 L 17.821 12.133 L 17.441 12.191 C 17.455 12.211 17.463 12.221 17.473 12.231 L 17.688 12.441 C 18.085 12.837 18.455 13.258 18.768 13.73 C 19.181 14.352 19.44 15.038 19.501 15.796 C 19.531 16.16 19.498 16.526 19.401 16.878 C 19.248 17.434 18.954 17.903 18.593 18.328 C 18.24 18.743 17.809 19.083 17.323 19.329 C 16.831 19.581 16.306 19.723 15.773 19.841 C 15.567 19.886 15.359 19.923 15.141 19.966 L 15.14 19.966 Z M 17.256 10.268 C 17.233 10.245 17.221 10.232 17.206 10.22 C 16.814 9.903 16.437 9.566 16.078 9.212 C 15.729 8.871 15.437 8.476 15.213 8.042 C 14.947 7.511 14.852 6.91 14.942 6.322 C 15.004 5.885 15.148 5.476 15.333 5.082 L 15.37 5 L 15.19 5.018 C 14.967 5.044 14.744 5.062 14.523 5.098 C 14.256 5.141 13.991 5.201 13.723 5.248 C 13.676 5.255 13.664 5.276 13.653 5.316 C 13.473 5.919 13.44 6.557 13.555 7.176 C 13.684 7.901 13.988 8.546 14.379 9.15 C 14.494 9.326 14.625 9.492 14.756 9.657 C 14.994 9.957 15.258 10.233 15.537 10.492 C 15.558 10.512 15.597 10.522 15.625 10.52 C 15.712 10.511 15.798 10.495 15.884 10.481 L 16.614 10.367 L 17.257 10.268 L 17.256 10.268 Z M 14.082 21.556 C 14.057 21.53 14.042 21.516 14.027 21.502 C 13.813 21.305 13.6 21.109 13.386 20.912 C 13.193 20.737 13 20.561 12.808 20.384 C 12.777 20.354 12.748 20.343 12.704 20.354 C 12.634 20.374 12.56 20.382 12.488 20.397 C 11.868 20.531 11.263 20.71 10.697 21.019 C 10.294 21.23 9.921 21.494 9.587 21.803 C 9.07 22.29 8.697 22.91 8.508 23.594 C 8.491 23.657 8.5 23.703 8.548 23.748 C 8.687 23.882 8.82 24.023 8.961 24.155 C 9.156 24.337 9.356 24.513 9.555 24.691 C 9.603 24.733 9.655 24.769 9.713 24.813 C 9.721 24.781 9.727 24.763 9.73 24.745 C 9.805 24.345 9.923 23.96 10.078 23.586 C 10.503 22.563 11.284 22.031 12.287 21.809 C 12.561 21.748 12.839 21.706 13.117 21.663 C 13.296 21.635 13.477 21.62 13.657 21.601 C 13.793 21.586 13.93 21.571 14.082 21.556 Z M 18.409 17.178 C 18.585 17.172 18.719 17.027 18.747 16.805 C 18.767 16.637 18.662 16.48 18.5 16.434 C 18.15 16.324 17.798 16.216 17.447 16.107 L 14.807 15.283 C 14.433 15.167 14.06 15.047 13.686 14.933 C 13.634 14.915 13.578 14.91 13.524 14.918 C 13.327 14.957 13.257 15.104 13.239 15.313 C 13.226 15.455 13.313 15.594 13.483 15.647 C 13.925 15.786 14.367 15.923 14.81 16.061 L 18.261 17.141 C 18.31 17.155 18.36 17.166 18.409 17.178 Z M 11.119 23.674 C 11.089 23.679 11.063 23.68 11.039 23.687 C 10.863 23.732 10.789 23.883 10.774 24.082 C 10.763 24.232 10.865 24.362 11.019 24.411 L 11.846 24.668 C 13.17 25.082 14.494 25.496 15.819 25.908 C 15.869 25.926 15.922 25.933 15.975 25.93 C 16.146 25.915 16.26 25.77 16.279 25.552 C 16.294 25.39 16.196 25.252 16.031 25.2 L 11.226 23.7 C 11.189 23.689 11.151 23.682 11.12 23.674 L 11.119 23.674 Z M 21.249 7.91 C 21.249 7.707 21.159 7.589 20.999 7.54 C 19.394 7.038 17.789 6.536 16.183 6.036 C 16.141 6.021 16.096 6.015 16.051 6.018 C 15.815 6.045 15.732 6.286 15.751 6.466 C 15.766 6.626 15.871 6.709 16.012 6.753 C 16.842 7.01 17.671 7.269 18.5 7.528 L 20.817 8.252 C 20.958 8.296 21.102 8.249 21.171 8.123 C 21.214 8.046 21.234 7.954 21.249 7.91 Z M 14.334 14.373 C 14.334 14.533 14.42 14.653 14.577 14.702 L 15.295 14.926 L 17.677 15.67 C 17.771 15.7 17.864 15.737 17.959 15.748 C 18.145 15.769 18.282 15.629 18.319 15.398 C 18.348 15.226 18.243 15.061 18.075 15.014 L 16.243 14.443 C 15.758 14.291 15.273 14.138 14.787 13.99 C 14.725 13.971 14.66 13.967 14.596 13.978 C 14.434 14.01 14.345 14.166 14.334 14.373 Z M 14.002 16.263 C 13.952 16.286 13.885 16.3 13.836 16.339 C 13.706 16.442 13.665 16.591 13.69 16.752 C 13.712 16.897 13.812 16.976 13.944 17.017 C 14.656 17.237 15.368 17.46 16.08 17.682 C 16.464 17.802 16.847 17.922 17.231 18.04 C 17.281 18.055 17.337 18.062 17.387 18.053 C 17.547 18.026 17.621 17.907 17.658 17.752 C 17.706 17.556 17.616 17.383 17.432 17.324 L 17.18 17.247 C 16.174 16.932 15.167 16.617 14.16 16.304 C 14.114 16.289 14.066 16.28 14.002 16.264 L 14.002 16.263 Z M 11.219 25.45 C 11.217 25.594 11.308 25.722 11.444 25.768 C 11.536 25.798 11.628 25.825 11.719 25.854 L 14.826 26.824 C 14.856 26.831 14.887 26.83 14.916 26.822 C 15.074 26.786 15.155 26.674 15.193 26.515 C 15.238 26.325 15.151 26.15 14.973 26.094 C 13.865 25.747 12.757 25.402 11.649 25.057 C 11.608 25.044 11.565 25.04 11.522 25.044 C 11.327 25.065 11.233 25.234 11.219 25.45 Z M 12.216 22.73 C 12.183 22.735 12.16 22.735 12.138 22.74 C 11.966 22.786 11.886 22.92 11.87 23.126 C 11.857 23.284 11.95 23.411 12.104 23.461 C 12.314 23.529 12.526 23.593 12.737 23.659 C 13.622 23.935 14.507 24.213 15.391 24.488 C 15.445 24.506 15.502 24.513 15.559 24.508 C 15.727 24.488 15.837 24.341 15.854 24.127 C 15.864 23.967 15.761 23.823 15.606 23.781 C 14.512 23.439 13.419 23.098 12.325 22.757 C 12.285 22.745 12.245 22.737 12.215 22.73 L 12.216 22.73 Z M 19.838 9.168 C 19.891 9.15 19.943 9.14 19.989 9.116 C 20.116 9.05 20.153 8.923 20.17 8.791 C 20.192 8.632 20.097 8.48 19.944 8.431 C 19.749 8.371 19.554 8.308 19.36 8.248 C 18.45 7.964 17.539 7.679 16.627 7.398 C 16.568 7.381 16.507 7.379 16.447 7.392 C 16.313 7.423 16.241 7.523 16.206 7.662 C 16.15 7.881 16.233 8.045 16.438 8.11 L 19.52 9.074 C 19.625 9.107 19.73 9.136 19.838 9.168 Z M 20.821 6.468 C 20.821 6.288 20.731 6.167 20.576 6.118 L 19.151 5.674 C 18.53 5.48 17.909 5.284 17.287 5.093 C 17.227 5.074 17.163 5.07 17.101 5.081 C 16.96 5.111 16.891 5.221 16.856 5.362 C 16.803 5.569 16.886 5.737 17.081 5.798 L 18.004 6.088 L 20.369 6.827 C 20.448 6.857 20.536 6.855 20.614 6.82 C 20.766 6.746 20.802 6.601 20.821 6.468 Z" fill-rule="evenodd"/>
</svg>
