<?xml version="1.0" encoding="utf-8"?>
<svg fill="#d1d1d1" viewBox="0 0 32 32" xmlns="http://www.w3.org/2000/svg">
  <path d="M 17.893 17.13 C 19.691 13.017 18.695 9.39 15.979 6 C 13.243 9.417 12.257 13.07 14.111 17.197 C 11.871 14.846 9.109 14.294 6 14.798 C 6.53 16.82 9.25 19.637 10.862 19.832 C 9.329 18.865 8.088 17.718 7.728 15.868 C 7.924 15.828 8.063 15.794 8.203 15.773 C 9.386 15.596 10.463 15.928 11.49 16.458 C 12.746 17.105 13.815 17.997 14.821 18.966 C 14.959 19.099 15.091 19.238 15.269 19.418 C 12.851 19.508 11.059 20.456 10.004 22.605 C 11.274 23.025 13.224 22.739 13.9 22.043 C 12.959 22.393 12.045 22.609 11.108 22.135 C 11.512 21.055 14.122 19.654 15.333 19.849 C 14.786 20.834 14.467 21.864 14.607 22.999 C 14.746 24.129 15.254 25.085 15.98 26 C 17.54 24.034 17.861 22.003 16.584 19.766 C 17.53 19.96 18.385 20.156 19.151 20.575 C 19.645 20.845 20.093 21.207 20.531 21.565 C 20.691 21.695 20.761 21.929 20.879 22.13 C 19.91 22.59 19.026 22.39 18.139 22.119 C 19.316 22.875 20.584 22.939 21.97 22.632 C 20.903 20.451 19.102 19.506 16.737 19.417 C 16.774 19.348 16.784 19.316 16.805 19.294 C 18.012 18.089 19.298 16.981 20.879 16.26 C 21.819 15.832 22.801 15.612 23.848 15.78 C 24.134 15.826 24.244 15.914 24.158 16.225 C 23.89 17.21 23.351 18.03 22.592 18.707 C 22.137 19.113 21.634 19.467 21.082 19.9 C 23.582 18.94 24.997 17.102 26 14.802 C 22.888 14.304 20.142 14.829 17.893 17.13 Z M 15.98 20.297 C 14.835 21.604 14.807 23.397 15.993 24.591 C 17.114 23.511 17.115 21.498 15.98 20.297 Z M 15.981 8.105 C 13.276 11.233 13.378 14.931 15.979 18.004 C 18.627 14.868 18.634 11.188 15.981 8.104 L 15.981 8.105 Z" fill-rule="evenodd"/>
</svg>
