<?xml version="1.0" encoding="utf-8"?>
<svg fill="#d1d1d1" width="32" height="32" viewBox="0 0 32 32" xmlns="http://www.w3.org/2000/svg">
  <path d="M 13.745 23.42 L 13.697 23.45 L 11.782 24.558 L 16 27 L 17.963 25.862 L 13.818 23.463 L 13.745 23.421 L 13.745 23.42 Z M 20.222 12.34 L 14.945 15.397 L 14.945 21.508 L 20.215 24.56 L 20.222 24.564 L 25.5 21.508 L 25.5 15.398 L 20.222 12.34 Z M 9.536 16.221 L 6.5 17.98 L 6.5 21.494 L 9.536 23.252 L 12.571 21.494 L 12.571 17.98 L 9.536 16.22 L 9.536 16.221 Z M 16 5 L 6.5 10.5 L 6.5 15.37 L 8.41 14.265 L 9.535 13.613 L 10.661 14.265 L 12.692 15.441 L 12.692 14.093 L 13.818 13.441 L 19.096 10.386 L 20.222 9.734 L 21.348 10.386 L 25.5 12.789 L 25.5 10.499 L 16 5 Z"/>
</svg>
