<?xml version="1.0" encoding="utf-8"?>
<svg fill="#d1d1d1" width="32" height="32" viewBox="0 0 32 32" xmlns="http://www.w3.org/2000/svg">
  <path fill-rule="evenodd" d="M 7.783 24.73 L 7.948 24.73 C 8.568 22.331 9.458 19.695 10.452 17.014 C 11.363 14.572 12.397 12.541 13.494 10.855 C 14.156 10.855 14.839 10.898 15.543 10.941 C 16.412 11.006 17.323 11.114 18.254 11.244 C 21.11 11.654 22.641 12.324 23.387 13.124 C 22.703 10.639 20.241 8.521 15.377 8.542 L 15.274 8.542 C 17.447 6.078 19.682 5.085 21.338 5.776 C 21.413 5.799 21.483 5.835 21.545 5.884 C 21.124 5.309 20.627 4.867 20.055 4.587 C 24.585 6.288 27.819 10.756 27.819 16 C 27.819 22.708 22.528 28.146 16 28.146 C 12.933 28.15 9.985 26.925 7.783 24.73 L 7.783 24.73 Z M 7.762 24.709 C 5.469 22.425 4.177 19.282 4.181 16 C 4.181 15.205 4.255 14.429 4.397 13.677 C 5.591 12.308 7.901 11.351 11.052 11.006 C 10.307 12.519 9.645 14.248 9.086 16.214 C 8.239 19.232 7.826 22.143 7.762 24.709 L 7.762 24.709 Z M 4.466 13.341 C 5.645 7.912 10.362 3.854 16 3.854 C 17.102 3.854 18.169 4.009 19.181 4.299 C 17.005 3.881 14.465 5.472 12.294 8.802 C 8.337 9.455 5.627 11.21 4.466 13.341 L 4.466 13.341 Z M 17.302 16.366 C 15.978 16.366 14.902 17.489 14.902 18.917 C 14.902 20.321 15.978 21.466 17.302 21.466 C 18.627 21.466 19.703 20.321 19.703 18.916 C 19.703 17.511 18.627 16.366 17.302 16.366 Z" style=""/>
</svg>
