<?xml version="1.0" encoding="utf-8"?>
<svg fill="#d1d1d1" height="32" viewBox="0 0 32 32" width="32" xmlns="http://www.w3.org/2000/svg">
  <path d="M 24.603 6 C 18.773 9.022 16.553 11.565 16.553 11.565 L 16.208 13.97 C 15.862 14.381 15.581 13.902 15.581 13.902 L 15.373 12.665 L 13.71 14.245 C 13.71 17.265 13.083 18.298 13.083 18.298 C 12.807 18.708 12.531 18.366 12.531 18.366 L 12.393 15.208 L 11.351 16.102 L 11.421 21.12 C 10.448 20.914 10.241 18.508 10.241 18.508 C 9.475 19.193 9.619 21.667 9.619 21.667 L 7.887 19.467 L 8.928 22.009 L 6.5 20.704 L 8.376 22.562 C 7.403 23.457 8.237 24.142 8.237 24.142 C 8.098 23.818 8.255 23.443 8.583 23.315 C 9.417 22.905 9.279 24.073 9.279 24.073 L 7.892 25.72 C 7.685 26.062 8.03 25.993 8.03 25.993 L 9.693 24.209 C 10.666 25.446 11.845 25.172 11.845 25.172 C 10.389 24.556 10.389 23.108 10.389 23.108 C 11.638 25.104 13.721 24.414 13.721 24.414 C 11.361 24.004 11.293 22.556 11.293 22.556 C 16.494 23.588 17.813 22.146 17.813 22.146 L 11.638 21.871 C 13.094 20.361 16.84 20.976 16.84 20.976 L 20.102 16.717 L 24.167 11.947 C 24.55 11.497 24.859 10.989 25.081 10.442 C 26.25 7.463 24.603 6 24.603 6 Z M 13.503 19.95 C 13.503 19.95 19.465 11.496 22.307 9.506 C 22.313 9.506 19.257 14.66 13.503 19.951 L 13.503 19.95 Z"/>
</svg>
