<?xml version="1.0" encoding="utf-8"?>
<svg fill="#d1d1d1" height="32" viewBox="0 0 32 32" width="32" xmlns="http://www.w3.org/2000/svg">
  <path d="M 25.532 10 L 19.037 10 L 17.111 14.83 L 11.037 14.83 L 11.037 12.343 L 17.111 12.343 L 18 10 L 8.802 10 C 8.565 9.999 8.372 10.19 8.37 10.427 L 8.37 14.829 L 6.89 14.829 L 6 17.171 L 8.37 17.171 L 8.37 21.568 C 8.37 21.806 8.566 22 8.808 22 L 13.259 22 L 14.148 19.659 L 11.037 19.659 L 11.037 17.17 L 16.074 17.17 L 14.148 22 L 17.111 22 L 19.185 17.17 L 25.565 17.17 C 25.805 17.17 26 16.978 26 16.741 L 26 10.461 C 25.998 10.205 25.788 9.998 25.532 10 Z M 23.482 14.46 C 23.482 14.664 23.315 14.83 23.108 14.83 L 20.074 14.83 L 21.111 12.344 L 23.106 12.344 C 23.312 12.342 23.48 12.506 23.483 12.712 L 23.482 14.46 Z"/>
</svg>
