<?xml version="1.0" encoding="utf-8"?>
<svg fill="#d1d1d1" height="32" viewBox="0 0 32 32" width="32" xmlns="http://www.w3.org/2000/svg">
  <path d="M 12.7 26.9 C 14.123 27.339 15.621 27.475 17.1 27.3 C 15.7 25.4 14.2 23.5 12.8 21.7 C 14.2 20.5 15.7 19.4 17.1 18.3 C 16.1 17 15.1 15.8 14.1 14.5 L 9.8 17.9 C 9.468 16.83 9.433 15.689 9.7 14.6 C 9.99 13.7 10.43 12.854 11 12.1 C 11.58 11.399 12.294 10.821 13.1 10.4 C 14.012 9.98 14.997 9.742 16 9.7 C 15.9 9.5 15.7 9.4 15.6 9.2 C 14.6 7.9 13.6 6.6 12.6 5.4 C 11.943 5.606 11.306 5.874 10.7 6.2 C 8.973 7.05 7.518 8.366 6.5 10 C 5.805 11.181 5.298 12.463 5 13.8 C 4.65 15.381 4.65 17.019 5 18.6 C 5.306 19.92 5.848 21.173 6.6 22.3 C 7.305 23.371 8.184 24.317 9.2 25.1 C 10.231 25.933 11.422 26.546 12.7 26.9 Z M 22.23 14.786 C 22.396 15.903 22.386 16.841 22.2 17.6 C 21.985 18.51 21.576 19.363 21 20.1 C 19.829 21.619 18.018 22.506 16.1 22.5 C 16.333 22.89 16.601 23.258 16.9 23.6 C 17.7 24.7 18.5 25.7 19.4 26.8 C 20.617 26.446 21.743 25.831 22.7 25 C 23.683 24.251 24.528 23.337 25.2 22.3 C 25.97 21.22 26.514 19.995 26.8 18.7 C 27.134 17.154 27.168 15.559 26.9 14 C 26.725 12.644 26.246 11.345 25.5 10.2 C 24.866 9.136 24.055 8.189 23.1 7.4 C 21.141 5.744 18.665 4.824 16.1 4.8 L 14.7 4.8 C 14.7 4.9 14.8 4.9 14.8 5 C 16.3 6.9 17.7 8.7 19.1 10.5 C 17.7 11.7 16.2 12.8 14.8 13.9 C 15.8 15.2 16.8 16.4 17.8 17.7 C 18.99 16.68 21.965 14.406 22.1 14.3 C 22.15 14.46 22.193 14.623 22.23 14.786 Z M 17.507 23.159 C 17.495 23.145 17.483 23.131 17.471 23.117 C 19.11 22.79 20.574 21.881 21.594 20.557 C 22.235 19.736 22.691 18.786 22.93 17.772 C 23.228 16.553 23.188 15.276 22.816 14.078 L 22.493 13.038 L 21.637 13.71 C 21.186 14.064 19.587 15.294 19.49 15.37 C 18.884 15.84 18.378 16.242 17.914 16.625 C 17.573 16.192 17.231 15.761 16.886 15.331 C 16.42 14.749 16.116 14.367 15.852 14.031 C 16.49 13.538 17.339 12.885 17.41 12.831 C 18.15 12.262 18.877 11.674 19.588 11.069 L 20.131 10.604 L 19.692 10.04 C 18.528 8.541 17.361 7.044 16.189 5.551 C 18.541 5.594 20.813 6.449 22.616 7.973 C 23.511 8.713 24.266 9.593 24.856 10.583 C 25.548 11.641 25.993 12.842 26.156 14.096 C 26.412 15.57 26.381 17.08 26.066 18.542 C 25.802 19.738 25.299 20.868 24.589 21.865 C 23.96 22.84 23.167 23.699 22.245 24.404 C 21.484 25.068 20.607 25.585 19.657 25.928 C 18.915 25.025 18.198 24.101 17.507 23.158 L 17.507 23.159 Z" fill-rule="evenodd"/>
</svg>
