<?xml version="1.0" encoding="utf-8"?>
<svg fill="#d1d1d1" height="32" viewBox="0 0 32 32" width="32" xmlns="http://www.w3.org/2000/svg">
  <path d="M 12.869 12.685 L 12.869 15.173 L 23.954 15.173 L 23.954 12.685 L 12.869 12.685 Z M 23.954 16.829 L 12.869 16.829 L 12.869 19.317 L 21.102 19.317 L 21.102 21.652 C 19.998 22.604 17.836 23.096 17.836 23.096 C 11.489 24.202 9.466 18.766 9.466 18.766 C 7.626 12.501 12.086 10.013 12.086 10.013 C 17.56 6.696 21.654 10.934 21.654 10.934 L 23.586 9.046 C 20.366 5.36 15.399 6.051 15.399 6.051 C 7.349 6.881 6.291 13.652 6.291 13.652 C 4.957 19.088 8.637 22.82 8.637 22.82 C 15.353 29.637 24 23.372 24 23.372 L 24 16.83 L 23.954 16.829 Z" fill-rule="evenodd"/>
</svg>
