<?xml version="1.0" encoding="utf-8"?>
<svg fill="#d1d1d1" viewBox="0 0 32 32" xmlns="http://www.w3.org/2000/svg">
  <path d="M 15.699 11.006 L 10.999 11.006 C 10.004 11.006 8.858 11.331 7.945 11.979 C 6.717 12.851 6 14.217 6 16.003 C 6 17.789 6.717 19.155 7.945 20.027 C 8.842 20.65 9.906 20.989 10.998 21 L 13 21 L 13 18.94 L 11 18.94 C 10.39 18.94 9.639 18.726 9.08 18.33 C 8.386 17.838 8 17.102 8 16.003 C 8 14.904 8.387 14.168 9.08 13.676 C 9.647 13.289 10.314 13.077 11 13.066 L 15.7 13.066 L 15.699 11.006 Z M 10.699 17.188 L 13.7 17.188 L 13.7 21 L 15.7 21 L 15.7 15.127 L 10.7 15.127 L 10.699 17.188 Z M 19 13.06 L 24 13.06 L 24 18.938 L 18.998 18.938 L 18.998 13.066 L 16.998 13.066 L 16.998 21 L 26 21 L 26 11 L 18.998 11 L 19 13.06 Z" fill-rule="evenodd"/>
</svg>
