<?xml version="1.0" encoding="utf-8"?>
<svg fill="#d1d1d1" height="32" viewBox="0 0 32 32" width="32" xmlns="http://www.w3.org/2000/svg">
  <path d="M 21.002 9.855 L 21.812 6.614 L 19.216 5.968 L 18.573 8.543 C 18.15 8.4 17.716 8.292 17.275 8.22 L 17.919 5.645 L 15.323 5 L 14.513 8.241 C 11.53 8.783 9.004 10.978 8.233 14.064 C 7.462 17.15 8.659 20.27 11.037 22.144 L 10.227 25.386 L 12.823 26.032 L 13.466 23.457 C 13.889 23.6 14.323 23.708 14.764 23.78 L 14.12 26.355 L 16.716 27 L 17.526 23.759 C 19.645 23.379 21.521 22.158 22.726 20.374 L 19.879 19.666 C 18.541 21.018 16.589 21.561 14.745 21.096 C 11.879 20.384 10.125 17.524 10.828 14.709 C 11.531 11.894 14.427 10.19 17.294 10.903 C 19.14 11.354 20.609 12.75 21.154 14.57 L 24 15.278 C 23.776 13.139 22.694 11.183 21.002 9.855 Z"/>
</svg>
