<?xml version="1.0" encoding="utf-8"?>
<svg fill="#d1d1d1" width="32" height="32" viewBox="0 0 32 32" xmlns="http://www.w3.org/2000/svg">
  <path d="M 16 28.314 C 9.323 28.314 3.91 22.801 3.91 16 C 3.91 9.199 9.323 3.686 16 3.686 C 22.677 3.686 28.09 9.199 28.09 16 C 28.09 22.801 22.677 28.314 16 28.314 Z M 13.225 7.225 C 12.715 7.388 12.225 7.611 11.752 7.861 C 11.389 8.065 11.03 8.281 10.699 8.535 C 9.161 9.67 8.01 11.267 7.409 13.102 C 7.206 13.729 7.069 14.375 6.998 15.031 C 6.964 15.474 6.93 15.921 6.961 16.365 C 6.985 17.291 7.172 18.204 7.467 19.078 C 8.415 21.782 10.541 23.886 13.223 24.773 C 13.883 24.981 14.561 25.134 15.251 25.182 C 15.402 25.209 15.559 25.192 15.712 25.213 C 16.634 25.24 17.559 25.13 18.447 24.871 C 18.976 24.729 19.49 24.52 19.983 24.276 C 21.745 23.392 23.179 21.952 24.071 20.169 C 24.31 19.689 24.507 19.189 24.66 18.674 C 24.841 18.051 24.973 17.411 25.018 16.763 C 25.044 16.607 25.027 16.449 25.049 16.293 C 25.053 16.096 25.056 15.901 25.049 15.708 C 25.027 15.551 25.044 15.393 25.018 15.237 C 24.968 14.518 24.81 13.807 24.599 13.121 C 24.434 12.623 24.231 12.138 23.991 11.672 C 23.795 11.3 23.574 10.942 23.329 10.6 C 22.246 9.075 20.732 7.922 18.988 7.295 C 17.919 6.923 16.782 6.736 15.652 6.789 C 14.827 6.815 14.01 6.973 13.226 7.225 L 13.225 7.225 Z M 14.971 10.557 L 14.971 12.714 C 14.966 12.752 15.001 12.774 15.02 12.8 C 15.345 13.148 15.673 13.493 15.998 13.841 C 15.995 12.747 15.995 11.652 15.998 10.557 C 15.656 10.557 15.312 10.555 14.97 10.557 L 14.971 10.557 Z M 10.505 11.673 C 10.583 11.726 10.64 11.802 10.705 11.867 C 11.405 12.587 12.107 13.304 12.804 14.028 C 13.442 14.686 14.083 15.34 14.718 15.998 C 13.949 16.801 13.164 17.591 12.396 18.394 C 11.782 19.025 11.167 19.656 10.555 20.287 C 10.539 20.3 10.522 20.313 10.505 20.325 C 11.41 20.325 12.316 20.328 13.223 20.321 C 14.149 19.334 15.079 18.35 16.002 17.362 C 16.928 18.348 17.856 19.334 18.781 20.321 C 19.686 20.328 20.59 20.323 21.494 20.325 C 21.356 20.212 21.247 20.071 21.118 19.948 C 20.47 19.282 19.818 18.614 19.172 17.946 C 18.546 17.295 17.908 16.655 17.286 16 C 17.437 15.846 17.578 15.686 17.733 15.534 C 18.918 14.318 20.098 13.098 21.283 11.881 C 21.354 11.812 21.412 11.73 21.494 11.673 C 20.587 11.673 19.684 11.67 18.779 11.675 C 17.854 12.661 16.926 13.645 16 14.63 C 15.077 13.642 14.146 12.658 13.221 11.675 C 12.316 11.672 11.41 11.672 10.505 11.672 L 10.505 11.673 Z M 16.005 18.15 C 16.005 19.248 16.007 20.344 16.002 21.443 C 16.346 21.44 16.69 21.443 17.031 21.443 L 17.031 19.284 C 17.034 19.26 17.026 19.237 17.008 19.222 C 16.834 19.029 16.65 18.85 16.478 18.658 C 16.323 18.485 16.156 18.327 16.005 18.15 L 16.005 18.15 Z" style=""/>
</svg>
