<?xml version="1.0" encoding="utf-8"?>
<svg fill="#d1d1d1" width="32" height="32" viewBox="0 0 32 32" xmlns="http://www.w3.org/2000/svg">
  <path d="M 26.95 13.44 C 26.901 13.363 26.824 13.308 26.735 13.286 C 26.389 13.201 26.043 13.121 25.695 13.046 L 25.789 12.582 L 25.849 12.29 L 25.877 12.142 L 25.904 11.982 C 25.942 11.745 25.915 11.502 25.827 11.278 C 25.637 10.793 25.207 10.444 24.694 10.356 C 24.611 9.852 24.496 9.354 24.35 8.864 L 24.333 8.804 L 21.847 5.784 L 21.754 5.757 C 21.653 5.73 19.413 5.068 16.364 5.067 L 16.398 4.465 C 17.302 4.168 17.545 3.003 16.835 2.369 C 16.605 2.164 16.307 2.052 15.998 2.055 C 15.047 2.047 14.443 3.072 14.912 3.9 C 15.063 4.166 15.307 4.367 15.598 4.464 L 15.633 5.069 C 12.571 5.072 10.319 5.73 10.223 5.762 L 10.13 5.79 L 7.644 8.809 L 7.628 8.869 C 7.482 9.359 7.367 9.856 7.284 10.359 L 7.276 10.359 L 7.1 10.403 C 6.421 10.61 5.992 11.279 6.088 11.982 L 6.115 12.141 L 6.143 12.289 L 6.203 12.581 L 6.297 13.047 C 5.952 13.123 5.607 13.201 5.263 13.285 C 5.174 13.307 5.097 13.362 5.048 13.439 C 4.913 13.664 5.073 13.951 5.336 13.955 C 5.365 13.955 5.394 13.952 5.422 13.945 C 5.758 13.863 6.094 13.785 6.431 13.712 L 6.456 13.84 C 5.671 16.331 5.851 19.026 6.962 21.39 C 8.47 24.608 11.94 28.078 16 28.078 C 20.059 28.078 23.53 24.608 25.042 21.385 C 26.149 19.019 26.326 16.323 25.537 13.833 L 25.561 13.715 C 25.899 13.789 26.237 13.867 26.574 13.949 C 26.829 14.012 27.056 13.775 26.983 13.523 C 26.975 13.495 26.963 13.468 26.948 13.443 L 26.95 13.44 Z M 15.112 3.298 C 15.114 2.762 15.544 2.327 16.08 2.319 C 16.62 2.319 16.62 4.271 16.08 4.277 C 15.544 4.269 15.114 3.834 15.112 3.298 Z M 15.76 4.508 C 15.839 4.523 15.918 4.531 15.998 4.531 L 16.036 4.531 L 16.112 6.633 C 16.214 6.768 16.2 6.958 16.08 7.077 C 16.016 7.141 15.929 7.177 15.838 7.177 C 15.332 7.177 14.925 7.023 14.925 6.837 C 14.925 6.665 15.267 6.522 15.715 6.498 L 15.838 6.495 L 15.872 6.495 L 15.76 4.508 Z M 8.156 9.345 L 8.447 9.241 L 8.942 9.076 L 9.592 8.884 C 9.828 8.812 10.092 8.746 10.367 8.674 L 11.241 8.477 C 11.544 8.417 11.857 8.35 12.181 8.295 C 12.506 8.24 12.831 8.196 13.161 8.141 C 13.491 8.086 13.821 8.059 14.145 8.021 C 14.47 7.981 14.789 7.965 15.102 7.938 C 15.267 7.923 15.436 7.916 15.597 7.91 L 15.614 7.91 L 15.999 11.337 L 16.389 7.881 L 16.807 7.881 C 17.055 7.881 17.286 7.87 17.489 7.881 L 18.017 7.903 L 18.479 7.919 L 18.023 7.875 L 17.495 7.825 C 17.291 7.804 17.065 7.798 16.813 7.782 C 16.544 7.762 16.274 7.751 16.004 7.749 L 16 7.749 C 15.716 7.749 15.41 7.732 15.098 7.743 C 14.787 7.754 14.46 7.749 14.13 7.771 L 13.129 7.837 C 12.793 7.864 12.458 7.892 12.128 7.936 C 11.798 7.98 11.473 8.029 11.165 8.068 C 10.868 8.105 10.575 8.162 10.299 8.211 L 9.807 8.172 L 10.786 6.836 L 15.675 5.77 L 15.705 6.3 C 15.045 6.352 14.55 6.571 14.55 6.834 C 14.55 7.134 15.2 7.378 16.002 7.378 C 16.804 7.378 17.454 7.135 17.454 6.834 C 17.454 6.571 16.959 6.352 16.299 6.3 L 16.329 5.772 L 21.197 6.835 L 22.177 8.171 L 20.815 8.281 L 20.79 8.278 L 20.805 8.282 L 20.785 8.282 L 23.392 9.574 C 23.392 9.574 24.516 13.184 22.967 16.252 C 22.79 16.599 22.584 16.93 22.352 17.242 C 22.352 17.242 19.946 18.353 16.247 18.549 L 16 17.532 C 16.302 17.542 16.604 17.49 16.885 17.378 L 17.655 17.125 C 19.219 16.643 20.785 16.168 22.352 15.7 L 22.506 15.657 L 22.556 15.514 L 22.606 15.371 L 22.644 15.233 L 22.715 14.963 C 22.841 14.433 22.931 13.895 22.985 13.352 L 23.029 12.802 L 23.039 12.527 L 23.039 12.247 L 23.045 11.96 L 23.018 11.674 L 22.974 11.389 C 22.955 11.296 22.931 11.204 22.902 11.114 L 22.858 10.97 L 22.808 10.8 L 22.773 10.795 L 22.759 10.751 L 22.709 10.58 L 22.512 10.553 C 20.888 10.364 19.256 10.251 17.622 10.217 L 17.452 10.211 L 17.38 10.354 L 16.484 12.111 L 16 12.119 L 15.47 12.129 L 14.51 10.409 L 14.46 10.316 L 14.36 10.321 C 13.547 10.367 12.735 10.433 11.924 10.52 C 11.116 10.606 10.311 10.717 9.51 10.855 L 9.526 10.855 L 9.516 10.855 L 9.482 10.965 C 9.473 10.993 9.465 11.022 9.458 11.051 C 9.474 10.986 9.493 10.922 9.513 10.855 C 9.481 10.943 9.445 11.029 9.403 11.113 C 9.385 11.183 9.365 11.253 9.352 11.323 L 9.342 11.35 L 9.282 11.62 L 9.238 11.889 L 9.21 12.164 C 9.198 12.347 9.195 12.531 9.2 12.714 L 9.221 13.264 C 9.258 13.814 9.331 14.362 9.441 14.903 L 9.501 15.173 L 9.579 15.447 L 9.601 15.514 L 9.678 15.541 L 12.791 16.564 C 13.707 16.862 14.622 17.169 15.535 17.483 C 15.613 17.499 15.692 17.51 15.772 17.515 L 15.827 17.521 L 15.843 17.521 L 15.871 17.526 L 15.986 17.532 L 16.003 17.532 L 15.749 18.567 C 14.841 18.594 13.933 18.561 13.029 18.469 C 10.807 18.171 9.345 17.639 8.965 17.488 C 7.732 14.957 7.445 12.069 8.157 9.345 L 8.156 9.345 Z M 19.956 10.875 L 17.015 16.42 L 16.818 16.79 L 16.675 16.839 C 16.504 16.901 16.324 16.937 16.142 16.944 C 15.863 16.972 15.581 16.938 15.317 16.844 L 15.217 16.806 L 15.343 16.571 L 18.423 10.771 L 18.562 10.508 C 19.062 10.531 19.574 10.569 20.096 10.613 L 19.956 10.875 Z M 20.86 10.965 L 21.004 10.693 L 21.427 10.732 L 21.829 10.776 L 21.879 10.781 L 21.911 10.781 L 21.763 11.061 L 19.323 15.659 L 19.123 16.036 L 17.979 16.399 L 18.176 16.026 L 20.86 10.965 Z M 6.51 12.235 L 6.494 12.087 L 6.483 11.944 C 6.452 11.478 6.752 11.055 7.202 10.93 C 7.01 12.566 7.153 14.224 7.622 15.803 L 7.577 15.789 C 7.248 15.673 6.989 15.414 6.873 15.085 C 6.829 14.947 6.802 14.805 6.791 14.661 L 6.543 12.535 L 6.51 12.235 Z M 9.264 23.688 L 9.249 23.676 L 9.256 23.686 C 9.2 23.671 9.149 23.643 9.106 23.604 C 8.489 22.839 7.965 22.003 7.544 21.115 C 6.68 19.272 6.415 17.205 6.784 15.204 L 6.788 15.214 C 6.961 15.544 7.273 15.781 7.638 15.858 C 7.851 16.56 8.127 17.241 8.463 17.893 L 8.513 17.981 L 8.606 18.025 C 8.958 18.169 9.317 18.295 9.682 18.404 L 9.69 18.404 L 9.665 18.412 C 9.584 18.439 9.504 18.47 9.425 18.503 C 9.359 18.531 9.294 18.56 9.23 18.59 L 8.806 18.793 L 8.669 18.859 L 8.652 18.997 C 8.533 20.043 8.637 21.102 8.958 22.105 C 9.113 22.604 9.331 23.081 9.607 23.525 L 9.612 23.535 L 9.629 23.579 C 9.653 23.69 9.438 23.735 9.264 23.689 L 9.264 23.688 Z M 13.044 25.9 C 12.27 25.617 11.562 25.177 10.965 24.609 C 10.625 24.276 10.334 23.896 10.102 23.48 C 9.872 23.064 9.694 22.62 9.574 22.16 C 9.456 21.699 9.384 21.227 9.359 20.752 C 9.329 20.335 9.342 19.916 9.398 19.502 L 9.656 19.399 C 9.921 19.312 10.189 19.235 10.459 19.169 L 10.872 19.086 C 11.229 19.026 11.588 18.983 11.95 18.959 L 11.993 18.959 L 12.009 18.961 C 11.7 19.803 11.544 20.694 11.549 21.591 C 11.549 23.381 12.139 24.904 13.076 25.919 L 13.044 25.9 Z M 17.344 24.757 C 16.93 24.991 16.462 25.113 15.986 25.109 C 15.49 25.111 15.003 24.978 14.578 24.724 C 14.376 24.505 14.204 24.261 14.066 23.997 C 15.054 25.143 16.82 25.175 17.848 24.064 C 17.711 24.316 17.542 24.55 17.344 24.758 L 17.344 24.757 Z M 15.986 24.339 C 14.903 24.344 14.021 23.47 14.017 22.387 L 14.017 22.38 C 14.015 20.871 15.648 19.927 16.955 20.68 C 18.263 21.433 18.265 23.319 16.959 24.074 C 16.663 24.245 16.328 24.336 15.987 24.338 L 15.987 24.339 L 15.986 24.339 Z M 18.474 22 C 18.15 20.085 15.874 19.239 14.378 20.477 C 13.889 20.882 13.571 21.455 13.486 22.084 C 13.456 21.857 13.438 21.629 13.431 21.401 C 13.843 20.35 14.859 19.661 15.988 19.668 L 15.998 19.668 C 17.103 19.665 18.101 20.33 18.525 21.351 C 18.518 21.568 18.501 21.785 18.474 22.001 L 18.474 22 Z M 18.906 25.931 L 18.916 25.931 L 18.896 25.938 C 19.846 24.922 20.446 23.389 20.446 21.585 C 20.451 20.688 20.295 19.797 19.985 18.955 L 19.999 18.955 C 21.414 19.159 22.151 19.885 22.151 19.885 C 22.151 19.885 22.301 24.031 18.908 25.931 L 18.906 25.931 Z M 25.369 16.991 L 25.369 17.205 C 25.369 17.254 25.365 17.302 25.364 17.35 C 25.361 17.459 25.355 17.569 25.346 17.678 C 25.346 17.712 25.34 17.747 25.337 17.781 C 25.331 17.852 25.325 17.923 25.317 17.994 C 25.317 18.01 25.314 18.026 25.312 18.042 C 25.304 18.111 25.296 18.179 25.287 18.248 L 25.287 18.258 L 25.259 18.456 L 25.259 18.463 C 25.1 19.495 24.777 20.494 24.301 21.423 L 24.267 21.489 C 24.232 21.556 24.197 21.624 24.16 21.691 C 23.797 22.368 23.372 23.009 22.89 23.606 C 22.849 23.645 22.8 23.673 22.746 23.688 L 22.752 23.677 L 22.738 23.69 C 22.564 23.74 22.343 23.697 22.368 23.58 L 22.384 23.536 L 22.394 23.526 C 22.667 23.08 22.884 22.604 23.039 22.106 C 23.355 21.104 23.458 20.048 23.341 19.004 L 23.325 18.867 L 23.187 18.801 C 23.044 18.729 22.907 18.658 22.764 18.597 L 22.329 18.421 L 22.29 18.407 L 22.3 18.404 C 22.663 18.297 23.02 18.169 23.369 18.023 L 23.462 17.979 L 23.512 17.891 C 23.847 17.239 24.122 16.559 24.334 15.859 C 24.709 15.782 25.029 15.542 25.207 15.204 C 25.312 15.766 25.367 16.337 25.372 16.909 C 25.37 16.936 25.369 16.964 25.369 16.991 Z M 9.646 11.135 L 9.877 10.855 L 9.954 10.855 L 9.839 10.855 C 9.723 11.025 9.581 11.188 9.454 11.355 C 9.527 11.281 9.584 11.212 9.646 11.135 Z M 16.95 6.21 C 17.434 6.337 17.753 6.568 17.753 6.837 C 17.753 7.107 17.429 7.337 16.95 7.464 C 17.61 7.404 18.105 7.145 18.105 6.837 C 18.105 6.529 17.61 6.268 16.95 6.21 Z M 15.36 8.682 C 15.499 8.682 15.612 8.571 15.614 8.432 C 15.614 8.364 15.587 8.3 15.539 8.252 C 15.491 8.205 15.426 8.18 15.359 8.182 C 15.222 8.184 15.113 8.295 15.114 8.432 C 15.114 8.57 15.224 8.682 15.36 8.682 Z M 8.715 9.524 C 8.521 9.526 8.402 9.737 8.5 9.904 C 8.511 9.922 8.524 9.939 8.539 9.954 C 8.586 10.001 8.649 10.026 8.715 10.024 C 8.909 10.022 9.028 9.811 8.93 9.644 C 8.919 9.626 8.906 9.609 8.891 9.594 C 8.845 9.547 8.781 9.522 8.715 9.524 Z M 9.408 17.597 C 9.602 17.595 9.721 17.384 9.623 17.217 C 9.612 17.199 9.599 17.182 9.584 17.167 C 9.538 17.12 9.474 17.095 9.408 17.097 C 9.27 17.098 9.159 17.209 9.158 17.347 C 9.163 17.487 9.273 17.597 9.408 17.597 Z M 15.48 18.554 C 15.674 18.552 15.793 18.341 15.695 18.174 C 15.684 18.156 15.671 18.139 15.656 18.124 C 15.61 18.077 15.546 18.052 15.48 18.054 C 15.341 18.057 15.23 18.17 15.23 18.309 C 15.239 18.442 15.347 18.548 15.48 18.554 Z M 16.845 8.687 C 16.984 8.687 17.097 8.576 17.099 8.437 C 17.099 8.369 17.072 8.305 17.024 8.257 C 16.976 8.21 16.911 8.185 16.844 8.187 C 16.707 8.189 16.598 8.3 16.599 8.437 C 16.599 8.576 16.709 8.687 16.845 8.687 Z M 16.723 18.06 C 16.586 18.062 16.475 18.173 16.473 18.31 C 16.483 18.447 16.59 18.555 16.723 18.56 C 16.917 18.558 17.036 18.347 16.938 18.18 C 16.927 18.162 16.914 18.145 16.899 18.13 C 16.853 18.083 16.789 18.058 16.723 18.06 Z M 9.946 19.743 C 9.857 19.737 9.772 19.782 9.728 19.859 C 9.681 19.938 9.679 20.036 9.722 20.117 C 9.766 20.197 9.848 20.246 9.936 20.242 L 9.946 20.242 C 10.082 20.239 10.191 20.128 10.191 19.992 C 10.192 19.928 10.168 19.867 10.125 19.82 C 10.079 19.77 10.013 19.742 9.945 19.743 L 9.946 19.743 Z M 11.455 19.293 C 11.318 19.294 11.208 19.405 11.209 19.542 C 11.209 19.68 11.319 19.792 11.455 19.792 C 11.594 19.792 11.707 19.681 11.709 19.542 C 11.709 19.474 11.682 19.41 11.634 19.362 C 11.586 19.315 11.521 19.29 11.454 19.292 L 11.455 19.293 Z M 20.75 19.293 C 20.558 19.291 20.435 19.499 20.53 19.666 C 20.578 19.751 20.672 19.801 20.77 19.792 C 20.962 19.784 21.074 19.571 20.972 19.408 C 20.924 19.333 20.839 19.288 20.75 19.292 L 20.75 19.293 Z"/>
</svg>
