<?xml version="1.0" encoding="utf-8"?>
<svg fill="#d1d1d1" width="32" height="32" viewBox="0 0 32 32" xmlns="http://www.w3.org/2000/svg">
  <path d="M 16 5 C 9.925 5 5 9.925 5 16 C 5 22.075 9.925 27 16 27 C 22.075 27 27 22.075 27 16 C 27 9.925 22.075 5 16 5 Z M 16 6.11 C 21.462 6.11 25.89 10.538 25.89 16 C 25.89 21.462 21.462 25.89 16 25.89 C 10.538 25.89 6.11 21.462 6.11 16 C 6.11 10.538 10.538 6.11 16 6.11 Z M 17.61 8.402 L 17.595 8.402 C 17.294 8.41 17.055 8.656 17.055 8.957 L 17.055 11.66 L 14.943 11.66 L 14.943 8.942 C 14.937 8.515 14.471 8.254 14.104 8.473 C 13.934 8.574 13.83 8.759 13.833 8.957 L 13.833 11.66 L 10.739 11.66 C 10.438 11.668 10.199 11.914 10.199 12.215 L 10.199 19.8 C 10.207 20.1 10.452 20.34 10.754 20.34 L 13.834 20.34 L 13.834 23.058 C 13.842 23.358 14.088 23.598 14.389 23.598 L 14.404 23.598 C 14.704 23.59 14.944 23.345 14.944 23.043 L 14.944 20.34 L 17.055 20.34 L 17.055 23.058 C 17.061 23.485 17.527 23.746 17.894 23.527 C 18.064 23.426 18.168 23.241 18.165 23.043 L 18.165 20.34 L 21.261 20.34 C 21.561 20.332 21.801 20.087 21.801 19.785 L 21.801 15.89 C 21.793 15.589 21.547 15.35 21.246 15.35 L 14.374 15.35 C 14.073 15.358 13.834 15.604 13.834 15.905 L 13.834 15.92 C 13.842 16.22 14.088 16.46 14.389 16.46 L 20.691 16.46 L 20.691 19.231 L 11.31 19.231 L 11.31 12.771 L 21.262 12.771 C 21.689 12.765 21.95 12.299 21.731 11.932 C 21.63 11.762 21.445 11.658 21.247 11.661 L 18.166 11.661 L 18.166 8.942 C 18.158 8.641 17.912 8.402 17.611 8.402 L 17.61 8.402 Z"/>
</svg>
