<?xml version="1.0" encoding="utf-8"?>
<svg fill="#d1d1d1" viewBox="0 0 32 32" xmlns="http://www.w3.org/2000/svg">
  <path fill-rule="evenodd" d="M 24.777 10.5 L 23.979 11.31 C 24.614 12.321 24.813 13.59 24.379 14.804 C 23.653 16.864 21.404 17.95 19.355 17.214 C 19.065 17.104 18.793 16.974 18.557 16.809 L 16 19.403 L 13.77 17.123 C 12.709 17.842 11.368 18.013 10.16 17.582 C 8.053 16.803 6.968 14.471 7.73 12.358 C 7.84 12.027 8.003 11.732 8.184 11.457 L 7.223 10.482 L 7.041 10.794 C 6.034 12.465 5.502 14.38 5.501 16.331 C 5.48 22.2 10.196 27 15.98 27 L 16 27 C 21.785 27 26.482 22.236 26.5 16.368 C 26.5 14.418 25.974 12.505 24.977 10.831 L 24.777 10.5 Z M 9.363 12.652 C 9.08 13.036 8.927 13.5 8.928 13.977 C 8.928 15.172 9.888 16.147 11.068 16.147 C 11.557 16.147 12.01 15.982 12.373 15.687 L 9.363 12.652 Z M 19.863 15.503 C 20.207 15.743 20.606 15.871 21.06 15.871 C 22.238 15.871 23.2 14.896 23.2 13.701 C 23.2 13.259 23.073 12.836 22.837 12.487 L 19.863 15.503 Z M 16.036 17.784 L 24.596 9.139 L 24.269 8.771 C 22.154 6.381 19.118 5.009 15.927 5 L 15.909 5 C 12.772 5 9.852 6.288 7.712 8.587 L 7.368 8.955 L 16.036 17.785 L 16.036 17.784 Z M 8.782 8.954 C 10.681 7.07 13.252 6.018 15.927 6.03 L 15.946 6.03 C 18.666 6.03 21.277 7.152 23.199 9.102 L 16.036 16.332 L 8.782 8.955 L 8.782 8.954 Z"/>
</svg>
