<?xml version="1.0" encoding="utf-8"?>
<svg fill="#d1d1d1" viewBox="0 0 32 32" xmlns="http://www.w3.org/2000/svg">
  <path fill-rule="evenodd" d="M 20.499 5.288 L 18.227 7.622 C 17.523 7.135 16.688 6.874 15.832 6.873 C 14.674 6.872 13.566 7.343 12.762 8.176 C 11.948 9.016 11.495 10.141 11.5 11.31 C 11.5 12.49 11.948 13.608 12.762 14.445 C 13.36 15.065 14.131 15.491 14.975 15.665 L 14.975 17.705 C 14.127 17.875 13.353 18.303 12.758 18.93 C 11.946 19.77 11.494 20.894 11.5 22.062 C 11.5 23.242 11.948 24.36 12.762 25.197 C 13.565 26.032 14.674 26.503 15.832 26.499 C 16.99 26.5 18.098 26.03 18.902 25.197 C 19.718 24.358 20.171 23.232 20.163 22.062 C 20.171 20.892 19.717 19.765 18.901 18.927 C 18.303 18.306 17.532 17.881 16.688 17.706 L 16.688 15.666 C 17.536 15.497 18.31 15.069 18.905 14.441 C 19.719 13.603 20.171 12.478 20.163 11.31 C 20.163 10.422 19.904 9.562 19.425 8.832 L 21.702 6.492 L 20.5 5.287 L 20.499 5.288 Z M 15.832 19.345 C 16.543 19.345 17.199 19.622 17.685 20.132 C 18.188 20.661 18.463 21.338 18.463 22.062 C 18.463 22.792 18.186 23.479 17.688 23.99 C 17.206 24.499 16.533 24.785 15.832 24.78 C 15.132 24.78 14.47 24.498 13.975 23.99 C 13.477 23.472 13.199 22.782 13.2 22.063 C 13.2 21.333 13.478 20.646 13.975 20.136 C 14.457 19.626 15.13 19.34 15.832 19.345 Z M 17.685 13.255 C 17.203 13.763 16.532 14.048 15.832 14.042 C 15.132 14.042 14.47 13.759 13.975 13.251 C 13.477 12.733 13.199 12.043 13.2 11.324 C 13.2 10.594 13.478 9.907 13.975 9.396 C 14.458 8.887 15.13 8.6 15.832 8.606 C 16.532 8.606 17.194 8.888 17.688 9.396 C 18.193 9.91 18.472 10.604 18.463 11.324 C 18.463 12.054 18.186 12.74 17.685 13.254 L 17.685 13.255 Z"/>
</svg>
