<?xml version="1.0" encoding="utf-8"?>
<svg fill="#d1d1d1" width="32" height="32" viewBox="0 0 32 32" xmlns="http://www.w3.org/2000/svg">
  <path d="M 15.75 4 C 9.26 4 4 9.26 4 15.75 C 4 22.24 9.26 27.5 15.75 27.5 C 22.24 27.5 27.5 22.24 27.5 15.75 C 27.5 9.261 22.239 4 15.75 4 Z M 15.75 24.57 C 8.96 24.57 4.717 17.22 8.112 11.34 C 9.687 8.611 12.599 6.93 15.75 6.93 C 22.54 6.93 26.783 14.28 23.388 20.16 C 21.813 22.889 18.901 24.57 15.75 24.57 Z M 12.82 15.76 L 15.76 20.16 L 18.68 15.76 L 15.76 11.35 L 12.82 15.76 Z"/>
</svg>
