<?xml version="1.0" encoding="utf-8"?>
<svg fill="#d1d1d1" viewBox="0 0 32 32" xmlns="http://www.w3.org/2000/svg">
  <path fill-rule="evenodd" d="M 11.536 26.447 C 11.026 26.996 10.52 27.55 9.997 28.087 C 9.939 28.147 9.753 28.15 9.679 28.099 C 8.91 27.585 8.107 27.111 7.401 26.514 C 5.475 24.888 4.115 22.838 3.312 20.411 C 2.707 18.584 2.506 16.708 2.668 14.787 C 2.894 12.134 3.793 9.743 5.389 7.649 C 7.616 4.726 10.532 2.962 14.123 2.435 C 16.705 2.055 19.198 2.426 21.578 3.537 C 21.642 3.567 21.706 3.6 21.768 3.634 C 21.781 3.641 21.788 3.66 21.805 3.683 C 21.468 3.683 21.134 3.644 20.811 3.691 C 19.821 3.833 19.231 4.47 18.913 5.404 C 18.85 5.59 18.812 5.788 18.785 5.984 C 18.774 6.055 18.821 6.135 18.841 6.211 C 18.926 6.169 19.043 6.149 19.089 6.08 C 19.213 5.894 19.287 5.673 19.415 5.492 C 20.061 4.565 21.33 4.456 22.067 5.269 C 22.569 5.822 22.636 6.489 22.478 7.199 C 22.277 8.108 21.79 8.863 21.214 9.557 C 20.751 10.116 20.249 10.641 19.755 11.172 C 19.701 11.229 19.554 11.269 19.496 11.235 C 18.45 10.624 17.329 10.353 16.128 10.324 C 14.506 10.287 13.028 10.67 11.773 11.76 C 10.484 12.88 9.757 14.298 9.777 16.049 C 9.8 18.095 10.671 19.662 12.417 20.693 L 12.576 20.788 C 12.583 20.792 12.585 20.803 12.606 20.841 C 12.544 20.899 12.474 20.961 12.408 21.026 C 11.864 21.57 11.295 22.09 10.786 22.666 C 10.357 23.155 10.065 23.736 10.023 24.419 C 9.996 24.864 10.128 25.252 10.444 25.545 C 10.783 25.859 11.155 26.136 11.536 26.447 L 11.536 26.447 Z M 23.831 27.116 C 23.555 26.076 22.922 25.365 22.031 24.883 C 21.338 24.507 20.579 24.369 19.81 24.321 C 18.541 24.244 17.269 24.215 15.999 24.143 C 15.102 24.092 14.206 24.005 13.309 23.934 C 13.3 23.934 13.291 23.933 13.283 23.931 C 12.368 23.734 12.091 23.167 12.57 22.351 C 12.803 21.955 13.144 21.622 13.467 21.291 C 13.538 21.218 13.744 21.246 13.877 21.278 C 15.379 21.646 16.88 21.665 18.342 21.136 C 20.133 20.487 21.365 19.242 21.814 17.314 C 22.118 16.007 21.958 14.727 21.356 13.519 L 21.231 13.261 L 22.342 13.261 C 22.651 13.261 22.961 13.268 23.271 13.255 C 23.352 13.251 23.481 13.203 23.503 13.143 C 23.759 12.432 23.998 11.715 24.241 10.999 L 24.182 10.916 C 24.079 10.96 23.933 10.975 23.88 11.054 C 23.598 11.468 23.192 11.623 22.735 11.632 C 21.86 11.651 20.984 11.638 20.108 11.637 C 20.095 11.637 20.081 11.62 20.058 11.604 C 20.631 10.975 21.203 10.348 21.772 9.719 C 22.394 9.032 22.969 8.311 23.364 7.457 C 23.829 6.451 23.924 5.461 23.185 4.527 C 23.177 4.517 23.181 4.494 23.173 4.406 C 26.732 6.882 28.852 10.22 29.307 14.572 C 29.842 19.461 27.746 24.264 23.831 27.116 Z M 18.984 16.562 C 18.885 17.212 18.84 17.875 18.675 18.505 C 18.388 19.611 17.683 20.353 16.562 20.543 C 15.382 20.745 14.432 20.298 13.751 19.275 C 13.222 18.476 12.959 17.579 12.848 16.637 C 12.732 15.646 12.714 14.651 12.942 13.669 C 13.181 12.632 13.711 11.818 14.714 11.422 C 15.934 10.939 17.206 11.425 17.966 12.631 C 18.481 13.446 18.746 14.349 18.845 15.305 C 18.888 15.718 18.904 16.135 18.933 16.549 L 18.984 16.562 L 18.984 16.562 Z M 22.45 28.003 C 19.993 29.888 13.684 30.316 11.136 28.759 C 11.251 28.524 11.342 28.267 11.489 28.048 C 11.79 27.602 12.114 27.171 12.449 26.751 C 12.512 26.67 12.672 26.627 12.783 26.635 C 14.06 26.721 15.335 26.831 16.613 26.911 C 17.759 26.982 18.908 27.002 20.053 27.086 C 20.568 27.123 21.082 27.237 21.587 27.361 C 21.941 27.447 22.257 27.638 22.45 28.003 L 22.45 28.003 Z" style=""/>
</svg>
