<?xml version="1.0" encoding="utf-8"?>
<svg fill="#d1d1d1" width="32" height="32" viewBox="0 0 32 32" xmlns="http://www.w3.org/2000/svg">
  <path d="M 20.707 19.543 C 20.317 19.153 19.683 19.153 19.293 19.543 L 15.293 23.543 C 14.739 24.078 14.972 25.011 15.712 25.224 C 16.068 25.325 16.45 25.223 16.707 24.957 L 20.707 20.957 C 21.097 20.567 21.097 19.933 20.707 19.543 Z M 15 7.25 C 10.381 7.25 7.494 12.25 9.804 16.25 C 10.876 18.106 12.856 19.25 15 19.25 C 19.619 19.25 22.506 14.25 20.196 10.25 C 19.124 8.394 17.144 7.25 15 7.25 Z M 15 9.25 C 18.079 9.25 20.004 12.583 18.464 15.25 C 17.75 16.488 16.429 17.25 15 17.25 C 11.921 17.25 9.996 13.917 11.536 11.25 C 12.25 10.012 13.571 9.25 15 9.25 Z M 22 7.25 C 21.23 7.25 20.749 8.083 21.134 8.75 C 21.313 9.059 21.643 9.25 22 9.25 C 22.77 9.25 23.251 8.417 22.866 7.75 C 22.687 7.441 22.357 7.25 22 7.25 Z"/>
</svg>
