<?xml version="1.0" encoding="utf-8"?>
<svg fill="#d1d1d1" width="32" height="32" viewBox="0 0 32 32" xmlns="http://www.w3.org/2000/svg">
  <path d="M 25.07 12.047 L 15.922 12.047 C 12.938 12.042 11.068 15.269 12.556 17.856 C 14.044 20.442 17.774 20.448 19.27 17.866 C 19.38 17.676 19.474 17.477 19.55 17.271 L 15.922 17.271 C 15.357 17.272 14.898 16.813 14.899 16.248 L 14.899 16.124 C 14.898 15.559 15.357 15.1 15.922 15.101 L 21.969 15.101 C 22.013 15.383 22.034 15.668 22.031 15.953 C 22.008 20.656 16.903 23.57 12.842 21.198 C 8.781 18.827 8.809 12.949 12.894 10.618 C 13.816 10.091 14.86 9.814 15.922 9.814 L 16.109 9.783 C 16.148 9.801 16.189 9.811 16.233 9.814 L 21.659 9.814 C 24.62 9.814 25.829 8.233 25.829 6 L 15.922 6 C 10.45 6 6.01 10.433 6 15.907 C 5.992 21.381 10.418 25.827 15.892 25.845 C 21.366 25.862 25.819 21.443 25.845 15.969 L 25.845 12.837 C 25.853 12.403 25.504 12.047 25.07 12.047 Z"/>
</svg>
