<?xml version="1.0" encoding="utf-8"?>
<svg fill="#d1d1d1" height="32" viewBox="0 0 32 32" width="32" xmlns="http://www.w3.org/2000/svg">
  <path d="M 15.547 10.221 C 14.762 8.871 14.044 7.953 13.37 7.457 C 12.538 6.844 11.685 6.839 11.017 7.495 C 10.382 8.118 10.323 8.905 10.81 9.649 C 10.937 9.842 11.1 10.033 11.298 10.221 L 8.358 10.221 C 7.568 10.221 7 10.888 7 11.554 C 7 12.33 7.68 12.888 8.358 12.888 L 15.376 12.888 L 15.376 11.11 L 16.508 11.11 L 16.508 12.888 L 23.642 12.888 C 24.432 12.888 25 12.221 25 11.554 C 25 10.779 24.32 10.221 23.642 10.221 L 20.734 10.221 C 20.926 10.023 21.081 9.821 21.196 9.615 C 21.608 8.875 21.491 8.107 20.867 7.495 C 20.199 6.839 19.347 6.845 18.515 7.457 C 17.84 7.953 17.122 8.872 16.338 10.221 L 15.547 10.221 Z M 14.231 10.221 L 13.211 10.221 C 12.495 9.815 11.998 9.408 11.761 9.047 C 11.555 8.731 11.571 8.523 11.817 8.28 C 12.058 8.044 12.282 8.045 12.69 8.346 C 13.133 8.671 13.652 9.298 14.231 10.221 Z M 17.653 10.221 C 18.233 9.298 18.751 8.671 19.193 8.346 C 19.602 8.046 19.826 8.044 20.067 8.28 C 20.337 8.546 20.373 8.777 20.203 9.081 C 20.007 9.433 19.556 9.829 18.873 10.221 L 17.653 10.221 Z M 15.376 14 L 8.02 14 L 8.02 21.222 C 8.012 21.961 8.308 22.672 8.84 23.194 C 9.372 23.716 10.097 24.007 10.85 24 L 15.377 24 L 15.376 14 Z M 16.508 14 L 16.508 24 L 21.036 24 C 21.786 24.008 22.509 23.718 23.045 23.194 C 23.575 22.676 23.871 21.964 23.865 21.222 L 23.865 13.999 L 16.508 14 Z"/>
</svg>
