<?xml version="1.0" encoding="utf-8"?>
<svg fill="#d1d1d1" viewBox="0 0 32 32" xmlns="http://www.w3.org/2000/svg">
  <path d="M 15.99 12.679 L 18.79 9.859 C 17.956 8.506 17.023 7.216 16 6 C 14.975 7.222 14.041 8.517 13.206 9.875 L 15.99 12.679 Z M 21.708 15.489 C 20.949 13.813 20.193 12.255 19.318 10.741 L 15.99 14.093 L 12.68 10.759 C 11.852 12.197 11.122 13.693 10.4 15.316 C 9.614 17.518 8.322 19.893 9.43 22.007 C 11.337 25.651 15.817 27.061 19.436 25.142 C 20.764 24.433 21.849 23.341 22.548 22.007 C 23.647 19.893 22.494 17.691 21.708 15.49 L 21.708 15.489 Z"/>
</svg>
