<?xml version="1.0" encoding="utf-8"?>
<svg fill="#d1d1d1" width="32" height="32" viewBox="0 0 32 32" xmlns="http://www.w3.org/2000/svg">
  <path d="M 19.378 5 C 15.508 5 12.221 7.976 11.808 11.807 C 7.975 12.221 5 15.508 5 19.377 C 5.002 23.586 8.413 26.997 12.622 27 C 16.492 27 19.792 24.024 20.192 20.193 C 24.024 19.779 27 16.492 27 12.623 C 26.998 8.414 23.587 5.003 19.378 5 Z M 25.214 13.476 C 24.823 16.042 22.81 18.055 20.244 18.446 L 20.244 13.476 L 25.214 13.476 Z M 6.786 18.524 C 7.171 15.953 9.186 13.933 11.756 13.541 L 11.756 18.511 L 6.786 18.511 L 6.786 18.524 Z M 18.459 20.244 C 18.032 23.138 15.547 25.282 12.622 25.279 C 9.697 25.282 7.213 23.139 6.786 20.245 L 18.459 20.245 L 18.459 20.244 Z M 18.524 13.476 L 18.524 18.511 L 13.476 18.511 L 13.476 13.476 L 18.524 13.476 Z M 25.214 11.756 L 13.541 11.756 C 13.968 8.862 16.453 6.718 19.378 6.721 C 22.303 6.718 24.787 8.861 25.214 11.755 L 25.214 11.756 Z"/>
</svg>
