<?xml version="1.0" encoding="utf-8"?>
<svg fill="#d1d1d1" viewBox="0 0 32 32" xmlns="http://www.w3.org/2000/svg">
  <path d="M 26 13.193 C 26 12.794 25.976 12.396 25.926 12 L 9.774 12 C 9.696 12.393 9.657 12.792 9.657 13.193 C 9.657 16.62 12.502 19.41 15.997 19.41 C 18.715 19.407 21.129 17.71 22.004 15.189 L 20.08 15.189 C 19.189 16.945 17.233 17.927 15.258 17.609 C 13.284 17.29 11.752 15.746 11.481 13.802 L 24.202 13.802 C 23.885 17.965 20.329 21.257 16.003 21.257 C 11.47 21.257 7.782 17.64 7.782 13.195 C 7.782 12.796 7.812 12.397 7.872 12.002 L 6.074 12.002 C 6.024 12.398 6 12.797 6 13.195 C 6 18.601 10.487 23 16 23 C 21.513 23 26 18.6 26 13.193 Z" fill-rule="evenodd"/>
</svg>
