<?xml version="1.0" encoding="utf-8"?>
<svg fill="#d1d1d1" viewBox="0 0 32 32" xmlns="http://www.w3.org/2000/svg">
  <path d="M 7.02 7.027 L 7.021 7.027 C 5.694 8.297 5.653 10.629 6.951 11.937 C 9.439 14.47 11.979 16.957 14.479 19.479 C 13.332 20.647 12.169 21.794 11.021 22.962 C 10.589 23.378 10.131 23.929 9.465 23.87 C 8.368 23.888 7.68 22.397 8.461 21.596 C 9.619 20.364 10.856 19.202 12.031 17.988 C 11.529 17.488 11.027 16.983 10.525 16.483 C 9.323 17.658 8.134 18.847 6.96 20.05 C 5.709 21.308 5.68 23.521 6.879 24.82 C 8.069 26.227 10.399 26.41 11.782 25.184 C 13.225 23.824 14.587 22.382 16.015 21.008 C 17.353 22.336 18.671 23.69 20.018 25.012 C 21.313 26.328 23.638 26.325 24.936 25.015 C 26.254 23.789 26.371 21.517 25.154 20.184 C 23.798 18.757 22.373 17.403 21.005 15.994 C 22.344 14.654 23.688 13.324 25.015 11.972 C 26.304 10.708 26.325 8.437 25.082 7.135 C 23.871 5.755 21.552 5.606 20.187 6.838 C 18.753 8.189 17.417 9.637 15.989 10.994 C 14.647 9.628 13.291 8.276 11.921 6.937 C 10.609 5.647 8.29 5.7 7.021 7.027 L 7.02 7.027 Z M 8.473 10.417 C 7.863 9.8 8.103 8.664 8.867 8.294 C 9.416 7.968 10.136 8.137 10.557 8.591 C 11.877 9.887 13.176 11.209 14.479 12.522 C 13.821 13.172 13.167 13.827 12.517 14.485 C 11.17 13.128 9.797 11.797 8.473 10.417 Z M 21.413 8.627 L 21.412 8.627 C 21.815 8.172 22.498 7.968 23.058 8.257 C 23.892 8.6 24.153 9.815 23.5 10.449 C 22.205 11.833 20.811 13.119 19.496 14.483 C 18.985 13.993 18.486 13.495 17.986 12.997 C 17.488 13.502 16.987 14.005 16.486 14.506 C 18.679 16.708 20.878 18.906 23.081 21.099 C 23.549 21.533 24.045 22.129 23.827 22.819 C 23.624 23.795 22.26 24.244 21.557 23.504 C 20.172 22.199 18.857 20.825 17.517 19.477 C 18.015 18.982 18.509 18.487 19 17.986 C 18.494 17.488 17.995 16.984 17.493 16.483 C 16.996 16.981 16.5 17.479 16.001 17.971 C 15.348 17.309 14.687 16.656 14.018 16.011 C 16.491 13.559 18.927 11.066 21.412 8.626 L 21.413 8.627 Z"/>
</svg>
