<?xml version="1.0" encoding="utf-8"?>
<svg fill="#d1d1d1" width="32" height="32" viewBox="0 0 32 32" xmlns="http://www.w3.org/2000/svg">
  <path d="M 9.254 8.307 C 9.23 8.308 9.206 8.31 9.182 8.312 C 9.102 8.412 9.004 8.352 8.904 8.372 C 8.547 8.432 8.27 8.689 8.29 8.986 C 8.31 9.324 8.587 9.403 8.865 9.462 C 9.539 9.622 10.214 9.562 10.888 9.582 C 11.701 9.582 12.158 9.978 12.276 10.792 C 12.356 11.386 14.141 27.016 14.161 27.353 C 14.164 27.495 14.262 27.616 14.399 27.651 C 15.073 27.856 15.777 27.951 16.481 27.929 C 17.272 27.949 18.061 27.849 18.821 27.631 C 18.941 27.591 19.04 27.551 19.04 27.393 C 19.06 26.977 20.19 12.041 20.19 11.803 C 20.178 11.108 20.402 10.43 20.825 9.879 C 21.162 9.482 21.539 9.125 21.876 8.729 C 21.878 8.716 21.88 8.702 21.882 8.689 C 22.277 8.669 22.672 8.669 23.066 8.629 C 23.245 8.609 23.523 8.609 23.503 8.272 C 23.463 8.074 23.146 7.519 21.698 7.856 C 21.559 7.896 20.766 8.134 20.488 7.995 C 20.911 7.721 21.348 7.47 21.797 7.241 C 21.995 7.082 22.154 6.864 22.035 6.626 C 21.916 6.388 21.678 6.408 21.46 6.487 C 21.049 6.615 20.675 6.839 20.369 7.142 C 20.168 7.346 19.949 7.532 19.714 7.697 C 19.139 7.975 19.139 7.975 19 7.935 C 18.822 7.855 18.623 7.717 18.762 7.519 C 18.843 7.39 18.903 7.249 18.941 7.102 C 19.001 6.844 18.921 6.765 18.742 6.765 C 18.385 6.785 18.266 7.3 18.207 7.38 C 18.169 7.458 18.122 7.53 18.068 7.598 C 17.974 7.691 17.836 7.722 17.711 7.678 C 17.592 7.658 17.493 7.598 17.592 7.439 C 17.771 7.162 18.326 6.725 18.485 6.15 C 18.485 6.15 18.762 5.396 17.989 5.377 C 17.572 5.357 17.235 5.654 17.116 6.11 C 16.997 6.586 17.255 7.241 17.116 7.558 C 17.066 7.692 16.999 7.818 16.918 7.935 C 16.641 8.183 16.223 8.183 15.946 7.935 C 15.791 7.755 15.726 7.515 15.767 7.281 C 15.835 7.02 15.888 6.754 15.926 6.487 C 15.946 6.289 15.589 5.932 15.291 6.17 C 15.152 6.27 15.211 6.428 15.271 6.567 C 15.371 6.864 15.549 7.717 14.577 7.3 C 14.2 7.102 14.517 6.13 14.379 5.773 C 14.322 5.534 14.041 5.43 13.843 5.575 C 13.624 5.664 13.539 5.93 13.665 6.13 C 13.745 6.289 14.22 7.201 13.843 7.36 C 13.704 7.42 13.407 7.3 13.209 7.181 C 12.495 6.864 12.376 5.773 12.157 5.634 C 11.949 5.48 11.662 5.489 11.463 5.654 C 11.261 5.768 11.176 6.015 11.265 6.229 C 11.364 6.408 11.741 6.507 11.82 7.122 L 11.843 7.139 C 11.835 7.139 11.827 7.139 11.82 7.142 C 11.701 7.142 11.642 7.062 11.562 7.003 C 11.201 6.755 10.744 6.696 10.332 6.844 C 10.158 6.885 10.026 7.025 9.995 7.201 C 9.997 7.389 10.116 7.555 10.293 7.618 C 10.49 7.692 10.682 7.778 10.868 7.876 C 10.968 7.916 11.126 7.936 11.106 8.114 L 11.106 8.12 C 11.09 8.1 11.069 8.084 11.046 8.074 C 10.557 8.136 10.061 8.031 9.638 7.777 C 9.442 7.639 9.18 7.639 8.984 7.777 C 8.726 7.995 9.103 8.253 9.123 8.253 C 9.163 8.278 9.207 8.296 9.253 8.307 L 9.254 8.307 Z M 13.919 7.416 C 13.894 7.421 13.869 7.427 13.845 7.435 C 13.857 7.429 13.87 7.424 13.883 7.42 C 13.895 7.418 13.907 7.417 13.919 7.416 Z M 23.88 9.443 C 23.126 9.165 21.46 9.581 21.38 9.7 C 21.698 9.76 21.797 9.8 22.273 9.879 C 22.783 9.972 23.273 10.153 23.721 10.415 C 24.197 10.692 24.395 10.315 24.395 10.315 C 24.475 10.137 24.257 9.581 23.88 9.443 Z M 10.333 6.15 C 10.211 5.958 10.079 5.772 9.936 5.595 C 9.559 5.198 8.826 5 8.428 5.198 C 8.21 5.298 8.111 5.436 8.29 5.674 C 8.507 5.889 8.783 6.034 9.083 6.091 C 9.261 6.131 10.055 6.309 10.253 6.348 C 10.453 6.348 10.333 6.15 10.333 6.15 Z M 24.257 7.42 C 24.297 7.3 24.257 6.904 23.542 7.003 C 22.947 7.103 22.531 7.261 22.551 7.34 C 22.571 7.42 23.225 7.539 23.364 7.558 C 23.919 7.658 24.237 7.498 24.257 7.42 Z M 17.037 4.107 C 16.893 3.974 16.674 3.966 16.521 4.087 C 15.926 4.464 16.362 5.753 16.421 5.753 C 16.481 5.753 16.541 5.297 17.136 4.623 C 17.255 4.454 17.21 4.22 17.036 4.107 L 17.037 4.107 Z"/>
</svg>
