<?xml version="1.0" encoding="utf-8"?>
<svg fill="#d1d1d1" width="32" height="32" viewBox="0 0 32 32" xmlns="http://www.w3.org/2000/svg">
  <path d="M 25.969 13.122 L 23.269 13.122 L 21.634 16.162 C 21.593 16.236 21.529 16.294 21.452 16.327 L 21.427 16.337 C 21.39 16.351 21.352 16.359 21.313 16.361 L 21.297 16.363 L 11.372 16.363 L 12.727 18.721 L 19.537 18.711 L 19.601 18.718 C 19.864 18.764 20.002 19.056 19.871 19.288 L 19.871 19.287 L 15.875 26.499 L 17.182 26.499 L 17.419 26.5 L 18.447 26.5 C 18.473 26.5 18.552 26.5 18.613 26.39 L 25.969 13.122 Z M 18.884 19.485 L 16.244 19.488 L 13.899 23.734 C 13.857 23.811 13.866 23.89 13.886 23.922 L 14.544 25.012 L 14.718 25.3 L 14.888 25.582 L 15.211 26.116 L 18.884 19.485 Z M 8.734 19.65 L 6 19.65 L 6.909 21.155 L 7.336 21.862 C 7.372 21.922 7.451 21.968 7.516 21.968 L 10.032 21.968 L 8.734 19.65 Z M 10.718 16.766 L 9.395 19.259 L 10.708 21.603 L 12.045 19.075 L 10.718 16.765 L 10.718 16.766 Z M 16.133 5.5 L 13.53 5.5 C 13.495 5.504 13.434 5.522 13.386 5.61 L 13.359 5.659 C 12.912 6.463 7.169 16.822 6.031 18.879 L 8.726 18.879 L 10.362 15.796 C 10.428 15.673 10.555 15.596 10.694 15.594 C 10.698 15.593 10.703 15.592 10.707 15.592 L 20.587 15.592 C 20.408 15.281 20.231 14.969 20.054 14.657 C 19.775 14.166 19.447 13.587 19.271 13.281 L 12.633 13.291 L 12.459 13.291 C 12.43 13.291 12.4 13.287 12.372 13.279 L 12.349 13.272 C 12.328 13.266 12.307 13.257 12.287 13.247 L 12.273 13.241 L 12.261 13.231 C 12.25 13.225 12.239 13.217 12.228 13.209 C 12.208 13.194 12.191 13.178 12.175 13.159 L 12.162 13.144 L 12.151 13.129 C 12.144 13.119 12.137 13.109 12.131 13.099 C 12.118 13.078 12.107 13.055 12.101 13.031 L 12.095 13.013 L 12.09 12.995 C 12.087 12.983 12.085 12.971 12.084 12.959 C 12.082 12.945 12.08 12.931 12.08 12.917 L 12.078 12.903 L 12.08 12.884 C 12.08 12.87 12.081 12.855 12.084 12.841 L 12.092 12.806 C 12.099 12.781 12.108 12.756 12.119 12.732 L 12.127 12.712 L 16.133 5.5 Z M 21.29 10.395 C 20.974 10.974 20.22 12.365 19.933 12.889 C 20.084 13.152 20.353 13.624 20.72 14.271 C 20.906 14.599 21.104 14.949 21.264 15.228 L 22.604 12.74 L 21.29 10.395 Z M 16.793 5.893 L 13.116 12.513 L 15.756 12.51 L 18.099 8.266 C 18.141 8.189 18.132 8.11 18.112 8.078 L 17.458 6.994 L 17.284 6.706 L 17.034 6.29 L 16.794 5.893 L 16.793 5.893 Z M 21.967 10.032 L 23.265 12.35 L 26 12.35 L 25.154 10.95 L 24.664 10.139 C 24.624 10.076 24.556 10.037 24.482 10.033 L 21.967 10.032 Z"/>
</svg>
