<?xml version="1.0" encoding="utf-8"?>
<svg fill="#d1d1d1" width="32" height="32" viewBox="0 0 32 32" xmlns="http://www.w3.org/2000/svg">
  <path d="M 7.973 16.453 C 7.455 16.865 6.993 17.597 7.016 18.716 C 7.033 19.49 7.449 20.02 7.973 20.38 L 7.973 21.763 C 7.973 22.626 8.393 23.435 9.101 23.93 L 13.954 27.249 L 13.954 10.29 L 7.973 12.04 L 7.973 16.453 Z M 14.373 22.949 L 14.373 27.255 L 17.636 27.255 L 17.636 22.95 L 14.373 22.95 L 14.373 22.949 Z M 13.633 9.969 L 13.923 10.259 L 8.843 5.159 C 8.565 4.882 8.091 5.01 7.99 5.389 C 7.979 5.432 7.973 5.476 7.973 5.52 L 7.973 11.59 L 13.633 9.97 L 13.633 9.969 Z M 14.373 16.04 L 14.373 22.534 L 17.636 22.534 L 17.636 16.04 L 14.374 16.04 L 14.373 16.04 Z M 18.366 9.97 L 24.027 11.59 L 24.027 5.52 C 24.026 5.127 23.6 4.883 23.261 5.08 C 23.223 5.102 23.188 5.129 23.157 5.16 L 18.157 10.18 L 18.367 9.97 L 18.366 9.97 Z M 14.374 10.291 L 14.374 15.621 L 17.636 15.621 L 17.636 10.291 L 14.374 10.291 Z M 24.027 16.453 L 24.027 12.04 L 18.056 10.294 L 18.056 27.255 L 22.899 23.93 C 23.606 23.435 24.027 22.626 24.027 21.763 L 24.027 20.38 C 24.551 20.02 24.967 19.49 24.984 18.716 C 25.008 17.597 24.545 16.865 24.027 16.453 Z M 9.276 16.045 C 10.283 16.782 10.283 21.161 10.283 21.161 C 10.283 21.161 9.144 21.051 8.203 20.525 C 8.979 20.786 9.602 20.728 9.873 20.758 L 9.891 20.759 L 9.895 20.759 L 9.909 20.761 L 9.947 20.764 L 9.96 20.766 L 9.973 20.766 C 9.973 20.766 10.133 16.944 8.976 16.274 C 8.788 16.209 8.456 16.247 8.09 16.364 C 8.556 16.05 9.043 15.944 9.276 16.045 Z M 22.066 20.827 L 22.08 20.827 L 22.092 20.826 L 22.109 20.824 L 22.113 20.824 L 22.148 20.821 L 22.15 20.821 L 22.166 20.819 L 22.315 20.802 L 22.322 20.802 C 22.648 20.76 23.048 20.764 23.662 20.572 L 23.798 20.527 C 22.856 21.053 21.718 21.163 21.718 21.163 C 21.718 21.163 21.718 16.785 22.725 16.048 C 22.958 15.946 23.445 16.052 23.91 16.368 C 23.544 16.251 23.213 16.213 23.024 16.278 C 21.867 16.947 22.066 20.828 22.066 20.828 L 22.066 20.827 Z"/>
</svg>
