<?xml version="1.0" encoding="utf-8"?>
<svg fill="#d1d1d1" width="32" height="32" viewBox="0 0 32 32" xmlns="http://www.w3.org/2000/svg">
  <path d="M 7 21.23 C 6.882 21.494 6.782 21.73 6.673 21.985 C 6.491 22.404 6.3 22.822 6.118 23.241 C 6.091 23.295 6.109 23.313 6.155 23.322 C 6.236 23.341 6.318 23.35 6.4 23.359 C 6.628 23.368 6.864 23.377 7.1 23.377 C 7.255 23.387 7.419 23.387 7.583 23.377 C 7.864 23.35 8.146 23.322 8.428 23.277 C 9.248 23.162 10.045 22.923 10.793 22.567 C 11.195 22.382 11.578 22.16 11.939 21.904 C 12.239 21.676 12.539 21.449 12.821 21.204 C 13.003 21.04 13.176 20.867 13.331 20.676 C 13.549 20.43 13.749 20.166 13.94 19.903 C 14.186 19.557 14.386 19.184 14.55 18.793 C 14.75 18.329 14.895 17.847 14.986 17.356 L 16.823 17.356 C 16.905 17.356 16.95 17.374 16.95 17.466 C 16.96 17.511 16.969 17.566 16.987 17.611 C 17.087 18.084 17.232 18.548 17.442 18.984 C 17.793 19.725 18.267 20.401 18.842 20.985 C 18.97 21.121 19.115 21.258 19.261 21.376 C 19.488 21.558 19.715 21.74 19.951 21.913 C 20.407 22.231 20.879 22.495 21.389 22.713 C 21.813 22.894 22.251 23.04 22.699 23.15 C 23.071 23.231 23.453 23.295 23.826 23.35 C 24.099 23.386 24.381 23.413 24.663 23.413 C 24.973 23.413 25.291 23.395 25.6 23.377 C 25.727 23.367 25.845 23.341 25.973 23.313 C 25.836 23.004 25.709 22.713 25.582 22.422 C 25.42 22.06 25.263 21.696 25.109 21.331 C 25.099 21.312 25.081 21.303 25.063 21.294 C 24.973 21.285 24.881 21.285 24.79 21.276 L 24.072 21.221 C 23.684 21.186 23.303 21.104 22.935 20.976 C 22.553 20.85 22.184 20.685 21.835 20.485 C 21.299 20.187 20.819 19.8 20.415 19.339 C 20.26 19.159 20.114 18.971 19.979 18.775 C 19.752 18.44 19.571 18.076 19.442 17.693 C 19.406 17.583 19.379 17.474 19.342 17.347 L 20.67 17.347 C 20.816 17.347 20.852 17.32 20.907 17.192 C 21.089 16.756 21.28 16.328 21.462 15.901 L 21.725 15.301 C 21.716 15.291 21.707 15.291 21.698 15.282 C 21.428 15.192 21.146 15.146 20.861 15.146 C 20.388 15.136 19.906 15.146 19.433 15.146 L 19.333 15.146 C 19.343 15.119 19.343 15.082 19.352 15.055 C 19.461 14.682 19.606 14.327 19.788 13.991 C 20.015 13.581 20.298 13.209 20.625 12.881 C 20.752 12.745 20.907 12.627 21.043 12.508 C 21.38 12.226 21.743 11.99 22.135 11.799 C 22.972 11.395 23.888 11.18 24.818 11.171 C 24.872 11.181 24.918 11.181 24.972 11.171 C 25.036 11.153 25.127 11.19 25.163 11.099 C 25.218 10.953 25.281 10.817 25.345 10.68 C 25.518 10.29 25.682 9.907 25.845 9.525 L 26 9.161 C 25.982 9.143 25.982 9.134 25.973 9.134 C 25.763 9.098 25.554 9.052 25.345 9.044 C 25.136 9.034 24.927 9.044 24.709 9.044 C 24.563 9.044 24.427 9.052 24.281 9.061 C 24.054 9.08 23.826 9.098 23.608 9.134 C 23.342 9.169 23.078 9.217 22.817 9.28 C 22.471 9.37 22.126 9.48 21.78 9.598 C 21.28 9.78 20.807 10.008 20.352 10.289 C 19.912 10.559 19.497 10.87 19.115 11.217 C 18.931 11.385 18.758 11.564 18.597 11.754 C 18.381 12.001 18.177 12.259 17.987 12.527 C 17.778 12.817 17.597 13.136 17.451 13.463 C 17.269 13.854 17.123 14.263 17.014 14.691 C 16.988 14.838 16.958 14.983 16.924 15.128 L 15.077 15.128 C 15.044 15.127 15.014 15.105 15.004 15.073 C 14.959 14.873 14.922 14.663 14.868 14.463 C 14.707 13.853 14.455 13.271 14.122 12.736 C 13.786 12.198 13.386 11.703 12.93 11.262 C 12.84 11.181 12.749 11.099 12.658 11.026 C 12.458 10.862 12.248 10.698 12.039 10.544 C 11.565 10.208 11.056 9.924 10.52 9.698 C 10.136 9.534 9.741 9.397 9.338 9.288 C 8.708 9.123 8.061 9.028 7.41 9.007 C 7.003 8.988 6.595 9.007 6.191 9.061 L 6 9.116 C 6.091 9.326 6.182 9.516 6.264 9.716 C 6.373 9.953 6.473 10.198 6.582 10.444 C 6.673 10.653 6.764 10.854 6.855 11.062 C 6.863 11.089 6.883 11.109 6.91 11.117 C 6.973 11.126 7.037 11.135 7.1 11.135 C 7.364 11.153 7.619 11.162 7.883 11.19 C 8.219 11.235 8.547 11.308 8.865 11.408 C 9.247 11.535 9.62 11.699 9.975 11.899 C 10.32 12.09 10.629 12.317 10.911 12.581 C 11.139 12.799 11.348 13.027 11.539 13.272 C 11.93 13.772 12.212 14.346 12.376 14.964 C 12.394 15.028 12.394 15.082 12.412 15.155 L 12.294 15.155 C 11.848 15.155 11.412 15.146 10.966 15.155 C 10.912 15.154 10.86 15.173 10.82 15.21 C 10.784 15.263 10.757 15.321 10.739 15.382 L 10.184 16.665 C 10.112 16.845 10.036 17.024 9.956 17.201 C 9.966 17.211 9.975 17.22 9.993 17.229 C 10.02 17.229 10.047 17.238 10.075 17.247 C 10.365 17.311 10.657 17.347 10.957 17.347 L 12.385 17.347 C 12.375 17.374 12.375 17.411 12.367 17.437 C 12.261 17.83 12.109 18.209 11.912 18.566 C 11.684 18.966 11.402 19.339 11.075 19.666 C 10.921 19.81 10.76 19.947 10.593 20.076 C 10.02 20.521 9.365 20.849 8.665 21.04 C 8.311 21.135 7.949 21.198 7.583 21.23 C 7.392 21.24 7.191 21.23 7 21.23 Z"/>
</svg>
