<?xml version="1.0" encoding="utf-8"?>
<svg fill="#d1d1d1" viewBox="0 0 32 32" xmlns="http://www.w3.org/2000/svg">
  <g fill-rule="evenodd">
    <path d="M 16.572 15.272 C 16.419 16.022 17.185 15.822 17.185 15.822 C 20.245 15.122 21.062 12.172 21.062 12.172 C 21.886 9.519 20.629 7.842 20.004 7.208 C 19.769 6.969 19.476 6.794 19.153 6.701 C 18.018 6.378 16.521 6.671 16.521 6.671 L 12.287 7.321 L 11.685 7.4 C 11.576 7.414 11.47 7.442 11.368 7.482 L 10.756 7.722 C 13.817 7.572 15.296 9.472 15.296 9.472 C 17.899 12.322 16.572 15.272 16.572 15.272 Z M 16.383 16.916 C 15.803 16.405 15.588 17.15 15.589 17.152 C 14.643 20.089 16.816 22.282 16.816 22.282 C 18.726 24.328 20.839 24.123 21.714 23.919 C 22.042 23.844 22.344 23.686 22.59 23.461 C 23.453 22.669 23.958 21.258 23.958 21.258 L 25.546 17.358 L 25.784 16.811 C 25.827 16.711 25.857 16.608 25.874 16.501 L 25.976 15.863 C 24.547 18.521 22.125 18.8 22.125 18.8 C 18.295 19.538 16.383 16.916 16.383 16.916 Z M 14.998 15.969 C 15.738 15.726 15.18 15.175 15.178 15.175 C 13.033 12.923 10.016 13.699 10.016 13.699 C 7.259 14.322 6.402 16.225 6.153 17.072 C 6.059 17.39 6.051 17.728 6.131 18.05 C 6.408 19.173 7.415 20.3 7.415 20.3 L 10.101 23.573 L 10.47 24.045 C 10.537 24.131 10.614 24.208 10.7 24.274 L 11.217 24.674 C 9.559 22.147 10.503 19.944 10.503 19.944 C 11.728 16.312 14.998 15.969 14.998 15.969 Z M 17.106 16.159 C 16.373 16.421 16.946 16.957 16.943 16.957 C 19.145 19.153 22.141 18.303 22.141 18.303 C 24.881 17.613 25.689 15.688 25.916 14.835 C 26.003 14.515 26.003 14.179 25.916 13.859 C 25.608 12.741 24.574 11.641 24.574 11.641 L 21.804 8.435 L 21.423 7.973 C 21.354 7.889 21.274 7.814 21.187 7.75 L 20.659 7.363 C 22.383 9.847 21.497 12.074 21.497 12.074 C 20.367 15.734 17.107 16.159 17.107 16.159 L 17.106 16.159 Z M 15.468 16.762 C 15.643 16.016 14.87 16.2 14.87 16.197 C 11.792 16.821 10.9 19.751 10.9 19.751 C 10.01 22.382 11.223 24.088 11.833 24.738 C 12.061 24.982 12.349 25.164 12.67 25.265 C 13.797 25.616 15.3 25.36 15.3 25.36 L 19.55 24.814 L 20.153 24.75 C 20.262 24.739 20.37 24.714 20.473 24.677 L 21.09 24.452 C 18.024 24.527 16.595 22.592 16.595 22.592 C 14.067 19.679 15.468 16.762 15.468 16.762 Z M 15.577 15.226 C 16.164 15.729 16.367 14.979 16.367 14.981 C 17.271 12.031 15.067 9.869 15.067 9.869 C 13.128 7.85 11.018 8.083 10.146 8.3 C 9.82 8.379 9.519 8.541 9.274 8.77 C 8.424 9.573 7.939 10.991 7.939 10.991 L 6.407 14.915 L 6.177 15.465 C 6.137 15.565 6.107 15.669 6.092 15.775 L 6 16.415 C 7.39 13.738 9.808 13.426 9.808 13.426 C 13.625 12.63 15.577 15.226 15.577 15.226 Z"/>
    <path d="M17.106 16.159s3.26-.424 4.39-4.085c0 0 .887-2.227-.837-4.711l.528.387c.087.065.167.14.236.223l.381.462 2.77 3.206s1.034 1.1 1.342 2.218c.087.32.087.656 0 .976-.227.853-1.034 2.778-3.775 3.468 0 0-2.996.85-5.198-1.346.002 0-.57-.536.163-.798zm-1.638.604s-1.401 2.916 1.127 5.829c0 0 1.429 1.935 4.495 1.86l-.618.225a1.35 1.35 0 01-.319.073l-.603.064-4.25.546s-1.503.257-2.63-.095a1.952 1.952 0 01-.837-.527c-.61-.65-1.823-2.356-.932-4.987 0 0 .89-2.93 3.969-3.554 0 .003.773-.18.598.566zm.109-1.537s-1.952-2.596-5.769-1.8c0 0-2.418.312-3.808 2.99l.092-.641a1.3 1.3 0 01.086-.31l.23-.55 1.53-3.924s.485-1.418 1.336-2.222a1.95 1.95 0 01.872-.469c.872-.217 2.982-.45 4.92 1.569 0 0 2.205 2.161 1.302 5.112 0-.002-.204.748-.791.245z" fill-rule="nonzero" opacity=".5"/>
  </g>
</svg>
