<?xml version="1.0" encoding="utf-8"?>
<svg fill="#d1d1d1" width="32" height="32" viewBox="0 0 32 32" xmlns="http://www.w3.org/2000/svg">
  <path d="M 18.347 10.533 C 18.347 7.013 16.64 4.027 15.36 3.067 C 15.36 3.067 15.253 2.96 15.253 3.173 C 15.147 9.893 11.733 11.707 9.92 14.267 C 5.547 19.92 9.6 26.213 13.76 27.387 C 16.107 28.027 13.227 26.213 12.907 22.48 C 12.373 17.787 18.347 14.373 18.347 10.533 Z M 20.587 12.88 C 20.373 13.733 19.52 15.547 18.347 17.253 C 14.4 22.907 16.64 25.68 17.92 27.173 C 18.667 28.027 17.92 27.173 19.733 26.32 C 19.84 26.213 23.36 24.4 23.68 20.24 C 24.107 16.187 21.547 13.627 20.587 12.88 Z"/>
</svg>
