<?xml version="1.0" encoding="utf-8"?>
<svg fill="#d1d1d1" height="32" viewBox="0 0 32 32" width="32" xmlns="http://www.w3.org/2000/svg">
  <path d="M 16.02 16.945 L 15.491 18.585 L 14.703 18.585 L 16.02 14.478 L 16.02 7.945 L 23.364 7.945 L 21.967 23.335 L 16.02 24.937 L 16.02 16.945 Z M 8.636 24.469 L 15.98 26.5 L 23.364 24.469 L 25 6.5 L 7 6.5 L 8.636 24.469 Z M 13.799 17.676 L 10.273 16.244 L 10.273 15.652 L 13.799 14.219 L 13.799 14.961 L 11.33 15.951 L 13.8 16.935 L 13.799 17.676 Z M 21.732 16.244 L 21.732 15.652 L 18.205 14.219 L 18.205 14.961 L 20.675 15.948 L 18.205 16.935 L 18.205 17.676 L 21.732 16.244 Z M 16.02 16.944 L 17.12 13.531 L 16.324 13.531 L 16.02 14.478 L 16.02 16.944 Z" fill-rule="evenodd"/>
</svg>
