<?xml version="1.0" encoding="utf-8"?>
<svg fill="#d1d1d1" width="32" height="32" viewBox="0 0 32 32" xmlns="http://www.w3.org/2000/svg">
  <path d="M 9.356 19.803 L 9.356 25.547 L 12.776 25.547 L 12.776 23.222 L 12.77 23.034 C 12.67 21.222 11.171 19.803 9.356 19.803 Z M 12.658 6.693 L 9.238 6.693 L 9.238 14.293 L 9.243 14.481 C 9.343 16.294 10.842 17.713 12.658 17.713 L 17.574 17.713 L 17.744 17.721 C 18.618 17.808 19.284 18.544 19.284 19.423 L 19.284 25.313 L 22.703 25.313 L 22.703 17.713 L 22.697 17.513 C 22.592 15.706 21.095 14.294 19.285 14.293 L 14.367 14.293 L 14.22 14.287 C 13.337 14.21 12.658 13.471 12.658 12.584 L 12.658 6.694 L 12.658 6.693 Z M 22.586 6.929 L 19.166 6.929 L 19.166 9.254 L 19.171 9.441 C 19.271 11.254 20.77 12.673 22.586 12.673 L 22.586 6.93 L 22.586 6.929 Z"/>
</svg>
