<?xml version="1.0" encoding="utf-8"?>
<svg fill="#d1d1d1" viewBox="0 0 32 32" xmlns="http://www.w3.org/2000/svg">
  <path d="M 15.007 18.657 L 15.007 19.974 C 15.007 20.03 15.007 20.087 15.015 20.142 C 15.085 20.588 15.468 20.9 15.903 20.868 C 16.344 20.828 16.679 20.456 16.674 20.013 C 16.676 19.529 16.675 19.043 16.674 18.559 C 16.672 18.522 16.658 18.487 16.635 18.459 C 16.538 18.339 16.437 18.222 16.337 18.105 C 16.052 17.769 15.768 17.433 15.482 17.099 C 15.386 16.987 15.27 16.953 15.161 17.001 C 15.041 17.053 15.005 17.151 15.006 17.279 C 15.009 17.739 15.006 18.198 15.006 18.657 L 15.007 18.657 Z M 15.01 9.647 C 15.21 9.338 15.48 9.18 15.842 9.179 C 16.208 9.179 16.476 9.344 16.67 9.676 L 16.675 9.628 C 16.673 8.697 16.678 7.765 16.669 6.834 C 16.671 6.313 16.198 5.919 15.686 6.014 C 15.296 6.082 15.008 6.435 15.008 6.856 C 15.006 7.766 15.007 8.678 15.007 9.588 L 15.01 9.648 L 15.01 9.647 Z M 15.007 22.26 L 15.007 22.488 C 15.007 23.381 15.004 24.274 15.009 25.167 C 15.011 25.606 15.352 25.97 15.791 25.999 C 16.236 26.019 16.621 25.694 16.661 25.247 C 16.681 25.022 16.674 24.793 16.674 24.567 C 16.676 23.819 16.674 23.071 16.674 22.324 L 16.674 22.252 C 16.477 22.56 16.212 22.726 15.848 22.727 C 15.483 22.728 15.211 22.57 15.007 22.26 Z M 16.675 13.434 L 16.674 11.796 C 16.674 11.726 16.668 11.653 16.653 11.584 C 16.561 11.17 16.169 10.876 15.774 10.92 C 15.338 10.959 15.005 11.325 15.008 11.762 C 15.005 12.476 15.006 13.191 15.008 13.905 C 15.01 13.942 15.024 13.977 15.048 14.005 C 15.17 14.154 15.296 14.299 15.421 14.445 C 15.663 14.727 15.903 15.011 16.146 15.293 C 16.232 15.401 16.378 15.44 16.506 15.387 C 16.625 15.339 16.675 15.253 16.675 15.095 L 16.675 13.435 L 16.675 13.434 Z M 18.406 10.057 L 18.406 12.224 C 18.406 12.275 18.408 12.326 18.412 12.377 C 18.452 12.897 18.956 13.259 19.449 13.126 C 19.828 13.023 20.076 12.689 20.076 12.276 L 20.076 9.48 C 20.076 8.927 20.079 8.373 20.076 7.819 C 20.073 7.231 19.534 6.823 18.993 6.994 C 18.637 7.106 18.408 7.434 18.407 7.836 L 18.407 10.056 L 18.406 10.057 Z M 13.362 20.76 C 13.362 19.898 13.364 19.035 13.361 18.173 C 13.363 17.628 12.851 17.228 12.323 17.361 C 11.948 17.461 11.689 17.804 11.695 18.193 L 11.695 22.946 C 11.695 23.089 11.692 23.232 11.695 23.375 C 11.71 23.874 12.188 24.265 12.669 24.172 C 13.076 24.097 13.369 23.739 13.361 23.325 C 13.363 22.47 13.361 21.615 13.361 20.76 L 13.362 20.76 Z M 13.362 11.314 L 13.362 10.494 C 13.362 9.596 13.364 8.698 13.361 7.799 C 13.364 7.264 12.87 6.864 12.347 6.979 C 11.958 7.071 11.686 7.422 11.695 7.821 L 11.695 13.326 C 11.695 13.832 11.691 14.337 11.695 14.842 C 11.7 15.372 12.2 15.77 12.706 15.652 C 13.096 15.563 13.369 15.212 13.361 14.812 L 13.361 11.314 L 13.362 11.314 Z M 18.406 19.5 L 18.406 23.251 C 18.406 23.305 18.408 23.358 18.412 23.411 C 18.454 23.933 18.966 24.295 19.46 24.153 C 19.837 24.045 20.076 23.713 20.076 23.295 L 20.076 15.647 C 20.056 15.033 19.448 14.633 18.906 14.884 C 18.568 15.041 18.406 15.324 18.406 15.702 L 18.406 19.5 Z M 23.5 15.634 L 23.5 9.677 C 23.499 9.063 22.902 8.65 22.352 8.879 C 22.026 9.015 21.832 9.322 21.832 9.707 L 21.832 21.55 L 21.833 21.626 C 21.847 22.139 22.337 22.532 22.829 22.425 C 23.228 22.339 23.509 21.981 23.499 21.573 L 23.499 15.633 L 23.5 15.634 Z M 10.167 15.625 L 10.167 11.613 C 10.167 10.957 10.171 10.301 10.166 9.646 C 10.163 9.102 9.648 8.706 9.121 8.844 C 8.745 8.948 8.501 9.28 8.501 9.689 L 8.5 21.571 L 8.5 21.624 C 8.514 22.149 9.014 22.543 9.515 22.424 C 9.908 22.33 10.167 21.994 10.167 21.573 L 10.167 15.624 L 10.167 15.625 Z" fill-rule="evenodd"/>
</svg>
