<?xml version="1.0" encoding="utf-8"?>
<svg fill="#d1d1d1" width="32" height="32" viewBox="0 0 32 32" xmlns="http://www.w3.org/2000/svg">
  <path d="M 9.83 10.5 L 9.824 10.5 L 9.576 10.506 C 6.95 10.623 4.768 12.379 4.166 14.704 C 4.056 15.127 4 15.562 4 15.999 C 4 19.033 6.615 21.5 9.83 21.5 C 11.17 21.5 12.633 20.833 14.178 19.518 C 14.832 18.954 15.447 18.346 16.018 17.698 L 16.018 17.697 L 16.148 17.837 C 17.743 19.54 19.833 21.36 21.934 21.492 L 22.176 21.5 L 22.424 21.494 C 25.054 21.377 27.237 19.617 27.837 17.287 L 27.84 17.277 C 27.945 16.867 28 16.44 28 16.001 C 28 12.967 25.385 10.5 22.17 10.5 C 20.83 10.5 19.367 11.167 17.822 12.482 C 17.168 13.046 16.553 13.654 15.982 14.302 L 16.008 14.332 L 15.852 14.164 C 14.257 12.461 12.167 10.64 10.072 10.508 L 9.829 10.5 L 9.83 10.5 Z M 22.17 12.693 C 24.098 12.693 25.666 14.177 25.666 16 C 25.666 17.814 24.097 19.296 22.168 19.308 C 22.12 19.308 22.065 19.305 21.999 19.296 C 20.784 18.854 19.762 18.089 19.491 17.846 C 19.243 17.623 18.914 17.306 18.558 16.952 L 18.247 16.642 L 17.561 15.949 C 18.124 15.291 18.734 14.675 19.388 14.107 C 20.762 12.938 21.66 12.693 22.171 12.693 L 22.17 12.693 Z M 9.832 12.693 C 9.89 12.693 9.96 12.697 10.042 12.707 C 11.238 13.157 12.242 13.914 12.509 14.155 C 12.863 14.472 13.382 14.984 13.912 15.518 L 14.23 15.841 C 14.3 15.911 14.369 15.983 14.439 16.051 C 13.876 16.709 13.266 17.325 12.612 17.893 C 11.238 19.062 10.34 19.307 9.829 19.307 C 7.902 19.307 6.334 17.823 6.334 16 C 6.334 14.186 7.903 12.704 9.832 12.692 L 9.832 12.693 Z"/>
</svg>
