<?xml version="1.0" encoding="utf-8"?>
<svg fill="#d1d1d1" viewBox="0 0 32 32" xmlns="http://www.w3.org/2000/svg">
  <path d="M 11.296 22.472 C 16.275 26.096 23.31 22.972 23.96 16.847 C 24.168 14.877 23.638 12.898 22.472 11.296 L 20.308 13.46 C 22.266 16.774 19.902 20.964 16.053 21.003 C 15.141 21.012 14.245 20.772 13.46 20.308 L 11.296 22.472 Z M 9.528 20.704 L 11.692 18.54 C 9.734 15.226 12.098 11.036 15.947 10.997 C 16.859 10.988 17.755 11.228 18.54 11.692 L 20.704 9.528 C 15.725 5.904 8.69 9.028 8.04 15.153 C 7.832 17.123 8.362 19.102 9.528 20.704 Z M 24 10 C 25.54 10 26.502 8.333 25.732 7 C 25.375 6.381 24.715 6 24 6 C 22.46 6 21.498 7.667 22.268 9 C 22.625 9.619 23.285 10 24 10 Z M 8 26 C 9.54 26 10.502 24.333 9.732 23 C 9.375 22.381 8.715 22 8 22 C 6.46 22 5.498 23.667 6.268 25 C 6.625 25.619 7.285 26 8 26 Z" fill-rule="evenodd"/>
</svg>
