<?xml version="1.0" encoding="utf-8"?>
<svg fill="#d1d1d1" viewBox="0 0 32 32" xmlns="http://www.w3.org/2000/svg">
  <path d="M 14.812 6 C 13.808 8.89 12.612 11.715 11.565 14.59 C 12.292 15.888 12.982 17.205 13.718 18.496 L 19.263 8.825 C 17.758 7.915 16.33 6.888 14.812 6 Z M 10 26 C 11.595 25.966 13.188 25.986 14.783 25.986 C 17.17 21.745 19.594 17.523 22 13.29 C 21.166 11.835 20.334 10.378 19.504 8.92 C 16.4 14.645 13.139 20.291 10 26 Z M 15.082 25.977 C 17.202 24.728 19.321 23.477 21.427 22.202 C 20.63 21.17 19.815 20.149 19.012 19.122 C 17.665 21.386 16.412 23.702 15.082 25.977 Z" fill-rule="evenodd"/>
</svg>
