<?xml version="1.0" encoding="utf-8"?>
<svg fill="#d1d1d1" width="32" height="32" viewBox="0 0 32 32" xmlns="http://www.w3.org/2000/svg">
  <path d="M 15.79 4 C 9.279 4 4 9.279 4 15.79 C 4 22.301 9.279 27.58 15.79 27.58 C 22.301 27.58 27.58 22.301 27.58 15.79 C 27.569 9.283 22.297 4.011 15.79 4 Z M 15.79 26 C 10.158 26 5.592 21.435 5.59 15.803 C 5.588 10.171 10.151 5.603 15.783 5.6 C 21.415 5.596 25.984 10.158 25.99 15.79 C 25.984 21.421 21.421 25.984 15.79 25.99 L 15.79 26 Z M 10.58 14.74 L 10.58 11.04 L 13.18 11.04 L 13.18 14.74 L 15.06 14.74 L 15.06 10.58 C 15.188 9.896 14.596 9.294 13.91 9.41 L 9.79 9.41 C 9.05 9.41 8.68 9.8 8.68 10.58 L 8.68 14.74 L 10.58 14.74 Z M 13.18 15.96 L 13.19 15.94 L 8.69 15.94 L 8.69 20.94 C 8.564 21.604 9.119 22.2 9.79 22.12 L 13.93 22.12 C 14.611 22.234 15.2 21.64 15.08 20.96 L 15.08 15.96 L 13.18 15.96 Z M 20.98 16.03 L 18.4 16.03 L 18.4 11.13 L 20.9 11.13 L 20.9 13.67 L 22.9 13.67 L 22.9 10.67 C 23.04 9.961 22.405 9.342 21.7 9.5 L 17.6 9.5 C 16.906 9.367 16.297 9.976 16.43 10.67 L 16.43 21.03 C 16.312 21.705 16.893 22.296 17.57 22.19 L 21.74 22.19 C 22.425 22.312 23.022 21.715 22.9 21.03 L 22.9 16.03 L 20.98 16.03 Z"/>
</svg>
