<?xml version="1.0" encoding="utf-8"?>
<svg fill="#d1d1d1" height="32" viewBox="0 0 32 32" width="32" xmlns="http://www.w3.org/2000/svg">
  <path d="M 14.86 11.527 C 14.542 11.613 14.415 11.948 14.267 12.218 C 13.017 14.604 11.747 16.978 10.497 19.342 C 10.335 19.612 10.374 19.957 10.593 20.184 C 10.836 20.454 11.217 20.357 11.535 20.379 C 11.863 20.379 12.287 20.432 12.488 20.098 C 12.901 19.364 13.261 18.587 13.674 17.842 C 13.917 17.388 14.648 17.464 14.817 17.939 C 15.103 18.662 15.337 19.418 15.633 20.141 C 15.833 20.616 16.564 20.616 16.787 20.163 C 18.121 17.669 19.465 15.186 20.799 12.693 C 21.075 12.272 20.715 11.657 20.228 11.689 C 19.762 11.732 19.148 11.516 18.808 11.959 C 18.396 12.671 18.058 13.416 17.634 14.118 C 17.38 14.506 16.734 14.452 16.544 14.031 C 16.225 13.33 15.95 12.607 15.644 11.905 C 15.516 11.603 15.167 11.43 14.86 11.527 Z M 10.497 11.711 C 10.254 11.721 10.074 11.927 9.968 12.131 C 8.676 14.561 7.385 16.989 6.093 19.407 C 5.818 19.807 6.199 20.4 6.654 20.379 C 7.024 20.379 7.406 20.411 7.776 20.357 C 8.094 20.271 8.21 19.925 8.359 19.667 C 9.597 17.334 10.847 15.003 12.086 12.661 C 12.286 12.283 12.022 11.754 11.609 11.711 C 11.239 11.689 10.867 11.689 10.497 11.711 Z M 23.637 11.732 C 23.383 11.819 23.277 12.099 23.161 12.315 C 22.959 12.736 22.705 13.135 22.525 13.567 C 22.325 14.107 23.012 14.657 23.478 14.334 C 24.219 13.88 24.939 13.384 25.67 12.92 C 26.03 12.736 26.115 12.186 25.829 11.894 C 25.596 11.614 25.193 11.678 24.876 11.667 C 24.463 11.7 24.039 11.613 23.637 11.732 Z M 20.132 18.187 C 19.921 18.284 19.825 18.533 19.73 18.737 C 19.603 19.007 19.444 19.256 19.338 19.537 C 19.19 19.925 19.508 20.4 19.91 20.4 C 20.715 20.41 21.53 20.4 22.345 20.4 C 22.726 20.432 23.055 20.055 23.012 19.666 C 23.002 19.375 22.748 19.17 22.504 19.062 C 21.932 18.792 21.371 18.489 20.81 18.209 C 20.609 18.101 20.344 18.058 20.132 18.187 Z" fill-rule="evenodd"/>
</svg>
