<?xml version="1.0" encoding="utf-8"?>
<svg fill="#d1d1d1" viewBox="0 0 32 32" xmlns="http://www.w3.org/2000/svg">
  <g fill-rule="evenodd">
    <path d="M 13.446 12.287 C 14.205 12.287 14.821 11.686 14.821 10.945 C 14.821 10.203 14.205 9.602 13.446 9.602 C 12.686 9.602 12.071 10.203 12.071 10.945 C 12.071 11.686 12.686 12.287 13.446 12.287 Z M 17.373 10.753 C 18.133 10.753 18.748 10.152 18.748 9.411 C 18.748 8.669 18.133 8.068 17.373 8.068 C 16.614 8.068 15.998 8.669 15.998 9.411 C 15.998 10.152 16.614 10.753 17.373 10.753 Z M 18.946 19.958 C 19.705 19.958 20.321 19.358 20.321 18.616 C 20.321 17.874 19.705 17.273 18.946 17.273 C 18.186 17.273 17.571 17.874 17.571 18.616 C 17.571 19.358 18.186 19.958 18.946 19.958 Z M 5.786 18.04 C 6.215 18.045 6.566 17.702 6.571 17.273 C 6.571 16.85 6.219 16.506 5.785 16.506 C 5.351 16.506 5 16.85 5 17.273 C 5 17.697 5.352 18.04 5.785 18.04 L 5.786 18.04 Z M 7.946 23.028 C 8.271 23.028 8.536 22.77 8.536 22.452 C 8.536 22.134 8.271 21.877 7.946 21.877 C 7.621 21.877 7.356 22.134 7.356 22.452 C 7.356 22.77 7.62 23.028 7.946 23.028 Z M 14.231 26.863 C 14.557 26.863 14.821 26.605 14.821 26.287 C 14.821 25.969 14.557 25.712 14.231 25.712 C 13.905 25.712 13.641 25.969 13.641 26.287 C 13.641 26.605 13.905 26.863 14.231 26.863 Z M 24.446 23.411 C 24.771 23.411 25.036 23.153 25.036 22.835 C 25.036 22.517 24.771 22.259 24.446 22.259 C 24.12 22.259 23.856 22.517 23.856 22.835 C 23.856 23.153 24.12 23.411 24.446 23.411 Z M 18.16 22.261 C 18.486 22.261 18.75 22.003 18.75 21.685 C 18.75 21.367 18.486 21.11 18.16 21.11 C 17.834 21.11 17.57 21.367 17.57 21.685 C 17.57 22.003 17.835 22.261 18.16 22.261 Z M 21.696 19.576 C 22.021 19.576 22.286 19.318 22.286 19 C 22.286 18.682 22.021 18.425 21.696 18.425 C 21.37 18.425 21.106 18.682 21.106 19 C 21.106 19.318 21.37 19.576 21.696 19.576 Z M 17.571 26.863 C 18.004 26.863 18.356 26.519 18.356 26.096 C 18.356 25.673 18.004 25.329 17.571 25.329 C 17.137 25.329 16.785 25.672 16.785 26.096 C 16.785 26.52 17.137 26.863 17.571 26.863 Z M 21.106 17.273 C 21.535 17.278 21.886 16.935 21.891 16.506 C 21.886 16.077 21.535 15.734 21.106 15.739 C 20.677 15.734 20.326 16.077 20.321 16.506 C 20.321 16.93 20.672 17.273 21.106 17.273 Z M 22.286 24.945 C 22.715 24.95 23.066 24.607 23.071 24.178 C 23.066 23.749 22.714 23.405 22.285 23.411 C 21.856 23.406 21.505 23.749 21.5 24.178 C 21.5 24.601 21.852 24.945 22.285 24.945 L 22.286 24.945 Z M 6.765 21.11 C 7.308 21.11 7.747 20.68 7.747 20.151 C 7.747 19.622 7.307 19.193 6.765 19.193 C 6.223 19.193 5.783 19.623 5.783 20.151 C 5.783 20.679 6.223 21.11 6.765 21.11 Z M 16.195 24.945 C 16.954 24.945 17.57 24.344 17.57 23.602 C 17.57 22.86 16.954 22.259 16.195 22.259 C 15.435 22.259 14.82 22.861 14.82 23.602 C 14.82 24.343 15.435 24.945 16.195 24.945 Z M 8.73 18.425 C 9.49 18.425 10.105 17.823 10.105 17.082 C 10.105 16.341 9.489 15.739 8.73 15.739 C 7.971 15.739 7.355 16.34 7.355 17.082 C 7.355 17.824 7.97 18.425 8.73 18.425 Z M 16.195 21.492 C 16.737 21.492 17.177 21.063 17.177 20.534 C 17.177 20.005 16.737 19.576 16.195 19.576 C 15.652 19.576 15.212 20.005 15.212 20.534 C 15.212 21.063 15.652 21.492 16.195 21.492 Z M 11.48 13.056 C 11.806 13.056 12.07 12.798 12.07 12.48 C 12.07 12.162 11.806 11.904 11.48 11.904 C 11.154 11.904 10.89 12.162 10.89 12.48 C 10.89 12.798 11.154 13.056 11.48 13.056 Z M 15.212 15.356 C 15.862 15.356 16.39 14.841 16.39 14.206 C 16.39 13.57 15.863 13.054 15.212 13.054 C 14.562 13.054 14.034 13.57 14.034 14.205 C 14.034 14.841 14.562 15.357 15.212 15.357 L 15.212 15.356 Z M 17.962 16.506 C 18.391 16.511 18.742 16.168 18.747 15.739 C 18.742 15.31 18.391 14.967 17.962 14.972 C 17.533 14.967 17.182 15.31 17.177 15.739 C 17.177 16.163 17.528 16.506 17.962 16.506 Z M 19.337 6.918 C 19.663 6.918 19.927 6.661 19.927 6.343 C 19.927 6.025 19.663 5.767 19.337 5.767 C 19.011 5.767 18.747 6.025 18.747 6.343 C 18.747 6.661 19.011 6.918 19.337 6.918 Z M 16.587 6.917 C 17.124 6.924 17.564 6.495 17.57 5.958 C 17.563 5.422 17.123 4.993 16.587 5 C 16.051 4.993 15.612 5.422 15.605 5.958 C 15.605 6.488 16.045 6.917 16.587 6.917 Z M 17.177 13.054 C 17.611 13.054 17.962 12.711 17.962 12.287 C 17.962 11.863 17.611 11.52 17.177 11.52 C 16.743 11.52 16.392 11.864 16.392 12.287 C 16.392 12.71 16.743 13.054 17.177 13.054 Z M 9.712 21.494 C 10.362 21.494 10.89 20.979 10.89 20.343 C 10.89 19.707 10.363 19.192 9.712 19.192 C 9.062 19.192 8.534 19.707 8.534 20.342 C 8.534 20.979 9.062 21.494 9.712 21.494 Z M 21.105 22.644 C 21.755 22.644 22.283 22.128 22.283 21.492 C 22.283 20.857 21.755 20.342 21.105 20.342 C 20.455 20.342 19.927 20.857 19.927 21.492 C 19.927 22.128 20.454 22.644 21.105 22.644 Z M 19.535 25.329 C 20.185 25.329 20.712 24.813 20.712 24.178 C 20.712 23.542 20.185 23.026 19.534 23.026 C 18.883 23.026 18.356 23.542 18.356 24.178 C 18.356 24.813 18.884 25.328 19.534 25.328 L 19.535 25.329 Z M 10.302 25.329 C 11.062 25.329 11.677 24.728 11.677 23.986 C 11.677 23.244 11.061 22.644 10.302 22.644 C 9.542 22.644 8.927 23.244 8.927 23.986 C 8.927 24.728 9.543 25.329 10.302 25.329 Z M 6.177 15.357 C 6.827 15.357 7.355 14.841 7.355 14.205 C 7.355 13.57 6.827 13.055 6.177 13.055 C 5.527 13.055 5 13.57 5 14.204 C 5 14.84 5.527 15.356 6.178 15.356 L 6.177 15.357 Z M 12.07 17.273 C 12.938 17.273 13.642 16.587 13.642 15.739 C 13.642 14.892 12.938 14.205 12.07 14.205 C 11.201 14.205 10.497 14.892 10.497 15.739 C 10.497 16.587 11.201 17.273 12.07 17.273 Z M 20.32 14.973 C 21.188 14.973 21.892 14.286 21.892 13.438 C 21.892 12.591 21.188 11.904 20.32 11.904 C 19.451 11.904 18.747 12.591 18.747 13.438 C 18.747 14.286 19.451 14.972 20.32 14.972 L 20.32 14.973 Z M 24.64 21.494 C 25.29 21.494 25.818 20.979 25.818 20.343 C 25.818 19.707 25.291 19.192 24.64 19.192 C 23.989 19.192 23.462 19.707 23.462 20.342 C 23.462 20.979 23.99 21.494 24.64 21.494 Z M 25.82 16.891 C 26.47 16.891 26.997 16.375 26.997 15.739 C 26.997 15.104 26.47 14.589 25.82 14.589 C 25.169 14.589 24.642 15.104 24.642 15.739 C 24.642 16.375 25.169 16.891 25.82 16.891 Z M 21.302 11.521 C 21.844 11.521 22.284 11.091 22.284 10.561 C 22.284 10.031 21.844 9.603 21.302 9.603 C 20.759 9.603 20.32 10.033 20.32 10.562 C 20.32 11.091 20.76 11.52 21.302 11.52 L 21.302 11.521 Z M 21.497 8.452 C 21.931 8.452 22.283 8.109 22.283 7.685 C 22.283 7.261 21.931 6.918 21.497 6.918 C 21.064 6.918 20.712 7.262 20.712 7.685 C 20.712 8.108 21.064 8.452 21.497 8.452 Z M 23.265 9.219 C 23.591 9.219 23.855 8.961 23.855 8.644 C 23.855 8.327 23.591 8.068 23.265 8.068 C 22.939 8.068 22.675 8.326 22.675 8.644 C 22.675 8.962 22.939 9.219 23.265 9.219 Z M 26.409 13.823 C 26.735 13.823 26.999 13.565 26.999 13.247 C 26.999 12.929 26.735 12.671 26.409 12.671 C 26.083 12.671 25.819 12.929 25.819 13.247 C 25.819 13.565 26.084 13.823 26.409 13.823 Z M 9.516 8.836 C 9.842 8.836 10.106 8.579 10.106 8.261 C 10.106 7.943 9.842 7.685 9.516 7.685 C 9.19 7.685 8.926 7.943 8.926 8.261 C 8.926 8.579 9.19 8.836 9.516 8.836 Z M 8.731 13.823 C 9.057 13.823 9.321 13.565 9.321 13.247 C 9.321 12.929 9.057 12.671 8.731 12.671 C 8.405 12.671 8.141 12.929 8.141 13.247 C 8.141 13.565 8.405 13.823 8.731 13.823 Z M 10.303 14.59 C 10.629 14.59 10.893 14.332 10.893 14.014 C 10.893 13.696 10.629 13.438 10.303 13.438 C 9.977 13.438 9.713 13.696 9.713 14.014 C 9.713 14.332 9.977 14.59 10.303 14.59 Z M 12.266 7.3 C 12.592 7.3 12.856 7.042 12.856 6.724 C 12.856 6.406 12.592 6.149 12.266 6.149 C 11.94 6.149 11.676 6.406 11.676 6.724 C 11.676 7.042 11.94 7.3 12.266 7.3 Z M 26.41 18.809 C 26.736 18.809 27 18.551 27 18.233 C 27 17.915 26.736 17.658 26.41 17.658 C 26.084 17.658 25.82 17.915 25.82 18.233 C 25.82 18.551 26.085 18.809 26.41 18.809 Z M 24.446 12.671 C 25.205 12.671 25.821 12.071 25.821 11.329 C 25.821 10.587 25.205 9.986 24.446 9.986 C 23.686 9.986 23.071 10.587 23.071 11.329 C 23.071 12.071 23.686 12.671 24.446 12.671 Z M 23.266 15.739 C 23.809 15.739 24.248 15.31 24.248 14.781 C 24.248 14.252 23.808 13.823 23.266 13.823 C 22.724 13.823 22.284 14.252 22.284 14.781 C 22.284 15.31 22.724 15.739 23.266 15.739 Z M 9.91 11.52 C 10.453 11.52 10.893 11.091 10.893 10.562 C 10.893 10.033 10.453 9.603 9.91 9.603 C 9.368 9.603 8.928 10.033 8.928 10.562 C 8.928 11.091 9.368 11.52 9.91 11.52 Z M 14.23 8.835 C 14.766 8.842 15.206 8.413 15.213 7.877 C 15.207 7.341 14.767 6.911 14.231 6.918 C 13.694 6.911 13.254 7.34 13.248 7.877 C 13.248 8.406 13.688 8.835 14.231 8.835 L 14.23 8.835 Z M 11.678 9.219 C 12.112 9.219 12.463 8.876 12.463 8.452 C 12.463 8.028 12.112 7.685 11.678 7.685 C 11.244 7.685 10.893 8.029 10.893 8.452 C 10.893 8.875 11.244 9.219 11.678 9.219 Z M 7.356 12.287 C 7.785 12.292 8.136 11.949 8.141 11.52 C 8.141 11.097 7.79 10.753 7.356 10.753 C 6.922 10.753 6.571 11.097 6.571 11.52 C 6.571 11.944 6.922 12.287 7.356 12.287 Z M 23.856 18.425 C 24.285 18.43 24.636 18.087 24.641 17.658 C 24.636 17.229 24.285 16.886 23.856 16.891 C 23.427 16.886 23.076 17.229 23.071 17.658 C 23.071 18.081 23.422 18.425 23.856 18.425 Z M 15.41 18.809 C 16.17 18.809 16.785 18.208 16.785 17.466 C 16.785 16.724 16.17 16.124 15.41 16.124 C 14.65 16.124 14.035 16.724 14.035 17.466 C 14.035 18.208 14.651 18.809 15.41 18.809 Z M 12.856 19.576 C 13.285 19.581 13.636 19.238 13.641 18.809 C 13.636 18.38 13.285 18.037 12.856 18.042 C 12.427 18.037 12.076 18.38 12.071 18.809 C 12.071 19.232 12.422 19.576 12.856 19.576 Z M 13.248 22.644 C 13.899 22.644 14.426 22.128 14.426 21.492 C 14.426 20.857 13.899 20.342 13.248 20.342 C 12.597 20.342 12.071 20.857 12.071 21.492 C 12.071 22.128 12.598 22.644 13.248 22.644 Z M 13.248 24.944 C 13.677 24.95 14.029 24.607 14.034 24.178 C 14.029 23.749 13.677 23.405 13.248 23.411 C 12.819 23.406 12.468 23.749 12.463 24.178 C 12.463 24.601 12.815 24.945 13.248 24.945 L 13.248 24.944 Z"/>
    <path d="M12.07 17.273c-.868 0-1.572-.686-1.572-1.534 0-.847.704-1.534 1.573-1.534.868 0 1.572.687 1.572 1.534 0 .848-.704 1.534-1.572 1.534zm8.25-2.3c-.868 0-1.572-.687-1.572-1.535 0-.847.704-1.534 1.573-1.534.868 0 1.572.687 1.572 1.534 0 .848-.704 1.534-1.572 1.534zm4.321 6.521c-.65 0-1.178-.515-1.178-1.151s.528-1.151 1.178-1.151 1.178.515 1.178 1.15c0 .637-.527 1.152-1.178 1.152zm1.18-4.603a1.165 1.165 0 01-1.178-1.152c0-.635.527-1.15 1.178-1.15.65 0 1.177.515 1.177 1.15 0 .636-.527 1.152-1.177 1.152zm-4.518-5.37c-.543 0-.982-.43-.982-.96s.44-.958.982-.958.982.43.982.959-.44.958-.982.958zm.195-3.069c-.433 0-.785-.343-.785-.767s.352-.767.785-.767c.434 0 .786.344.786.767s-.352.767-.786.767zm1.768.767c-.326 0-.59-.258-.59-.575s.264-.576.59-.576.59.258.59.576-.264.575-.59.575zm3.144 4.604c-.325 0-.59-.258-.59-.576s.265-.576.59-.576.59.258.59.576-.264.576-.59.576zM9.516 8.836c-.326 0-.59-.257-.59-.575s.264-.576.59-.576.59.258.59.576-.264.575-.59.575zm-.785 4.987c-.326 0-.59-.258-.59-.576s.264-.576.59-.576.59.258.59.576-.264.576-.59.576zm1.572.767c-.326 0-.59-.258-.59-.576s.264-.576.59-.576c.326 0 .59.258.59.576s-.264.576-.59.576zm1.963-7.29c-.326 0-.59-.258-.59-.576s.264-.575.59-.575.59.257.59.575-.264.576-.59.576zM26.41 18.809c-.325 0-.59-.258-.59-.576s.265-.575.59-.575.59.257.59.575-.264.576-.59.576zm-1.964-6.138c-.76 0-1.375-.6-1.375-1.342s.615-1.343 1.375-1.343c.759 0 1.375.601 1.375 1.343s-.616 1.342-1.375 1.342zm-1.18 3.068c-.542 0-.982-.429-.982-.958s.44-.958.982-.958c.543 0 .982.429.982.958s-.44.958-.982.958zM9.91 11.52c-.542 0-.982-.429-.982-.958s.44-.959.982-.959c.543 0 .983.43.983.959s-.44.958-.983.958zm4.32-2.685a.97.97 0 01-.982-.958c0-.53.44-.959.983-.959a.97.97 0 01.982.959.97.97 0 01-.982.958zm-2.552.384c-.434 0-.785-.343-.785-.767s.351-.767.785-.767c.434 0 .785.344.785.767s-.351.767-.785.767zm-4.322 3.068a.776.776 0 01-.785-.767c0-.423.351-.767.785-.767s.785.344.785.767a.776.776 0 01-.785.767zm16.5 6.138a.776.776 0 01-.785-.767c0-.424.351-.767.785-.767.434 0 .785.343.785.767a.776.776 0 01-.785.767zm-8.446.384c-.76 0-1.375-.601-1.375-1.343s.616-1.342 1.375-1.342c.76 0 1.375.6 1.375 1.342s-.615 1.343-1.375 1.343zm-2.554.767a.776.776 0 01-.785-.767c0-.424.351-.767.785-.767.434 0 .785.343.785.767a.776.776 0 01-.785.767zm.392 3.068c-.65 0-1.177-.516-1.177-1.152 0-.635.527-1.15 1.177-1.15s1.178.515 1.178 1.15c0 .636-.527 1.152-1.178 1.152zm0 2.3a.776.776 0 01-.785-.766c0-.424.352-.767.785-.767.434 0 .786.343.786.767a.776.776 0 01-.786.767z" opacity=".5"/>
  </g>
</svg>
