<?xml version="1.0" encoding="utf-8"?>
<svg fill="#d1d1d1" height="32" viewBox="0 0 32 32" width="32" xmlns="http://www.w3.org/2000/svg">
  <path d="M 7.026 19.009 C 8.378 22.802 11.988 25.517 16.228 25.517 C 16.955 25.517 17.68 25.437 18.389 25.276 C 18.794 26.315 19.795 27 20.91 27 C 22.407 26.996 23.618 25.779 23.615 24.282 C 23.615 23.684 23.423 23.132 23.097 22.682 C 24.959 20.836 26.004 18.321 26 15.699 C 26.004 13.22 25.07 10.831 23.384 9.013 C 23.599 8.616 23.711 8.171 23.71 7.719 C 23.714 6.221 22.503 5.004 21.005 5 C 20.099 5 19.253 5.454 18.753 6.21 C 17.929 5.99 17.08 5.879 16.228 5.88 C 11.551 5.88 7.642 9.181 6.682 13.591 C 5.193 13.607 3.996 14.821 4 16.31 C 3.996 17.935 5.412 19.198 7.026 19.01 L 7.026 19.009 Z M 7.516 18.904 C 8.646 18.545 9.413 17.495 9.411 16.309 C 9.411 14.971 8.448 13.859 7.181 13.633 C 8.116 9.479 11.811 6.378 16.228 6.378 C 17.016 6.378 17.781 6.476 18.511 6.662 C 18.371 6.996 18.299 7.355 18.299 7.718 C 18.295 9.216 19.507 10.434 21.005 10.437 C 21.85 10.437 22.605 10.047 23.1 9.437 C 24.652 11.153 25.509 13.385 25.505 15.698 C 25.509 18.178 24.525 20.557 22.769 22.308 C 22.268 21.829 21.602 21.563 20.909 21.563 C 19.203 21.565 17.923 23.123 18.251 24.797 C 17.587 24.945 16.908 25.019 16.228 25.019 C 12.226 25.019 8.816 22.472 7.515 18.904 L 7.516 18.904 Z M 16.228 18.42 C 17.728 18.417 18.941 17.198 18.937 15.698 C 18.937 14.195 17.724 12.977 16.228 12.977 C 14.732 12.977 13.52 14.195 13.52 15.698 C 13.516 17.197 14.729 18.416 16.228 18.42 Z" fill-rule="evenodd"/>
</svg>
