<?xml version="1.0" encoding="utf-8"?>
<svg fill="#d1d1d1" width="32" height="32" viewBox="0 0 32 32" xmlns="http://www.w3.org/2000/svg">
  <path d="M 8.413 11.919 C 8.38 11.899 8.353 11.915 8.353 11.954 L 8.353 14.256 C 8.355 14.299 8.377 14.338 8.413 14.361 L 11.323 16.043 C 11.359 16.066 11.381 16.105 11.383 16.148 L 11.383 24.478 C 11.386 24.521 11.409 24.56 11.445 24.583 L 13.438 25.733 C 13.471 25.753 13.498 25.737 13.498 25.698 L 13.498 14.928 C 13.496 14.885 13.474 14.846 13.438 14.822 L 8.413 11.919 Z M 23.587 11.919 L 18.563 14.822 C 18.527 14.845 18.505 14.884 18.502 14.927 L 18.502 25.698 C 18.502 25.738 18.529 25.753 18.562 25.733 L 20.556 24.583 C 20.592 24.559 20.614 24.52 20.616 24.477 L 20.616 16.147 C 20.618 16.104 20.641 16.065 20.677 16.042 L 23.587 14.361 C 23.623 14.338 23.645 14.299 23.647 14.256 L 23.647 11.954 C 23.647 11.915 23.62 11.9 23.587 11.919 Z M 23.981 7.503 C 23.981 7.465 23.953 7.449 23.921 7.468 L 16.061 12.014 C 16.023 12.034 15.977 12.034 15.939 12.014 L 8.08 7.468 C 8.047 7.448 8.02 7.465 8.02 7.503 L 8.02 9.805 C 8.022 9.848 8.044 9.887 8.08 9.91 L 14.884 13.844 C 14.919 13.868 14.942 13.906 14.944 13.949 L 14.944 28.234 C 14.946 28.277 14.969 28.317 15.005 28.34 L 15.94 28.88 C 15.978 28.899 16.024 28.899 16.062 28.88 L 16.997 28.34 C 17.033 28.316 17.055 28.277 17.057 28.234 L 17.057 13.95 C 17.06 13.907 17.082 13.868 17.118 13.845 L 23.92 9.91 C 23.956 9.886 23.978 9.847 23.98 9.804 L 23.98 7.504 L 23.981 7.503 Z M 16.036 13.319 C 16.028 13.319 16.025 13.313 16.029 13.306 C 16.033 13.299 16.039 13.299 16.043 13.306 C 16.047 13.313 16.043 13.319 16.036 13.319 Z M 15.012 7.202 C 14.972 7.211 14.944 7.245 14.943 7.286 L 14.943 10.159 C 14.946 10.202 14.968 10.241 15.004 10.264 L 15.939 10.804 C 15.977 10.824 16.022 10.824 16.061 10.804 L 16.996 10.264 C 17.031 10.24 17.054 10.202 17.056 10.159 L 17.056 7.285 C 17.056 7.245 17.027 7.21 16.988 7.201 L 16.068 7.032 C 16.023 7.025 15.976 7.025 15.931 7.032 L 15.012 7.202 Z"/>
</svg>
