<?xml version="1.0" encoding="utf-8"?>
<svg fill="#d1d1d1" viewBox="0 0 32 32" xmlns="http://www.w3.org/2000/svg">
  <path d="M 24.5 11 L 16 6 L 7.5 11 L 7.5 21 L 16 26 L 24.5 21 L 24.5 11 Z M 15.732 16.407 L 14.701 15.801 L 14.078 16.169 L 12.602 15.306 L 13.23 14.936 L 9.9 12.977 L 16.171 9.289 L 22.088 12.727 L 20.502 13.665 L 16.175 11.135 L 13.044 12.977 L 14.798 14.009 L 15.695 13.479 L 17.171 14.342 L 16.269 14.875 L 17.299 15.481 L 18.035 15.047 L 19.511 15.909 L 18.771 16.346 L 22.444 18.508 L 16.174 22.195 L 9.649 18.405 L 9.676 16.562 L 16.171 20.349 L 19.301 18.508 L 17.203 17.273 L 16.418 17.736 L 14.942 16.874 L 15.732 16.407 Z" fill-rule="evenodd"/>
</svg>
