<?xml version="1.0" encoding="utf-8"?>
<svg fill="#d1d1d1" width="32" height="32" viewBox="0 0 32 32" xmlns="http://www.w3.org/2000/svg">
  <path d="M 13.577 22.012 L 9.86 19.872 L 9.86 25.328 L 11.75 24.237 L 15.47 26.377 L 15.47 20.92 L 13.577 22.012 Z M 10.227 12.308 L 10.251 12.322 L 10.251 17.759 L 14.981 15.034 L 13.039 13.912 L 13.051 13.906 L 15.777 15.478 L 15.777 10.03 L 16.519 10.457 L 16.519 5 L 11.781 7.732 L 15.769 10.025 L 13.761 11.18 L 11.039 9.607 L 11.039 12.757 L 11.039 7.319 L 6.3 10.044 L 10.22 12.305 L 5.49 15.034 L 10.227 17.759 L 10.227 12.309 L 10.227 12.308 Z M 16.519 5 L 16.519 10.457 L 21.257 7.732 L 16.519 5 Z M 21.257 7.732 L 21.257 13.189 L 25.994 10.457 L 21.257 7.732 Z M 16.519 10.457 L 16.519 15.914 L 21.257 13.189 L 16.519 10.457 Z M 21.257 13.189 L 21.257 18.646 L 25.994 15.914 L 21.257 13.189 Z M 16.519 15.914 L 16.519 21.371 L 21.257 18.646 L 16.519 15.914 Z M 21.257 18.646 L 21.257 24.103 L 25.994 21.371 L 21.257 18.646 Z M 4.273 10.273 L 4.273 15.73 L 9.011 12.998 L 4.273 10.273 Z M 6.738 15.753 L 6.738 21.21 L 11.475 18.478 L 6.738 15.753 Z M 16.481 22.221 L 16.481 27.678 L 21.211 24.945 L 16.481 22.221 Z M 16.519 15.914 L 11.789 18.646 L 16.519 21.371 L 16.519 15.914 Z M 6.738 17.184 L 2 19.91 L 6.738 22.643 L 6.738 17.186 L 6.738 17.184 Z M 25.994 10.457 L 21.257 13.189 L 25.994 15.914 L 25.994 10.457 Z M 21.257 13.189 L 16.519 15.914 L 21.257 18.646 L 21.257 13.19 L 21.257 13.189 Z M 25.994 15.914 L 21.257 18.646 L 25.994 21.371 L 25.994 15.914 Z M 21.257 18.646 L 16.519 21.371 L 21.257 24.103 L 21.257 18.646 Z M 21.257 7.732 L 16.519 10.457 L 21.257 13.189 L 21.257 7.732 Z"/>
</svg>
