<?xml version="1.0" encoding="utf-8"?>
<svg fill="#d1d1d1" width="32" height="32" viewBox="0 0 32 32" xmlns="http://www.w3.org/2000/svg">
  <path d="M 11.83 10.12 C 11.836 8.224 12.55 6.398 13.83 5 C 14.18 4.65 14.22 4.58 14.22 4.3 C 14.22 4.02 14.22 4 14.01 4 C 13.75 4.029 13.493 4.076 13.24 4.14 C 10.255 4.845 7.65 6.657 5.95 9.21 C 5.129 10.421 4.552 11.779 4.25 13.21 C 4 14.528 3.939 15.875 4.07 17.21 C 4.437 20.173 5.926 22.882 8.23 24.78 C 9.46 25.78 10.84 26.58 10.84 26.22 C 10.759 26.065 10.651 25.926 10.52 25.81 C 9.268 24.43 8.686 22.568 8.93 20.72 C 9.11 18.42 10.372 16.341 12.33 15.12 C 12.574 14.946 12.831 14.792 13.1 14.66 C 13.25 14.66 13.16 14.36 12.79 13.66 C 12.157 12.588 11.825 11.365 11.83 10.12 Z M 27.34 13.24 C 26.624 9.753 24.397 6.763 21.26 5.08 C 20.7 4.77 20.42 4.7 20.42 4.89 C 20.473 5.05 20.554 5.199 20.66 5.33 C 21.28 6.211 21.628 7.254 21.66 8.33 C 21.787 9.465 21.424 10.6 20.66 11.45 C 20.257 11.877 19.586 11.904 19.15 11.51 C 18.75 11.22 18.75 11.02 19 10.65 C 19.53 9.871 19.793 8.941 19.75 8 C 19.829 7.234 19.557 6.473 19.01 5.93 C 18.509 5.411 17.761 5.214 17.07 5.42 C 16.085 5.817 15.364 6.68 15.15 7.72 C 14.921 8.46 14.786 9.226 14.75 10 C 14.757 11.185 15.049 12.351 15.6 13.4 C 15.985 14.003 16.46 14.543 17.01 15 C 17.12 15.072 17.217 15.16 17.3 15.26 C 17.203 15.339 17.091 15.397 16.97 15.43 C 15.409 16.169 14.212 17.507 13.65 19.14 C 13.284 20.079 13.12 21.084 13.17 22.09 C 13.129 23.049 13.492 23.981 14.17 24.66 C 14.939 25.326 15.971 25.602 16.97 25.41 C 18.291 25.311 19.526 24.719 20.43 23.75 C 20.84 23.31 20.92 23.26 21 23.36 C 21.08 23.46 21.06 23.52 20.91 23.77 C 19.96 25.392 18.437 26.598 16.64 27.15 C 16.29 27.24 16.14 27.31 16.14 27.39 C 16.14 27.65 18.33 27.29 19.66 26.82 C 23.096 25.565 25.779 22.822 26.96 19.36 C 27.391 18.17 27.578 16.904 27.51 15.64 C 27.556 14.836 27.498 14.03 27.34 13.24 Z"/>
</svg>
