<?xml version="1.0" encoding="utf-8"?>
<svg fill="#d1d1d1" height="32" viewBox="0 0 32 32" width="32" xmlns="http://www.w3.org/2000/svg">
  <path d="M 24.248 19.35 L 24.248 12.673 C 25.079 12.362 25.263 11.268 24.578 10.703 C 24.368 10.53 24.104 10.437 23.832 10.44 C 23.544 10.438 23.267 10.544 23.053 10.737 L 17.225 7.4 C 17.378 6.678 16.826 5.999 16.088 6 C 15.374 5.998 14.827 6.635 14.938 7.34 L 8.968 10.76 C 8.617 10.428 8.098 10.346 7.662 10.553 C 7.225 10.76 6.964 11.213 7.004 11.691 C 7.044 12.169 7.379 12.573 7.844 12.704 L 7.844 19.32 C 6.989 19.557 6.711 20.631 7.344 21.253 C 7.563 21.469 7.859 21.588 8.166 21.584 C 8.402 21.584 8.631 21.514 8.824 21.38 L 11.922 23.152 L 11.922 23.187 L 11.989 23.187 L 14.929 24.87 C 14.946 25.51 15.478 26.016 16.118 26 C 16.794 25.989 17.316 25.405 17.252 24.732 L 23.282 21.442 C 23.642 21.638 24.079 21.631 24.432 21.423 C 24.785 21.215 25.002 20.837 25 20.43 C 24.996 19.949 24.697 19.521 24.248 19.35 Z M 20.13 16.745 L 20.126 16.745 L 20.121 16.718 L 20.117 16.656 L 19.978 16.589 L 19.105 16.069 L 20.018 15.524 L 20.162 15.457 L 20.171 15.111 L 20.175 15.111 L 20.175 9.827 L 22.708 11.279 C 22.679 11.382 22.665 11.488 22.664 11.594 C 22.664 12.144 23.056 12.618 23.599 12.727 L 23.599 19.297 C 22.842 19.451 22.444 20.287 22.802 20.971 L 20.13 22.428 L 20.13 16.745 Z M 16.09 8.309 C 16.402 8.309 16.7 8.184 16.918 7.962 L 19.53 9.46 L 19.53 15.067 L 18.478 15.697 L 17.058 14.854 C 17.151 14.233 16.67 13.676 16.042 13.677 C 15.398 13.675 14.911 14.261 15.032 14.894 L 13.657 15.702 L 12.57 15.054 L 12.57 9.441 L 15.22 7.922 C 15.44 8.168 15.756 8.309 16.088 8.309 L 16.09 8.309 Z M 16.77 16.731 C 16.376 16.344 15.748 16.334 15.342 16.709 L 14.277 16.074 L 15.347 15.453 C 15.751 15.821 16.373 15.811 16.765 15.43 L 17.853 16.079 L 16.77 16.731 Z M 9.242 20.878 C 9.37 20.575 9.362 20.232 9.218 19.935 C 9.074 19.638 8.812 19.416 8.494 19.325 L 8.494 12.7 C 9.094 12.529 9.45 11.915 9.295 11.315 L 11.923 9.809 L 11.923 15.244 L 11.927 15.244 L 11.927 15.457 L 12.277 15.635 L 13.028 16.079 L 12.196 16.567 L 11.972 16.7 L 11.927 16.745 L 11.923 16.922 L 11.923 22.414 L 9.242 20.878 Z M 16.09 23.671 C 15.682 23.67 15.303 23.882 15.092 24.231 L 12.567 22.783 L 12.567 17.069 L 13.641 16.443 L 15.033 17.269 C 15.023 17.329 15.017 17.389 15.015 17.451 C 15.015 18.015 15.476 18.471 16.045 18.471 C 16.614 18.471 17.075 18.015 17.075 17.451 C 17.075 17.4 17.07 17.35 17.061 17.3 L 18.48 16.447 L 19.487 17.047 L 19.487 22.783 L 17.017 24.133 C 16.798 23.841 16.455 23.67 16.09 23.671 Z" fill-rule="evenodd"/>
</svg>
