<?xml version="1.0" encoding="utf-8"?>
<svg fill="#d1d1d1" height="32" viewBox="0 0 32 32" width="32" xmlns="http://www.w3.org/2000/svg">
  <path d="M 16 26 C 16.648 26 17.284 25.826 17.844 25.495 L 23.15 22.375 C 24.297 21.69 25 20.452 25 19.115 L 25 12.885 C 25.002 11.548 24.299 10.309 23.15 9.626 L 17.844 6.506 C 17.289 6.175 16.654 6 16.008 6 C 15.358 6 14.718 6.175 14.156 6.505 L 8.85 9.626 C 7.703 10.311 7 11.549 7 12.885 L 7 19.115 C 6.998 20.452 7.701 21.691 8.85 22.375 L 14.156 25.495 C 14.716 25.825 15.352 26 16 26 Z M 12.948 19.571 C 13.208 19.838 13.56 19.988 13.929 19.989 C 14.694 19.989 15.314 19.358 15.314 18.579 L 15.314 10.595 L 16.696 10.595 L 16.696 15.291 C 16.697 16.067 17.316 16.696 18.078 16.698 C 18.447 16.698 18.801 16.548 19.061 16.282 L 20.043 17.282 C 19.529 17.814 18.817 18.108 18.078 18.094 C 17.592 18.095 17.115 17.965 16.696 17.718 L 16.696 18.57 C 16.694 20.129 15.453 21.391 13.922 21.393 C 13.185 21.399 12.477 21.102 11.965 20.571 L 12.948 19.571 Z" fill-rule="evenodd"/>
</svg>
