<?xml version="1.0" encoding="utf-8"?>
<svg fill="#d1d1d1" viewBox="0 0 32 32" xmlns="http://www.w3.org/2000/svg">
  <path fill-rule="evenodd" d="M 13.54 16 L 18.714 10.67 L 21.979 14.033 C 22.548 14.627 23.498 14.627 24.067 14.033 C 24.644 13.432 24.644 12.482 24.067 11.881 L 19.758 7.441 C 19.186 6.853 18.242 6.853 17.67 7.441 L 11.454 13.847 L 11.454 10.039 C 11.454 9.199 10.792 8.517 9.977 8.517 C 9.161 8.517 8.5 9.199 8.5 10.039 L 8.5 21.961 C 8.5 22.801 9.161 23.483 9.977 23.483 C 10.788 23.483 11.454 22.797 11.454 21.961 L 11.454 18.153 L 17.67 24.558 C 18.242 25.146 19.186 25.146 19.758 24.558 L 24.068 20.118 C 24.644 19.517 24.644 18.568 24.068 17.967 C 23.499 17.372 22.547 17.372 21.978 17.967 L 18.714 21.331 L 13.54 16 Z M 18.716 14.477 C 17.9 14.477 17.238 15.159 17.238 16 C 17.238 16.841 17.9 17.523 18.716 17.523 C 19.532 17.523 20.194 16.841 20.194 16 C 20.194 15.159 19.532 14.477 18.716 14.477 Z"/>
</svg>
