<?xml version="1.0" encoding="utf-8"?>
<svg fill="#d1d1d1" viewBox="0 0 32 32" xmlns="http://www.w3.org/2000/svg">
  <path d="M 19.636 13.03 C 19.986 13.03 20.269 12.752 20.269 12.41 L 20.269 12.043 C 20.266 11.697 19.982 11.419 19.636 11.423 L 19.26 11.423 C 18.914 11.419 18.63 11.697 18.627 12.043 L 18.627 13.029 L 19.636 13.03 Z M 13.701 13.03 L 13.701 12.043 C 13.698 11.697 13.414 11.419 13.068 11.423 L 12.693 11.423 C 12.347 11.419 12.063 11.697 12.06 12.043 L 12.06 12.41 C 12.06 12.752 12.343 13.03 12.693 13.03 L 13.701 13.03 Z M 12.693 19.613 L 13.068 19.613 C 13.418 19.613 13.701 19.336 13.701 18.994 L 13.701 18.007 L 12.693 18.007 C 12.347 18.003 12.063 18.281 12.06 18.627 L 12.06 18.994 C 12.06 19.336 12.343 19.614 12.693 19.614 L 12.693 19.613 Z M 19.26 19.613 L 19.636 19.613 C 19.986 19.613 20.269 19.336 20.269 18.994 L 20.269 18.627 C 20.266 18.281 19.982 18.003 19.636 18.007 L 18.626 18.007 L 18.626 18.994 C 18.626 19.336 18.91 19.614 19.26 19.614 L 19.26 19.613 Z M 15.976 11.583 L 16.352 11.583 C 16.702 11.583 16.985 11.307 16.985 10.965 L 16.985 10.597 C 16.981 10.251 16.698 9.974 16.352 9.978 L 15.976 9.978 C 15.63 9.974 15.346 10.252 15.343 10.598 L 15.343 10.965 C 15.343 11.307 15.627 11.584 15.976 11.584 L 15.976 11.583 Z M 15.976 21.38 L 16.352 21.38 C 16.702 21.38 16.985 21.102 16.985 20.76 L 16.985 20.393 C 16.982 20.047 16.698 19.769 16.352 19.773 L 15.976 19.773 C 15.63 19.769 15.346 20.047 15.343 20.393 L 15.343 20.761 C 15.343 21.102 15.627 21.38 15.976 21.38 Z M 20.902 16.401 L 21.277 16.401 C 21.627 16.401 21.91 16.124 21.91 15.782 L 21.91 15.415 C 21.907 15.069 21.623 14.791 21.277 14.795 L 20.902 14.795 C 20.556 14.791 20.272 15.069 20.269 15.415 L 20.269 15.782 C 20.269 16.124 20.552 16.402 20.902 16.402 L 20.902 16.401 Z M 10.887 16.401 L 11.262 16.401 C 11.612 16.401 11.896 16.124 11.896 15.782 L 11.896 15.415 C 11.893 15.068 11.609 14.791 11.262 14.795 L 10.887 14.795 C 10.541 14.791 10.257 15.069 10.254 15.415 L 10.254 15.782 C 10.254 16.124 10.537 16.402 10.887 16.402 L 10.887 16.401 Z M 18.172 14.857 C 18.422 14.859 18.626 14.657 18.627 14.407 L 18.627 13.19 L 17.374 13.19 C 17.124 13.188 16.92 13.39 16.919 13.64 L 16.919 14.04 C 16.919 14.49 16.572 14.88 16.115 14.88 C 15.652 14.874 15.277 14.503 15.265 14.04 L 15.265 13.623 C 15.263 13.382 15.067 13.188 14.826 13.19 L 13.701 13.19 L 13.701 18.168 L 14.817 18.168 C 15.063 18.17 15.264 17.971 15.265 17.725 L 15.265 17.351 C 15.265 16.875 15.62 16.476 16.077 16.476 C 16.537 16.48 16.91 16.85 16.919 17.31 L 16.919 17.722 C 16.919 17.968 17.121 18.168 17.37 18.168 L 18.627 18.168 L 18.627 16.937 C 18.625 16.689 18.423 16.489 18.175 16.491 L 17.8 16.491 C 17.343 16.491 16.919 16.125 16.919 15.674 C 16.923 15.22 17.293 14.855 17.747 14.857 L 18.172 14.857 Z M 18.653 21.422 C 18.362 21.537 18.222 21.868 18.343 22.157 C 18.469 22.445 18.802 22.58 19.093 22.461 C 19.384 22.347 19.524 22.015 19.403 21.727 C 19.277 21.439 18.944 21.303 18.653 21.422 Z M 13.4 8.897 C 13.109 9.011 12.969 9.342 13.089 9.631 C 13.215 9.919 13.548 10.054 13.839 9.935 C 14.13 9.821 14.27 9.49 14.15 9.201 C 14.024 8.913 13.691 8.778 13.4 8.897 Z M 21.954 13.325 C 22.08 13.613 22.413 13.748 22.704 13.629 C 22.996 13.515 23.137 13.183 23.016 12.894 C 22.89 12.606 22.557 12.471 22.266 12.59 C 21.974 12.704 21.833 13.036 21.954 13.325 Z M 9.312 18.463 C 9.438 18.751 9.772 18.886 10.063 18.767 C 10.354 18.653 10.494 18.322 10.374 18.033 C 10.248 17.745 9.915 17.61 9.624 17.729 C 9.333 17.843 9.192 18.174 9.312 18.463 Z M 9.312 12.894 C 9.191 13.183 9.331 13.515 9.623 13.629 C 9.914 13.748 10.248 13.613 10.374 13.325 C 10.495 13.036 10.355 12.705 10.064 12.59 C 9.772 12.47 9.438 12.605 9.312 12.894 Z M 18.489 9.935 C 18.78 10.054 19.113 9.919 19.239 9.631 C 19.359 9.343 19.22 9.012 18.929 8.897 C 18.638 8.778 18.305 8.913 18.179 9.201 C 18.059 9.489 18.198 9.82 18.489 9.935 Z M 21.954 18.033 C 21.834 18.322 21.974 18.653 22.265 18.767 C 22.556 18.886 22.889 18.751 23.015 18.463 C 23.135 18.175 22.996 17.844 22.705 17.729 C 22.414 17.61 22.081 17.745 21.955 18.033 L 21.954 18.033 Z M 13.071 22.621 C 13.362 22.74 13.695 22.605 13.821 22.317 C 13.941 22.029 13.802 21.698 13.511 21.583 C 13.22 21.464 12.887 21.599 12.761 21.887 C 12.64 22.175 12.78 22.507 13.071 22.621 Z M 21.514 20.991 C 21.385 21.115 21.385 21.322 21.514 21.446 C 21.643 21.571 21.85 21.571 21.978 21.446 C 22.106 21.321 22.107 21.117 21.978 20.992 C 21.849 20.867 21.643 20.867 21.514 20.992 L 21.514 20.991 Z M 10.35 9.912 C 10.221 10.036 10.221 10.243 10.35 10.367 C 10.479 10.492 10.685 10.492 10.814 10.367 C 10.942 10.241 10.942 10.038 10.814 9.913 C 10.686 9.788 10.478 9.787 10.35 9.913 L 10.35 9.912 Z M 21.514 10.367 C 21.643 10.492 21.849 10.492 21.978 10.367 C 22.107 10.241 22.107 10.038 21.978 9.913 C 21.849 9.788 21.643 9.787 21.514 9.913 C 21.386 10.037 21.386 10.243 21.514 10.367 Z M 10.35 21.446 C 10.478 21.571 10.686 21.571 10.814 21.446 C 10.942 21.321 10.942 21.117 10.814 20.992 C 10.685 20.867 10.479 20.867 10.35 20.992 C 10.222 21.116 10.222 21.322 10.35 21.446 Z M 23.88 15.599 C 23.88 15.776 24.028 15.919 24.209 15.919 C 24.388 15.921 24.534 15.778 24.537 15.599 C 24.535 15.42 24.388 15.275 24.209 15.277 C 24.03 15.275 23.883 15.42 23.881 15.599 L 23.88 15.599 Z M 7.955 15.599 C 7.955 15.776 8.102 15.919 8.284 15.919 C 8.463 15.921 8.609 15.778 8.612 15.599 C 8.61 15.42 8.463 15.275 8.284 15.277 C 8.104 15.275 7.957 15.419 7.955 15.599 Z M 16.165 8.212 C 16.344 8.214 16.491 8.07 16.493 7.891 C 16.491 7.711 16.344 7.567 16.164 7.569 C 15.985 7.567 15.838 7.712 15.836 7.891 C 15.836 8.068 15.983 8.211 16.164 8.211 L 16.165 8.212 Z M 16.165 23.788 C 16.344 23.79 16.49 23.647 16.493 23.468 C 16.491 23.288 16.344 23.144 16.164 23.146 C 15.985 23.144 15.838 23.288 15.836 23.467 C 15.836 23.644 15.983 23.788 16.164 23.788 L 16.165 23.788 Z M 26.343 15.598 C 26.343 15.776 26.491 15.92 26.672 15.92 C 26.851 15.922 26.998 15.778 27 15.599 C 26.998 15.42 26.851 15.275 26.672 15.277 C 26.492 15.275 26.345 15.419 26.343 15.599 L 26.343 15.598 Z M 5.246 15.438 C 5.11 15.438 5 15.546 5 15.678 C 5 15.81 5.11 15.92 5.246 15.92 C 5.382 15.92 5.493 15.812 5.493 15.679 C 5.493 15.546 5.383 15.438 5.246 15.438 Z M 15.672 5.321 C 15.672 5.498 15.819 5.642 16 5.642 C 16.181 5.642 16.328 5.498 16.328 5.322 C 16.328 5.144 16.181 5 16 5 C 15.819 5 15.672 5.144 15.672 5.321 Z M 25.397 19.426 C 25.293 19.673 25.411 19.957 25.659 20.057 C 25.908 20.16 26.194 20.046 26.305 19.801 C 26.41 19.554 26.291 19.269 26.042 19.169 C 25.793 19.065 25.507 19.179 25.397 19.426 Z M 20.067 24.616 C 19.901 24.549 19.711 24.624 19.637 24.788 C 19.604 24.866 19.604 24.955 19.637 25.033 C 19.738 25.267 20.054 25.304 20.206 25.099 C 20.221 25.08 20.233 25.059 20.243 25.037 C 20.277 24.959 20.277 24.87 20.244 24.792 C 20.211 24.713 20.148 24.65 20.068 24.617 L 20.067 24.616 Z M 6.442 11.289 C 6.362 11.256 6.272 11.256 6.191 11.288 C 6.111 11.319 6.046 11.381 6.012 11.46 C 5.978 11.538 5.977 11.627 6.01 11.706 C 6.111 11.94 6.427 11.977 6.579 11.772 C 6.594 11.753 6.606 11.732 6.616 11.71 C 6.65 11.632 6.651 11.543 6.618 11.464 C 6.585 11.385 6.522 11.322 6.442 11.289 Z M 5.526 19.539 C 5.439 19.744 5.537 19.981 5.744 20.064 C 5.954 20.15 6.194 20.054 6.282 19.851 C 6.37 19.646 6.271 19.408 6.064 19.325 C 5.857 19.238 5.618 19.333 5.526 19.538 L 5.526 19.539 Z M 19.863 6.252 C 20.071 6.338 20.313 6.242 20.4 6.038 C 20.488 5.833 20.389 5.595 20.182 5.512 C 19.974 5.425 19.735 5.52 19.644 5.726 C 19.556 5.93 19.654 6.166 19.863 6.252 Z M 26.004 11.119 C 25.944 11.143 25.895 11.189 25.87 11.249 C 25.845 11.308 25.844 11.374 25.869 11.433 C 25.946 11.609 26.184 11.635 26.298 11.481 C 26.308 11.467 26.317 11.452 26.324 11.436 C 26.376 11.313 26.317 11.17 26.193 11.12 C 26.133 11.095 26.065 11.094 26.004 11.119 Z M 11.587 5.95 C 11.535 6.073 11.593 6.215 11.717 6.266 C 11.842 6.317 11.985 6.26 12.04 6.137 C 12.092 6.014 12.034 5.872 11.91 5.822 C 11.785 5.769 11.641 5.826 11.587 5.95 Z M 11.65 24.912 C 11.551 24.911 11.462 24.97 11.422 25.06 C 11.371 25.183 11.43 25.325 11.554 25.375 C 11.678 25.427 11.821 25.37 11.876 25.247 C 11.928 25.124 11.87 24.982 11.746 24.932 C 11.716 24.919 11.683 24.912 11.65 24.912 Z M 23.292 23.212 C 23.42 23.088 23.42 22.882 23.292 22.758 C 23.23 22.697 23.147 22.664 23.06 22.664 C 22.973 22.663 22.889 22.697 22.827 22.758 C 22.698 22.882 22.698 23.089 22.827 23.213 C 22.957 23.339 23.162 23.339 23.292 23.213 L 23.292 23.212 Z M 7.935 8.033 C 7.743 8.22 7.743 8.527 7.935 8.714 C 8.128 8.904 8.439 8.904 8.632 8.714 C 8.824 8.527 8.824 8.22 8.632 8.033 C 8.438 7.845 8.129 7.845 7.935 8.033 Z M 23.46 8.123 C 23.364 8.216 23.364 8.37 23.46 8.463 C 23.557 8.558 23.712 8.558 23.809 8.463 C 23.904 8.37 23.904 8.216 23.809 8.123 C 23.712 8.027 23.557 8.027 23.46 8.123 Z M 8.027 22.735 C 7.931 22.828 7.931 22.982 8.027 23.075 C 8.124 23.17 8.279 23.17 8.376 23.075 C 8.472 22.982 8.472 22.828 8.376 22.735 C 8.329 22.689 8.267 22.665 8.201 22.665 C 8.135 22.665 8.074 22.689 8.027 22.735 Z M 16.082 27 C 16.309 27 16.492 26.82 16.492 26.599 C 16.49 26.375 16.306 26.195 16.082 26.197 C 15.855 26.197 15.672 26.377 15.672 26.599 C 15.672 26.82 15.855 27 16.082 27 Z" fill-rule="evenodd"/>
</svg>
