<?xml version="1.0" encoding="utf-8"?>
<svg fill="#d1d1d1" width="32" height="32" viewBox="0 0 32 32" xmlns="http://www.w3.org/2000/svg">
  <path d="M 21.56 6.56 C 19.101 5.079 16.157 4.63 13.368 5.31 C 11.695 5.712 10.061 6.556 8.801 7.668 C 8.381 8.038 7.696 8.748 7.396 9.122 C 5.452 11.539 4.626 14.734 5.159 17.769 C 5.653 20.589 7.219 23.077 9.589 24.793 C 11.6 26.254 14.304 27.013 16.749 26.801 C 19.047 26.607 21.063 25.802 22.803 24.394 C 23.506 23.8 24.146 23.135 24.712 22.41 C 25.399 21.478 25.939 20.446 26.311 19.35 C 26.703 18.175 26.869 17.144 26.865 15.863 C 26.865 13.978 26.395 12.221 25.435 10.523 C 24.55 8.949 23.12 7.488 21.56 6.559 L 21.56 6.56 Z M 13.404 6.175 C 14.444 5.909 15.52 5.808 16.591 5.875 C 17.621 5.952 18.411 6.111 19.221 6.4 C 20.413 6.831 21.207 7.269 22.248 8.066 C 22.588 8.324 23.163 8.864 23.381 9.126 L 23.685 9.482 C 24.818 10.795 25.615 12.574 25.933 14.497 C 26.025 15.037 26.021 16.703 25.93 17.314 C 25.676 19.022 25.08 20.458 24 21.973 C 23.42 22.781 22.263 23.85 21.359 24.408 C 19.4 25.618 17.325 26.134 15.109 25.958 C 13.772 25.841 12.471 25.465 11.279 24.849 C 9.429 23.897 7.925 22.388 6.979 20.536 C 6.199 19.011 5.861 17.61 5.861 15.937 C 5.861 13.855 6.436 11.991 7.636 10.202 C 8.006 9.648 8.992 8.568 9.443 8.218 C 9.521 8.158 9.687 8.024 9.814 7.925 C 10.724 7.198 12.158 6.499 13.404 6.175 Z M 20.717 15.412 C 20.685 15.412 20.533 15.574 20.377 15.772 C 20.1 16.128 19.741 16.594 18.488 18.212 L 18.328 18.419 L 17.544 19.429 L 17.544 22.746 L 17.635 22.859 L 17.676 22.905 C 17.724 22.953 17.746 22.954 17.776 22.923 C 17.819 22.881 17.921 22.411 18.013 21.818 C 18.055 21.539 18.105 21.472 18.151 21.631 C 18.214 21.857 18.154 22.781 18.051 23.191 C 18.034 23.269 18.048 23.29 18.193 23.361 C 18.281 23.403 18.359 23.431 18.37 23.421 C 18.377 23.414 18.49 23.135 18.62 22.806 C 18.867 22.178 18.91 22.093 18.962 22.146 C 19.005 22.189 18.948 22.422 18.733 23.064 C 18.571 23.551 18.557 23.614 18.595 23.721 C 18.645 23.851 18.652 23.954 18.613 23.954 C 18.595 23.954 18.412 23.865 18.197 23.759 C 17.71 23.516 17.505 23.459 17.377 23.53 C 17.268 23.594 17.24 23.64 17.191 23.834 C 17.151 23.948 17.09 24.053 17.011 24.144 C 16.93 24.236 16.87 24.314 16.877 24.321 C 16.884 24.324 16.982 24.366 17.092 24.409 C 17.334 24.506 17.636 24.704 17.937 24.959 L 18.087 25.09 L 18.387 25.365 L 18.539 25.249 L 18.732 25.106 C 19.177 24.783 19.588 24.531 19.891 24.395 C 20.631 24.063 21.108 23.749 21.567 23.283 C 21.984 22.859 22.143 22.549 22.27 21.921 C 22.312 21.709 22.428 21.497 22.53 21.444 C 22.594 21.409 22.598 21.412 22.58 21.504 C 22.566 21.561 22.548 21.642 22.534 21.688 C 22.517 21.755 22.524 21.762 22.577 21.744 C 22.88 21.634 23.047 21.271 22.987 20.834 C 22.919 20.329 22.767 20.177 22.411 20.262 C 22.27 20.298 22.131 20.346 21.998 20.406 C 21.878 20.459 21.768 20.495 21.758 20.484 C 21.748 20.474 21.768 20.371 21.808 20.258 C 21.98 19.757 22.005 19.178 21.864 18.988 C 21.737 18.815 21.504 18.839 21.14 19.058 L 20.994 19.144 C 20.819 19.244 20.828 19.211 20.932 19.04 C 21.112 18.733 21.292 18.37 21.359 18.169 C 21.475 17.833 21.423 17.499 21.246 17.442 C 21.116 17.399 20.826 17.582 20.413 17.971 C 20.286 18.098 20.153 18.218 20.014 18.331 C 20.014 18.296 20.141 18.066 20.406 17.629 C 20.561 17.371 20.787 16.962 20.907 16.719 C 21.084 16.358 21.127 16.238 21.137 16.062 C 21.154 15.804 21.063 15.589 20.887 15.482 C 20.836 15.448 20.778 15.424 20.717 15.412 Z M 14.371 20.248 C 14.254 20.085 14.18 20.113 13.845 20.431 C 13.712 20.56 13.574 20.683 13.432 20.801 C 13.192 20.971 12.666 21.211 12.274 21.331 C 12.044 21.401 11.872 21.472 11.886 21.486 C 11.949 21.543 12.316 21.589 12.722 21.589 C 12.959 21.589 13.167 21.599 13.178 21.609 C 13.192 21.624 13.171 21.677 13.132 21.729 C 12.972 21.953 13.057 22.02 13.531 22.001 L 13.647 21.995 L 14.077 21.97 L 14.137 22.062 L 14.164 22.115 C 14.178 22.152 14.184 22.19 14.176 22.213 C 14.145 22.305 13.884 22.573 13.661 22.743 C 13.128 23.145 13.153 23.188 13.908 23.213 C 14.36 23.226 14.484 23.241 14.508 23.283 C 14.561 23.368 14.551 23.442 14.458 23.569 C 14.155 23.989 14.011 24.219 14.021 24.268 C 14.042 24.391 14.271 24.455 14.657 24.444 C 15.295 24.426 15.475 24.434 15.627 24.483 C 15.667 24.497 15.707 24.507 15.739 24.512 L 15.779 24.515 L 15.8 24.511 C 15.803 24.461 15.65 24.156 15.03 22.969 C 14.935 22.785 14.9 22.679 14.914 22.623 C 14.957 22.453 14.935 21.953 14.882 21.822 C 14.843 21.743 14.794 21.669 14.737 21.601 L 14.671 21.525 L 14.508 21.352 L 14.508 21.035 L 14.505 20.876 C 14.493 20.573 14.446 20.35 14.371 20.248 Z M 15.151 17.392 L 15.146 17.404 L 15.144 17.427 C 15.144 17.495 14.904 19.76 14.879 19.94 C 14.869 20.022 14.872 20.071 14.893 20.064 C 14.914 20.06 15.055 19.937 15.211 19.796 C 15.366 19.655 15.501 19.556 15.511 19.573 C 15.525 19.591 15.574 20.064 15.621 20.625 C 15.665 21.132 15.71 21.601 15.726 21.733 L 15.729 21.762 L 15.747 21.882 L 15.969 21.638 L 16.045 21.556 L 16.244 21.334 L 16.284 21.289 L 16.379 21.183 L 16.442 21.257 L 16.462 21.282 C 16.522 21.362 16.694 21.58 16.873 21.815 C 17.212 22.252 17.297 22.345 17.297 22.266 C 17.3 22.21 16.329 19.4 16.308 19.4 C 16.294 19.4 16.238 19.598 16.181 19.842 C 16.128 20.085 16.071 20.282 16.061 20.282 C 16.051 20.282 16.005 19.905 15.959 19.442 C 15.864 18.44 15.846 18.306 15.818 18.306 C 15.808 18.306 15.705 18.451 15.588 18.624 C 15.475 18.8 15.369 18.942 15.352 18.942 C 15.334 18.942 15.32 18.906 15.32 18.86 C 15.32 18.818 15.288 18.472 15.25 18.095 C 15.207 17.717 15.168 17.403 15.152 17.392 L 15.151 17.392 Z M 11.646 15.507 C 11.402 15.44 10.876 15.412 10.622 15.444 C 9.942 15.539 9.196 15.945 8.776 16.457 C 8.246 17.099 8.025 17.773 8.06 18.624 C 8.085 19.15 8.17 19.517 8.363 19.912 C 8.663 20.546 9.232 21.012 9.913 21.182 C 10.291 21.278 10.315 21.25 10.008 21.07 C 9.465 20.756 9.062 20.385 8.812 19.969 C 7.968 18.582 8.783 16.531 10.396 15.984 C 10.651 15.899 10.728 15.889 11.173 15.889 L 11.317 15.889 L 11.455 15.892 C 11.662 15.899 11.767 15.918 11.932 15.97 C 12.278 16.08 12.736 16.32 13.04 16.552 C 13.467 16.877 13.432 16.859 13.361 16.718 C 13.273 16.542 12.691 15.98 12.454 15.839 C 12.2 15.694 11.929 15.582 11.646 15.507 Z M 9.518 18.416 C 9.383 18.042 9.376 18.031 9.323 18.193 C 9.288 18.293 9.285 18.419 9.299 18.61 C 9.379 19.524 9.758 20.149 10.399 20.449 C 10.665 20.569 10.943 20.639 10.943 20.583 C 10.943 20.569 10.841 20.453 10.718 20.322 C 10.195 19.773 9.787 19.125 9.518 18.416 Z M 12.461 12.998 C 12.751 12.864 12.729 12.857 12.285 12.924 C 11.512 13.04 10.442 13.471 9.712 13.958 C 9.352 14.194 8.805 14.664 8.558 14.943 C 8.3 15.236 8.003 15.649 8.021 15.698 C 8.028 15.719 8.116 15.67 8.226 15.582 C 8.466 15.387 8.776 15.165 8.801 15.165 C 8.811 15.165 8.949 15.087 9.105 14.992 C 9.499 14.763 9.93 14.606 10.379 14.526 C 10.689 14.484 11.176 14.502 11.42 14.569 C 11.67 14.636 12.154 14.837 12.422 14.985 C 12.567 15.066 12.691 15.13 12.698 15.13 C 12.718 15.13 13.104 15.391 13.396 15.603 C 13.905 15.966 14.653 16.64 14.985 17.029 C 15.101 17.166 15.218 17.279 15.242 17.279 C 15.267 17.283 15.299 17.311 15.309 17.343 C 15.324 17.378 15.454 17.573 15.599 17.777 C 16.004 18.335 16.382 18.913 16.732 19.507 C 17.212 20.322 17.191 20.287 17.226 20.265 C 17.244 20.253 17.257 20.093 17.26 19.885 L 17.261 19.312 L 16.824 18.899 L 16.54 18.621 C 16.164 18.24 15.814 17.834 15.493 17.406 C 15.172 16.979 15.038 16.76 14.145 15.218 C 13.813 14.643 13.725 14.53 13.559 14.442 C 13.135 14.23 12.525 14.064 11.896 13.99 C 11.692 13.965 11.526 13.93 11.526 13.912 C 11.526 13.845 11.925 13.679 12.2 13.63 C 12.355 13.602 12.659 13.58 12.874 13.577 C 13.266 13.577 13.273 13.577 13.294 13.492 C 13.347 13.28 13.344 13.277 12.698 13.259 C 12.19 13.243 12.044 13.221 12.123 13.163 L 12.151 13.146 C 12.175 13.129 12.316 13.065 12.461 12.998 Z M 9.913 17.036 C 9.747 16.94 9.743 16.969 9.874 17.326 C 10.086 17.904 10.439 18.43 10.944 18.942 C 11.341 19.342 11.871 19.772 12.042 19.843 L 12.075 19.853 L 12.095 19.849 L 12.098 19.831 C 12.095 19.757 11.996 19.488 11.861 19.203 C 11.489 18.438 10.938 17.773 10.255 17.265 C 10.144 17.184 10.03 17.108 9.913 17.035 L 9.913 17.036 Z M 11.649 16.531 C 11.427 16.429 11.049 16.33 11.049 16.372 C 11.049 16.379 11.209 16.549 11.402 16.75 C 11.826 17.192 12.178 17.698 12.444 18.25 C 12.666 18.748 12.662 18.74 12.691 18.504 C 12.726 18.239 12.698 17.982 12.599 17.643 C 12.461 17.151 12.114 16.744 11.649 16.531 Z M 17.064 10.513 C 17.007 10.428 17.011 10.428 16.838 10.478 C 15.522 10.863 14.194 11.474 13.668 11.933 L 13.58 12.017 L 13.442 12.157 L 13.552 12.56 L 13.678 13.002 C 14.078 14.312 14.678 15.498 15.472 16.559 C 15.782 16.969 16.654 17.826 17.039 18.095 C 17.389 18.338 17.749 18.553 17.812 18.553 C 17.875 18.553 18.917 17.336 18.878 17.3 C 18.747 17.251 18.615 17.206 18.482 17.163 C 17.773 16.926 17.152 16.583 16.722 16.189 C 16.368 15.867 16.065 15.398 16.397 15.691 C 16.686 15.945 17.755 16.393 18.373 16.521 C 18.511 16.545 18.623 16.566 18.627 16.563 C 18.627 16.563 18.553 16.457 18.457 16.33 C 18.232 16.033 17.967 15.518 17.822 15.094 C 17.706 14.749 17.582 14.572 17.392 14.47 C 17.311 14.43 17.215 14.424 16.951 14.442 C 16.029 14.502 15.231 14.096 14.801 13.347 C 14.565 12.934 14.211 12.239 14.229 12.221 C 14.24 12.211 14.829 12.447 15.542 12.747 C 16.724 13.242 17.009 13.355 17.23 13.401 L 17.307 13.416 L 17.346 13.422 L 17.519 13.446 L 17.498 12.761 L 17.489 12.541 C 17.478 12.245 17.45 11.95 17.406 11.657 C 17.332 11.237 17.159 10.661 17.064 10.513 Z M 22.248 9.285 C 22.111 9.271 18.271 10.171 18.118 10.252 C 18 10.328 17.915 10.445 17.878 10.58 C 17.861 10.654 18.055 11.565 18.55 13.71 C 18.934 15.373 19.255 16.75 19.27 16.764 C 19.284 16.778 19.58 16.425 19.926 15.977 C 20.526 15.2 20.561 15.165 20.674 15.165 C 20.868 15.165 21.168 15.345 21.284 15.535 C 21.454 15.807 21.444 16.189 21.264 16.598 C 21.229 16.664 21.204 16.736 21.19 16.81 C 21.204 16.824 23.72 16.277 23.883 16.224 C 23.96 16.19 24.031 16.143 24.091 16.083 C 24.281 15.882 24.289 15.927 23.441 12.613 C 23.018 10.951 22.644 9.546 22.612 9.5 C 22.573 9.444 22.524 9.395 22.467 9.356 C 22.4 9.317 22.325 9.293 22.248 9.285 Z M 22.831 13.291 C 22.841 13.319 21.821 15.772 21.783 15.811 C 21.768 15.825 21.638 15.73 21.493 15.599 C 21.151 15.287 20.806 14.977 20.459 14.671 C 20.035 14.293 19.704 13.979 19.718 13.976 C 19.735 13.972 20.138 14.092 20.611 14.247 L 21.475 14.527 L 21.878 14.149 C 22.097 13.94 22.4 13.658 22.548 13.52 C 22.697 13.38 22.824 13.277 22.831 13.29 L 22.831 13.291 Z M 20.717 14.392 C 20.261 14.244 20.177 14.226 20.197 14.279 C 20.205 14.293 20.463 14.537 20.773 14.816 C 21.083 15.094 21.415 15.398 21.511 15.493 C 21.603 15.585 21.687 15.656 21.694 15.649 C 21.704 15.642 21.659 15.398 21.596 15.109 L 21.479 14.583 L 21.32 14.562 C 21.116 14.517 20.915 14.46 20.717 14.392 Z M 12.92 9.867 C 12.92 9.807 12.684 9.843 12.09 9.991 C 11.527 10.135 10.973 10.313 10.432 10.524 C 9.722 10.803 8.526 11.445 8.618 11.494 C 8.646 11.509 8.762 11.534 8.878 11.547 C 9.563 11.626 10.71 11.908 11.258 12.127 L 11.381 12.179 L 11.631 12.296 L 11.491 12.32 L 11.184 12.383 C 10.374 12.573 9.62 12.926 9.03 13.393 C 8.723 13.64 8.219 14.163 8.053 14.403 C 7.915 14.6 7.915 14.6 8.307 14.303 C 8.907 13.853 9.888 13.326 10.661 13.037 C 11.293 12.804 12.179 12.585 12.719 12.532 C 12.849 12.518 12.955 12.493 12.955 12.479 C 12.955 12.423 12.545 12.144 12.225 11.978 C 11.783 11.749 10.858 11.4 10.354 11.266 L 10.202 11.23 L 10.079 11.201 L 10.219 11.081 L 10.307 11.012 C 10.63 10.788 10.973 10.595 11.332 10.436 C 11.79 10.243 12.258 10.078 12.736 9.941 C 12.836 9.921 12.92 9.885 12.92 9.867 Z M 20.561 10.654 C 20.586 10.587 20.639 10.605 20.713 10.7 C 20.752 10.75 21.235 11.261 21.786 11.837 C 22.333 12.409 22.785 12.899 22.785 12.924 C 22.785 12.987 21.475 14.212 21.405 14.212 C 21.373 14.212 20.953 14.082 20.47 13.926 C 19.644 13.654 19.513 13.594 19.626 13.524 C 19.647 13.514 19.661 13.478 19.661 13.446 C 19.661 13.404 20.297 11.434 20.561 10.654 Z M 15.931 13.524 C 15.818 13.503 15.818 13.503 15.853 13.602 C 15.899 13.742 16.054 13.824 16.273 13.824 C 16.506 13.824 16.495 13.767 16.238 13.644 C 16.139 13.595 16.037 13.555 15.931 13.524 Z M 20.611 10.845 C 20.597 10.827 20.575 10.859 20.561 10.915 C 20.526 11.103 19.831 13.203 19.761 13.34 C 19.721 13.418 19.697 13.485 19.707 13.492 C 19.721 13.51 20.77 12.726 20.907 12.592 L 21.007 12.497 L 20.823 11.685 C 20.723 11.24 20.628 10.863 20.611 10.845 Z M 12.835 10.295 L 12.747 10.295 L 12.682 10.302 C 12.502 10.334 12.144 10.462 11.851 10.605 C 11.589 10.732 11.155 11.064 11.155 11.138 C 11.155 11.148 11.279 11.205 11.431 11.261 C 11.791 11.396 12.267 11.625 12.638 11.847 C 12.804 11.943 12.952 12.017 12.973 12.013 C 13.015 11.996 13.001 11.597 12.941 11.194 C 12.913 10.986 12.888 10.912 12.849 10.912 C 12.788 10.912 12.775 10.861 12.796 10.649 L 12.807 10.549 L 12.835 10.294 L 12.835 10.295 Z M 19.944 8.459 C 19.724 8.346 19.467 8.367 18.232 8.6 C 16.975 8.837 16.033 9.066 15.091 9.366 C 14.578 9.538 14.075 9.737 13.584 9.963 C 13.375 10.068 13.344 10.097 13.287 10.245 C 13.227 10.404 13.227 10.435 13.287 10.979 C 13.372 11.78 13.347 11.731 13.584 11.551 C 13.886 11.332 14.207 11.142 14.544 10.983 C 15.931 10.287 17.752 9.761 19.972 9.412 C 20.275 9.362 20.473 9.317 20.473 9.292 C 20.473 9.236 20.24 8.752 20.152 8.632 C 20.095 8.561 20.024 8.502 19.944 8.459 Z M 14.808 6.217 L 14.744 6.219 C 14.461 6.237 14.179 6.267 13.898 6.309 C 13.696 6.341 13.661 6.359 13.682 6.409 C 13.922 6.987 14.304 8.127 14.275 8.18 C 14.268 8.194 14.141 8.085 13.993 7.944 C 13.845 7.799 13.707 7.683 13.689 7.683 C 13.672 7.683 13.665 7.725 13.675 7.778 C 13.685 7.834 13.715 8.215 13.735 8.625 C 13.76 9.038 13.792 9.395 13.805 9.419 C 13.862 9.511 13.915 9.384 13.968 9.02 C 14 8.819 14.035 8.643 14.046 8.625 C 14.06 8.611 14.166 8.727 14.279 8.883 C 14.392 9.038 14.509 9.165 14.529 9.165 C 14.577 9.159 14.624 9.145 14.667 9.123 C 14.737 9.091 14.755 9.059 14.755 8.96 C 14.755 8.632 14.512 7.478 14.332 6.963 C 14.293 6.846 14.268 6.743 14.279 6.733 C 14.356 6.66 15.002 7.682 15.362 8.433 L 15.542 8.819 L 15.666 8.798 L 15.716 8.788 C 15.755 8.781 15.792 8.766 15.825 8.745 C 15.899 8.671 15.292 6.98 14.992 6.433 C 14.928 6.317 14.865 6.218 14.844 6.218 L 14.808 6.217 Z M 12.616 6.797 C 12.458 6.733 12.218 6.793 11.936 6.973 C 11.847 7.026 11.551 7.195 11.279 7.351 C 10.369 7.859 9.556 8.438 9.578 8.565 C 9.585 8.593 9.609 8.615 9.634 8.607 C 9.659 8.604 9.864 8.551 10.086 8.494 C 10.613 8.35 11.157 8.281 11.703 8.289 L 11.971 8.293 L 12.627 8.311 L 12.652 8.061 L 12.657 7.975 C 12.666 7.809 12.674 7.539 12.677 7.315 L 12.677 7.09 C 12.677 6.846 12.664 6.814 12.617 6.797 L 12.616 6.797 Z M 15.486 6.2 L 15.26 6.201 C 15.193 6.203 15.144 6.209 15.144 6.218 C 15.144 6.228 15.257 6.43 15.394 6.67 C 15.706 7.23 15.994 7.803 16.255 8.388 C 16.291 8.477 16.333 8.561 16.347 8.579 C 16.389 8.629 16.626 8.569 16.626 8.509 C 16.626 8.369 16.126 7.312 15.767 6.68 L 15.697 6.56 L 15.486 6.2 Z M 16.086 6.235 C 15.912 6.235 15.946 6.269 16.188 6.684 C 16.421 7.086 16.978 8.234 16.978 8.307 C 16.978 8.41 17.071 8.41 17.53 8.314 C 17.953 8.23 18.378 8.154 18.804 8.088 C 18.828 8.071 18.588 7.439 18.426 7.083 C 18.179 6.553 18.094 6.419 17.985 6.394 L 17.808 6.359 C 17.758 6.349 17.431 6.317 17.078 6.289 C 16.783 6.263 16.488 6.245 16.192 6.235 L 16.135 6.235 L 16.086 6.235 Z"/>
  <path d="M16.785 10.672c.088.215.134.445.18.928.046.516.13 1.229.18 1.525.021.152.081.184.081.046 0-.05-.025-.244-.053-.434a31.87 31.87 0 01-.106-.96 11.384 11.384 0 00-.092-.77c-.045-.215-.127-.395-.176-.395-.025 0-.028.025-.014.06zm.759 4.13c0 .155.494 1.291.656 1.507.11.151.081.014-.046-.216a7.12 7.12 0 01-.47-1.034c-.08-.226-.14-.335-.14-.257z" />
</svg>
