<?xml version="1.0" encoding="utf-8"?>
<svg fill="#d1d1d1" width="32" height="32" viewBox="0 0 96 96" xmlns="http://www.w3.org/2000/svg">
  <path fill-rule="evenodd" clip-rule="evenodd" d="M 15 48 C 14.951 73.403 42.421 89.333 64.445 76.674 C 74.667 70.799 80.977 59.917 81 48.127 L 81 47.874 C 80.989 45.334 80.686 42.804 80.097 40.333 C 79.518 37.67 76.274 36.632 74.257 38.464 C 73.284 39.349 72.881 40.7 73.211 41.973 C 77.86 61.388 59.747 78.555 40.609 72.873 C 21.47 67.191 15.66 42.922 30.15 29.189 C 36.511 23.159 45.489 20.751 54.014 22.787 C 56.677 23.366 58.968 20.844 58.137 18.249 C 57.767 17.092 56.83 16.206 55.654 15.901 C 34.915 10.952 14.997 26.678 15 48 Z M 64.61 23.944 C 64.631 23.915 64.655 23.889 64.68 23.864 L 64.682 23.866 C 67.549 21.006 72.436 22.323 73.479 26.235 C 73.882 27.744 73.592 29.354 72.69 30.629 C 72.521 30.872 72.334 31.1 72.129 31.313 C 71.265 32.181 70.124 32.718 68.905 32.83 L 68.857 32.83 C 68.757 32.83 68.657 32.835 68.558 32.841 C 68.458 32.847 68.359 32.852 68.26 32.852 C 68.228 32.854 68.196 32.858 68.164 32.863 C 68.127 32.87 68.09 32.874 68.052 32.875 C 62.331 33.356 58.364 38.796 59.655 44.39 C 59.658 44.402 59.663 44.414 59.668 44.426 C 59.675 44.446 59.683 44.466 59.683 44.488 C 59.736 44.712 59.793 44.931 59.863 45.152 C 60.669 48.54 59.989 52.11 57.995 54.965 C 57.59 55.56 57.132 56.118 56.627 56.631 C 49.98 63.277 38.631 60.235 36.199 51.156 C 35.07 46.942 36.275 42.446 39.36 39.362 C 39.426 39.296 39.498 39.236 39.569 39.177 C 39.623 39.132 39.678 39.086 39.73 39.037 C 42.72 36.253 46.909 35.16 50.878 36.127 C 56.589 37.945 62.524 34.04 63.113 28.075 L 63.13 27.945 C 63.145 27.861 63.153 27.776 63.155 27.691 L 63.155 27.13 C 63.259 25.962 63.752 24.863 64.557 24.01 C 64.577 23.988 64.594 23.966 64.611 23.944 L 64.61 23.944 Z" />
</svg>
