<?xml version="1.0" encoding="utf-8"?>
<svg fill="#d1d1d1" width="32" height="32" viewBox="0 0 32 32" xmlns="http://www.w3.org/2000/svg">
  <path d="M 14.618 17.546 L 16.545 26.193 L 16.572 26.271 C 16.618 26.371 16.702 26.45 16.808 26.488 C 16.941 26.537 17.09 26.513 17.2 26.424 L 22.484 22.542 L 22.545 22.489 C 22.724 22.298 22.671 21.99 22.44 21.869 L 14.618 17.546 Z M 14.754 6.203 C 14.618 6.114 14.442 6.117 14.309 6.209 L 9.167 10.152 L 9.073 10.233 C 8.867 10.433 8.749 10.711 8.75 11.002 L 8.75 21.008 L 8.756 21.133 C 8.786 21.423 8.933 21.69 9.167 21.869 L 14.284 25.801 L 14.354 25.839 C 14.635 25.96 14.943 25.732 14.907 25.427 C 14.906 25.417 14.904 25.406 14.902 25.396 L 12.919 16.002 L 14.927 6.613 L 14.934 6.533 C 14.933 6.4 14.865 6.276 14.754 6.203 Z M 23.059 11.728 C 22.93 11.656 22.772 11.659 22.647 11.737 L 14.927 16.162 L 22.647 20.585 L 22.727 20.621 C 22.992 20.71 23.267 20.512 23.265 20.232 L 23.265 12.086 L 23.257 11.999 C 23.233 11.885 23.161 11.786 23.059 11.729 L 23.059 11.728 Z M 17.135 5.853 C 16.898 5.737 16.615 5.865 16.545 6.119 L 14.618 14.766 L 22.438 10.443 L 22.505 10.399 C 22.704 10.236 22.694 9.928 22.484 9.779 L 17.206 5.897 L 17.135 5.853 Z"/>
</svg>
