<?xml version="1.0" encoding="utf-8"?>
<svg fill="#d1d1d1" width="32" height="32" viewBox="0 0 32 32" xmlns="http://www.w3.org/2000/svg">
  <path d="M 22.278 9.402 C 21.771 9.713 20.813 10.629 20.417 10.907 C 20.021 11.186 19.007 11.445 17.375 12.38 C 15.743 13.315 9.34 17.24 9.34 17.24 L 11.007 17.26 L 3.577 20.915 L 4.319 20.915 L 3.25 21.691 C 3.25 21.691 4.194 21.93 4.986 21.452 L 4.986 21.671 C 4.986 21.671 13.833 18.341 15.542 19.204 L 14.5 19.495 C 14.59 19.495 16.27 19.602 16.27 19.602 C 16.27 19.602 16.326 20.603 17.34 21.246 C 18.354 21.883 18.375 22.235 18.375 22.235 C 18.375 22.235 17.847 22.44 17.847 22.699 C 17.847 22.699 18.625 22.473 19.347 22.493 C 20.069 22.513 20.701 22.699 20.701 22.699 C 20.701 22.699 20.646 22.42 19.944 22.235 C 19.236 22.042 18.549 21.319 18.208 20.921 C 17.786 20.414 17.677 19.716 17.924 19.104 C 18.167 18.501 19.014 18.169 20.764 17.307 C 22.826 16.285 23.299 15.529 23.59 14.939 C 23.882 14.349 24.313 13.175 24.556 12.624 C 24.861 11.914 25.236 11.536 25.549 11.311 C 25.854 11.085 27.25 10.588 27.25 10.588 C 27.25 10.588 26.187 9.706 25.847 9.448 C 25.487 9.175 25.056 8.804 24.271 8.711 C 23.535 8.618 22.785 9.089 22.278 9.401 L 22.278 9.402 Z"/>
</svg>
