<?xml version="1.0" encoding="utf-8"?>
<svg fill="#d1d1d1" width="32" height="32" viewBox="0 0 32 32" xmlns="http://www.w3.org/2000/svg">
  <path d="M 11.437 18.786 L 10.44 18.786 L 10.44 23.876 L 15.722 26.541 L 17.649 25.774 L 17.275 24.853 L 15.77 25.457 L 11.437 23.262 L 11.437 18.786 Z M 19.221 16.514 L 12.251 16.514 L 15.242 19.639 L 15.242 22.399 L 18.875 25.189 L 24.464 21.106 L 24.483 18.651 L 23.4 18.613 L 23.42 20.731 L 18.895 23.962 L 16.23 21.92 L 16.23 19.64 L 19.221 16.515 L 19.221 16.514 Z M 14.246 13.35 L 10.708 13.35 L 6.538 15.526 L 6.5 21.02 L 8.877 22.688 L 9.453 21.873 L 7.507 20.502 L 7.535 16.064 L 10.929 14.367 L 10.939 14.367 L 14.246 15.786 L 14.246 13.35 Z M 23.122 9.247 L 22.509 10.014 L 24.388 11.596 L 24.398 16.13 L 20.39 18.661 L 20.927 19.504 L 25.481 16.677 L 25.471 11.127 L 23.122 9.247 Z M 15.818 5.25 L 13.412 6.544 L 14.389 7.11 L 15.789 6.381 L 20.198 8.95 L 20.198 13.331 L 17.581 13.331 L 17.581 13.336 L 17.562 13.331 L 17.572 15.795 L 21.186 14.338 L 21.186 8.394 L 15.818 5.25 Z M 12.05 6.966 L 6.539 10.34 L 6.519 13.705 L 7.516 13.715 L 7.526 10.896 L 12.069 8.116 L 12.079 8.106 L 15.741 10.197 L 16.221 9.334 L 12.07 6.975 L 12.05 6.965 L 12.05 6.966 Z"/>
</svg>
