<?xml version="1.0" encoding="utf-8"?>
<svg fill="#d1d1d1" width="32" height="32" viewBox="0 0 32 32" xmlns="http://www.w3.org/2000/svg">
  <path d="M 24.92 15.62 L 25.471 15.233 C 25.469 15.231 25.468 15.229 25.466 15.227 L 26.163 14.74 C 28.573 13.049 28.573 9.478 26.163 7.787 L 26.171 7.797 L 22.21 5.02 L 17.31 8.449 L 18.624 9.374 L 22.204 6.869 L 25.294 9.036 C 26.848 10.122 26.848 12.423 25.294 13.509 L 23.597 14.693 L 9.78 5 L 5.809 7.791 C 3.399 9.482 3.399 13.053 5.809 14.744 L 7.05 15.615 L 6.746 15.829 L 6.751 15.836 L 5.809 16.494 C 3.399 18.185 3.399 21.756 5.809 23.447 L 9.766 26.226 L 14.663 22.797 L 13.349 21.871 L 9.763 24.377 L 6.673 22.21 C 5.119 21.124 5.119 18.823 6.673 17.737 L 8.378 16.547 L 22.194 26.239 L 26.166 23.447 C 28.576 21.756 28.576 18.185 26.166 16.494 L 24.919 15.62 L 24.92 15.62 Z M 23.594 16.55 L 25.291 17.74 C 26.845 18.826 26.845 21.127 25.291 22.213 L 22.197 24.377 L 9.707 15.62 L 14.673 12.154 L 13.353 11.226 L 12.986 11.482 L 12.976 11.467 L 8.376 14.687 L 6.683 13.5 C 5.129 12.414 5.129 10.113 6.683 9.027 L 9.776 6.863 L 22.268 15.62 L 17.294 19.091 L 18.609 20.017 L 22.319 17.425 L 22.329 17.437 L 23.594 16.55 Z"/>
</svg>
