<?xml version="1.0" encoding="utf-8"?>
<svg fill="#d1d1d1" width="32" height="32" viewBox="0 0 32 32" xmlns="http://www.w3.org/2000/svg">
  <path d="M 14.225 23.483 L 14.225 26.992 L 17.733 26.992 L 17.733 23.483 L 14.225 23.483 Z M 14.225 8 L 14.225 11.508 L 17.733 11.508 L 17.733 8 L 14.225 8 Z M 22.492 8 L 22.492 11.508 L 26 11.508 L 26 8 L 22.492 8 Z M 6 8 L 6 11.508 L 9.508 11.508 L 9.508 8 L 6 8 Z M 18.358 15.742 L 18.358 19.25 L 21.867 19.25 L 21.867 15.742 L 18.358 15.742 Z M 10.083 15.742 L 10.083 19.25 L 13.592 19.25 L 13.592 15.742 L 10.083 15.742 Z"/>
</svg>
