<?xml version="1.0" encoding="utf-8"?>
<svg fill="#d1d1d1" height="32" viewBox="0 0 32 32" width="32" xmlns="http://www.w3.org/2000/svg">
  <path d="M 14.249 24.958 L 16.716 22.172 C 16.758 22.13 16.73 22.061 16.661 22.061 L 13.944 22.061 C 13.923 22.058 13.903 22.048 13.888 22.033 L 11.587 19.443 C 11.573 19.414 11.559 19.386 11.573 19.359 L 15.427 12.714 C 15.441 12.686 15.441 12.658 15.427 12.644 L 13.833 9.886 C 13.805 9.845 13.736 9.845 13.708 9.886 L 8.01 19.721 C 7.996 19.747 7.996 19.778 8.01 19.804 L 12.585 24.972 C 12.599 24.986 12.613 25 12.641 25 L 14.193 25 C 14.207 24.986 14.235 24.972 14.249 24.958 Z M 15.939 6.042 L 14.333 8.8 C 14.319 8.828 14.319 8.856 14.333 8.87 L 15.996 11.739 L 20.405 19.345 C 20.419 19.372 20.419 19.4 20.391 19.428 L 18.062 22.047 L 15.581 24.861 C 15.539 24.902 15.567 24.972 15.636 24.972 L 19.351 24.972 C 19.372 24.969 19.392 24.959 19.407 24.944 L 23.981 19.776 C 23.995 19.749 24.009 19.721 23.995 19.693 L 16.051 6.042 C 16.037 5.986 15.968 5.986 15.94 6.042 L 15.939 6.042 Z"/>
</svg>
