<?xml version="1.0" encoding="utf-8"?>
<svg fill="#d1d1d1" height="32" viewBox="0 0 32 32" width="32" xmlns="http://www.w3.org/2000/svg">
  <path d="M 15.813 6.048 L 15.813 6.05 L 7.597 10.68 C 7.355 10.812 7.348 11.157 7.583 11.3 C 7.588 11.303 7.592 11.305 7.597 11.308 L 14.753 15.326 C 15 15.045 15.339 14.856 15.713 14.79 L 15.713 12.592 C 14.943 12.458 14.359 11.804 14.359 11.016 C 14.359 10.131 15.095 9.413 16.004 9.413 C 16.913 9.413 17.649 10.131 17.649 11.016 C 17.649 11.809 17.059 12.466 16.283 12.594 L 16.283 14.787 C 16.661 14.851 17.006 15.041 17.256 15.327 L 24.411 11.293 C 24.525 11.23 24.596 11.109 24.596 10.979 C 24.596 10.848 24.524 10.728 24.41 10.665 L 16.185 6.047 C 16.069 5.982 15.929 5.982 15.813 6.047 L 15.813 6.048 Z M 24.433 11.867 L 24.435 11.866 L 17.527 15.76 C 17.682 16.125 17.691 16.534 17.553 16.905 L 19.503 17.998 C 19.763 17.628 20.17 17.383 20.624 17.321 C 21.524 17.197 22.356 17.808 22.483 18.684 C 22.61 19.56 21.983 20.372 21.083 20.496 C 20.183 20.619 19.351 20.009 19.225 19.132 C 19.195 18.922 19.207 18.709 19.262 18.504 L 17.272 17.389 C 17.022 17.683 16.672 17.879 16.285 17.944 L 16.292 25.637 C 16.292 25.917 16.602 26.091 16.849 25.951 L 24.814 21.461 C 24.928 21.398 25 21.278 25 21.147 L 24.992 12.18 C 24.991 12.049 24.92 11.929 24.805 11.866 C 24.69 11.801 24.549 11.801 24.434 11.866 L 24.433 11.867 Z M 7.008 12.18 L 7 21.146 C 7 21.276 7.07 21.396 7.186 21.46 L 15.152 25.95 C 15.399 26.09 15.71 25.916 15.71 25.637 L 15.716 17.942 C 15.336 17.877 14.99 17.681 14.739 17.388 L 12.749 18.503 C 12.805 18.708 12.817 18.923 12.787 19.132 C 12.66 20.008 11.827 20.619 10.928 20.495 C 10.029 20.371 9.402 19.56 9.528 18.684 C 9.656 17.808 10.488 17.197 11.388 17.321 C 11.842 17.383 12.248 17.629 12.509 17.998 L 14.458 16.906 C 14.32 16.536 14.328 16.129 14.481 15.765 L 7.566 11.867 C 7.509 11.834 7.445 11.817 7.38 11.817 C 7.177 11.815 7.011 11.977 7.008 12.18 Z"/>
</svg>
