<?xml version="1.0" encoding="utf-8"?>
<svg fill="#d1d1d1" viewBox="0 0 32 32" xmlns="http://www.w3.org/2000/svg">
  <g fill-rule="evenodd">
    <path d="M 9.291 19.333 L 20.246 25.641 C 22.509 24.359 23.64 23.949 23.64 20.205 L 23.64 7.59 C 21.377 6.308 20.451 5.538 17.211 7.385 L 6.257 13.692 C 6.257 16.256 6.051 17.436 9.291 19.333 Z M 17.525 14.225 L 17.525 17.079 L 15.037 15.652 L 17.525 14.225 Z"/>
    <path d="M17.52 20.205L6.257 13.692l10.954-6.307c3.24-1.847 4.166-1.077 6.429.205l-11.263 6.513 5.143 2.974v3.128z" opacity=".402"/>
    <path d="M12.377 14.103L23.64 7.59v12.615c0 3.744-1.131 4.154-3.394 5.436V12.667L15.05 15.64l-2.674-1.538z" opacity=".802"/>
  </g>
</svg>
