<?xml version="1.0" encoding="utf-8"?>
<svg fill="#d1d1d1" width="32" height="32" viewBox="0 0 32 32" xmlns="http://www.w3.org/2000/svg">
  <path d="M 22.012 25.212 L 9.988 25.212 C 11.775 26.38 13.865 27.002 16 27 C 18.216 27 20.285 26.34 22.012 25.212 Z M 16 5 C 9.922 5 5 9.922 5 16 C 5 17.408 5.264 18.75 5.748 19.988 L 12.793 11.534 L 18.365 18.222 L 19.757 16.55 L 24.8 22.6 L 23.727 22.6 L 19.762 17.837 L 19.762 22.6 L 7.2 22.6 C 7.696 23.254 8.26 23.853 8.883 24.387 L 23.117 24.387 C 25.583 22.299 27.003 19.231 27 16 C 27 9.922 22.078 5 16 5 Z M 12.793 12.821 L 12.793 19.988 L 5.748 19.988 C 5.99 20.615 6.293 21.208 6.639 21.775 L 15.406 21.775 L 17.831 18.865 L 12.794 12.821 L 12.793 12.821 Z M 19.756 9.4 C 21.873 9.457 23.134 11.784 22.026 13.589 C 21.54 14.382 20.686 14.875 19.756 14.9 C 17.639 14.843 16.378 12.516 17.486 10.711 C 17.972 9.918 18.826 9.425 19.756 9.4 Z M 12.793 7.409 C 13.852 7.38 14.545 8.509 14.04 9.44 C 13.793 9.896 13.311 10.174 12.793 10.16 C 11.734 10.131 11.103 8.967 11.657 8.065 C 11.901 7.668 12.328 7.422 12.793 7.409 Z"/>
</svg>
