<?xml version="1.0" encoding="utf-8"?>
<svg fill="#d1d1d1" width="32" height="32" viewBox="0 0 32 32" xmlns="http://www.w3.org/2000/svg">
  <path d="M 10.87 7.662 L 6.627 10.034 C 6.238 10.235 5.996 10.638 6 11.076 L 6 15.856 C 6 16.288 6.221 16.683 6.627 16.899 L 10.871 19.271 C 11.24 19.486 11.72 19.486 12.125 19.271 L 15.004 17.653 L 16.959 16.539 L 19.838 14.922 C 20.207 14.706 20.686 14.706 21.092 14.922 L 23.343 16.18 C 23.713 16.395 23.97 16.79 23.97 17.222 L 23.97 19.774 C 23.97 20.205 23.75 20.6 23.343 20.816 L 21.093 22.11 C 20.723 22.326 20.243 22.326 19.838 22.11 L 17.587 20.852 C 17.217 20.636 16.959 20.241 16.959 19.81 L 16.959 18.156 L 15.004 19.271 L 15.004 20.924 C 15.004 21.355 15.225 21.751 15.631 21.966 L 19.875 24.338 C 20.244 24.554 20.723 24.554 21.129 24.338 L 25.373 21.966 C 25.742 21.751 26 21.356 26 20.924 L 26 16.144 C 26.004 15.706 25.762 15.303 25.373 15.102 L 21.093 12.693 C 20.723 12.478 20.243 12.478 19.838 12.693 L 16.959 14.347 L 15.004 15.425 L 12.125 17.078 C 11.756 17.294 11.277 17.294 10.871 17.078 L 8.583 15.784 C 8.214 15.569 7.956 15.174 7.956 14.742 L 7.956 12.19 C 7.956 11.759 8.177 11.364 8.583 11.148 L 10.833 9.89 C 11.203 9.674 11.683 9.674 12.089 9.89 L 14.339 11.148 C 14.709 11.364 14.967 11.759 14.967 12.19 L 14.967 13.844 L 16.922 12.729 L 16.922 11.076 C 16.926 10.638 16.684 10.235 16.295 10.034 L 12.125 7.662 C 11.756 7.446 11.277 7.446 10.871 7.662 L 10.87 7.662 Z"/>
</svg>
