<?xml version="1.0" encoding="utf-8"?>
<svg fill="#d1d1d1" viewBox="0 0 32 32" xmlns="http://www.w3.org/2000/svg">
  <path fill-rule="evenodd" d="M 15.532 7.064 C 15.246 7.142 14.99 7.293 14.736 7.437 C 12.49 8.717 10.231 9.972 7.976 11.235 C 7.369 11.569 7 12.214 7.019 12.906 C 7.016 16.152 7.04 19.398 7.002 22.643 C 6.98 22.84 7.163 23.013 7.362 22.995 C 8.352 22.997 9.342 23.004 10.332 22.992 C 10.567 22.996 10.687 22.75 10.664 22.548 C 10.687 19.878 10.679 17.209 10.684 14.54 C 10.691 14.252 10.751 13.94 10.976 13.735 C 11.322 13.419 11.755 13.221 12.158 12.989 C 12.561 12.779 12.942 12.525 13.368 12.359 C 13.563 12.289 13.823 12.233 13.986 12.4 C 14.156 12.591 14.152 12.862 14.166 13.1 C 14.18 14.46 14.163 15.82 14.166 17.178 C 14.178 17.416 14.171 17.678 14.312 17.885 C 14.468 18.094 14.756 18.108 14.996 18.134 C 15.562 18.162 16.13 18.141 16.698 18.147 C 17.012 18.142 17.373 18.138 17.612 17.904 C 17.846 17.666 17.836 17.31 17.837 17.004 C 17.806 15.711 17.81 14.417 17.847 13.124 C 17.869 12.864 17.867 12.559 18.072 12.366 C 18.257 12.216 18.512 12.301 18.708 12.379 C 19.226 12.609 19.697 12.925 20.197 13.187 C 20.502 13.355 20.843 13.5 21.059 13.783 C 21.272 14.05 21.335 14.398 21.336 14.728 C 21.309 17.365 21.274 20.003 21.366 22.638 C 21.344 22.851 21.546 23.028 21.756 22.996 C 22.716 22.997 23.678 23.001 24.639 22.995 C 24.883 23.017 25.029 22.772 24.995 22.557 C 24.991 19.462 24.998 16.367 25 13.273 C 25.012 12.339 24.458 11.434 23.625 10.993 C 21.461 9.798 19.306 8.586 17.161 7.358 C 16.681 7.068 16.089 6.901 15.532 7.064 Z"/>
</svg>
