<?xml version="1.0" encoding="utf-8"?>
<svg fill="#d1d1d1" viewBox="0 0 32 32" xmlns="http://www.w3.org/2000/svg">
  <path fill-rule="evenodd" d="M 15.98 5.018 L 15.914 5.018 L 6.5 10.501 L 6.5 21.501 L 15.914 26.981 L 15.991 27 L 25.5 21.5 L 25.5 10.501 L 15.98 5.018 Z M 15.949 6.156 L 16.98 6.728 L 24.5 11.078 L 24.5 20.923 L 16.98 25.248 L 15.948 25.845 L 7.5 20.925 L 7.5 11.076 L 15.949 6.156 Z M 8.809 16.766 L 12.219 22.726 L 13.581 22.726 L 15.193 21.216 L 15.193 20.46 L 13.521 18.848 L 13.521 16.308 L 11.311 14.895 L 8.809 16.767 L 8.809 16.766 Z M 16.712 21.218 L 18.322 22.709 L 19.666 22.709 L 23.059 16.767 L 20.563 14.878 L 18.376 16.308 L 18.376 18.848 L 16.709 20.458 L 16.712 21.218 Z M 14.342 16.308 L 14.092 18.698 L 15.937 18.694 L 17.804 18.69 L 17.568 16.308 L 18.366 14.177 L 13.528 14.177 L 14.341 16.308 L 14.342 16.308 Z M 15.937 13.593 L 20.559 13.596 L 19.658 9.771 L 12.194 9.771 L 11.339 13.591 L 15.937 13.593 Z"/>
</svg>
