<?xml version="1.0" encoding="utf-8"?>
<svg fill="#d1d1d1" height="32" viewBox="0 0 32 32" width="32" xmlns="http://www.w3.org/2000/svg">
  <path d="M 20.663 7.992 C 19.419 6.636 17.879 6 16.013 6 C 14.122 6 12.581 6.636 11.338 7.936 C 10.095 9.21 9.5 10.841 9.5 12.805 C 9.5 14.741 10.122 16.374 11.365 17.674 C 12.338 18.697 13.5 19.306 14.825 19.527 L 14.825 20.689 L 12.095 20.689 L 12.095 21.934 L 14.851 21.934 L 14.851 22.598 L 12.095 22.598 L 12.095 23.759 L 14.825 23.759 L 14.825 26 L 17.175 26 L 17.175 23.76 L 19.932 23.76 L 19.932 22.598 L 17.148 22.598 L 17.148 21.934 L 19.932 21.934 L 19.932 20.689 L 17.176 20.689 L 17.176 19.555 C 18.527 19.333 19.689 18.725 20.662 17.701 C 21.879 16.401 22.5 14.769 22.5 12.833 C 22.5 10.923 21.879 9.292 20.663 7.992 Z M 18.122 15.378 C 17.608 16.042 16.879 16.374 16.014 16.374 C 15.176 16.374 14.474 16.042 13.933 15.378 C 13.392 14.714 13.121 13.856 13.121 12.778 C 13.121 11.726 13.391 10.896 13.933 10.233 C 14.473 9.569 15.176 9.237 16.013 9.237 C 16.825 9.237 17.527 9.569 18.068 10.26 C 18.635 10.924 18.906 11.782 18.906 12.805 C 18.906 13.856 18.636 14.714 18.122 15.378 Z"/>
</svg>
