<?xml version="1.0" encoding="utf-8"?>
<svg fill="#d1d1d1" height="32" viewBox="0 0 32 32" width="32" xmlns="http://www.w3.org/2000/svg">
  <path d="M 14.22 15.589 C 15.38 15.589 16.105 14.333 15.525 13.328 C 15.256 12.862 14.758 12.575 14.22 12.575 C 13.06 12.575 12.335 13.831 12.915 14.836 C 13.184 15.302 13.682 15.589 14.22 15.589 Z M 17.918 15.589 C 19.078 15.589 19.803 14.333 19.223 13.328 C 18.954 12.862 18.456 12.575 17.918 12.575 C 16.758 12.575 16.033 13.831 16.613 14.836 C 16.882 15.302 17.38 15.589 17.918 15.589 Z M 14.219 19.288 C 15.379 19.288 16.104 18.032 15.524 17.028 C 15.255 16.561 14.757 16.274 14.219 16.274 C 13.059 16.274 12.334 17.53 12.914 18.534 C 13.183 19.001 13.681 19.288 14.219 19.288 Z M 17.918 19.288 C 19.078 19.288 19.803 18.032 19.223 17.028 C 18.954 16.561 18.456 16.274 17.918 16.274 C 16.758 16.274 16.033 17.53 16.613 18.534 C 16.882 19.001 17.38 19.288 17.918 19.288 Z M 21.616 15.178 C 22.46 15.178 22.987 14.265 22.565 13.534 C 22.369 13.195 22.008 12.986 21.616 12.986 C 20.772 12.986 20.245 13.899 20.667 14.63 C 20.863 14.969 21.224 15.178 21.616 15.178 Z M 21.616 18.877 C 22.46 18.877 22.987 17.964 22.565 17.233 C 22.369 16.894 22.008 16.685 21.616 16.685 C 20.772 16.685 20.245 17.598 20.667 18.329 C 20.863 18.668 21.224 18.877 21.616 18.877 Z M 10.384 15.178 C 11.228 15.178 11.755 14.265 11.333 13.534 C 11.137 13.195 10.776 12.986 10.384 12.986 C 9.54 12.986 9.013 13.899 9.435 14.63 C 9.631 14.969 9.992 15.178 10.384 15.178 Z M 10.384 18.877 C 11.228 18.877 11.755 17.964 11.333 17.233 C 11.137 16.894 10.776 16.685 10.384 16.685 C 9.54 16.685 9.013 17.598 9.435 18.329 C 9.631 18.668 9.992 18.877 10.384 18.877 Z M 14.219 22.575 C 15.062 22.6 15.617 21.703 15.217 20.96 C 15.021 20.595 14.634 20.371 14.219 20.384 C 13.376 20.409 12.876 21.338 13.32 22.056 C 13.513 22.369 13.851 22.564 14.219 22.575 Z M 17.918 22.575 C 18.761 22.6 19.316 21.703 18.916 20.96 C 18.72 20.595 18.333 20.371 17.918 20.384 C 17.075 20.409 16.575 21.338 17.019 22.056 C 17.212 22.369 17.55 22.564 17.918 22.575 Z M 14.219 11.48 C 15.062 11.505 15.617 10.608 15.217 9.865 C 15.021 9.5 14.634 9.276 14.219 9.289 C 13.376 9.314 12.876 10.243 13.32 10.961 C 13.513 11.274 13.851 11.469 14.219 11.48 Z M 17.918 11.48 C 18.761 11.505 19.316 10.608 18.916 9.865 C 18.72 9.5 18.333 9.276 17.918 9.289 C 17.075 9.314 16.575 10.243 17.019 10.961 C 17.212 11.274 17.55 11.469 17.918 11.48 Z M 14.219 7.37 C 14.746 7.39 15.097 6.832 14.851 6.366 C 14.728 6.133 14.482 5.991 14.219 6.001 C 13.692 6.001 13.362 6.572 13.626 7.029 C 13.748 7.24 13.974 7.371 14.219 7.371 L 14.219 7.37 Z M 17.918 7.37 C 18.445 7.39 18.796 6.832 18.55 6.366 C 18.427 6.133 18.181 5.991 17.918 6.001 C 17.391 6.001 17.061 6.572 17.325 7.029 C 17.447 7.24 17.673 7.371 17.918 7.371 L 17.918 7.37 Z M 25.315 14.768 C 25.842 14.768 26.172 14.197 25.908 13.741 C 25.786 13.529 25.56 13.398 25.315 13.398 C 24.788 13.398 24.458 13.969 24.722 14.426 C 24.844 14.637 25.07 14.768 25.315 14.768 Z M 25.315 18.467 C 25.842 18.467 26.172 17.896 25.908 17.439 C 25.786 17.228 25.56 17.097 25.315 17.097 C 24.788 17.097 24.458 17.668 24.722 18.124 C 24.844 18.336 25.07 18.467 25.315 18.467 Z M 6.685 14.768 C 7.212 14.768 7.542 14.197 7.278 13.74 C 7.156 13.529 6.93 13.398 6.685 13.398 C 6.158 13.398 5.828 13.969 6.092 14.426 C 6.214 14.637 6.44 14.768 6.685 14.768 Z M 6.685 18.467 C 7.212 18.467 7.542 17.896 7.278 17.439 C 7.156 17.228 6.93 17.097 6.685 17.097 C 6.158 17.097 5.828 17.668 6.092 18.124 C 6.214 18.336 6.44 18.467 6.685 18.467 Z M 14.219 26 C 14.746 26 15.076 25.429 14.812 24.972 C 14.69 24.761 14.464 24.63 14.219 24.63 C 13.692 24.63 13.362 25.201 13.626 25.658 C 13.748 25.869 13.974 26 14.219 26 Z M 17.918 26 C 18.445 26 18.775 25.429 18.511 24.972 C 18.389 24.761 18.163 24.63 17.918 24.63 C 17.391 24.63 17.061 25.201 17.325 25.658 C 17.447 25.869 17.673 26 17.918 26 Z" fill-rule="evenodd"/>
</svg>
