<?xml version="1.0" encoding="utf-8"?>
<svg fill="#d1d1d1" width="32" height="32" viewBox="0 0 32 32" xmlns="http://www.w3.org/2000/svg">
  <path d="M 9.916 21.379 C 10.343 19.452 11.422 14.602 11.534 14.041 C 11.59 14.266 13.699 21.063 14.758 24.368 L 9.916 21.38 L 9.916 21.379 Z M 17.15 24.427 C 17.15 24.427 20.454 14.21 20.51 14.041 C 20.566 14.21 21.62 18.965 22.147 21.231 L 17.15 24.427 Z M 16.696 26.263 C 16.696 26.263 22.947 22.371 23.034 22.344 C 23.427 22.232 23.595 21.895 23.483 21.39 C 22.978 19.259 21.52 12.639 21.239 11.517 C 21.206 11.384 21.032 11.156 20.959 11.069 L 16.471 4.337 C 16.471 4.337 16.078 3.832 15.461 4.337 L 10.926 11.27 C 10.842 11.396 10.782 11.537 10.749 11.685 C 10.693 12.135 9.178 18.642 8.561 21.446 C 8.505 21.783 8.561 22.063 8.841 22.232 C 8.949 22.303 15.146 26.2 15.146 26.2 C 15.33 26.371 15.669 26.546 15.955 26.542 C 16.339 26.537 16.537 26.353 16.696 26.263 Z M 19.923 11.788 C 19.896 11.885 16.302 23.073 16.078 23.858 L 15.91 23.858 C 14.681 19.838 13.397 15.762 12.113 11.742 L 15.966 5.907 L 19.923 11.789 L 19.923 11.788 Z"/>
</svg>
