<?xml version="1.0" encoding="utf-8"?>
<svg fill="#d1d1d1" viewBox="0 0 32 32" xmlns="http://www.w3.org/2000/svg">
  <path fill-rule="evenodd" d="M 22.257 6.77 C 22.257 6.068 21.687 5.5 20.983 5.5 C 20.279 5.5 19.709 6.068 19.709 6.77 C 19.709 7.471 20.279 8.04 20.983 8.04 C 21.687 8.04 22.257 7.471 22.257 6.77 Z M 21.339 11.194 C 21.935 11.194 22.418 10.712 22.418 10.118 C 22.418 9.524 21.935 9.043 21.338 9.043 C 20.51 9 19.946 9.869 20.322 10.608 C 20.515 10.987 20.914 11.217 21.339 11.194 Z M 21.004 13.847 C 21.507 13.848 21.916 13.44 21.916 12.937 C 21.915 12.434 21.507 12.027 21.004 12.028 C 20.501 12.027 20.092 12.435 20.092 12.938 C 20.093 13.441 20.501 13.848 21.004 13.847 Z M 20.95 15.219 C 20.95 14.619 20.3 14.243 19.78 14.544 C 19.539 14.683 19.39 14.94 19.39 15.219 C 19.39 15.819 20.04 16.195 20.56 15.894 C 20.801 15.755 20.95 15.498 20.95 15.219 Z M 19.716 16.943 C 19.715 16.428 19.158 16.108 18.712 16.366 C 18.506 16.485 18.379 16.706 18.379 16.945 C 18.38 17.46 18.937 17.78 19.383 17.522 C 19.589 17.403 19.716 17.182 19.716 16.943 Z M 18.366 18.166 C 18.384 17.724 17.917 17.429 17.526 17.635 C 17.329 17.738 17.209 17.946 17.219 18.168 C 17.238 18.609 17.728 18.865 18.101 18.627 C 18.259 18.526 18.358 18.354 18.366 18.166 Z M 25.24 10.757 C 25.429 9.945 24.668 9.233 23.87 9.475 C 23.5 9.588 23.218 9.889 23.13 10.266 C 22.972 11.085 23.761 11.768 24.55 11.495 C 24.887 11.378 25.146 11.102 25.24 10.757 Z M 24.722 13.56 C 24.883 12.873 24.239 12.269 23.563 12.474 C 23.25 12.569 23.01 12.824 22.936 13.143 C 22.775 13.83 23.419 14.434 24.095 14.229 C 24.408 14.134 24.648 13.879 24.722 13.56 Z M 23.758 15.797 C 23.87 15.21 23.305 14.722 22.741 14.918 C 22.5 15.002 22.316 15.198 22.248 15.444 C 22.112 16.025 22.656 16.536 23.228 16.363 C 23.493 16.282 23.695 16.067 23.758 15.797 Z M 22.516 17.5 C 22.599 17.144 22.377 16.789 22.021 16.707 C 21.525 16.592 21.091 17.057 21.24 17.544 C 21.388 18.031 22.008 18.174 22.355 17.802 C 22.434 17.717 22.49 17.613 22.516 17.5 Z M 21.159 18.689 C 21.259 18.263 20.86 17.888 20.441 18.014 C 20.246 18.073 20.097 18.231 20.051 18.429 C 19.951 18.855 20.35 19.23 20.769 19.104 C 20.964 19.045 21.113 18.887 21.159 18.689 Z M 19.804 19.44 C 19.904 19.078 19.575 18.743 19.211 18.838 C 19.028 18.885 18.889 19.034 18.854 19.22 C 18.785 19.589 19.141 19.895 19.495 19.77 C 19.646 19.717 19.761 19.594 19.804 19.44 Z M 26.908 14.584 C 27.13 14.126 26.938 13.575 26.479 13.355 C 26.021 13.134 25.471 13.325 25.248 13.782 C 25.025 14.239 25.217 14.791 25.676 15.011 C 26.134 15.233 26.685 15.042 26.908 14.584 Z M 25.947 16.799 C 26.136 16.41 25.973 15.941 25.582 15.754 C 25.192 15.567 24.724 15.73 24.534 16.118 C 24.295 16.673 24.747 17.279 25.347 17.208 C 25.602 17.178 25.826 17.025 25.947 16.799 Z M 24.739 18.479 C 24.945 18 24.556 17.477 24.037 17.537 C 23.817 17.563 23.624 17.695 23.519 17.89 C 23.355 18.226 23.496 18.631 23.833 18.793 C 24.17 18.955 24.574 18.816 24.739 18.48 L 24.739 18.479 Z M 23.393 19.667 C 23.534 19.375 23.412 19.024 23.12 18.883 C 22.713 18.686 22.246 19.003 22.278 19.454 C 22.294 19.663 22.419 19.849 22.608 19.94 C 22.9 20.08 23.251 19.958 23.393 19.667 Z M 22.038 20.399 C 22.179 20.038 21.876 19.659 21.493 19.717 C 21.342 19.74 21.21 19.83 21.133 19.962 C 20.98 20.318 21.27 20.705 21.655 20.66 C 21.817 20.64 21.96 20.543 22.038 20.399 Z M 20.765 20.768 C 20.867 20.556 20.779 20.302 20.567 20.2 C 20.272 20.057 19.933 20.286 19.956 20.613 C 19.967 20.765 20.058 20.9 20.195 20.966 C 20.407 21.068 20.662 20.979 20.765 20.768 Z M 21.801 25.624 C 22.411 25.974 23.191 25.766 23.541 25.158 C 23.892 24.55 23.682 23.773 23.073 23.424 C 22.464 23.074 21.686 23.282 21.333 23.89 C 20.982 24.498 21.192 25.276 21.801 25.624 Z M 18.811 24.092 C 19.327 24.389 19.986 24.212 20.284 23.697 C 20.581 23.182 20.403 22.525 19.888 22.229 C 19.372 21.933 18.714 22.109 18.415 22.624 C 18.117 23.138 18.295 23.797 18.811 24.092 Z M 16.609 22.252 C 17.046 22.503 17.603 22.353 17.855 21.917 C 18.106 21.482 17.956 20.925 17.52 20.676 C 17.084 20.425 16.527 20.574 16.274 21.009 C 16.022 21.445 16.172 22.002 16.609 22.252 Z M 15.108 20.278 C 15.481 20.492 15.956 20.365 16.172 19.993 C 16.387 19.621 16.26 19.146 15.887 18.932 C 15.369 18.632 14.721 19.006 14.72 19.604 C 14.72 19.882 14.868 20.139 15.108 20.278 Z M 14.225 18.352 C 14.546 18.537 14.955 18.427 15.14 18.106 C 15.324 17.787 15.213 17.379 14.894 17.196 C 14.574 17.012 14.164 17.121 13.979 17.441 C 13.795 17.76 13.905 18.169 14.225 18.352 Z M 13.836 16.575 C 14.218 16.796 14.696 16.52 14.696 16.079 C 14.697 15.874 14.587 15.685 14.41 15.582 C 14.135 15.424 13.784 15.518 13.625 15.792 C 13.466 16.066 13.561 16.418 13.836 16.575 Z M 17.586 26.501 C 18.184 26.501 18.669 26.018 18.669 25.421 C 18.669 24.825 18.184 24.342 17.586 24.342 C 16.755 24.317 16.208 25.2 16.602 25.933 C 16.796 26.293 17.177 26.513 17.586 26.501 Z M 14.668 24.363 C 15.038 24.708 15.617 24.689 15.964 24.321 C 16.31 23.953 16.291 23.374 15.922 23.029 C 15.552 22.684 14.972 22.703 14.625 23.071 C 14.279 23.439 14.298 24.019 14.668 24.363 Z M 13.203 22.415 C 13.516 22.707 14.007 22.691 14.3 22.379 C 14.594 22.068 14.578 21.577 14.264 21.286 C 13.951 20.994 13.461 21.01 13.168 21.322 C 12.875 21.633 12.891 22.123 13.203 22.415 Z M 12.344 20.491 C 12.612 20.741 13.031 20.727 13.281 20.461 C 13.531 20.195 13.518 19.776 13.251 19.527 C 12.984 19.277 12.565 19.291 12.314 19.557 C 12.063 19.823 12.076 20.242 12.344 20.491 Z M 11.988 18.727 C 12.218 18.942 12.578 18.93 12.793 18.701 C 13.008 18.473 12.996 18.113 12.767 17.899 C 12.537 17.684 12.177 17.696 11.962 17.926 C 11.748 18.154 11.759 18.513 11.988 18.727 Z M 12.012 17.181 C 12.306 17.416 12.744 17.245 12.801 16.873 C 12.823 16.727 12.779 16.58 12.68 16.471 C 12.483 16.288 12.175 16.297 11.99 16.493 C 11.805 16.689 11.815 16.998 12.012 17.181 Z M 12.687 25.741 C 12.975 26.161 13.547 26.269 13.969 25.983 C 14.39 25.699 14.5 25.126 14.213 24.707 C 13.926 24.287 13.352 24.178 12.931 24.464 C 12.51 24.749 12.401 25.321 12.687 25.741 Z M 11.241 23.805 C 11.486 24.162 11.973 24.254 12.331 24.011 C 12.69 23.769 12.783 23.281 12.539 22.924 C 12.294 22.567 11.807 22.475 11.449 22.718 C 11.09 22.96 10.997 23.448 11.241 23.805 Z M 10.383 21.922 C 10.594 22.231 11.015 22.311 11.325 22.102 C 11.635 21.892 11.715 21.471 11.504 21.162 C 11.293 20.853 10.871 20.774 10.562 20.984 C 10.252 21.194 10.172 21.614 10.382 21.922 L 10.383 21.922 Z M 10.023 20.168 C 10.206 20.435 10.571 20.505 10.84 20.323 C 11.11 20.142 11.18 19.776 10.996 19.508 C 10.812 19.24 10.447 19.171 10.178 19.353 C 9.91 19.535 9.84 19.9 10.023 20.168 Z M 10.063 18.632 C 10.303 18.936 10.782 18.867 10.925 18.507 C 10.983 18.364 10.971 18.202 10.893 18.068 C 10.736 17.84 10.424 17.781 10.195 17.936 C 9.966 18.091 9.906 18.403 10.062 18.632 L 10.063 18.632 Z M 10.377 17.349 C 10.582 17.607 10.989 17.547 11.11 17.241 C 11.159 17.119 11.148 16.982 11.083 16.869 C 10.887 16.605 10.478 16.653 10.348 16.955 C 10.293 17.083 10.304 17.23 10.377 17.348 L 10.377 17.349 Z M 5.637 15.807 C 5.028 16.157 4.819 16.934 5.171 17.542 C 5.522 18.148 6.301 18.357 6.911 18.007 C 7.519 17.657 7.729 16.88 7.377 16.273 C 7.024 15.665 6.246 15.457 5.637 15.807 Z M 8.467 13.997 C 7.952 14.293 7.775 14.951 8.072 15.465 C 8.369 15.978 9.029 16.155 9.545 15.859 C 10.062 15.562 10.238 14.905 9.941 14.39 C 9.642 13.875 8.983 13.698 8.467 13.996 L 8.467 13.997 Z M 11.168 13.02 C 10.732 13.27 10.582 13.827 10.834 14.262 C 11.087 14.697 11.643 14.846 12.08 14.596 C 12.516 14.345 12.665 13.788 12.414 13.353 C 12.161 12.918 11.604 12.77 11.168 13.02 Z M 13.635 12.714 C 13.262 12.927 13.134 13.402 13.348 13.774 C 13.563 14.148 14.041 14.276 14.414 14.06 C 14.787 13.846 14.914 13.371 14.699 12.999 C 14.483 12.627 14.008 12.5 13.635 12.714 Z M 15.749 12.918 C 15.429 13.102 15.319 13.511 15.504 13.83 C 15.785 14.263 16.428 14.23 16.663 13.77 C 16.76 13.58 16.761 13.354 16.664 13.163 C 16.479 12.843 16.069 12.733 15.749 12.918 Z M 17.487 13.472 C 17.105 13.693 17.105 14.245 17.488 14.465 C 17.665 14.568 17.884 14.568 18.061 14.465 C 18.336 14.308 18.43 13.957 18.271 13.683 C 18.111 13.41 17.762 13.316 17.487 13.473 L 17.487 13.472 Z M 7.614 11.24 C 7.042 11.411 6.718 12.014 6.891 12.585 C 7.181 13.367 8.21 13.542 8.742 12.899 C 8.958 12.638 9.04 12.292 8.963 11.962 C 8.789 11.39 8.185 11.067 7.613 11.24 L 7.614 11.24 Z M 10.308 10.287 C 9.634 10.491 9.434 11.348 9.948 11.829 C 10.186 12.052 10.525 12.132 10.838 12.037 C 11.52 11.86 11.755 11.012 11.261 10.51 C 11.013 10.258 10.642 10.171 10.308 10.287 Z M 12.734 10 C 12.164 10.172 11.995 10.896 12.428 11.304 C 12.63 11.493 12.917 11.56 13.181 11.48 C 13.751 11.308 13.92 10.584 13.487 10.176 C 13.285 9.987 12.998 9.92 12.734 10 Z M 14.834 10.223 C 14.484 10.328 14.286 10.696 14.391 11.046 C 14.543 11.533 15.165 11.673 15.511 11.298 C 15.668 11.127 15.725 10.888 15.661 10.665 C 15.555 10.315 15.185 10.117 14.835 10.223 L 14.834 10.223 Z M 16.544 10.8 C 16.126 10.927 16.002 11.459 16.321 11.757 C 16.469 11.896 16.68 11.945 16.874 11.886 C 17.297 11.776 17.443 11.249 17.136 10.938 C 16.982 10.781 16.751 10.727 16.544 10.8 Z M 17.874 11.595 C 17.515 11.704 17.409 12.16 17.683 12.417 C 17.81 12.535 17.991 12.578 18.157 12.527 C 18.516 12.418 18.622 11.962 18.348 11.705 C 18.221 11.587 18.04 11.544 17.874 11.595 Z M 10.104 7.888 C 9.396 7.915 8.983 8.698 9.361 9.297 C 9.548 9.595 9.888 9.76 10.238 9.722 C 10.745 9.686 11.127 9.245 11.092 8.738 C 11.055 8.23 10.612 7.85 10.105 7.888 L 10.104 7.888 Z M 12.511 7.61 C 11.908 7.624 11.547 8.285 11.86 8.8 C 12.02 9.062 12.319 9.207 12.624 9.17 C 13.227 9.156 13.588 8.495 13.275 7.98 C 13.115 7.718 12.816 7.573 12.511 7.61 Z M 14.575 7.814 C 14.055 7.838 13.757 8.416 14.038 8.854 C 14.175 9.068 14.42 9.187 14.673 9.162 C 15.194 9.155 15.513 8.587 15.247 8.139 C 15.108 7.906 14.844 7.778 14.575 7.814 Z M 16.278 8.382 C 15.827 8.414 15.579 8.923 15.833 9.298 C 15.951 9.472 16.152 9.57 16.362 9.555 C 16.813 9.523 17.061 9.014 16.807 8.639 C 16.689 8.465 16.488 8.367 16.278 8.382 Z M 17.592 9.186 C 17.206 9.192 16.971 9.615 17.17 9.946 C 17.272 10.117 17.466 10.211 17.663 10.186 C 18.046 10.138 18.234 9.693 18 9.385 C 17.904 9.257 17.752 9.183 17.592 9.186 Z M 18.549 10.101 C 18.222 10.124 18.043 10.493 18.227 10.765 C 18.312 10.891 18.458 10.962 18.61 10.951 C 18.937 10.928 19.116 10.559 18.932 10.287 C 18.847 10.161 18.701 10.09 18.549 10.101 Z"/>
</svg>
