<?xml version="1.0" encoding="utf-8"?>
<svg fill="#d1d1d1" width="32" height="32" viewBox="0 0 32 32" xmlns="http://www.w3.org/2000/svg">
  <path fill-rule="evenodd" d="M 15.993 20.998 L 26.363 20.998 C 26.597 20.998 26.82 20.958 26.939 20.737 C 27.061 20.511 26.984 20.285 26.854 20.08 C 26.746 19.91 26.634 19.743 26.524 19.575 C 25.636 18.208 24.689 16.876 23.871 15.467 C 22.518 13.135 21.246 10.753 19.944 8.391 C 19.814 8.155 19.648 7.988 19.372 8.001 C 19.11 8.013 18.975 8.202 18.873 8.424 L 16.279 14.074 C 16.151 14.352 16.089 14.36 15.916 14.116 C 15.075 12.922 14.232 11.73 13.395 10.534 C 13.251 10.328 13.058 10.198 12.832 10.282 C 12.668 10.342 12.512 10.495 12.41 10.646 C 11.37 12.19 10.343 13.744 9.307 15.292 C 8.985 15.772 8.69 16.282 8.309 16.71 C 7.307 17.832 6.266 18.918 5.239 20.016 C 5.059 20.207 4.931 20.409 5.041 20.682 C 5.157 20.969 5.399 21 5.667 21 C 9.109 20.997 12.551 20.998 15.993 20.998 Z M 18.156 19.887 C 17.994 20.013 15.546 20.012 15.351 19.869 C 15.619 19.572 15.883 19.276 16.153 18.985 C 16.175 18.962 16.241 18.958 16.274 18.974 C 16.896 19.264 17.516 19.557 18.136 19.85 C 18.141 19.853 18.143 19.863 18.156 19.887 Z M 12.482 12.724 C 12.426 13.276 12.382 13.779 12.318 14.279 C 12.299 14.38 12.242 14.469 12.158 14.529 C 11.681 14.835 11.199 15.134 10.713 15.426 C 10.656 15.461 10.577 15.458 10.509 15.472 C 10.525 15.405 10.523 15.326 10.559 15.272 C 11.124 14.415 11.693 13.56 12.266 12.708 C 12.3 12.658 12.368 12.631 12.42 12.594 L 12.482 12.724 Z M 24.479 19.974 C 24.204 19.974 23.929 19.97 23.653 19.976 C 23.501 19.979 23.449 19.912 23.46 19.763 C 23.52 18.981 23.575 18.199 23.636 17.417 C 23.641 17.364 23.684 17.314 23.709 17.264 C 23.757 17.294 23.821 17.314 23.849 17.357 C 24.376 18.157 24.899 18.959 25.424 19.761 C 25.524 19.915 25.464 19.974 25.304 19.974 L 24.479 19.974 Z M 6.745 19.914 C 6.957 19.682 7.12 19.5 7.287 19.321 C 7.765 18.81 8.245 18.301 8.721 17.787 C 8.844 17.655 8.916 17.646 8.994 17.833 C 9.261 18.474 9.537 19.112 9.816 19.747 C 9.889 19.914 9.845 19.976 9.672 19.975 C 8.78 19.974 7.887 19.975 6.994 19.973 C 6.933 19.973 6.871 19.945 6.744 19.914 L 6.745 19.914 Z M 19.94 15.301 C 20.079 15.314 20.158 15.311 20.233 15.329 C 21.069 15.536 21.904 15.746 22.739 15.955 C 23.052 16.034 23.194 16.203 23.175 16.533 C 23.129 17.307 23.069 18.081 23.015 18.855 C 23.004 19.025 22.999 19.197 22.98 19.366 C 22.972 19.428 22.93 19.486 22.904 19.546 C 22.854 19.508 22.788 19.48 22.754 19.431 C 22.251 18.709 21.753 17.984 21.254 17.259 L 20.046 15.505 C 20.017 15.463 19.998 15.414 19.94 15.301 Z M 19.728 10.166 C 19.775 10.231 19.828 10.291 19.867 10.36 C 20.734 11.929 21.599 13.498 22.462 15.068 C 22.499 15.136 22.504 15.223 22.523 15.301 C 22.444 15.301 22.361 15.318 22.286 15.3 C 21.42 15.087 20.556 14.866 19.69 14.656 C 19.547 14.621 19.506 14.55 19.51 14.412 C 19.55 13.155 19.584 11.898 19.622 10.641 C 19.627 10.486 19.642 10.332 19.652 10.179 L 19.728 10.166 Z M 15.843 17.873 C 15.75 17.789 15.692 17.745 15.643 17.692 C 14.751 16.692 13.862 15.688 12.967 14.691 C 12.864 14.587 12.817 14.44 12.84 14.295 C 12.916 13.617 12.975 12.937 13.045 12.257 C 13.055 12.172 13.09 12.089 13.113 12.005 L 13.207 11.949 C 13.232 12.007 13.247 12.071 13.283 12.121 C 14.072 13.226 14.864 14.329 15.658 15.431 C 15.851 15.699 15.941 15.99 15.926 16.323 C 15.906 16.742 15.906 17.161 15.893 17.58 C 15.89 17.66 15.867 17.74 15.843 17.873 Z M 16.42 17.664 C 16.44 16.858 16.378 16.059 16.766 15.284 C 17.5 13.822 18.169 12.324 18.869 10.844 C 18.9 10.779 18.977 10.736 19.032 10.683 C 19.052 10.751 19.092 10.82 19.09 10.888 C 19.062 12.123 19.03 13.358 18.995 14.593 C 18.991 14.668 18.963 14.739 18.917 14.798 C 18.162 15.726 17.404 16.651 16.644 17.574 C 16.6 17.627 16.535 17.661 16.48 17.704 L 16.42 17.664 Z M 12.917 19.974 C 12.427 19.974 11.938 19.977 11.449 19.971 C 11.381 19.971 11.314 19.928 11.247 19.904 C 11.273 19.843 11.287 19.774 11.325 19.722 C 12.089 18.683 12.859 17.649 13.62 16.608 C 13.74 16.444 13.817 16.444 13.95 16.594 C 14.505 17.215 15.065 17.832 15.63 18.444 C 15.735 18.559 15.763 18.639 15.638 18.769 C 15.304 19.121 14.99 19.493 14.655 19.844 C 14.575 19.919 14.471 19.964 14.361 19.969 C 13.88 19.982 13.398 19.975 12.917 19.975 L 12.917 19.974 Z M 13.415 16.009 L 12.165 17.685 L 10.685 19.669 C 10.497 19.919 10.451 19.914 10.329 19.634 C 10.009 18.889 9.691 18.143 9.366 17.4 C 9.301 17.25 9.286 17.116 9.404 16.994 C 9.532 16.864 9.651 16.714 9.802 16.618 C 10.636 16.089 11.481 15.578 12.317 15.051 C 12.457 14.963 12.537 14.977 12.641 15.104 C 12.888 15.408 13.149 15.7 13.415 16.009 Z M 19.21 15.221 C 19.575 15.749 19.887 16.198 20.197 16.648 C 20.899 17.664 21.599 18.681 22.297 19.7 C 22.34 19.763 22.351 19.848 22.377 19.923 C 22.305 19.94 22.235 19.972 22.163 19.973 C 21.407 19.976 20.65 19.978 19.893 19.971 C 19.764 19.968 19.637 19.94 19.52 19.887 C 18.602 19.469 17.688 19.042 16.77 18.622 C 16.624 18.555 16.557 18.493 16.687 18.336 C 17.485 17.374 18.277 16.408 19.07 15.442 C 19.114 15.39 19.145 15.326 19.21 15.222 L 19.21 15.221 Z"/>
</svg>
