<?xml version="1.0" encoding="utf-8"?>
<svg fill="#d1d1d1" width="32" height="32" viewBox="0 0 32 32" xmlns="http://www.w3.org/2000/svg">
  <path d="M 6 11.81 L 6 21.156 L 7.558 21.156 L 7.558 13.111 L 13.659 17.703 L 13.659 21.156 L 15.217 21.156 L 15.217 17.38 C 15.217 17.094 15.082 16.826 14.854 16.654 L 7.455 11.085 C 6.896 10.665 6.091 11.008 6.007 11.702 C 6.002 11.738 6 11.774 6 11.81 Z M 25.99 11.81 C 25.989 11.11 25.232 10.674 24.626 11.024 C 24.594 11.042 24.564 11.062 24.535 11.084 L 17.135 16.653 C 16.907 16.825 16.773 17.094 16.773 17.379 L 16.773 21.156 L 18.331 21.156 L 18.331 17.703 L 24.431 13.111 L 24.431 21.156 L 25.99 21.156 L 25.99 11.81 Z"/>
</svg>
