<?xml version="1.0" encoding="utf-8"?>
<svg fill="#d1d1d1" viewBox="0 0 32 32" xmlns="http://www.w3.org/2000/svg">
  <path fill-rule="evenodd" d="M 8.627 20.124 L 9.987 19.338 L 9.809 19.029 L 8.467 19.804 L 8.467 11.953 L 15.287 15.995 L 15.287 27.555 L 16 28 L 16.714 27.555 L 16.714 15.995 L 23.533 11.953 L 23.533 19.805 L 22.19 19.029 L 22.012 19.339 L 23.372 20.124 L 18.102 23.216 L 18.102 24.945 L 25 20.885 L 25 10.295 L 16 5 L 7 10.295 L 7 20.885 L 13.899 24.945 L 13.899 23.215 L 8.627 20.124 Z M 15.802 6.814 L 15.802 8.395 L 16.159 8.395 L 16.159 6.791 L 22.819 10.699 L 16 14.742 L 9.18 10.699 L 15.802 6.814 Z M 15.802 9.406 L 15.802 11.063 L 16.159 11.063 L 16.159 9.406 L 15.802 9.406 Z M 15.802 12.074 L 15.802 13.731 L 15.98 13.812 L 16.159 13.732 L 16.159 12.074 L 15.802 12.074 Z M 21.362 18.524 L 19.927 17.695 L 19.748 18.005 L 21.184 18.833 L 21.362 18.524 Z M 19.097 17.19 L 17.661 16.362 L 17.502 16.476 L 17.482 16.671 L 18.918 17.499 L 19.097 17.19 Z M 10.637 18.524 L 10.816 18.834 L 12.251 18.004 L 12.072 17.695 L 10.637 18.525 L 10.637 18.524 Z M 12.903 17.19 L 13.081 17.5 L 14.516 16.67 L 14.497 16.476 L 14.338 16.362 L 12.903 17.19 Z"/>
</svg>
