<?xml version="1.0" encoding="utf-8"?>
<svg fill="#d1d1d1" viewBox="0 0 32 32" xmlns="http://www.w3.org/2000/svg">
  <path d="M 14.863 26.986 L 14.863 23.616 C 11.105 23.037 8.333 19.802 8.336 16 C 8.333 12.198 11.105 8.963 14.863 8.384 L 14.863 5.014 C 9.32 5.595 5 10.292 5 16 C 5 21.708 9.32 26.405 14.863 26.986 Z M 17.038 5 L 17.038 8.363 C 20.427 8.819 23.109 11.456 23.623 14.837 L 26.986 14.837 C 26.44 9.617 22.268 5.48 17.038 5 Z M 27 17.017 L 23.644 17.017 C 23.188 20.461 20.481 23.173 17.038 23.637 L 17.038 27 C 22.316 26.517 26.518 22.306 27 17.017 Z"/>
</svg>
