<?xml version="1.0" encoding="utf-8"?>
<svg fill="#d1d1d1" width="32" height="32" viewBox="0 0 32 32" xmlns="http://www.w3.org/2000/svg">
  <path d="M 25.569 21.316 C 25.437 20.528 25.175 19.739 24.979 19.016 L 24.389 16.651 L 22.815 10.737 C 22.683 10.277 22.618 9.817 22.487 9.357 C 22.421 9.16 22.356 8.897 22.159 8.766 C 21.962 8.7 21.765 8.7 21.569 8.7 L 19.142 8.7 C 18.749 8.7 18.422 8.7 18.028 8.766 C 17.7 8.831 17.372 9.029 17.241 9.357 C 17.18 9.502 17.235 9.67 17.371 9.751 C 17.437 9.817 17.569 9.751 17.634 9.686 C 17.7 9.686 17.897 9.489 17.962 9.489 L 21.044 20.856 L 21.044 20.922 C 21.11 21.185 21.241 21.447 21.437 21.513 C 21.569 21.579 21.7 21.645 21.897 21.645 L 25.175 21.645 C 25.372 21.71 25.635 21.579 25.569 21.316 Z M 17.962 21.316 C 17.831 20.528 17.569 19.739 17.372 19.016 L 16.782 16.651 L 15.208 10.737 C 15.077 10.277 15.011 9.817 14.88 9.357 C 14.815 9.16 14.749 8.897 14.552 8.766 C 14.356 8.7 14.159 8.7 13.962 8.7 L 11.535 8.7 C 11.142 8.7 10.815 8.7 10.421 8.766 C 10.093 8.831 9.765 9.029 9.634 9.357 C 9.573 9.503 9.629 9.671 9.765 9.751 C 9.831 9.817 9.962 9.751 10.028 9.686 C 10.093 9.686 10.29 9.489 10.356 9.489 L 13.437 20.856 L 13.437 20.922 C 13.503 21.185 13.634 21.447 13.831 21.513 C 13.962 21.579 14.093 21.645 14.29 21.645 L 17.569 21.645 C 17.765 21.71 18.028 21.579 17.962 21.316 Z M 11.929 18.819 L 9.831 10.606 C 9.831 10.474 9.7 10.343 9.503 10.343 C 9.372 10.343 9.241 10.474 9.175 10.606 L 6.421 20.987 L 6.421 21.119 C 6.421 21.447 6.683 21.776 7.077 21.776 L 10.552 21.776 C 10.828 21.769 11.068 21.582 11.142 21.316 L 11.929 18.819 Z M 19.667 18.622 L 17.372 10.342 C 17.372 10.212 17.241 10.146 17.11 10.146 C 16.978 10.146 16.847 10.211 16.847 10.343 L 16.388 11.985 L 18.683 20.002 C 18.749 20.133 18.815 20.199 18.946 20.199 C 19.076 20.199 19.142 20.133 19.208 20.002 L 19.667 18.622 Z"/>
</svg>
