<?xml version="1.0" encoding="utf-8"?>
<svg fill="#d1d1d1" width="32" height="32" viewBox="0 0 32 32" xmlns="http://www.w3.org/2000/svg">
  <path d="M 23.53 13.414 L 22.105 7 L 19.308 11.414 C 17.134 10.889 14.865 10.889 12.691 11.414 L 9.902 7 L 8.472 13.414 C 6.937 14.642 6 16.247 6 18.009 C 6 21.869 10.476 24.998 15.997 24.998 C 21.518 24.998 25.994 21.868 25.994 18.009 C 25.993 16.247 25.064 14.642 23.529 13.414 L 23.53 13.414 Z M 10.442 16.35 L 9.776 16.35 L 11.403 14.474 L 12.587 14.474 L 10.442 16.35 Z M 15.946 20.934 L 13.18 16.062 L 13.863 15.672 L 14.48 16.757 L 17.501 16.757 L 18.145 15.667 L 18.821 16.069 L 15.946 20.934 Z M 21.559 16.35 L 19.413 14.474 L 20.605 14.474 L 22.23 16.35 L 21.559 16.35 Z M 15.959 19.365 L 17.034 17.545 L 14.926 17.545 L 15.959 19.365 Z"/>
</svg>
