<?xml version="1.0" encoding="utf-8"?>
<svg fill="#d1d1d1" width="32" height="32" viewBox="0 0 32 32" xmlns="http://www.w3.org/2000/svg">
  <path d="M 16 6 C 10.48 6 6 10.48 6 16 C 6 16.133 6.013 16.26 6.02 16.393 L 10.713 16.393 L 12.98 12.493 L 16 16.82 L 19.013 12.493 L 21.28 16.393 L 25.973 16.393 C 25.98 16.26 25.993 16.133 25.993 16 C 26 10.48 21.52 6 16 6 Z M 22.893 15.187 C 22.487 11.74 19.553 9.06 16 9.06 C 12.447 9.06 9.513 11.747 9.107 15.187 L 7.893 15.187 C 8.3 11.073 11.78 7.853 16 7.853 C 20.22 7.853 23.693 11.073 24.107 15.187 L 22.893 15.187 Z M 18.927 14.733 L 16 18.933 L 13.073 14.733 L 11.407 17.6 L 6.14 17.6 C 6.907 22.36 11.02 26 16 26 C 20.98 26 25.093 22.36 25.86 17.593 L 20.593 17.593 L 18.927 14.733 Z M 22.347 18.8 L 23.64 18.8 C 22.493 21.913 19.507 24.147 16 24.147 C 12.493 24.147 9.507 21.913 8.36 18.8 L 9.653 18.8 C 10.733 21.233 13.167 22.94 16 22.94 C 18.833 22.94 21.267 21.233 22.347 18.8 Z"/>
</svg>
