<?xml version="1.0" encoding="utf-8"?>
<svg fill="#d1d1d1" height="32" viewBox="0 0 32 32" width="32" xmlns="http://www.w3.org/2000/svg">
  <path d="M 25 19.899 L 25 9.559 C 22.975 8.426 20.385 9.099 19.216 11.059 L 15.997 16.459 L 12.784 11.069 C 11.615 9.107 9.025 8.435 7 9.568 L 7 19.898 C 7 22.165 8.896 24 11.234 24 L 11.234 16.67 L 12.464 18.733 C 12.969 19.473 13.441 19.899 13.88 20.01 L 14.1 20.133 C 14.692 20.421 15.342 20.569 16 20.568 C 17.411 20.576 18.735 19.886 19.536 18.724 L 20.765 16.664 L 20.765 24 C 23.104 24 24.999 22.164 24.999 19.899 L 25 19.899 Z"/>
  <path d="M7 9.568l4.234 7.103V24C8.896 24 7 22.164 7 19.899z" fill-opacity=".5"/>
  <path d="M20.765 16.663l4.232-7.099h.002V19.9C25 22.164 23.104 24 20.765 24z" fill-opacity=".4"/>
  <path d="M15.997 16.458L13.88 20.01c-.439-.11-.911-.536-1.416-1.277L7 9.568c2.025-1.133 4.615-.46 5.784 1.5z" fill-opacity=".198"/>
</svg>
