<?xml version="1.0" encoding="utf-8"?>
<svg fill="#d1d1d1" viewBox="0 0 32 32" xmlns="http://www.w3.org/2000/svg">
  <path d="M 18.17 3.221 C 17.453 3.101 16.727 3.039 16 3.038 C 8.762 3.038 2.9 8.838 2.9 16 C 2.9 18.75 3.774 21.29 5.242 23.397 C 6.142 22.088 8.22 21.185 10.627 21.185 C 12.281 21.185 13.777 21.617 14.849 22.311 L 18.17 3.221 Z M 25.131 6.717 C 27.393 11.667 25.408 14.311 25.408 14.311 C 23.873 9.742 19.427 9.074 19.427 9.074 C 19.427 9.074 16.503 24.668 16.503 24.864 C 16.503 26.553 14.69 27.98 12.229 28.412 C 13.452 28.776 14.723 28.961 16 28.962 C 23.238 28.962 29.1 23.162 29.1 16 C 29.1 12.36 27.578 9.073 25.131 6.717 Z" style=""/>
</svg>
