<?xml version="1.0" encoding="utf-8"?>
<svg fill="#d1d1d1" width="32" height="32" viewBox="0 0 32 32" xmlns="http://www.w3.org/2000/svg">
  <path fill-rule="evenodd" d="M 16.811 11.567 C 17.753 10.936 18.861 10.601 19.995 10.604 C 21.845 10.604 24.362 11.738 24.362 16.639 C 24.362 18.884 23.553 20.551 21.934 21.639 C 21.841 21.7 21.818 21.825 21.883 21.915 C 21.93 21.98 22.01 22.011 22.088 21.997 C 23.134 21.805 26 20.16 26 15.903 C 26 12.703 24.514 9.353 21.77 9.353 C 19.978 9.353 18.225 9.941 16.511 11.117 C 15.615 9.706 14.325 9 12.641 9 C 9.89 9 6 11.605 6 16.124 C 6 18.182 6.54 20.012 7.622 21.614 L 9.002 20.01 C 8.204 18.793 7.804 17.311 7.804 15.565 C 7.804 12.945 9.76 10.31 12.232 10.31 C 13.522 10.31 14.532 10.707 15.265 11.5 L 15.265 13.43 L 13.779 13.43 L 12.778 14.578 L 15.265 14.578 L 15.265 16.021 L 14.476 16.021 L 13.506 17.169 L 15.265 17.169 L 15.265 21.849 L 16.538 20.113 L 16.538 17.169 L 17.327 17.169 L 18.085 16.021 L 16.538 16.021 L 16.538 14.578 L 18.024 14.578 L 19.025 13.43 L 16.811 13.43 L 16.811 11.567 Z"/>
</svg>
