<?xml version="1.0" encoding="utf-8"?>
<svg fill="#d1d1d1" width="32" height="32" viewBox="0 0 32 32" xmlns="http://www.w3.org/2000/svg">
  <path d="M 24.95 11 C 24.092 11 23.367 11.693 23.367 12.583 C 23.367 13.837 23.169 14.166 21.783 14.166 L 21.651 14.166 C 20.846 14.234 20.229 14.909 20.233 15.716 L 20.233 15.75 C 20.233 16.97 20.003 17.267 18.65 17.267 C 18.584 17.267 18.518 17.267 18.485 17.3 C 17.693 17.399 17.067 18.058 17.067 18.85 C 17.067 19.708 17.759 20.433 18.65 20.433 C 19.475 20.433 20.167 19.773 20.2 18.982 L 20.2 18.85 C 20.2 17.729 20.563 17.3 21.75 17.267 L 21.783 17.267 C 22.608 17.267 23.301 16.607 23.333 15.783 L 23.333 15.683 C 23.333 14.529 23.696 14.1 24.917 14.1 C 25.774 14.1 26.5 13.408 26.5 12.517 C 26.5 11.693 25.807 11 24.95 11 Z M 15.648 14.166 L 15.516 14.166 C 14.131 14.166 13.933 13.836 13.933 12.583 C 13.89 11.364 12.543 10.65 11.51 11.296 C 11.064 11.575 10.786 12.057 10.767 12.583 C 10.767 13.837 10.569 14.133 9.184 14.133 L 9.052 14.133 C 8.247 14.2 7.629 14.875 7.633 15.683 C 7.633 16.541 8.326 17.267 9.217 17.267 C 10.041 17.267 10.734 16.607 10.767 15.816 L 10.767 15.716 C 10.767 14.562 11.13 14.133 12.35 14.133 C 13.57 14.133 13.933 14.563 13.933 15.683 C 13.933 16.541 14.626 17.267 15.516 17.267 C 16.407 17.267 17.1 16.574 17.1 15.684 C 17.064 14.886 16.444 14.238 15.648 14.166 Z M 6.083 20.433 C 7.302 20.433 8.063 19.114 7.454 18.059 C 7.171 17.569 6.649 17.267 6.083 17.267 C 4.864 17.267 4.103 18.586 4.712 19.642 C 4.995 20.131 5.517 20.433 6.083 20.433 Z"/>
</svg>
