<?xml version="1.0" encoding="utf-8"?>
<svg fill="#d1d1d1" viewBox="0 0 32 32" xmlns="http://www.w3.org/2000/svg">
  <path d="M 5 16.002 C 5.133 16.053 9.358 17.5 11.401 18.183 C 11.626 18.259 11.752 18.383 11.854 18.589 C 13.071 21.074 15.823 26.645 16 27 C 16.045 26.884 17.474 22.716 18.153 20.682 C 18.225 20.43 18.406 20.222 18.646 20.117 C 21.278 18.829 27 15.995 27 15.995 C 26.859 15.945 22.626 14.508 20.591 13.806 C 20.443 13.755 20.268 13.645 20.202 13.513 C 18.846 10.789 16.058 5.136 15.988 5 C 15.94 5.126 14.489 9.375 13.801 11.427 C 13.747 11.612 13.614 11.764 13.437 11.841 C 11.676 12.701 6.094 15.461 5 16.002 Z M 12.73 18.655 L 17.492 20.264 L 15.876 25.037 L 12.731 18.655 L 12.73 18.655 Z M 6.977 15.886 L 13.359 12.733 L 11.741 17.503 L 6.977 15.886 Z M 13.008 17.91 C 13.432 17.699 17.939 15.467 19.811 14.556 C 19.962 14.49 20.13 14.48 20.288 14.526 C 21.78 15.018 24.882 16.079 25.001 16.125 C 24.456 16.397 19.946 18.63 18.185 19.489 C 18.062 19.549 17.884 19.584 17.76 19.543 C 16.22 19.033 14.685 18.508 13.15 17.986 C 13.114 17.974 13.083 17.95 13.008 17.91 Z M 19.507 13.845 L 12.637 17.237 L 16.117 6.97 C 17.261 9.29 18.377 11.551 19.507 13.845 Z" fill-rule="evenodd"/>
</svg>
