<?xml version="1.0" encoding="utf-8"?>
<svg fill="#d1d1d1" height="32" viewBox="0 0 32 32" width="32" xmlns="http://www.w3.org/2000/svg">
  <path d="M 26.31 18.475 C 26.135 18.398 25.915 18.511 25.82 18.729 C 25.754 18.866 25.762 19.027 25.841 19.157 L 23.591 23.133 C 23.509 23.123 23.425 23.135 23.349 23.167 L 21.859 21.649 C 21.918 21.385 21.782 21.117 21.535 21.008 L 21.535 11.214 C 21.627 11.173 21.707 11.108 21.765 11.026 L 25.434 12.992 L 25.446 13.041 C 25.513 13.269 25.716 13.406 25.899 13.347 C 26.081 13.289 26.175 13.056 26.107 12.827 C 26.045 12.618 25.871 12.487 25.701 12.51 L 23.918 9.028 L 23.926 9.018 C 24.056 8.829 23.974 8.543 23.746 8.379 C 23.615 8.279 23.445 8.246 23.286 8.289 L 22.07 7.471 C 22.046 7.292 21.94 7.134 21.784 7.043 C 21.642 6.956 21.47 6.934 21.311 6.985 L 18.485 5.373 C 18.445 5.199 18.28 5.048 18.061 5.01 C 17.819 4.967 17.595 5.072 17.516 5.253 L 11.397 6.365 C 11.259 6.272 11.086 6.248 10.928 6.302 C 10.678 6.381 10.518 6.603 10.554 6.814 L 6.302 11.27 C 6.112 11.258 5.919 11.406 5.84 11.639 C 5.774 11.812 5.8 12.006 5.909 12.155 L 5.67 17.842 C 5.543 17.946 5.475 18.142 5.509 18.348 C 5.549 18.578 5.701 18.752 5.877 18.787 L 7.497 22.544 C 7.432 22.716 7.494 22.943 7.667 23.099 C 7.789 23.217 7.96 23.269 8.127 23.239 L 12.065 26.081 C 12.055 26.288 12.229 26.489 12.481 26.544 C 12.638 26.582 12.804 26.548 12.932 26.45 L 18.03 26.807 C 18.128 26.952 18.332 27.03 18.547 26.989 C 18.732 26.961 18.888 26.837 18.957 26.663 L 23.295 24.065 C 23.456 24.076 23.613 24.015 23.725 23.898 C 23.873 23.751 23.93 23.551 23.885 23.389 L 26.111 19.286 C 26.267 19.261 26.398 19.156 26.456 19.009 C 26.551 18.791 26.486 18.552 26.311 18.475 L 26.31 18.475 Z M 26.314 18.95 C 26.275 19.037 26.187 19.083 26.118 19.052 C 26.047 19.02 26.021 18.925 26.059 18.838 C 26.097 18.751 26.185 18.706 26.255 18.736 C 26.325 18.766 26.352 18.862 26.314 18.95 Z M 23.649 23.742 C 23.569 23.822 23.452 23.832 23.389 23.767 C 23.326 23.701 23.341 23.582 23.42 23.502 C 23.501 23.422 23.617 23.412 23.68 23.478 C 23.743 23.544 23.729 23.663 23.649 23.742 Z M 23.02 23.492 L 19.046 24.866 C 18.993 24.808 18.928 24.762 18.856 24.731 L 18.67 22.024 C 18.77 21.966 18.851 21.88 18.9 21.775 L 20.818 21.775 C 20.908 21.965 21.097 22.095 21.317 22.095 C 21.418 22.095 21.516 22.067 21.602 22.014 L 23.032 23.468 L 23.02 23.492 Z M 18.852 26.278 C 18.821 26.25 18.787 26.227 18.75 26.209 L 18.846 25.645 C 19 25.585 19.116 25.455 19.159 25.295 L 22.319 24.202 L 18.852 26.278 Z M 18.527 26.816 C 18.417 26.836 18.314 26.78 18.297 26.689 C 18.281 26.598 18.357 26.507 18.467 26.488 C 18.577 26.466 18.68 26.523 18.696 26.614 C 18.712 26.705 18.636 26.796 18.526 26.816 L 18.527 26.816 Z M 18.023 26.418 L 14.215 26.153 L 18.193 25.511 C 18.25 25.573 18.323 25.621 18.406 25.653 L 18.315 26.188 C 18.193 26.227 18.089 26.309 18.023 26.418 Z M 14.302 22.082 C 14.363 22.068 14.422 22.043 14.475 22.009 L 18.024 25.089 L 13.008 25.899 L 14.302 22.082 Z M 12.637 25.637 L 11.38 21.856 C 11.397 21.83 11.413 21.804 11.427 21.776 L 13.683 21.776 C 13.725 21.866 13.79 21.942 13.871 21.998 L 12.637 25.637 Z M 12.484 26.372 C 12.374 26.348 12.301 26.256 12.32 26.165 C 12.339 26.075 12.444 26.021 12.553 26.045 C 12.663 26.069 12.735 26.161 12.716 26.252 C 12.698 26.342 12.593 26.396 12.484 26.372 Z M 8.397 22.96 C 8.404 22.922 8.406 22.883 8.403 22.845 L 10.526 21.92 C 10.647 22.05 10.823 22.113 10.999 22.09 L 12.202 25.706 L 8.397 22.96 Z M 8.041 22.362 L 7.098 17.714 L 10.474 21.204 C 10.413 21.293 10.379 21.397 10.374 21.504 L 8.191 22.455 C 8.146 22.417 8.095 22.386 8.041 22.362 Z M 8.018 22.971 C 7.958 23.041 7.841 23.035 7.758 22.96 C 7.673 22.885 7.654 22.767 7.714 22.697 C 7.774 22.627 7.891 22.634 7.974 22.709 C 8.059 22.785 8.077 22.903 8.018 22.971 Z M 6.228 18.638 C 6.327 18.494 6.354 18.314 6.304 18.147 L 6.611 17.493 L 7.39 21.331 L 6.228 18.638 Z M 6.2 14.298 L 6.36 16.501 C 6.253 16.67 6.245 16.883 6.338 17.06 L 6.06 17.65 L 6.2 14.298 Z M 6 11.647 C 6.037 11.539 6.135 11.477 6.22 11.507 C 6.307 11.537 6.346 11.65 6.31 11.757 C 6.272 11.866 6.174 11.928 6.088 11.898 C 6.003 11.868 5.962 11.755 5.999 11.647 L 6 11.647 Z M 6.844 16.8 C 6.844 16.915 6.761 17.007 6.661 17.007 C 6.56 17.007 6.477 16.915 6.477 16.8 C 6.477 16.686 6.56 16.594 6.661 16.594 C 6.761 16.594 6.844 16.686 6.844 16.8 Z M 6.614 11.914 C 6.627 11.875 6.636 11.835 6.642 11.795 L 8.546 10.502 L 6.767 16.132 L 6.477 12.142 C 6.539 12.077 6.586 11.999 6.614 11.914 Z M 9.64 8.329 L 8.897 9.539 C 8.779 9.568 8.673 9.633 8.595 9.726 C 8.519 9.813 8.47 9.919 8.453 10.033 L 7.206 10.879 L 9.64 8.329 Z M 10.894 7.122 C 10.979 7.137 11.074 7.132 11.167 7.103 C 11.292 7.066 11.401 6.987 11.475 6.879 L 14.743 7.603 C 14.758 7.697 14.795 7.786 14.853 7.862 L 13.783 10.137 C 13.612 10.173 13.468 10.288 13.394 10.447 L 11.427 10.447 C 11.336 10.253 11.142 10.128 10.927 10.127 C 10.777 10.127 10.633 10.189 10.53 10.298 L 9.355 9.938 C 9.362 9.857 9.345 9.776 9.307 9.704 L 10.894 7.122 Z M 10.952 6.469 C 11.06 6.435 11.167 6.48 11.193 6.569 C 11.22 6.657 11.154 6.756 11.047 6.789 C 10.941 6.822 10.833 6.778 10.806 6.689 C 10.78 6.601 10.846 6.502 10.952 6.469 Z M 17.2 5.705 L 15.473 6.981 C 15.245 6.899 14.991 6.977 14.849 7.174 L 12.268 6.603 L 17.2 5.705 Z M 17.805 5.802 C 17.842 5.817 17.881 5.828 17.92 5.835 C 18.084 5.864 18.24 5.825 18.348 5.74 L 21.022 7.264 L 21.011 7.302 L 15.966 7.162 L 17.805 5.802 Z M 18.043 5.183 C 18.153 5.203 18.23 5.293 18.214 5.383 C 18.198 5.475 18.096 5.533 17.986 5.513 C 17.876 5.493 17.8 5.403 17.815 5.313 C 17.83 5.221 17.932 5.163 18.043 5.183 Z M 21.276 7.908 L 21.084 10.179 C 20.967 10.235 20.873 10.329 20.818 10.446 L 18.562 10.446 C 18.451 10.212 18.194 10.085 17.941 10.141 L 15.817 7.691 C 15.826 7.662 15.833 7.632 15.837 7.601 L 21.101 7.746 C 21.148 7.811 21.208 7.866 21.276 7.908 Z M 21.316 10.466 C 21.439 10.466 21.539 10.568 21.539 10.693 C 21.539 10.818 21.439 10.919 21.317 10.919 C 21.195 10.919 21.095 10.818 21.095 10.693 C 21.095 10.568 21.195 10.466 21.317 10.466 L 21.316 10.466 Z M 21.415 7.266 C 21.47 7.17 21.6 7.143 21.706 7.206 C 21.812 7.269 21.853 7.398 21.798 7.494 C 21.743 7.591 21.612 7.618 21.508 7.554 C 21.401 7.492 21.36 7.362 21.415 7.266 Z M 25.33 12.584 L 21.87 10.646 C 21.853 10.433 21.718 10.247 21.52 10.166 L 21.703 7.997 L 25.33 12.584 Z M 23.037 8.587 C 23.017 8.754 23.105 8.944 23.276 9.065 C 23.363 9.128 23.465 9.166 23.572 9.175 L 24.85 11.46 L 22.223 8.04 L 23.037 8.587 Z M 23.417 8.53 C 23.469 8.454 23.585 8.446 23.677 8.511 C 23.769 8.576 23.801 8.691 23.749 8.767 C 23.697 8.843 23.58 8.851 23.489 8.786 C 23.397 8.72 23.365 8.606 23.418 8.53 L 23.417 8.53 Z M 17.847 10.693 C 17.847 10.57 17.942 10.471 18.063 10.471 C 18.183 10.471 18.28 10.571 18.28 10.693 C 18.281 10.814 18.184 10.912 18.063 10.914 C 17.942 10.913 17.844 10.814 17.846 10.693 L 17.847 10.693 Z M 17.966 15.466 C 18.089 15.466 18.187 15.567 18.187 15.692 C 18.189 15.816 18.09 15.917 17.966 15.919 C 17.842 15.918 17.742 15.816 17.744 15.692 C 17.744 15.567 17.844 15.466 17.966 15.466 Z M 15.069 7.442 C 15.069 7.317 15.168 7.215 15.29 7.215 C 15.413 7.215 15.512 7.317 15.512 7.442 C 15.512 7.567 15.412 7.668 15.29 7.668 C 15.167 7.666 15.068 7.565 15.069 7.442 Z M 15.231 8.079 C 15.334 8.09 15.437 8.072 15.53 8.027 L 17.589 10.4 C 17.41 10.693 17.531 11.077 17.846 11.214 L 17.846 15.14 C 17.813 15.147 17.781 15.157 17.75 15.17 L 14.37 10.98 C 14.515 10.728 14.449 10.408 14.217 10.234 L 15.231 8.079 Z M 13.671 10.693 C 13.671 10.568 13.771 10.466 13.893 10.466 C 14.014 10.466 14.114 10.568 14.114 10.693 C 14.114 10.818 14.014 10.919 13.893 10.919 C 13.769 10.918 13.67 10.817 13.671 10.693 Z M 10.711 10.693 C 10.711 10.57 10.807 10.471 10.927 10.471 C 11.047 10.471 11.144 10.571 11.144 10.693 C 11.144 10.815 11.047 10.914 10.927 10.914 C 10.807 10.914 10.711 10.815 10.711 10.693 Z M 10.927 21.303 C 11.05 21.303 11.149 21.403 11.149 21.529 C 11.151 21.653 11.051 21.754 10.927 21.755 C 10.804 21.753 10.705 21.652 10.707 21.529 C 10.707 21.404 10.805 21.303 10.927 21.303 Z M 8.731 9.843 C 8.806 9.757 8.921 9.737 8.988 9.799 C 9.056 9.859 9.051 9.979 8.978 10.064 C 8.903 10.151 8.788 10.17 8.72 10.109 C 8.652 10.048 8.658 9.929 8.73 9.843 L 8.731 9.843 Z M 7.106 16.502 L 9.026 10.425 C 9.072 10.402 9.114 10.372 9.152 10.338 L 10.374 10.713 C 10.38 10.931 10.511 11.126 10.711 11.214 L 10.711 20.817 L 7.109 17.095 C 7.164 17.006 7.192 16.904 7.191 16.8 C 7.192 16.695 7.162 16.591 7.106 16.502 Z M 18.4 20.962 C 18.352 20.963 18.304 20.97 18.257 20.982 L 14.773 16.652 C 14.915 16.286 14.646 15.89 14.253 15.889 C 13.943 15.892 13.695 16.146 13.699 16.456 C 13.699 16.652 13.799 16.834 13.965 16.939 L 13.965 21.008 C 13.824 21.07 13.715 21.187 13.662 21.332 L 11.447 21.332 C 11.394 21.187 11.285 21.07 11.144 21.008 L 11.144 11.214 C 11.285 11.152 11.394 11.035 11.447 10.89 L 13.373 10.89 C 13.468 11.155 13.746 11.307 14.02 11.244 L 17.448 15.492 C 17.424 15.556 17.412 15.624 17.412 15.692 C 17.408 16.002 17.656 16.256 17.966 16.259 C 18.276 16.256 18.524 16.002 18.521 15.692 C 18.522 15.507 18.432 15.332 18.281 15.225 L 18.281 11.215 C 18.421 11.152 18.53 11.035 18.582 10.89 L 20.798 10.89 C 20.85 11.035 20.959 11.152 21.1 11.214 L 21.1 21.008 C 20.959 21.07 20.85 21.187 20.798 21.332 L 18.92 21.332 C 18.842 21.111 18.634 20.963 18.4 20.962 Z M 18.64 25.009 C 18.763 25.009 18.863 25.099 18.863 25.211 C 18.863 25.323 18.763 25.412 18.641 25.412 C 18.52 25.412 18.421 25.322 18.421 25.212 C 18.421 25.102 18.52 25.009 18.641 25.009 L 18.64 25.009 Z M 18.179 21.529 C 18.179 21.404 18.278 21.303 18.399 21.303 C 18.523 21.303 18.622 21.403 18.622 21.529 C 18.624 21.653 18.524 21.754 18.4 21.755 C 18.276 21.754 18.177 21.653 18.179 21.529 Z M 14.032 16.456 C 14.032 16.33 14.132 16.23 14.254 16.23 C 14.376 16.23 14.475 16.33 14.475 16.456 C 14.477 16.58 14.378 16.681 14.254 16.682 C 14.13 16.681 14.031 16.58 14.032 16.456 Z M 14.182 21.303 C 14.304 21.303 14.403 21.403 14.403 21.529 C 14.405 21.653 14.306 21.754 14.182 21.755 C 14.058 21.754 13.958 21.653 13.96 21.529 C 13.96 21.404 14.06 21.303 14.182 21.303 Z M 14.398 21.008 L 14.398 17.002 C 14.424 16.995 14.449 16.987 14.473 16.976 L 17.915 21.256 C 17.869 21.34 17.846 21.434 17.846 21.529 C 17.846 21.784 18.011 21.999 18.236 22.071 L 18.42 24.715 C 18.384 24.727 18.35 24.743 18.317 24.762 L 14.724 21.645 C 14.78 21.382 14.644 21.116 14.398 21.008 Z M 21.538 21.528 C 21.54 21.652 21.441 21.753 21.317 21.755 C 21.193 21.754 21.093 21.653 21.095 21.529 C 21.095 21.404 21.195 21.303 21.317 21.303 C 21.439 21.303 21.539 21.403 21.539 21.529 L 21.538 21.528 Z M 5.828 18.507 C 5.738 18.524 5.651 18.445 5.633 18.332 C 5.613 18.219 5.67 18.115 5.76 18.1 C 5.85 18.084 5.936 18.163 5.956 18.276 C 5.975 18.388 5.917 18.492 5.828 18.507 Z M 25.8 12.793 C 25.873 12.77 25.955 12.824 25.98 12.916 C 26.008 13.007 25.97 13.101 25.898 13.124 C 25.825 13.147 25.744 13.092 25.717 13.001 C 25.69 12.91 25.727 12.816 25.8 12.793 Z"/>
</svg>
