<?xml version="1.0" encoding="utf-8"?>
<svg fill="#d1d1d1" viewBox="0 0 32 32" xmlns="http://www.w3.org/2000/svg">
  <path d="M 18.586 17.376 L 18.586 13.54 C 17.787 13.293 17.242 12.554 17.241 11.717 C 17.24 10.334 18.663 9.408 19.927 9.969 L 21.713 8.936 L 17.194 6.32 C 16.455 5.893 15.545 5.893 14.806 6.32 L 12.533 7.635 L 13.517 8.185 L 13.517 10.858 C 14.718 11.194 15.28 12.572 14.657 13.652 L 18.333 17.473 C 18.415 17.435 18.499 17.402 18.586 17.375 L 18.586 17.376 Z M 19.724 17.376 C 21.127 17.81 21.535 19.6 20.458 20.598 C 20.248 20.793 19.997 20.938 19.724 21.022 L 19.724 24.214 L 23.815 21.846 C 24.548 21.422 25 20.64 25 19.793 L 25 12.207 C 25 11.361 24.549 10.579 23.815 10.154 L 22.847 9.594 L 20.816 10.768 C 21.423 11.829 20.891 13.179 19.724 13.541 L 19.724 17.376 Z M 17.497 18.245 L 13.821 14.423 C 13.723 14.469 13.621 14.507 13.517 14.536 L 13.517 18.134 C 14.343 18.364 14.914 19.116 14.914 19.973 C 14.914 21.445 13.32 22.365 12.046 21.629 C 11.948 21.572 11.856 21.508 11.77 21.435 L 9.94 22.863 L 14.805 25.679 C 15.543 26.107 16.455 26.107 17.193 25.679 L 18.585 24.873 L 18.585 21.023 C 17.415 20.66 16.885 19.306 17.496 18.245 L 17.497 18.245 Z M 12.379 18.166 L 12.379 14.504 C 11.627 14.247 11.086 13.535 11.086 12.698 C 11.086 11.861 11.627 11.148 12.379 10.891 L 12.379 8.851 L 11.389 8.298 L 8.185 10.154 C 7.452 10.578 7 11.36 7 12.207 L 7 19.793 C 7 20.639 7.451 21.421 8.185 21.846 L 8.882 22.249 L 11.152 20.474 C 10.887 19.501 11.424 18.49 12.379 18.166 Z M 13 13.523 C 13.636 13.546 14.059 12.871 13.76 12.309 C 13.612 12.03 13.318 11.859 13.002 11.87 C 12.366 11.891 11.991 12.593 12.328 13.134 C 12.473 13.367 12.725 13.513 13 13.523 Z M 13 20.798 C 13.636 20.821 14.059 20.146 13.76 19.584 C 13.612 19.305 13.318 19.134 13.002 19.145 C 12.366 19.166 11.991 19.868 12.328 20.409 C 12.473 20.642 12.725 20.788 13 20.798 Z M 19.155 12.543 C 19.791 12.566 20.214 11.891 19.915 11.329 C 19.767 11.05 19.473 10.879 19.157 10.89 C 18.521 10.911 18.146 11.613 18.483 12.154 C 18.628 12.387 18.88 12.533 19.155 12.543 Z M 19.155 20.025 C 19.792 20.026 20.19 19.337 19.873 18.785 C 19.725 18.529 19.452 18.371 19.157 18.371 C 18.52 18.37 18.122 19.059 18.439 19.611 C 18.587 19.867 18.86 20.025 19.155 20.025 Z"/>
</svg>
