<?xml version="1.0" encoding="utf-8"?>
<svg fill="#d1d1d1" viewBox="0 0 32 32" xmlns="http://www.w3.org/2000/svg">
  <path fill-rule="evenodd" d="M 14.685 6.286 L 7.823 10.06 C 7.45 10.299 7.136 10.62 6.905 10.998 C 6.641 11.43 6.501 11.927 6.5 12.434 L 6.5 19.566 C 6.5 20.096 6.655 20.604 6.932 21.044 C 7.191 21.454 7.557 21.804 8.007 22.051 L 14.493 25.617 C 14.972 25.878 15.51 26.01 16.055 25.999 L 16.055 21.676 L 15.691 21.476 L 11.275 19.048 L 10.931 18.845 L 10.924 18.647 L 10.924 13.602 L 10.924 13.202 L 15.68 10.58 L 15.668 10.568 L 15.691 10.581 L 16.055 10.381 L 16.055 6 C 15.583 5.991 15.114 6.089 14.685 6.286 Z M 20.36 13.66 L 16.053 16.028 L 16.053 20.81 L 20.36 18.443 L 20.36 13.66 Z M 25.5 12.434 C 25.5 11.939 25.365 11.464 25.121 11.044 L 21.187 13.207 L 21.187 18.886 L 20.781 19.109 L 20.781 23.816 L 23.993 22.051 C 24.447 21.803 24.828 21.44 25.097 20.999 C 25.36 20.567 25.5 20.071 25.5 19.565 L 25.5 12.435 L 25.5 12.434 Z M 23.993 9.95 L 20.781 8.184 L 16.447 10.567 L 20.781 12.949 L 21.187 13.172 L 21.187 13.208 L 25.121 11.045 C 24.851 10.584 24.461 10.206 23.993 9.95 Z M 16.055 10.381 L 16.447 10.566 L 20.781 8.184 L 17.507 6.384 C 17.061 6.141 16.563 6.009 16.055 6.002 L 16.055 10.382 L 16.055 10.381 Z M 16.083 21.692 L 16.055 21.677 L 16.055 26 C 16.563 25.993 17.061 25.861 17.507 25.618 L 20.729 23.846 L 16.447 21.492 L 16.083 21.692 Z M 20.781 19.11 L 16.447 21.492 L 20.729 23.846 L 20.781 23.817 L 20.781 19.11 Z"/>
</svg>
