<?xml version="1.0" encoding="utf-8"?>
<svg fill="#d1d1d1" width="32" height="32" viewBox="0 0 32 32" xmlns="http://www.w3.org/2000/svg">
  <path d="M 5 10.16 L 10.485 13.307 L 10.485 13.319 L 21.408 19.629 L 21.408 13.316 L 21.407 13.317 L 10.675 7.127 L 10.684 7.127 C 10.554 7.052 10.394 7.052 10.264 7.127 L 5 10.158 L 5 10.16 Z M 10.485 13.327 L 10.485 19.646 L 21.196 25.826 C 21.327 25.897 21.485 25.897 21.616 25.826 L 26.881 22.792 L 23.888 21.062 L 21.408 19.635 L 21.408 19.629 L 21.408 19.635 L 10.485 13.327 Z M 23.888 21.062 L 26.892 22.792 L 26.892 10.403 C 26.891 10.25 26.807 10.109 26.672 10.036 L 21.408 7 L 21.408 19.63 L 23.888 21.062 Z M 5 10.16 L 5 22.547 C 5 22.701 5.085 22.842 5.22 22.915 L 10.485 25.951 L 10.485 19.646 L 10.465 19.635 L 10.465 13.315 L 10.485 13.327 L 10.485 13.319 L 10.465 13.307 L 10.465 13.315 L 5 10.16 Z"/>
</svg>
