<?xml version="1.0" encoding="utf-8"?>
<svg fill="#d1d1d1" viewBox="0 0 32 32" xmlns="http://www.w3.org/2000/svg">
  <path d="M 20.5 16.842 L 17.892 16.976 L 20.218 11.051 L 13.134 12.027 L 12.5 18.559 L 14.05 18.559 L 13.805 26 L 20.5 16.842 Z M 15.002 23.34 C 15.002 23.47 14.892 23.576 14.756 23.576 C 14.62 23.576 14.509 23.47 14.509 23.34 L 14.509 21.59 C 14.509 21.46 14.619 21.354 14.756 21.354 C 14.893 21.354 15.002 21.459 15.002 21.589 L 15.002 23.34 Z M 13.17 18.054 L 13.714 12.324 C 13.728 12.21 13.826 12.126 13.94 12.128 L 13.98 12.128 C 14.044 12.128 14.104 12.153 14.147 12.198 C 14.19 12.243 14.211 12.303 14.206 12.363 L 13.733 17.583 L 15.143 17.583 L 15.078 20.759 C 15.072 20.905 14.949 21.02 14.803 21.017 L 14.791 21.017 C 14.717 21.017 14.646 20.988 14.594 20.937 C 14.542 20.886 14.514 20.818 14.515 20.747 L 14.579 18.054 L 13.17 18.054 Z M 13.17 11.454 L 20.077 10.646 L 16.694 9.232 C 16.694 9.232 17.046 6.673 14.72 6 L 14.509 6.808 C 14.509 6.808 15.919 7.145 15.778 9.3 L 13.17 11.454 Z" fill-rule="evenodd"/>
</svg>
