<?xml version="1.0" encoding="utf-8"?>
<svg fill="#d1d1d1" width="32" height="32" viewBox="0 0 32 32" xmlns="http://www.w3.org/2000/svg">
  <path d="M 14.022 16.4 C 14.022 16.4 11.454 17.952 11.105 20.866 C 10.755 23.779 12.738 25.66 12.738 25.66 C 12.738 25.66 15.158 24.391 15.613 21.49 C 16.068 18.589 14.022 16.4 14.022 16.4 Z M 20.218 20.877 C 18.382 19.94 16.476 20.827 16.476 20.827 L 16.483 20.855 C 16.548 21.105 17.08 22.937 18.817 23.747 C 20.554 24.557 22.137 23.823 22.347 23.717 L 22.371 23.706 C 22.371 23.706 22.054 21.814 20.218 20.876 L 20.218 20.877 Z M 10.578 19.157 L 10.47 19.157 C 10.1 19.164 8.921 19.263 8.115 20.188 C 7.148 21.3 7.439 22.641 7.439 22.641 C 7.439 22.641 8.803 22.796 9.81 21.721 C 10.817 20.645 10.586 19.157 10.578 19.157 Z M 23.226 18.675 C 21.756 18.724 20.865 19.94 20.865 19.94 C 20.865 19.94 21.872 21.059 23.341 20.958 C 24.811 20.856 25.551 19.701 25.551 19.701 C 25.551 19.701 24.697 18.627 23.226 18.675 Z M 23.934 13.817 C 23.795 13.776 21.264 13.054 18.958 14.735 C 16.587 16.463 16.485 19.46 16.485 19.46 C 16.485 19.46 19.398 20.177 21.705 18.364 C 23.755 16.754 23.927 14.414 23.939 13.915 L 23.939 13.819 L 23.934 13.817 Z M 13.06 15.426 C 13.06 15.426 11.273 14.312 9.34 15.016 C 7.683 15.62 7.042 17.057 6.892 17.456 L 6.865 17.532 L 6.856 17.559 C 6.856 17.559 8.42 18.669 10.378 18.035 C 12.338 17.401 13.06 15.425 13.06 15.425 L 13.06 15.426 Z M 14.926 9.957 C 12.286 9.64 10.493 11.24 10.18 11.543 L 10.132 11.591 C 10.142 11.612 10.162 11.646 10.192 11.696 L 10.268 11.818 C 10.666 12.43 11.947 14.097 14.302 14.466 C 17.201 14.921 19.392 12.873 19.392 12.873 C 19.392 12.873 17.84 10.307 14.926 9.957 Z M 18.231 5.709 L 18.215 5.732 C 18.082 5.934 17.167 7.412 17.755 9.232 C 18.39 11.19 20.365 11.913 20.365 11.913 C 20.365 11.913 21.479 10.128 20.775 8.193 C 20.07 6.26 18.23 5.71 18.23 5.71 L 18.231 5.709 Z M 15.603 6.966 C 14.492 6 13.15 6.292 13.15 6.292 C 13.15 6.292 12.995 7.656 14.07 8.662 C 15.146 9.67 16.634 9.438 16.634 9.438 L 16.634 9.322 C 16.627 8.952 16.528 7.772 15.602 6.966 L 15.603 6.966 Z"/>
</svg>
