<?xml version="1.0" encoding="utf-8"?>
<svg fill="#d1d1d1" viewBox="0 0 32 32" xmlns="http://www.w3.org/2000/svg">
  <path d="M 18.151 13.719 L 19.993 9.976 C 20.563 8.656 21.215 7.83 21.948 7.5 L 16 7.5 C 16.543 7.693 16.815 7.995 16.815 8.408 C 16.815 8.524 16.613 9.022 16.209 9.903 L 18.151 13.719 Z M 15.235 19.647 L 13.331 15.832 C 12.879 16.74 12.384 17.732 11.844 18.806 C 10.242 22.299 8.654 24.197 7.078 24.5 L 21.663 24.5 L 24.515 20.126 C 23.7 21.034 22.084 21.488 19.667 21.488 L 14.33 21.488 L 15.235 19.647 Z M 5 20.25 L 9.604 20.25 L 13.189 12.988 L 16.815 20.25 L 21.052 20.25 C 20.97 20.195 20.93 20.057 20.93 19.837 C 20.93 18.719 24.963 9.109 27 8.573 L 22.193 8.573 L 18.281 16.495 L 14.248 8.573 L 9.604 8.573 C 10.201 9.013 10.5 9.481 10.5 9.976 C 10.5 12.078 6.181 19.549 5 20.25 Z" fill-rule="evenodd"/>
</svg>
