<?xml version="1.0" encoding="utf-8"?>
<svg fill="#d1d1d1" viewBox="0 0 32 32" xmlns="http://www.w3.org/2000/svg">
  <path fill-rule="evenodd" d="M 25.515 14.804 C 23.997 14.826 17.767 14.812 16.171 14.821 C 16.112 14.821 16.005 14.931 16.004 14.99 C 15.992 15.66 15.991 16.329 16.004 16.998 C 16.006 17.061 16.121 17.176 16.184 17.176 C 18.578 17.185 20.972 17.183 23.367 17.19 C 23.41 17.19 23.497 17.285 23.491 17.323 C 22.848 21.155 19.334 23.9 15.456 23.608 C 11.178 23.285 7.97 19.54 8.421 15.291 C 8.755 12.151 10.446 9.921 13.403 8.844 C 16.326 7.779 18.999 8.405 21.306 10.519 C 21.338 10.548 21.442 10.552 21.47 10.524 C 21.982 10.022 22.489 9.515 22.991 9.003 C 23.017 8.977 23.021 8.885 22.999 8.863 C 20.763 6.733 18.107 5.767 15.031 6.047 C 9.599 6.541 5.531 11.457 6.044 16.874 C 6.572 22.454 11.402 26.47 16.966 25.956 C 22.362 25.456 26.43 20.594 25.964 15.216 C 25.949 15.052 25.92 14.948 25.851 14.885 C 25.784 14.824 25.68 14.802 25.515 14.805 L 25.515 14.804 Z"/>
</svg>
