<?xml version="1.0" encoding="utf-8"?>
<svg fill="#d1d1d1" viewBox="0 0 32 32" xmlns="http://www.w3.org/2000/svg">
  <path fill-rule="evenodd" d="M 19.261 23.5 L 19.262 23.498 C 19.416 23.501 19.57 23.484 19.72 23.448 C 20.596 23.243 21.337 22.478 21.513 21.652 L 25 8.556 L 22.228 8.542 L 19.942 17.11 L 13.762 8.513 L 13.758 8.517 L 13.761 8.507 L 12.74 8.5 L 12.74 8.501 C 12.586 8.499 12.431 8.515 12.281 8.55 C 11.406 8.756 10.665 9.521 10.488 10.346 L 7 23.445 L 9.773 23.457 L 12.058 14.889 L 18.238 23.487 L 18.241 23.487 L 19.261 23.5 Z M 12.668 12.606 L 13.151 10.796 L 19.332 19.395 L 18.849 21.205 L 12.669 12.605 L 12.668 12.606 Z"/>
</svg>
