<?xml version="1.0" encoding="utf-8"?>
<svg fill="#d1d1d1" width="32" height="32" viewBox="0 0 32 32" xmlns="http://www.w3.org/2000/svg">
  <path d="M 15.966 5 L 15.855 5.014 C 15.721 5.045 15.596 5.106 15.489 5.193 L 6.849 11.613 L 6.76 11.684 C 6.593 11.842 6.5 12.062 6.501 12.291 L 6.501 19.713 C 6.5 19.983 6.63 20.236 6.851 20.392 L 15.49 26.81 C 15.765 27.05 16.197 27.068 16.482 26.835 C 19.373 24.688 22.264 22.541 25.152 20.393 C 25.376 20.239 25.506 19.982 25.499 19.711 L 25.499 12.287 L 25.495 12.179 C 25.47 11.962 25.358 11.765 25.185 11.633 L 16.482 5.168 L 16.389 5.105 C 16.228 5.011 16.038 4.979 15.855 5.015 L 15.966 5 Z M 15.751 25.028 C 15.898 25.028 16.047 25.037 16.194 25.05 C 16.196 25.391 16.196 25.733 16.194 26.074 C 16.044 26.077 15.894 26.076 15.745 26.074 L 15.743 25.377 L 15.746 25.202 L 15.751 25.028 Z M 14.041 24.11 L 14.294 24.112 C 14.449 24.427 14.656 24.716 14.776 25.049 C 14.625 25.057 14.475 25.057 14.324 25.059 C 14.14 24.746 13.968 24.426 13.789 24.111 L 14.042 24.11 L 14.041 24.11 Z M 16.768 24.59 C 16.915 24.588 17.062 24.591 17.208 24.6 C 17.211 24.75 17.21 24.9 17.191 25.048 L 16.771 25.048 L 16.767 24.818 L 16.768 24.59 Z M 16.293 22.133 L 16.509 22.354 C 16.507 22.844 16.508 23.334 16.509 23.825 C 16.445 23.892 16.383 23.96 16.321 24.029 C 16.119 24.033 15.917 24.034 15.715 24.028 C 15.717 23.889 15.7 23.748 15.733 23.612 C 15.847 23.6 15.961 23.604 16.076 23.603 L 16.076 22.574 L 15.239 22.574 L 14.401 22.569 C 14.399 22.425 14.399 22.282 14.401 22.138 C 15.031 22.128 15.662 22.138 16.293 22.133 Z M 19.175 22.543 C 19.342 22.401 19.494 22.639 19.637 22.709 L 19.637 22.762 L 19.262 23.004 C 19.012 23.164 18.76 23.324 18.517 23.496 L 18.729 23.494 L 18.898 23.495 L 19.068 23.498 C 19.068 23.648 19.068 23.798 19.066 23.948 C 18.606 23.955 18.147 23.953 17.688 23.949 C 17.68 23.808 17.676 23.666 17.676 23.525 C 18.166 23.183 18.678 22.875 19.176 22.544 L 19.175 22.543 Z M 13.095 22.957 L 13.99 22.961 L 13.99 23.41 L 13.094 23.415 L 12.199 23.412 C 12.197 23.261 12.197 23.111 12.199 22.96 L 13.095 22.957 Z M 11.592 22.3 L 11.814 22.302 C 11.816 22.452 11.816 22.602 11.814 22.752 C 11.666 22.755 11.518 22.755 11.37 22.753 C 11.368 22.603 11.369 22.452 11.371 22.301 L 11.592 22.3 Z M 20.185 20.686 C 20.42 21.045 20.643 21.413 20.885 21.769 C 20.952 21.739 20.983 21.665 21.025 21.608 C 21.21 21.304 21.409 21.01 21.595 20.707 C 21.601 20.932 21.605 21.157 21.599 21.382 C 21.604 21.466 21.543 21.532 21.505 21.6 C 21.299 21.91 21.102 22.224 20.9 22.535 C 20.657 22.167 20.422 21.795 20.182 21.425 C 20.181 21.178 20.179 20.932 20.185 20.685 L 20.185 20.686 Z M 18.75 20.133 L 19.267 21.975 L 19.05 21.975 L 18.833 21.972 C 18.709 21.502 18.576 21.036 18.45 20.567 L 18.214 20.555 L 17.826 21.975 L 17.392 21.973 L 17.654 21.056 L 17.906 20.136 C 18.188 20.131 18.469 20.134 18.75 20.133 Z M 9.998 21.163 L 10.392 21.164 L 10.786 21.167 C 10.788 21.316 10.798 21.465 10.779 21.612 C 10.389 21.632 9.996 21.622 9.605 21.615 C 9.604 21.467 9.604 21.319 9.605 21.171 L 9.998 21.164 L 9.998 21.163 Z M 13.148 20.115 C 13.273 20.204 13.399 20.291 13.523 20.382 C 13.134 20.628 12.753 20.886 12.361 21.125 C 12.93 21.136 13.499 21.124 14.068 21.132 C 14.071 21.284 14.071 21.436 14.067 21.588 C 13.224 21.591 12.381 21.595 11.537 21.586 C 11.534 21.442 11.533 21.298 11.536 21.154 C 12.071 20.804 12.606 20.452 13.148 20.114 L 13.148 20.115 Z M 15.048 19.781 L 15.271 19.781 C 15.275 20.346 15.271 20.911 15.274 21.474 C 15.168 21.479 15.062 21.484 14.956 21.494 C 14.911 21.485 14.866 21.476 14.821 21.469 C 14.824 20.907 14.818 20.344 14.824 19.782 L 15.048 19.781 Z M 16.426 20.197 C 16.61 20.505 16.827 20.811 16.922 21.161 L 16.482 21.164 L 16.222 20.694 L 15.957 20.226 C 16.114 20.228 16.271 20.218 16.427 20.197 L 16.426 20.197 Z M 22.385 20.41 L 22.615 20.412 L 22.615 20.861 L 22.385 20.863 L 22.155 20.858 C 22.153 20.71 22.153 20.562 22.155 20.414 L 22.385 20.41 Z M 11.597 18.618 C 11.602 18.863 11.599 19.108 11.601 19.353 C 11.356 19.717 11.132 20.095 10.881 20.454 C 10.649 20.094 10.424 19.728 10.181 19.374 C 10.177 19.125 10.178 18.876 10.184 18.627 C 10.418 18.99 10.652 19.353 10.883 19.717 C 11.13 19.357 11.352 18.98 11.597 18.618 Z M 12.747 19.093 C 12.894 19.09 13.041 19.093 13.187 19.103 C 13.191 19.255 13.191 19.407 13.187 19.558 C 13.039 19.559 12.892 19.559 12.744 19.558 C 12.738 19.403 12.738 19.248 12.746 19.093 L 12.747 19.093 Z M 18.863 17.869 C 19.341 17.873 19.819 17.869 20.297 17.871 L 20.514 18.081 L 20.514 19.523 L 20.296 19.523 L 20.078 19.519 C 20.077 19.115 20.074 18.711 20.079 18.306 L 19.075 18.306 L 19.075 18.491 L 19.072 18.675 C 18.929 18.677 18.785 18.677 18.642 18.677 C 18.638 18.477 18.639 18.279 18.639 18.079 L 18.863 17.869 Z M 7.666 17.582 L 7.947 17.585 C 7.949 17.729 7.949 17.874 7.948 18.018 L 7.598 18.023 L 7.599 18.538 L 7.601 19.054 C 8.154 19.056 8.707 19.051 9.259 19.057 C 9.262 19.199 9.262 19.341 9.261 19.483 L 8.359 19.483 C 8.032 19.485 7.705 19.487 7.378 19.478 C 7.29 19.43 7.22 19.355 7.176 19.265 L 7.17 18.775 L 7.172 17.793 L 7.278 17.688 L 7.384 17.583 L 7.666 17.582 Z M 17.32 17.962 C 17.447 18.05 17.572 18.14 17.7 18.226 C 17.333 18.489 16.942 18.718 16.567 18.971 C 17.129 18.981 17.69 18.971 18.252 18.977 C 18.256 19.134 18.256 19.292 18.252 19.449 C 17.411 19.454 16.571 19.45 15.73 19.45 C 15.709 19.306 15.709 19.16 15.707 19.015 C 16.24 18.655 16.788 18.321 17.32 17.961 L 17.32 17.962 Z M 23.309 17.892 C 23.436 17.978 23.562 18.069 23.686 18.16 L 22.533 18.907 L 23.38 18.909 L 24.228 18.909 L 24.228 19.368 C 23.388 19.371 22.548 19.371 21.709 19.368 C 21.707 19.221 21.707 19.075 21.709 18.928 C 22.239 18.577 22.774 18.235 23.309 17.892 Z M 13.359 15.909 L 13.579 15.911 C 13.926 16.479 14.283 17.041 14.636 17.604 C 14.789 17.804 14.698 18.072 14.722 18.305 L 14.569 18.308 L 14.247 17.796 C 14.032 17.456 13.817 17.116 13.614 16.768 C 13.559 17.334 13.604 17.906 13.586 18.476 C 13.436 18.477 13.286 18.477 13.138 18.473 C 13.134 17.619 13.134 16.765 13.138 15.91 L 13.358 15.909 L 13.359 15.909 Z M 21.395 16.819 L 21.542 16.833 C 21.557 17.358 21.548 17.884 21.546 18.41 C 21.397 18.413 21.248 18.413 21.099 18.41 C 21.094 17.881 21.094 17.351 21.099 16.822 C 21.247 16.82 21.396 16.81 21.542 16.833 L 21.395 16.819 Z M 10.084 17.456 C 10.598 17.399 11.117 17.444 11.633 17.428 C 11.766 17.426 11.899 17.432 12.031 17.446 C 12.033 17.598 12.033 17.751 12.031 17.904 C 11.382 17.903 10.735 17.907 10.086 17.902 C 10.083 17.753 10.082 17.605 10.084 17.456 Z M 24.074 15.399 L 24.56 15.406 C 24.683 15.483 24.821 15.608 24.795 15.772 C 24.795 16.124 24.792 16.477 24.795 16.829 C 24.79 16.999 24.798 17.167 24.793 17.337 C 24.801 17.475 24.763 17.611 24.771 17.749 L 24.356 17.748 L 24.356 15.84 C 24.016 15.83 23.676 15.838 23.336 15.835 C 23.336 15.953 23.336 16.071 23.334 16.19 C 23.191 16.192 23.048 16.193 22.905 16.192 C 22.903 15.997 22.902 15.803 22.903 15.608 L 23.099 15.404 C 23.586 15.399 24.074 15.394 24.56 15.406 L 24.074 15.399 Z M 17.238 17.132 L 17.454 17.134 C 17.456 17.284 17.456 17.436 17.454 17.588 C 17.31 17.59 17.166 17.59 17.021 17.588 L 17.021 17.133 L 17.238 17.133 L 17.238 17.132 Z M 15.328 16.236 L 15.553 16.238 C 15.555 16.611 15.554 16.984 15.553 17.358 C 15.403 17.36 15.253 17.36 15.102 17.356 C 15.099 16.984 15.099 16.611 15.102 16.239 L 15.328 16.236 Z M 19.94 16.754 L 20.627 16.756 C 20.645 16.892 20.657 17.03 20.644 17.168 C 20.6 17.258 20.497 17.222 20.419 17.23 C 20.029 17.218 19.639 17.253 19.252 17.208 C 19.249 17.058 19.249 16.908 19.254 16.758 L 19.94 16.754 Z M 18.044 16.737 L 18.264 16.738 C 18.267 16.89 18.267 17.042 18.264 17.194 L 17.823 17.194 C 17.821 17.042 17.821 16.89 17.823 16.738 L 18.043 16.737 L 18.044 16.737 Z M 9.694 15.422 L 9.695 16.87 L 9.241 16.87 L 9.241 16.146 L 9.242 15.422 L 9.695 15.422 L 9.694 15.422 Z M 11.329 14.847 L 11.749 14.85 C 11.917 15.464 12.099 16.075 12.259 16.692 L 11.838 16.693 C 11.694 16.219 11.583 15.737 11.435 15.265 L 11.196 15.282 C 11.09 15.757 10.939 16.22 10.824 16.692 L 10.391 16.691 C 10.563 16.077 10.734 15.462 10.911 14.849 L 11.329 14.847 Z M 16.725 14.711 L 16.792 14.725 C 16.945 14.777 17.066 14.945 17.046 15.108 L 17.046 16.39 L 16.825 16.63 L 16.541 16.63 L 16.257 16.628 C 16.256 16.481 16.256 16.335 16.257 16.188 L 16.612 16.184 L 16.613 15.174 C 16.058 15.124 15.498 15.166 14.941 15.151 C 14.94 15.005 14.94 14.86 14.941 14.714 L 16.656 14.713 L 16.726 14.711 L 16.725 14.711 Z M 7.823 15.826 C 7.971 15.823 8.12 15.828 8.268 15.838 L 8.268 16.268 C 8.118 16.269 7.968 16.27 7.819 16.268 C 7.818 16.12 7.819 15.973 7.823 15.826 Z M 18.463 13.981 L 18.747 13.984 C 18.752 14.129 18.752 14.274 18.75 14.421 C 18.63 14.423 18.509 14.423 18.389 14.424 L 18.389 15.459 L 19.226 15.461 L 20.064 15.463 C 20.065 15.61 20.065 15.757 20.061 15.903 C 19.433 15.907 18.804 15.903 18.175 15.905 C 18.095 15.799 17.941 15.718 17.961 15.563 C 17.958 15.15 17.958 14.736 17.96 14.323 C 17.94 14.168 18.097 14.088 18.178 13.981 L 18.463 13.981 Z M 13.63 14.713 C 13.633 14.867 13.633 15.021 13.63 15.175 L 12.538 15.175 L 12.533 14.945 L 12.537 14.714 L 13.63 14.713 Z M 22.523 14.182 L 23.498 14.183 L 23.498 14.641 C 22.848 14.641 22.198 14.647 21.548 14.638 C 21.546 14.488 21.545 14.337 21.548 14.186 L 22.523 14.182 Z M 20.308 14.182 L 20.54 14.187 C 20.542 14.337 20.541 14.487 20.54 14.637 C 20.386 14.642 20.231 14.642 20.077 14.637 C 20.075 14.487 20.075 14.337 20.077 14.187 L 20.308 14.182 Z M 8.292 13.242 L 9.414 13.246 L 9.416 13.678 L 9.082 13.9 C 8.86 14.048 8.634 14.192 8.405 14.33 C 8.26 14.277 8.15 14.155 8.026 14.065 C 8.211 13.946 8.399 13.831 8.578 13.705 C 8.109 13.702 7.64 13.707 7.171 13.702 C 7.169 13.55 7.169 13.397 7.171 13.245 L 8.292 13.241 L 8.292 13.242 Z M 11.39 12.873 C 11.628 12.876 11.864 12.873 12.102 12.877 C 11.749 13.133 11.374 13.354 11.02 13.607 C 11.384 13.84 11.742 14.084 12.104 14.319 C 11.86 14.324 11.616 14.321 11.372 14.322 C 11.02 14.079 10.655 13.855 10.308 13.604 C 10.658 13.344 11.031 13.119 11.39 12.874 L 11.39 12.873 Z M 14.534 13.686 L 15.504 13.688 C 15.52 13.838 15.518 13.988 15.498 14.138 C 14.853 14.14 14.21 14.138 13.566 14.138 C 13.565 13.987 13.565 13.836 13.565 13.685 L 14.535 13.685 L 14.534 13.686 Z M 16.159 13.686 L 16.392 13.69 L 16.392 14.132 C 16.237 14.136 16.082 14.136 15.926 14.134 C 15.925 13.985 15.925 13.837 15.926 13.688 L 16.159 13.686 Z M 17.238 12.347 L 17.454 12.348 C 17.458 12.831 17.455 13.314 17.455 13.796 L 17.02 13.798 L 17.021 12.348 L 17.238 12.348 L 17.238 12.347 Z M 22.747 13.18 L 22.971 13.182 C 22.975 13.334 22.975 13.486 22.971 13.638 C 22.821 13.641 22.671 13.641 22.523 13.638 C 22.52 13.486 22.52 13.335 22.523 13.183 L 22.747 13.18 Z M 21.032 11.383 L 21.242 11.403 L 21.765 13.236 L 21.333 13.236 C 21.195 12.765 21.078 12.287 20.936 11.816 L 20.698 11.819 L 20.509 12.529 L 20.317 13.236 L 19.882 13.236 C 20.06 12.627 20.228 12.015 20.399 11.404 C 20.68 11.401 20.963 11.357 21.243 11.403 L 21.032 11.383 Z M 18.763 12.48 L 18.983 12.483 C 18.983 12.633 18.983 12.785 18.981 12.936 L 18.544 12.935 L 18.543 12.708 L 18.544 12.481 L 18.764 12.48 L 18.763 12.48 Z M 24.083 11.968 C 24.247 12.278 24.447 12.573 24.57 12.905 C 24.419 12.91 24.266 12.911 24.115 12.912 L 23.583 11.972 L 23.833 11.969 L 24.083 11.968 Z M 15.863 10.593 L 16.078 10.595 C 16.085 11.235 16.078 11.878 16.082 12.52 C 16.015 12.584 15.949 12.65 15.884 12.715 C 15.391 12.72 14.899 12.715 14.407 12.718 C 14.342 12.654 14.275 12.594 14.217 12.526 C 14.192 12.329 14.21 12.129 14.21 11.932 L 14.622 11.932 L 14.625 12.102 L 14.624 12.272 C 14.963 12.31 15.304 12.282 15.644 12.29 C 15.646 11.726 15.641 11.16 15.648 10.596 L 15.863 10.593 Z M 12.468 11.654 L 12.685 11.656 C 12.689 12.008 12.687 12.361 12.687 12.713 C 12.54 12.714 12.394 12.715 12.247 12.713 C 12.246 12.361 12.241 12.008 12.251 11.655 L 12.468 11.655 L 12.468 11.654 Z M 22.745 11.035 L 22.969 11.038 C 22.974 11.522 22.974 12.007 22.969 12.491 C 22.819 12.494 22.671 12.493 22.522 12.491 C 22.518 12.007 22.518 11.522 22.522 11.038 L 22.745 11.035 Z M 9.343 11.632 L 10.316 11.636 C 10.32 11.787 10.32 11.939 10.316 12.09 C 9.666 12.096 9.019 12.095 8.37 12.09 C 8.368 11.939 8.368 11.787 8.37 11.636 L 9.343 11.632 Z M 11.063 11.636 C 11.066 11.788 11.066 11.94 11.063 12.092 C 10.916 12.094 10.769 12.093 10.621 12.092 C 10.619 11.94 10.619 11.788 10.621 11.636 L 11.064 11.636 L 11.063 11.636 Z M 14.273 9.954 C 14.273 10.196 14.289 10.44 14.268 10.682 C 14.049 11.064 13.795 11.426 13.559 11.797 L 13.088 11.07 C 13.01 10.948 12.934 10.825 12.86 10.701 C 12.835 10.456 12.853 10.208 12.854 9.961 C 13.091 10.327 13.321 10.697 13.561 11.059 C 13.801 10.692 14.031 10.319 14.273 9.954 Z M 17.202 8.858 L 17.418 8.859 C 17.808 9.476 18.188 10.099 18.581 10.713 C 18.581 10.9 18.582 11.087 18.578 11.274 C 18.522 11.264 18.466 11.254 18.41 11.244 C 18.076 10.738 17.769 10.214 17.438 9.706 L 17.435 11.422 L 17.21 11.424 L 16.985 11.422 C 16.983 10.568 16.981 9.714 16.986 8.86 L 17.202 8.858 Z M 11.9 9.338 L 12.221 9.34 L 12.543 9.354 C 12.544 9.496 12.543 9.639 12.542 9.781 C 12.066 10.071 11.608 10.394 11.125 10.671 C 10.983 10.617 10.875 10.501 10.758 10.404 C 11.074 10.209 11.384 10.002 11.703 9.812 C 11.541 9.804 11.379 9.805 11.218 9.803 C 11.215 9.652 11.214 9.502 11.216 9.351 C 11.336 9.349 11.457 9.35 11.578 9.351 L 11.9 9.338 Z M 20.478 10.021 L 21.544 10.024 L 21.544 10.464 C 20.834 10.465 20.123 10.466 19.411 10.464 L 19.411 10.024 L 20.478 10.021 Z M 15.247 9.517 L 15.469 9.52 C 15.472 9.671 15.472 9.821 15.469 9.972 C 15.321 9.976 15.173 9.976 15.025 9.972 C 15.022 9.822 15.022 9.671 15.025 9.52 L 15.247 9.517 Z M 18.999 9.204 L 19.229 9.208 L 19.229 9.648 L 18.999 9.651 L 18.77 9.649 C 18.769 9.502 18.769 9.354 18.77 9.207 L 19 9.204 L 18.999 9.204 Z M 14.089 7.365 L 14.322 7.368 C 14.324 8.031 14.327 8.693 14.32 9.355 C 14.173 9.359 14.026 9.359 13.879 9.358 C 13.829 8.698 13.869 8.032 13.859 7.37 L 14.089 7.365 Z M 15.791 8.305 C 15.949 8.619 16.149 8.912 16.277 9.241 C 16.125 9.248 15.972 9.248 15.82 9.248 C 15.64 8.938 15.465 8.624 15.293 8.308 C 15.459 8.304 15.625 8.305 15.791 8.305 Z M 18.403 8.079 L 19.019 8.081 C 19.021 8.234 19.021 8.387 19.019 8.54 C 18.609 8.544 18.197 8.546 17.786 8.539 C 17.784 8.387 17.784 8.234 17.786 8.082 L 18.403 8.079 Z M 15.97 6.577 L 16.655 6.583 L 16.729 6.64 L 16.863 6.773 L 16.861 7.492 L 16.863 8.21 C 16.727 8.212 16.59 8.218 16.455 8.209 L 16.422 8.075 C 16.422 7.717 16.452 7.359 16.423 7.001 L 15.417 7.001 L 15.415 7.182 L 15.414 7.362 L 14.988 7.362 C 14.989 7.17 14.968 6.976 14.996 6.785 C 15.072 6.697 15.15 6.56 15.284 6.578 L 15.97 6.578 L 15.97 6.577 Z"/>
</svg>
