<?xml version="1.0" encoding="utf-8"?>
<svg fill="#d1d1d1" width="32" height="32" viewBox="0 0 32 32" xmlns="http://www.w3.org/2000/svg">
  <path d="M 15.972 4 C 9.372 4 4 9.372 4 15.972 C 4 22.572 9.372 27.954 15.982 27.954 C 22.591 27.954 27.963 22.582 27.963 15.972 C 27.963 9.363 22.582 4 15.973 4 L 15.972 4 Z M 15.972 27.03 C 9.88 27.03 4.914 22.074 4.914 15.972 C 4.924 9.88 9.88 4.923 15.972 4.923 C 22.065 4.923 27.031 9.88 27.031 15.982 C 27.031 22.074 22.074 27.031 15.972 27.031 L 15.972 27.03 Z M 9.774 10.658 L 14.46 15.344 L 15.342 14.463 L 10.655 9.776 L 9.774 10.658 Z M 16.592 17.478 L 21.278 22.165 L 22.16 21.283 L 17.473 16.597 L 16.592 17.478 Z M 15.096 15.976 L 15.984 16.864 L 16.865 15.983 L 15.978 15.095 L 15.096 15.976 Z M 16.605 14.502 L 17.486 15.382 L 22.173 10.696 L 21.291 9.816 L 16.605 14.502 Z M 9.808 21.29 L 10.688 22.171 L 15.375 17.485 L 14.494 16.604 L 9.808 21.29 Z"/>
</svg>
