<?xml version="1.0" encoding="utf-8"?>
<svg fill="#d1d1d1" width="32" height="32" viewBox="0 0 32 32" xmlns="http://www.w3.org/2000/svg">
  <path d="M 23.965 7.51 L 21.885 7.51 L 21.773 7.516 C 21.248 7.574 20.851 8.018 20.851 8.546 L 20.851 19.648 L 20.845 19.76 C 20.76 20.602 19.721 21.003 19.093 20.389 L 14.738 16.131 L 14.654 16.057 C 13.992 15.53 12.98 15.993 12.98 16.872 L 12.98 23.563 L 12.986 23.673 C 13.04 24.138 13.436 24.5 13.916 24.5 L 19.656 24.5 L 19.642 24.49 L 23.965 24.49 L 24.078 24.484 C 24.596 24.427 25 23.988 25 23.454 L 25 8.546 L 24.994 8.433 C 24.936 7.908 24.493 7.51 23.965 7.51 Z M 18.305 7.5 L 13.132 7.5 L 13.14 7.51 L 8.147 7.51 L 8.022 7.517 C 7.44 7.581 7 8.073 7 8.658 L 7 23.342 L 7.007 23.467 C 7.07 24.049 7.562 24.49 8.147 24.49 L 10.002 24.49 L 10.127 24.483 C 10.709 24.419 11.149 23.927 11.149 23.342 L 11.149 12.618 L 11.155 12.498 C 11.246 11.563 12.4 11.115 13.097 11.797 L 17.072 15.683 L 17.169 15.769 C 17.799 16.266 18.713 15.957 18.959 15.243 L 18.989 15.133 L 19.006 15.046 C 19.016 14.986 19.02 14.926 19.02 14.862 L 18.99 8.185 L 18.982 8.084 C 18.932 7.749 18.645 7.5 18.306 7.5 L 18.305 7.5 Z"/>
</svg>
