<?xml version="1.0" encoding="utf-8"?>
<svg fill="#d1d1d1" viewBox="0 0 32 32" xmlns="http://www.w3.org/2000/svg">
  <path fill-rule="evenodd" d="M 11.617 28.384 C 14.323 27.923 17.469 26.659 20.52 24.66 C 24.943 21.761 28.047 18.052 28.987 14.947 C 29.015 15.294 29.029 15.646 29.029 16 C 29.029 23.261 23.196 29.147 16 29.147 C 14.463 29.147 12.987 28.878 11.617 28.384 Z M 4.604 22.376 C 3.53 20.426 2.968 18.231 2.971 16 C 2.971 8.739 8.804 2.853 16 2.853 C 20.983 2.853 25.313 5.676 27.504 9.823 C 24.594 8.063 18.627 9.244 12.981 12.944 C 11.806 13.712 10.688 14.566 9.638 15.5 C 8.628 14.749 7.193 15.383 7.054 16.641 C 7.008 17.056 7.12 17.473 7.369 17.808 C 6.047 19.357 5.097 20.926 4.605 22.376 L 4.604 22.376 Z M 7.658 18.108 C 8.638 18.895 10.097 18.316 10.282 17.065 C 10.344 16.647 10.245 16.221 10.004 15.876 C 10.443 15.528 10.911 15.191 11.402 14.869 C 15.833 11.966 20.558 11.372 21.957 13.544 C 23.354 15.716 20.895 19.83 16.463 22.735 C 12.032 25.638 7.307 26.232 5.909 24.06 C 4.984 22.622 5.749 20.333 7.657 18.108 L 7.658 18.108 Z" style=""/>
</svg>
