<?xml version="1.0" encoding="utf-8"?>
<svg fill="#d1d1d1" viewBox="0 0 32 32" xmlns="http://www.w3.org/2000/svg">
  <path fill-rule="evenodd" d="M 26.082 16.833 C 26.589 16.833 27 16.46 27 16 L 27 14.333 C 27 13.873 26.59 13.5 26.082 13.5 L 20.552 13.5 C 20.045 13.5 19.634 13.873 19.634 14.333 C 19.634 14.793 20.045 15.166 20.552 15.166 L 25.164 15.166 L 25.164 16 C 25.164 16.46 25.575 16.833 26.082 16.833 Z M 21.533 16.833 L 20.833 16.833 L 15.601 13.653 C 15.442 13.552 15.258 13.499 15.07 13.5 L 13.235 13.5 C 12.728 13.5 12.317 13.873 12.317 14.333 C 12.317 14.793 12.727 15.166 13.235 15.166 L 14.777 15.166 L 20.129 18.406 C 20.256 18.466 20.399 18.5 20.552 18.5 L 23.368 18.5 C 23.875 18.5 24.286 18.127 24.286 17.666 C 24.286 17.206 23.876 16.833 23.368 16.833 L 21.533 16.833 Z M 15.07 16.833 L 13.516 16.833 L 8.284 13.653 C 8.125 13.552 7.941 13.499 7.753 13.5 L 5.918 13.5 C 5.411 13.5 5 13.873 5 14.333 C 5 14.793 5.41 15.166 5.918 15.166 L 7.46 15.166 L 12.812 18.406 C 12.938 18.466 13.082 18.5 13.235 18.5 L 15.07 18.5 C 15.577 18.5 15.988 18.127 15.988 17.666 C 15.988 17.206 15.577 16.833 15.07 16.833 Z M 5.918 16.833 C 5.411 16.833 5 17.206 5 17.667 C 5 18.127 5.41 18.5 5.918 18.5 L 7.753 18.5 C 8.26 18.5 8.671 18.127 8.671 17.667 C 8.671 17.207 8.26 16.833 7.753 16.833 L 5.918 16.833 Z"/>
</svg>
