<?xml version="1.0" encoding="utf-8"?>
<svg fill="#d1d1d1" height="32" viewBox="0 0 32 32" width="32" xmlns="http://www.w3.org/2000/svg">
  <path d="M 19.544 19.969 L 18.932 18.668 L 17.55 18.668 L 18.176 19.998 L 21.138 19.998 L 23.279 17.088 L 22.5 16.018 L 23.279 14.948 L 21.138 12.038 L 19.523 12.038 L 22.475 16.018 L 19.544 19.969 Z M 13.467 19.999 L 15.805 15.018 L 16.926 17.333 L 18.341 17.333 L 15.838 12 L 12.085 19.999 L 13.467 19.999 Z M 24.07 16 L 27 12.003 L 25.42 12.003 L 23.279 14.913 L 24.07 16 Z M 24.07 16 L 23.28 17.088 L 25.42 19.998 L 27 19.998 L 24.07 16 Z M 11.422 13.158 C 10.742 12.407 9.77 11.986 8.757 12.004 C 7.969 11.991 7.202 12.251 6.584 12.74 L 7.504 13.72 C 7.876 13.48 8.312 13.358 8.754 13.37 C 9.431 13.356 10.081 13.637 10.534 14.14 C 10.996 14.648 11.256 15.328 11.257 16.036 C 11.276 16.739 11.016 17.42 10.533 17.931 C 10.082 18.442 9.435 18.736 8.753 18.741 C 8.071 18.736 7.424 18.442 6.973 17.931 C 6.167 17.032 6.022 15.719 6.613 14.666 L 5.692 13.686 C 5.226 14.367 4.985 15.176 5.001 16.001 C 4.974 17.054 5.364 18.076 6.086 18.843 C 6.771 19.589 7.741 20.01 8.754 20 C 9.807 20 10.699 19.653 11.422 18.844 C 12.133 18.07 12.521 17.053 12.507 16.002 C 12.538 14.948 12.147 13.925 11.422 13.159 L 11.422 13.158 Z"/>
</svg>
