<?xml version="1.0" encoding="utf-8"?>
<svg fill="#d1d1d1" width="32" height="32" viewBox="0 0 32 32" xmlns="http://www.w3.org/2000/svg">
  <path d="M 16 28.765 C 8.95 28.765 3.235 23.05 3.235 16 C 3.235 8.95 8.95 3.235 16 3.235 C 23.05 3.235 28.765 8.95 28.765 16 C 28.765 23.05 23.05 28.765 16 28.765 Z M 25.563 14.938 C 25.156 14.851 24.752 14.738 24.341 14.647 C 23.961 14.558 23.583 14.449 23.201 14.367 C 23.093 14.343 22.983 14.298 22.869 14.307 C 22.79 14.327 22.728 14.384 22.66 14.427 L 18.904 16.782 C 18.832 16.831 18.761 16.88 18.678 16.91 C 18.722 16.738 18.807 16.582 18.871 16.42 L 19.446 15.039 C 19.633 14.603 19.809 14.161 20 13.725 C 20.017 13.681 20.039 13.634 20.027 13.588 C 19.782 13.515 19.529 13.466 19.282 13.401 C 18.807 13.286 18.331 13.164 17.856 13.05 C 17.76 13.028 17.667 12.988 17.569 12.982 C 17.55 12.997 17.534 13.017 17.525 13.039 L 14.706 19.797 C 14.689 19.838 14.679 19.881 14.677 19.925 C 14.833 19.979 14.997 20.005 15.155 20.047 C 15.714 20.183 16.272 20.323 16.83 20.461 C 16.933 20.485 17.036 20.528 17.145 20.528 C 17.206 20.448 17.229 20.347 17.269 20.256 C 17.545 19.605 17.812 18.95 18.09 18.299 C 18.136 18.191 18.169 18.078 18.227 17.977 C 18.325 17.964 18.416 18.007 18.509 18.026 C 19.162 18.188 19.818 18.344 20.469 18.511 C 20.646 18.559 20.846 18.624 20.946 18.795 C 21.026 18.914 20.993 19.068 20.937 19.191 L 20.197 20.963 C 20.16 21.061 20.098 21.154 20.093 21.263 C 20.266 21.321 20.446 21.349 20.622 21.398 C 21.161 21.534 21.704 21.665 22.243 21.798 C 22.35 21.822 22.454 21.862 22.563 21.865 C 22.589 21.831 22.611 21.793 22.627 21.753 C 22.959 20.951 23.294 20.154 23.627 19.355 C 23.707 19.155 23.796 18.957 23.838 18.746 C 23.916 18.464 23.881 18.163 23.741 17.906 C 23.594 17.653 23.327 17.502 23.067 17.387 C 22.786 17.257 22.478 17.198 22.182 17.118 C 22.192 17.094 22.208 17.073 22.229 17.058 C 23.341 16.367 24.455 15.682 25.562 14.99 L 25.562 14.939 L 25.563 14.938 Z M 16.704 13.583 C 16.683 13.288 16.525 13.021 16.278 12.861 C 16.06 12.703 15.807 12.61 15.558 12.519 C 15.187 12.397 14.81 12.292 14.429 12.203 C 13.603 12.004 12.779 11.795 11.953 11.594 C 11.363 11.434 10.764 11.309 10.16 11.219 C 9.964 11.215 9.769 11.206 9.573 11.223 C 9.308 11.261 9.056 11.366 8.843 11.528 C 8.661 11.682 8.51 11.868 8.396 12.077 C 8.263 12.303 8.172 12.55 8.067 12.79 L 6.767 15.913 C 6.625 16.237 6.495 16.573 6.452 16.926 C 6.433 17.118 6.478 17.312 6.579 17.477 C 6.71 17.676 6.893 17.837 7.107 17.941 C 7.605 18.185 8.145 18.323 8.681 18.452 C 9.486 18.654 10.298 18.85 11.104 19.052 C 11.697 19.194 12.288 19.358 12.894 19.434 C 13.245 19.49 13.606 19.464 13.945 19.358 C 14.216 19.254 14.449 19.072 14.616 18.836 C 14.851 18.519 14.984 18.143 15.138 17.783 C 15.56 16.764 15.989 15.746 16.413 14.727 C 16.57 14.367 16.724 13.985 16.704 13.583 L 16.704 13.583 Z M 13.816 14.293 C 13.831 14.176 13.748 14.076 13.65 14.025 C 13.45 13.916 13.223 13.876 13.006 13.82 C 12.43 13.677 11.854 13.535 11.274 13.394 C 11.11 13.346 10.937 13.335 10.769 13.362 C 10.573 13.418 10.475 13.616 10.409 13.789 C 10.082 14.567 9.763 15.347 9.434 16.122 C 9.398 16.213 9.362 16.304 9.354 16.401 C 9.354 16.513 9.431 16.61 9.526 16.657 C 9.669 16.73 9.825 16.771 9.976 16.811 L 11.775 17.253 C 11.984 17.301 12.203 17.355 12.417 17.308 C 12.596 17.25 12.688 17.066 12.754 16.904 L 13.636 14.789 C 13.705 14.629 13.794 14.471 13.816 14.294 L 13.816 14.293 Z" style=""/>
</svg>
