<?xml version="1.0" encoding="utf-8"?>
<svg fill="#d1d1d1" width="32" height="32" viewBox="0 0 32 32" xmlns="http://www.w3.org/2000/svg">
  <path d="M 7.671 12 C 5.423 12 4 13.695 4 15.845 C 4 17.994 5.423 19.685 7.671 19.685 C 9.919 19.685 11.345 18.006 11.345 15.845 C 11.345 13.683 9.922 12 7.67 12 L 7.671 12 Z M 24.358 12.002 C 21.909 12.002 20.768 13.886 20.768 15.894 C 20.768 18.051 22.088 19.682 24.138 19.682 C 25.34 19.682 26.012 19.126 26.282 18.656 L 26.282 19.493 L 27.548 19.493 L 27.548 15.577 L 24.138 15.577 L 24.138 16.837 L 26.24 16.837 L 26.213 17.009 C 26.029 17.959 25.285 18.405 24.346 18.405 C 22.923 18.405 22.13 17.359 22.13 15.852 C 22.13 14.439 22.829 13.279 24.316 13.279 C 25.288 13.279 26.074 13.775 26.158 14.608 L 27.548 14.608 L 27.522 14.418 C 27.262 12.864 26.017 12.002 24.358 12.002 Z M 14.027 12.178 L 12.3 12.178 L 12.3 19.501 L 13.545 19.501 L 13.545 14.342 L 15.429 19.501 L 16.653 19.501 L 18.535 14.342 L 18.535 19.501 L 19.811 19.501 L 19.811 12.178 L 18.086 12.178 L 16.056 17.776 L 14.026 12.178 L 14.027 12.178 Z M 7.671 13.308 C 9.104 13.308 9.964 14.397 9.964 15.845 C 9.964 17.292 9.106 18.383 7.671 18.383 C 6.238 18.383 5.381 17.305 5.381 15.85 C 5.381 14.394 6.238 13.309 7.671 13.309 L 7.671 13.308 Z"/>
</svg>
