<?xml version="1.0" encoding="utf-8"?>
<svg fill="#d1d1d1" width="32" height="32" viewBox="0 0 32 32" xmlns="http://www.w3.org/2000/svg">
  <path d="M 21.143 7 C 19.019 7 17.286 8.738 17.23 10.869 L 17.23 15.186 C 16.838 15.186 16.447 15.242 16 15.242 C 15.553 15.242 15.161 15.242 14.77 15.298 L 14.77 10.868 C 14.77 8.738 12.981 7 10.801 7.056 C 8.733 7.056 7.056 8.794 7 10.869 L 7 21.186 C 7.056 23.316 8.789 25.055 10.969 24.999 C 13.093 24.943 14.77 23.261 14.77 21.186 L 14.77 16.868 C 15.161 16.868 15.553 16.812 16 16.812 C 16.447 16.812 16.838 16.812 17.23 16.756 L 17.23 21.13 C 17.286 23.26 19.019 24.999 21.199 24.943 C 23.323 24.887 25 23.204 25 21.13 L 25 10.869 C 25 8.739 23.267 7 21.143 7 Z M 13.26 17.093 L 13.204 21.186 C 13.22 22.46 12.186 23.497 10.912 23.485 C 9.638 23.497 8.603 22.459 8.62 21.185 L 8.62 20.177 C 8.62 19.28 9.347 18.382 10.577 17.877 C 11.415 17.485 12.31 17.261 13.26 17.093 Z M 23.434 14.906 L 23.434 21.186 C 23.43 22.451 22.407 23.477 21.142 23.485 C 19.868 23.497 18.833 22.459 18.85 21.185 L 18.85 16.645 C 19.985 16.465 21.093 16.145 22.148 15.691 C 22.595 15.467 23.042 15.242 23.434 14.906 Z M 10.913 8.57 C 12.187 8.558 13.221 9.595 13.205 10.869 L 13.205 15.411 C 12.07 15.591 10.963 15.911 9.907 16.364 C 9.46 16.588 9.012 16.812 8.621 17.149 L 8.621 10.869 C 8.621 9.635 9.627 8.57 10.913 8.57 Z M 21.087 8.57 C 22.361 8.558 23.395 9.595 23.379 10.869 L 23.379 11.879 C 23.435 12.831 22.708 13.672 21.479 14.233 C 20.639 14.626 19.745 14.85 18.795 15.018 L 18.795 10.868 C 18.779 9.595 19.814 8.558 21.087 8.57 Z"/>
</svg>
