<?xml version="1.0" encoding="utf-8"?>
<svg fill="#d1d1d1" width="32" height="32" viewBox="0 0 32 32" xmlns="http://www.w3.org/2000/svg">
  <path d="M 15.943 26.311 C 21.683 26.311 26.031 22.465 26.933 17.433 L 22.036 17.433 C 21.304 20.105 19.032 22.061 16.001 22.061 C 12.992 22.061 10.691 20.091 9.928 17.433 L 5 17.433 C 5.869 22.483 10.18 26.311 15.943 26.311 Z M 15.971 10.054 C 17.916 10.054 19.132 7.948 18.159 6.263 C 17.708 5.482 16.874 5 15.971 5 C 14.026 5 12.81 7.106 13.783 8.79 C 14.234 9.572 15.068 10.054 15.971 10.054 Z M 9.655 17.434 L 22.285 17.434 C 22.279 13.84 19.652 10.857 15.94 10.857 C 12.229 10.857 9.655 13.79 9.655 17.382 L 9.655 17.433 L 9.655 17.434 Z"/>
</svg>
