<?xml version="1.0" encoding="utf-8"?>
<svg fill="#d1d1d1" width="32" height="32" viewBox="0 0 32 32" xmlns="http://www.w3.org/2000/svg">
  <path d="M 16.346 24.993 C 16.562 24.972 16.97 24.953 17.372 24.889 C 19.49 24.549 21.29 23.595 22.707 21.987 C 24.624 19.811 25.345 17.265 24.847 14.407 C 24.453 12.149 23.326 10.3 21.513 8.896 C 19.483 7.323 17.171 6.736 14.633 7.108 C 12.795 7.363 11.089 8.206 9.771 9.512 C 7.676 11.564 6.767 14.067 7.061 16.989 C 7.193 18.311 7.63 19.583 8.338 20.707 C 8.379 20.765 8.389 20.84 8.365 20.907 C 8.157 21.569 7.813 22.179 7.355 22.7 C 6.645 23.505 7.055 24.747 8.102 24.96 C 8.488 25.039 8.876 24.985 9.26 24.935 C 10.157 24.811 11.022 24.518 11.81 24.073 C 11.89 24.028 11.95 24.031 12.03 24.07 C 13.33 24.715 14.707 25.01 16.346 24.993 Z M 9.916 22.605 C 10.02 22.38 10.116 22.181 10.206 21.979 C 10.41 21.51 10.57 21.027 10.685 20.528 C 10.762 20.218 10.7 19.89 10.515 19.629 C 10.035 18.911 9.697 18.131 9.551 17.28 C 9.105 14.697 9.882 12.544 11.895 10.863 C 12.933 9.996 14.153 9.532 15.505 9.438 C 17.507 9.3 19.235 9.942 20.657 11.35 C 21.837 12.519 22.487 13.954 22.562 15.616 C 22.679 18.211 21.599 20.215 19.429 21.608 C 18.174 22.413 16.771 22.696 15.284 22.537 C 14.38 22.44 13.507 22.155 12.72 21.7 C 12.349 21.487 12.002 21.5 11.65 21.748 C 11.162 22.098 10.625 22.373 10.056 22.565 C 10.019 22.577 9.981 22.587 9.916 22.605 Z M 16.007 12.193 C 15.978 12.245 15.962 12.27 15.948 12.297 C 15.568 13.065 15.188 13.832 14.811 14.602 C 14.773 14.679 14.731 14.728 14.639 14.741 C 14.062 14.82 13.487 14.904 12.911 14.986 L 11.995 15.118 L 11.965 15.166 C 12.005 15.192 12.054 15.211 12.088 15.245 C 12.686 15.828 13.282 16.412 13.878 16.997 C 13.934 17.052 13.99 17.098 13.971 17.199 C 13.847 17.88 13.73 18.563 13.611 19.245 L 13.507 19.877 C 13.566 19.849 13.597 19.836 13.628 19.819 C 14.375 19.427 15.122 19.036 15.866 18.639 C 15.97 18.583 16.047 18.589 16.148 18.642 C 16.888 19.039 17.63 19.429 18.372 19.82 C 18.404 19.837 18.439 19.848 18.485 19.866 C 18.482 19.826 18.482 19.803 18.479 19.782 C 18.336 18.937 18.197 18.092 18.047 17.249 C 18.025 17.126 18.057 17.052 18.141 16.971 C 18.619 16.513 19.094 16.051 19.568 15.589 C 19.719 15.442 19.863 15.286 20.018 15.127 C 19.982 15.119 19.953 15.111 19.924 15.107 C 19.084 14.985 18.246 14.862 17.406 14.745 C 17.294 14.73 17.226 14.692 17.176 14.584 C 16.983 14.169 16.778 13.761 16.576 13.35 C 16.391 12.973 16.206 12.595 16.007 12.193 Z"/>
</svg>
