<?xml version="1.0" encoding="utf-8"?>
<svg fill="#d1d1d1" width="32" height="32" viewBox="0 0 32 32" xmlns="http://www.w3.org/2000/svg">
  <path d="M 15.937 10.222 L 17.947 7.086 C 19.49 7.336 20.724 5.823 20.17 4.362 C 19.936 3.745 19.416 3.28 18.777 3.116 C 17.247 2.799 15.947 4.258 16.438 5.741 C 16.506 5.948 16.607 6.142 16.737 6.316 L 14.243 10.207 C 9.866 10.638 6.667 14.537 7.101 18.914 C 7.534 23.29 11.431 26.486 15.807 26.056 C 20.183 25.623 23.38 21.726 22.95 17.35 C 22.58 13.62 19.66 10.653 15.937 10.222 Z M 15.022 22.344 C 12.689 22.346 10.796 20.454 10.798 18.121 C 10.796 15.787 12.688 13.895 15.022 13.897 C 16.779 13.897 18.352 14.985 18.972 16.629 C 18.146 15.565 16.613 15.371 15.548 16.196 C 14.483 17.022 14.289 18.555 15.115 19.62 C 16.09 20.874 17.984 20.878 18.964 19.627 C 18.342 21.264 16.773 22.345 15.022 22.344 Z"/>
</svg>
