<?xml version="1.0" encoding="utf-8"?>
<svg fill="#d1d1d1" viewBox="0 0 32 32" xmlns="http://www.w3.org/2000/svg">
  <path d="M 16.858 25.5 C 18.146 25.5 18.511 24.306 18.511 23.394 C 18.511 22.482 18.446 22.069 18.446 21.657 C 18.446 21.007 18.774 19.384 19.369 18.704 C 20.528 17.379 21.258 16.192 21.258 14.47 C 22.266 13.949 24.048 13.471 24.734 12.69 C 25.42 11.909 26 10.8 26 9.214 C 26 8.809 25.914 8.237 25.742 7.499 C 25.347 8.733 24.739 9.579 23.918 10.039 C 22.717 10.713 21.363 11.212 20.206 11.212 L 11.794 11.212 C 10.637 11.212 9.284 10.712 8.082 10.039 C 7.262 9.579 6.653 8.733 6.258 7.499 C 6.086 8.238 6 8.81 6 9.215 C 6 10.8 6.58 11.908 7.266 12.689 C 7.952 13.47 9.734 13.949 10.742 14.469 C 10.742 16.192 11.472 17.379 12.631 18.704 C 13.226 19.384 13.554 21.007 13.554 21.657 C 13.554 22.069 13.489 22.482 13.489 23.394 C 13.489 24.306 13.854 25.5 15.142 25.5 L 16.858 25.5 Z"/>
</svg>
