<?xml version="1.0" encoding="utf-8"?>
<svg fill="#d1d1d1" width="32" height="32" viewBox="0 0 32 32" xmlns="http://www.w3.org/2000/svg">
  <path d="M 16.663 7.55 C 16.11 7.516 15.556 7.535 15.007 7.607 C 14.288 7.674 13.584 7.851 12.918 8.131 C 12.143 8.511 11.643 9.144 11.643 9.991 C 11.643 11.091 12.535 11.985 13.637 11.985 C 13.821 11.985 14.458 11.783 14.61 11.731 C 17.723 10.645 20.935 13.085 20.724 16.375 C 20.501 19.915 16.53 21.887 13.575 19.924 C 13.125 19.625 12.73 19.248 12.41 18.812 L 12.277 18.622 L 12.176 18.479 C 11.372 17.271 11.569 15.489 11.568 15.466 C 11.51 13.93 9.811 13.032 8.509 13.851 C 8.086 14.117 7.778 14.532 7.646 15.015 C 7.601 15.182 7.578 15.671 7.585 15.736 C 7.371 20.992 11.909 25.192 17.132 24.572 C 23.667 23.794 26.909 16.234 22.968 10.963 C 21.468 8.957 19.163 7.709 16.662 7.551 L 16.663 7.55 Z M 8.673 10.19 C 7.678 9.729 6.556 10.518 6.655 11.611 C 6.753 12.703 7.997 13.28 8.894 12.648 C 9.739 12.054 9.69 10.786 8.802 10.258 L 8.673 10.19 Z M 9.953 7.599 C 9.183 7.248 8.322 7.863 8.404 8.705 C 8.485 9.547 9.448 9.985 10.136 9.494 C 10.782 9.033 10.741 8.061 10.06 7.655 L 9.953 7.599 Z M 6.328 7.561 C 5.779 7.326 5.181 7.774 5.252 8.367 C 5.324 8.96 6.01 9.254 6.488 8.895 C 6.929 8.565 6.895 7.893 6.422 7.609 L 6.328 7.561 Z"/>
</svg>
