<?xml version="1.0" encoding="utf-8"?>
<svg fill="#d1d1d1" width="32" height="32" viewBox="0 0 32 32" xmlns="http://www.w3.org/2000/svg">
  <path d="M 16 23.412 C 15.126 23.412 14.417 24.103 14.417 24.956 C 14.417 25.809 15.126 26.5 16 26.5 C 16.875 26.5 17.583 25.809 17.583 24.956 C 17.583 24.103 16.875 23.412 16 23.412 Z M 19.958 21.199 C 19.084 21.199 18.375 21.889 18.375 22.743 C 18.375 23.595 19.084 24.287 19.958 24.287 C 20.833 24.287 21.542 23.595 21.542 22.743 C 21.542 21.89 20.832 21.199 19.958 21.199 Z M 11.567 21.559 C 10.867 21.559 10.3 22.112 10.3 22.794 C 10.3 23.476 10.867 24.029 11.567 24.029 C 12.267 24.029 12.833 23.476 12.833 22.794 C 12.833 22.112 12.266 21.559 11.567 21.559 Z M 23.917 18.882 C 23.042 18.882 22.333 19.574 22.333 20.427 C 22.333 21.279 23.043 21.971 23.917 21.971 C 24.791 21.971 25.5 21.279 25.5 20.427 C 25.5 19.574 24.791 18.882 23.917 18.882 Z M 16 19.192 C 15.3 19.192 14.733 19.744 14.733 20.427 C 14.733 21.109 15.3 21.662 16 21.662 C 16.7 21.662 17.267 21.109 17.267 20.427 C 17.267 19.744 16.7 19.191 16 19.191 L 16 19.192 Z M 7.239 19.706 C 6.836 19.701 6.505 20.023 6.5 20.426 C 6.5 20.824 6.83 21.147 7.239 21.147 C 7.642 21.152 7.973 20.83 7.978 20.427 C 7.973 20.023 7.642 19.7 7.238 19.706 L 7.239 19.706 Z M 19.959 16.926 C 19.259 16.926 18.692 17.48 18.692 18.162 C 18.692 18.844 19.259 19.397 19.958 19.397 C 20.658 19.397 21.225 18.844 21.225 18.162 C 21.225 17.48 20.658 16.927 19.958 16.927 L 19.959 16.926 Z M 11.567 17.236 C 11.02 17.229 10.571 17.666 10.564 18.213 C 10.571 18.76 11.02 19.198 11.567 19.191 C 12.114 19.198 12.562 18.76 12.569 18.213 C 12.562 17.666 12.114 17.228 11.567 17.235 L 11.567 17.236 Z M 23.917 14.456 C 23.042 14.456 22.333 15.147 22.333 16 C 22.333 16.853 23.043 17.544 23.917 17.544 C 24.791 17.544 25.5 16.853 25.5 16 C 25.5 15.147 24.791 14.456 23.917 14.456 Z M 16 15.022 C 15.453 15.015 15.004 15.453 14.997 16 C 15.004 16.547 15.453 16.985 16 16.978 C 16.547 16.985 16.996 16.547 17.003 16 C 16.996 15.453 16.547 15.015 16 15.022 Z M 7.239 15.279 C 6.836 15.274 6.505 15.597 6.5 16 C 6.5 16.398 6.83 16.72 7.239 16.72 C 7.642 16.725 7.973 16.403 7.978 16 C 7.973 15.597 7.641 15.274 7.238 15.28 L 7.239 15.279 Z M 19.959 12.654 C 19.259 12.654 18.692 13.207 18.692 13.89 C 18.692 14.572 19.259 15.125 19.958 15.125 C 20.658 15.125 21.225 14.572 21.225 13.89 C 21.225 13.207 20.658 12.654 19.958 12.654 L 19.959 12.654 Z M 11.567 12.912 C 11.02 12.905 10.571 13.343 10.564 13.89 C 10.571 14.437 11.02 14.875 11.567 14.868 C 12.114 14.875 12.562 14.437 12.569 13.89 C 12.562 13.343 12.114 12.905 11.567 12.912 Z M 23.917 10.029 C 23.042 10.029 22.333 10.721 22.333 11.573 C 22.333 12.426 23.043 13.118 23.917 13.118 C 24.791 13.118 25.5 12.426 25.5 11.573 C 25.5 10.721 24.791 10.029 23.917 10.029 Z M 16 10.34 C 15.3 10.34 14.733 10.892 14.733 11.575 C 14.733 12.257 15.3 12.81 16 12.81 C 16.7 12.81 17.267 12.257 17.267 11.575 C 17.267 10.892 16.7 10.339 16 10.339 L 16 10.34 Z M 7.239 10.854 C 6.836 10.849 6.505 11.171 6.5 11.574 C 6.5 11.973 6.83 12.295 7.239 12.295 C 7.642 12.3 7.973 11.978 7.978 11.575 C 7.973 11.171 7.642 10.848 7.238 10.854 L 7.239 10.854 Z M 19.959 7.766 C 19.084 7.766 18.375 8.457 18.375 9.31 C 18.375 10.163 19.084 10.854 19.958 10.854 C 20.833 10.854 21.542 10.163 21.542 9.31 C 21.542 8.457 20.832 7.766 19.958 7.766 L 19.959 7.766 Z M 11.567 8.075 C 10.867 8.075 10.3 8.628 10.3 9.31 C 10.3 9.992 10.867 10.545 11.567 10.545 C 12.267 10.545 12.833 9.992 12.833 9.31 C 12.833 8.628 12.266 8.075 11.567 8.075 Z M 16 5.5 C 15.126 5.5 14.417 6.191 14.417 7.044 C 14.417 7.897 15.126 8.588 16 8.588 C 16.875 8.588 17.583 7.897 17.583 7.044 C 17.583 6.191 16.875 5.5 16 5.5 Z"/>
</svg>
