<?xml version="1.0" encoding="utf-8"?>
<svg fill="#d1d1d1" width="32" height="32" viewBox="0 0 32 32" xmlns="http://www.w3.org/2000/svg">
  <path d="M 10.913 6.003 C 9.161 6.023 7.505 7.038 6.653 8.564 C 6.179 9.384 6.001 10.304 6 11.242 L 6.001 20.429 C 5.995 21.141 6.026 21.826 6.248 22.509 C 6.743 24.091 8.078 25.373 9.671 25.819 C 9.189 25.434 8.976 24.899 8.819 24.32 C 8.495 23.05 8.47 21.73 8.522 20.43 C 8.517 17.367 8.524 14.304 8.518 11.242 C 8.523 10.715 8.562 10.22 8.831 9.754 C 9.246 9.01 10.055 8.512 10.913 8.524 C 14.103 8.521 17.298 8.524 20.488 8.522 C 20.97 8.523 21.408 8.487 21.868 8.662 C 22.647 8.933 23.23 9.587 23.409 10.392 C 23.504 10.855 23.479 11.369 23.48 11.842 L 23.48 20.829 C 23.48 21.27 23.431 21.702 23.242 22.105 C 22.851 22.924 22.005 23.492 21.089 23.475 C 18.563 23.479 16.035 23.475 13.509 23.477 C 13.505 22.653 13.506 21.828 13.509 21.004 C 15.57 21.004 17.631 21.001 19.692 21.006 C 20.136 21.03 20.647 20.805 20.852 20.396 C 20.967 20.186 20.986 19.964 20.991 19.731 C 20.989 17.234 20.99 14.738 20.99 12.24 C 21.019 11.787 20.779 11.359 20.378 11.146 C 20.037 10.946 19.671 10.998 19.292 10.991 C 16.932 10.997 14.569 10.988 12.21 10.996 C 11.535 10.979 10.973 11.567 10.994 12.24 C 10.984 15.828 10.994 19.436 10.989 23.026 C 11.008 23.739 10.985 24.415 11.398 25.032 C 11.711 25.542 12.24 25.801 12.81 25.914 C 13.483 26.023 14.127 25.997 14.804 25.998 C 16.864 25.998 18.925 25.997 20.987 26 C 22.012 26.009 23.011 25.676 23.852 25.096 C 24.755 24.43 25.455 23.511 25.777 22.429 C 26 21.697 25.996 20.986 26 20.229 L 26 11.642 C 25.996 11.151 25.99 10.649 25.915 10.162 C 25.705 8.961 25.066 7.877 24.117 7.112 C 23.233 6.393 22.127 6.001 20.987 6.002 C 17.63 6.001 14.27 5.998 10.913 6.002 L 10.913 6.003 Z M 18.453 13.513 L 18.453 18.487 L 13.51 18.487 L 13.51 13.513 L 18.455 13.513 L 18.453 13.513 Z"/>
</svg>
