<?xml version="1.0" encoding="utf-8"?>
<svg fill="#d1d1d1" width="32" height="32" viewBox="0 0 32 32" xmlns="http://www.w3.org/2000/svg">
  <path d="M 16 4 C 9.373 4 4 9.373 4 16 C 4 22.627 9.373 28 16 28 C 22.627 28 28 22.627 28 16 C 28 9.373 22.627 4 16 4 Z M 22 9.813 C 23.243 9.813 24.25 10.82 24.25 12.063 L 24.25 15.437 C 24.25 16.68 23.243 17.687 22 17.687 L 19.214 17.687 L 19.034 18.531 C 18.984 18.744 18.798 18.897 18.58 18.906 L 18.017 18.906 C 17.816 18.915 17.667 18.724 17.722 18.531 L 17.902 17.688 L 16.589 17.688 L 16.409 18.531 C 16.359 18.744 16.173 18.897 15.955 18.906 L 15.392 18.906 C 15.191 18.915 15.042 18.724 15.097 18.531 L 15.277 17.688 L 13.87 17.688 L 12.634 23.5 L 9.634 23.5 L 11.826 13.187 L 14.826 13.187 L 14.348 15.437 L 20.125 15.437 C 20.746 15.437 21.25 14.934 21.25 14.313 L 21.25 13.187 C 21.25 12.567 20.746 12.063 20.125 12.063 L 7.75 12.063 L 9.625 9.813 L 16.951 9.813 L 17.13 8.969 C 17.18 8.756 17.366 8.603 17.584 8.594 L 18.147 8.594 C 18.348 8.585 18.497 8.776 18.442 8.969 L 18.263 9.813 L 19.576 9.813 L 19.755 8.969 C 19.805 8.756 19.991 8.603 20.209 8.594 L 20.772 8.594 C 20.973 8.585 21.122 8.776 21.067 8.969 L 20.888 9.813 L 22 9.813 Z"/>
</svg>
