<?xml version="1.0" encoding="utf-8"?>
<svg fill="#d1d1d1" viewBox="0 0 32 32" xmlns="http://www.w3.org/2000/svg">
  <path d="M 15.08 20.156 L 12.284 21.316 L 12.437 20.477 L 14.534 19.607 C 14.795 19.497 14.919 19.198 14.811 18.936 C 14.705 18.674 14.406 18.548 14.144 18.656 L 12.657 19.274 L 12.94 17.718 L 18.215 17.718 C 22.798 17.718 25.5 14.86 25.5 11.165 C 25.5 8.252 23.427 6.867 19.28 7.01 L 12.507 7.01 L 10.109 20.331 L 6.816 21.698 C 6.555 21.808 6.431 22.107 6.539 22.369 C 6.645 22.631 6.944 22.757 7.206 22.649 L 9.893 21.533 L 9.743 22.372 L 7.753 23.197 C 7.492 23.307 7.368 23.606 7.476 23.868 C 7.582 24.131 7.882 24.256 8.144 24.148 L 9.526 23.574 L 9.269 25 L 11.613 25 L 12.065 22.52 L 15.471 21.106 C 15.732 20.996 15.856 20.697 15.748 20.435 C 15.642 20.173 15.343 20.047 15.081 20.155 L 15.08 20.156 Z M 14.51 9.109 L 19.664 9.109 C 22.22 9.109 22.987 10.179 22.987 11.765 C 22.987 13.349 21.767 15.534 18.557 15.534 L 13.338 15.534 L 14.51 9.109 Z" fill-rule="evenodd"/>
</svg>
