<?xml version="1.0" encoding="utf-8"?>
<svg fill="#d1d1d1" width="32" height="32" viewBox="0 0 32 32" xmlns="http://www.w3.org/2000/svg">
  <path d="M 18.603 6.912 C 16.461 5.403 14.584 5.9 12.956 7.427 L 12.954 7.427 L 12.669 7.421 C 7.099 7.376 8.733 11.62 6.839 15.931 C 4.659 20.891 7.014 22.835 10.599 23.47 L 10.793 23.503 L 11.001 23.74 C 11.568 24.365 12.248 24.877 13.005 25.25 C 18.348 27.86 18.685 23.013 24.338 20.554 C 27.513 19.174 27.524 16.474 26.058 13.982 L 26.04 14.027 L 26.057 13.982 L 25.877 13.69 C 25.94 13.787 26 13.884 26.057 13.982 C 27.019 11.244 26.572 9.093 24.466 8.702 C 22.151 8.276 20.341 8.139 18.603 6.912 Z M 13.096 11.344 C 15.866 9.354 19.421 10.14 20.716 12.997 C 21.98 15.785 21.63 19.004 19.072 20.664 C 16.513 22.323 13.092 21.58 11.452 19.009 C 9.802 16.436 10.618 13.123 13.096 11.344 Z"/>
</svg>
