<?xml version="1.0" encoding="utf-8"?>
<svg fill="#d1d1d1" viewBox="0 0 32 32" xmlns="http://www.w3.org/2000/svg">
  <path d="M 26.91 15.696 C 26.855 15.585 26.783 15.484 26.695 15.396 C 24.793 13.242 20.922 9 20.922 9 L 16.005 14.378 L 11.025 9.051 C 11.025 9.051 7.109 13.33 5.19 15.507 C 4.94 15.753 4.94 16.197 5.164 16.459 C 6.161 17.595 11.058 22.995 11.058 22.995 L 15.998 17.581 L 20.904 23 L 26.821 16.454 C 26.821 16.454 26.946 16.324 26.973 16.237 C 27.031 16.057 26.989 15.861 26.91 15.696 Z M 7.918 16.295 C 7.758 16.106 7.812 15.809 7.961 15.63 C 8.587 14.917 11.092 12.23 11.092 12.23 L 14.582 15.935 L 11.086 19.759 C 11.086 19.759 8.946 17.475 7.918 16.295 Z M 23.906 16.421 C 23.832 16.547 23.747 16.666 23.65 16.776 L 20.94 19.721 L 17.44 16 L 20.884 12.225 C 20.884 12.225 22.868 14.28 23.777 15.385 C 23.854 15.481 23.945 15.572 23.984 15.694 C 24.067 15.933 24.014 16.199 23.905 16.42 L 23.906 16.421 Z"/>
</svg>
