<?xml version="1.0" encoding="utf-8"?>
<svg fill="#d1d1d1" width="32" height="32" viewBox="0 0 32 32" xmlns="http://www.w3.org/2000/svg">
  <path d="M 11.687 10.062 L 11.719 10.062 C 14.594 10.125 17.469 10 20.344 10.125 C 21.062 10.125 21.906 10.469 22.062 11.219 C 22.312 12.969 20.844 14.563 19.25 14.969 C 17.5 15.25 15.75 15.156 14.031 15.156 C 13.616 16.178 13.199 17.199 12.781 18.219 C 14.875 18.219 16.969 18.312 19.031 18 C 21.992 17.338 24.395 15.183 25.375 12.312 C 25.875 11 26.094 9.344 25.094 8.188 C 24.25 7.125 22.75 7.125 21.5 7.03 L 12.937 7 L 11.687 10.063 L 11.687 10.062 Z M 8 10.906 L 8 10.937 L 6.625 14.375 L 16.813 14.375 L 18.156 10.906 L 8 10.906 Z M 9.625 15.156 L 9.656 15.156 L 6 24.531 L 9.469 24.531 L 13.156 15.156 L 9.625 15.156 Z"/>
</svg>
