<?xml version="1.0" encoding="utf-8"?>
<svg fill="#d1d1d1" viewBox="0 0 32 32" xmlns="http://www.w3.org/2000/svg">
  <g fill-rule="evenodd">
    <path d="M 23.452 8.929 C 21.597 7.053 19.068 5.998 16.43 6 C 10.946 6 6.5 10.477 6.5 16 C 6.5 18.624 7.503 21.011 9.144 22.795 L 9.144 15.674 L 9.152 15.674 C 9.321 11.774 12.515 8.663 16.43 8.663 C 18.442 8.663 20.263 9.484 21.582 10.812 L 23.452 8.929 Z M 23.452 23.071 L 21.582 21.188 C 20.26 22.524 18.471 23.294 16.592 23.335 L 16.592 26 C 19.174 25.959 21.637 24.908 23.452 23.072 L 23.452 23.071 Z M 11.68 24.784 C 12.435 25.199 13.25 25.519 14.109 25.725 L 14.109 20.214 C 14.837 20.644 15.685 20.891 16.591 20.891 C 19.303 20.891 21.502 18.677 21.502 15.946 C 21.502 13.214 19.303 11 16.592 11 C 13.969 11 11.827 13.069 11.687 15.674 L 11.68 15.674 L 11.68 24.784 Z M 16.591 18.446 C 15.215 18.441 14.104 17.322 14.109 15.946 C 14.109 14.565 15.22 13.446 16.591 13.446 C 17.962 13.446 19.074 14.565 19.074 15.946 C 19.074 17.326 17.962 18.446 16.591 18.446 Z"/>
    <path d="M23.452 8.929l-1.87 1.883a7.238 7.238 0 00-5.152-2.149c-3.915 0-7.11 3.11-7.278 7.01h-.008v7.122A10.003 10.003 0 016.5 16c0-5.523 4.446-10 9.93-10a9.865 9.865 0 017.022 2.929zm0 14.142A9.865 9.865 0 0116.592 26v-2.664a7.238 7.238 0 004.99-2.147z" opacity=".5"/>
  </g>
</svg>
