<?xml version="1.0" encoding="utf-8"?>
<svg fill="#d1d1d1" viewBox="0 0 32 32" xmlns="http://www.w3.org/2000/svg">
  <path d="M 9.477 14.305 L 14.34 19.231 C 14.69 19.583 15.2 19.721 15.677 19.591 C 16.154 19.463 16.527 19.087 16.655 18.606 C 16.783 18.125 16.646 17.612 16.297 17.26 L 12.4 13.333 C 12.402 13.331 12.405 13.328 12.407 13.326 L 12.467 13.275 L 16.41 9.331 L 16.434 9.357 L 16.443 9.367 L 23.813 16.807 C 24.378 17.17 25.119 17.088 25.592 16.612 C 26.072 16.129 26.135 15.368 25.742 14.812 L 17.4 6.408 C 16.863 5.865 15.986 5.864 15.447 6.405 L 9.477 12.334 C 8.936 12.879 8.936 13.76 9.477 14.305 Z M 19.74 18.678 C 19.738 18.68 19.736 18.682 19.734 18.684 L 19.676 18.731 L 15.741 22.666 L 15.716 22.636 L 8.332 15.179 C 7.805 14.69 6.992 14.685 6.46 15.169 C 5.926 15.655 5.847 16.465 6.275 17.046 L 14.752 25.593 C 15.292 26.136 16.166 26.136 16.706 25.593 L 22.668 19.67 C 23.208 19.126 23.208 18.243 22.668 17.698 L 17.795 12.783 C 17.052 12.026 15.768 12.358 15.484 13.38 C 15.45 13.505 15.433 13.634 15.434 13.763 C 15.434 14.133 15.579 14.488 15.839 14.749 L 19.74 18.678 Z" fill-rule="evenodd"/>
</svg>
