<?xml version="1.0" encoding="utf-8"?>
<svg fill="#d1d1d1" viewBox="0 0 32 32" xmlns="http://www.w3.org/2000/svg">
  <path d="M 8.41 20.902 C 8.906 21.409 9.656 21.64 10.667 21.637 C 12.827 21.637 14.621 19.771 14.621 16.64 L 14.621 16.25 C 14.621 13.24 13.071 10.988 10.707 10.988 C 10.143 10.988 9.137 11.009 8.349 11.765 L 8.26 11.765 L 8.26 11.125 L 6 11.125 L 6 25 L 8.312 25 L 8.312 20.902 L 8.41 20.902 Z M 12.474 16.826 C 12.474 18.845 11.609 19.759 10.436 19.762 C 8.946 19.762 8.187 18.488 8.187 16.823 L 8.187 16.143 C 8.187 14.396 8.958 12.872 10.396 12.872 C 11.727 12.872 12.474 14.182 12.474 16.143 L 12.474 16.826 Z M 15.74 7 L 15.74 21.576 L 18.055 21.576 L 18.055 7 L 15.74 7 Z M 24.669 13.409 L 24.959 13.409 L 24.946 11.076 C 24.846 11.076 24.931 11.073 24.827 11.073 C 23.785 11.058 22.517 11.314 22 11.86 L 21.912 11.86 L 21.912 11.223 L 19.779 11.223 L 19.779 21.585 L 22.082 21.585 L 22.082 15.741 C 22.082 14.439 23.371 13.409 24.669 13.409 Z M 23.697 19.095 L 23.697 21.576 L 26 21.576 L 26 19.095 L 23.697 19.095 Z" fill-rule="evenodd"/>
</svg>
