<?xml version="1.0" encoding="utf-8"?>
<svg fill="#d1d1d1" height="32" viewBox="0 0 32 32" width="32" xmlns="http://www.w3.org/2000/svg">
  <path d="M 5 24 L 27 24 L 16 5 L 5 24 Z M 11.872 14.324 L 16 7.194 L 20.128 14.324 C 18.843 13.466 17.465 13.033 16 13.033 C 14.535 13.033 13.157 13.466 11.872 14.324 Z M 9.921 17.694 C 11.731 19.684 13.764 20.694 16 20.694 C 18.236 20.694 20.27 19.684 22.08 17.694 L 25.076 22.871 L 6.924 22.871 L 9.921 17.694 Z M 16 19.565 C 14.062 19.565 12.289 18.675 10.662 16.865 C 12.289 15.052 14.062 14.163 16 14.163 C 17.938 14.163 19.711 15.053 21.338 16.864 C 19.711 18.676 17.938 19.566 16 19.566 L 16 19.565 Z M 16 19.082 C 17.16 19.082 18.101 18.107 18.101 16.904 C 18.101 15.702 17.161 14.727 16 14.727 C 14.839 14.727 13.899 15.702 13.899 16.904 C 13.899 18.107 14.839 19.082 16 19.082 Z M 16 17.952 C 15.441 17.952 14.988 17.483 14.988 16.904 C 14.988 16.325 15.441 15.856 16 15.856 C 16.559 15.856 17.012 16.326 17.012 16.904 C 17.012 17.484 16.559 17.953 16 17.953 L 16 17.952 Z"/>
</svg>
