<?xml version="1.0" encoding="utf-8"?>
<svg fill="#d1d1d1" viewBox="0 0 32 32" xmlns="http://www.w3.org/2000/svg">
  <path d="M 24.758 7.732 C 23.954 6.94 22.87 6.497 21.742 6.5 C 20.597 6.5 19.531 6.94 18.726 7.732 L 8.87 17.438 C 8.769 17.539 8.717 17.678 8.725 17.82 L 8.725 22.816 L 6 25.5 L 7.503 25.5 L 9.521 23.513 L 14.565 23.513 C 14.708 23.514 14.845 23.456 14.943 23.351 L 24.749 13.693 L 24.759 13.683 C 25.552 12.902 25.998 11.837 26 10.724 C 26.005 9.601 25.558 8.523 24.758 7.734 L 24.758 7.732 Z M 19.026 8.86 L 19.443 8.45 C 20.055 7.846 20.882 7.51 21.742 7.514 C 22.605 7.514 23.42 7.848 24.041 8.45 C 24.051 8.46 24.061 8.478 24.08 8.488 C 24.671 9.09 24.991 9.873 24.991 10.714 C 24.991 11.564 24.651 12.366 24.041 12.978 L 23.614 13.398 L 19.802 13.398 L 22.305 10.933 C 22.504 10.739 22.512 10.422 22.324 10.217 C 22.314 10.207 22.314 10.197 22.304 10.188 C 22.095 9.988 21.767 9.988 21.558 10.188 L 19.036 12.672 L 19.036 8.859 L 19.026 8.86 Z M 10.55 22.501 L 12.606 20.475 L 16.418 20.475 L 14.362 22.501 L 10.55 22.501 Z M 16.534 16.597 L 18.969 14.199 L 22.781 14.199 L 20.346 16.597 L 16.534 16.597 Z M 19.512 17.419 L 17.242 19.654 L 13.43 19.654 L 15.7 17.419 L 19.512 17.419 Z M 15.759 12.079 L 18.203 9.671 L 18.203 13.473 L 15.759 15.89 L 15.759 12.079 Z M 12.655 15.135 L 14.925 12.9 L 14.925 16.702 L 12.655 18.937 L 12.655 15.135 Z M 9.745 18.001 L 11.83 15.957 L 11.83 19.759 L 9.745 21.803 L 9.745 18.001 Z" fill-rule="evenodd"/>
</svg>
