<?xml version="1.0" encoding="utf-8"?>
<svg fill="#d1d1d1" width="32" height="32" viewBox="0 0 32 32" xmlns="http://www.w3.org/2000/svg">
  <path d="M 25.636 22.68 L 25.636 21.68 C 25.636 21.482 25.503 21.35 25.301 21.35 L 24.636 21.35 L 24.636 20.346 C 24.636 20.147 24.503 20.012 24.305 20.012 L 23.639 20.012 L 23.639 12.667 L 24.301 12.667 C 24.5 12.667 24.636 12.535 24.636 12.333 L 24.636 11.333 L 25.301 11.333 C 25.463 11.34 25.605 11.225 25.632 11.065 C 25.666 10.899 25.599 10.767 25.467 10.697 L 16.149 6.025 C 16.052 5.992 15.948 5.992 15.851 6.025 L 6.199 10.697 C 6.069 10.768 6.001 10.916 6.033 11.061 C 6.033 11.231 6.166 11.333 6.331 11.333 L 7.331 11.333 L 7.331 12.333 C 7.331 12.531 7.464 12.663 7.662 12.663 L 8.328 12.663 L 8.328 20.012 L 7.666 20.012 C 7.466 20.012 7.331 20.144 7.331 20.342 L 7.331 21.346 L 6.666 21.346 C 6.466 21.346 6.334 21.478 6.334 21.677 L 6.334 22.68 C 6.136 22.68 6 22.813 6 23.015 C 6 23.217 6.132 23.349 6.331 23.349 L 25.636 23.349 C 25.834 23.349 25.97 23.217 25.97 23.019 C 25.97 22.819 25.838 22.68 25.64 22.68 L 25.636 22.68 Z M 7.993 11.998 L 7.993 11.333 L 23.967 11.333 L 23.967 11.998 L 7.993 11.998 Z M 21.636 12.668 L 21.636 20.012 L 20.308 20.012 L 20.308 12.667 L 21.636 12.667 L 21.636 12.668 Z M 18.308 12.668 L 18.308 20.012 L 16.977 20.012 L 16.977 12.667 L 18.307 12.667 L 18.308 12.668 Z M 14.98 12.668 L 14.98 20.012 L 13.652 20.012 L 13.652 12.667 L 14.98 12.667 L 14.98 12.668 Z M 11.652 12.668 L 11.652 20.012 L 10.325 20.012 L 10.325 12.667 L 11.652 12.667 L 11.652 12.668 Z M 23.967 21.346 L 7.997 21.346 L 7.997 20.677 L 23.97 20.677 L 23.97 21.346 L 23.967 21.346 Z"/>
</svg>
