<?xml version="1.0" encoding="utf-8"?>
<svg fill="#d1d1d1" height="32" viewBox="0 0 32 32" width="32" xmlns="http://www.w3.org/2000/svg">
  <path d="M 27 11.263 L 26.956 10.556 L 26.738 11.149 L 25.512 12.179 L 24.108 12.389 L 23.688 11.999 L 24.918 10.366 L 26.18 10 L 24.816 10.028 L 22.833 11.41 L 20.974 11.282 L 18.363 10 L 16.821 10.3 L 12.011 14.145 L 9.691 14.862 L 8.738 15.792 L 7.032 15.816 L 6.187 17.326 L 5 17.654 L 6.122 17.801 L 7.165 16.448 L 8.777 16.771 L 8.747 18.219 L 7.942 20.303 L 7.482 22.231 L 6.987 23 L 8.243 22.734 L 8.1 21.946 L 9.168 19.828 L 11.224 19.031 L 12.02 17.763 L 13.365 16.823 L 16.035 17.198 L 18.724 16.063 L 18.269 17.858 L 17.073 17.962 L 16.732 19.434 L 17.755 18.779 L 19.451 18.072 L 20.776 16.072 L 20.86 15.128 L 21.572 15.835 L 23.643 17.084 L 24.82 16.547 L 24.75 13.907 L 24.41 12.887 L 25.947 12.512 L 27 11.263 Z"/>
</svg>
