<?xml version="1.0" encoding="utf-8"?>
<svg fill="#d1d1d1" viewBox="0 0 32 32" xmlns="http://www.w3.org/2000/svg">
  <path fill-rule="evenodd" d="M 12.033 18.18 L 12.305 18.18 C 13.66 18.181 15.015 18.185 16.37 18.182 C 17.412 18.18 18.446 18.092 19.454 17.814 C 20.725 17.462 21.864 16.884 22.692 15.851 C 23.817 14.448 24.188 12.841 23.913 11.089 C 23.736 9.962 23.099 9.149 22.041 8.678 C 21.665 8.519 21.273 8.401 20.872 8.326 C 19.72 8.089 18.545 8.029 17.372 8.014 C 15.365 7.988 13.356 8.007 11.348 8.001 C 11.164 8.001 11.133 8.098 11.105 8.239 C 10.871 9.425 10.627 10.609 10.399 11.797 C 10.362 11.988 10.286 12.045 10.091 12.039 C 9.682 12.025 9.272 12.039 8.863 12.036 C 8.723 12.036 8.656 12.073 8.63 12.223 C 8.537 12.762 8.426 13.298 8.323 13.835 C 8.315 13.877 8.317 13.921 8.313 13.995 L 9.99 13.995 L 8 23.934 C 8.056 23.954 8.078 23.969 8.1 23.969 C 8.981 23.979 9.863 23.986 10.745 23.999 C 10.885 24.001 10.913 23.926 10.934 23.817 C 11.169 22.6 11.406 21.383 11.644 20.166 L 12.033 18.18 Z M 12.588 15.442 L 12.878 13.986 L 16.981 13.986 L 17.357 12.048 L 13.267 12.048 C 13.352 11.608 13.431 11.208 13.511 10.8 C 13.581 10.794 13.635 10.786 13.688 10.786 C 15.161 10.79 16.633 10.779 18.105 10.806 C 18.632 10.82 19.156 10.877 19.674 10.976 C 20.381 11.104 20.797 11.559 20.914 12.256 C 20.999 12.757 20.936 13.241 20.686 13.689 C 20.124 14.697 19.245 15.252 18.088 15.39 C 17.783 15.425 17.477 15.442 17.17 15.44 C 15.737 15.445 14.304 15.442 12.87 15.442 L 12.588 15.442 Z"/>
</svg>
