<?xml version="1.0" encoding="utf-8"?>
<svg fill="#d1d1d1" viewBox="0 0 32 32" xmlns="http://www.w3.org/2000/svg">
  <path d="M 27.995 15.954 C 27.976 15.871 27.909 15.808 27.825 15.796 L 25.567 13.533 L 26.461 10.189 C 26.49 10.079 26.425 9.967 26.316 9.937 L 22.96 9.035 L 22.12 5.892 C 22.118 5.878 22.115 5.865 22.11 5.852 L 22.086 5.765 C 22.057 5.655 21.945 5.59 21.835 5.619 L 18.553 6.501 L 16.116 4.058 C 16.035 3.981 15.907 3.981 15.826 4.058 L 13.418 6.472 L 10.244 5.619 C 10.134 5.589 10.021 5.655 9.992 5.765 L 9.118 9.035 L 5.763 9.937 C 5.653 9.966 5.587 10.079 5.617 10.189 L 6.482 13.425 L 4.06 15.853 C 3.98 15.933 3.98 16.064 4.06 16.144 L 6.55 18.641 L 5.686 21.878 C 5.657 21.988 5.722 22.1 5.831 22.13 L 9.039 22.991 L 9.924 26.301 C 9.953 26.411 10.065 26.476 10.175 26.447 L 13.457 25.565 L 15.826 27.94 C 15.906 28.021 16.036 28.021 16.116 27.94 L 18.513 25.536 L 21.903 26.447 C 22.012 26.477 22.125 26.412 22.154 26.302 L 23.039 22.992 L 26.248 22.13 C 26.357 22.1 26.422 21.988 26.393 21.878 L 25.499 18.533 L 27.805 16.221 L 27.881 16.185 C 27.968 16.144 28.015 16.049 27.995 15.955 L 27.995 15.954 Z M 25.376 18.074 L 25.205 17.433 L 26.722 16.726 L 25.376 18.074 Z M 25.867 21.501 L 23.767 20.271 L 23.767 20.27 L 25.164 18.869 L 25.867 21.501 Z M 23.657 20.681 L 25.667 21.86 L 23.162 22.533 L 23.657 20.681 Z M 21.859 25.817 L 20.609 23.644 L 22.582 23.114 L 21.859 25.817 Z M 19.355 24.692 L 20.837 25.735 L 18.848 25.201 L 19.355 24.692 Z M 16.176 27.298 L 16.176 24.908 L 18.056 25.413 L 16.176 27.298 Z M 15.766 24.945 L 15.766 27.298 L 13.915 25.442 L 15.766 24.945 Z M 10.577 25.913 L 11.759 23.863 L 13.123 25.23 L 10.577 25.913 Z M 9.497 23.114 L 10.232 23.312 L 10.062 25.228 L 9.497 23.114 Z M 6.407 21.859 L 8.417 20.666 L 8.917 22.533 L 6.407 21.859 Z M 8.214 20.309 L 6.212 21.497 L 6.886 18.977 L 8.214 20.309 Z M 4.734 16.239 L 7.193 16.239 L 6.673 18.183 L 4.734 16.239 Z M 6.814 14.664 L 4.971 15.522 L 6.605 13.884 L 6.814 14.664 Z M 6.142 10.562 L 8.167 11.736 L 6.817 13.089 L 6.142 10.562 Z M 8.48 11.422 L 8.467 11.435 L 6.347 10.205 L 8.996 9.494 L 8.48 11.422 Z M 10.252 6.382 L 11.423 8.416 L 9.576 8.912 L 10.252 6.382 Z M 12.594 7.298 L 11.167 6.293 L 13.083 6.808 L 12.594 7.298 Z M 15.766 4.7 L 15.766 7.103 L 13.876 6.595 L 15.766 4.7 Z M 16.176 7.14 L 16.176 4.7 L 18.096 6.624 L 16.176 7.14 Z M 21.572 6.116 L 20.326 8.279 L 18.888 6.837 L 21.572 6.116 Z M 21.875 8.744 L 22.02 7.105 L 22.503 8.912 L 21.875 8.744 Z M 25.725 10.204 L 23.594 11.406 L 23.083 9.494 L 25.725 10.204 Z M 23.8 11.761 L 25.939 10.553 L 25.232 13.196 L 23.8 11.761 Z M 27.242 15.792 L 24.963 15.792 L 25.445 13.991 L 27.242 15.792 Z M 24.876 16.203 L 26.867 16.203 L 25.097 17.028 L 24.876 16.203 Z M 24.566 17.275 L 24.652 16.955 L 24.719 17.205 L 24.566 17.275 Z M 24.428 17.793 L 24.827 17.607 L 25.041 18.409 L 23.979 19.474 L 24.428 17.793 Z M 23.187 20.85 L 22.704 22.655 L 20.904 23.138 L 23.187 20.85 Z M 20.32 23.143 L 18.76 20.434 L 23.943 18.019 L 23.399 20.056 L 20.32 23.143 Z M 20.232 23.813 L 21.194 25.483 L 19.65 24.396 L 20.232 23.813 Z M 19.141 24.038 L 19.532 23.932 L 19.309 24.156 L 19.141 24.038 Z M 18.624 24.176 L 19.014 24.451 L 18.391 25.077 L 16.831 24.657 L 18.624 24.176 Z M 15.247 24.658 L 13.58 25.106 L 12.36 23.882 L 15.247 24.658 Z M 10.69 22.79 L 10.987 23.088 L 10.671 23.003 L 10.69 22.79 Z M 10.311 22.41 L 10.269 22.895 L 9.374 22.655 L 8.942 21.038 L 10.311 22.41 Z M 8.15 19.663 L 7.008 18.518 L 7.426 16.955 L 8.15 19.663 Z M 7.125 15.828 L 5.288 15.828 L 6.921 15.067 L 7.125 15.828 Z M 7.589 14.755 L 7.426 15.367 L 7.299 14.891 L 7.589 14.755 Z M 7.728 14.238 L 7.191 14.488 L 6.94 13.548 L 8.268 12.216 L 7.728 14.238 Z M 9.06 10.84 L 9.453 9.371 L 10.919 8.977 L 9.06 10.84 Z M 11.744 8.15 L 10.824 6.554 L 12.3 7.593 L 11.744 8.15 Z M 12.904 8.018 L 12.291 8.183 L 12.641 7.833 L 12.904 8.018 Z M 13.421 7.879 L 12.935 7.537 L 13.541 6.931 L 15.247 7.389 L 13.421 7.879 Z M 16.831 7.389 L 18.431 6.959 L 19.601 8.133 L 16.831 7.389 Z M 21.408 9.363 L 20.973 8.927 L 21.436 9.051 L 21.408 9.363 Z M 21.786 9.743 L 21.838 9.159 L 22.625 9.371 L 23.068 11.028 L 21.786 9.743 Z M 23.86 12.403 L 25.11 13.656 L 24.652 15.366 L 23.86 12.403 Z M 18.086 19.264 L 19.673 16.436 L 20.671 18.125 C 20.752 18.26 20.949 18.257 21.026 18.119 C 21.04 18.094 21.048 18.067 21.051 18.038 L 21.214 16.204 L 24.429 16.204 L 24.082 17.502 L 18.554 20.077 L 18.086 19.264 Z M 17.302 20.661 L 17.852 19.681 L 18.181 20.251 L 17.302 20.661 Z M 13.816 20.291 L 14.336 19.388 L 17.566 19.352 L 16.633 21.015 C 16.556 21.153 16.657 21.324 16.816 21.321 C 16.844 21.321 16.872 21.315 16.898 21.303 L 18.387 20.609 L 19.986 23.386 L 18.703 23.73 L 13.816 20.291 Z M 13.61 20.648 L 18.186 23.869 L 16.039 24.446 L 12.041 23.372 L 13.61 20.648 Z M 13.859 19.393 L 13.479 20.053 L 12.562 19.408 L 13.859 19.393 Z M 11.269 16.239 L 12.284 16.239 L 13.904 18.981 L 11.921 19.004 C 11.763 19.004 11.665 19.175 11.744 19.312 C 11.759 19.338 11.78 19.361 11.805 19.378 L 13.273 20.41 L 11.671 23.192 L 10.737 22.257 L 11.269 16.239 Z M 10.859 16.239 L 10.359 21.877 L 8.729 20.244 L 7.659 16.239 L 10.859 16.239 Z M 12.041 15.828 L 11.306 15.828 L 11.402 14.746 L 12.041 15.828 Z M 13.491 12.006 L 14.001 12.891 L 12.433 15.684 L 11.431 13.987 C 11.351 13.851 11.154 13.853 11.076 13.99 C 11.061 14.016 11.052 14.044 11.05 14.074 L 10.895 15.828 L 7.728 15.828 L 8.075 14.53 L 13.491 12.006 Z M 13.285 11.649 L 8.213 14.012 L 8.848 11.635 L 11.656 8.82 L 13.285 11.649 Z M 18.292 11.811 L 17.809 12.649 L 14.587 12.685 L 15.523 11.017 C 15.6 10.879 15.499 10.708 15.34 10.711 C 15.312 10.711 15.284 10.717 15.258 10.729 L 13.658 11.475 L 12.046 8.675 L 13.342 8.326 L 18.292 11.811 Z M 18.498 11.453 L 13.858 8.188 L 16.039 7.602 L 20.089 8.69 L 18.498 11.453 Z M 18.286 12.643 L 18.629 12.048 L 19.456 12.631 L 18.286 12.643 Z M 20.802 16.204 L 20.699 17.366 L 20.013 16.204 L 20.802 16.204 Z M 14.234 12.474 L 13.864 11.832 L 14.854 11.372 L 14.234 12.474 Z M 17.797 18.941 C 17.79 18.94 17.784 18.938 17.777 18.938 L 14.379 18.976 L 12.675 16.093 L 14.355 13.099 L 17.681 13.062 L 17.686 13.073 L 19.431 16.027 L 17.797 18.941 Z M 21.739 10.277 L 23.28 11.822 L 24.342 15.793 L 21.25 15.793 L 21.739 10.277 Z M 20.839 15.793 L 19.769 15.793 L 18.153 13.056 L 20.098 13.035 C 20.256 13.034 20.354 12.863 20.274 12.727 C 20.259 12.701 20.238 12.678 20.213 12.661 L 18.835 11.691 L 20.414 8.948 L 21.361 9.898 L 20.839 15.793 Z M 21.472 8.636 L 20.712 8.431 L 21.632 6.833 L 21.472 8.636 Z M 10.634 23.42 L 11.418 23.63 L 10.469 25.278 L 10.634 23.42 Z"/>
</svg>
