<?xml version="1.0" encoding="utf-8"?>
<svg fill="#d1d1d1" viewBox="0 0 32 32" xmlns="http://www.w3.org/2000/svg">
  <path d="M 23.312 7.044 C 22.819 6.536 22.003 6.536 21.51 7.044 L 19.183 9.43 L 16.2 6.377 C 16.14 6.315 16.072 6.259 16 6.211 C 15.538 5.884 14.906 5.943 14.512 6.35 L 14.487 6.376 L 14.486 6.376 L 14.485 6.378 L 6.861 14.197 C 6.857 14.202 6.852 14.207 6.847 14.212 L 6.831 14.227 C 6.391 14.677 6.391 15.408 6.831 15.859 L 9.137 18.213 C 9.577 18.656 10.283 18.653 10.719 18.206 C 11.155 17.755 11.158 17.041 10.726 16.586 L 9.276 15.103 L 15.281 8.943 L 18.399 12.138 C 18.781 12.528 19.369 12.615 19.841 12.348 C 19.968 12.284 20.084 12.2 20.183 12.098 L 23.313 8.89 C 23.81 8.375 23.81 7.559 23.313 7.044 L 23.312 7.044 Z M 25.17 16.146 L 25.142 16.117 L 25.139 16.115 L 25.137 16.113 L 22.864 13.788 C 22.428 13.345 21.714 13.349 21.282 13.795 C 20.846 14.246 20.843 14.96 21.275 15.415 L 22.725 16.898 L 16.731 23.042 L 13.605 19.844 C 13.316 19.544 12.891 19.417 12.485 19.508 C 12.236 19.558 12.007 19.684 11.829 19.87 L 8.699 23.078 C 8.375 23.407 8.248 23.888 8.365 24.34 C 8.483 24.792 8.827 25.145 9.269 25.265 C 9.711 25.385 10.18 25.255 10.502 24.923 L 12.815 22.545 L 15.732 25.529 C 16.152 26.106 16.99 26.164 17.486 25.651 L 25.14 17.803 C 25.145 17.798 25.15 17.793 25.155 17.788 L 25.171 17.773 C 25.612 17.32 25.612 16.598 25.17 16.146 Z" fill-rule="evenodd"/>
</svg>
