<?xml version="1.0" encoding="utf-8"?>
<svg fill="#d1d1d1" width="32" height="32" viewBox="0 0 32 32" xmlns="http://www.w3.org/2000/svg">
  <path d="M 13.47 18.045 L 15.148 18.045 C 15.627 18.047 16.101 17.941 16.535 17.737 C 16.945 17.534 17.311 17.253 17.612 16.909 C 17.911 16.553 18.142 16.146 18.296 15.708 C 18.462 15.264 18.546 14.794 18.544 14.32 C 18.547 13.858 18.455 13.4 18.274 12.974 C 18.101 12.543 17.856 12.144 17.55 11.794 C 17.242 11.443 16.869 11.156 16.452 10.946 C 16.024 10.725 15.549 10.611 15.068 10.614 L 10.658 10.614 L 10.658 21.317 L 13.474 21.317 L 13.47 18.045 Z M 13.47 13.199 L 14.897 13.199 C 15.095 13.212 15.281 13.301 15.415 13.448 C 15.581 13.613 15.685 13.904 15.685 14.359 C 15.685 14.814 15.582 15.084 15.435 15.231 C 15.312 15.376 15.146 15.479 14.96 15.479 L 13.47 15.479 L 13.47 13.2 L 13.47 13.199 Z M 7.023 8.031 L 7.023 23.918 C 7.023 24.488 7.484 24.948 8.053 24.948 L 23.941 24.948 C 24.51 24.948 24.971 24.488 24.971 23.918 L 24.971 8.03 C 24.972 7.461 24.51 6.999 23.941 6.999 L 8.053 6.999 C 7.484 6.999 7.023 7.46 7.023 8.029 L 7.023 8.031 Z M 21.826 22.834 L 10.146 22.834 C 9.577 22.835 9.115 22.373 9.115 21.804 L 9.115 10.124 C 9.114 9.554 9.576 9.092 10.146 9.093 L 21.826 9.093 C 22.396 9.093 22.856 9.554 22.856 10.123 L 22.856 21.803 C 22.856 22.373 22.396 22.834 21.826 22.834 Z M 14.733 19.309 L 14.733 21.339 L 21.34 21.339 L 21.34 19.309 L 14.733 19.309 Z"/>
</svg>
