<?xml version="1.0" encoding="utf-8"?>
<svg fill="#d1d1d1" viewBox="0 0 32 32" xmlns="http://www.w3.org/2000/svg">
  <path d="M 24.281 20.867 L 24.164 20.867 C 23.404 20.867 22.643 20.867 21.882 20.865 C 21.812 20.867 21.743 20.853 21.679 20.825 C 21.471 20.719 21.453 20.479 21.635 20.298 C 22.187 19.749 22.739 19.2 23.292 18.653 C 24.045 17.908 24.801 17.166 25.551 16.418 C 25.95 16.021 26.091 15.536 25.941 14.997 C 25.544 13.55 24.822 12.214 23.831 11.088 C 21.894 8.888 19.449 7.693 16.513 7.518 C 15.27 7.446 14.024 7.607 12.841 7.994 C 11.023 8.571 9.402 9.642 8.159 11.088 C 7.281 12.097 6.613 13.27 6.192 14.539 C 6.117 14.763 6.042 14.991 6.012 15.223 C 5.952 15.695 6.115 16.1 6.454 16.435 L 7.356 17.333 C 8.341 18.313 9.327 19.291 10.31 20.273 C 10.374 20.331 10.422 20.404 10.449 20.486 C 10.501 20.696 10.347 20.866 10.116 20.866 L 7.705 20.866 C 7.69 21.259 7.709 21.631 7.833 21.994 C 8.113 22.815 8.933 23.444 9.8 23.491 C 9.887 23.496 9.974 23.498 10.062 23.498 C 14.022 23.498 17.981 23.498 21.941 23.5 C 22.419 23.5 22.864 23.395 23.263 23.13 C 24.096 22.578 24.365 21.728 24.281 20.867 Z M 8.442 21.407 L 23.552 21.407 C 23.553 21.714 23.455 22.013 23.272 22.26 C 22.994 22.635 22.622 22.845 22.15 22.871 C 22.103 22.874 22.057 22.875 22.01 22.875 L 9.982 22.876 C 9.46 22.876 9.039 22.681 8.727 22.265 C 8.544 22.016 8.444 21.717 8.442 21.408 L 8.442 21.407 Z M 18.71 13.66 L 17.866 15.077 C 18.695 15.739 19.136 16.589 19.116 17.655 C 19.107 18.352 18.853 19.024 18.398 19.552 C 17.441 20.699 15.806 21.008 14.496 20.291 C 13.103 19.528 12.507 17.839 13.114 16.371 L 11.7 15.54 C 11.64 15.69 11.579 15.832 11.529 15.977 C 11.308 16.612 11.229 17.287 11.299 17.956 C 11.383 18.78 11.667 19.533 12.151 20.209 C 12.242 20.337 12.261 20.474 12.184 20.613 C 12.071 20.814 11.81 20.843 11.637 20.673 C 11.336 20.379 11.039 20.082 10.74 19.785 L 7.18 16.245 C 6.855 15.923 6.758 15.549 6.906 15.113 C 7.493 13.39 8.406 11.871 9.751 10.626 C 10.037 10.361 10.355 10.13 10.661 9.887 C 10.707 9.851 10.728 9.817 10.73 9.757 C 10.743 9.272 11.254 8.963 11.689 9.177 C 11.743 9.208 11.81 9.209 11.864 9.178 C 12.564 8.841 13.304 8.597 14.067 8.452 C 14.98 8.279 15.911 8.226 16.837 8.296 C 18.002 8.368 19.142 8.662 20.196 9.164 C 20.23 9.181 20.286 9.179 20.323 9.164 C 20.745 8.986 21.219 9.265 21.267 9.721 C 21.272 9.761 21.307 9.811 21.342 9.835 C 22.089 10.361 22.753 10.996 23.311 11.719 C 24.041 12.661 24.612 13.717 25 14.844 C 25.053 14.994 25.11 15.146 25.137 15.302 C 25.202 15.662 25.087 15.97 24.827 16.228 L 21.238 19.795 C 20.942 20.089 20.648 20.385 20.349 20.677 C 20.145 20.875 19.836 20.787 19.767 20.516 C 19.742 20.41 19.767 20.299 19.835 20.214 C 20.191 19.714 20.445 19.169 20.585 18.571 C 20.74 17.928 20.755 17.259 20.627 16.61 C 20.389 15.402 19.763 14.439 18.775 13.703 C 18.757 13.689 18.737 13.679 18.708 13.66 L 18.71 13.66 Z M 23.375 16.7 C 23.402 16.677 23.421 16.665 23.437 16.65 L 24.361 15.731 C 24.465 15.636 24.501 15.488 24.452 15.356 C 24.109 14.26 23.585 13.229 22.902 12.306 C 22.784 12.146 22.657 11.993 22.532 11.832 L 22.433 11.925 C 22.083 12.264 21.733 12.604 21.382 12.942 C 21.224 13.095 21.053 13.09 20.898 12.934 C 20.811 12.846 20.726 12.757 20.636 12.672 C 19.514 11.619 18.184 11.017 16.651 10.852 C 16.586 10.841 16.52 10.865 16.477 10.915 C 16.219 11.187 15.786 11.189 15.525 10.92 C 15.462 10.856 15.403 10.843 15.322 10.852 C 14.696 10.918 14.082 11.069 13.498 11.302 C 13.27 11.395 13.048 11.502 12.818 11.606 L 13.464 12.723 C 15.584 11.767 17.601 11.879 19.412 13.35 C 21.155 14.766 21.688 16.647 21.25 18.817 C 21.257 18.81 21.276 18.798 21.292 18.783 C 21.752 18.326 22.212 17.87 22.669 17.41 C 22.699 17.373 22.715 17.326 22.713 17.278 C 22.689 16.481 22.52 15.695 22.216 14.958 C 22.185 14.865 22.106 14.796 22.01 14.778 C 21.641 14.678 21.433 14.287 21.558 13.925 C 21.684 13.565 22.088 13.375 22.438 13.513 C 22.803 13.649 22.973 14.068 22.806 14.42 C 22.776 14.482 22.782 14.529 22.807 14.588 C 23.037 15.112 23.203 15.663 23.299 16.228 C 23.325 16.381 23.349 16.534 23.375 16.699 L 23.375 16.7 Z M 22.109 11.39 C 22.101 11.375 22.098 11.365 22.091 11.358 C 21.745 11.004 21.366 10.685 20.959 10.403 C 20.934 10.386 20.883 10.387 20.852 10.399 C 20.448 10.568 19.993 10.309 19.931 9.875 C 19.921 9.805 19.891 9.773 19.831 9.745 C 18.886 9.304 17.867 9.043 16.826 8.977 C 15.696 8.897 14.578 8.977 13.483 9.288 C 13.019 9.418 12.569 9.591 12.137 9.804 C 12.102 9.825 12.076 9.858 12.066 9.898 C 11.995 10.285 11.606 10.528 11.227 10.422 C 11.138 10.398 11.083 10.413 11.023 10.466 C 11.005 10.481 10.985 10.493 10.966 10.506 C 9.299 11.74 8.229 13.391 7.556 15.322 C 7.493 15.504 7.536 15.642 7.671 15.772 C 7.961 16.053 8.245 16.341 8.531 16.626 L 8.617 16.706 C 8.627 16.646 8.637 16.605 8.642 16.562 C 8.73 15.871 8.917 15.196 9.197 14.558 C 9.212 14.519 9.212 14.477 9.197 14.438 C 9.004 14.009 9.241 13.555 9.707 13.478 C 9.763 13.473 9.813 13.443 9.843 13.396 C 11.173 11.502 12.989 10.418 15.303 10.164 C 15.353 10.156 15.397 10.128 15.427 10.088 C 15.694 9.679 16.293 9.678 16.561 10.086 C 16.6 10.146 16.643 10.159 16.706 10.169 C 17.066 10.227 17.43 10.267 17.783 10.353 C 19.044 10.658 20.201 11.293 21.136 12.193 C 21.159 12.215 21.184 12.236 21.211 12.259 L 22.109 11.389 L 22.109 11.39 Z M 18.445 17.57 C 18.437 16.222 17.339 15.136 15.991 15.144 C 14.641 15.151 13.547 16.244 13.553 17.578 C 13.565 18.925 14.662 20.01 16.009 20.006 C 17.355 19.998 18.452 18.901 18.445 17.569 L 18.445 17.57 Z M 10.747 18.834 C 10.7 18.529 10.643 18.252 10.617 17.971 C 10.534 17.098 10.671 16.218 11.015 15.412 C 11.26 14.832 11.598 14.312 12.027 13.851 C 12.127 13.743 12.179 13.743 12.285 13.847 C 12.364 13.924 12.442 14.002 12.519 14.081 C 12.607 14.171 12.607 14.225 12.521 14.321 C 12.465 14.383 12.407 14.443 12.357 14.509 C 12.234 14.669 12.114 14.832 11.988 15.001 L 13.395 15.828 C 14.453 14.511 15.763 14.156 17.348 14.751 L 18.187 13.344 C 18.169 13.33 18.162 13.323 18.153 13.318 C 17.249 12.854 16.22 12.696 15.218 12.865 C 14.635 12.958 14.076 13.163 13.572 13.469 C 13.379 13.586 13.233 13.543 13.121 13.348 L 12.565 12.388 L 12.3 11.935 C 12.286 11.939 12.283 11.939 12.28 11.941 C 11.546 12.422 10.915 13.044 10.424 13.771 C 10.408 13.796 10.408 13.841 10.419 13.871 C 10.579 14.299 10.369 14.691 9.919 14.796 C 9.867 14.804 9.824 14.841 9.807 14.891 C 9.482 15.652 9.303 16.467 9.279 17.294 C 9.282 17.342 9.301 17.387 9.335 17.421 C 9.593 17.683 9.855 17.94 10.115 18.199 L 10.747 18.834 Z M 15.995 10.824 C 16.201 10.822 16.369 10.657 16.374 10.451 C 16.371 10.245 16.205 10.078 15.999 10.073 C 15.793 10.077 15.626 10.241 15.619 10.447 C 15.622 10.654 15.788 10.821 15.995 10.825 L 15.995 10.824 Z M 11.395 9.41 C 11.191 9.409 11.025 9.573 11.022 9.777 C 11.022 10.068 11.337 10.25 11.589 10.104 C 11.706 10.037 11.778 9.912 11.778 9.777 C 11.775 9.569 11.603 9.404 11.395 9.41 Z M 22.196 14.51 C 22.482 14.508 22.658 14.197 22.513 13.95 C 22.446 13.836 22.323 13.766 22.19 13.767 C 21.904 13.755 21.712 14.057 21.844 14.311 C 21.912 14.441 22.05 14.519 22.196 14.51 Z M 20.593 9.41 C 20.385 9.406 20.216 9.574 20.218 9.782 C 20.22 9.989 20.391 10.155 20.598 10.152 C 20.802 10.151 20.967 9.986 20.968 9.782 C 20.973 9.573 20.802 9.403 20.593 9.409 L 20.593 9.41 Z M 10.175 14.138 C 10.175 13.93 10.005 13.763 9.797 13.767 C 9.593 13.767 9.428 13.931 9.427 14.135 C 9.423 14.343 9.591 14.512 9.799 14.51 C 10.006 14.513 10.176 14.345 10.175 14.138 Z" fill-rule="evenodd"/>
</svg>
