<?xml version="1.0" encoding="utf-8"?>
<svg fill="#d1d1d1" viewBox="0 0 32 32" xmlns="http://www.w3.org/2000/svg">
  <path fill-rule="evenodd" d="M 11.192 8 C 11.437 9.016 11.936 10.109 13.046 10.42 C 15.49 10.93 18.117 10.09 20.496 11.013 C 22.826 11.986 22.742 15.845 20.43 16.789 C 18.854 17.429 17.11 17.176 15.45 17.219 C 14.35 17.259 13.068 17.017 12.163 17.795 C 11.39 18.381 11.243 19.39 11.28 20.291 C 11.338 23.551 11.496 25 11.496 25 C 11.496 25 13.211 24.356 13.585 23.817 C 14.515 22.689 14.142 21.137 14.215 19.802 C 16.923 19.687 19.873 20.244 22.339 18.833 C 25.013 17.343 25.603 13.671 24.416 11.06 C 23.467 9.01 21.104 8.127 18.956 8 L 11.192 8 Z M 7 12.43 L 7 13.05 C 7.363 14.174 8.29 15.194 9.546 15.267 C 11.591 15.357 13.64 15.281 15.684 15.292 C 15.53 13.928 14.563 12.594 13.09 12.482 C 11.064 12.359 9.03 12.467 7 12.431 L 7 12.43 Z"/>
</svg>
