<?xml version="1.0" encoding="utf-8"?>
<svg fill="#d1d1d1" viewBox="0 0 32 32" xmlns="http://www.w3.org/2000/svg">
  <path d="M 16 5 C 9.925 5 5 9.925 5 16 C 5 22.075 9.925 27 16 27 C 22.075 27 27 22.075 27 16 C 27 9.925 22.075 5 16 5 Z M 26.44 15.55 L 25.55 15.559 L 25.546 15.186 L 26.437 15.178 L 26.441 15.55 L 26.44 15.55 Z M 26.212 13.627 L 25.329 13.75 L 25.278 13.38 L 26.16 13.258 L 26.212 13.628 L 26.212 13.627 Z M 25.452 11.285 L 25.606 11.625 L 24.795 11.993 L 24.641 11.654 L 25.451 11.285 L 25.452 11.285 Z M 24.34 9.59 L 24.586 9.87 L 23.916 10.458 L 23.671 10.178 L 24.34 9.59 Z M 23.035 8.197 L 23.317 8.441 L 22.736 9.115 L 22.453 8.872 L 23.035 8.197 Z M 21.48 6.938 L 21.792 7.141 L 21.307 7.888 L 20.995 7.686 L 21.48 6.938 Z M 19.71 6.065 L 20.071 6.16 L 19.845 7.021 L 19.484 6.926 L 19.711 6.066 L 19.71 6.065 Z M 17.765 5.587 L 18.136 5.617 L 18.062 6.505 L 17.691 6.474 L 17.765 5.587 Z M 15.751 5.352 L 16.123 5.352 L 16.123 6.243 L 15.751 6.243 L 15.751 5.352 Z M 14.097 5.587 L 14.171 6.474 L 13.799 6.506 L 13.725 5.618 L 14.097 5.587 Z M 12.151 6.065 L 12.377 6.926 L 12.017 7.021 L 11.79 6.161 L 12.15 6.065 L 12.151 6.065 Z M 10.382 6.938 L 10.867 7.686 L 10.554 7.888 L 10.069 7.141 L 10.382 6.938 Z M 8.827 8.198 L 9.408 8.872 L 9.126 9.115 L 8.545 8.441 L 8.827 8.197 L 8.827 8.198 Z M 7.523 9.588 L 8.193 10.176 L 7.946 10.456 L 7.277 9.869 L 7.523 9.589 L 7.523 9.588 Z M 6.412 11.284 L 7.222 11.653 L 7.069 11.993 L 6.258 11.623 L 6.412 11.284 Z M 5.703 13.257 L 6.586 13.379 L 6.534 13.749 L 5.652 13.626 L 5.703 13.256 L 5.703 13.257 Z M 5.427 15.177 L 6.317 15.185 L 6.314 15.558 L 5.424 15.549 L 5.427 15.177 Z M 5.509 17.269 L 6.395 17.179 L 6.432 17.549 L 5.546 17.639 L 5.509 17.269 Z M 5.912 19.163 L 6.78 18.961 L 6.865 19.324 L 5.997 19.526 L 5.912 19.163 Z M 6.883 21.426 L 6.699 21.102 L 7.472 20.66 L 7.657 20.984 L 6.883 21.426 Z M 8.145 23.013 L 7.874 22.757 L 8.487 22.11 L 8.757 22.366 L 8.145 23.013 Z M 9.57 24.28 L 9.267 24.064 L 9.784 23.338 L 10.087 23.555 L 9.57 24.28 Z M 11.234 25.391 L 10.904 25.218 L 11.318 24.43 L 11.648 24.603 L 11.234 25.391 Z M 13.075 26.099 L 12.707 26.037 L 12.854 25.159 L 13.222 25.221 L 13.075 26.099 Z M 14.684 26.401 L 14.677 25.51 L 15.05 25.506 L 15.057 26.397 L 14.684 26.401 Z M 6.74 16 C 6.74 10.894 10.894 6.74 16 6.74 C 21.106 6.74 25.26 10.894 25.26 16 C 25.26 21.106 21.106 25.26 16 25.26 C 10.894 25.26 6.74 21.106 6.74 16 Z M 16.726 26.481 L 16.714 26.482 L 16.633 25.596 L 17.004 25.562 L 17.016 25.56 L 17.097 26.447 L 16.726 26.481 Z M 18.711 26.063 L 18.556 25.186 L 18.923 25.121 L 19.078 25.999 L 18.711 26.063 Z M 20.605 25.409 L 20.3 24.572 L 20.65 24.445 L 20.955 25.282 L 20.605 25.409 Z M 22.286 24.379 L 21.736 23.679 L 22.028 23.447 L 22.579 24.147 L 22.286 24.378 L 22.286 24.379 Z M 23.72 22.982 L 23.08 22.364 L 23.338 22.095 L 23.978 22.715 L 23.72 22.982 Z M 24.892 21.477 L 24.172 20.952 L 24.392 20.651 L 25.112 21.175 L 24.892 21.477 Z M 25.844 19.687 L 25.002 19.393 L 25.125 19.041 L 25.966 19.335 L 25.844 19.686 L 25.844 19.687 Z M 26.369 17.657 L 25.479 17.617 L 25.496 17.244 L 26.386 17.285 L 26.369 17.657 Z M 19.536 20.732 L 19.258 20.452 L 18.719 19.906 C 19.344 19.312 19.74 18.713 19.676 17.332 C 19.671 17.224 19.682 15.849 19.682 15.74 L 19.679 14.707 C 19.682 12.157 19.059 11.001 17.341 10.592 C 17.146 10.545 16.208 10.522 16.004 10.522 L 15.914 10.522 C 15.71 10.522 14.647 10.545 14.452 10.592 C 12.734 11.001 12.111 12.157 12.114 14.707 L 12.111 15.739 C 12.111 15.848 12.121 17.224 12.117 17.331 C 12 19.887 13.454 20.673 15.027 20.615 L 16.766 20.615 C 17.22 20.635 17.672 20.544 18.082 20.348 L 18.714 20.988 L 18.992 21.269 C 19.151 21.419 19.394 21.427 19.541 21.281 C 19.688 21.136 19.684 20.893 19.535 20.732 L 19.536 20.732 Z M 16.877 19.804 L 16.796 19.803 L 16.781 19.802 L 14.998 19.802 C 14.971 19.803 14.944 19.804 14.917 19.804 C 14.543 19.804 14.006 19.709 13.573 19.255 C 13.107 18.767 12.884 18.359 12.929 17.369 C 12.933 17.299 12.933 17.298 12.926 16.056 C 12.925 15.718 12.925 15.379 12.926 15.041 C 12.926 14.615 12.928 14.765 12.928 14.706 C 12.926 13.576 13.054 12.594 13.329 12.151 C 13.492 11.887 13.774 11.591 14.628 11.385 C 14.796 11.36 15.656 11.334 15.913 11.334 L 16.005 11.334 C 16.263 11.334 16.998 11.36 17.167 11.385 C 18.02 11.591 18.302 11.887 18.465 12.151 C 18.74 12.594 18.868 13.576 18.867 14.706 L 18.869 15.041 L 18.87 15.739 L 18.868 16.056 C 18.861 17.298 18.862 17.3 18.865 17.369 C 18.91 18.359 18.688 18.767 18.222 19.255 L 18.148 19.328 L 17.649 18.823 L 17.372 18.543 C 17.213 18.391 16.97 18.384 16.822 18.53 C 16.676 18.675 16.68 18.918 16.829 19.078 L 17.107 19.359 L 17.463 19.719 C 17.273 19.776 17.076 19.805 16.877 19.804 Z"/>
</svg>
