<?xml version="1.0" encoding="utf-8"?>
<svg fill="#d1d1d1" viewBox="0 0 32 32" xmlns="http://www.w3.org/2000/svg">
  <path d="M 22.59 19.445 C 22.565 19.225 22.438 18.721 22.108 18.592 C 21.943 18.527 21.803 18.579 21.74 18.695 C 21.638 18.876 21.714 19.225 21.905 19.535 C 22.095 19.846 22.273 20.001 22.4 20.001 C 22.527 20.001 22.641 19.846 22.59 19.445 Z M 20.813 20.325 C 20.61 20.143 20.381 20.053 20.178 20.053 C 20.021 20.044 19.87 20.111 19.771 20.233 C 19.543 20.518 19.645 21.035 20.001 21.346 C 20.153 21.488 20.381 21.566 20.597 21.566 C 20.797 21.571 20.988 21.485 21.117 21.333 C 21.321 21.048 21.207 20.661 20.813 20.324 L 20.813 20.325 Z M 7 14.894 C 7 19.806 10.91 23.788 15.734 23.788 C 17.017 23.788 18.286 23.543 20.153 23.529 C 21.816 23.529 23.644 24.124 25.65 25.934 C 25.853 26.115 26.12 25.882 25.942 25.663 C 23.974 23.116 22.146 22.638 20.318 22.223 C 18.083 21.72 16.941 20.453 16.141 19.043 C 15.988 18.759 15.912 18.811 15.899 19.173 C 15.885 19.705 15.923 20.238 16.014 20.763 L 15.747 20.763 C 12.561 20.763 9.971 18.126 9.971 14.88 C 9.97 11.636 12.56 9 15.747 9 C 18.934 9 21.524 11.637 21.524 14.882 C 21.524 15.115 21.511 15.348 21.486 15.568 C 21.054 15.49 20.229 15.478 19.645 15.529 C 19.429 15.555 19.455 15.658 19.62 15.684 C 21.524 16.046 22.832 17.248 23.136 19.434 C 23.149 19.485 23.212 19.498 23.238 19.459 C 24.044 18.073 24.469 16.498 24.469 14.895 C 24.47 9.982 20.56 6 15.734 6 C 10.91 6 7 9.982 7 14.894 Z"/>
</svg>
