<?xml version="1.0" encoding="utf-8"?>
<svg fill="#d1d1d1" viewBox="0 0 32 32" xmlns="http://www.w3.org/2000/svg">
  <path d="M 16.49 5.003 C 16.317 5.003 16.144 4.996 15.971 5.004 C 15.469 5.029 15.109 5.387 15.095 5.868 C 15.081 6.354 15.411 6.737 15.909 6.793 C 16.563 6.867 17.231 6.869 17.871 7.006 C 22.149 7.92 25.111 11.538 25.209 15.926 C 25.222 16.521 25.569 16.904 26.099 16.906 C 26.639 16.906 27.031 16.502 26.999 15.902 C 26.961 15.222 26.925 14.535 26.791 13.871 C 25.772 8.839 21.619 5.279 16.49 5.003 Z M 15.532 27 C 15.789 26.983 16.056 27.002 16.302 26.941 C 16.686 26.846 16.938 26.399 16.883 25.999 C 16.825 25.576 16.477 25.281 16.043 25.236 C 15.283 25.156 14.507 25.126 13.771 24.944 C 9.691 23.938 6.848 20.32 6.775 16.116 C 6.774 15.913 6.727 15.714 6.638 15.532 C 6.458 15.195 6.046 15.044 5.691 15.135 C 5.265 15.245 4.971 15.575 5.002 16.036 C 5.052 16.789 5.105 17.549 5.247 18.288 C 6.181 23.121 10.609 26.852 15.532 27 Z M 15.984 11.997 C 13.35 12.005 11.438 14.527 12.137 17.073 C 12.605 18.777 14.223 20.029 15.939 20.013 C 16.485 20.009 16.888 19.631 16.892 19.12 C 16.896 18.618 16.52 18.25 15.985 18.221 C 15.824 18.213 15.663 18.192 15.505 18.159 C 14.352 17.91 13.612 16.759 13.841 15.577 C 14.065 14.42 15.185 13.638 16.337 13.834 C 17.395 13.997 18.182 14.896 18.204 15.966 C 18.218 16.35 18.364 16.636 18.704 16.809 C 19.331 17.129 20.009 16.663 20.004 15.922 C 19.989 13.775 18.161 11.99 15.984 11.997 Z M 23.539 15.754 C 23.509 15.471 23.488 15.224 23.456 14.977 C 22.991 11.32 19.785 8.48 16.114 8.473 C 15.504 8.471 15.102 8.823 15.097 9.361 C 15.092 9.898 15.492 10.251 16.093 10.279 C 18.551 10.396 20.284 11.595 21.297 13.83 C 21.603 14.506 21.724 15.23 21.731 15.976 C 21.736 16.466 22.047 16.825 22.485 16.896 C 22.904 16.966 23.334 16.731 23.465 16.327 C 23.525 16.137 23.519 15.925 23.539 15.754 Z M 8.478 16.215 C 8.508 18.016 9.201 19.743 10.425 21.065 C 11.91 22.683 13.767 23.508 15.969 23.528 C 16.385 23.532 16.689 23.322 16.828 22.963 C 17.074 22.325 16.623 21.763 15.848 21.743 C 13.524 21.69 11.464 20.234 10.639 18.061 C 10.396 17.424 10.268 16.749 10.261 16.067 C 10.249 15.348 9.608 14.91 8.996 15.193 C 8.531 15.407 8.426 15.808 8.478 16.215 Z M 20.012 19.035 C 19.968 18.929 19.934 18.715 19.812 18.585 C 19.352 18.083 18.872 17.6 18.372 17.137 C 18.033 16.827 17.479 16.895 17.169 17.227 C 16.864 17.555 16.834 18.078 17.145 18.41 C 17.595 18.892 18.062 19.36 18.545 19.807 C 18.813 20.054 19.152 20.078 19.485 19.922 C 19.822 19.765 19.975 19.482 20.012 19.035 Z"/>
</svg>
