<?xml version="1.0" encoding="utf-8"?>
<svg fill="#d1d1d1" width="32" height="32" viewBox="0 0 32 32" xmlns="http://www.w3.org/2000/svg">
  <path d="M 16.113 18.16 L 12.474 25.702 C 12.474 25.702 12.21 26.245 13.136 26.313 C 14.062 26.449 15.584 26.789 16.378 25.973 C 17.172 25.226 20.281 20.062 20.281 20.062 L 16.113 18.159 L 16.113 18.16 Z M 23.39 17.548 L 20.347 20.062 L 21.737 22.848 C 21.737 22.848 22.067 23.935 23.06 22.712 C 23.986 21.489 24.383 21.285 24.316 20.538 C 24.25 19.79 24.052 18.023 23.39 17.548 Z M 15.716 13.063 L 6.719 13.675 L 6.699 13.679 C 6.603 13.704 6.197 13.862 6.256 14.762 L 6.266 14.948 L 6.286 15.321 C 6.356 16.501 6.454 17.616 6.454 17.616 C 6.454 17.616 6.388 18.227 7.579 18.296 C 7.939 18.316 8.849 18.33 9.948 18.333 L 10.734 18.333 C 12.453 18.327 14.399 18.294 15.414 18.214 L 15.667 18.191 C 15.933 18.163 16.094 18.13 16.113 18.091 L 15.716 13.063 Z M 20.612 7.559 C 20.368 8.718 19.967 9.838 19.421 10.889 L 23.06 13.266 L 23.39 17.548 L 24.912 17.344 C 24.912 17.344 25.309 17.208 25.242 16.461 L 25.171 15.558 L 25.144 15.223 L 25.044 13.943 C 25.048 13.899 25.056 13.531 24.184 13.403 C 23.557 13.289 23.28 13.26 23.157 13.256 L 23.1 13.256 C 23.086 13.257 23.073 13.259 23.06 13.264 L 23.15 13.01 C 24.414 9.121 20.612 7.56 20.612 7.56 L 20.612 7.559 Z M 19.288 10.889 C 19.288 10.889 15.054 5.113 13.93 5.52 C 13.503 5.682 13.075 5.841 12.645 5.996 L 12.285 6.126 C 11.389 6.449 10.555 6.743 10.555 6.743 L 15.782 12.994 L 19.288 10.889 Z"/>
</svg>
