<?xml version="1.0" encoding="utf-8"?>
<svg fill="#d1d1d1" height="32" viewBox="0 0 32 32" width="32" xmlns="http://www.w3.org/2000/svg">
  <path d="M 25.628 21.209 C 25.42 21.213 25.254 21.385 25.256 21.593 L 25.256 22.745 L 20.454 22.745 L 20.442 22.014 C 23.203 20.012 24.388 16.396 23.372 13.076 C 22.354 9.756 19.369 7.5 15.994 7.5 C 12.619 7.5 9.634 9.756 8.617 13.076 C 7.6 16.396 8.785 20.012 11.547 22.014 L 11.558 22.014 L 11.546 22.732 L 6.744 22.732 L 6.744 21.58 C 6.744 21.368 6.578 21.196 6.372 21.196 C 6.166 21.196 6 21.368 6 21.58 L 6 23.488 L 12.279 23.488 L 12.303 21.828 C 12.303 21.674 12.214 21.533 12.074 21.468 C 12.052 21.427 12.019 21.393 11.978 21.37 C 10.098 20.035 8.975 17.83 8.978 15.474 C 8.978 12.029 11.335 9.062 14.609 8.384 C 17.884 7.707 21.167 9.506 22.456 12.685 C 23.745 15.865 22.681 19.539 19.914 21.469 C 19.883 21.495 19.855 21.524 19.83 21.556 C 19.746 21.627 19.698 21.73 19.697 21.84 L 19.721 23.5 L 26 23.5 L 26 21.593 C 26.002 21.385 25.836 21.213 25.628 21.209 Z M 20.67 16.033 C 20.516 15.834 20.352 15.644 20.178 15.463 C 20.352 15.283 20.516 15.093 20.67 14.893 C 21.498 13.841 21.75 12.912 21.39 12.268 C 21.114 11.785 20.526 11.525 19.673 11.525 C 19.137 11.538 18.605 11.617 18.089 11.76 C 17.633 10.113 16.876 9.06 16.012 9.06 C 15.148 9.06 14.392 10.113 13.923 11.748 C 13.407 11.605 12.875 11.525 12.339 11.512 C 11.486 11.512 10.898 11.772 10.622 12.255 C 10.262 12.899 10.514 13.828 11.342 14.881 C 11.496 15.081 11.66 15.271 11.834 15.451 C 10.682 16.677 10.178 17.878 10.622 18.646 C 10.898 19.129 11.486 19.389 12.339 19.389 C 12.875 19.376 13.407 19.297 13.923 19.154 C 14.379 20.789 15.136 21.842 16 21.842 C 16.864 21.842 17.62 20.789 18.089 19.154 C 18.605 19.297 19.137 19.376 19.673 19.389 C 20.526 19.389 21.114 19.129 21.39 18.646 C 21.75 18.027 21.498 17.086 20.67 16.033 Z M 19.685 11.983 C 20.154 11.983 20.765 12.07 20.994 12.491 C 21.246 12.949 20.994 13.705 20.31 14.584 C 20.166 14.757 20.01 14.943 19.842 15.116 C 19.412 14.708 18.959 14.328 18.485 13.977 C 18.43 13.378 18.338 12.782 18.209 12.194 C 18.692 12.07 19.187 11.999 19.685 11.983 Z M 17.045 17.321 C 16.707 17.526 16.358 17.712 16 17.878 C 15.29 17.526 14.608 17.12 13.96 16.664 C 13.931 16.26 13.915 15.856 13.911 15.451 C 13.911 15.03 13.923 14.621 13.959 14.237 C 14.271 14.014 14.595 13.804 14.956 13.593 C 15.294 13.388 15.642 13.202 16 13.036 C 16.348 13.209 16.696 13.395 17.044 13.593 C 17.393 13.803 17.729 14.014 18.041 14.237 C 18.065 14.621 18.089 15.03 18.089 15.451 C 18.089 15.871 18.077 16.268 18.041 16.665 C 17.717 16.896 17.385 17.115 17.044 17.321 L 17.045 17.321 Z M 17.993 17.284 C 17.933 17.754 17.861 18.188 17.777 18.597 C 17.363 18.469 16.958 18.316 16.564 18.138 C 16.804 18.015 17.044 17.878 17.284 17.73 C 17.524 17.581 17.753 17.432 17.993 17.284 Z M 15.46 18.138 C 15.064 18.314 14.66 18.468 14.247 18.597 C 14.146 18.165 14.074 17.726 14.031 17.284 C 14.259 17.432 14.499 17.581 14.739 17.73 L 15.46 18.138 Z M 13.491 16.305 C 13.144 16.04 12.811 15.755 12.495 15.451 C 12.809 15.145 13.142 14.86 13.491 14.596 C 13.479 14.881 13.467 15.154 13.467 15.451 C 13.467 15.748 13.479 16.033 13.491 16.305 Z M 14.031 13.643 C 14.091 13.172 14.163 12.738 14.247 12.33 C 14.66 12.457 15.065 12.61 15.46 12.788 C 15.22 12.912 14.98 13.048 14.727 13.197 C 14.489 13.336 14.257 13.485 14.031 13.643 Z M 16.552 12.788 C 16.948 12.612 17.352 12.459 17.765 12.33 C 17.866 12.762 17.938 13.2 17.981 13.643 C 17.747 13.492 17.511 13.343 17.273 13.197 C 17.033 13.048 16.793 12.912 16.553 12.788 L 16.552 12.788 Z M 18.533 14.608 C 18.879 14.871 19.208 15.156 19.517 15.463 C 19.217 15.748 18.881 16.033 18.533 16.318 C 18.545 16.045 18.557 15.76 18.557 15.463 C 18.557 15.166 18.545 14.893 18.533 14.609 L 18.533 14.608 Z M 16.012 9.531 C 16.612 9.531 17.248 10.398 17.657 11.871 C 17.095 12.048 16.546 12.263 16.012 12.514 C 15.479 12.263 14.929 12.048 14.367 11.87 C 14.776 10.398 15.4 9.53 16.012 9.53 L 16.012 9.531 Z M 11.03 12.491 C 11.27 12.07 11.87 11.983 12.339 11.983 C 12.837 11.993 13.333 12.064 13.815 12.193 C 13.686 12.781 13.594 13.377 13.539 13.977 C 13.063 14.325 12.609 14.705 12.182 15.115 C 12.019 14.939 11.863 14.758 11.714 14.57 C 11.018 13.717 10.766 12.949 11.03 12.49 L 11.03 12.491 Z M 12.339 18.931 C 11.87 18.931 11.259 18.844 11.03 18.423 C 10.73 17.878 11.138 16.888 12.17 15.785 C 12.598 16.2 13.056 16.581 13.539 16.925 C 13.594 17.525 13.686 18.12 13.815 18.707 C 13.335 18.847 12.838 18.922 12.339 18.931 Z M 16.012 21.383 C 15.412 21.383 14.776 20.516 14.367 19.043 C 14.929 18.865 15.479 18.65 16.012 18.399 C 16.545 18.65 17.095 18.865 17.657 19.043 C 17.248 20.516 16.612 21.383 16.012 21.383 Z M 20.994 18.423 C 20.754 18.844 20.154 18.931 19.685 18.931 C 19.186 18.921 18.691 18.85 18.209 18.721 C 18.338 18.133 18.429 17.537 18.485 16.937 C 18.961 16.589 19.415 16.208 19.842 15.797 C 20.01 15.971 20.166 16.157 20.31 16.33 C 20.994 17.21 21.246 17.977 20.994 18.423 Z M 16.012 13.643 C 15.046 13.649 14.267 14.462 14.272 15.459 C 14.276 16.456 15.062 17.261 16.028 17.259 C 16.994 17.257 17.777 16.448 17.777 15.451 C 17.77 14.451 16.982 13.643 16.012 13.643 Z M 16.012 16.801 C 15.296 16.801 14.715 16.202 14.715 15.463 C 14.715 14.724 15.296 14.126 16.012 14.126 C 16.728 14.126 17.309 14.724 17.309 15.463 C 17.303 16.2 16.726 16.795 16.012 16.801 Z" fill-rule="evenodd"/>
</svg>
