<?xml version="1.0" encoding="utf-8"?>
<svg fill="#d1d1d1" viewBox="0 0 32 32" xmlns="http://www.w3.org/2000/svg">
  <path d="M 23.313 16 C 23.314 14.588 22.904 13.205 22.133 12.022 L 25 9.154 L 22.846 7 L 19.978 9.868 C 18.832 9.123 17.468 8.687 16 8.687 C 14.532 8.687 13.168 9.123 12.022 9.867 L 9.154 7 L 7 9.154 L 9.868 12.022 C 9.123 13.168 8.687 14.532 8.687 16 C 8.687 17.468 9.124 18.832 9.868 19.978 L 7 22.846 L 9.154 25 L 12.022 22.132 C 13.168 22.877 14.532 23.313 16 23.313 C 17.468 23.313 18.832 22.877 19.978 22.132 L 22.846 25 L 25 22.846 L 22.132 19.978 C 22.904 18.795 23.314 17.413 23.313 16 Z M 11.5 16 C 11.5 13.519 13.519 11.5 16 11.5 C 18.481 11.5 20.5 13.519 20.5 16 C 20.5 16.653 20.357 17.272 20.106 17.833 L 17.136 14.863 L 14.864 17.136 L 17.834 20.106 C 17.257 20.366 16.632 20.5 16 20.5 C 13.516 20.497 11.503 18.484 11.5 16 Z" fill-rule="evenodd"/>
</svg>
