<?xml version="1.0" encoding="utf-8"?>
<svg fill="#d1d1d1" viewBox="0 0 32 32" xmlns="http://www.w3.org/2000/svg">
  <path fill-rule="evenodd" d="M 25.313 23.636 C 25.214 23.814 25.163 24.014 25.163 24.218 C 25.163 24.874 25.687 25.406 26.332 25.406 C 26.977 25.406 27.5 24.874 27.5 24.218 C 27.5 23.562 26.977 23.03 26.332 23.03 C 26.046 23.03 25.77 23.136 25.558 23.328 L 23.641 21.621 L 25.138 16.791 C 25.582 16.802 25.947 16.443 25.943 15.999 C 25.946 15.545 25.565 15.183 25.112 15.209 L 23.836 11.021 C 24.058 10.873 24.191 10.623 24.19 10.356 C 24.193 9.923 23.845 9.568 23.412 9.564 C 23.212 9.564 23.02 9.642 22.876 9.782 L 19.326 7.172 C 19.388 7.055 19.421 6.924 19.42 6.792 C 19.423 6.359 19.075 6.004 18.642 6 C 18.265 6.002 17.943 6.273 17.876 6.644 L 13.566 6.644 C 13.499 6.273 13.178 6.003 12.801 6 C 12.367 6.004 12.019 6.358 12.022 6.792 C 12.022 6.932 12.059 7.069 12.128 7.19 L 8.555 9.77 C 8.413 9.638 8.225 9.564 8.031 9.564 C 7.597 9.568 7.249 9.922 7.252 10.356 C 7.252 10.658 7.418 10.92 7.662 11.054 L 6.38 15.214 C 5.91 15.157 5.497 15.526 5.5 16 C 5.496 16.464 5.893 16.831 6.355 16.79 L 7.658 20.95 C 7.407 21.091 7.251 21.357 7.252 21.645 C 7.252 22.082 7.601 22.437 8.031 22.437 C 8.222 22.437 8.406 22.365 8.547 22.237 L 12.093 24.878 C 12.046 24.982 12.023 25.094 12.023 25.208 C 12.023 25.646 12.371 26.001 12.801 26.001 C 13.181 26.001 13.498 25.724 13.566 25.357 L 17.876 25.357 C 17.943 25.728 18.265 25.999 18.642 26.001 C 19.072 26.001 19.42 25.646 19.42 25.209 C 19.42 25.094 19.396 24.981 19.348 24.876 L 23.34 21.881 L 25.313 23.637 L 25.313 23.636 Z M 18.708 24.419 C 18.585 24.409 18.462 24.427 18.348 24.474 L 16.301 21.579 C 16.399 21.468 16.465 21.331 16.489 21.184 L 19.939 20.682 C 19.984 20.834 20.073 20.969 20.195 21.07 L 18.708 24.419 Z M 19.101 24.569 C 19.093 24.563 19.084 24.557 19.076 24.551 L 20.549 21.235 C 20.836 21.287 21.127 21.173 21.302 20.94 L 22.97 21.666 L 19.1 24.568 L 19.101 24.569 Z M 18.036 24.71 C 17.977 24.785 17.931 24.869 17.902 24.96 L 13.54 24.96 C 13.511 24.869 13.465 24.785 13.406 24.71 L 15.466 21.798 C 15.631 21.856 15.81 21.856 15.975 21.798 L 18.035 24.71 L 18.036 24.71 Z M 24.764 16.68 L 23.538 20.636 L 23.272 16.75 C 23.59 16.638 23.803 16.337 23.801 16 C 23.803 15.66 23.587 15.358 23.266 15.248 L 23.536 11.373 L 24.742 15.334 C 24.518 15.482 24.384 15.732 24.385 16 C 24.385 16.289 24.537 16.542 24.765 16.68 L 24.764 16.68 Z M 22.51 15.403 C 22.34 15.555 22.242 15.772 22.243 16 C 22.243 16.227 22.338 16.432 22.489 16.577 L 20.869 19.686 C 20.768 19.661 20.662 19.657 20.559 19.674 L 19.125 16.621 C 19.312 16.469 19.421 16.241 19.42 16 C 19.421 15.763 19.316 15.539 19.134 15.387 L 20.526 12.32 C 20.659 12.348 20.797 12.34 20.926 12.298 L 22.51 15.403 Z M 22.884 16.78 L 23.195 21.334 L 21.455 20.576 C 21.495 20.316 21.404 20.053 21.212 19.873 L 22.83 16.768 C 22.848 16.773 22.866 16.777 22.884 16.78 Z M 22.878 15.222 C 22.871 15.223 22.865 15.224 22.858 15.225 L 21.255 12.085 C 21.427 11.898 21.5 11.64 21.45 11.39 L 22.788 10.831 C 22.882 10.96 23.013 11.056 23.164 11.108 L 22.878 15.222 Z M 18.77 16.782 L 20.203 19.834 C 20.062 19.948 19.964 20.107 19.925 20.284 L 16.457 20.788 C 16.425 20.695 16.376 20.609 16.312 20.534 L 18.435 16.764 C 18.544 16.794 18.658 16.8 18.77 16.781 L 18.77 16.782 Z M 18.78 15.221 C 18.658 15.199 18.533 15.206 18.415 15.242 L 16.276 11.407 C 16.346 11.335 16.402 11.249 16.44 11.156 L 19.915 11.661 C 19.942 11.848 20.035 12.019 20.177 12.144 L 18.781 15.221 L 18.78 15.221 Z M 18.098 16.567 L 15.992 20.307 C 15.842 20.25 15.677 20.242 15.522 20.284 L 13.352 16.559 C 13.498 16.41 13.58 16.209 13.58 16 C 13.58 15.79 13.5 15.599 13.368 15.457 L 15.575 11.63 C 15.697 11.653 15.823 11.647 15.942 11.611 L 18.082 15.449 C 17.94 15.598 17.862 15.795 17.862 16 C 17.862 16.222 17.952 16.423 18.098 16.567 Z M 6.721 16.652 C 6.933 16.503 7.059 16.259 7.058 16 C 7.059 15.75 6.942 15.515 6.743 15.364 L 7.966 11.389 L 8.269 15.223 C 7.902 15.3 7.64 15.625 7.642 16 C 7.642 16.38 7.905 16.698 8.256 16.774 L 7.963 20.618 L 6.721 16.652 Z M 10.609 19.678 L 8.959 16.572 C 9.113 16.422 9.2 16.215 9.199 16 C 9.2 15.779 9.108 15.567 8.946 15.416 L 10.625 12.326 C 10.722 12.343 10.821 12.341 10.917 12.32 L 12.309 15.386 C 12.127 15.538 12.021 15.763 12.022 16 C 12.022 16.256 12.142 16.484 12.327 16.629 L 10.957 19.689 C 10.843 19.659 10.724 19.655 10.609 19.678 Z M 10.933 21.228 L 12.372 24.547 C 12.361 24.554 12.35 24.562 12.34 24.57 L 8.765 21.908 C 8.806 21.791 8.819 21.666 8.804 21.543 L 10.153 20.955 C 10.339 21.189 10.642 21.295 10.933 21.227 L 10.933 21.228 Z M 9.99 20.595 L 8.66 21.175 C 8.576 21.059 8.462 20.968 8.33 20.912 L 8.644 16.812 L 10.257 19.848 C 10.041 20.032 9.94 20.316 9.99 20.595 Z M 11.52 20.296 C 11.489 20.14 11.411 19.997 11.297 19.885 L 12.687 16.784 C 12.797 16.8 12.91 16.792 13.017 16.761 L 15.182 20.478 C 15.093 20.565 15.025 20.672 14.985 20.79 L 11.52 20.296 Z M 11.5 20.693 L 14.954 21.186 C 14.979 21.336 15.046 21.471 15.142 21.579 L 13.094 24.474 C 12.982 24.428 12.861 24.409 12.741 24.418 L 11.278 21.044 C 11.382 20.949 11.458 20.828 11.5 20.694 L 11.5 20.693 Z M 9.997 11.371 C 9.934 11.665 10.038 11.969 10.269 12.162 L 8.653 15.138 L 8.333 11.087 C 8.467 11.029 8.583 10.935 8.666 10.815 L 9.996 11.371 L 9.997 11.371 Z M 10.947 10.776 C 10.665 10.704 10.366 10.797 10.175 11.018 L 8.805 10.445 C 8.818 10.329 8.805 10.212 8.769 10.102 L 12.322 7.536 L 10.947 10.776 Z M 11.529 11.649 L 15 11.154 C 15.049 11.274 15.125 11.378 15.221 11.46 L 13.039 15.246 C 12.917 15.206 12.787 15.198 12.661 15.221 L 11.265 12.144 C 11.41 12.016 11.503 11.84 11.528 11.649 L 11.529 11.649 Z M 11.289 10.967 L 12.727 7.581 C 12.86 7.593 12.995 7.571 13.117 7.516 L 15.107 10.364 C 15.018 10.48 14.963 10.617 14.947 10.762 L 11.482 11.256 C 11.44 11.147 11.375 11.048 11.29 10.967 L 11.289 10.967 Z M 20.612 10.756 L 19.141 7.524 L 22.669 10.118 C 22.634 10.23 22.624 10.349 22.64 10.465 L 21.28 11.033 C 21.117 10.836 20.867 10.732 20.612 10.756 Z M 19.956 11.266 L 16.496 10.764 C 16.48 10.618 16.425 10.48 16.336 10.364 L 18.326 7.516 C 18.454 7.574 18.596 7.595 18.736 7.578 L 20.246 10.891 C 20.113 10.984 20.012 11.115 19.956 11.267 L 19.956 11.266 Z M 18.02 7.27 L 16.026 10.123 C 15.831 10.038 15.611 10.038 15.416 10.123 L 13.422 7.27 C 13.474 7.2 13.514 7.123 13.541 7.04 L 17.901 7.04 C 17.928 7.123 17.969 7.2 18.021 7.27 L 18.02 7.27 Z"/>
</svg>
