<?xml version="1.0" encoding="utf-8"?>
<svg fill="#d1d1d1" viewBox="0 0 32 32" xmlns="http://www.w3.org/2000/svg">
  <path d="M 11.47 7.661 C 8.538 7.661 6.706 10.835 8.172 13.374 C 8.852 14.552 10.109 15.278 11.47 15.278 C 14.402 15.278 16.234 12.104 14.768 9.565 C 14.088 8.387 12.831 7.661 11.47 7.661 Z M 15.277 20.531 C 15.277 17.63 17.629 15.278 20.53 15.278 C 23.461 15.278 25.294 12.105 23.828 9.566 C 22.362 7.027 18.698 7.027 17.232 9.566 C 16.898 10.145 16.722 10.802 16.722 11.47 C 16.722 14.37 14.37 16.723 11.469 16.723 C 8.538 16.723 6.705 19.896 8.171 22.435 C 9.637 24.974 13.301 24.974 14.767 22.435 C 15.101 21.856 15.277 21.199 15.277 20.531 Z M 20.53 24.339 C 23.461 24.339 25.294 21.166 23.829 18.627 C 23.149 17.449 21.891 16.723 20.531 16.723 C 17.6 16.723 15.767 19.896 17.233 22.435 C 17.913 23.613 19.171 24.339 20.531 24.339 L 20.53 24.339 Z M 20.53 21.679 C 19.646 21.679 19.094 20.722 19.536 19.957 C 19.741 19.602 20.12 19.383 20.53 19.383 C 21.414 19.383 21.966 20.34 21.524 21.105 C 21.319 21.46 20.94 21.679 20.53 21.679 Z M 11.47 21.679 C 10.586 21.679 10.034 20.722 10.476 19.957 C 10.681 19.602 11.06 19.383 11.47 19.383 C 12.354 19.383 12.906 20.34 12.464 21.105 C 12.259 21.46 11.88 21.679 11.47 21.679 Z M 20.53 12.617 C 19.646 12.617 19.094 11.66 19.536 10.895 C 19.741 10.54 20.12 10.321 20.53 10.321 C 21.414 10.321 21.966 11.278 21.524 12.043 C 21.319 12.398 20.94 12.617 20.53 12.617 Z M 11.47 12.617 C 10.586 12.617 10.034 11.66 10.476 10.895 C 10.681 10.54 11.06 10.321 11.47 10.321 C 12.354 10.321 12.906 11.278 12.464 12.043 C 12.259 12.398 11.88 12.617 11.47 12.617 Z" fill-rule="evenodd"/>
</svg>
