<?xml version="1.0" encoding="utf-8"?>
<svg fill="#d1d1d1" width="32" height="32" viewBox="0 0 32 32" xmlns="http://www.w3.org/2000/svg">
  <path d="M 16 5 L 6.5 10.5 L 6.5 21.5 L 16 27 L 25.5 21.5 L 25.5 12.686 L 24.505 13.256 L 24.505 20.929 L 15.997 25.856 L 7.485 20.929 L 7.485 11.075 L 16 6.14 L 22.539 9.93 L 23.527 9.36 L 16 5 Z M 16.943 11.284 L 12.195 11.284 L 12.195 12.741 L 16.94 12.741 C 17.162 12.738 17.382 12.781 17.587 12.868 C 17.791 12.954 17.977 13.081 18.131 13.239 C 18.453 13.553 18.634 13.985 18.631 14.435 C 18.627 14.885 18.451 15.318 18.135 15.638 C 17.82 15.959 17.39 16.142 16.94 16.146 L 12.195 16.146 L 12.195 20.936 L 13.617 20.936 L 13.617 17.599 L 16.465 17.599 C 17.041 17.603 17.613 17.516 18.162 17.342 C 18.717 17.107 19.192 16.717 19.529 16.218 C 19.894 15.695 20.088 15.072 20.084 14.435 C 20.078 13.601 19.745 12.803 19.157 12.212 C 18.57 11.623 17.775 11.289 16.943 11.284 Z M 18.593 18.269 C 18.115 18.441 17.616 18.544 17.109 18.575 L 18.389 20.815 L 20.049 20.815 L 18.593 18.269 Z M 24.495 9.934 L 23.513 10.504 L 23.513 11.662 L 24.495 12.208 L 25.475 11.662 L 25.475 10.504 L 24.495 9.934 Z"/>
</svg>
