<?xml version="1.0" encoding="utf-8"?>
<svg fill="#d1d1d1" viewBox="0 0 32 32" xmlns="http://www.w3.org/2000/svg">
  <path d="M 14.36 6.627 C 14.045 6.68 13.735 6.757 13.425 6.83 C 10.08 7.694 7.32 10.471 6.55 13.795 C 6.258 14.977 6.203 16.206 6.39 17.409 C 6.41 17.549 6.425 17.709 6.317 17.823 C 5.814 18.475 5.365 19.173 5.037 19.927 C 4.884 20.293 5.23 20.703 5.611 20.702 C 5.838 20.686 6.039 20.551 6.141 20.348 C 6.355 19.944 6.568 19.538 6.817 19.154 C 7.047 19.65 7.231 20.169 7.521 20.636 C 8.847 22.942 11.179 24.68 13.815 25.251 C 15.633 25.681 17.569 25.542 19.327 24.928 C 20.853 24.381 22.22 23.463 23.304 22.258 C 25.185 20.196 26.068 17.282 25.604 14.545 C 25.595 14.445 25.563 14.331 25.64 14.248 C 26.057 13.681 26.46 13.1 26.772 12.468 C 26.872 12.261 27.022 12.054 26.997 11.813 C 26.958 11.504 26.684 11.279 26.373 11.303 C 26.148 11.293 25.955 11.443 25.863 11.637 C 25.649 12.047 25.429 12.454 25.183 12.846 C 24.918 12.209 24.654 11.567 24.261 10.994 C 23.203 9.327 21.659 8.025 19.838 7.264 C 18.926 6.854 17.932 6.646 16.941 6.53 C 16.081 6.487 15.21 6.469 14.359 6.627 L 14.36 6.627 Z M 11.998 8.637 C 13.828 7.682 16.02 7.391 18.031 7.902 C 21.05 8.597 23.586 11.052 24.277 14.036 C 22.475 16.136 19.86 17.413 17.175 18.032 C 16.652 18.141 16.132 18.262 15.601 18.317 C 14.868 18.387 14.137 18.514 13.398 18.477 C 14.072 17.796 14.781 17.147 15.448 16.457 C 15.198 16.157 14.903 15.896 14.624 15.624 C 13.874 16.33 13.154 17.066 12.414 17.781 C 11.984 18.223 11.5 18.613 11.08 19.065 C 11.188 19.211 11.318 19.34 11.45 19.465 C 12.421 20.413 13.385 21.369 14.36 22.314 C 14.618 22.562 14.86 22.826 15.139 23.053 C 15.417 22.781 15.711 22.523 15.963 22.225 C 15.308 21.607 14.672 20.971 14.027 20.343 C 13.808 20.124 13.576 19.918 13.387 19.672 C 15.543 19.612 17.694 19.222 19.715 18.473 C 21.269 17.919 22.708 17.083 23.959 16.007 C 24.143 15.841 24.319 15.667 24.516 15.514 C 24.677 17.974 23.631 20.478 21.766 22.122 C 20.463 23.294 18.832 24.039 17.093 24.257 C 15.849 24.429 14.573 24.287 13.377 23.92 C 11.331 23.272 9.552 21.837 8.522 19.98 C 8.21 19.394 7.925 18.788 7.774 18.14 C 7.754 18.046 7.743 17.935 7.819 17.86 C 9.096 16.41 10.771 15.326 12.587 14.646 C 13.454 14.355 14.322 14.05 15.225 13.888 C 16.343 13.667 17.479 13.505 18.621 13.489 C 17.983 14.209 17.228 14.82 16.564 15.516 C 16.782 15.836 17.098 16.076 17.37 16.351 C 17.47 16.275 17.565 16.195 17.656 16.109 C 18.736 15.032 19.845 13.982 20.924 12.905 C 19.911 11.865 18.849 10.871 17.82 9.845 C 17.502 9.545 17.202 9.226 16.877 8.932 C 16.588 9.196 16.309 9.472 16.041 9.758 C 16.878 10.626 17.786 11.427 18.623 12.295 C 16.147 12.415 13.655 12.858 11.393 13.887 C 10.174 14.435 9.009 15.123 8.014 16.011 C 7.845 16.174 7.666 16.326 7.479 16.467 C 7.412 15.277 7.63 14.081 8.057 12.969 C 8.799 11.129 10.225 9.569 11.998 8.637 Z" fill-rule="evenodd"/>
</svg>
