<?xml version="1.0" encoding="utf-8"?>
<svg fill="#d1d1d1" viewBox="0 0 32 32" xmlns="http://www.w3.org/2000/svg">
  <g fill-rule="evenodd">
    <path d="M 18.886 7.093 C 17.755 6.689 16.562 6.483 15.361 6.484 C 9.64 6.484 5 11.077 5 16.742 C 5 22.407 9.639 27 15.361 27 C 21.084 27 25.723 22.407 25.723 16.742 C 25.724 15.444 25.477 14.158 24.993 12.953 C 26.236 12.164 26.99 10.794 26.992 9.321 C 26.992 6.935 25.037 5 22.627 5 C 21.1 4.997 19.683 5.79 18.887 7.093 L 18.886 7.093 Z M 18.296 8.779 C 18.245 9.184 18.252 9.594 18.316 9.997 C 17.941 9.779 17.551 9.587 17.149 9.423 L 17.387 8.368 C 17.702 8.498 18.005 8.635 18.296 8.778 L 18.296 8.779 Z M 23.226 13.603 C 23.31 13.777 23.389 13.953 23.464 14.133 L 22.533 14.781 C 22.332 14.369 22.111 13.968 21.872 13.577 C 22.319 13.655 22.776 13.664 23.226 13.603 Z"/>
    <path d="M 18.886 7.093 C 18.573 7.607 18.371 8.182 18.296 8.779 C 17.998 8.632 17.695 8.495 17.387 8.368 L 17.149 9.423 C 17.557 9.59 17.945 9.782 18.315 9.997 L 18.315 10 C 19.769 10.847 20.937 12.061 21.869 13.577 L 21.872 13.577 C 22.107 13.96 22.327 14.361 22.533 14.781 C 21.826 16.145 20.306 20.224 23.463 14.134 C 23.389 13.955 23.31 13.778 23.226 13.603 C 23.855 13.517 24.458 13.296 24.993 12.953 C 25.464 14.126 25.723 15.403 25.723 16.743 C 25.723 22.406 21.083 27 15.36 27 C 9.637 27 5 22.407 5 16.742 C 5 11.077 9.639 6.484 15.361 6.484 C 16.599 6.484 17.786 6.699 18.886 7.093 Z" opacity=".6"/>
  </g>
</svg>
