<?xml version="1.0" encoding="utf-8"?>
<svg fill="#d1d1d1" viewBox="0 0 32 32" xmlns="http://www.w3.org/2000/svg">
  <path d="M 10 6.006 C 10.083 6.052 10.173 6.084 10.258 6.124 C 11.808 6.806 13.298 7.65 14.619 8.719 C 15.833 9.699 16.901 10.881 17.666 12.25 C 18.381 13.528 18.835 14.97 18.878 16.442 C 18.884 16.65 18.876 16.859 18.856 17.066 L 22.99 17.066 C 23.052 15.506 22.823 13.936 22.341 12.452 C 21.88 11.048 21.215 9.719 20.369 8.507 C 19.773 7.64 19.088 6.838 18.323 6.116 C 18.259 6.066 18.209 5.976 18.111 6.006 L 10 6.006 Z M 13.002 13.333 L 13 26 C 14.72 24.897 16.435 23.785 18.156 22.683 C 17.826 22.076 17.489 21.472 17.156 20.866 C 15.773 18.354 14.388 15.843 13.001 13.333 L 13.002 13.333 Z"/>
</svg>
