<?xml version="1.0" encoding="utf-8"?>
<svg fill="#d1d1d1" width="32" height="32" viewBox="0 0 32 32" xmlns="http://www.w3.org/2000/svg">
  <path d="M 25.432 20.42 L 14.906 26.506 L 15.113 26.616 L 16.663 25.731 L 16.882 26.094 L 18.448 25.178 L 18.668 25.558 L 25.432 21.653 L 25.432 20.421 L 25.432 20.42 Z M 25.432 18.699 L 13.406 25.636 L 13.627 25.763 L 15.177 24.861 L 15.381 25.241 L 18.448 23.471 L 18.668 23.836 L 25.432 19.931 L 25.432 18.7 L 25.432 18.699 Z M 25.432 16.976 L 11.92 24.783 L 12.142 24.893 L 13.691 24.009 L 13.895 24.372 L 18.448 21.748 L 18.668 22.111 L 25.432 18.209 L 25.432 16.976 Z M 25.432 15.254 L 10.434 23.914 L 10.641 24.041 L 12.205 23.139 L 12.409 23.519 L 18.449 20.026 L 18.667 20.389 L 25.432 16.487 L 25.432 15.254 Z M 25.432 13.547 L 8.95 23.06 L 9.154 23.187 L 10.704 22.286 L 10.923 22.649 L 18.447 18.303 L 18.667 18.683 L 25.431 14.763 L 25.431 13.546 L 25.432 13.547 Z M 25.432 11.824 L 7.465 22.192 L 7.669 22.318 L 9.187 21.448 L 9.408 21.812 L 18.448 16.582 L 18.668 16.959 L 25.432 13.04 L 25.432 11.824 Z M 24.896 10.402 L 6.5 21.037 L 6.5 21.273 L 9.218 19.709 L 9.44 20.072 L 18.494 14.842 L 18.701 15.206 L 25.431 11.335 L 25.431 10.719 L 25.115 10.529 L 24.895 10.402 L 24.896 10.402 Z M 23.41 9.549 L 6.5 19.315 L 6.5 19.551 L 9.218 17.987 L 9.44 18.35 L 18.494 13.12 L 18.701 13.5 L 24.47 10.166 L 24.04 9.912 L 23.632 9.674 L 23.41 9.549 Z M 21.924 8.694 L 6.5 17.593 L 6.5 17.829 L 9.218 16.265 L 9.44 16.628 L 17.008 12.265 L 17.216 12.631 L 22.984 9.296 L 22.555 9.057 L 22.129 8.807 L 21.924 8.694 Z M 20.438 7.824 L 6.5 15.872 L 6.5 16.122 L 9.218 14.544 L 9.44 14.922 L 15.476 11.431 L 15.681 11.794 L 21.498 8.444 L 21.072 8.206 L 20.642 7.952 L 20.438 7.826 L 20.438 7.824 Z M 18.952 6.972 L 6.5 14.146 L 6.5 14.399 L 9.218 12.835 L 9.44 13.198 L 13.99 10.575 L 14.195 10.94 L 20.012 7.588 L 19.586 7.335 L 19.159 7.099 L 18.952 6.972 Z M 17.452 6.102 L 6.5 12.442 L 6.5 12.678 L 9.218 11.114 L 9.44 11.477 L 12.504 9.709 L 12.712 10.072 L 18.526 6.72 L 18.1 6.484 L 17.673 6.23 L 17.452 6.104 L 17.452 6.102 Z M 15.966 5.25 L 6.5 10.719 L 6.5 10.955 L 9.218 9.39 L 9.44 9.753 L 11.004 8.852 L 11.226 9.215 L 17.026 5.865 L 16.599 5.612 L 16.171 5.376 L 15.966 5.249 L 15.966 5.25 Z"/>
</svg>
