<?xml version="1.0" encoding="utf-8"?>
<svg fill="#d1d1d1" viewBox="0 0 32 32" xmlns="http://www.w3.org/2000/svg">
  <path fill-rule="evenodd" d="M 25.893 20.662 L 17.25 5.436 C 17.095 5.165 16.807 4.999 16.495 5 C 16.183 4.999 15.895 5.165 15.74 5.436 L 7.11 20.663 C 6.884 21.063 7.022 21.57 7.42 21.799 L 16.057 26.879 C 16.331 27.039 16.671 27.039 16.945 26.879 L 25.581 21.803 C 25.978 21.574 26.117 21.068 25.892 20.668 L 25.894 20.662 L 25.893 20.662 Z M 20.583 16.312 C 20.307 15.534 19.81 14.854 19.153 14.355 L 19.145 14.348 C 19.076 14.295 19.005 14.245 18.932 14.197 L 18.918 14.187 C 18.847 14.14 18.774 14.095 18.7 14.052 L 18.68 14.04 C 18.608 13.998 18.533 13.96 18.457 13.925 L 18.435 13.913 C 18.357 13.876 18.278 13.841 18.199 13.808 L 18.173 13.798 C 17.916 13.691 17.65 13.61 17.377 13.554 C 17.22 13.839 17.018 14.096 16.779 14.317 C 17.34 14.362 17.883 14.541 18.36 14.84 L 18.387 14.856 L 18.519 14.946 L 18.579 14.988 C 18.619 15.018 18.656 15.048 18.697 15.078 L 18.764 15.132 C 18.8 15.162 18.833 15.192 18.867 15.223 L 18.935 15.288 L 19.028 15.382 L 19.096 15.455 L 19.179 15.552 L 19.244 15.633 L 19.319 15.733 C 19.344 15.766 19.361 15.792 19.381 15.821 C 19.401 15.85 19.427 15.888 19.448 15.923 L 19.506 16.019 C 19.524 16.051 19.546 16.087 19.564 16.121 C 19.584 16.154 19.6 16.191 19.618 16.227 C 19.635 16.263 19.652 16.293 19.667 16.327 C 19.686 16.371 19.704 16.416 19.721 16.461 C 19.816 16.698 19.883 16.945 19.921 17.197 L 20.03 17.601 C 20.076 17.769 20.501 19.257 21.486 19.758 C 22.615 20.337 24.11 21.052 24.698 21.335 L 16.932 25.895 L 16.932 22.77 C 16.932 22.277 17.932 21.7 18.395 21.497 L 18.422 21.482 C 18.517 21.435 18.612 21.384 18.702 21.33 L 18.741 21.31 C 18.941 21.189 19.132 21.053 19.311 20.903 L 19.359 20.86 L 19.414 20.811 C 19.47 20.76 19.525 20.708 19.579 20.655 L 19.607 20.628 C 19.666 20.569 19.725 20.513 19.777 20.444 L 19.826 20.388 C 19.87 20.336 19.912 20.283 19.953 20.229 L 19.989 20.184 C 20.039 20.118 20.085 20.05 20.131 19.981 L 20.147 19.961 C 20.209 19.864 20.264 19.767 20.322 19.666 C 20.104 19.403 19.918 19.116 19.766 18.81 C 19.704 18.983 19.626 19.151 19.536 19.312 C 19.498 19.382 19.458 19.45 19.418 19.516 L 19.4 19.543 C 19.362 19.599 19.323 19.654 19.282 19.708 L 19.246 19.754 C 19.205 19.807 19.163 19.858 19.118 19.907 L 19.094 19.935 C 18.805 20.251 18.459 20.51 18.075 20.7 L 18.002 20.737 C 17.805 20.824 16.069 21.594 16.069 22.765 L 16.069 25.891 L 8.279 21.323 C 8.78 21.017 10.244 20.165 11.448 19.79 C 11.919 19.646 12.919 20.263 13.486 20.716 L 13.52 20.746 C 13.595 20.816 13.674 20.883 13.756 20.946 L 13.784 20.971 C 13.964 21.115 14.156 21.244 14.357 21.358 L 14.492 21.431 L 14.519 21.445 C 14.65 21.511 14.784 21.571 14.921 21.624 L 14.981 21.647 L 15.021 21.663 C 15.218 21.735 15.421 21.791 15.626 21.833 C 15.787 21.545 15.996 21.285 16.242 21.065 C 15.913 21.041 15.59 20.97 15.281 20.855 L 15.228 20.835 L 15.126 20.794 L 15.074 20.772 L 14.975 20.726 C 14.746 20.615 14.529 20.479 14.33 20.32 L 14.02 20.044 C 13.735 19.799 13.427 19.583 13.1 19.398 C 12.33 18.968 11.686 18.828 11.192 18.98 C 10.162 19.298 9.002 19.916 8.294 20.324 L 16.072 6.607 L 16.072 12.614 C 16.072 12.827 15.752 13.383 14.683 13.855 L 14.609 13.895 C 14.505 13.945 14.404 13.999 14.305 14.057 L 14.285 14.067 C 13.956 14.261 13.654 14.498 13.387 14.771 L 13.377 14.781 C 13.276 14.885 13.18 14.994 13.09 15.108 L 13.079 15.123 C 13.036 15.178 12.993 15.235 12.952 15.292 L 12.938 15.312 C 12.901 15.366 12.865 15.421 12.83 15.476 L 12.818 15.493 C 12.783 15.55 12.749 15.607 12.717 15.666 L 12.694 15.707 C 12.665 15.763 12.636 15.823 12.607 15.875 L 12.594 15.902 C 12.568 15.955 12.544 16.008 12.521 16.062 L 12.496 16.122 C 12.473 16.178 12.452 16.238 12.431 16.292 L 12.411 16.352 C 12.396 16.395 12.382 16.438 12.369 16.482 C 12.362 16.506 12.354 16.529 12.348 16.554 C 12.291 16.755 12.249 16.96 12.223 17.167 L 12.213 17.26 C 12.208 17.302 12.205 17.345 12.202 17.387 C 12.2 17.43 12.202 17.472 12.195 17.514 C 12.188 17.557 12.195 17.566 12.195 17.594 L 12.195 17.689 C 12.195 17.899 12.211 18.109 12.243 18.318 C 12.578 18.4 12.902 18.521 13.209 18.678 C 13.115 18.376 13.064 18.062 13.059 17.746 L 13.059 17.689 C 13.059 17.613 13.059 17.538 13.068 17.458 L 13.068 17.398 C 13.068 17.333 13.081 17.267 13.09 17.202 L 13.09 17.174 C 13.1 17.102 13.114 17.03 13.132 16.959 L 13.144 16.904 C 13.159 16.844 13.174 16.786 13.193 16.727 L 13.205 16.689 C 13.225 16.62 13.25 16.553 13.276 16.486 L 13.296 16.441 C 13.318 16.386 13.342 16.331 13.367 16.276 L 13.386 16.234 C 13.417 16.169 13.451 16.106 13.486 16.043 L 13.505 16.012 C 13.537 15.958 13.57 15.904 13.604 15.852 L 13.629 15.815 C 13.67 15.755 13.712 15.699 13.757 15.637 L 13.765 15.627 C 13.808 15.572 13.853 15.519 13.899 15.467 L 13.924 15.437 C 14.135 15.205 14.377 15.002 14.644 14.834 L 15.012 14.664 C 15.209 14.577 16.937 13.786 16.937 12.614 L 16.937 6.607 L 24.776 20.427 C 24.076 20.09 22.846 19.495 21.886 19.007 C 21.338 18.727 20.964 17.74 20.868 17.386 L 20.762 16.971 C 20.723 16.748 20.665 16.529 20.59 16.316 L 20.582 16.312 L 20.583 16.312 Z"/>
</svg>
