<?xml version="1.0" encoding="utf-8"?>
<svg fill="#d1d1d1" width="32" height="32" viewBox="0 0 32 32" xmlns="http://www.w3.org/2000/svg">
  <path d="M 23.027 16.24 C 22.957 16.121 22.802 16.083 22.686 16.158 L 21.446 16.963 C 21.334 17.036 21.299 17.185 21.367 17.3 L 22.455 19.145 C 22.489 19.203 22.471 19.277 22.415 19.313 L 16.065 23.438 C 16.025 23.464 15.974 23.464 15.934 23.438 L 9.585 19.313 C 9.53 19.276 9.512 19.203 9.545 19.145 L 10.634 17.3 C 10.702 17.185 10.667 17.036 10.555 16.963 L 9.315 16.158 C 9.199 16.083 9.044 16.121 8.974 16.24 L 7.07 19.468 C 6.933 19.698 7.002 19.995 7.226 20.142 L 15.736 25.672 C 15.897 25.777 16.105 25.777 16.266 25.672 L 24.776 20.142 C 24.998 19.994 25.066 19.698 24.931 19.468 L 23.027 16.24 Z M 16.564 5.75 L 15.436 5.75 C 15.263 5.751 15.103 5.843 15.015 5.992 L 10.231 14.103 C 10.163 14.219 10.198 14.367 10.311 14.44 L 11.55 15.245 C 11.667 15.32 11.822 15.283 11.892 15.163 L 15.895 8.377 C 15.942 8.297 16.058 8.297 16.105 8.377 L 20.108 15.163 C 20.178 15.283 20.335 15.32 20.45 15.245 L 21.69 14.44 C 21.802 14.367 21.836 14.218 21.768 14.103 L 16.984 5.992 C 16.896 5.843 16.737 5.751 16.564 5.75 Z"/>
</svg>
