<?xml version="1.0" encoding="utf-8"?>
<svg fill="#d1d1d1" width="32" height="32" viewBox="0 0 32 32" xmlns="http://www.w3.org/2000/svg">
  <path d="M 23.073 7.5 L 10.296 7.5 C 9.263 7.5 8.5 8.28 8.5 9.346 L 8.5 22.676 C 8.488 23.564 9.164 24.312 10.049 24.389 L 10.219 24.395 C 11.174 24.411 11.953 23.632 11.937 22.677 L 11.937 10.789 L 20.435 10.788 L 15.413 15.8 C 14.747 16.46 14.747 17.535 15.413 18.195 L 21.148 23.912 C 22.078 24.821 23.643 24.382 23.965 23.122 C 24.112 22.549 23.947 21.94 23.531 21.518 L 18.993 16.995 L 23.233 12.768 C 23.553 12.451 23.731 12.02 23.73 11.571 L 23.737 8.154 C 23.736 7.979 23.668 7.811 23.547 7.684 L 23.544 7.686 L 23.469 7.623 C 23.354 7.54 23.215 7.497 23.073 7.5 Z"/>
</svg>
