<?xml version="1.0" encoding="utf-8"?>
<svg fill="#d1d1d1" viewBox="0 0 32 32" xmlns="http://www.w3.org/2000/svg">
  <path d="M 11.816 9.24 C 11.116 8.31 10.034 7.64 8.853 7.592 C 7.621 7.52 6.407 8.105 5.602 9.021 C 4.992 9.724 4.701 10.656 4.69 11.578 C 4.685 13.341 4.684 15.105 4.688 16.868 C 4.668 17.102 4.878 17.266 5.099 17.241 C 10.091 17.255 15.085 17.225 20.077 17.257 C 20.055 18.348 20.081 19.439 20.154 20.527 C 18.73 21.563 17.062 22.294 15.318 22.566 C 15.091 22.617 14.708 22.556 14.658 22.868 C 14.637 23.453 14.656 24.041 14.649 24.627 C 14.616 24.833 14.777 25.044 14.992 25.041 C 17.111 24.872 19.137 24.104 20.836 22.826 C 21.46 23.636 22.351 24.276 23.38 24.43 C 24.835 24.689 26.364 23.987 27.234 22.818 C 27.784 22.074 27.979 21.132 27.975 20.222 C 27.97 18.547 27.99 16.872 27.965 15.199 C 27.984 14.933 27.734 14.798 27.497 14.819 C 22.521 14.809 17.545 14.824 12.571 14.81 C 12.541 13.825 12.614 12.836 12.507 11.854 C 12.496 11.718 12.464 11.531 12.607 11.45 C 14.132 10.408 15.887 9.654 17.732 9.45 C 17.932 9.445 18.024 9.22 18.01 9.046 C 18.01 8.486 18.024 7.924 18.004 7.365 C 18.011 7.131 17.781 6.997 17.569 7.039 C 15.493 7.209 13.481 7.992 11.816 9.24 Z M 6.7 11.882 C 6.724 10.94 7.586 10.112 8.533 10.15 C 9.503 10.132 10.376 10.985 10.395 11.951 C 10.415 12.959 10.403 13.966 10.401 14.974 C 9.168 15.001 7.936 14.983 6.702 14.984 C 6.697 13.95 6.697 12.916 6.7 11.882 Z M 22.409 17.172 C 23.641 17.169 24.873 17.165 26.105 17.174 C 26.115 18.159 26.109 19.144 26.109 20.129 C 26.117 20.879 25.646 21.626 24.934 21.89 C 24.161 22.189 23.217 21.893 22.744 21.216 C 22.517 20.896 22.398 20.512 22.404 20.119 C 22.407 19.137 22.4 18.154 22.409 17.171 L 22.409 17.172 Z"/>
</svg>
