<?xml version="1.0" encoding="utf-8"?>
<svg fill="#d1d1d1" viewBox="0 0 32 32" xmlns="http://www.w3.org/2000/svg">
  <path d="M 10.144 20.024 L 7.094 20.024 C 7.042 20.023 7 20.065 7 20.117 L 7 20.754 C 7 20.805 7.042 20.847 7.093 20.847 L 9.607 20.847 C 8.929 21.891 8.263 22.942 7.607 24 L 14.926 24 C 13.017 23.064 12.039 22.013 11.99 20.847 L 14.739 20.847 C 14.79 20.847 14.832 20.805 14.832 20.754 L 14.832 20.117 C 14.832 20.066 14.79 20.024 14.739 20.024 L 12.108 20.024 C 12.205 19.66 12.36 19.224 12.568 18.744 L 15.578 18.744 C 15.629 18.744 15.671 18.702 15.671 18.651 L 15.671 18.015 C 15.671 17.964 15.629 17.922 15.578 17.922 L 12.954 17.922 C 14.474 14.91 17.641 10.884 21.359 10.884 C 23.727 10.884 23.771 12.987 24.949 12.987 C 26.127 12.987 27 12.673 27 12.073 C 27 11.473 26.254 9.285 23.457 9.285 C 18.802 9.285 16.887 12.849 14.646 12.849 C 12.746 12.849 11.896 11.204 11.896 10.245 C 11.896 8.81 13.526 7.32 14.273 7.275 C 14.552 7.257 14.459 7 13.853 7 C 12.547 7 10.31 8.68 10.31 10.062 C 10.31 12.604 12.455 13.535 13.76 13.535 C 14.42 13.535 14.46 13.626 14.46 13.809 C 14.46 13.929 13.49 15.093 11.554 17.922 L 7.932 17.922 C 7.881 17.922 7.839 17.964 7.839 18.015 L 7.839 18.651 C 7.839 18.703 7.881 18.745 7.932 18.745 L 10.996 18.745 C 10.728 19.143 10.444 19.569 10.144 20.025 L 10.144 20.024 Z" fill-rule="evenodd"/>
</svg>
