<?xml version="1.0" encoding="utf-8"?>
<svg fill="#d1d1d1" viewBox="0 0 32 32" xmlns="http://www.w3.org/2000/svg">
  <path d="M 12.605 9.155 C 13.463 9.155 14.158 8.449 14.158 7.578 C 14.158 6.707 13.463 6 12.605 6 C 11.748 6 11.053 6.706 11.053 7.578 C 11.053 8.45 11.748 9.155 12.605 9.155 Z M 19.447 26 C 20.305 26 21 25.294 21 24.422 C 21 23.552 20.305 22.845 19.447 22.845 C 18.59 22.845 17.895 23.551 17.895 24.422 C 17.895 25.294 18.59 26 19.447 26 Z M 13.242 14.21 L 20.4 8.65 C 21.013 8.169 21.128 7.286 20.66 6.663 C 20.198 6.042 19.316 5.922 18.705 6.398 L 11.548 11.96 C 10.935 12.441 10.819 13.323 11.287 13.946 C 11.749 14.567 12.631 14.687 13.242 14.211 L 13.242 14.21 Z M 13.295 19.879 L 20.452 14.317 C 21.065 13.836 21.181 12.954 20.713 12.331 C 20.251 11.71 19.369 11.59 18.758 12.066 L 11.6 17.628 C 10.987 18.109 10.872 18.992 11.34 19.615 C 11.802 20.236 12.684 20.356 13.295 19.88 L 13.295 19.879 Z M 13.295 25.708 L 20.452 20.146 C 21.065 19.665 21.181 18.783 20.713 18.16 C 20.251 17.539 19.369 17.419 18.758 17.895 L 11.6 23.457 C 10.987 23.938 10.872 24.821 11.34 25.444 C 11.802 26.065 12.684 26.185 13.295 25.709 L 13.295 25.708 Z" fill-rule="evenodd"/>
</svg>
