<?xml version="1.0" encoding="utf-8"?>
<svg fill="#d1d1d1" viewBox="0 0 32 32" xmlns="http://www.w3.org/2000/svg">
  <path fill-rule="evenodd" d="M 23.683 12.886 C 22.053 13.057 20.817 14.543 20.929 16.2 C 20.929 16.657 20.76 17.057 20.367 17.286 C 20.182 17.402 19.967 17.461 19.749 17.457 C 19.524 17.457 19.355 17.4 19.13 17.286 C 18.624 17 18.062 16.829 17.5 16.829 L 17.163 16.829 C 15.533 17 14.353 18.486 14.464 20.143 C 14.464 20.6 14.296 21 13.902 21.229 C 13.717 21.345 13.502 21.404 13.284 21.4 C 13.083 21.405 12.886 21.345 12.722 21.229 C 12.216 20.943 11.654 20.771 11.092 20.771 L 10.754 20.771 C 9.237 20.943 8.112 22.257 8.056 23.857 C 8.056 25.571 9.406 27 11.092 27 L 11.372 27 C 12.834 26.829 14.015 25.686 14.127 24.2 L 14.127 23.686 C 14.127 23.229 14.296 22.829 14.689 22.6 C 14.874 22.484 15.089 22.424 15.308 22.429 C 15.533 22.429 15.701 22.486 15.926 22.6 C 16.432 22.886 16.994 23.057 17.556 23.057 L 17.893 23.057 C 19.343 22.881 20.47 21.712 20.592 20.257 L 20.592 19.743 C 20.592 19.286 20.76 18.886 21.154 18.657 C 21.339 18.541 21.554 18.482 21.772 18.486 C 21.997 18.486 22.166 18.543 22.334 18.657 C 22.84 18.943 23.402 19.114 23.964 19.114 L 24.302 19.114 C 25.82 18.83 27 17.572 27 15.972 C 27 14.257 25.65 12.829 23.964 12.829 C 23.852 12.829 23.74 12.829 23.684 12.886 L 23.683 12.886 Z M 17.22 8.943 C 15.59 9.114 14.353 10.6 14.465 12.257 C 14.465 12.714 14.297 13.114 13.903 13.343 C 13.718 13.459 13.503 13.518 13.285 13.514 C 13.084 13.519 12.887 13.459 12.723 13.343 C 12.217 13.057 11.655 12.886 11.093 12.886 L 10.755 12.886 C 9.238 13.114 8.113 14.372 8.113 15.914 C 8.113 17.629 9.463 19.057 11.149 19.057 L 11.43 19.057 C 12.892 18.885 14.072 17.742 14.184 16.257 L 14.184 15.743 C 14.184 15.286 14.354 14.886 14.747 14.657 C 14.932 14.541 15.147 14.482 15.365 14.486 C 15.566 14.481 15.763 14.541 15.927 14.657 C 16.433 14.943 16.995 15.114 17.557 15.114 L 17.894 15.114 C 19.412 14.943 20.537 13.629 20.593 12.029 C 20.593 10.314 19.243 8.886 17.557 8.886 C 17.389 8.886 17.332 8.886 17.22 8.943 Z M 11.036 5 C 9.359 5 8 6.382 8 8.086 C 8 9.79 9.36 11.171 11.036 11.171 C 12.712 11.171 14.07 9.79 14.07 8.086 C 14.07 6.382 12.711 5 11.036 5 Z"/>
</svg>
