<?xml version="1.0" encoding="utf-8"?>
<svg fill="#d1d1d1" viewBox="0 0 32 32" xmlns="http://www.w3.org/2000/svg">
  <path d="M 25.696 15.732 C 25.146 15.732 24.675 16.065 24.484 16.537 L 20.48 16.537 C 20.306 16.536 20.146 16.629 20.06 16.78 L 19.275 18.176 L 18.693 13.261 C 18.628 12.711 17.813 12.705 17.739 13.254 L 16.725 20.777 L 15.744 6.438 C 15.704 5.865 14.85 5.848 14.787 6.42 L 13.567 17.567 L 12.718 12.897 C 12.628 12.399 11.905 12.374 11.779 12.866 L 10.841 16.536 L 6.48 16.536 C 6.214 16.536 5.999 16.747 5.999 17.006 C 5.999 17.265 6.214 17.476 6.479 17.476 L 11.215 17.476 C 11.435 17.476 11.627 17.33 11.681 17.121 L 12.165 15.226 L 13.212 20.982 C 13.31 21.517 14.104 21.49 14.162 20.949 L 15.153 11.895 L 16.088 25.562 C 16.127 26.128 16.968 26.154 17.044 25.592 L 18.184 17.138 L 18.492 19.745 C 18.546 20.2 19.165 20.319 19.391 19.918 L 20.763 17.477 L 24.483 17.477 C 24.673 17.948 25.145 18.282 25.695 18.282 C 26.415 18.282 26.999 17.711 26.999 17.007 C 26.999 16.303 26.415 15.732 25.695 15.732 L 25.696 15.732 Z"/>
</svg>
