<?xml version="1.0" encoding="utf-8"?>
<svg fill="#d1d1d1" viewBox="0 0 32 32" xmlns="http://www.w3.org/2000/svg">
  <path d="M 10.5 15.238 L 10.5 17.046 L 12.264 17.046 L 12.264 19.654 L 10.5 19.654 L 10.5 21.359 L 12.264 21.359 L 12.264 25 L 14.252 25 L 14.252 21.359 L 18.252 21.359 L 18.252 19.654 L 14.252 19.654 L 14.252 17.046 L 16.761 17.046 C 17.525 17.052 18.287 16.948 19.021 16.736 C 19.717 16.529 20.321 16.216 20.835 15.793 C 21.349 15.372 21.755 14.843 22.053 14.205 C 22.351 13.568 22.5 12.819 22.5 11.958 C 22.5 11.098 22.36 10.358 22.078 9.738 C 21.796 9.118 21.407 8.605 20.91 8.201 C 20.413 7.797 19.817 7.495 19.121 7.297 C 18.368 7.092 17.591 6.992 16.811 7 L 12.264 7 L 12.264 15.238 L 10.5 15.238 Z M 16.81 15.238 L 14.252 15.238 L 14.252 8.808 L 16.811 8.808 C 17.953 8.808 18.852 9.058 19.506 9.557 C 20.16 10.056 20.488 10.857 20.488 11.958 C 20.488 13.06 20.16 13.882 19.506 14.425 C 18.852 14.967 17.953 15.238 16.811 15.238 L 16.81 15.238 Z" fill-rule="evenodd"/>
</svg>
