<?xml version="1.0" encoding="utf-8"?>
<svg fill="#d1d1d1" width="32" height="32" viewBox="0 0 32 32" xmlns="http://www.w3.org/2000/svg">
  <path fill-rule="evenodd" d="M 9.5 27 L 15.149 22.812 L 13.118 10.212 L 9.5 27 Z M 13.188 10.115 L 15.242 22.764 L 18.685 22.824 L 13.188 10.114 L 13.188 10.115 Z M 13.27 10.019 L 18.802 22.824 L 20.471 11.042 L 13.27 10.019 Z M 18.93 22.643 L 21.615 12.498 L 20.553 11.15 L 18.93 22.643 Z M 20.447 10.933 L 19.747 7.853 L 13.421 9.934 L 20.447 10.934 L 20.447 10.933 Z M 13.387 9.826 L 19.747 7.744 L 17.693 6.841 L 13.386 9.826 L 13.387 9.826 Z M 13.281 9.79 L 17.623 6.793 L 14.11 8.201 L 13.281 9.79 Z M 14.111 8.13 L 17.401 6.793 L 14.507 6.889 L 14.11 8.129 L 14.111 8.13 Z M 14.484 6.793 L 17.424 6.697 L 15.417 5.794 L 14.484 6.794 L 14.484 6.793 Z M 15.476 5.734 L 18.686 7.166 L 16.876 5.048 L 15.476 5.734 Z M 17.075 5.132 L 18.79 7.178 L 19.164 6.047 L 17.074 5.132 L 17.075 5.132 Z M 18.86 7.214 L 19.712 7.648 L 19.245 6.059 L 18.86 7.214 Z M 16.923 5 L 19.155 5.918 C 19.189 5.932 19.226 5.903 19.22 5.866 C 19.219 5.857 19.215 5.849 19.209 5.842 L 18.452 5 L 16.922 5 L 16.923 5 Z M 19.339 5.963 L 19.806 7.696 L 22.448 6.971 C 22.502 6.958 22.522 6.892 22.483 6.851 C 22.474 6.841 22.462 6.834 22.448 6.831 L 19.338 5.963 L 19.339 5.963 Z"/>
</svg>
