<?xml version="1.0" encoding="utf-8"?>
<svg fill="#d1d1d1" width="32" height="32" viewBox="0 0 32 32" xmlns="http://www.w3.org/2000/svg">
  <path d="M 15.986 4 C 9.376 4 4 9.376 4 15.986 C 4 22.596 9.376 27.97 15.986 27.97 C 22.596 27.97 27.97 22.595 27.97 15.986 C 27.971 9.376 22.595 4 15.986 4 Z M 15.986 5.632 C 21.707 5.625 26.347 10.265 26.339 15.986 C 26.346 21.707 21.707 26.346 15.986 26.339 C 10.265 26.347 5.625 21.707 5.632 15.986 C 5.625 10.265 10.265 5.625 15.986 5.632 Z M 11.533 11.56 L 11.533 20.41 L 20.438 20.41 L 20.438 11.56 L 11.533 11.56 Z M 12.983 13.01 L 18.987 13.01 L 18.987 18.96 L 12.984 18.96 L 12.984 13.01 L 12.983 13.01 Z"/>
</svg>
