<?xml version="1.0" encoding="utf-8"?>
<svg fill="#d1d1d1" width="32" height="32" viewBox="0 0 32 32" xmlns="http://www.w3.org/2000/svg">
  <path d="M 26.989 22.671 L 26.989 9.998 L 15.985 3.66 L 15.97 3.668 L 5.004 10.005 L 5.004 22.675 L 15.979 28.997 L 15.98 28.998 L 26.988 22.672 L 26.989 22.671 Z M 22.119 20.645 L 20.242 19.569 L 16.054 22 C 16.029 22.015 15.999 22.015 15.974 22 L 11.169 19.215 L 11.167 14.37 L 6.946 11.95 L 15.944 6.675 C 15.951 6.67 15.961 6.67 15.968 6.675 L 24.325 11.453 L 22.847 12.308 L 15.972 8.352 L 9.875 11.931 L 11.99 13.146 L 15.976 10.828 L 15.978 10.826 L 20.848 13.611 L 20.846 18.221 L 24.997 20.598 L 24.996 20.668 L 15.98 25.932 L 7.622 21.16 L 9.085 20.303 L 15.966 24.25 L 22.119 20.644 L 22.119 20.645 Z M 17.305 15.145 L 17.305 15.111 L 17.304 15.089 L 17.303 15.077 L 17.301 15.052 L 17.301 15.044 L 17.298 15.017 L 17.298 15.01 L 17.294 14.982 L 17.294 14.977 L 17.29 14.948 L 17.29 14.944 L 17.285 14.914 L 17.284 14.912 L 17.278 14.882 L 17.277 14.879 L 17.27 14.849 L 17.27 14.847 C 17.268 14.837 17.266 14.827 17.263 14.817 L 17.263 14.815 L 17.254 14.785 L 17.254 14.784 L 17.245 14.752 C 17.24 14.732 17.233 14.712 17.225 14.692 L 17.213 14.661 C 17.209 14.651 17.205 14.641 17.201 14.631 L 17.188 14.601 L 17.175 14.573 L 17.161 14.543 L 17.147 14.515 L 17.131 14.487 C 17.126 14.478 17.12 14.469 17.115 14.46 L 17.115 14.459 C 17.11 14.45 17.105 14.442 17.099 14.433 L 17.098 14.432 C 17.093 14.423 17.087 14.415 17.081 14.407 L 17.081 14.405 L 17.064 14.381 C 17.064 14.381 17.064 14.379 17.062 14.379 L 17.045 14.355 L 17.043 14.353 C 17.037 14.345 17.033 14.337 17.026 14.329 L 17.025 14.327 L 17.006 14.304 L 17.004 14.302 L 16.986 14.28 L 16.984 14.278 L 16.964 14.257 C 16.964 14.256 16.964 14.255 16.962 14.254 L 16.943 14.233 C 16.942 14.232 16.941 14.231 16.941 14.23 L 16.922 14.21 C 16.914 14.202 16.907 14.195 16.899 14.187 L 16.896 14.184 L 16.876 14.164 L 16.874 14.162 L 16.854 14.144 L 16.85 14.141 L 16.829 14.122 L 16.826 14.119 C 16.819 14.113 16.812 14.107 16.805 14.102 L 16.802 14.1 L 16.78 14.082 L 16.777 14.08 L 16.754 14.063 L 16.751 14.061 L 16.728 14.044 L 16.725 14.042 L 16.702 14.026 L 16.699 14.025 L 16.675 14.009 L 16.673 14.007 C 16.665 14.002 16.656 13.997 16.648 13.992 L 16.646 13.992 L 16.62 13.976 L 16.618 13.976 L 16.591 13.96 L 16.59 13.96 C 15.638 13.558 14.608 14.337 14.736 15.362 C 14.791 15.8 15.056 16.182 15.447 16.386 L 14.867 19.038 L 17.061 19.038 L 16.476 16.388 C 16.978 16.178 17.305 15.688 17.305 15.145 Z"/>
</svg>
