<?xml version="1.0" encoding="utf-8"?>
<svg fill="#d1d1d1" width="32" height="32" viewBox="0 0 32 32" xmlns="http://www.w3.org/2000/svg">
  <path d="M 16.064 4 C 9.405 4.008 4.008 9.375 4 16 C 4 20.574 6.825 24.254 10.573 24.563 C 12.853 24.75 15.058 23.942 16.51 23.229 C 17.377 22.875 18.183 22.389 18.902 21.789 L 19.058 21.66 L 19.228 21.51 L 19.388 21.363 C 20.749 20.081 22.37 17.773 22.37 14.063 L 22.37 13.653 L 16.116 9.386 L 9.861 13.654 L 9.861 14.061 L 9.866 14.428 C 9.969 17.925 11.527 20.122 12.842 21.362 C 13.001 21.512 13.168 21.659 13.342 21.8 C 13.912 21.595 14.482 21.384 15.037 21.139 C 13.617 20.221 11.558 18.237 11.422 14.463 L 16.116 11.259 L 20.809 14.463 L 20.791 14.797 C 20.597 17.651 19.274 19.425 18.111 20.444 L 17.961 20.559 L 17.953 20.566 L 17.9 20.604 C 17.408 20.962 14.046 23.3 10.701 23.023 C 8.451 22.837 6.624 21.017 5.897 18.481 C 6.699 17.916 6.589 16.695 5.699 16.283 C 5.653 16.262 5.606 16.244 5.558 16.228 L 5.558 16 L 5.566 15.6 C 5.616 14.268 5.925 12.957 6.476 11.739 C 7.868 12.309 9.468 11.779 10.246 10.492 C 10.796 9.58 10.825 8.445 10.322 7.506 C 10.287 7.443 10.25 7.382 10.212 7.321 C 12.557 5.755 15.431 5.194 18.192 5.763 C 20.95 6.329 23.365 7.979 24.895 10.343 C 24.195 10.933 23.938 11.896 24.255 12.753 C 24.573 13.612 25.393 14.182 26.309 14.18 L 26.41 14.18 L 26.47 14.541 C 26.54 15.024 26.577 15.511 26.58 16.001 C 26.58 21.421 22.243 25.705 16.042 26.458 C 11.083 27.064 7.902 25.016 7.902 25.016 C 9.759 27.052 12.353 28 16.067 28 C 22.678 27.929 28 22.577 28 16 C 28 9.422 22.677 4.07 16.064 4 Z M 24.074 17.994 C 23.453 17.994 22.95 18.494 22.95 19.112 C 22.952 19.731 23.454 20.231 24.073 20.229 C 24.693 20.229 25.196 19.729 25.196 19.112 C 25.195 18.493 24.692 17.992 24.073 17.994 L 24.074 17.994 Z M 16.784 18.15 L 15.344 18.15 L 15.499 18.907 L 15.784 18.528 L 16.064 19.949 L 16.344 18.529 L 16.629 18.907 L 16.784 18.15 Z M 23.82 18.506 C 24.066 18.404 24.349 18.459 24.538 18.647 C 24.726 18.834 24.783 19.115 24.681 19.36 C 24.487 19.828 23.86 19.911 23.551 19.509 C 23.464 19.395 23.416 19.256 23.415 19.112 C 23.415 18.847 23.575 18.608 23.82 18.506 Z M 5.583 16.755 C 6.009 17.018 6.096 17.601 5.766 17.978 C 5.678 17.575 5.616 17.166 5.583 16.755 Z M 16.07 13.345 C 16.07 13.345 15.31 14.398 15.31 14.814 L 15.31 16.946 L 15.128 17.013 C 14.711 17.185 14.348 17.469 14.083 17.835 L 18.045 17.835 L 17.925 17.684 C 17.632 17.341 17.251 17.086 16.823 16.946 L 16.823 14.814 L 16.813 14.723 C 16.726 14.263 16.07 13.346 16.07 13.346 L 16.07 13.345 Z M 25.144 10.742 C 25.686 11.667 26.083 12.67 26.318 13.715 L 26.308 13.715 L 26.158 13.709 C 25.506 13.654 24.942 13.234 24.703 12.625 C 24.445 11.967 24.62 11.218 25.143 10.742 L 25.144 10.742 Z M 9.83 7.59 C 9.854 7.633 9.886 7.678 9.91 7.723 L 9.993 7.893 C 10.403 8.817 10.231 9.896 9.553 10.647 C 8.827 11.451 7.677 11.719 6.67 11.318 C 7.417 9.845 8.499 8.568 9.83 7.59 Z"/>
</svg>
