<?xml version="1.0" encoding="utf-8"?>
<svg fill="#d1d1d1" viewBox="0 0 32 32" xmlns="http://www.w3.org/2000/svg">
  <path d="M 27 16.039 C 27.045 9.996 22.13 5.041 16.05 5 C 10.013 4.96 5.05 9.85 5 15.886 C 4.951 21.98 9.838 26.953 15.923 27 C 22.003 27.045 26.953 22.147 27 16.039 Z M 5.796 16.004 C 5.786 10.49 10.338 5.898 15.74 5.806 C 21.327 5.71 26.18 10.131 26.202 15.99 C 26.222 21.616 21.622 26.185 15.985 26.173 C 10.354 26.161 5.807 21.623 5.796 16.003 L 5.796 16.004 Z M 18.681 11.228 C 17.468 10.586 16.251 10.451 14.996 10.748 C 14.334 10.894 13.785 11.355 13.526 11.981 C 12.928 13.31 13.324 14.875 14.481 15.76 C 14.771 15.986 15.104 16.156 15.402 16.372 C 15.849 16.697 16.328 16.994 16.71 17.384 C 17.205 17.89 17.305 18.554 16.99 19.184 C 16.675 19.808 16.034 19.902 15.422 19.805 C 14.78 19.703 14.156 19.487 13.473 19.307 L 13.004 20.671 C 14.074 21.391 15.982 21.615 17.102 21.161 C 17.834 20.864 18.405 20.377 18.646 19.605 C 19.051 18.303 18.876 17.095 17.889 16.099 C 17.525 15.732 17.066 15.459 16.649 15.144 C 16.196 14.802 15.709 14.497 15.295 14.112 C 14.892 13.736 14.912 13.217 15.08 12.73 C 15.244 12.255 15.681 12.145 16.103 12.186 C 16.813 12.256 17.516 12.406 18.273 12.53 C 18.38 12.19 18.526 11.726 18.681 11.228 Z M 10.601 15.818 C 10.611 15.121 10.053 14.548 9.356 14.54 C 8.661 14.54 8.089 15.089 8.062 15.784 C 8.046 16.481 8.645 17.091 9.344 17.088 C 10.041 17.081 10.602 16.515 10.602 15.818 L 10.601 15.818 Z M 22.694 14.575 C 21.924 14.575 21.394 15.078 21.394 15.81 C 21.394 16.51 21.95 17.078 22.645 17.088 C 23.355 17.098 23.93 16.513 23.921 15.791 C 23.911 15.089 23.392 14.574 22.694 14.575 Z"/>
</svg>
