<?xml version="1.0" encoding="utf-8"?>
<svg fill="#d1d1d1" viewBox="0 0 32 32" xmlns="http://www.w3.org/2000/svg">
  <path d="M 22.681 7.368 L 11.694 13.617 L 6.458 10.64 L 5.918 11.713 L 11.694 15.038 L 23.626 8.226 L 22.681 7.368 Z M 20.279 6 L 11.694 10.908 L 7.888 8.736 L 7.106 9.674 L 11.694 12.276 L 21.547 6.644 L 20.28 6 L 20.279 6 Z M 24.463 9.111 L 11.694 16.406 L 5.486 12.866 L 5.189 14.046 L 11.694 17.747 L 25.164 10.05 L 24.463 9.111 Z M 26.406 12.571 L 25.812 11.069 L 11.694 19.115 L 5 15.333 L 5 16.057 C 5 17.522 5.293 18.972 5.864 20.322 C 6.405 21.629 7.204 22.815 8.212 23.808 C 9.22 24.786 10.401 25.568 11.694 26.115 C 13.062 26.705 14.493 27 15.987 27 C 17.463 27 18.893 26.705 20.279 26.115 C 21.588 25.582 22.78 24.798 23.788 23.808 C 24.785 22.805 25.582 21.622 26.136 20.322 L 26.406 19.598 C 26.802 18.454 27 17.273 27 16.058 C 27 14.841 26.802 13.68 26.406 12.571 Z"/>
</svg>
