<?xml version="1.0" encoding="utf-8"?>
<svg fill="#d1d1d1" width="32" height="32" viewBox="0 0 32 32" xmlns="http://www.w3.org/2000/svg">
  <path d="M 19.013 5.467 C 18.859 5.314 18.611 5.311 18.453 5.46 C 18.296 5.607 18.292 5.855 18.445 6.007 C 19.585 7.191 20.64 8.454 21.602 9.787 C 23.638 12.621 24.712 15.136 24.712 17.067 C 24.712 21.764 20.807 25.581 16 25.581 C 11.193 25.581 7.287 21.756 7.287 17.066 C 7.287 15.136 8.355 12.621 10.376 9.787 C 11.328 8.455 12.372 7.192 13.502 6.007 C 13.655 5.855 13.651 5.607 13.494 5.46 C 13.336 5.311 13.088 5.314 12.934 5.467 L 12.901 5.501 C 11.755 6.703 10.696 7.984 9.732 9.336 C 7.59 12.346 6.5 14.951 6.5 17.066 C 6.5 22.186 10.762 26.35 16 26.35 C 21.238 26.35 25.5 22.185 25.5 17.066 C 25.5 12.23 19.714 6.183 19.063 5.519 L 19.013 5.467 Z M 17.583 6.695 C 17.428 6.539 17.177 6.539 17.022 6.695 C 16.863 6.843 16.863 7.095 17.022 7.243 L 17.046 7.266 L 17.074 7.294 L 17.219 7.439 C 18.221 8.455 19.163 9.528 20.042 10.653 C 21.995 13.175 23.025 15.321 23.025 16.874 C 23.025 20.654 19.875 23.731 16.008 23.731 C 12.139 23.731 8.99 20.654 8.99 16.874 C 8.99 13.378 13.957 8.256 14.769 7.442 L 14.848 7.363 L 14.864 7.347 L 14.88 7.332 C 15.032 7.181 15.032 6.935 14.88 6.784 C 14.723 6.636 14.477 6.636 14.32 6.784 C 14.07 7.021 8.196 12.761 8.196 16.874 C 8.196 21.076 11.693 24.501 16 24.501 C 20.307 24.501 23.804 21.076 23.82 16.874 C 23.82 12.754 17.84 6.94 17.582 6.695 L 17.583 6.695 Z M 15.947 7.783 L 15.667 8.071 C 15.44 8.301 10.088 13.775 10.088 16.874 C 10.088 20.062 12.738 22.651 16 22.651 C 19.263 22.651 21.912 20.062 21.912 16.867 C 21.912 13.767 16.469 8.293 16.235 8.064 L 15.947 7.783 Z M 15.955 8.9 C 16.822 9.804 17.648 10.747 18.43 11.726 C 20.194 13.96 21.125 15.735 21.125 16.866 C 21.125 19.626 18.824 21.875 16 21.875 C 13.176 21.875 10.875 19.625 10.875 16.867 C 10.875 15.735 11.791 13.96 13.525 11.726 C 14.291 10.747 15.101 9.804 15.955 8.9 Z"/>
</svg>
