<?xml version="1.0" encoding="utf-8"?>
<svg fill="#d1d1d1" width="32" height="32" viewBox="0 0 32 32" xmlns="http://www.w3.org/2000/svg">
  <path d="M 16 4 C 9.373 4 4 9.373 4 16 C 4 22.627 9.373 28 16 28 C 22.627 28 28 22.627 28 16 C 28 9.373 22.627 4 16 4 Z M 20.176 20.527 L 19.688 20.527 L 19.688 23.259 L 18.048 23.259 L 18.048 20.527 L 15.551 20.527 L 15.551 19.512 L 18.088 19.512 L 18.088 17.678 C 16.771 18.412 15.238 18.66 13.756 18.38 C 12.936 18.185 12.117 17.737 11.688 16.995 C 11.28 16.27 11.078 15.447 11.102 14.615 L 11.102 10.283 L 12.761 10.283 L 12.761 14.771 C 12.8 15.746 13.424 16.722 14.381 17.015 C 15.64 17.304 16.961 17.094 18.068 16.429 C 18.068 15.063 18.048 13.015 18.068 10.283 L 19.746 10.283 L 19.746 19.513 L 20.176 19.513 L 20.176 20.527 Z"/>
</svg>
