<?xml version="1.0" encoding="utf-8"?>
<svg fill="#d1d1d1" width="32" height="32" viewBox="0 0 32 32" xmlns="http://www.w3.org/2000/svg">
  <path d="M 20.358 6.957 C 20.277 6.917 20.216 6.922 20.143 6.975 C 19.479 7.448 18.842 7.952 18.294 8.559 C 17.919 8.973 17.596 9.422 17.372 9.936 C 17.222 10.278 17.127 10.633 17.1 11.004 C 17.065 11.544 17.146 12.086 17.338 12.592 C 17.528 13.119 17.79 13.611 18.071 14.094 C 18.402 14.662 18.761 15.214 19.077 15.792 C 19.341 16.272 19.576 16.766 19.726 17.295 C 19.862 17.775 19.917 18.263 19.863 18.758 C 19.799 19.293 19.623 19.808 19.347 20.27 C 19.011 20.85 18.579 21.353 18.092 21.814 C 17.598 22.281 17.058 22.69 16.492 23.064 C 15.762 23.545 14.994 23.957 14.204 24.329 C 13.53 24.644 12.843 24.93 12.144 25.185 C 12.11 25.197 12.065 25.198 12.047 25.241 C 12.067 25.281 12.109 25.286 12.145 25.301 C 13.897 25.983 15.802 26.17 17.653 25.841 C 19.577 25.501 21.361 24.612 22.793 23.283 C 24.092 22.079 25.049 20.552 25.566 18.858 C 25.837 17.973 25.971 17.068 25.998 16.145 C 26.003 15.829 25.992 15.514 25.965 15.199 C 25.825 13.301 25.139 11.485 23.992 9.967 C 23.51 9.325 22.953 8.743 22.333 8.234 C 21.724 7.736 21.062 7.308 20.358 6.957 Z M 16.144 6.007 C 15.569 5.987 14.993 6.019 14.424 6.103 C 13.474 6.239 12.564 6.513 11.694 6.927 C 10.39 7.544 9.239 8.442 8.323 9.556 C 7.516 10.527 6.9 11.643 6.508 12.843 C 6.161 13.901 5.99 15.009 6.001 16.123 C 5.993 16.453 6.023 16.863 6.071 17.271 C 6.256 18.819 6.795 20.303 7.645 21.61 C 8.163 22.405 8.792 23.122 9.512 23.74 C 10.106 24.25 10.759 24.687 11.457 25.042 C 11.53 25.079 11.586 25.082 11.655 25.031 C 12.134 24.678 12.598 24.309 13.025 23.891 C 13.487 23.436 13.902 22.944 14.205 22.361 C 14.459 21.871 14.605 21.35 14.617 20.793 C 14.62 20.374 14.556 19.957 14.425 19.559 C 14.245 18.985 13.973 18.454 13.681 17.934 C 13.361 17.362 13.011 16.808 12.703 16.228 C 12.459 15.768 12.238 15.299 12.091 14.798 C 11.891 14.118 11.848 13.433 12.024 12.741 C 12.162 12.194 12.414 11.704 12.734 11.248 C 13.209 10.57 13.794 10.004 14.434 9.495 C 15.171 8.919 15.961 8.413 16.792 7.983 C 17.537 7.592 18.304 7.244 19.089 6.939 L 19.449 6.799 C 19.467 6.791 19.49 6.783 19.489 6.757 C 19.486 6.737 19.467 6.73 19.451 6.723 C 19.436 6.715 19.42 6.709 19.404 6.702 C 18.366 6.282 17.263 6.047 16.144 6.007 Z"/>
</svg>
