<?xml version="1.0" encoding="utf-8"?>
<svg fill="#d1d1d1" width="32" height="32" viewBox="0 0 32 32" xmlns="http://www.w3.org/2000/svg">
  <path d="M 22.514 7.5 L 7.5 7.5 L 7.644 24.358 L 22.514 24.5 L 22.514 22.517 L 9.81 22.517 L 9.81 9.483 L 22.514 9.483 L 22.514 7.5 Z M 18.472 13.648 C 18.472 15.518 19.454 16.34 22.139 16.708 C 23.784 16.907 24.333 17.332 24.189 18.295 C 24.015 19.542 21.59 19.712 20.551 18.55 C 20.06 17.955 18.183 17.757 18.183 18.267 C 18.183 19.06 19.193 20.335 20.06 20.703 C 21.33 21.213 23.41 21.213 24.68 20.703 C 26.556 19.938 27.134 17.133 25.69 15.858 C 25.373 15.575 24.189 15.15 23.063 14.895 C 20.811 14.385 20.118 13.818 20.753 13.053 C 21.33 12.373 23.293 12.458 23.727 13.167 C 23.987 13.563 24.42 13.733 25.199 13.733 C 26.209 13.733 26.296 13.677 26.123 13.082 C 25.806 12.09 24.823 11.212 23.698 10.9 C 20.898 10.135 18.472 11.438 18.472 13.648 Z"/>
</svg>
