<?xml version="1.0" encoding="utf-8"?>
<svg fill="#d1d1d1" viewBox="0 0 32 32" xmlns="http://www.w3.org/2000/svg">
  <path d="M 24.027 12.803 C 23.505 12.525 22.941 12.334 22.357 12.239 L 17.292 23.5 L 19.215 23.5 L 24.027 12.803 Z M 15.607 6.519 C 12.754 6.728 10.499 9.172 10.499 12.167 C 7.462 12.167 5 14.702 5 17.833 C 5 20.119 6.316 22.082 8.204 22.978 L 15.607 6.519 Z M 21.501 12.167 C 21.501 11.107 21.214 10.118 20.721 9.27 L 14.32 23.5 L 16.403 23.5 L 21.502 12.167 L 21.501 12.167 Z M 23.395 23.149 C 25.5 22.35 27 20.274 27 17.836 C 27 17.153 26.877 16.501 26.661 15.893 L 23.395 23.149 Z M 24.837 13.335 L 20.265 23.5 L 21.501 23.5 C 21.679 23.5 21.861 23.49 22.037 23.472 L 26.023 14.614 C 25.697 14.128 25.297 13.696 24.837 13.334 L 24.837 13.335 Z M 16.02 6.5 L 8.543 23.123 C 9.15 23.363 9.809 23.5 10.499 23.5 L 10.779 23.5 L 18.21 6.981 C 17.523 6.666 16.776 6.502 16.02 6.5 Z M 20.287 8.618 C 19.844 8.051 19.296 7.575 18.673 7.215 L 11.346 23.5 L 13.592 23.5 L 20.287 8.618 Z"/>
</svg>
