<?xml version="1.0" encoding="utf-8"?>
<svg fill="#d1d1d1" width="32" height="32" viewBox="0 0 32 32" xmlns="http://www.w3.org/2000/svg">
  <path fill-rule="evenodd" d="M 11.921 22 L 10.408 23.576 C 11.456 24.909 13.2 26 14.831 26 C 18.821 26 20.766 23.348 20.766 20.365 C 20.766 17.527 19.31 15.95 16.448 14.688 C 14.114 13.656 13.085 12.768 13.085 10.96 C 13.085 9.641 13.965 8.064 16.273 8.064 C 17.805 8.064 18.468 8.929 19.02 9.273 L 20.417 7.818 C 19.835 7.091 18.08 6 16.348 6 C 13.06 6 10.876 8.236 10.876 11.247 C 10.876 13.971 12.583 15.606 15.344 16.724 C 17.628 17.728 18.532 18.76 18.532 20.566 C 18.532 22.516 17.227 23.864 14.992 23.864 C 13.486 23.864 12.038 22.364 11.922 22 L 11.921 22 Z M 13.783 11.697 C 13.783 11.697 19.602 10.848 19.486 15.818 C 19.486 15.818 20.184 16.061 20.882 17.394 C 20.882 17.394 22.512 8.788 13.667 10.243 C 13.667 10.243 13.434 10.97 13.783 11.697 Z M 17.74 19.576 C 17.74 19.576 11.341 20.909 11.53 15.143 C 11.53 15.143 10.867 14.812 10.333 13.399 C 10.335 13.399 7.615 22.606 17.686 21.308 C 17.686 21.308 18.091 20.425 17.74 19.576 Z"/>
</svg>
