<?xml version="1.0" encoding="utf-8"?>
<svg fill="#d1d1d1" height="32" viewBox="0 0 32 32" width="32" xmlns="http://www.w3.org/2000/svg">
  <path d="M 7.894 18.31 L 7.894 21.217 L 7.894 18.309 L 7 18.309 L 7 22.749 L 7.894 22.749 L 7.894 21.217 C 8.147 21.63 8.45 21.986 8.808 22.271 C 9.403 22.744 10.126 23 10.968 23 C 12.185 23 13.162 22.496 13.831 21.632 C 14.375 20.929 14.677 20.019 14.677 19.222 C 14.677 18.177 14.26 17.362 13.473 16.713 C 12.897 16.238 12.286 15.929 11.053 15.418 L 10.85 15.334 C 9.733 14.871 9.228 14.623 8.779 14.268 C 8.235 13.838 7.969 13.348 7.969 12.688 C 7.969 11.802 8.276 11.081 8.816 10.578 C 9.328 10.111 9.996 9.854 10.689 9.859 C 11.735 9.859 12.475 10.305 12.967 11.122 C 13.384 11.814 13.597 12.749 13.597 13.672 L 14.491 13.672 L 14.491 10.056 L 15.591 10.056 L 15.591 22.803 L 18.236 22.803 L 18.236 21.245 C 18.485 21.645 18.781 21.992 19.131 22.271 C 19.726 22.744 20.449 23 21.291 23 C 22.508 23 23.485 22.496 24.154 21.632 C 24.698 20.929 25 20.019 25 19.222 C 25 18.177 24.583 17.362 23.796 16.713 C 23.22 16.238 22.609 15.929 21.376 15.418 C 21.308 15.39 21.241 15.362 21.173 15.334 C 20.056 14.871 19.551 14.623 19.102 14.268 C 18.558 13.838 18.292 13.348 18.292 12.688 C 18.292 11.802 18.599 11.081 19.139 10.578 C 19.651 10.111 20.319 9.854 21.012 9.859 C 22.058 9.859 22.798 10.305 23.29 11.122 C 23.707 11.814 23.92 12.749 23.92 13.672 L 24.814 13.672 L 24.814 9.252 L 23.919 9.252 L 23.919 10.468 C 23.27 9.533 22.292 9 21.012 9 C 20.082 9 19.182 9.34 18.517 9.96 C 17.799 10.628 17.397 11.573 17.397 12.688 C 17.397 13.618 17.792 14.346 18.534 14.932 C 19.071 15.356 19.624 15.628 20.819 16.123 L 21.022 16.207 C 22.172 16.684 22.729 16.965 23.213 17.365 C 23.808 17.856 24.106 18.436 24.106 19.223 C 24.106 19.837 23.864 20.568 23.436 21.119 C 22.931 21.771 22.216 22.141 21.292 22.141 C 20.111 22.141 19.296 21.491 18.763 20.357 C 18.564 19.924 18.417 19.468 18.326 19 C 18.294 18.841 18.268 18.681 18.25 18.52 C 18.244 18.45 18.239 18.38 18.236 18.31 L 17.342 18.31 L 17.342 21.944 L 16.484 21.944 L 16.484 9.197 L 13.596 9.197 L 13.596 10.467 C 12.946 9.533 11.97 9 10.69 9 C 9.76 9 8.86 9.34 8.195 9.96 C 7.477 10.628 7.075 11.573 7.075 12.688 C 7.075 13.618 7.47 14.346 8.212 14.932 C 8.749 15.356 9.302 15.628 10.497 16.123 L 10.7 16.207 C 11.85 16.684 12.407 16.965 12.891 17.365 C 13.486 17.856 13.784 18.436 13.784 19.223 C 13.784 19.837 13.542 20.568 13.114 21.119 C 12.609 21.771 11.894 22.141 10.97 22.141 C 9.789 22.141 8.974 21.493 8.438 20.356 C 8.238 19.932 8.092 19.466 7.995 18.997 C 7.962 18.837 7.935 18.676 7.915 18.514 C 7.902 18.414 7.895 18.329 7.895 18.309 L 7.894 18.31 Z" fill-rule="evenodd"/>
</svg>
