<?xml version="1.0" encoding="utf-8"?>
<svg fill="#d1d1d1" width="32" height="32" viewBox="0 0 32 32" xmlns="http://www.w3.org/2000/svg">
  <path d="M 27 10.344 C 26.893 10.272 16.045 4.006 16.003 4.006 C 15.986 4.006 5.085 10.323 5.006 10.344 L 5.006 23.058 C 5.07 23.064 15.907 29.341 15.907 29.341 C 16.057 29.442 26.932 23.074 27 23.059 L 27 10.344 Z M 19.877 22.591 L 16.662 22.591 L 16.662 23.433 C 16.662 23.443 16.658 23.446 16.648 23.446 L 15.098 23.446 L 15.098 22.591 L 12.129 22.591 L 12.129 20.211 C 12.129 20.186 15.312 16.787 15.326 16.767 C 15.286 16.719 12.129 13.332 12.129 13.321 L 12.129 10.932 L 15.097 10.932 L 15.097 9.94 C 15.619 9.94 16.135 9.95 16.657 9.95 L 16.657 10.9 C 16.657 10.911 16.66 10.915 16.671 10.915 L 19.877 10.915 L 19.877 13.326 L 15.454 13.326 C 15.48 13.366 18.563 16.736 18.583 16.766 C 18.574 16.78 15.454 20.199 15.454 20.199 C 15.454 20.199 19.877 20.189 19.877 20.212 L 19.877 22.592 L 19.877 22.591 Z"/>
</svg>
