<?xml version="1.0" encoding="utf-8"?>
<svg fill="#d1d1d1" viewBox="0 0 32 32" xmlns="http://www.w3.org/2000/svg">
  <path fill-rule="evenodd" d="M 16.913 21.234 C 22.543 20.797 26.962 16.599 26.962 16.599 C 26.962 16.599 22.667 12.511 17.152 11.985 L 16.73 11.25 L 15.98 10 L 15.539 10.734 L 14.809 11.984 C 9.294 12.522 5 16.59 5 16.6 C 5 16.6 9.42 20.798 15.049 21.235 L 15.981 22.971 L 16.913 21.235 L 16.913 21.234 Z M 5.932 16.599 C 5.932 16.599 9.986 13.831 14.155 13.126 L 13.493 14.267 L 14.011 15.279 L 15.414 12.977 C 15.606 12.967 15.798 12.957 15.981 12.957 C 16.163 12.957 16.355 12.967 16.538 12.977 L 17.912 15.279 L 18.44 14.218 L 17.806 13.116 C 21.976 13.811 26.03 16.52 26.03 16.589 C 26.03 16.669 21.774 19.507 17.499 20.112 L 19.583 16.202 L 19.017 15.22 L 17.931 17.244 L 16.441 20.211 C 16.279 20.221 16.125 20.221 15.961 20.221 C 15.798 20.221 15.635 20.221 15.471 20.211 L 13.445 16.222 L 13.455 16.212 L 12.935 15.24 L 12.369 16.222 L 14.453 20.122 C 10.178 19.507 5.923 16.599 5.932 16.599 Z"/>
</svg>
