<?xml version="1.0" encoding="utf-8"?>
<svg fill="#d1d1d1" height="32" viewBox="0 0 32 32" width="32" xmlns="http://www.w3.org/2000/svg">
  <path d="M 16 27 C 22.068 26.988 27 22.057 27 16 C 27 9.943 22.068 5.018 16 5 C 9.932 5.018 5 9.943 5 16 C 5 22.057 9.932 26.982 16 27 Z M 25.755 17.75 C 25.588 18.667 25.293 19.556 24.88 20.392 C 24.917 20.228 24.94 20.064 24.94 19.889 C 24.94 19.289 24.698 18.744 24.31 18.339 C 24.871 18.572 25.515 18.31 25.755 17.751 L 25.755 17.75 Z M 24.735 17.86 L 24.734 17.86 L 24.735 17.86 Z M 24.983 11.833 C 25.598 13.138 25.914 14.564 25.907 16.006 C 25.907 16.418 25.877 16.818 25.827 17.218 C 25.78 16.647 25.302 16.207 24.729 16.206 C 24.516 16.206 24.322 16.273 24.158 16.37 C 25.223 15.113 25.538 13.384 24.983 11.833 Z M 24.419 13.377 C 24.412 15.486 22.701 17.192 20.592 17.193 C 18.482 17.194 16.77 15.487 16.765 13.377 C 16.77 11.267 18.482 9.56 20.592 9.561 C 22.702 9.56 24.414 11.267 24.419 13.377 Z M 20.44 19.89 C 20.44 19.914 20.446 19.938 20.44 19.975 C 20.152 19.067 19.592 18.27 18.836 17.691 C 19.725 18.051 20.703 18.126 21.636 17.909 C 20.901 18.296 20.44 19.058 20.44 19.889 L 20.44 19.89 Z M 20.659 21.368 C 20.658 21.165 20.642 20.962 20.609 20.762 C 20.817 21.246 21.186 21.642 21.655 21.882 C 21.599 21.87 21.542 21.864 21.485 21.865 C 21.078 21.865 20.707 22.095 20.525 22.458 C 20.613 22.101 20.658 21.735 20.659 21.368 Z M 22.687 21.301 L 22.688 21.301 C 21.91 21.301 21.272 20.671 21.272 19.89 C 21.272 19.115 21.904 18.479 22.687 18.479 C 23.47 18.479 24.109 19.109 24.109 19.889 C 24.105 20.671 23.469 21.302 22.687 21.301 Z M 23.622 17.316 L 23.623 17.316 C 23.623 17.548 23.697 17.776 23.835 17.964 C 23.488 17.757 23.091 17.648 22.687 17.649 C 22.584 17.649 22.487 17.661 22.389 17.673 C 22.894 17.457 23.358 17.156 23.762 16.783 C 23.672 16.946 23.624 17.129 23.622 17.316 Z M 15.999 16.716 C 15.38 16.716 14.791 16.843 14.25 17.055 C 15.183 16.339 15.808 15.295 16 14.135 C 16.19 15.295 16.815 16.339 17.748 17.055 C 17.192 16.83 16.598 16.715 15.999 16.715 L 15.999 16.716 Z M 15.999 10.543 L 16 10.543 C 16.424 10.544 16.839 10.424 17.197 10.198 C 16.57 10.866 16.154 11.704 16 12.607 C 15.851 11.702 15.434 10.863 14.803 10.197 C 15.161 10.423 15.576 10.543 15.999 10.542 L 15.999 10.543 Z M 18.271 8.278 C 18.271 8.254 18.266 8.229 18.271 8.205 C 18.435 8.617 18.836 8.908 19.304 8.908 C 19.322 8.908 19.34 8.902 19.364 8.902 C 18.793 9.057 18.257 9.32 17.785 9.677 C 18.1 9.278 18.271 8.786 18.271 8.278 Z M 19.996 6.94 C 21.666 7.684 23.101 8.87 24.144 10.368 C 23.063 9.099 21.387 8.503 19.747 8.805 C 20.15 8.629 20.41 8.232 20.409 7.794 C 20.409 7.448 20.245 7.146 19.996 6.94 Z M 19.298 7.249 Z M 16.686 6.116 C 17.634 6.188 18.551 6.382 19.401 6.696 C 19.365 6.689 19.329 6.686 19.292 6.685 C 18.709 6.685 18.235 7.139 18.192 7.709 C 17.998 6.954 17.429 6.352 16.686 6.116 Z M 14.566 8.278 C 14.595 7.174 15.808 6.516 16.749 7.093 C 17.163 7.347 17.42 7.793 17.433 8.278 C 17.392 9.381 16.172 10.026 15.237 9.439 C 14.836 9.186 14.585 8.752 14.567 8.278 L 14.566 8.278 Z M 12.593 6.697 C 13.467 6.379 14.381 6.184 15.308 6.116 C 14.565 6.351 13.995 6.953 13.8 7.708 C 13.76 7.13 13.279 6.683 12.7 6.684 C 12.664 6.685 12.628 6.689 12.592 6.696 L 12.593 6.697 Z M 13.728 8.278 C 13.728 8.787 13.901 9.28 14.22 9.678 C 13.747 9.322 13.212 9.059 12.641 8.902 C 12.659 8.902 12.677 8.908 12.701 8.908 C 13.169 8.908 13.571 8.618 13.734 8.205 C 13.729 8.229 13.727 8.254 13.728 8.278 Z M 12.149 7.799 C 12.175 7.373 12.651 7.135 13.007 7.37 C 13.153 7.466 13.245 7.625 13.255 7.799 C 13.255 8.225 12.794 8.491 12.425 8.278 C 12.254 8.179 12.149 7.997 12.149 7.799 Z M 7.855 10.374 C 8.896 8.872 10.332 7.685 12.003 6.945 C 11.356 7.462 11.492 8.483 12.253 8.811 C 10.613 8.505 8.935 9.102 7.856 10.374 L 7.855 10.374 Z M 7.581 13.378 C 7.581 11.276 9.301 9.568 11.408 9.562 C 13.518 9.561 15.23 11.268 15.235 13.378 C 15.23 15.488 13.518 17.195 11.408 17.194 C 9.298 17.195 7.586 15.488 7.581 13.378 Z M 11.56 19.89 C 11.558 19.056 11.095 18.291 10.357 17.903 C 11.291 18.12 12.268 18.044 13.157 17.685 C 12.403 18.266 11.844 19.062 11.554 19.969 C 11.554 19.945 11.56 19.914 11.56 19.889 L 11.56 19.89 Z M 8.377 17.315 C 8.377 17.128 8.327 16.944 8.231 16.782 C 8.631 17.159 9.097 17.462 9.604 17.673 C 9.506 17.656 9.406 17.648 9.306 17.649 C 8.902 17.648 8.505 17.756 8.158 17.963 C 8.301 17.778 8.378 17.55 8.377 17.315 Z M 7.891 19.89 C 7.89 19.109 8.525 18.475 9.306 18.478 C 10.084 18.478 10.722 19.108 10.722 19.89 C 10.722 20.979 9.543 21.66 8.599 21.115 C 8.162 20.863 7.892 20.396 7.892 19.89 L 7.891 19.89 Z M 10.339 21.883 C 10.807 21.641 11.175 21.242 11.378 20.756 C 11.351 20.959 11.337 21.163 11.335 21.368 C 11.336 21.735 11.381 22.101 11.469 22.458 C 11.287 22.094 10.916 21.865 10.509 21.864 C 10.449 21.864 10.394 21.877 10.339 21.883 Z M 6.166 17.213 C 5.932 15.374 6.225 13.507 7.01 11.828 C 6.456 13.379 6.77 15.109 7.836 16.365 C 7.665 16.259 7.467 16.202 7.266 16.201 C 6.688 16.201 6.215 16.649 6.166 17.212 L 6.166 17.213 Z M 7.266 16.764 Z M 7.06 19.89 C 7.06 20.065 7.083 20.229 7.12 20.393 C 6.705 19.559 6.41 18.669 6.246 17.752 C 6.488 18.308 7.13 18.568 7.691 18.339 C 7.286 18.753 7.06 19.31 7.06 19.889 L 7.06 19.89 Z M 9.902 22.052 C 9.606 22.252 9.429 22.586 9.428 22.942 C 9.428 23.203 9.526 23.433 9.678 23.622 C 8.95 23.018 8.312 22.315 7.782 21.532 C 8.351 22.06 9.153 22.257 9.902 22.052 Z M 9.987 22.942 C 9.986 22.54 10.421 22.288 10.769 22.488 C 11.118 22.689 11.118 23.191 10.771 23.393 C 10.692 23.439 10.602 23.463 10.51 23.463 C 10.222 23.464 9.988 23.231 9.987 22.943 L 9.987 22.942 Z M 14.658 25.82 C 12.984 25.587 11.397 24.931 10.048 23.912 C 10.764 24.26 11.597 23.739 11.597 22.943 C 11.597 22.906 11.585 22.876 11.585 22.846 C 12.069 24.275 13.214 25.383 14.658 25.82 Z M 19.821 21.368 C 19.821 23.47 18.108 25.178 16 25.184 C 13.893 25.182 12.184 23.475 12.18 21.368 C 12.18 18.427 15.363 16.589 17.91 18.06 C 19.092 18.742 19.82 20.003 19.82 21.368 L 19.821 21.368 Z M 21.959 23.912 C 20.609 24.928 19.023 25.585 17.349 25.82 C 18.793 25.383 19.938 24.275 20.422 22.846 C 20.415 22.878 20.411 22.91 20.41 22.943 C 20.408 23.313 20.599 23.66 20.914 23.857 C 21.229 24.054 21.624 24.075 21.959 23.912 Z M 22.014 22.942 C 22.016 23.344 21.582 23.597 21.233 23.397 C 20.884 23.197 20.882 22.695 21.229 22.493 C 21.309 22.446 21.4 22.422 21.492 22.422 C 21.78 22.422 22.014 22.655 22.014 22.942 Z M 24.218 21.532 C 23.688 22.314 23.05 23.018 22.323 23.621 C 22.482 23.431 22.571 23.191 22.573 22.943 C 22.572 22.586 22.394 22.253 22.098 22.053 C 22.847 22.258 23.649 22.061 24.218 21.532 Z"/>
</svg>
