<?xml version="1.0" encoding="utf-8"?>
<svg fill="#d1d1d1" viewBox="0 0 32 32" xmlns="http://www.w3.org/2000/svg">
  <path d="M 13.3 15.02 C 15.55 15.02 16.615 15.455 18.864 15.455 C 21.911 15.455 24 14.211 24 11.636 C 24 9.062 22.26 7.818 19.72 7.818 C 15.572 7.818 12.088 10.983 11.636 15.164 C 12.185 15.066 12.742 15.018 13.3 15.021 L 13.3 15.02 Z M 13.136 16.545 C 10.089 16.545 8 17.79 8 20.364 C 8 22.938 9.74 24.182 12.28 24.182 C 16.428 24.182 19.912 21.017 20.364 16.836 C 19.815 16.935 19.258 16.983 18.7 16.98 C 16.45 16.98 15.385 16.545 13.136 16.545 Z"/>
</svg>
