<?xml version="1.0" encoding="utf-8"?>
<svg fill="#d1d1d1" width="32" height="32" viewBox="0 0 32 32" xmlns="http://www.w3.org/2000/svg">
  <path d="M 25.396 9 L 21.203 9 C 20.131 9 19.211 9.451 18.443 10.347 L 13.971 16.054 L 11.091 19.724 C 10.971 19.873 10.791 19.961 10.599 19.964 L 6.619 19.964 C 6.589 19.96 6.559 19.973 6.541 19.998 C 6.524 20.02 6.515 20.047 6.516 20.075 L 6.516 22.905 C 6.519 22.927 6.527 22.948 6.541 22.965 C 6.56 22.989 6.589 23.001 6.619 22.999 L 10.816 22.999 C 11.888 22.999 12.808 22.545 13.576 21.64 L 16.016 18.532 L 18.456 21.64 C 19.219 22.545 20.131 23 21.203 23 L 25.393 23 C 25.423 23.003 25.453 22.99 25.47 22.965 C 25.487 22.943 25.496 22.916 25.495 22.888 L 25.495 20.088 C 25.497 20.056 25.488 20.024 25.47 19.998 C 25.451 19.974 25.422 19.962 25.392 19.964 L 21.412 19.964 C 21.228 19.965 21.053 19.883 20.936 19.741 L 17.991 15.989 L 20.924 12.264 C 21.042 12.111 21.224 12.023 21.417 12.024 L 25.397 12.024 C 25.427 12.027 25.457 12.014 25.474 11.989 C 25.491 11.967 25.5 11.94 25.499 11.912 L 25.499 9.08 C 25.497 9.06 25.488 9.042 25.474 9.027 C 25.453 9.008 25.424 8.998 25.396 9.001 L 25.396 9 Z M 10.825 9 L 6.619 9 C 6.586 8.997 6.554 9.01 6.533 9.035 C 6.512 9.055 6.5 9.083 6.5 9.112 L 6.5 11.912 C 6.5 11.942 6.512 11.968 6.533 11.989 C 6.557 12.01 6.587 12.023 6.619 12.023 L 10.599 12.023 C 10.792 12.023 10.973 12.109 11.092 12.263 L 12.603 14.197 L 14.595 11.663 L 13.572 10.36 C 12.8 9.455 11.884 9 10.825 9 Z"/>
</svg>
