<?xml version="1.0" encoding="utf-8"?>
<svg fill="#d1d1d1" width="32" height="32" viewBox="0 0 32 32" xmlns="http://www.w3.org/2000/svg">
  <path d="M 16 4 C 9.373 4 4 9.373 4 16 C 4 22.627 9.373 28 16 28 C 22.627 28 28 22.627 28 16 C 28 9.373 22.627 4 16 4 Z M 18.743 26.236 C 10.861 28.336 3.661 21.117 5.783 13.241 C 6.851 9.279 10.109 6.29 14.148 5.567 C 22.181 4.148 28.738 11.957 25.951 19.623 C 24.77 22.871 22.08 25.339 18.743 26.236 Z M 18.931 7.286 C 18.931 7.804 18.931 8.32 18.949 8.838 C 18.258 8.569 17.538 8.38 16.804 8.275 C 16.774 7.806 16.908 7.291 16.771 6.846 C 16.248 6.809 15.723 6.802 15.199 6.827 C 15.173 7.309 15.182 7.793 15.199 8.277 C 14.464 8.387 13.744 8.579 13.053 8.851 C 13.067 8.329 13.073 7.808 13.066 7.285 C 6.354 9.545 4.606 18.223 9.919 22.906 C 10.837 23.715 11.907 24.333 13.066 24.723 C 13.066 24.211 13.061 23.701 13.051 23.191 C 13.737 23.46 14.453 23.644 15.184 23.74 C 15.184 24.209 15.184 24.678 15.156 25.142 C 15.716 25.222 16.284 25.222 16.844 25.142 C 16.818 24.68 16.805 24.218 16.804 23.755 C 17.535 23.652 18.253 23.47 18.944 23.211 C 18.928 23.718 18.928 24.224 18.944 24.731 C 25.654 22.466 27.396 13.786 22.079 9.107 C 21.161 8.3 20.092 7.684 18.933 7.294 L 18.931 7.287 L 18.931 7.286 Z M 20.299 21.222 C 19.092 22.317 17.376 22.576 15.799 22.553 C 14.418 22.553 12.953 22.178 11.954 21.177 C 11.424 20.665 11.124 19.981 10.855 19.302 C 11.821 19.052 12.818 18.968 13.791 18.76 C 13.914 19.359 14.348 19.846 14.929 20.037 C 15.812 20.313 16.906 20.352 17.642 19.722 C 18.164 19.289 18.179 18.342 17.532 18.017 C 16.015 17.234 14.125 17.5 12.691 16.508 C 10.716 15.263 10.57 11.961 12.503 10.617 C 13.981 9.58 15.957 9.451 17.671 9.867 C 19.221 10.259 20.326 11.573 20.858 13.028 C 19.904 13.193 18.951 13.362 17.997 13.523 C 17.746 12.008 15.625 11.648 14.571 12.531 C 13.971 13.03 14.125 14.093 14.875 14.359 C 16.515 15.039 18.485 14.843 19.938 15.981 C 21.625 17.125 21.801 19.857 20.299 21.221 L 20.299 21.222 Z"/>
</svg>
