<?xml version="1.0" encoding="utf-8"?>
<svg fill="#d1d1d1" width="32" height="32" viewBox="0 0 32 32" xmlns="http://www.w3.org/2000/svg">
  <path d="M 24.706 19.517 L 10.34 19.517 C 10.185 19.517 10.036 19.578 9.925 19.687 L 7.087 22.502 C 6.928 22.659 6.998 22.93 7.215 22.99 C 7.24 22.997 7.267 23 7.294 23 L 21.66 23 C 21.815 23 21.964 22.939 22.075 22.83 L 24.913 20.014 C 25.072 19.856 24.999 19.585 24.783 19.527 C 24.758 19.52 24.732 19.517 24.706 19.517 Z M 21.66 14.225 L 7.294 14.225 L 7.226 14.232 C 7.008 14.282 6.926 14.55 7.078 14.714 C 7.081 14.717 7.083 14.719 7.086 14.722 L 9.926 17.538 L 9.996 17.598 C 10.096 17.668 10.216 17.708 10.34 17.708 L 24.706 17.708 L 24.774 17.701 C 24.992 17.651 25.074 17.383 24.922 17.219 C 24.919 17.216 24.917 17.214 24.914 17.211 L 22.074 14.395 L 22.004 14.335 C 21.904 14.263 21.783 14.225 21.66 14.225 Z M 24.706 9 L 10.34 9 C 10.185 9 10.036 9.061 9.925 9.17 L 7.087 11.986 C 6.928 12.144 7.001 12.415 7.217 12.473 C 7.242 12.48 7.268 12.483 7.294 12.483 L 21.66 12.483 C 21.815 12.483 21.964 12.422 22.075 12.313 L 24.913 9.498 C 25.072 9.341 25.002 9.07 24.785 9.01 C 24.76 9.003 24.733 9 24.706 9 Z"/>
</svg>
