<?xml version="1.0" encoding="utf-8"?>
<svg fill="#d1d1d1" width="32" height="32" viewBox="0 0 32 32" xmlns="http://www.w3.org/2000/svg">
  <path d="M 16.034 4.502 L 15.774 4.548 C 15.341 4.622 15.362 4.613 14.334 5.224 C 13.703 5.599 6.9 9.604 6.794 9.677 C 6.51 9.873 6.142 10.434 6.091 10.747 C 6.078 10.827 6.053 10.902 6.034 10.914 C 6.014 10.927 6.004 12.444 6.001 14.304 L 6.001 16.134 C 6.004 18.614 6.019 21.058 6.045 21.132 L 6.163 21.466 C 6.299 21.854 6.623 22.25 6.963 22.446 C 7.049 22.495 14.639 26.966 14.639 26.966 C 15.769 27.635 16.239 27.663 17.162 27.12 C 18.008 26.622 23.707 23.265 23.707 23.265 C 25.512 22.228 25.683 22.085 25.924 21.403 L 26 21.191 L 25.998 10.826 L 25.924 10.61 C 25.744 10.08 25.454 9.765 24.81 9.392 C 24.571 9.254 16.985 4.78 16.969 4.762 C 16.909 4.694 16.133 4.477 16.034 4.502 Z M 11.807 9.562 C 11.841 9.594 11.86 16.548 11.86 16.548 C 11.864 18.713 11.88 19.058 11.952 19.258 L 11.989 19.346 C 12.179 19.757 12.382 19.94 13.113 20.358 C 13.298 20.464 14.325 21.066 14.346 21.066 C 14.356 21.066 14.382 17.368 14.382 17.368 L 17.74 17.351 L 17.724 23.971 L 17.258 24.245 C 16.238 24.844 15.808 24.831 14.686 24.17 C 14.686 24.17 9.723 21.24 9.578 21.154 C 8.93 20.774 8.648 20.435 8.488 19.849 C 8.398 19.513 8.384 12.578 8.473 12.214 C 8.593 11.725 8.887 11.293 9.273 11.038 C 9.667 10.777 11.748 9.564 11.803 9.563 L 11.807 9.563 L 11.807 9.562 Z M 16.604 7.431 C 16.8 7.498 18.493 8.478 22.03 10.573 C 23.045 11.174 23.178 11.287 23.44 11.767 L 23.51 11.899 C 23.62 12.122 23.647 12.351 23.65 13.845 L 23.65 14.596 L 23.645 16.09 L 23.636 19.735 L 23.564 19.939 C 23.46 20.238 23.293 20.51 23.074 20.739 C 22.897 20.917 22.791 20.985 21.622 21.671 C 21.44 21.778 20.299 22.445 20.289 22.436 C 20.28 22.426 20.258 13.062 20.258 13.062 L 20.189 12.87 C 19.99 12.312 19.842 12.176 18.688 11.495 L 17.756 10.945 L 17.74 12.825 L 17.724 14.705 L 14.382 14.705 L 14.366 8.021 L 14.763 7.789 C 15.581 7.31 16.011 7.226 16.604 7.431 Z"/>
</svg>
