<?xml version="1.0" encoding="utf-8"?>
<svg fill="#d1d1d1" height="32" viewBox="0 0 32 32" width="32" xmlns="http://www.w3.org/2000/svg">
  <path d="M 8.459 22.141 L 9.244 24.671 L 10.656 24.246 L 10.612 24.103 L 12.111 26.292 L 13.335 25.478 L 13.231 25.328 L 15.328 27 L 16.258 25.87 L 16.097 25.742 L 18.637 26.702 L 19.166 25.344 L 19.031 25.294 L 21.685 25.476 L 21.788 24.026 L 21.583 24.011 L 24.235 23.408 L 23.902 21.991 L 23.662 22.046 L 26.06 20.681 L 25.322 19.421 L 25.092 19.553 L 27 17.537 L 25.92 16.545 L 25.74 16.735 L 26.97 14.253 L 25.642 13.615 L 25.535 13.833 L 25.971 11.121 L 24.512 10.893 L 24.482 11.083 L 24.052 8.411 L 22.594 8.639 L 22.604 8.704 L 21.46 6.39 L 20.133 7.028 L 20.171 7.104 L 18.385 5.218 L 17.305 6.21 L 17.395 6.304 L 15.101 5 L 14.363 6.26 L 14.528 6.354 L 11.899 5.756 L 11.567 7.173 L 11.816 7.229 L 9.064 7.419 L 9.166 8.869 L 9.474 8.849 L 6.845 9.843 L 7.375 11.201 L 7.655 11.094 L 5.455 12.85 L 6.384 13.98 L 6.529 13.864 L 5 16.098 L 6.224 16.911 L 6.322 16.767 L 5.525 19.337 L 6.936 19.763 L 6.982 19.615 L 6.982 22.282 L 8.46 22.282 L 8.459 22.141 Z M 8.459 20.413 L 8.459 17.983 L 7.489 17.983 L 8.212 15.652 L 7.279 15.37 L 8.664 13.347 L 7.853 12.808 L 9.775 11.275 L 9.159 10.525 L 11.448 9.66 L 11.088 8.737 L 13.52 8.57 L 13.45 7.601 L 15.82 8.14 L 16.037 7.212 L 18.142 8.409 L 18.618 7.597 L 20.281 9.354 L 20.971 8.721 L 22.045 10.891 L 22.891 10.485 L 23.277 12.885 L 24.216 12.738 L 23.83 15.139 L 24.812 15.293 L 23.729 17.479 L 24.627 17.911 L 22.944 19.689 L 23.674 20.359 L 21.544 21.571 L 22.038 22.415 L 19.651 22.958 L 19.87 23.893 L 17.434 23.725 L 17.368 24.665 L 15.092 23.804 L 14.754 24.671 L 12.866 23.164 L 12.257 23.904 L 10.895 21.914 L 10.097 22.444 L 9.381 20.135 L 8.459 20.413 Z M 15.709 17.688 C 15.721 18.001 15.575 18.299 15.32 18.481 C 15.06 18.667 14.7 18.76 14.238 18.76 C 12.995 18.76 12.373 18.238 12.373 17.195 L 10.423 17.195 C 10.423 17.805 10.579 18.342 10.89 18.805 C 11.205 19.268 11.66 19.635 12.256 19.903 C 12.881 20.173 13.557 20.308 14.238 20.299 C 15.283 20.299 16.114 20.067 16.732 19.604 C 17.349 19.136 17.658 18.494 17.658 17.675 C 17.658 16.94 17.406 16.325 16.9 15.831 C 16.395 15.338 15.59 14.924 14.484 14.591 C 13.884 14.409 13.429 14.214 13.118 14.007 C 12.811 13.799 12.658 13.541 12.658 13.234 C 12.658 12.905 12.79 12.641 13.053 12.442 C 13.316 12.238 13.686 12.137 14.161 12.137 C 14.653 12.137 15.035 12.257 15.307 12.5 C 15.579 12.738 15.715 13.074 15.715 13.507 L 17.658 13.507 C 17.666 12.968 17.513 12.438 17.218 11.987 C 16.918 11.532 16.493 11.174 15.994 10.955 C 15.467 10.708 14.867 10.585 14.193 10.585 C 13.523 10.585 12.919 10.697 12.379 10.922 C 11.844 11.147 11.432 11.462 11.142 11.864 C 10.857 12.261 10.708 12.739 10.715 13.228 C 10.715 14.21 11.25 14.992 12.321 15.572 C 12.714 15.784 13.247 16 13.921 16.221 C 14.595 16.437 15.061 16.645 15.32 16.844 C 15.58 17.039 15.709 17.32 15.709 17.688 Z M 21.639 11.89 L 19.39 11.57 L 18.223 18.634 L 19.766 18.742 L 21.639 11.89 Z M 20.005 19.456 L 17.937 18.956 L 17.466 21.278 L 19.518 21.877 L 20.005 19.456 Z" fill-rule="evenodd"/>
</svg>
