<?xml version="1.0" encoding="utf-8"?>
<svg fill="#d1d1d1" viewBox="0 0 32 32" xmlns="http://www.w3.org/2000/svg">
  <path d="M 6 12.391 L 14.417 12.391 L 14.417 12.035 L 6 12.035 L 6 12.391 Z M 6 11.356 L 14.417 11.356 L 14.417 11 L 6 11 L 6 11.356 Z M 9.55 21.996 L 9.888 21.996 L 9.888 13.103 L 9.55 13.103 L 9.55 21.996 Z M 10.53 21.996 L 10.867 21.996 L 10.867 13.103 L 10.53 13.103 L 10.53 21.996 Z M 25.762 21.268 L 26 21.016 L 22.202 17.004 L 21.964 17.255 L 25.762 21.268 Z M 16.519 11 L 16.281 11.252 L 20.079 15.264 L 20.317 15.013 L 16.519 11 Z M 25.069 22 L 25.307 21.748 L 21.509 17.735 L 21.271 17.987 L 25.069 22 Z M 15.827 11.732 L 15.588 11.984 L 19.386 15.996 L 19.625 15.744 L 15.827 11.732 Z M 25.762 11.732 L 16.281 21.748 L 16.519 22 L 26 11.984 L 25.762 11.732 Z M 25.07 11 L 15.588 21.016 L 15.827 21.268 L 25.307 11.252 L 25.07 11 Z" fill-rule="evenodd"/>
</svg>
