<?xml version="1.0" encoding="utf-8"?>
<svg fill="#d1d1d1" viewBox="0 0 32 32" xmlns="http://www.w3.org/2000/svg">
  <path d="M 15.715 13.433 C 15.471 14.368 14.92 14.743 14.736 14.867 C 14.736 15.179 15.165 16.988 16.021 16.988 C 16.633 16.988 17.184 16.427 17.367 14.868 C 17.061 14.618 16.756 14.057 16.572 13.433 C 16.327 13.495 16.022 13.558 15.715 13.433 Z M 14.797 18.922 C 14.92 19.421 15.287 20.668 16.082 20.668 C 16.633 20.668 17.245 19.982 17.367 18.984 C 16.939 18.734 16.756 18.174 16.572 17.3 C 16.327 17.362 15.96 17.425 15.715 17.3 C 15.409 18.11 15.165 18.61 14.797 18.922 Z M 9.902 20.855 C 10.208 21.355 10.82 22.165 11.493 21.853 C 11.677 21.791 11.738 21.292 11.677 20.855 C 11.187 20.543 10.881 19.982 10.514 19.109 C 10.392 19.171 10.208 19.171 10.024 19.109 C 10.147 20.044 10.147 20.543 9.902 20.855 Z M 7.332 19.171 C 7.577 20.543 7.638 20.668 7.577 20.855 C 8.005 21.666 8.434 22.04 8.984 21.978 C 9.168 21.978 9.046 21.479 8.801 20.98 C 8.801 20.98 8.067 20.356 7.638 19.234 C 7.516 19.171 7.455 19.171 7.332 19.171 Z M 5.68 19.171 C 5.68 18.984 6.109 20.169 6.66 20.731 C 6.904 20.918 7.149 21.105 7.394 21.541 C 7.454 21.666 6.292 21.791 5.68 19.171 Z M 13.145 20.855 C 13.451 21.978 14.308 21.978 14.614 21.853 C 15.042 21.791 15.226 21.417 15.287 20.731 C 14.737 20.356 14.553 19.545 14.43 18.984 C 14.247 19.046 13.94 19.046 13.696 18.984 C 13.635 19.857 13.574 20.544 13.146 20.855 L 13.145 20.855 Z M 7.883 18.922 C 8.128 19.545 8.863 20.731 9.413 20.731 C 9.658 20.731 9.78 20.294 9.658 18.984 C 9.29 18.734 8.984 18.236 8.801 17.424 C 8.679 17.487 8.434 17.487 8.251 17.424 C 8.189 18.111 8.128 18.61 7.883 18.922 Z M 5.986 18.922 C 6.17 19.421 6.598 20.482 7.149 20.668 C 7.394 20.793 7.394 20.418 7.088 18.984 C 7.088 18.984 6.659 18.61 6.353 17.424 L 6.11 17.424 C 6.056 17.922 6.015 18.422 5.987 18.922 L 5.986 18.922 Z M 10.881 18.922 C 10.943 19.172 11.554 20.419 12.289 20.606 C 13.145 20.793 13.207 19.67 13.207 18.984 C 12.778 18.734 12.472 18.236 12.289 17.424 C 12.105 17.487 11.799 17.549 11.493 17.424 C 11.371 18.236 11.187 18.672 10.881 18.922 Z M 10.331 18.735 C 10.698 18.735 11.004 18.173 11.126 17.113 C 10.82 16.801 10.453 16.24 10.392 14.93 C 10.208 14.992 10.025 14.992 9.902 14.93 C 9.719 16.115 9.535 16.801 9.168 17.175 C 9.168 17.549 9.596 18.735 10.331 18.735 Z M 6.537 17.175 C 6.843 18.423 7.149 18.735 7.394 18.735 C 7.944 18.735 7.822 17.799 7.884 17.113 C 7.699 16.863 7.332 16.24 7.332 14.93 L 7.026 14.93 C 6.659 16.863 6.659 16.926 6.536 17.175 L 6.537 17.175 Z M 5.313 14.992 C 5.191 14.93 4.579 17.549 5.497 18.672 C 5.619 18.797 5.619 17.238 5.619 17.238 C 5.374 16.676 5.497 15.055 5.313 14.992 Z M 12.656 17.175 C 12.717 17.362 13.084 18.735 14.063 18.735 C 14.675 18.735 15.165 18.048 15.287 17.05 C 14.797 16.552 14.553 15.865 14.43 14.93 C 14.247 14.992 13.94 14.992 13.696 14.93 C 13.329 16.177 13.084 16.863 12.656 17.175 Z M 7.638 14.743 C 7.699 15.865 7.944 16.988 8.434 16.988 C 8.984 16.988 9.229 15.741 9.413 14.68 C 9.229 14.556 8.984 14.181 8.984 13.37 C 8.845 13.494 8.634 13.494 8.495 13.37 C 8.434 13.495 8.128 14.556 7.638 14.743 Z M 6.108 17.05 C 6.415 17.05 6.72 14.743 6.72 14.743 C 6.598 14.556 6.476 14.181 6.537 13.37 C 6.476 13.433 6.353 13.37 6.292 13.37 C 6.148 13.852 5.942 14.314 5.68 14.743 C 5.558 15.429 5.68 17.05 6.109 17.05 L 6.108 17.05 Z M 10.759 14.743 C 10.82 15.491 11.187 16.988 11.922 16.988 C 12.717 16.988 13.084 15.865 13.268 14.743 C 12.839 14.493 12.656 14.057 12.533 13.37 C 12.227 13.433 11.983 13.433 11.738 13.308 C 11.493 13.932 11.004 14.618 10.759 14.743 Z M 11.309 13.059 C 11.126 12.809 10.881 12.372 11.004 11.437 L 10.575 11.437 C 10.269 12.061 9.902 12.809 9.413 13.183 C 9.413 13.308 9.474 14.618 10.086 14.618 C 10.576 14.618 10.943 14.057 11.31 13.058 L 11.309 13.059 Z M 8.311 11.499 L 8.067 11.499 C 8.067 11.562 7.271 12.996 6.904 13.246 C 6.782 13.869 6.782 14.618 7.149 14.68 C 7.516 14.68 7.761 14.368 8.25 13.12 C 8.128 12.81 8.005 12.372 8.311 11.5 L 8.311 11.499 Z M 6.537 11.562 C 5.619 12.185 5.13 14.431 5.374 14.493 C 5.435 14.556 6.17 13.495 6.109 12.871 C 6.047 12.435 6.72 11.499 6.537 11.561 L 6.537 11.562 Z M 15.226 13.059 C 14.981 12.809 14.676 12.372 14.553 11.437 C 14.333 11.499 14.1 11.499 13.88 11.437 C 13.696 11.998 13.39 12.747 12.778 13.183 C 12.901 13.807 13.207 14.556 13.758 14.618 C 14.798 14.618 15.042 13.745 15.226 13.058 L 15.226 13.059 Z M 6.904 11.374 C 6.292 12.31 6.292 13.121 6.537 13.121 C 6.843 13.121 7.699 11.561 7.883 11.25 C 7.822 10.938 8.495 10.314 8.25 10.252 C 7.822 10.252 7.026 11.312 6.904 11.374 Z M 21.957 19.109 C 21.773 19.171 21.589 19.171 21.467 19.109 C 21.222 19.919 20.855 20.543 20.304 20.855 C 20.244 21.292 20.244 21.791 20.488 21.853 C 21.161 22.103 21.834 21.354 22.079 20.855 C 21.895 20.543 21.895 20.045 21.957 19.109 Z M 24.404 19.109 C 23.976 20.232 23.242 20.855 23.242 20.855 C 22.936 21.417 22.813 21.853 23.058 21.853 C 23.608 21.853 24.037 21.541 24.465 20.731 C 24.405 20.543 24.465 20.419 24.71 19.046 C 24.588 19.171 24.465 19.171 24.404 19.109 Z M 25.384 20.731 C 25.934 20.169 26.301 18.984 26.424 19.171 C 25.812 21.791 24.649 21.666 24.71 21.541 C 24.894 21.105 25.138 20.98 25.383 20.731 L 25.384 20.731 Z M 18.346 19.109 C 18.102 19.171 17.856 19.171 17.612 19.109 C 17.49 19.67 17.245 20.419 16.756 20.855 C 16.878 21.479 17 21.853 17.429 21.978 C 17.735 22.04 18.591 22.04 18.897 20.98 C 18.53 20.543 18.347 19.857 18.347 19.109 L 18.346 19.109 Z M 23.853 17.362 C 23.682 17.458 23.474 17.458 23.303 17.362 C 23.119 18.048 22.813 18.672 22.446 18.922 C 22.324 20.232 22.446 20.668 22.691 20.668 C 23.181 20.668 23.976 19.483 24.221 18.859 C 23.915 18.609 23.853 18.111 23.853 17.362 Z M 26.056 17.487 L 25.812 17.487 C 25.506 18.61 25.077 19.047 25.077 19.047 C 24.771 20.419 24.71 20.793 25.017 20.731 C 25.506 20.543 25.934 19.483 26.179 18.984 C 26.056 18.797 26.056 17.986 26.056 17.487 Z M 20.61 17.362 C 20.304 17.487 19.999 17.425 19.815 17.362 C 19.631 18.111 19.325 18.672 18.897 18.922 C 18.897 19.545 18.958 20.731 19.815 20.543 C 20.488 20.419 21.161 19.171 21.222 18.859 C 20.855 18.672 20.732 18.236 20.61 17.362 Z M 22.936 17.175 C 22.63 16.801 22.446 16.053 22.201 14.93 C 22.044 14.992 21.868 14.992 21.711 14.93 C 21.651 16.24 21.284 16.863 20.978 17.113 C 21.1 18.111 21.406 18.735 21.773 18.735 C 22.385 18.735 22.874 17.549 22.936 17.175 Z M 25.077 14.93 C 24.955 14.93 24.894 14.992 24.771 14.93 C 24.771 16.24 24.465 16.863 24.221 17.113 C 24.281 17.737 24.159 18.735 24.711 18.735 C 24.955 18.735 25.261 18.36 25.567 17.175 C 25.444 16.925 25.383 16.863 25.077 14.93 Z M 26.362 17.175 C 26.362 17.175 26.362 18.735 26.485 18.61 C 27.402 17.612 26.852 14.867 26.668 14.93 C 26.546 15.055 26.668 16.676 26.362 17.175 Z M 18.53 14.93 C 18.224 14.992 17.918 14.992 17.796 14.93 C 17.673 15.865 17.367 16.552 16.939 17.05 C 17.123 17.986 17.489 18.797 18.163 18.735 C 19.02 18.735 19.509 17.362 19.57 17.175 C 19.02 16.863 18.714 16.177 18.53 14.93 Z M 23.609 13.37 C 23.448 13.482 23.241 13.506 23.058 13.433 C 23.058 14.181 22.813 14.618 22.63 14.805 C 22.813 15.928 23.058 17.113 23.609 17.113 C 24.099 17.113 24.404 15.928 24.404 14.867 C 23.976 14.556 23.609 13.495 23.609 13.37 Z M 26.362 14.743 C 26.362 14.743 26.056 14.181 25.812 13.37 C 25.742 13.433 25.637 13.433 25.567 13.37 C 25.628 14.057 25.506 14.493 25.383 14.68 C 25.383 14.68 25.689 16.988 25.995 16.988 C 26.301 17.05 26.423 15.428 26.362 14.743 Z M 20.366 13.37 C 20.121 13.495 19.815 13.495 19.57 13.433 C 19.509 14.057 19.264 14.556 18.897 14.805 C 19.081 15.99 19.325 17.113 20.243 17.05 C 20.916 17.05 21.345 15.554 21.406 14.805 C 21.039 14.618 20.61 13.932 20.366 13.37 Z M 21.896 14.556 C 22.507 14.556 22.568 13.308 22.568 13.121 C 22.14 12.809 21.773 12.123 21.406 11.437 C 21.284 11.499 21.161 11.499 20.978 11.437 C 21.1 12.31 20.916 12.809 20.672 13.059 C 21.1 14.057 21.467 14.618 21.895 14.556 L 21.896 14.556 Z M 23.853 13.059 C 24.282 14.306 24.527 14.618 24.833 14.618 C 25.2 14.556 25.2 13.869 25.077 13.183 C 24.771 12.996 23.915 11.499 23.915 11.437 L 23.67 11.437 C 24.037 12.372 23.915 12.809 23.853 13.059 Z M 25.933 12.871 C 25.873 13.433 26.546 14.556 26.607 14.493 C 26.791 14.431 26.423 12.185 25.444 11.562 C 25.384 11.499 25.995 12.435 25.934 12.872 L 25.933 12.871 Z M 18.163 14.556 C 18.775 14.493 19.081 13.869 19.142 13.121 C 18.652 12.747 18.346 11.998 18.162 11.437 C 17.942 11.499 17.71 11.499 17.49 11.437 C 17.429 12.31 17.123 12.871 16.817 13.059 C 17 13.745 17.245 14.618 18.163 14.556 Z M 23.853 10.252 C 23.609 10.252 24.282 10.938 24.221 11.25 C 24.404 11.562 25.2 13.12 25.567 13.12 C 25.812 13.12 25.812 12.372 25.138 11.374 C 25.078 11.312 24.159 10.252 23.853 10.252 Z M 10.269 10.439 C 10.269 10.439 10.392 10.127 10.209 10.065 C 9.902 10.065 9.046 11.25 8.679 11.437 C 8.617 11.562 8.128 12.997 8.739 13.121 C 9.29 13.183 9.902 12.123 10.269 11.374 C 10.086 11.187 10.147 10.814 10.269 10.439 Z M 13.145 10.377 C 13.145 10.314 13.145 10.002 12.839 10.002 C 12.472 10.002 11.983 11.187 11.432 11.374 C 11.31 12.061 11.432 12.996 11.982 13.059 C 12.778 13.121 13.268 12.123 13.512 11.374 C 13.207 11.187 13.145 10.751 13.145 10.377 Z M 21.835 11.374 C 22.201 12.061 22.752 13.184 23.364 13.121 C 23.976 12.996 23.486 11.561 23.425 11.437 C 23.058 11.25 22.201 10.065 21.895 10.065 C 21.712 10.065 21.835 10.377 21.835 10.439 C 21.957 10.813 21.957 11.187 21.835 11.374 Z M 18.591 11.374 C 18.836 12.061 19.264 13.184 20.121 13.059 C 20.733 12.996 20.855 12.185 20.671 11.374 C 20.182 11.187 19.571 9.94 19.264 10.002 C 18.958 10.002 18.958 10.314 18.958 10.377 C 18.898 10.751 18.836 11.187 18.591 11.374 Z M 16.021 10.002 C 15.348 10.002 15.593 11.125 14.859 11.437 C 14.919 11.998 15.103 13.121 15.96 13.121 C 16.94 13.121 17.123 11.749 17.123 11.437 C 16.633 11.187 16.633 10.002 16.021 10.002 Z" fill-rule="evenodd"/>
</svg>
