<?xml version="1.0" encoding="utf-8"?>
<svg fill="#d1d1d1" width="32" height="32" viewBox="0 0 32 32" xmlns="http://www.w3.org/2000/svg">
  <path d="M 16.566 5 C 16.747 6.472 16.826 7.966 16.951 9.438 C 17.023 9.883 17.061 10.334 17.064 10.785 L 20.891 14.6 C 19.215 17 17.494 19.389 15.819 21.8 C 15.989 23.725 16.136 25.65 16.329 27.574 L 27.899 11.181 L 22.759 11.181 C 20.699 9.121 18.649 7.049 16.577 5 L 16.566 5 Z M 4.011 21.46 L 4 21.46 L 4 21.506 C 5.72 21.472 7.442 21.506 9.162 21.483 L 15.309 27.642 L 15.332 27.642 C 15.14 25.706 14.992 23.758 14.822 21.834 C 13.543 20.577 12.287 19.298 11.03 18.042 C 12.717 15.642 14.415 13.264 16.102 10.852 L 15.615 5.057 C 11.743 10.525 7.895 16.004 4.011 21.46 Z"/>
</svg>
