<?xml version="1.0" encoding="utf-8"?>
<svg fill="#d1d1d1" viewBox="0 0 32 32" xmlns="http://www.w3.org/2000/svg">
  <path d="M 21.069 18.89 C 21.083 17.457 20.462 16.424 19.224 15.806 C 18.762 15.576 18.268 15.412 17.787 15.222 C 16.997 14.91 16.157 14.694 15.429 14.27 C 14.285 13.604 14.291 12.022 15.367 11.244 C 16.131 10.691 16.999 10.678 17.879 10.715 C 18.884 10.758 19.836 11.048 20.784 11.367 C 21.338 11.553 21.628 11.38 21.766 10.798 C 21.84 10.489 21.896 10.175 21.954 9.862 C 22.051 9.339 22.031 9.282 21.528 9.126 C 20.86 8.913 20.185 8.724 19.504 8.56 C 19.146 8.477 19.036 8.31 19.099 7.95 C 19.154 7.637 19.169 7.317 19.199 7 C 19.267 6.276 19.189 6.17 18.495 6.027 C 18.082 5.943 17.937 6.045 17.877 6.493 C 17.822 6.897 17.787 7.303 17.742 7.708 C 17.67 8.338 17.644 8.349 17.035 8.331 C 16.768 8.323 16.688 8.206 16.717 7.951 C 16.753 7.647 16.778 7.343 16.807 7.038 C 16.881 6.257 16.791 6.138 16.039 6.015 C 15.685 5.957 15.537 6.063 15.491 6.442 C 15.431 6.935 15.352 7.43 15.346 7.925 C 15.339 8.382 15.155 8.596 14.748 8.75 C 13.221 9.328 12.192 10.418 11.875 12.099 C 11.594 13.589 11.817 14.986 13.093 15.93 C 13.662 16.35 14.346 16.62 15.004 16.887 C 15.744 17.188 16.534 17.364 17.268 17.679 C 18.161 18.062 18.438 18.832 18.129 19.784 C 17.92 20.424 17.504 20.872 16.938 21.177 C 16.081 21.638 15.152 21.7 14.213 21.677 C 13.173 21.652 12.172 21.417 11.198 21.033 C 10.648 20.817 10.36 20.997 10.236 21.593 C 10.164 21.941 10.106 22.293 10.022 22.639 C 9.956 22.91 10.036 23.092 10.28 23.189 C 10.68 23.347 11.079 23.519 11.49 23.643 C 12.415 23.922 12.418 23.911 12.292 24.914 C 12.192 25.723 12.248 25.807 13.012 25.972 C 13.37 26.05 13.525 25.958 13.587 25.586 C 13.647 25.223 13.682 24.854 13.717 24.486 C 13.741 24.23 13.85 24.101 14.111 24.088 C 14.691 24.059 14.778 24.146 14.708 24.754 L 14.684 24.944 C 14.59 25.684 14.666 25.798 15.372 25.966 C 15.782 26.064 15.935 25.962 15.998 25.516 C 16.052 25.139 16.091 24.758 16.118 24.376 C 16.141 24.073 16.292 23.936 16.569 23.866 C 17.033 23.75 17.499 23.626 17.947 23.456 C 19.857 22.729 21.056 20.964 21.069 18.891 L 21.069 18.89 Z" fill-rule="evenodd"/>
</svg>
