<?xml version="1.0" encoding="utf-8"?>
<svg fill="#d1d1d1" viewBox="0 0 32 32" xmlns="http://www.w3.org/2000/svg">
  <path fill-rule="evenodd" d="M 24.977 18.971 C 24.904 18.93 24.828 18.894 24.75 18.865 L 24.75 13.247 C 24.839 13.217 24.928 13.169 25.017 13.131 C 25.937 12.626 26.273 11.481 25.759 10.579 C 25.182 9.582 23.868 9.306 22.939 9.987 L 17.895 7.125 C 17.905 7.037 17.915 6.96 17.915 6.872 C 17.915 5.834 17.055 5 16.005 5 C 14.957 5 14.077 5.854 14.077 6.882 C 14.077 6.97 14.087 7.047 14.097 7.134 L 9.09 9.977 C 8.545 9.561 7.82 9.462 7.184 9.719 C 6.551 9.97 6.104 10.544 6.014 11.219 C 5.929 11.892 6.217 12.557 6.766 12.956 C 6.836 13.004 6.905 13.053 6.984 13.101 C 7.064 13.15 7.151 13.189 7.241 13.218 L 7.241 18.826 C 6.261 19.214 5.787 20.301 6.182 21.261 C 6.587 22.228 7.693 22.69 8.666 22.3 C 8.756 22.271 8.834 22.223 8.914 22.184 C 8.995 22.136 9.074 22.084 9.151 22.029 L 14.107 24.833 C 13.938 25.851 14.651 26.812 15.689 26.977 C 16.728 27.142 17.707 26.443 17.875 25.424 C 17.895 25.318 17.895 25.221 17.895 25.114 C 17.894 25.023 17.887 24.932 17.875 24.842 L 22.801 22.058 C 22.881 22.116 22.96 22.174 23.049 22.223 C 23.969 22.727 25.136 22.407 25.65 21.505 C 26.147 20.618 25.849 19.496 24.977 18.972 L 24.977 18.971 Z M 25.324 21.319 C 24.906 22.002 24.022 22.23 23.326 21.834 C 22.776 21.524 22.497 20.887 22.643 20.272 L 20.328 18.942 C 19.59 19.67 18.493 19.894 17.529 19.514 C 17.183 19.621 16.441 19.689 16.441 19.689 L 16.441 23.686 C 17.245 23.921 17.7 24.769 17.451 25.569 C 17.204 26.364 16.343 26.801 15.531 26.559 C 15.521 26.559 15.511 26.549 15.501 26.549 C 15.436 26.529 15.374 26.503 15.314 26.471 C 14.561 26.109 14.252 25.198 14.631 24.453 C 14.819 24.084 15.156 23.813 15.551 23.687 L 15.551 19.612 C 15.261 19.524 14.977 19.417 14.701 19.292 C 13.808 19.468 12.882 19.244 12.168 18.68 L 9.408 20.242 C 9.592 21.023 9.103 21.803 8.32 21.978 C 7.531 22.163 6.739 21.686 6.55 20.912 C 6.365 20.131 6.855 19.35 7.638 19.175 C 8.117 19.063 8.62 19.194 8.983 19.525 L 11.565 18.059 C 10.693 16.856 10.836 15.195 11.901 14.159 L 8.963 12.509 C 8.374 13.053 7.458 13.023 6.906 12.442 C 6.354 11.867 6.385 10.95 6.975 10.414 C 7.564 9.87 8.48 9.9 9.032 10.482 C 9.365 10.826 9.499 11.316 9.388 11.782 L 12.643 13.615 C 13.071 13.39 13.545 13.267 14.028 13.256 C 14.483 12.888 15.649 12.51 15.649 12.51 L 15.649 8.144 C 14.932 7.94 14.522 7.187 14.739 6.474 C 14.957 5.766 15.719 5.378 16.441 5.592 C 17.163 5.805 17.569 6.552 17.351 7.261 C 17.217 7.693 16.875 8.028 16.441 8.153 L 16.441 12.433 C 16.441 12.433 18.578 12.956 19.251 13.742 L 22.712 11.812 C 22.532 11.031 23.026 10.253 23.81 10.084 C 24.602 9.91 25.393 10.385 25.571 11.161 C 25.75 11.942 25.256 12.719 24.473 12.888 C 23.996 12.994 23.497 12.86 23.138 12.529 L 19.715 14.431 C 19.814 14.634 19.903 14.838 19.962 15.051 C 21.021 15.76 21.397 17.118 20.832 18.253 L 23.098 19.543 C 23.571 19.114 24.266 19.04 24.819 19.359 C 25.502 19.757 25.739 20.63 25.324 21.319 Z M 7.984 19.961 C 7.648 19.958 7.373 20.227 7.37 20.563 C 7.37 20.895 7.645 21.164 7.984 21.164 C 8.322 21.164 8.597 20.894 8.597 20.563 C 8.595 20.458 8.568 20.354 8.517 20.262 C 8.404 20.076 8.202 19.962 7.984 19.962 L 7.984 19.961 Z M 16.649 6.873 C 16.646 6.537 16.371 6.268 16.035 6.271 C 15.7 6.268 15.425 6.538 15.422 6.873 C 15.422 7.205 15.697 7.474 16.035 7.474 C 16.37 7.476 16.644 7.208 16.649 6.873 Z M 24.127 12.093 C 24.467 12.093 24.741 11.823 24.741 11.491 C 24.738 11.155 24.463 10.886 24.127 10.889 C 23.792 10.886 23.517 11.156 23.514 11.491 C 23.521 11.825 23.793 12.093 24.127 12.093 Z M 8.27 10.937 C 7.979 10.771 7.608 10.87 7.44 11.16 C 7.27 11.447 7.373 11.817 7.667 11.975 C 7.958 12.141 8.329 12.042 8.497 11.752 C 8.666 11.465 8.563 11.095 8.27 10.937 Z M 24.374 20.077 C 24.28 20.023 24.175 19.993 24.067 19.989 C 23.847 19.985 23.642 20.099 23.529 20.287 C 23.417 20.474 23.417 20.707 23.529 20.894 C 23.642 21.082 23.847 21.196 24.067 21.192 C 24.285 21.19 24.486 21.077 24.602 20.892 C 24.771 20.605 24.668 20.234 24.374 20.076 L 24.374 20.077 Z M 15.422 25.092 C 15.389 25.441 15.655 25.747 16.006 25.762 C 16.313 25.764 16.578 25.549 16.639 25.248 C 16.683 24.92 16.452 24.618 16.124 24.574 C 15.796 24.523 15.488 24.746 15.432 25.073 C 15.427 25.078 15.423 25.085 15.422 25.093 L 15.422 25.092 Z M 18.944 15.807 L 18.914 15.584 C 18.904 15.531 18.891 15.48 18.874 15.429 C 18.874 15.409 18.864 15.39 18.864 15.371 C 18.844 15.313 18.824 15.245 18.805 15.186 L 18.805 15.176 C 18.649 14.773 18.394 14.417 18.063 14.139 L 18.053 14.129 C 17.995 14.078 17.932 14.032 17.865 13.993 L 17.855 13.983 C 17.796 13.945 17.727 13.896 17.668 13.867 L 17.658 13.857 C 17.594 13.821 17.528 13.788 17.46 13.76 L 17.44 13.75 C 17.368 13.719 17.296 13.69 17.223 13.663 L 17.213 13.653 C 17.133 13.634 17.064 13.605 16.985 13.595 L 16.975 13.595 C 16.897 13.578 16.818 13.565 16.738 13.557 L 16.728 13.557 C 16.307 13.498 15.878 13.548 15.482 13.702 L 15.432 13.741 C 15.372 13.761 15.274 13.809 15.215 13.838 C 15.184 13.858 15.15 13.874 15.115 13.886 C 15.086 13.896 15.037 13.935 15.007 13.954 L 14.868 14.051 L 14.838 14.071 C 14.779 14.11 14.73 14.158 14.67 14.207 L 14.621 14.255 C 14.565 14.307 14.513 14.362 14.463 14.42 C 14.345 14.401 14.226 14.391 14.107 14.391 C 14.067 14.391 14.037 14.391 14.007 14.401 C 13.319 14.434 12.697 14.824 12.367 15.429 L 12.356 15.449 C 12.326 15.505 12.299 15.564 12.276 15.624 C 12.266 15.643 12.266 15.653 12.256 15.672 C 12.235 15.722 12.219 15.774 12.207 15.827 C 12.197 15.847 12.197 15.876 12.187 15.895 L 12.158 16.05 C 12.158 16.07 12.148 16.09 12.148 16.118 C 12.14 16.192 12.136 16.267 12.138 16.341 C 12.137 16.403 12.14 16.465 12.148 16.526 C 12.148 16.546 12.158 16.565 12.158 16.594 C 12.168 16.633 12.168 16.671 12.178 16.71 C 12.188 16.749 12.188 16.759 12.198 16.788 C 12.209 16.816 12.216 16.845 12.218 16.875 C 12.218 16.905 12.237 16.933 12.247 16.962 C 12.255 16.985 12.265 17.008 12.277 17.03 C 12.292 17.062 12.305 17.094 12.317 17.127 C 12.327 17.147 12.336 17.157 12.336 17.176 C 12.475 17.496 12.71 17.766 13.009 17.952 C 13.157 18.039 13.306 18.117 13.464 18.165 C 13.525 18.186 13.588 18.202 13.652 18.214 L 13.672 18.224 L 13.85 18.253 L 13.89 18.263 C 13.958 18.273 14.028 18.273 14.107 18.273 C 14.374 18.273 14.631 18.223 14.868 18.117 C 14.928 18.156 14.978 18.195 15.037 18.233 L 15.057 18.243 C 15.106 18.273 15.165 18.301 15.225 18.33 L 15.235 18.33 C 15.802 18.613 16.453 18.679 17.065 18.515 L 17.075 18.515 C 17.163 18.495 17.249 18.466 17.331 18.427 L 17.598 18.311 C 17.853 18.506 18.166 18.611 18.488 18.611 C 18.558 18.611 18.618 18.601 18.686 18.601 L 18.736 18.592 C 18.862 18.575 18.986 18.539 19.102 18.486 L 19.132 18.476 C 19.191 18.446 19.24 18.418 19.3 18.389 C 19.623 18.182 19.847 17.853 19.923 17.477 L 19.923 17.447 C 19.933 17.409 19.933 17.37 19.943 17.331 C 19.943 17.283 19.953 17.234 19.953 17.185 C 19.953 16.545 19.547 15.992 18.943 15.808 L 18.944 15.807 Z"/>
</svg>
