<?xml version="1.0" encoding="utf-8"?>
<svg fill="#d1d1d1" width="32" height="32" viewBox="0 0 32 32" xmlns="http://www.w3.org/2000/svg">
  <path d="M 27.675 13 C 26.104 13.003 24.8 14.217 24.685 15.784 C 24.574 14.219 23.274 13.004 21.705 13 L 21.705 13.462 L 21.871 13.468 C 23.205 13.555 24.243 14.663 24.243 16 C 24.247 17.403 23.108 18.542 21.705 18.538 L 21.705 19 L 21.879 18.995 C 23.381 18.904 24.584 17.717 24.695 16.216 C 24.807 17.785 26.112 19 27.685 19 L 27.685 18.538 L 27.519 18.532 C 26.185 18.444 25.148 17.337 25.148 16 C 25.144 14.601 26.276 13.464 27.675 13.462 L 27.675 13 Z M 11.633 16 L 11.19 16 L 11.19 19 L 11.643 19 L 11.633 16 Z M 17.643 13 C 15.99 13 14.643 14.348 14.643 16 C 14.643 17.652 15.99 19 17.643 19 C 19.952 19 21.396 16.5 20.241 14.5 C 19.705 13.572 18.715 13 17.643 13 Z M 13.393 13 L 9.538 13 L 9.362 13.005 C 7.778 13.101 6.541 14.413 6.538 16 C 6.535 17.4 5.4 18.535 4 18.538 L 4 19 L 4.176 18.995 C 5.76 18.899 6.997 17.587 7 16 C 7.003 14.6 8.138 13.465 9.538 13.462 L 13.393 13.462 L 13.393 13 Z M 17.643 13.462 C 19.044 13.463 20.18 14.599 20.18 16 C 20.184 17.338 19.145 18.447 17.81 18.532 L 17.643 18.538 L 17.476 18.532 C 16.144 18.441 15.109 17.335 15.105 16 C 15.105 14.664 16.142 13.556 17.475 13.468 L 17.643 13.462 Z"/>
</svg>
