<?xml version="1.0" encoding="utf-8"?>
<svg fill="#d1d1d1" width="32" height="32" viewBox="0 0 32 32" xmlns="http://www.w3.org/2000/svg">
  <path d="M 5.155 9.036 C 5.095 9.666 5.095 10.31 5.215 10.94 C 5.833 10.964 6.465 10.964 7.095 10.964 C 7.274 11.298 7.465 11.619 7.619 11.976 C 8.369 13.56 9.131 15.131 9.917 16.702 C 10.369 17.607 10.738 18.595 11.429 19.369 C 11.643 19.655 12.024 19.69 12.381 19.69 L 19.048 19.69 C 19.608 19.69 20.214 19.667 20.655 19.298 C 21.19 18.833 21.429 18.167 21.785 17.571 C 22.738 15.905 23.667 14.226 24.643 12.571 C 24.845 12.214 25 11.75 24.786 11.357 C 24.607 11 24.166 10.988 23.81 10.964 C 19 10.964 14.167 10.988 9.357 10.964 C 8.988 10.345 8.881 9.595 8.405 9.06 C 7.333 8.964 6.226 9.036 5.155 9.036 Z M 12.667 20.976 C 12.083 21.107 11.607 21.619 11.536 22.214 C 11.429 22.929 11.429 23.762 11.94 24.334 C 12.417 24.81 13.155 24.857 13.798 24.81 C 14.358 24.762 14.952 24.5 15.19 23.952 C 15.44 23.345 15.44 22.667 15.298 22.036 C 15.167 21.488 14.69 21.071 14.143 20.952 C 13.655 20.857 13.143 20.857 12.667 20.976 Z M 18.619 20.976 C 18.036 21.107 17.583 21.596 17.464 22.179 C 17.319 22.808 17.395 23.468 17.679 24.048 C 17.976 24.583 18.595 24.798 19.167 24.821 C 19.75 24.833 20.393 24.774 20.833 24.357 C 21.31 23.857 21.381 23.107 21.31 22.452 C 21.262 21.892 20.976 21.298 20.429 21.072 C 19.857 20.857 19.214 20.845 18.619 20.976 Z"/>
</svg>
