<?xml version="1.0" encoding="utf-8"?>
<svg fill="#d1d1d1" viewBox="0 0 32 32" xmlns="http://www.w3.org/2000/svg">
  <path fill-rule="evenodd" d="M 6.047 15.454 L 6.039 13.717 L 15.681 19.376 C 15.909 19.51 16.191 19.511 16.421 19.377 L 26.632 13.433 C 27.119 13.147 27.122 12.443 26.637 12.153 L 16.425 6.103 C 16.194 5.966 15.907 5.966 15.676 6.104 L 5.256 12.34 C 5.069 12.452 4.971 12.667 5.007 12.882 C 5.002 12.914 5 12.947 5 12.98 L 5 15.454 C 5 16.101 5.343 16.699 5.899 17.023 L 15.682 22.723 C 15.912 22.856 16.195 22.855 16.424 22.72 L 25.897 17.116 L 25.897 19.017 L 16.05 24.895 L 5.787 18.862 C 5.537 18.715 5.215 18.8 5.071 19.052 C 4.926 19.304 5.01 19.625 5.26 19.773 L 15.68 25.899 C 15.91 26.035 16.196 26.034 16.426 25.896 L 26.583 19.833 C 26.806 19.699 26.943 19.457 26.943 19.196 L 26.943 16.569 C 26.943 16 26.328 15.645 25.835 15.929 L 16.05 21.719 L 6.423 16.109 C 6.19 15.973 6.047 15.724 6.047 15.454 Z M 16.053 18.374 L 6.555 12.789 L 16.053 7.105 L 25.647 12.789 L 16.053 18.373 L 16.053 18.374 Z"/>
</svg>
