<?xml version="1.0" encoding="utf-8"?>
<svg fill="#d1d1d1" viewBox="0 0 32 32" xmlns="http://www.w3.org/2000/svg">
  <path d="M 12.117 5.314 L 8.1 8.328 C 7.965 8.427 7.965 8.629 8.1 8.728 L 23.901 20.581 L 23.007 21.251 C 22.852 21.366 22.881 21.606 23.058 21.682 C 23.14 21.718 23.235 21.707 23.307 21.653 L 24.469 20.783 C 24.604 20.682 24.604 20.48 24.469 20.379 L 8.67 8.526 L 12.268 5.829 L 13.374 6.656 C 13.528 6.771 13.749 6.677 13.772 6.486 C 13.783 6.397 13.745 6.31 13.674 6.256 L 12.419 5.314 C 12.376 5.282 12.323 5.264 12.269 5.264 C 12.214 5.263 12.161 5.281 12.118 5.314 L 12.117 5.314 Z M 16.134 5.314 L 10.944 9.206 C 10.789 9.321 10.818 9.561 10.995 9.637 C 11.077 9.673 11.172 9.662 11.244 9.608 L 16.284 5.828 L 23.564 11.288 L 20.386 11.288 L 15.179 7.384 C 15.024 7.269 14.803 7.364 14.78 7.556 C 14.769 7.645 14.807 7.732 14.879 7.786 L 20.15 11.739 C 20.194 11.772 20.246 11.789 20.3 11.79 L 24.318 11.79 C 24.426 11.79 24.521 11.72 24.555 11.618 C 24.591 11.516 24.556 11.403 24.469 11.339 L 16.434 5.312 C 16.345 5.245 16.222 5.246 16.134 5.314 Z M 9.21 10.509 L 8.1 11.339 C 7.968 11.44 7.968 11.64 8.1 11.741 L 23.902 23.594 L 20.302 26.293 L 19.292 25.536 C 19.137 25.42 18.915 25.515 18.891 25.707 C 18.881 25.796 18.918 25.884 18.99 25.938 L 20.152 26.81 C 20.241 26.876 20.363 26.876 20.452 26.81 L 24.47 23.797 C 24.605 23.697 24.605 23.495 24.47 23.395 L 8.67 11.541 L 9.511 10.911 C 9.623 10.828 9.645 10.67 9.561 10.56 C 9.478 10.45 9.322 10.428 9.211 10.509 L 9.21 10.509 Z M 8.251 20.328 C 8.058 20.326 7.935 20.533 8.029 20.702 C 8.047 20.733 8.07 20.76 8.099 20.781 L 16.136 26.806 C 16.225 26.873 16.347 26.873 16.436 26.806 L 21.618 22.922 C 21.773 22.805 21.743 22.565 21.565 22.489 C 21.482 22.454 21.387 22.466 21.315 22.52 L 16.286 26.293 L 9.005 20.832 L 12.185 20.832 L 17.331 24.692 C 17.485 24.808 17.707 24.714 17.73 24.522 C 17.741 24.434 17.703 24.346 17.632 24.292 L 12.416 20.381 C 12.373 20.347 12.32 20.329 12.266 20.33 L 8.25 20.33 L 8.25 20.328 L 8.251 20.328 Z"/>
</svg>
