<?xml version="1.0" encoding="utf-8"?>
<svg fill="#d1d1d1" width="32" height="32" viewBox="0 0 32 32" xmlns="http://www.w3.org/2000/svg">
  <path d="M 18.061 9.084 L 13.99 9.084 C 10.977 12.446 9.514 13.828 7 15.9 L 17.81 18.238 L 15.95 20.328 C 13.467 18.858 11.767 18.669 8.71 18.388 C 11.007 19.446 12.2 20.296 13.989 22.914 L 18.061 22.914 C 20.176 20.287 21.634 18.762 25 15.9 L 14.24 13.51 L 15.95 11.52 C 18.659 12.942 20.281 13.146 23.156 13.506 C 22.329 13.279 21.465 12.649 18.061 9.083 L 18.061 9.084 Z M 14.24 8.587 L 17.81 8.587 C 16.919 7.475 16.54 6.912 16.05 6 C 15.551 6.885 15.17 7.442 14.24 8.587 Z M 17.81 23.413 L 14.24 23.413 C 15.13 24.525 15.51 25.088 16 26 C 16.498 25.115 16.879 24.558 17.81 23.413 Z"/>
</svg>
