<?xml version="1.0" encoding="utf-8"?>
<svg fill="#d1d1d1" width="32" height="32" viewBox="0 0 32 32" xmlns="http://www.w3.org/2000/svg">
  <path d="M 13.794 7.02 C 12.444 6.91 11.401 7.25 10.861 8.025 L 7.146 13.332 C 6.606 14.106 6.624 15.231 7.164 16.502 C 7.911 18.253 9.638 20.326 12.013 22.059 C 14.379 23.8 16.853 24.814 18.715 24.979 C 20.055 25.09 21.108 24.749 21.648 23.975 L 25.354 18.668 C 25.894 17.894 25.876 16.769 25.336 15.498 C 24.598 13.747 22.862 11.674 20.496 9.932 C 18.121 8.2 15.656 7.177 13.794 7.02 Z M 21.582 19.468 C 22.287 19.593 22.913 19.616 23.427 19.532 C 23.53 19.522 23.605 19.627 23.562 19.721 C 23.545 19.759 23.511 19.787 23.47 19.796 C 22.923 19.886 22.268 19.861 21.536 19.732 C 21.435 19.713 21.392 19.591 21.459 19.513 C 21.489 19.478 21.536 19.461 21.582 19.468 Z M 20.512 19.224 L 20.555 19.229 C 20.728 19.278 20.898 19.322 21.065 19.361 C 21.165 19.388 21.198 19.513 21.125 19.585 C 21.093 19.617 21.048 19.63 21.005 19.622 C 20.833 19.582 20.659 19.537 20.483 19.487 C 20.385 19.456 20.357 19.33 20.433 19.26 C 20.466 19.23 20.512 19.218 20.555 19.229 L 20.512 19.224 Z M 11.375 8.403 C 11.807 7.785 12.662 7.583 13.741 7.675 C 15.513 7.822 17.861 8.808 20.119 10.467 C 22.386 12.125 24.051 14.088 24.761 15.756 C 25.184 16.769 25.274 17.672 24.842 18.281 L 24.815 18.327 C 24.375 18.907 23.538 19.101 22.476 19.017 C 20.704 18.87 18.356 17.884 16.098 16.226 C 13.84 14.567 12.176 12.604 11.465 10.927 C 11.042 9.932 10.952 9.057 11.357 8.439 L 11.375 8.403 Z M 10.631 10.851 C 10.701 10.83 10.776 10.871 10.796 10.941 C 11.243 12.473 12.41 13.956 14.253 15.639 L 14.46 15.827 C 14.566 15.922 14.673 16.017 14.782 16.112 C 14.838 16.161 14.844 16.246 14.795 16.302 C 14.746 16.357 14.662 16.363 14.607 16.314 C 14.464 16.188 14.322 16.062 14.181 15.934 L 13.976 15.748 C 12.156 14.07 10.996 12.581 10.541 11.017 C 10.52 10.946 10.56 10.872 10.631 10.851 Z M 15.882 10.568 C 15.378 10.531 14.974 10.614 14.776 10.9 C 14.578 11.185 14.632 11.6 14.83 12.07 C 15.18 12.908 16.017 13.885 17.15 14.715 C 18.284 15.544 19.454 16.041 20.344 16.115 C 20.839 16.161 21.244 16.078 21.442 15.793 C 21.649 15.507 21.595 15.093 21.388 14.623 C 21.037 13.783 20.2 12.798 19.067 11.969 C 17.942 11.139 16.764 10.651 15.882 10.568 Z M 10.485 9.79 C 10.558 9.787 10.62 9.845 10.623 9.918 C 10.63 10.088 10.649 10.26 10.678 10.433 C 10.699 10.533 10.603 10.618 10.506 10.586 C 10.458 10.57 10.423 10.528 10.416 10.478 C 10.385 10.296 10.365 10.113 10.357 9.929 C 10.354 9.855 10.411 9.792 10.485 9.789 L 10.485 9.79 Z"/>
</svg>
