<?xml version="1.0" encoding="utf-8"?>
<svg fill="#d1d1d1" width="32" height="32" viewBox="0 0 32 32" xmlns="http://www.w3.org/2000/svg">
  <path d="M 13.147 15.434 C 13.161 15.465 13.16 15.502 13.144 15.532 C 13.112 15.587 13.044 15.607 12.987 15.579 C 5.45 11.659 19.828 7.094 27.751 12.439 C 27.847 12.494 27.931 12.549 28 12.602 C 27.919 12.544 27.834 12.495 27.751 12.439 C 24.811 10.763 10.147 9.096 13.147 15.434 M 21.473 20.754 C 25.631 18.864 22.249 12.392 16.748 13.641 C 16.686 13.654 16.625 13.617 16.609 13.556 C 16.6 13.514 16.616 13.472 16.65 13.446 C 20.93 10.23 28.964 17.738 21.473 20.753 M 4 18.011 C 16.101 25.754 22.334 18.478 17.955 15.301 L 17.949 15.296 C 17.902 15.259 17.895 15.191 17.932 15.144 C 17.96 15.11 18.004 15.095 18.046 15.104 C 28.547 17 14.26 27.665 4 18.01 M 12.2 10.854 C 5.581 15.394 12.944 17.454 14.281 17.018 C 14.302 17.012 14.324 17.012 14.345 17.016 C 14.407 17.03 14.445 17.093 14.428 17.154 C 13.525 20.617 3.118 13.762 12.2 10.854"/>
</svg>
