<?xml version="1.0" encoding="utf-8"?>
<svg fill="#d1d1d1" viewBox="0 0 32 32" xmlns="http://www.w3.org/2000/svg">
  <path d="M 4 13 L 4 14.221 L 5.298 14.221 L 5.298 13 L 4 13 Z M 5.298 17.774 L 5.298 16.663 L 7.811 16.663 L 7.811 15.442 L 4 15.442 L 4 19 L 9.075 19 L 9.075 17.774 L 5.298 17.774 Z M 22.925 15.442 L 22.925 16.662 L 26.702 16.662 L 26.702 17.774 L 24.189 17.774 L 24.189 19 L 28 19 L 28 15.442 L 22.925 15.442 Z M 26.723 14.28 L 26.723 13.059 L 22.923 13.059 L 22.923 14.279 L 26.723 14.279 L 26.723 14.28 Z M 10.312 15.442 L 10.312 19 L 14.122 19 L 14.122 17.826 L 15.387 17.826 L 15.387 15.442 L 10.312 15.442 Z M 14.089 17.774 L 11.61 17.774 L 11.61 16.663 L 14.09 16.663 L 14.09 17.773 L 14.089 17.774 Z M 10.312 13 L 10.312 14.221 L 15.387 14.221 L 15.387 13 L 10.312 13 Z M 16.646 15.442 L 16.646 19 L 20.456 19 L 20.456 17.826 L 21.721 17.826 L 21.721 15.442 L 16.646 15.442 Z M 20.418 17.774 L 17.938 17.774 L 17.938 16.663 L 20.418 16.663 L 20.418 17.773 L 20.418 17.774 Z M 16.646 13 L 16.646 14.221 L 21.721 14.221 L 21.721 13 L 16.646 13 Z"/>
</svg>
