<?xml version="1.0" encoding="utf-8"?>
<svg fill="#d1d1d1" viewBox="0 0 32 32" xmlns="http://www.w3.org/2000/svg">
  <path d="M 8.094 13.678 L 6 15.788 L 10.203 15.788 L 8.094 13.678 Z M 10.204 16.228 L 6 16.228 L 8.094 18.322 L 10.204 16.228 Z M 13.056 13.375 L 10.946 11.265 L 10.946 15.469 L 13.056 13.375 Z M 10.506 15.469 L 10.506 11.266 L 8.413 13.375 L 10.506 15.469 Z M 13.36 13.056 L 15.469 10.962 L 11.266 10.962 L 13.36 13.056 Z M 13.36 8.413 L 11.266 10.522 L 15.469 10.522 L 13.36 8.413 Z M 18.322 8.109 L 16.212 6 L 16.212 10.203 L 18.322 8.109 Z M 15.772 10.203 L 15.772 6 L 13.678 8.11 L 15.772 10.203 Z M 13.056 18.64 L 10.946 16.531 L 10.946 20.734 L 13.056 18.64 Z M 8.413 18.64 L 10.507 20.734 L 10.507 16.531 L 8.413 18.64 Z M 18.625 13.056 L 20.735 10.962 L 16.53 10.962 L 18.625 13.056 Z M 16.531 10.522 L 20.734 10.522 L 18.625 8.412 L 16.531 10.522 Z M 15.47 21.493 L 11.267 21.493 L 13.361 23.587 L 15.47 21.493 Z M 13.36 18.943 L 11.267 21.053 L 15.47 21.053 L 13.36 18.943 Z M 23.588 13.375 L 21.479 11.265 L 21.479 15.469 L 23.588 13.375 Z M 18.945 13.375 L 21.039 15.469 L 21.039 11.266 L 18.945 13.375 Z M 13.679 23.905 L 15.772 26 L 15.772 21.797 L 13.679 23.905 Z M 16.213 21.797 L 16.213 26 L 18.323 23.906 L 16.213 21.797 Z M 18.626 23.587 L 20.736 21.493 L 16.53 21.493 L 18.626 23.587 Z M 18.626 18.944 L 16.532 21.054 L 20.735 21.054 L 18.626 18.944 Z M 21.479 16.531 L 21.479 20.734 L 23.589 18.64 L 21.479 16.531 Z M 18.945 18.641 L 21.039 20.734 L 21.039 16.531 L 18.945 18.641 Z M 23.892 18.321 L 26 16.229 L 21.797 16.229 L 23.892 18.321 Z M 23.892 13.678 L 21.798 15.788 L 26 15.788 L 23.892 13.678 Z" fill-rule="evenodd"/>
</svg>
