<?xml version="1.0" encoding="utf-8"?>
<svg fill="#d1d1d1" height="32" viewBox="0 0 32 32" width="32" xmlns="http://www.w3.org/2000/svg">
  <path d="M 25.08 11.478 L 19.026 6.56 C 18.393 6.048 17.246 5.85 16.473 6.122 L 9.053 8.728 C 8.281 8.998 7.531 9.862 7.389 10.646 L 6.029 18.17 C 5.886 18.954 6.286 20.01 6.919 20.523 L 12.977 25.44 C 13.609 25.953 14.757 26.15 15.529 25.878 L 22.948 23.273 C 23.72 23.003 24.47 22.139 24.612 21.355 L 25.972 13.831 C 26.112 13.052 25.712 11.991 25.08 11.478 Z M 18.769 14.856 L 15.939 14.852 L 15.413 17.514 C 15.248 18.339 15.203 18.804 16.053 18.804 L 17.967 18.804 L 17.567 20.494 L 15.279 20.494 C 13.926 20.494 13.046 19.231 13.398 17.452 C 13.538 16.753 13.958 14.859 13.958 14.859 L 12.719 14.859 L 12.976 13.54 C 14.103 13.105 15.064 12.326 15.724 11.315 L 16.639 11.315 L 16.239 13.331 L 19.071 13.327 L 18.769 14.856 Z" fill-rule="evenodd"/>
</svg>
