<?xml version="1.0" encoding="utf-8"?>
<svg fill="#d1d1d1" width="32" height="32" viewBox="0 0 32 32" xmlns="http://www.w3.org/2000/svg">
  <path d="M 26.998 16.205 L 27 16 C 27 12.96 25.925 10.365 23.775 8.215 C 21.632 6.072 19.04 5 16 5 C 12.96 5 10.365 6.072 8.215 8.215 C 6.072 10.365 5 12.96 5 16 C 5.019 15.718 5.029 15.435 5.03 15.152 C 5.071 15.154 5.111 15.159 5.151 15.167 L 9.842 7.031 C 9.811 6.995 9.783 6.956 9.76 6.915 C 10.233 6.582 10.725 6.293 11.236 6.047 C 11.263 6.092 11.286 6.139 11.304 6.189 L 20.696 6.189 C 20.714 6.14 20.737 6.092 20.764 6.047 C 21.279 6.297 21.773 6.588 22.241 6.919 C 22.218 6.957 22.192 6.993 22.163 7.027 L 26.849 15.167 C 26.889 15.159 26.93 15.154 26.971 15.152 C 26.995 15.502 27.004 15.854 26.998 16.205 Z M 26.97 16.867 C 26.929 16.865 26.889 16.861 26.849 16.853 L 22.158 24.978 C 22.186 25.011 22.212 25.045 22.236 25.08 C 22.786 24.69 23.301 24.253 23.776 23.775 C 25.718 21.838 26.783 19.535 26.97 16.867 Z M 22.219 25.092 Z M 22.113 25.166 C 21.677 25.465 21.226 25.727 20.759 25.953 C 20.734 25.911 20.713 25.867 20.696 25.821 L 11.304 25.821 C 11.287 25.867 11.265 25.911 11.24 25.953 C 10.984 25.83 10.734 25.697 10.489 25.553 C 12.126 26.516 13.963 27 16 27 C 18.293 27 20.33 26.389 22.113 25.166 Z M 9.765 25.085 C 9.788 25.047 9.813 25.011 9.842 24.978 L 5.151 16.853 C 5.111 16.861 5.071 16.865 5.03 16.867 C 5.217 19.536 6.278 21.838 8.215 23.775 C 8.708 24.268 9.225 24.705 9.765 25.085 Z M 26.347 15.46 L 21.797 7.572 L 21.797 15.201 C 21.911 15.244 22.015 15.311 22.109 15.406 C 22.199 15.494 22.269 15.6 22.314 15.717 L 26.191 15.717 C 26.227 15.622 26.28 15.535 26.347 15.459 L 26.347 15.46 Z M 26.191 16.302 L 22.314 16.302 C 22.269 16.42 22.199 16.526 22.109 16.614 C 22.021 16.704 21.915 16.774 21.797 16.819 L 21.797 24.438 L 26.347 16.56 C 26.28 16.484 26.227 16.397 26.191 16.302 Z M 5.81 15.717 L 9.687 15.717 C 9.732 15.6 9.802 15.494 9.892 15.406 C 9.98 15.316 10.086 15.246 10.204 15.201 L 10.204 7.572 L 5.654 15.459 C 5.724 15.539 5.775 15.625 5.81 15.717 Z M 11.295 6.793 L 17.409 12.088 C 17.582 11.987 17.787 11.952 17.984 11.991 L 20.854 7.031 C 20.787 6.955 20.734 6.868 20.697 6.773 L 11.305 6.773 C 11.302 6.78 11.299 6.787 11.295 6.793 Z M 11.305 15.717 L 15.192 15.717 C 15.226 15.619 15.277 15.528 15.343 15.449 L 10.788 7.572 L 10.788 15.201 C 10.902 15.244 11.006 15.311 11.1 15.406 C 11.19 15.494 11.26 15.6 11.305 15.717 Z M 18.637 13.14 L 21.087 15.26 C 21.128 15.237 21.17 15.217 21.214 15.201 L 21.214 7.572 L 18.49 12.283 C 18.621 12.436 18.692 12.631 18.69 12.833 C 18.691 12.938 18.673 13.042 18.637 13.14 Z M 17.034 12.527 L 11.616 7.84 L 15.849 15.157 C 15.949 15.137 16.051 15.137 16.151 15.157 L 17.179 13.384 C 17.045 13.233 16.971 13.036 16.974 12.834 C 16.974 12.724 16.994 12.621 17.033 12.527 L 17.034 12.527 Z M 16.814 15.717 L 20.697 15.717 C 20.701 15.711 20.704 15.705 20.707 15.698 L 18.257 13.578 C 18.084 13.68 17.879 13.715 17.682 13.676 L 16.659 15.45 C 16.726 15.529 16.779 15.619 16.814 15.717 Z M 20.902 16.614 C 20.812 16.526 20.742 16.42 20.697 16.302 L 16.805 16.302 C 16.771 16.391 16.721 16.474 16.659 16.546 L 21.214 24.437 L 21.214 16.82 C 21.096 16.775 20.99 16.705 20.902 16.615 L 20.902 16.614 Z M 15.86 16.848 L 14.827 18.636 C 14.96 18.794 15.027 18.977 15.027 19.186 C 15.027 19.296 15.009 19.397 14.973 19.493 L 20.385 24.174 L 16.152 16.843 C 16.055 16.859 15.957 16.861 15.86 16.848 Z M 20.707 25.217 L 14.593 19.931 C 14.42 20.033 14.215 20.068 14.018 20.029 L 11.154 24.979 C 11.219 25.055 11.27 25.142 11.304 25.236 L 20.697 25.236 C 20.701 25.23 20.704 25.224 20.707 25.217 Z M 14.32 18.343 L 15.348 16.555 C 15.283 16.48 15.233 16.395 15.198 16.302 L 11.305 16.302 C 11.302 16.309 11.299 16.316 11.295 16.322 L 13.745 18.441 C 13.918 18.339 14.123 18.304 14.32 18.343 Z M 13.37 18.879 L 10.915 16.76 C 10.874 16.783 10.832 16.802 10.788 16.818 L 10.788 24.442 L 13.517 19.736 C 13.383 19.585 13.309 19.388 13.312 19.186 C 13.312 19.076 13.332 18.974 13.37 18.879 Z M 9.892 16.614 C 9.802 16.526 9.732 16.42 9.687 16.302 L 5.81 16.302 C 5.774 16.397 5.721 16.484 5.654 16.56 L 10.204 24.437 L 10.204 16.82 C 10.086 16.775 9.98 16.705 9.892 16.615 L 9.892 16.614 Z"/>
</svg>
