<?xml version="1.0" encoding="utf-8"?>
<svg fill="#d1d1d1" width="32" height="32" viewBox="0 0 32 32" xmlns="http://www.w3.org/2000/svg">
  <path d="M 26.983 15.774 L 26.983 15.544 L 22.463 18.172 L 22.463 16.862 L 26.983 14.235 L 26.983 9.387 L 15.99 3 L 10.495 6.194 L 10.297 6.309 L 14.817 8.936 L 13.691 9.59 L 9.171 6.963 L 5 9.387 L 5 22.161 L 10.495 25.355 L 10.694 25.47 L 10.694 20.216 L 11.82 20.87 L 11.82 26.125 L 15.992 28.548 L 26.983 22.161 L 26.983 15.774 Z M 21.288 13.35 L 16.738 15.996 L 16.738 21.498 L 15.992 21.931 L 15.429 21.604 L 15.429 16.314 L 10.694 13.562 L 10.694 12.696 L 11.257 12.368 L 15.809 15.013 L 20.544 12.263 L 21.289 12.696 L 21.289 13.351 L 21.288 13.35 Z M 14.83 6.27 L 15.991 5.596 L 24.749 10.686 L 24.749 12.861 L 23.589 13.535 L 23.589 11.359 L 20.542 9.59 L 15.808 12.341 L 14.681 11.687 L 19.416 8.935 L 14.83 6.27 Z M 8.395 21.54 L 7.233 20.865 L 7.233 10.685 L 9.105 9.597 L 10.267 10.271 L 8.395 11.36 L 8.395 14.898 L 13.129 17.65 L 13.129 18.959 L 8.395 16.208 L 8.395 21.538 L 8.395 21.54 Z M 24.75 19.515 L 24.75 20.865 L 15.992 25.955 L 14.12 24.866 L 14.12 23.516 L 15.992 24.604 L 19.037 22.835 L 19.037 17.333 L 20.163 16.678 L 20.163 22.181 L 24.75 19.515 Z"/>
</svg>
