<?xml version="1.0" encoding="utf-8"?>
<svg fill="#d1d1d1" width="32" height="32" viewBox="0 0 32 32" xmlns="http://www.w3.org/2000/svg">
  <path d="M 16 4 C 6.831 4 1.1 13.926 5.684 21.867 C 7.812 25.553 11.744 27.823 16 27.823 C 22.579 27.823 27.911 22.49 27.911 15.911 C 27.911 9.333 22.58 4 16 4 Z M 16 27.341 C 9.682 27.341 4.56 22.219 4.56 15.901 C 4.56 9.585 9.683 4.463 16 4.463 C 22.317 4.463 27.44 9.585 27.44 15.903 C 27.44 22.22 22.318 27.342 16 27.342 L 16 27.341 Z M 17.308 17.082 L 20.328 17.082 L 20.328 21.538 C 20.328 21.98 19.875 22.216 19.443 22.443 C 19.02 22.669 18.331 22.62 17.17 22.62 L 15.754 22.62 C 13.58 22.669 12.97 22.502 12.449 22.275 C 11.928 22.039 11.662 21.705 11.662 21.272 L 11.662 17.082 L 10.098 17.082 L 10.098 21.803 C 10.098 22.059 10.226 22.354 10.423 22.62 C 10.649 22.925 10.62 23.013 11.111 23.259 C 11.554 23.485 11.997 23.662 12.793 23.761 C 13.413 23.839 13.305 23.82 14.407 23.839 L 17.023 23.839 C 18.99 23.8 19.393 23.938 20.563 23.348 C 21.518 22.875 21.843 22.325 21.911 21.97 L 21.911 15.548 L 17.318 15.548 L 17.318 17.082 L 17.308 17.082 Z M 13.236 7.993 C 12.439 8.043 11.78 8.289 11.269 8.485 C 10.748 8.682 10.639 8.918 10.423 9.174 C 10.223 9.406 10.111 9.703 10.108 10.01 L 10.108 15.243 L 11.682 15.243 L 11.682 10.51 C 11.682 10.107 11.928 9.783 12.41 9.547 C 12.902 9.301 13.62 9.183 14.289 9.183 L 17.357 9.183 C 18.527 9.183 19.157 9.163 19.521 9.379 C 19.895 9.615 20.338 9.822 20.338 10.265 L 20.338 11.514 L 21.911 11.514 L 21.911 9.833 C 21.882 9.616 21.646 8.997 20.534 8.475 C 19.531 8.003 19.207 7.974 17.633 7.974 L 13.236 7.994 L 13.236 7.993 Z"/>
</svg>
