<?xml version="1.0" encoding="utf-8"?>
<svg fill="#d1d1d1" height="32" viewBox="0 0 32 32" width="32" xmlns="http://www.w3.org/2000/svg">
  <path d="M 10.96 6 L 10 6.993 L 10 25.007 L 10.96 26 L 21.04 26 L 22 25.007 L 22 6.993 L 21.04 6 L 10.96 6 Z M 11.92 24.013 L 11.92 7.987 L 20.08 7.987 L 20.08 24.013 L 11.92 24.013 Z M 19.054 18.843 L 19.054 16.895 L 12.996 16.895 L 12.996 18.844 L 15.083 18.844 L 15.083 21.106 L 16.967 21.106 L 16.967 18.844 L 19.054 18.843 Z M 19.054 13.261 L 16.967 13.261 L 16.967 10.998 L 15.083 10.998 L 15.083 13.261 L 12.996 13.261 L 12.996 15.209 L 19.054 15.209 L 19.054 13.261 Z" fill-rule="evenodd"/>
</svg>
