<?xml version="1.0" encoding="utf-8"?>
<svg fill="#d1d1d1" height="32" viewBox="0 0 32 32" width="32" xmlns="http://www.w3.org/2000/svg">
  <path d="M 6 11.386 L 6 12.536 C 6 12.75 6.173 12.923 6.386 12.923 L 11.7 12.923 C 12.473 12.923 12.86 13.276 12.86 13.981 C 12.86 14.494 12.473 14.814 11.7 14.942 L 6.386 14.942 C 6.172 14.942 5.999 15.116 6 15.33 L 6 16.48 C 6 16.693 6.173 16.866 6.386 16.866 L 11.7 16.866 C 12.795 16.93 13.343 17.316 13.343 18.02 C 13.343 18.724 12.795 19.078 11.7 19.078 L 6.386 19.078 C 6.173 19.078 6 19.251 6 19.464 L 6 20.614 C 6 20.828 6.173 21.001 6.386 21.001 L 11.7 21.001 C 13.246 21.001 15.565 20.521 15.565 18.116 C 15.565 17.091 15.115 16.322 14.213 15.809 C 14.857 15.232 15.179 14.591 15.179 13.886 C 15.179 12.196 13.729 11.001 11.411 11.001 L 6.387 11.001 C 6.174 11.001 6.001 11.174 6 11.387 L 6 11.386 Z M 16.435 11.386 L 16.435 12.536 C 16.435 12.75 16.608 12.923 16.821 12.923 L 19.72 12.923 C 19.933 12.923 20.106 13.096 20.106 13.31 L 20.106 20.614 C 20.106 20.827 20.279 21 20.493 21 L 21.942 21 C 22.156 21.001 22.329 20.828 22.329 20.614 L 22.329 11.386 C 22.329 11.172 22.156 10.999 21.942 11 L 16.822 11 C 16.608 10.999 16.435 11.172 16.435 11.386 Z M 23.68 11 C 23.467 11 23.294 11.173 23.294 11.386 L 23.294 12.536 C 23.294 12.75 23.467 12.923 23.68 12.923 L 25.613 12.923 C 25.826 12.923 25.999 12.75 25.999 12.537 L 25.999 11.387 C 26 11.173 25.827 11 25.613 11 L 23.68 11 Z"/>
</svg>
