<?xml version="1.0" encoding="utf-8"?>
<svg fill="#d1d1d1" width="32" height="32" viewBox="0 0 32 32" xmlns="http://www.w3.org/2000/svg">
  <path d="M 17.77 14.25 C 17.93 14.24 18.09 14.24 18.25 14.25 C 19.73 14.35 20.41 16.36 21.35 16.25 C 20.469 16.97 19.447 17.498 18.35 17.8 C 17.41 17.937 16.503 17.394 16.18 16.5 L 16.18 20.5 L 22 17.18 L 22 12 L 17.77 14.25 Z M 14.88 14.24 C 14.434 13.87 14.165 13.329 14.14 12.75 L 14.14 12.67 C 14.14 11.51 16.01 9.67 16.07 9.67 C 16.13 9.73 18 11.52 18 12.67 L 18 12.76 C 17.982 13.274 17.767 13.761 17.4 14.12 L 22 11.65 L 16 8.71 L 10 11.62 L 14.88 14.24 Z M 15.86 16.54 C 15.541 17.438 14.633 17.986 13.69 17.85 C 12.593 17.548 11.571 17.02 10.69 16.3 C 11.63 16.37 12.3 14.35 13.79 14.3 C 13.95 14.29 14.11 14.29 14.27 14.3 L 10 12 L 10 17.19 L 15.87 20.58 L 15.86 16.54 Z M 16 4 C 9.373 4 4 9.373 4 16 C 4 22.627 9.373 28 16 28 C 22.627 28 28 22.627 28 16 C 28 9.373 22.627 4 16 4 Z M 9.3 11.19 L 16 7.94 L 22.71 11.19 L 22.71 17.58 L 16 21.45 L 9.3 17.58 L 9.3 11.19 Z M 22.73 20.19 L 16.05 24.05 L 9.29 20.15 L 9.29 19.78 L 16.05 23.68 L 22.73 19.82 L 22.73 20.19 Z M 22.73 19.44 L 16.05 23.3 L 9.29 19.4 L 9.29 19 L 16.05 22.91 L 22.73 19.05 L 22.73 19.44 Z M 22.73 18.69 L 16.05 22.55 L 9.29 18.65 L 9.29 18.28 L 16.05 22.19 L 22.73 18.33 L 22.73 18.69 Z"/>
</svg>
