<?xml version="1.0" encoding="utf-8"?>
<svg fill="#d1d1d1" height="32" viewBox="0 0 32 32" width="32" xmlns="http://www.w3.org/2000/svg">
  <path d="M 15.598 11.857 L 15.673 11.5 L 8.34 11.5 L 6.162 20.5 L 8.558 20.5 L 10.204 13.214 L 13.136 13.214 L 11.389 20.5 L 13.568 20.5 L 15.281 13.214 L 15.311 13.214 L 15.571 11.986 L 15.601 11.857 L 15.598 11.857 Z M 19.739 11.5 L 17.561 20.429 L 22.128 20.429 C 22.678 20.432 23.224 20.35 23.749 20.186 C 24.616 19.911 25.671 19.334 25.839 18.143 L 26.492 18.143 L 26.71 17.286 L 25.91 17.286 C 25.91 17.286 25.983 16 24.314 15.786 C 24.314 15.786 25.766 15.357 25.984 14.571 L 26.71 14.571 L 27 13.714 L 26.201 13.714 C 26.201 13.714 26.491 11.643 23.37 11.5 L 19.739 11.5 Z M 7.323 13.214 L 7.76 11.5 L 5.436 11.5 L 5 13.214 L 7.323 13.214 Z M 17.271 19.5 L 18.069 15.857 L 16.182 11.643 L 15.382 15.071 L 17.271 19.5 Z M 22.825 15.071 L 20.974 15.071 L 21.409 13.143 L 22.825 13.143 C 23.085 13.143 23.335 13.244 23.518 13.425 C 23.701 13.606 23.805 13.851 23.805 14.107 C 23.805 14.363 23.702 14.608 23.518 14.789 C 23.334 14.97 23.085 15.072 22.825 15.071 Z M 22.336 18.786 L 20.11 18.786 L 20.634 16.571 L 22.336 16.571 C 22.99 16.571 23.515 17.067 23.515 17.679 C 23.515 18.29 22.987 18.786 22.336 18.786 Z" fill-rule="evenodd"/>
</svg>
