<?xml version="1.0" encoding="utf-8"?>
<svg fill="#d1d1d1" width="32" height="32" viewBox="0 0 32 32" xmlns="http://www.w3.org/2000/svg">
  <path d="M 18.525 14.464 C 18.947 14.465 19.212 14.009 19.001 13.643 C 18.912 13.487 18.752 13.385 18.573 13.37 L 14.733 13.37 L 14.733 12.41 C 14.6 11.94 14.009 11.791 13.668 12.141 C 13.595 12.216 13.542 12.309 13.513 12.41 L 13.513 13.37 L 12.486 13.37 C 12.065 13.37 11.802 13.826 12.012 14.191 C 12.11 14.36 12.291 14.464 12.486 14.464 L 13.514 14.464 L 13.514 17.804 C 13.524 19.553 14.942 20.968 16.691 20.973 C 17.392 20.962 18.068 20.715 18.611 20.272 L 18.841 20.08 C 19.246 19.796 19.192 19.18 18.743 18.971 C 18.489 18.852 18.186 18.912 17.997 19.12 L 17.824 19.264 C 17.262 19.729 16.48 19.819 15.827 19.494 C 15.16 19.176 14.735 18.504 14.733 17.766 L 14.733 14.464 L 18.525 14.464 Z M 24.765 18.189 C 24.818 17.929 24.65 17.675 24.39 17.622 L 24.15 17.622 C 23.93 17.621 23.739 17.773 23.69 17.987 C 22.405 23.606 15.519 25.728 11.295 21.806 C 8.943 19.622 8.245 16.182 9.558 13.254 C 10.253 11.576 11.586 10.244 13.264 9.549 C 16.61 8.055 20.545 9.181 22.595 12.218 C 22.741 12.431 23.03 12.49 23.248 12.352 L 23.334 12.294 C 23.574 12.142 23.647 11.826 23.498 11.584 C 21.269 8.303 17.093 6.961 13.37 8.33 C 11.045 9.129 9.209 10.94 8.378 13.254 C 5.996 19.416 11.178 25.846 17.705 24.828 C 21.202 24.283 24.006 21.646 24.765 18.189 Z M 16.874 4.95 L 15.914 4.95 C 8.49 5.262 3.327 12.457 5.41 19.59 C 5.498 19.879 5.803 20.043 6.092 19.955 L 6.169 19.955 C 6.409 19.839 6.53 19.568 6.457 19.312 C 4.224 11.665 11.107 4.468 18.846 6.358 C 26.586 8.248 29.377 17.807 23.87 23.565 C 21.366 26.183 17.674 27.301 14.137 26.512 C 13.941 26.47 13.739 26.545 13.618 26.704 C 13.359 27.027 13.53 27.51 13.935 27.597 C 22.593 29.183 29.721 20.802 26.766 12.511 C 25.25 8.259 21.375 5.297 16.874 4.95 Z"/>
</svg>
