<?xml version="1.0" encoding="utf-8"?>
<svg fill="#d1d1d1" width="32" height="32" viewBox="0 0 32 32" xmlns="http://www.w3.org/2000/svg">
  <path d="M 15.995 27.228 C 9.797 27.228 4.772 22.203 4.772 16.005 C 4.772 9.807 9.797 4.782 15.995 4.782 C 22.193 4.782 27.218 9.807 27.218 16.005 C 27.218 22.203 22.193 27.228 15.995 27.228 Z M 15.995 4.067 C 9.412 4.067 4.057 9.422 4.057 16.005 C 4.057 22.588 9.412 27.943 15.995 27.943 C 22.578 27.943 27.933 22.588 27.933 16.005 C 27.933 9.422 22.578 4.067 15.995 4.067 Z M 20.199 20.275 L 19.576 22.974 L 19.426 23.627 L 18.756 23.627 L 15.311 23.625 L 15.297 23.625 C 13.916 23.602 12.832 23.235 12.121 22.587 C 12.735 23.67 14.039 24.297 15.859 24.327 L 15.873 24.327 L 19.317 24.329 L 19.987 24.329 L 20.138 23.676 L 20.761 20.977 L 20.275 19.946 L 20.199 20.275 Z M 19.116 8.704 L 18.624 7.681 L 18.554 8.001 L 18.087 10.128 L 18.803 10.128 L 19.116 8.704 Z M 21.603 11.164 L 20.983 13.79 L 20.829 14.438 L 17.096 14.438 L 16.148 18.766 C 16.128 18.89 16.116 19.016 16.116 19.086 C 16.116 19.147 16.123 19.186 16.129 19.205 C 16.2 19.232 16.276 19.245 16.352 19.243 L 16.76 19.243 L 17.658 15.141 L 21.391 15.141 L 21.544 14.492 L 22.164 11.867 L 21.682 10.831 L 21.602 11.165 L 21.603 11.164 Z M 12.341 14.438 L 9.74 14.438 L 10.636 15.141 L 12.188 15.141 L 12.341 14.438 Z M 16.434 20.086 L 16.339 20.086 C 15.615 20.067 15.273 19.69 15.273 19.086 C 15.273 18.942 15.297 18.751 15.321 18.608 L 16.419 13.596 L 20.163 13.596 L 20.783 10.971 L 17.039 10.971 L 17.731 7.821 L 14.677 7.821 L 13.984 10.971 L 10.67 10.971 L 10.074 13.596 L 13.388 13.596 L 12.098 19.491 C 12.028 19.777 12.003 20.111 12.003 20.278 C 12.003 21.96 13.33 22.75 15.311 22.783 L 18.755 22.784 L 19.378 20.086 L 16.434 20.086 Z"/>
</svg>
