<?xml version="1.0" encoding="utf-8"?>
<svg fill="#d1d1d1" viewBox="0 0 32 32" xmlns="http://www.w3.org/2000/svg">
  <path d="M 10.123 7 C 9.811 8.658 7.935 8.762 7.935 8.762 C 3.56 23.062 15.958 27 15.958 27 C 29.398 21.508 23.876 8.658 23.876 8.658 C 22.21 8.554 21.896 7 21.896 7 L 10.123 7 Z M 21.273 8.023 L 21.285 8.282 C 21.305 8.48 21.368 8.67 21.47 8.841 C 21.66 9.159 21.97 9.357 22.456 9.389 L 22.626 9.4 L 22.691 9.558 C 22.744 9.694 22.794 9.83 22.841 9.968 C 22.951 10.293 23.061 10.664 23.163 11.073 C 23.782 13.553 23.855 16.172 23.026 18.633 C 22.022 21.613 19.78 24.008 16.074 25.593 L 15.979 25.633 L 15.881 25.602 C 15.768 25.564 15.656 25.522 15.546 25.477 C 15.254 25.359 14.968 25.229 14.687 25.087 C 13.752 24.614 12.88 24.026 12.092 23.335 C 10.599 22.024 9.466 20.385 8.84 18.385 C 8.077 15.945 8.11 13.083 9.079 9.774 L 9.131 9.596 L 9.315 9.578 C 9.389 9.567 9.463 9.552 9.535 9.532 C 9.716 9.482 9.888 9.406 10.047 9.306 C 10.407 9.076 10.651 8.736 10.739 8.247 L 10.753 8.023 L 21.273 8.023 Z M 11.228 8.568 C 11.095 9.065 10.779 9.492 10.343 9.765 C 10.102 9.918 9.837 10.028 9.558 10.089 C 8.665 13.229 8.646 15.929 9.364 18.223 C 9.958 20.122 11.034 21.678 12.454 22.926 C 13.244 23.619 14.09 24.173 14.936 24.601 C 15.267 24.769 15.607 24.918 15.955 25.049 C 19.46 23.526 21.561 21.266 22.506 18.459 C 23.297 16.111 23.226 13.593 22.631 11.205 C 22.522 10.769 22.392 10.338 22.241 9.915 C 21.665 9.833 21.254 9.545 20.999 9.121 C 20.897 8.95 20.823 8.765 20.779 8.571 L 11.228 8.568 Z M 18.588 14.15 C 19.061 14.15 19.445 14.532 19.448 15.005 L 19.448 18.58 C 19.445 19.053 19.061 19.435 18.588 19.435 L 13.431 19.435 C 12.958 19.435 12.574 19.053 12.571 18.58 L 12.571 15.005 C 12.574 14.532 12.958 14.15 13.431 14.15 L 13.654 14.15 C 13.683 12.717 14.449 12.144 15.091 11.916 C 15.557 11.759 16.057 11.736 16.535 11.85 C 18.18 12.218 18.315 13.542 18.285 14.15 L 18.588 14.15 Z M 16.583 18.192 L 16.28 16.685 C 16.756 16.48 16.831 15.837 16.416 15.527 C 16.298 15.44 16.156 15.393 16.01 15.394 C 15.534 15.189 15.015 15.576 15.075 16.09 C 15.115 16.428 15.4 16.683 15.74 16.685 L 15.437 18.192 L 16.583 18.192 Z M 14.395 14.15 L 17.451 14.15 C 17.481 12.403 15.854 12.492 15.854 12.492 C 14.621 12.574 14.424 13.682 14.395 14.15 Z" fill-rule="evenodd"/>
</svg>
