<?xml version="1.0" encoding="utf-8"?>
<svg fill="#d1d1d1" width="32" height="32" viewBox="0 0 32 32" xmlns="http://www.w3.org/2000/svg">
  <path d="M 16.006 5.6 C 16.4 5.6 16.787 5.703 17.128 5.9 L 24.288 10.034 C 24.983 10.435 25.41 11.177 25.41 11.979 L 25.41 20.413 C 25.41 21.215 24.983 21.956 24.288 22.357 L 17.127 26.492 C 16.432 26.893 15.577 26.893 14.882 26.492 L 7.72 22.357 C 7.025 21.956 6.597 21.215 6.597 20.413 L 6.597 11.979 C 6.597 11.177 7.025 10.436 7.72 10.034 L 14.88 5.9 C 15.222 5.703 15.61 5.599 16.003 5.599 L 16.005 5.599 L 16.006 5.6 Z M 16.004 4.039 C 15.336 4.039 14.68 4.215 14.102 4.549 L 6.94 8.682 C 5.764 9.363 5.039 10.619 5.037 11.978 L 5.037 20.412 C 5.039 21.771 5.764 23.027 6.94 23.708 L 14.1 27.842 C 15.278 28.522 16.729 28.522 17.906 27.842 L 25.067 23.708 C 26.243 23.027 26.968 21.771 26.97 20.412 L 26.97 11.978 C 26.968 10.619 26.243 9.363 25.067 8.682 L 17.907 4.547 C 17.328 4.213 16.671 4.037 16.003 4.037 L 16.004 4.039 Z M 20.894 15.949 L 19.232 15.949 C 19.065 15.949 18.911 16.038 18.827 16.183 L 17.964 17.676 C 17.88 17.821 17.88 17.999 17.964 18.144 L 19 19.936 C 19.853 18.724 20.494 17.376 20.895 15.949 L 20.894 15.949 Z M 15.127 17.519 L 16.885 17.519 C 17.052 17.519 17.206 17.43 17.29 17.286 L 18.152 15.793 C 18.236 15.648 18.236 15.47 18.152 15.325 L 17.29 13.832 C 17.206 13.687 17.052 13.598 16.885 13.598 L 15.127 13.598 C 14.96 13.598 14.805 13.687 14.721 13.832 L 13.86 15.325 C 13.776 15.47 13.776 15.648 13.86 15.793 L 14.721 17.286 C 14.805 17.431 14.96 17.52 15.127 17.52 L 15.127 17.519 Z M 12.778 15.169 C 12.945 15.169 13.1 15.08 13.184 14.935 L 14.045 13.442 C 14.129 13.297 14.129 13.119 14.045 12.974 L 12.971 11.113 L 10.874 12.257 C 10.721 12.341 10.627 12.503 10.631 12.678 C 10.648 13.516 10.746 14.35 10.922 15.169 L 12.778 15.169 Z M 19.233 15.169 L 21.089 15.169 C 21.265 14.349 21.363 13.516 21.38 12.678 C 21.384 12.503 21.29 12.341 21.136 12.257 L 19.04 11.113 L 17.966 12.974 C 17.882 13.119 17.882 13.297 17.966 13.442 L 18.828 14.935 C 18.912 15.08 19.066 15.169 19.233 15.169 Z M 16.23 9.579 C 16.09 9.503 15.922 9.503 15.782 9.579 L 13.656 10.739 L 14.722 12.584 C 14.806 12.729 14.96 12.818 15.127 12.818 L 16.885 12.818 C 17.052 12.818 17.207 12.729 17.29 12.584 L 18.356 10.739 L 16.23 9.579 Z M 15.127 18.3 C 14.96 18.3 14.805 18.389 14.721 18.534 L 13.521 20.614 C 14.167 21.417 14.905 22.142 15.72 22.773 C 15.889 22.903 16.124 22.903 16.293 22.773 C 17.107 22.141 17.845 21.416 18.491 20.613 L 17.291 18.534 C 17.207 18.389 17.053 18.3 16.886 18.3 L 15.126 18.3 L 15.127 18.3 Z M 11.116 15.949 C 11.517 17.376 12.158 18.724 13.011 19.936 L 14.046 18.144 C 14.13 17.999 14.13 17.821 14.046 17.676 L 13.184 16.183 C 13.1 16.038 12.946 15.949 12.779 15.949 L 11.116 15.949 Z"/>
</svg>
