<?xml version="1.0" encoding="utf-8"?>
<svg fill="#d1d1d1" viewBox="0 0 32 32" xmlns="http://www.w3.org/2000/svg">
  <path d="M 17.7 15.4 L 21.2 15.4 L 21.2 12.6 L 10.8 12.6 L 10.8 15.4 L 14.3 15.4 L 14.3 25.856 C 15.628 26.083 16.988 26.042 18.3 25.734 L 18.3 22.824 C 18.103 22.891 17.902 22.949 17.7 22.998 L 17.7 15.4 Z M 19.1 25.51 C 23.105 24.205 26 20.44 26 16 C 26 10.477 21.523 6 16 6 C 10.477 6 6 10.477 6 16 C 6 20.44 8.895 24.205 12.9 25.51 L 12.9 22.5 C 7.897 20.114 7.354 13.207 11.922 10.068 C 16.49 6.929 22.743 9.911 23.178 15.437 C 23.412 18.408 21.79 21.217 19.1 22.5 L 19.1 25.51 Z" fill-rule="evenodd"/>
</svg>
