<?xml version="1.0" encoding="utf-8"?>
<svg fill="#d1d1d1" width="32" height="32" viewBox="0 0 32 32" xmlns="http://www.w3.org/2000/svg">
  <path d="M 12.71 13.037 C 12.456 13.037 12.25 13.243 12.25 13.497 L 12.25 18.634 L 12.257 18.706 C 12.29 18.866 12.433 18.981 12.597 18.981 L 13.6 18.981 C 13.797 18.981 13.947 18.821 13.947 18.634 L 13.947 15.972 L 15.709 17.078 C 15.859 17.172 16.047 17.172 16.197 17.078 L 17.969 15.972 L 17.969 18.634 C 17.969 18.831 18.129 18.981 18.316 18.981 L 19.328 18.981 C 19.516 18.98 19.666 18.822 19.656 18.634 L 19.656 13.497 C 19.648 13.14 19.256 12.926 18.951 13.111 C 18.945 13.115 18.94 13.118 18.934 13.122 L 16.141 15.044 C 16.027 15.129 15.87 15.129 15.756 15.044 L 12.963 13.122 C 12.89 13.066 12.801 13.036 12.709 13.037 L 12.71 13.037 Z M 5.368 13 L 4.356 13 C 4.162 12.999 4.004 13.153 4 13.347 L 4 18.512 L 4.007 18.595 C 4.047 18.813 4.237 18.972 4.459 18.972 L 10.741 18.972 C 10.995 18.971 11.2 18.766 11.2 18.512 L 11.2 13.347 C 11.201 13.155 11.045 12.999 10.853 13 L 9.87 13 C 9.678 12.999 9.522 13.155 9.523 13.347 L 9.523 17.275 L 5.716 17.275 L 5.716 13.347 L 5.708 13.275 C 5.674 13.114 5.532 12.999 5.368 13 Z M 27.465 13 L 21.183 13 C 20.929 13.001 20.724 13.206 20.724 13.46 L 20.724 18.625 L 20.731 18.696 C 20.765 18.857 20.907 18.972 21.071 18.972 L 22.083 18.972 C 22.28 18.972 22.43 18.812 22.43 18.625 L 22.43 14.922 L 22.438 14.862 C 22.466 14.765 22.554 14.698 22.655 14.697 L 26.002 14.697 L 26.062 14.705 C 26.159 14.733 26.226 14.821 26.227 14.922 L 26.227 18.625 L 26.234 18.696 C 26.268 18.857 26.41 18.972 26.574 18.972 L 27.586 18.972 L 27.655 18.965 C 27.813 18.929 27.925 18.787 27.924 18.625 L 27.924 13.459 C 27.923 13.205 27.718 13 27.464 13 L 27.465 13 Z M 24.821 15.784 L 23.818 15.784 C 23.629 15.782 23.474 15.933 23.471 16.122 L 23.471 17.153 C 23.471 17.35 23.631 17.5 23.818 17.5 L 24.821 17.5 C 25.018 17.5 25.168 17.34 25.168 17.153 L 25.168 16.131 C 25.169 15.939 25.013 15.783 24.821 15.784 Z"/>
</svg>
