<?xml version="1.0" encoding="utf-8"?>
<svg fill="#d1d1d1" width="32" height="32" viewBox="0 0 32 32" xmlns="http://www.w3.org/2000/svg">
  <path d="M 6.489 3.329 L 6.817 3.833 C 8.887 6.363 11.918 10.366 12.038 10.531 C 12.238 10.809 12.163 11.058 11.819 11.254 C 11.628 11.363 11.234 11.473 11.038 11.473 C 10.815 11.473 10.564 11.366 10.381 11.193 C 10.332 11.141 10.287 11.085 10.247 11.026 L 10.161 10.907 C 9.891 10.523 9.381 9.747 8.528 8.425 C 7.965 7.543 6.84 5.862 6.84 5.862 C 6.943 6.06 7.309 6.714 8.434 8.728 C 9.48 10.6 9.834 11.261 9.834 11.35 C 9.834 11.53 9.784 11.624 9.562 11.872 C 9.192 12.285 9.027 12.749 8.907 13.709 C 8.773 14.786 8.397 15.546 7.353 16.847 C 6.743 17.609 6.643 17.749 6.488 18.056 C 6.294 18.442 6.241 18.659 6.219 19.147 C 6.196 19.663 6.241 19.997 6.399 20.49 C 6.537 20.922 6.681 21.208 7.049 21.778 C 7.367 22.271 7.55 22.637 7.55 22.78 C 7.55 22.894 7.572 22.894 8.065 22.783 C 9.244 22.517 10.201 22.048 10.74 21.474 C 11.073 21.119 11.151 20.923 11.154 20.436 C 11.155 20.118 11.144 20.051 11.058 19.868 C 10.918 19.57 10.663 19.322 10.101 18.938 C 9.364 18.434 9.05 18.028 8.963 17.471 C 8.891 17.014 8.974 16.691 9.382 15.837 C 9.803 14.953 9.908 14.577 9.979 13.686 C 10.024 13.11 10.087 12.883 10.253 12.701 C 10.425 12.511 10.581 12.446 11.008 12.388 C 11.704 12.293 12.147 12.113 12.511 11.778 C 12.827 11.486 12.959 11.205 12.979 10.783 L 12.995 10.463 L 12.818 10.257 L 12.798 10.233 C 12.466 9.853 10.346 7.57 6.489 3.329 Z M 16.048 20.72 C 15.594 20.604 14.777 20.572 14.286 20.652 C 13.147 20.837 11.898 21.439 10.893 22.287 L 10.594 22.54 L 10.857 22.58 C 12.228 22.795 12.597 22.985 13.549 23.965 C 14.096 24.529 14.281 24.655 14.735 24.77 C 15.402 24.94 16.06 24.628 16.285 24.033 C 16.386 23.767 16.373 23.326 16.257 23.105 C 15.982 22.579 15.181 22.409 14.794 22.795 C 14.471 23.115 14.565 23.599 14.966 23.683 C 15.058 23.702 15.056 23.698 14.943 23.647 C 14.767 23.567 14.691 23.457 14.69 23.282 C 14.688 22.872 15.158 22.641 15.595 22.838 C 15.915 22.982 16.043 23.171 16.043 23.502 C 16.048 24.007 15.605 24.399 15.104 24.333 C 14.808 24.286 14.535 24.143 14.327 23.927 C 13.882 23.423 14.055 22.629 14.677 22.324 C 15.15 22.092 15.779 22.149 16.267 22.469 C 16.827 22.836 17.066 23.171 17.549 24.272 C 17.706 24.631 17.909 25.034 17.999 25.169 C 18.455 25.854 19.003 26.189 19.663 26.189 C 20.027 26.189 20.301 26.123 20.646 25.951 C 20.902 25.823 21.264 25.581 21.238 25.554 C 21.157 25.569 21.077 25.593 21.002 25.627 C 20.282 25.908 19.549 25.889 19.124 25.577 C 18.856 25.382 18.64 24.991 18.529 24.503 C 18.477 24.227 18.43 23.951 18.388 23.673 C 18.24 22.731 18.098 22.307 17.767 21.821 C 17.427 21.324 16.777 20.906 16.048 20.72 Z M 20.89 15.765 C 20.87 15.765 20.836 15.826 20.815 15.9 C 20.618 16.597 20.7 17.343 21.06 18.116 L 21.125 18.251 C 21.291 18.584 21.507 18.927 22.155 19.898 C 22.786 20.845 23.099 21.405 23.252 21.864 C 23.502 22.614 23.465 23.288 23.134 23.98 C 23.055 24.144 23.003 24.277 23.017 24.277 C 23.031 24.277 23.16 24.213 23.305 24.134 C 24.289 23.6 24.98 22.684 25.277 21.518 C 25.371 21.148 25.408 20.265 25.345 19.898 C 25.233 19.25 25.001 18.718 24.625 18.251 C 24.197 17.718 23.567 17.251 22.462 16.649 C 21.577 16.167 21.245 15.979 21.079 15.867 C 21.021 15.824 20.958 15.789 20.89 15.765 Z M 7.152 19.103 C 7.152 18.905 7.507 18.833 7.735 18.985 C 7.977 19.145 8.054 19.475 7.909 19.731 C 7.771 19.976 7.506 20.057 7.319 19.911 C 7.204 19.82 7.196 19.686 7.297 19.534 C 7.397 19.384 7.387 19.311 7.26 19.246 C 7.185 19.207 7.152 19.163 7.152 19.103 Z M 19.62 15.133 L 19.689 15.34 C 19.744 15.528 19.787 15.719 19.819 15.912 C 20.036 17.202 19.359 18.245 18.041 18.649 C 17.901 18.692 17.352 18.799 16.821 18.888 C 15.743 19.068 15.263 19.194 14.78 19.427 C 14.437 19.592 14.023 19.839 14.047 19.864 C 14.107 19.861 14.166 19.847 14.221 19.822 C 14.83 19.608 15.508 19.498 16.537 19.444 C 16.946 19.423 17.411 19.389 17.57 19.369 C 18.488 19.253 19.123 18.975 19.618 18.471 C 19.893 18.191 20.057 17.931 20.188 17.563 C 20.273 17.329 20.284 17.243 20.285 16.829 C 20.285 16.408 20.275 16.331 20.185 16.072 C 20.065 15.732 19.925 15.477 19.748 15.278 L 19.62 15.134 L 19.62 15.133 Z M 18.077 11.401 C 18.067 11.401 18.059 11.593 18.059 11.828 C 18.059 13.424 19.013 14.37 21.719 15.46 C 23.522 16.185 24.259 16.56 24.809 17.032 C 25.291 17.447 25.579 18.001 25.606 18.569 C 25.611 18.676 25.631 18.753 25.651 18.747 C 25.725 18.723 26.001 18.104 26.092 17.76 C 26.207 17.325 26.248 16.5 26.178 16.06 C 25.934 14.546 24.912 13.434 23.26 12.886 C 22.74 12.714 22.176 12.596 21.175 12.449 C 19.474 12.201 18.859 12.013 18.31 11.573 C 18.236 11.51 18.159 11.453 18.077 11.401 Z M 14.273 12.636 C 14.071 12.533 13.642 12.492 13.434 12.556 C 13.107 12.656 12.79 13.003 12.691 13.366 C 12.631 13.587 12.665 13.976 12.755 14.096 C 12.9 14.29 13.041 14.341 13.421 14.338 C 14.165 14.333 14.811 14.014 14.887 13.615 C 14.949 13.288 14.664 12.835 14.273 12.635 L 14.273 12.636 Z M 13.24 13.09 C 13.24 12.739 13.802 12.55 14.173 12.778 C 14.368 12.897 14.419 13.073 14.303 13.236 C 14.225 13.348 13.98 13.456 13.801 13.456 C 13.533 13.456 13.24 13.264 13.24 13.09 Z M 13.382 5.811 C 12.963 5.711 12.355 5.658 12.098 5.697 C 11.964 5.717 11.976 5.723 12.261 5.767 C 13.301 5.929 14.112 6.341 14.939 7.127 C 15.302 7.472 15.668 7.901 16.259 8.677 C 17.591 10.424 18.156 10.911 19.277 11.277 C 19.935 11.491 20.6 11.591 21.774 11.653 C 23.074 11.722 23.564 11.826 24.029 12.133 C 24.286 12.303 24.487 12.515 24.687 12.825 L 24.804 13.005 L 24.779 12.807 C 24.686 12.047 24.143 10.977 23.451 10.194 L 23.325 10.051 L 23.261 10.338 C 23.101 11.061 22.755 11.58 22.433 11.581 C 22.274 11.58 22.13 11.488 22.061 11.345 C 21.99 11.175 21.996 11.113 22.101 10.915 C 22.296 10.55 22.344 10.062 22.248 9.425 C 22.221 9.241 22.18 9.068 22.158 9.042 C 22.088 8.957 21.526 8.63 21.17 8.466 C 19.877 7.868 18.33 7.674 16.81 7.919 L 16.45 7.977 L 16.198 7.696 C 15.248 6.639 14.359 6.044 13.382 5.811 Z M 22.781 6.098 C 22.773 6.098 22.72 6.2 22.664 6.324 C 22.522 6.637 22.452 6.98 22.422 7.5 C 22.403 7.835 22.384 7.95 22.345 7.964 C 22.286 7.987 22.207 7.963 21.725 7.778 C 21.402 7.653 20.598 7.418 20.575 7.442 C 20.569 7.448 20.737 7.53 20.949 7.624 C 21.161 7.718 21.505 7.896 21.713 8.02 C 22.538 8.508 22.678 8.792 22.679 9.976 C 22.679 10.566 22.672 10.643 22.599 10.821 C 22.501 11.06 22.519 11.105 22.626 10.894 C 22.826 10.504 22.91 10.112 22.922 9.504 C 22.929 9.114 22.941 9.031 22.996 8.976 C 23.056 8.916 23.071 8.916 23.168 8.966 C 23.313 9.04 23.968 9.562 24.254 9.829 L 24.487 10.048 L 24.254 9.742 C 24.126 9.573 23.772 9.182 23.467 8.87 C 22.819 8.207 22.767 8.119 22.677 7.505 C 22.607 7.021 22.623 6.605 22.727 6.302 C 22.754 6.237 22.772 6.168 22.781 6.098 Z M 11.979 6.308 L 11.955 6.591 C 11.878 7.505 12.236 8.728 12.815 9.525 C 13.265 10.143 13.96 10.623 14.475 10.67 C 14.811 10.7 14.912 10.595 14.76 10.373 C 14.548 10.064 14.288 9.589 14.22 9.385 C 14.14 9.111 14.071 8.834 14.013 8.555 C 13.772 7.43 13.534 6.991 12.986 6.658 C 12.711 6.509 12.417 6.399 12.111 6.332 L 11.979 6.308 Z"/>
</svg>
