<?xml version="1.0" encoding="utf-8"?>
<svg fill="#d1d1d1" height="32" viewBox="0 0 32 32" width="32" xmlns="http://www.w3.org/2000/svg">
  <g fill-rule="evenodd">
    <path d="M 13.288 22.732 C 14.154 22.864 15.028 22.93 15.905 22.929 C 18.881 22.929 21.582 22.186 23.565 20.981 C 21.131 17.567 17.478 12.799 13.652 11.435 C 12.76 11.117 11.819 10.954 10.872 10.955 C 9.87 10.955 9.046 11.145 8.394 11.517 C 7.741 11.89 7.417 12.364 7.417 12.925 C 7.416 13.137 7.469 13.347 7.574 13.535 C 7.694 13.738 7.858 13.916 8.054 14.057 C 8.599 14.447 9.776 14.694 11.59 14.805 C 12.422 14.852 13.07 14.895 13.527 14.954 C 14.872 15.098 15.937 15.513 16.725 16.196 C 17.51 16.881 17.903 17.718 17.903 18.718 C 17.903 19.904 17.366 20.882 16.291 21.652 C 15.481 22.228 14.481 22.588 13.291 22.732 L 13.288 22.732 Z M 9.009 20.79 C 9.973 21.145 10.992 21.329 12.02 21.335 C 13.246 21.335 14.242 21.086 15.007 20.588 C 15.772 20.09 16.156 19.449 16.156 18.666 C 16.156 18.043 15.881 17.532 15.331 17.132 C 13.701 15.942 9.737 16.541 7.582 15.605 C 6.966 15.318 6.494 14.953 6.175 14.505 C 5.92 14.151 5.761 13.737 5.712 13.304 C 3.987 16.364 5.516 19.514 9.009 20.79 Z M 25.912 18.875 C 26.569 17.985 26.936 16.994 26.936 15.948 C 26.936 14.903 26.569 13.91 25.912 13.021 L 25.912 18.875 Z M 24.263 11.415 C 22.24 9.936 19.244 9 15.905 9 C 14.531 8.997 13.162 9.161 11.828 9.49 C 12.608 9.564 13.378 9.724 14.121 9.967 C 18.424 11.365 21.925 15.55 24.268 18.877 L 24.263 11.415 Z"/>
    <path d="M25.912 18.875v-5.854c.657.889 1.024 1.882 1.024 2.927 0 1.046-.367 2.037-1.024 2.927zm-1.649-7.46l.005 7.461c-2.343-3.326-5.844-7.511-10.147-8.909a10.616 10.616 0 00-2.293-.477A16.87 16.87 0 0115.905 9c3.34 0 6.335.936 8.358 2.415z" fill-rule="nonzero" opacity=".5"/>
  </g>
</svg>
