<?xml version="1.0" encoding="utf-8"?>
<svg fill="#d1d1d1" viewBox="0 0 32 32" xmlns="http://www.w3.org/2000/svg">
  <path d="M 22.5 19.154 C 22.5 16.631 20.924 15.206 17.237 14.318 L 17.237 9.878 C 18.377 10.112 19.468 10.603 20.535 11.374 L 21.894 9.178 C 20.555 8.198 18.983 7.585 17.334 7.402 L 17.334 6 L 15.224 6 L 15.224 7.355 C 12.192 7.589 10.131 9.318 10.131 11.841 C 10.131 14.481 11.78 15.766 15.321 16.654 L 15.321 21.234 C 13.744 21 12.435 20.299 11.052 19.224 L 9.5 21.35 C 11.161 22.629 13.141 23.429 15.224 23.664 L 15.224 26 L 17.334 26 L 17.334 23.687 C 20.414 23.43 22.5 21.724 22.5 19.154 Z M 15.32 13.827 C 13.453 13.29 12.993 12.659 12.993 11.677 C 12.993 10.65 13.793 9.832 15.321 9.715 L 15.32 13.827 Z M 19.638 19.317 C 19.638 20.439 18.765 21.21 17.237 21.327 L 17.237 17.098 C 19.129 17.636 19.638 18.266 19.638 19.318 L 19.638 19.317 Z" fill-rule="evenodd"/>
</svg>
