<?xml version="1.0" encoding="utf-8"?>
<svg fill="#d1d1d1" width="32" height="32" viewBox="0 0 32 32" xmlns="http://www.w3.org/2000/svg">
  <path d="M 19.352 5.56 C 19.108 5.44 18.864 5.56 18.804 5.803 C 18.743 5.864 18.743 5.925 18.743 6.046 L 18.743 6.896 L 18.753 7 C 18.805 7.206 18.932 7.385 19.108 7.503 C 23.862 9.203 26.3 14.483 24.532 19.156 C 23.618 21.706 21.607 23.647 19.108 24.558 C 18.864 24.679 18.743 24.861 18.743 25.165 L 18.743 26.015 L 18.748 26.103 C 18.768 26.3 18.914 26.461 19.108 26.5 C 19.169 26.5 19.291 26.5 19.352 26.44 C 25.123 24.638 28.323 18.482 26.482 12.723 C 25.386 9.263 22.704 6.653 19.352 5.561 L 19.352 5.56 Z M 12.892 5.5 C 12.831 5.5 12.709 5.5 12.648 5.56 C 6.877 7.362 3.677 13.518 5.518 19.277 C 6.614 22.677 9.235 25.287 12.648 26.379 C 12.892 26.5 13.136 26.379 13.196 26.136 C 13.257 26.076 13.257 26.014 13.257 25.893 L 13.257 25.043 L 13.247 24.963 C 13.205 24.794 13.048 24.601 12.892 24.497 C 8.138 22.797 5.7 17.517 7.468 12.844 C 8.382 10.294 10.393 8.353 12.892 7.442 C 13.136 7.321 13.257 7.139 13.257 6.835 L 13.257 5.985 L 13.252 5.897 C 13.232 5.7 13.086 5.539 12.892 5.5 Z M 16.427 8.656 L 15.512 8.656 L 15.424 8.664 C 15.224 8.704 15.078 8.876 15.024 9.142 L 15.024 10.538 L 14.817 10.57 C 13.109 10.874 12.039 12.053 12.039 13.512 C 12.039 15.514 13.257 16.303 15.817 16.607 C 17.524 16.91 18.072 17.275 18.072 18.246 C 18.072 19.216 17.219 19.884 16.061 19.884 C 14.476 19.884 13.928 19.217 13.745 18.306 C 13.685 18.064 13.501 17.942 13.318 17.942 L 12.282 17.942 L 12.203 17.949 C 11.999 17.982 11.851 18.16 11.856 18.367 L 11.856 18.427 L 11.889 18.607 C 12.179 20.031 13.155 21.05 15.086 21.341 L 15.086 22.798 L 15.094 22.886 C 15.134 23.084 15.307 23.23 15.574 23.283 L 16.488 23.283 L 16.576 23.275 C 16.776 23.235 16.922 23.063 16.976 22.798 L 16.976 21.34 L 17.183 21.3 C 18.896 20.938 20.023 19.699 20.023 18.123 C 20.023 15.999 18.743 15.271 16.183 14.967 C 14.354 14.724 13.989 14.239 13.989 13.389 C 13.989 12.539 14.599 11.993 15.817 11.993 C 16.914 11.993 17.524 12.357 17.828 13.268 C 17.893 13.448 18.063 13.569 18.255 13.571 L 19.23 13.571 L 19.309 13.565 C 19.514 13.532 19.663 13.353 19.657 13.146 L 19.657 13.086 L 19.62 12.913 C 19.312 11.638 18.221 10.704 16.914 10.597 L 16.914 9.142 L 16.906 9.054 C 16.866 8.855 16.693 8.709 16.426 8.656 L 16.427 8.656 Z"/>
</svg>
