<?xml version="1.0" encoding="utf-8"?>
<svg fill="#d1d1d1" height="32" viewBox="0 0 32 32" width="32" xmlns="http://www.w3.org/2000/svg">
  <path d="M 14.353 22.298 L 17.647 22.298 L 17.647 9.028 L 21.5 9.028 L 21.5 6 L 10.5 6 L 10.5 9.028 L 14.353 9.028 L 14.353 22.298 Z M 13.466 26 L 18.57 26 C 20.558 26 21.5 25.044 21.5 23.022 L 21.5 9.896 L 18.607 9.896 L 18.607 22.888 C 18.607 23.208 18.502 23.314 18.188 23.314 L 13.848 23.314 C 13.535 23.314 13.43 23.207 13.43 22.888 L 13.43 9.896 L 10.537 9.896 L 10.537 23.022 C 10.537 25.044 11.477 26 13.467 26 L 13.466 26 Z" fill-rule="evenodd"/>
</svg>
