<?xml version="1.0" encoding="utf-8"?>
<svg fill="#d1d1d1" viewBox="0 0 32 32" xmlns="http://www.w3.org/2000/svg">
  <path d="M 6 8 L 6 8.01 C 7.175 13.24 8.35 18.47 9.527 23.698 L 13.504 23.698 L 17.031 8 L 13.827 8 L 11.923 17.7 C 11.786 18.355 11.683 19.02 11.519 19.67 C 11.475 19.508 11.436 19.344 11.403 19.179 L 9.313 8 C 8.208 8.003 7.103 8.003 6 8 Z M 18.314 12.932 L 18.314 12.931 C 17.521 13.899 17.3 15.193 17.207 16.415 C 17.137 17.668 17.146 18.93 17.294 20.177 C 17.442 21.26 17.815 22.39 18.67 23.103 C 19.59 23.88 20.843 24.037 21.997 23.993 C 23.059 23.95 24.181 23.596 24.877 22.73 C 25.571 21.897 25.767 20.777 25.827 19.717 L 23.163 19.717 C 23.067 20.356 22.975 21.054 22.535 21.552 C 22.205 21.916 21.661 22.012 21.209 21.865 C 20.785 21.713 20.519 21.3 20.375 20.883 C 20.079 20.038 20.135 19.127 20.131 18.245 L 26 18.245 C 26.001 17.05 25.988 15.845 25.737 14.675 C 25.53 13.739 25.094 12.799 24.299 12.243 C 23.401 11.611 22.259 11.515 21.199 11.589 C 20.125 11.659 19.011 12.056 18.314 12.932 Z M 20.588 14.177 L 20.589 14.177 C 21.084 13.435 22.38 13.437 22.789 14.266 C 23.12 14.936 23.115 15.711 23.162 16.444 L 20.13 16.444 C 20.122 15.673 20.134 14.831 20.588 14.177 Z"/>
</svg>
