<?xml version="1.0" encoding="utf-8"?>
<svg fill="#d1d1d1" height="32" viewBox="0 0 32 32" width="32" xmlns="http://www.w3.org/2000/svg">
  <path d="M 22.63 16.918 C 22.27 16.824 21.91 16.745 21.534 16.651 C 23.031 14.404 24.511 12.18 26 9.932 C 25.955 9.926 25.909 9.924 25.864 9.924 C 24.912 9.924 23.959 9.924 23.007 9.916 C 22.863 9.916 22.815 9.986 22.751 10.081 C 20.991 12.736 19.23 15.393 17.469 18.053 C 16.989 18.782 16.501 19.51 15.997 20.27 C 15.955 20.221 15.917 20.169 15.885 20.113 C 13.7 16.77 11.513 13.429 9.322 10.09 C 9.263 9.973 9.141 9.902 9.01 9.91 C 8.106 9.917 7.202 9.91 6.297 9.917 C 6.241 9.917 6.177 9.925 6.089 9.933 C 7.554 12.157 8.986 14.35 10.435 16.566 C 10.379 16.582 10.347 16.582 10.315 16.59 C 9.642 16.762 8.97 16.91 8.306 17.115 C 7.642 17.32 7.002 17.585 6.481 18.055 C 5.825 18.642 5.841 19.253 6.521 19.825 C 6.545 19.848 6.577 19.863 6.601 19.887 C 7.066 20.255 7.601 20.497 8.162 20.694 C 9.931 21.328 11.779 21.571 13.652 21.704 C 13.768 21.706 13.874 21.768 13.932 21.868 C 14.61 22.917 15.296 23.961 15.989 25 C 16.032 24.929 16.079 24.86 16.133 24.796 C 16.789 23.817 17.437 22.838 18.093 21.86 C 18.142 21.783 18.22 21.729 18.309 21.71 C 19.246 21.593 20.19 21.515 21.119 21.374 C 22.263 21.202 23.383 20.912 24.439 20.403 C 24.856 20.207 25.248 19.973 25.536 19.604 C 25.864 19.181 25.888 18.758 25.528 18.359 C 25.284 18.125 25.016 17.917 24.728 17.74 C 24.079 17.34 23.359 17.114 22.631 16.918 L 22.63 16.918 Z M 8.898 18.798 C 8.7 18.594 8.703 18.268 8.906 18.069 C 9.079 17.867 9.288 17.697 9.522 17.568 C 9.882 17.395 10.254 17.246 10.635 17.121 C 10.708 17.109 10.782 17.132 10.835 17.184 C 11.483 18.163 12.123 19.15 12.772 20.129 C 12.78 20.144 12.78 20.168 12.796 20.223 C 11.651 20.05 10.546 19.855 9.546 19.323 C 9.303 19.184 9.084 19.006 8.898 18.797 L 8.898 18.798 Z M 21.502 19.643 C 20.806 19.839 20.094 19.996 19.39 20.168 C 19.326 20.176 19.262 20.176 19.198 20.168 C 19.446 19.792 19.686 19.424 19.926 19.064 C 20.31 18.492 20.694 17.92 21.07 17.341 C 21.142 17.231 21.214 17.184 21.334 17.247 C 21.687 17.419 22.047 17.583 22.391 17.756 C 22.491 17.816 22.583 17.89 22.663 17.975 C 22.983 18.304 22.983 18.665 22.663 18.985 C 22.34 19.298 21.94 19.525 21.503 19.643 L 21.502 19.643 Z M 21.51 9 L 10.475 9 L 16.029 17.732 L 21.51 9 Z"/>
</svg>
