<?xml version="1.0" encoding="utf-8"?>
<svg fill="#d1d1d1" viewBox="0 0 32 32" xmlns="http://www.w3.org/2000/svg">
  <path d="M 23.049 10.277 C 21.385 13.049 16.522 20.112 16.013 20.717 C 15.525 20.121 10.955 13.447 8.932 10.245 C 8.465 9.492 7.47 9.273 6.73 9.76 C 5.989 10.257 5.778 11.254 6.255 12.008 C 8.302 15.249 10.095 17.993 11.525 20.044 C 13.932 23.497 14.312 24.5 16 24.5 C 17.688 24.5 18.194 23.364 20.535 20.053 C 22.138 17.785 24.061 14.815 25.765 11.977 C 26.225 11.212 25.992 10.22 25.239 9.74 C 24.489 9.27 23.509 9.51 23.049 10.277 Z" fill-rule="evenodd"/>
</svg>
