<?xml version="1.0" encoding="utf-8"?>
<svg fill="#d1d1d1" viewBox="0 0 32 32" xmlns="http://www.w3.org/2000/svg">
  <path d="M 20.265 8 L 16.031 17.113 L 11.704 8 L 7 8 L 16 26 L 25 8 L 20.265 8 Z M 16 12.959 C 16.788 12.959 17.427 12.303 17.427 11.494 C 17.427 10.685 16.787 10.028 16 10.028 C 15.212 10.028 14.573 10.685 14.573 11.494 C 14.573 12.303 15.212 12.959 16 12.959 Z M 22.465 16.999 C 21.677 16.999 21.038 17.656 21.038 18.465 C 21.038 19.275 21.678 19.93 22.465 19.93 C 23.253 19.93 23.891 19.274 23.891 18.465 C 23.891 17.656 23.253 17 22.465 17 L 22.465 16.999 Z" fill-rule="evenodd"/>
</svg>
