<?xml version="1.0" encoding="utf-8"?>
<svg fill="#d1d1d1" width="32" height="32" viewBox="0 0 32 32" xmlns="http://www.w3.org/2000/svg">
  <path d="M 10.842 6.84 C 10.17 6.567 9.397 6.955 8.846 7.428 C 7.393 8.657 6.215 10.037 6.561 12.068 C 6.728 13.046 8.234 16.205 9.845 19.344 L 10.179 19.993 C 11.965 23.441 13.774 26.68 13.946 26.75 C 13.946 26.75 25.229 12.42 25.451 11.677 C 25.627 11.085 25.416 8.953 23.374 7.425 C 22.792 6.989 22.029 6.635 21.472 6.837 C 19.841 7.426 15.298 13.885 15.298 13.885 L 15.278 13.845 L 15.18 13.65 C 14.612 12.524 14.015 11.412 13.392 10.315 L 13.123 9.852 C 12.266 8.395 11.364 7.052 10.843 6.841 L 10.842 6.84 Z"/>
</svg>
