<?xml version="1.0" encoding="utf-8"?>
<svg fill="#d1d1d1" width="32" height="32" viewBox="0 0 32 32" xmlns="http://www.w3.org/2000/svg">
  <path fill-rule="evenodd" d="M 24.891 7.168 C 24.81 7.092 24.728 7.017 24.645 6.943 L 15.828 18.94 L 12.459 14.718 L 6.976 14.718 L 5.435 16.442 L 8.302 16.442 L 15.147 25.132 C 15.376 25.343 15.602 25.449 15.828 25.449 C 16.054 25.449 16.269 25.343 16.473 25.132 L 27.297 10.426 C 27.223 10.276 27.145 10.127 27.064 9.98 C 28.104 11.822 28.649 13.894 28.645 16 C 28.645 22.861 22.984 28.421 16 28.421 C 9.016 28.421 3.355 22.861 3.355 16 C 3.355 9.139 9.016 3.579 16 3.579 C 19.466 3.579 22.607 4.949 24.891 7.168 Z" style=""/>
</svg>
