<?xml version="1.0" encoding="utf-8"?>
<svg fill="#d1d1d1" viewBox="0 0 32 32" xmlns="http://www.w3.org/2000/svg">
  <path d="M 28 18.962 L 20.516 12.5 L 18.141 12.5 L 22.766 16.498 L 21.305 17.755 L 18.266 14.047 L 16.256 14.047 L 12.604 18.492 L 12.206 18.978 L 13.994 14.055 L 12.37 14.055 L 11.186 17.38 L 10 14.056 L 8 14.056 L 6.812 17.388 L 5.62 14.042 L 4 14.042 L 5.773 18.953 L 7.885 18.953 L 9 15.823 L 10.124 18.978 L 12.204 18.978 L 10.96 20.5 L 12.957 20.5 L 17.262 15.259 L 18.495 16.767 L 16.876 16.767 L 16.043 17.796 L 19.335 17.796 L 20.29 18.956 L 22.288 18.956 L 23.959 17.526 L 25.636 18.962 L 28 18.962 Z M 25.655 15.99 L 27.904 14.088 L 25.653 14.086 L 24.54 15.034 L 25.655 15.99 Z" fill-rule="evenodd"/>
</svg>
