<?xml version="1.0" encoding="utf-8"?>
<svg fill="#d1d1d1" width="32" height="32" viewBox="0 0 32 32" xmlns="http://www.w3.org/2000/svg">
  <path d="M 15.925 5 C 9.892 5 5 9.892 5 15.925 C 5 21.959 9.89 26.851 15.924 26.852 C 21.96 26.853 26.853 21.96 26.852 15.924 C 26.851 9.89 21.959 5 15.925 5 Z M 15.924 5.852 C 21.489 5.848 26.002 10.359 26 15.924 C 25.998 21.483 21.49 25.988 15.932 25.988 C 10.373 25.988 5.866 21.483 5.864 15.924 C 5.862 10.365 10.365 5.856 15.924 5.852 Z M 21.656 22.21 C 18.411 25.178 13.437 25.178 10.192 22.21 L 9.592 22.81 L 9.814 23.008 C 13.412 26.119 18.773 26.034 22.27 22.81 L 21.656 22.21 Z M 9.038 9.598 C 5.736 13.179 5.736 18.695 9.038 22.276 L 9.638 21.656 L 9.448 21.442 C 6.666 18.183 6.747 13.361 9.638 10.198 L 9.038 9.598 Z M 22.818 9.572 L 22.818 9.586 L 22.218 10.186 L 22.408 10.4 C 25.194 13.66 25.112 18.486 22.218 21.65 L 22.818 22.25 L 23.016 22.028 C 26.127 18.43 26.042 13.069 22.818 9.572 Z M 15.248 10.4 L 14.2 10.4 L 14.2 12.136 L 12.058 12.136 L 12.058 13.266 L 12.08 13.266 C 12.206 13.263 12.837 13.253 12.826 13.266 C 13.118 13.234 13.384 13.439 13.426 13.73 L 13.426 18.482 L 13.414 18.555 C 13.395 18.627 13.354 18.691 13.298 18.74 C 13.224 18.806 13.125 18.84 13.026 18.832 C 13.04 18.844 12.258 18.832 12.258 18.832 L 12.058 20.094 L 14.18 20.094 L 14.18 21.858 L 15.236 21.858 L 15.236 20.12 L 16.08 20.12 L 16.08 21.85 L 17.138 21.85 L 17.138 20.106 L 17.334 20.093 C 19.013 19.963 20.172 19.496 20.322 17.888 C 20.448 16.544 19.816 15.944 18.806 15.702 C 19.42 15.4 19.8 14.84 19.714 13.924 C 19.594 12.672 18.514 12.252 17.148 12.124 L 17.148 10.4 L 16.092 10.4 L 16.092 12.092 L 15.248 12.092 L 15.248 10.4 Z M 15.352 16.513 C 16.144 16.503 18.234 16.359 18.234 17.68 C 18.234 18.992 15.986 18.842 15.27 18.842 L 15.27 16.514 L 15.352 16.513 Z M 15.346 13.337 C 16.01 13.326 17.744 13.198 17.744 14.4 C 17.744 15.6 15.868 15.454 15.272 15.454 L 15.272 13.338 L 15.346 13.337 Z M 22.042 8.84 C 18.444 5.729 13.083 5.814 9.586 9.038 L 10.2 9.638 L 10.414 9.448 C 13.674 6.662 18.5 6.744 21.664 9.638 L 22.264 9.038 L 22.042 8.84 Z"/>
</svg>
