<?xml version="1.0" encoding="utf-8"?>
<svg fill="#d1d1d1" height="32" viewBox="0 0 32 32" width="32" xmlns="http://www.w3.org/2000/svg">
  <path d="M 25.893 11.387 C 25.741 11.126 25.496 11 25.175 11 C 23.206 11.007 21.238 11.02 19.269 11.003 C 18.772 11 18.475 11.19 18.244 11.604 C 17.746 12.487 17.221 13.356 16.707 14.233 C 16.489 14.603 16.279 14.976 16.064 15.346 C 16.046 15.374 16.022 15.398 15.995 15.417 C 15.971 15.394 15.943 15.373 15.926 15.347 C 15.709 14.976 15.498 14.603 15.284 14.233 C 14.773 13.356 14.244 12.491 13.747 11.604 C 13.515 11.19 13.218 11 12.721 11.004 C 10.753 11.02 8.784 11.007 6.816 11 C 6.501 11 6.256 11.126 6.104 11.387 C 5.949 11.652 5.973 11.93 6.139 12.202 C 6.367 12.572 6.584 12.949 6.805 13.322 C 7.413 14.358 8.02 15.394 8.625 16.43 C 9.265 17.52 9.905 18.608 10.549 19.695 C 11.122 20.67 11.692 21.641 12.269 22.612 C 12.428 22.877 12.666 23.012 12.98 22.999 C 13.288 22.985 13.505 22.833 13.65 22.568 C 13.799 22.303 13.954 22.038 14.11 21.777 L 15.643 19.166 C 15.757 18.969 15.878 18.776 16.006 18.558 C 16.136 18.775 16.254 18.968 16.368 19.166 L 17.902 21.776 C 18.057 22.041 18.212 22.303 18.361 22.568 C 18.506 22.833 18.724 22.985 19.031 22.999 C 19.324 23.023 19.603 22.871 19.742 22.612 C 21.568 19.518 23.39 16.422 25.206 13.322 C 25.427 12.949 25.641 12.572 25.872 12.202 C 26.028 11.93 26.049 11.652 25.893 11.387 Z M 15.05 17.142 C 14.473 18.137 13.892 19.13 13.306 20.12 C 13.196 20.31 13.078 20.494 12.94 20.724 L 8.143 12.538 C 8.233 12.531 8.295 12.521 8.357 12.521 C 9.669 12.518 10.982 12.518 12.294 12.511 C 12.439 12.511 12.522 12.555 12.594 12.678 C 13.295 13.883 14 15.081 14.704 16.283 C 14.821 16.483 14.953 16.677 15.053 16.881 C 15.09 16.964 15.089 17.06 15.05 17.142 Z M 19.06 20.724 C 18.922 20.497 18.804 20.31 18.694 20.12 C 18.11 19.129 17.529 18.136 16.95 17.142 C 16.912 17.059 16.912 16.964 16.95 16.881 C 17.053 16.674 17.181 16.481 17.299 16.283 C 18.003 15.082 18.707 13.88 19.409 12.677 C 19.481 12.555 19.564 12.511 19.709 12.511 C 21.021 12.518 22.333 12.518 23.646 12.521 C 23.708 12.521 23.766 12.531 23.86 12.538 C 22.254 15.271 20.665 17.984 19.06 20.724 Z" fill-rule="evenodd"/>
</svg>
