<?xml version="1.0" encoding="utf-8"?>
<svg fill="#d1d1d1" width="32" height="32" viewBox="0 0 32 32" xmlns="http://www.w3.org/2000/svg">
  <path d="M 15.24 4 C 9.133 4.409 4.301 9.327 4 15.44 L 4 16.56 C 4.291 22.738 9.223 27.688 15.4 28 L 16.58 28 C 19.515 27.854 22.293 26.629 24.38 24.56 C 26.438 22.522 27.664 19.792 27.82 16.9 L 27.86 15.66 C 27.884 15.336 27.548 15.108 27.255 15.249 C 27.126 15.312 27.037 15.437 27.02 15.58 C 26.97 16.328 26.856 17.071 26.68 17.8 C 25.904 21.519 23.231 24.557 19.64 25.8 C 12.007 28.458 4.358 21.856 5.873 13.917 C 6.199 12.209 6.943 10.609 8.04 9.26 C 11.709 4.802 18.246 4.042 22.84 7.54 C 23.1 7.72 23.36 8.02 23.7 7.94 C 24.1 7.8 24.1 7.26 23.76 7.04 C 21.764 5.206 19.188 4.13 16.48 4 L 15.24 4 Z M 25 10.22 L 25.02 10.22 C 24.48 10.7 24.6 11.46 24.7 12.1 C 23.8 14.04 22.46 15.74 21 17.28 L 20.4 17.32 C 19.804 16.68 19.311 15.952 18.94 15.16 C 19.18 14.58 19.32 13.86 18.9 13.32 C 18.34 12.44 16.9 12.46 16.36 13.34 C 16 13.84 16.1 14.46 16.26 15 C 15.411 16.84 14.239 18.513 12.8 19.94 C 11.476 18.361 10.416 16.578 9.66 14.66 C 10.12 13.84 9.86 12.64 8.92 12.3 C 7.86 11.8 6.58 12.88 6.84 14 C 6.94 14.82 7.76 15.28 8.54 15.32 C 9.784 16.887 10.77 18.642 11.46 20.52 C 11.22 21.14 11.16 21.88 11.62 22.4 C 12.24 23.16 13.56 23.08 14.06 22.26 C 14.44 21.78 14.34 21.14 14.2 20.6 C 15.021 18.826 16.107 17.187 17.42 15.74 L 18.02 15.72 C 18.633 16.347 19.139 17.07 19.52 17.86 C 19.26 18.48 19.12 19.26 19.62 19.82 C 20.3 20.7 21.86 20.48 22.22 19.42 C 22.52 18.88 22.04 18.2 22.42 17.68 C 23.36 15.94 24.46 14.28 25.84 12.88 C 26.88 12.96 27.9 12.06 27.64 11 C 27.46 9.82 25.8 9.34 25 10.22 Z"/>
</svg>
