<?xml version="1.0" encoding="utf-8"?>
<svg fill="#d1d1d1" height="32" viewBox="0 0 32 32" width="32" xmlns="http://www.w3.org/2000/svg">
  <g fill-rule="evenodd">
    <path d="M 16.895 17.299 L 8.27 23.993 L 22 18.118 L 22.796 17.78 L 22.795 17.777 L 24.08 17.227 L 24.145 13.963 L 26 14.476 L 24.586 11.33 L 20.768 14.293 L 18.049 9.619 L 6 9 L 15.183 11.461 L 15.416 12.256 L 7.388 11.843 L 14.612 13.778 L 15.859 18.103 L 16.895 17.299 Z"/>
    <g fill-rule="nonzero">
      <path d="M16.895 17.299l-1.036.804-1.247-4.325-7.224-1.935 8.028.413z" fill-opacity=".7"/>
      <path d="M16.895 17.299l.778 2.652L22 18.118 8.27 23.993zm3.873-3.006l3.818-2.963L26 14.476l-1.855-.513-.065 3.264-1.285.55z" fill-opacity=".3"/>
    </g>
  </g>
</svg>
