<?xml version="1.0" encoding="utf-8"?>
<svg fill="#d1d1d1" height="32" viewBox="0 0 32 32" width="32" xmlns="http://www.w3.org/2000/svg">
  <path d="M 6.09 7.294 L 10.096 21.604 L 10.125 21.727 L 13.58 21.727 L 15.123 16.021 L 16.667 21.727 L 20.121 21.727 L 20.151 21.604 L 21.769 15.777 L 24.604 25.993 C 22.211 28.049 19.157 29.177 16 29.172 C 8.706 29.172 2.794 23.275 2.794 16 C 2.789 12.794 3.962 9.697 6.09 7.294 Z M 8.277 5.314 C 10.524 3.694 13.227 2.824 16 2.828 C 23.294 2.828 29.206 8.725 29.206 16 C 29.21 18.768 28.336 21.467 26.709 23.709 L 23.347 11.596 L 23.318 11.472 L 20.223 11.472 L 18.295 18.419 L 16.666 11.472 L 13.58 11.472 L 11.952 18.419 L 8.276 5.314 L 8.277 5.314 Z" fill-rule="evenodd" style=""/>
</svg>
