<?xml version="1.0" encoding="utf-8"?>
<svg fill="#d1d1d1" width="32" height="32" viewBox="0 0 32 32" xmlns="http://www.w3.org/2000/svg">
  <g fill-rule="evenodd">
    <path fill-rule="nonzero" d="M 18.414 13.166 L 18.414 10.676 C 18.414 10.621 18.407 10.566 18.394 10.512 C 18.297 10.146 17.924 9.927 17.557 10.02 L 14.109 10.864 C 13.804 10.936 13.588 11.207 13.586 11.52 L 13.586 19.075 C 13.586 19.131 13.593 19.185 13.606 19.239 C 13.703 19.605 14.076 19.824 14.443 19.731 L 16.69 19.181 L 16.69 14.643 C 16.69 14.023 17.12 13.483 17.734 13.333 L 18.414 13.166 Z M 10.828 13.124 L 10.828 10.675 C 10.828 10.62 10.821 10.565 10.807 10.512 C 10.71 10.147 10.337 9.927 9.971 10.02 L 6.522 10.864 C 6.217 10.936 6.002 11.207 6 11.52 L 6 19.075 C 6 19.131 6.007 19.185 6.02 19.239 C 6.117 19.605 6.49 19.824 6.857 19.731 L 8.931 19.223 L 8.931 14.643 C 8.931 14.023 9.361 13.483 9.976 13.333 L 10.828 13.124 Z M 21.695 10.885 C 21.39 10.957 21.174 11.227 21.172 11.54 L 21.172 19.096 C 21.181 19.539 21.599 19.858 22.029 19.751 L 25.478 18.907 C 25.782 18.835 25.998 18.565 26 18.252 L 26 10.696 C 26 10.641 25.993 10.586 25.98 10.532 C 25.883 10.167 25.509 9.948 25.143 10.041 L 21.695 10.885 Z M 12.897 13.314 L 10.143 13.988 C 9.839 14.06 9.623 14.33 9.621 14.643 L 9.621 22.199 C 9.621 22.254 9.628 22.309 9.641 22.363 C 9.738 22.728 10.112 22.947 10.478 22.854 L 13.926 22.01 C 14.23 21.938 14.446 21.668 14.448 21.355 L 14.448 20.415 C 13.762 20.504 13.116 20.071 12.938 19.403 C 12.911 19.296 12.897 19.186 12.897 19.075 L 12.897 13.314 Z M 20.483 13.356 L 17.902 13.988 C 17.597 14.06 17.381 14.33 17.379 14.643 L 17.379 22.199 C 17.379 22.254 17.386 22.309 17.399 22.363 C 17.496 22.728 17.87 22.947 18.236 22.854 L 21.685 22.01 C 21.989 21.938 22.205 21.668 22.207 21.355 L 22.207 20.404 L 22.197 20.406 C 21.457 20.587 20.709 20.147 20.524 19.424 C 20.497 19.317 20.483 19.207 20.483 19.096 L 20.483 13.356 Z"/>
    <path d="M12.897 13.314v5.761c0 .11.013.22.04.328a1.38 1.38 0 001.511 1.013v.939c0 .31-.215.58-.522.655l-3.448.844a.69.69 0 01-.837-.491.662.662 0 01-.02-.164v-7.556c0-.31.215-.58.522-.655l2.754-.674zm7.586.042v5.74c0 .11.014.22.04.328.186.723.935 1.163 1.674.982l.01-.002v.95a.68.68 0 01-.522.656l-3.449.844a.69.69 0 01-.836-.491.662.662 0 01-.02-.164v-7.556c0-.31.215-.58.522-.655l2.58-.632z" opacity=".504"/>
  </g>
</svg>
