<?xml version="1.0" encoding="utf-8"?>
<svg fill="#d1d1d1" width="32" height="32" viewBox="0 0 32 32" xmlns="http://www.w3.org/2000/svg">
  <path d="M 14.116 6.01 L 14.116 9.929 L 15.996 11.892 L 15.996 6.009 L 14.116 6.009 L 14.116 6.01 Z M 6.01 7.992 L 13.648 15.715 C 13.527 15.844 13.403 15.971 13.278 16.096 L 6.01 23.446 L 9.68 23.446 C 9.835 23.443 9.992 23.456 10.147 23.436 C 10.419 23.433 10.69 23.441 10.961 23.433 C 11.275 23.113 11.583 22.787 11.895 22.463 L 14.572 19.668 C 15.045 19.168 15.527 18.675 15.997 18.175 C 16.217 18.393 16.429 18.623 16.645 18.847 C 17.618 19.861 18.587 20.879 19.56 21.891 C 20.055 22.404 20.544 22.921 21.04 23.433 C 21.312 23.443 21.586 23.431 21.86 23.439 C 21.956 23.452 22.055 23.446 22.154 23.446 L 25.984 23.446 L 25.294 22.75 L 18.522 15.904 C 18.47 15.838 18.408 15.777 18.35 15.715 C 18.587 15.469 18.83 15.224 19.073 14.981 C 21.377 12.653 23.678 10.321 25.983 7.991 L 21.045 7.991 C 20.332 8.735 19.62 9.48 18.905 10.221 C 17.938 11.233 16.97 12.249 15.999 13.258 C 14.322 11.498 12.638 9.747 10.961 7.992 L 6.01 7.992 Z M 16 19.53 L 16.002 19.53 C 15.998 21.497 15.998 23.463 15.998 25.43 L 17.888 25.43 C 17.888 24.122 17.892 22.817 17.888 21.51 C 17.261 20.849 16.626 20.193 16 19.53 Z"/>
</svg>
