<?xml version="1.0" encoding="utf-8"?>
<svg fill="#d1d1d1" height="32" viewBox="0 0 32 32" width="32" xmlns="http://www.w3.org/2000/svg">
  <path d="M 25.992 14.471 L 26 14.47 L 22.174 8.008 L 22.176 8.001 L 9.922 8.001 L 9.924 8.009 L 9.922 8.007 L 6 14.563 L 6.039 14.569 L 6.007 14.582 L 16.097 26 L 16.523 25.48 L 25.992 14.471 Z M 12.856 14.93 L 19.279 14.919 L 21.401 18.554 L 16.038 24.716 L 10.685 18.604 L 12.856 14.93 Z M 10.078 17.91 L 7.476 14.938 L 11.837 14.931 L 10.078 17.91 Z M 19.801 14.064 L 16.763 8.859 L 21.646 8.849 L 24.756 14.056 L 19.801 14.064 Z M 24.572 14.91 L 22.012 17.852 L 20.299 14.917 L 24.572 14.91 Z M 18.781 14.066 L 13.361 14.075 L 16.09 9.455 L 18.781 14.066 Z M 10.382 8.872 L 15.422 8.862 L 12.342 14.076 L 7.282 14.085 L 10.382 8.872 Z" fill-rule="evenodd"/>
</svg>
