<?xml version="1.0" encoding="utf-8"?>
<svg fill="#d1d1d1" viewBox="0 0 32 32" xmlns="http://www.w3.org/2000/svg">
  <path d="M 25.977 19.754 L 28.16 20.299 L 28.523 18.843 L 26.34 18.299 L 26.884 16.116 L 25.428 15.753 L 24.884 17.936 L 22.701 17.392 L 22.338 18.847 L 24.521 19.392 L 23.977 21.575 L 25.432 21.938 L 25.977 19.754 Z M 20.611 13.76 C 20.891 11.916 19.521 10.934 17.646 10.283 L 18.269 7.784 L 16.782 7.414 L 16.176 9.847 C 15.78 9.749 15.383 9.656 14.985 9.567 L 15.595 7.117 L 14.11 6.747 L 13.486 9.245 C 13.169 9.174 12.853 9.1 12.537 9.022 L 12.539 9.015 L 10.489 8.503 L 10.084 10.127 C 10.084 10.127 11.187 10.38 11.164 10.396 C 11.766 10.546 11.873 10.953 11.853 11.276 L 11.143 14.122 C 11.184 14.132 11.238 14.148 11.297 14.172 L 11.14 14.133 L 10.146 18.121 C 10.071 18.308 9.882 18.59 9.462 18.486 C 9.476 18.507 8.382 18.216 8.382 18.216 L 7.632 19.959 L 9.567 20.441 C 9.927 20.531 10.28 20.626 10.627 20.715 L 9.997 23.242 L 11.482 23.612 L 12.106 21.112 C 12.511 21.222 12.906 21.324 13.29 21.42 L 12.67 23.909 L 14.156 24.279 L 14.786 21.756 C 17.321 22.233 19.231 22.025 20.046 19.677 C 20.704 17.787 20.03 16.703 18.698 16.001 C 19.672 15.767 20.408 15.11 20.611 13.761 L 20.611 13.76 Z M 17.184 18.646 C 16.714 20.534 13.607 19.532 12.599 19.281 L 13.435 15.933 C 14.442 16.184 17.675 16.676 17.184 18.646 Z M 17.671 13.749 C 17.241 15.467 14.656 14.609 13.817 14.4 L 14.574 11.363 C 15.414 11.573 18.117 11.957 17.671 13.749 Z" fill-rule="evenodd"/>
</svg>
