<?xml version="1.0" encoding="utf-8"?>
<svg fill="#d1d1d1" width="32" height="32" viewBox="0 0 32 32" xmlns="http://www.w3.org/2000/svg">
  <path d="M 16 28 C 22.627 28 28 22.627 28 16 C 28 9.373 22.627 4 16 4 C 9.373 4 4 9.373 4 16 C 4 22.627 9.373 28 16 28 Z M 20.613 11.651 C 20.791 11.887 20.881 12.178 20.869 12.473 C 20.856 12.787 20.794 13.096 20.683 13.39 C 20.584 13.665 20.443 13.922 20.265 14.153 C 19.94 14.569 19.537 14.918 19.079 15.18 C 18.902 15.283 18.714 15.367 18.519 15.43 C 18.522 15.431 18.526 15.432 18.529 15.434 L 12.261 16.051 L 15.403 7.417 C 15.192 7.433 14.982 7.456 14.773 7.485 C 10.608 8.083 7.396 11.672 7.396 16 C 7.396 18.161 8.212 20.243 9.681 21.829 L 8.829 24.174 C 6.471 22.112 5.118 19.132 5.118 16 C 5.118 10.123 9.801 5.323 15.63 5.127 C 15.752 5.123 15.875 5.117 15.999 5.117 C 16.079 5.117 16.158 5.124 16.237 5.124 C 17.05 5.141 17.859 5.248 18.648 5.445 L 17.863 7.602 L 16.686 10.837 L 18.136 10.837 C 18.822 10.837 19.363 10.913 19.756 11.064 C 20.15 11.216 20.437 11.411 20.613 11.651 Z M 17.939 13.756 C 18.008 13.592 18.037 13.414 18.026 13.236 C 18.017 13.111 17.964 12.994 17.875 12.906 C 17.784 12.824 17.674 12.765 17.555 12.736 C 17.424 12.702 17.29 12.685 17.155 12.686 L 16.025 12.686 L 15.267 14.769 L 16.397 14.769 C 16.71 14.767 17.017 14.689 17.294 14.541 C 17.589 14.39 17.802 14.128 17.939 13.756 Z M 19.2 5.598 C 23.644 6.968 26.882 11.113 26.882 16 C 26.882 22 22.001 26.882 16 26.882 C 13.567 26.884 11.205 26.067 9.294 24.562 L 10.125 22.277 L 12.16 16.696 L 18.486 16.072 C 18.646 16.136 18.801 16.215 18.946 16.309 C 19.131 16.431 19.288 16.591 19.406 16.779 C 19.536 16.994 19.619 17.234 19.648 17.484 C 19.686 17.757 19.638 18.076 19.507 18.438 C 19.15 19.416 18.551 20.128 17.709 20.572 C 16.868 21.018 15.792 21.24 14.48 21.24 L 13.032 21.24 L 12.14 23.685 C 12.31 23.771 12.482 23.853 12.659 23.928 C 18.76 26.504 25.362 21.509 24.542 14.937 C 24.117 11.534 21.711 8.707 18.419 7.745 L 19.2 5.598 Z M 14.56 17.073 L 13.715 19.389 L 15.038 19.389 C 15.205 19.389 15.371 19.376 15.536 19.353 C 15.722 19.328 15.904 19.276 16.076 19.199 C 16.261 19.113 16.429 18.994 16.571 18.847 C 16.74 18.666 16.868 18.451 16.947 18.216 C 17.035 17.971 17.058 17.773 17.016 17.622 C 16.98 17.482 16.894 17.36 16.774 17.279 C 16.645 17.197 16.501 17.142 16.35 17.118 C 16.195 17.089 16.038 17.074 15.88 17.073 L 14.56 17.073 Z"/>
</svg>
