<?xml version="1.0" encoding="utf-8"?>
<svg fill="#d1d1d1" height="32" viewBox="0 0 32 32" width="32" xmlns="http://www.w3.org/2000/svg">
  <path d="M 6 9.016 C 6 9.026 7.467 11.526 9.26 14.573 C 11.572 18.502 12.525 20.112 12.536 20.11 C 12.551 20.107 19.066 9.03 19.066 9.01 C 19.066 9.004 17.7 9 15.994 9 C 13.36 9 12.921 9.002 12.921 9.014 C 12.921 9.022 13.554 10.094 14.327 11.395 C 15.1 12.696 15.735 13.769 15.737 13.775 C 15.739 13.781 15.621 13.988 15.477 14.235 L 15.213 14.685 L 15.185 14.639 L 13.497 11.799 L 11.837 9.005 L 8.918 9.002 C 6.21 9 6 9.001 6 9.016 Z M 20.14 9.007 C 20.032 9.184 13.083 21.024 13.078 21.035 C 13.072 21.059 15.982 26.004 16.001 26 C 16.013 25.997 18.941 21.037 18.95 21.002 C 18.953 20.992 18.386 20.028 17.62 18.737 C 17.172 17.986 16.726 17.234 16.281 16.481 C 16.277 16.469 16.801 15.578 16.811 15.583 C 16.814 15.585 17.415 16.594 18.147 17.825 C 19.173 19.552 19.479 20.061 19.493 20.059 C 19.506 20.057 20.593 18.218 22.752 14.551 C 23.837 12.71 24.918 10.867 25.996 9.022 L 26 9 L 23.072 9 C 21.462 9 20.142 9.003 20.139 9.007 L 20.14 9.007 Z" fill-rule="evenodd"/>
</svg>
