<?xml version="1.0" encoding="utf-8"?>
<svg fill="#d1d1d1" viewBox="0 0 32 32" xmlns="http://www.w3.org/2000/svg">
  <path fill-rule="evenodd" d="M 23.48 10 L 19.436 10 C 19.27 10 19.112 10.067 18.996 10.186 L 11.621 17.715 C 11.505 17.834 11.347 17.901 11.181 17.901 L 9.829 17.901 C 9.663 17.901 9.505 17.834 9.389 17.715 L 8.433 16.741 C 8.316 16.622 8.25 16.461 8.25 16.294 L 8.25 14.917 C 8.25 14.749 8.316 14.589 8.433 14.469 L 9.389 13.495 C 9.505 13.376 9.663 13.309 9.829 13.309 L 11.181 13.309 C 11.346 13.309 11.504 13.376 11.621 13.495 L 12.208 14.093 C 12.449 14.341 12.847 14.341 13.088 14.093 L 14.507 12.649 C 14.75 12.4 14.75 12.002 14.507 11.753 L 12.967 10.186 C 12.851 10.067 12.693 10 12.527 10 L 8.483 10 C 8.317 10 8.159 10.067 8.043 10.186 L 5.183 13.098 C 5.066 13.218 5.001 13.379 5.001 13.546 L 5.001 17.664 C 5.001 17.832 5.067 17.994 5.183 18.112 L 8.043 21.025 C 8.159 21.143 8.317 21.21 8.483 21.21 L 12.528 21.21 C 12.694 21.21 12.852 21.143 12.968 21.024 L 20.343 13.496 C 20.459 13.377 20.617 13.31 20.783 13.309 L 22.135 13.309 C 22.3 13.309 22.458 13.376 22.575 13.495 L 23.531 14.469 C 23.648 14.589 23.714 14.749 23.714 14.917 L 23.714 16.294 C 23.714 16.461 23.648 16.622 23.531 16.741 L 22.575 17.715 C 22.459 17.834 22.301 17.901 22.135 17.901 L 20.783 17.901 C 20.617 17.901 20.459 17.834 20.343 17.715 L 19.751 17.112 C 19.512 16.866 19.118 16.864 18.876 17.107 L 17.126 18.849 C 17.006 18.969 16.939 19.132 16.939 19.302 L 16.939 23.342 C 16.939 23.692 17.218 23.976 17.561 23.976 L 19.601 23.976 C 19.948 23.973 20.227 23.69 20.224 23.343 L 20.224 21.843 C 20.224 21.493 20.503 21.21 20.846 21.21 L 23.481 21.21 C 23.647 21.21 23.805 21.143 23.921 21.025 L 26.781 18.112 C 26.898 17.992 26.964 17.832 26.964 17.664 L 26.964 13.546 C 26.964 13.379 26.899 13.218 26.782 13.098 L 23.922 10.186 C 23.806 10.067 23.648 10 23.482 10 L 23.48 10 Z"/>
</svg>
