<?xml version="1.0" encoding="utf-8"?>
<svg fill="#d1d1d1" viewBox="0 0 32 32" xmlns="http://www.w3.org/2000/svg">
  <path d="M 13.309 12 L 13.309 20 L 16.047 20 C 17.369 20 19.73 19.197 19.73 16 C 19.73 12.803 17.37 12 16.047 12 L 13.309 12 Z M 14.819 18.38 L 14.819 13.62 L 15.953 13.62 C 16.897 13.62 18.03 14.198 18.03 16 C 18.03 17.802 16.897 18.38 15.953 18.38 L 14.819 18.38 Z M 20.77 12 L 20.77 20 L 21.336 20 L 21.336 13.128 L 26.433 20 L 27 20 L 27 12 L 26.433 12 L 26.433 19.026 L 21.335 12 L 20.77 12 Z M 5 12 L 5 14 L 6.888 14 L 6.888 12 L 5 12 Z M 7.833 12 L 7.833 14 L 9.72 14 L 9.72 12 L 7.833 12 Z M 10.665 12 L 10.665 14 L 12.554 14 L 12.554 12 L 10.665 12 Z M 10.665 15 L 10.665 17 L 12.554 17 L 12.554 15 L 10.665 15 Z M 10.665 18 L 10.665 20 L 12.554 20 L 12.554 18 L 10.665 18 Z M 7.833 15 L 7.833 17 L 9.72 17 L 9.72 15 L 7.833 15 Z" fill-rule="evenodd"/>
</svg>
