<?xml version="1.0" encoding="utf-8"?>
<svg fill="#d1d1d1" viewBox="0 0 32 32" xmlns="http://www.w3.org/2000/svg">
  <path fill-rule="evenodd" d="M 6.145 11.954 C 6.229 12.654 6.351 13.352 6.51 14.047 C 6.535 14.158 6.568 14.256 6.61 14.347 C 8.075 17.511 12.416 17.903 14.424 15.052 C 14.719 14.634 14.941 14.168 15.08 13.676 C 15.19 13.281 15.243 12.859 15.26 12.323 C 15.302 10.151 16.514 8.171 18.429 7.145 C 17.759 7.072 17.087 7.026 16.414 7.005 C 14.295 6.959 12.182 7.247 10.152 7.857 C 8.705 8.292 7.312 8.889 6 9.637 C 6.002 10.396 6.05 11.167 6.145 11.954 Z M 22.758 20.514 C 24.551 17.747 25.637 14.583 25.922 11.299 C 25.972 10.729 25.998 10.176 26 9.635 C 25.557 9.383 25.105 9.148 24.644 8.931 C 23.881 8.574 23.255 8.319 22.636 8.124 C 21.847 7.871 21.003 7.842 20.199 8.041 C 17.863 8.605 16.377 10.898 16.817 13.26 C 17.061 14.566 17.754 15.578 18.891 16.3 C 18.97 16.35 19.049 16.399 19.13 16.446 C 20.035 16.995 20.776 17.776 21.277 18.708 C 21.763 19.593 22.014 20.588 22.006 21.598 C 22.269 21.245 22.52 20.883 22.758 20.514 Z M 19.721 24.187 C 19.769 24.14 19.809 24.085 19.839 24.025 L 19.883 23.938 C 19.973 23.761 20.011 23.687 20.055 23.595 C 20.575 22.51 20.673 21.409 20.338 20.288 C 19.711 18.162 17.635 16.804 15.436 17.082 C 14.835 17.158 14.256 17.352 13.73 17.652 C 11.861 18.727 9.56 18.722 7.696 17.639 C 8.677 19.877 10.053 21.92 11.759 23.67 C 12.738 24.676 13.819 25.577 14.984 26.361 C 15.393 26.636 15.793 26.885 16.002 27 C 17.345 26.207 18.593 25.263 19.722 24.187 L 19.721 24.187 Z"/>
</svg>
