<?xml version="1.0" encoding="utf-8"?>
<svg fill="#d1d1d1" width="32" height="32" viewBox="0 0 32 32" xmlns="http://www.w3.org/2000/svg">
  <path d="M 26.405 7.151 L 22.775 8.761 C 22.559 8.879 22.425 9.105 22.425 9.351 L 22.425 22.331 C 22.424 22.58 22.563 22.808 22.785 22.921 L 26.415 24.491 C 26.642 24.615 26.918 24.449 26.915 24.191 L 26.915 7.451 C 26.907 7.194 26.634 7.033 26.405 7.151 Z M 9.02 8.741 L 5.5 7.141 C 5.273 7.017 4.997 7.183 5 7.441 L 5 24.181 C 5 24.444 5.284 24.607 5.512 24.476 C 5.514 24.474 5.517 24.473 5.52 24.471 L 9.06 22.601 C 9.259 22.48 9.38 22.264 9.38 22.031 L 9.38 9.331 C 9.372 9.085 9.235 8.861 9.02 8.741 Z M 20.06 13.171 L 16.27 11.001 C 16.063 10.881 15.807 10.881 15.6 11.001 L 11.74 13.151 C 11.53 13.273 11.4 13.498 11.4 13.741 L 11.4 18.141 C 11.4 18.384 11.53 18.609 11.74 18.731 L 15.6 20.951 C 15.807 21.071 16.063 21.071 16.27 20.951 L 20.06 18.751 C 20.27 18.629 20.4 18.404 20.4 18.161 L 20.4 13.761 C 20.402 13.517 20.272 13.291 20.06 13.171 Z"/>
</svg>
