<?xml version="1.0" encoding="utf-8"?>
<svg fill="#d1d1d1" width="32" height="32" viewBox="0 0 32 32" xmlns="http://www.w3.org/2000/svg">
  <path d="M 23.13 9.292 L 20.73 10.516 L 9.132 16.423 C 8.445 11.149 13.726 7.109 18.636 9.152 C 18.881 9.254 19.119 9.369 19.35 9.498 L 20.724 8.798 L 20.929 8.693 C 15.671 4.878 8.255 8.185 7.579 14.646 C 7.527 15.15 7.519 15.659 7.558 16.165 C 7.605 16.783 7.276 17.368 6.724 17.649 L 5.999 18.019 L 5.999 19.743 L 8.133 18.655 L 8.824 18.302 L 9.505 17.955 L 21.731 11.725 L 23.105 11.026 L 25.945 9.579 L 25.945 7.856 L 23.13 9.292 Z M 25.946 11.304 L 10.201 19.32 L 8.827 20.02 L 6 21.463 L 6 23.186 L 8.808 21.756 L 11.209 20.532 L 22.819 14.616 C 23.515 19.889 18.242 23.938 13.327 21.904 C 13.075 21.799 12.828 21.68 12.59 21.546 L 12.505 21.591 L 11.015 22.351 C 16.272 26.167 23.689 22.862 24.366 16.401 C 24.419 15.894 24.426 15.384 24.387 14.876 C 24.341 14.259 24.669 13.674 25.22 13.393 L 25.946 13.023 L 25.946 11.305 L 25.946 11.304 Z"/>
</svg>
