<?xml version="1.0" encoding="utf-8"?>
<svg fill="#d1d1d1" width="32" height="32" viewBox="0 0 32 32" xmlns="http://www.w3.org/2000/svg">
  <path d="M 22.682 7 L 17.522 7 L 15.988 9.652 L 14.459 7 L 9.297 7 L 4 16.175 L 9.129 25.055 L 12.606 19.036 L 16 24.896 L 19.384 19.036 L 22.869 25.096 L 28 16.216 L 22.682 7 Z M 9.122 21.544 L 6.02 16.178 L 8.487 11.906 L 11.587 17.276 L 9.121 21.549 L 9.121 21.544 L 9.122 21.544 Z M 9.506 10.142 L 10.324 8.721 L 13.415 8.721 L 14.97 11.414 L 12.606 15.513 L 9.506 10.142 Z M 15.986 21.374 L 13.624 17.272 L 15.988 13.175 L 17.044 15 L 18.354 17.273 L 15.988 21.37 L 15.986 21.375 L 15.986 21.374 Z M 17.003 11.414 L 18.561 8.721 L 21.652 8.721 L 22.48 10.141 L 19.36 15.513 L 17.003 11.413 L 17.003 11.414 Z M 24.971 17.951 L 22.878 21.582 L 20.39 17.262 L 23.49 11.903 L 24.326 13.343 L 25.979 16.206 L 24.971 17.951 Z"/>
</svg>
