<?xml version="1.0" encoding="utf-8"?>
<svg fill="#d1d1d1" viewBox="0 0 32 32" xmlns="http://www.w3.org/2000/svg">
  <path d="M 23 19.54 L 22.259 19.314 C 22.117 19.666 21.95 20.007 21.761 20.336 C 21.584 20.646 21.378 20.938 21.146 21.209 C 20.925 21.471 20.659 21.693 20.361 21.863 C 20.059 22.036 19.725 22.123 19.361 22.123 L 11.956 22.123 L 18.444 14.758 L 18.444 14.444 L 13.195 7.904 L 16.698 7.904 C 17.192 7.904 17.616 7.924 17.971 7.967 C 18.325 8.01 18.603 8.08 18.805 8.178 C 19.091 8.296 19.416 8.596 19.78 9.077 C 20.145 9.558 20.587 10.283 21.107 11.252 L 21.897 11.252 L 21.469 7 L 9.137 7 L 9.137 7.992 L 15.79 16.368 L 9 24.087 L 9 25 L 21.517 25 L 23 19.54 Z" fill-rule="evenodd"/>
</svg>
