<?xml version="1.0" encoding="utf-8"?>
<svg fill="#d1d1d1" width="32" height="32" viewBox="0 0 32 32" xmlns="http://www.w3.org/2000/svg">
  <path d="M 28 16 C 28.005 13.42 27.17 10.909 25.619 8.847 L 23.659 10.807 C 24.697 12.34 25.252 14.149 25.253 16 C 25.253 21.11 21.1 25.262 15.991 25.262 C 10.881 25.262 6.728 21.109 6.728 16 C 6.726 14.148 7.281 12.338 8.322 10.806 L 6.362 8.846 C 4.825 10.914 3.997 13.423 4 16 C 4 22.628 9.372 28 16 28 C 22.628 28 28 22.628 28 16 Z M 22.637 16 C 22.637 14.846 22.337 13.713 21.766 12.71 L 16 18.474 L 10.234 12.708 C 9.663 13.711 9.362 14.846 9.363 16 C 9.367 19.664 12.336 22.633 16 22.637 C 19.664 22.633 22.633 19.664 22.637 16 Z M 23.847 6.925 C 21.671 5.033 18.883 3.994 16 4 C 13 4 10.253 5.097 8.153 6.925 L 10.019 8.791 L 16 14.762 L 23.847 6.925 Z"/>
</svg>
