<?xml version="1.0" encoding="utf-8"?>
<svg fill="#d1d1d1" viewBox="0 0 32 32" xmlns="http://www.w3.org/2000/svg">
  <path fill-rule="evenodd" d="M 15.97 5.235 C 9.991 5.232 5.144 10.08 5.148 16.059 C 5.148 17.261 5.353 18.405 5.705 19.491 L 8.932 19.491 L 8.932 10.397 L 15.972 17.437 L 23.012 10.397 L 23.012 19.491 L 26.238 19.491 C 26.604 18.384 26.792 17.225 26.796 16.059 C 26.796 10.075 21.956 5.235 15.972 5.235 L 15.97 5.235 Z M 14.358 19.02 L 11.278 15.94 L 11.278 21.66 L 6.731 21.66 C 8.637 24.77 12.069 26.852 15.971 26.852 C 19.872 26.852 23.333 24.77 25.211 21.66 L 20.664 21.66 L 20.664 15.94 L 17.614 19.02 L 16 20.635 L 14.357 19.021 L 14.358 19.02 Z"/>
</svg>
