<?xml version="1.0" encoding="utf-8"?>
<svg fill="#d1d1d1" viewBox="0 0 32 32" xmlns="http://www.w3.org/2000/svg">
  <path d="M 21.05 21 L 25.617 21 C 26.381 21 27 20.358 27 19.567 C 27 18.776 26.381 18.134 25.61 18.134 L 22.973 18.152 C 23.653 15.97 23.995 14.535 23.995 13.848 C 23.995 12.03 22.732 11 21.23 11 C 19.607 11 18.464 11.848 17.803 12.576 C 17.323 11.485 16.24 11 15.4 11 C 14.56 11 13.597 11.242 12.875 12.152 C 12.715 11.465 12.275 11.122 11.553 11.122 L 6.413 11.122 C 5.317 11.173 4.688 12.391 5.28 13.315 C 5.535 13.713 5.971 13.958 6.444 13.97 L 9.509 13.97 L 8.127 19.727 C 8.167 20.576 8.567 21 9.329 21 C 10.17 21 10.711 20.515 10.952 19.545 C 11.392 17.768 11.733 16.435 11.974 15.545 C 12.334 14.212 13.116 13.606 13.957 13.606 C 14.799 13.606 15.159 14.212 15.159 14.697 C 15.159 15.02 15.047 15.537 14.822 16.247 C 14.245 18.374 13.957 19.535 13.957 19.727 C 13.957 20.212 14.137 21 15.22 21 C 15.94 21 16.442 20.636 16.722 19.91 C 17.444 17.121 17.904 15.404 18.105 14.758 C 18.405 13.788 19.395 13.606 19.848 13.606 C 20.629 13.606 21.05 14.152 21.05 14.697 C 21.05 14.98 20.979 15.3 20.836 15.657 C 20.137 17.963 19.788 19.34 19.788 19.787 C 19.788 20.697 20.449 21 21.05 21 Z"/>
</svg>
