<?xml version="1.0" encoding="utf-8"?>
<svg fill="#d1d1d1" viewBox="0 0 32 32" xmlns="http://www.w3.org/2000/svg">
  <path d="M 16.526 23 L 17.94 23 L 18.917 18.077 L 21.223 18.087 C 22.833 18.087 24.157 17.675 25.196 16.851 C 26.236 16.027 26.829 14.93 26.975 13.558 C 27.063 12.617 26.919 11.798 26.541 11.103 L 23.811 12.53 C 23.831 12.64 23.842 12.753 23.846 12.865 C 23.868 13.737 23.663 14.431 23.231 14.948 C 22.799 15.464 22.191 15.728 21.409 15.741 L 19.378 15.721 L 19.572 14.746 L 16.057 16.583 L 15.417 19.828 L 14.555 17.368 L 11.91 18.751 L 12.992 23 L 16.526 23 Z M 15.211 12.01 L 16.961 12.01 L 16.429 14.703 L 19.945 12.865 L 20.245 11.355 L 22.54 11.375 C 22.61 11.379 22.68 11.388 22.748 11.401 L 25.548 9.937 C 24.802 9.351 23.847 9.042 22.682 9.01 L 17.556 9 L 15.341 9 L 13.461 12.01 L 15.211 12.01 L 13.461 12.01 L 12.41 13.789 L 11.18 9 L 7.7 9 L 10.072 15.827 L 7.605 19.317 L 14.264 15.835 L 16.961 12.009 L 15.211 12.01 Z M 5.786 21.952 L 5.766 21.915 L 5 23 L 8.765 23 L 11.113 19.167 L 5.786 21.952 Z" fill-rule="evenodd"/>
</svg>
