<?xml version="1.0" encoding="utf-8"?>
<svg fill="#d1d1d1" width="32" height="32" viewBox="0 0 32 32" xmlns="http://www.w3.org/2000/svg">
  <path fill-rule="evenodd" d="M 25.575 12.846 L 17.465 10.522 L 14.691 15.247 L 11.469 11.51 L 12.929 11.322 L 14.434 13.09 L 16.104 10.131 L 8.754 8.024 C 8.321 7.896 7.912 8.284 8.018 8.723 C 8.018 8.723 8.018 8.724 8.018 8.724 L 11.274 21.8 L 14.771 15.912 L 17.993 19.649 L 16.533 19.837 L 15.029 18.069 L 11.719 23.586 L 12.209 25.556 C 12.321 25.994 12.863 26.149 13.189 25.836 L 25.819 13.826 C 26.143 13.519 26.013 12.976 25.585 12.849 C 25.582 12.848 25.578 12.847 25.575 12.846 Z"/>
</svg>
