<?xml version="1.0" encoding="utf-8"?>
<svg fill="#d1d1d1" viewBox="0 0 32 32" xmlns="http://www.w3.org/2000/svg">
  <path d="M 24 15.562 L 24 8 L 20.545 8 L 20.545 15.475 C 20.545 18.788 17.691 18.628 17.691 18.628 L 17.691 8 L 14.221 8 L 14.221 18.628 C 14.221 18.628 11.455 18.657 11.455 15.518 L 11.455 8 L 8 8 L 8 15.24 C 8 21.255 13.284 21.474 14.207 21.474 L 14.207 22.642 L 12.084 22.642 L 12.084 24.204 L 14.211 24.204 L 14.211 26 L 17.691 26 L 17.691 24.204 L 19.915 24.204 L 19.915 22.642 L 17.691 22.642 L 17.691 21.49 C 20.574 21.49 24 19.986 24 15.563 L 24 15.562 Z" fill-rule="evenodd"/>
</svg>
