<?xml version="1.0" encoding="utf-8"?>
<svg fill="#d1d1d1" width="32" height="32" viewBox="0 0 32 32" xmlns="http://www.w3.org/2000/svg">
  <path d="M 15.992 5 C 14.018 5 12.432 8.076 11.896 12.56 C 11.872 12.763 11.849 12.974 11.829 13.187 L 11.804 13.507 C 11.402 13.797 11.02 14.091 10.658 14.385 L 10.302 14.681 C 10.142 14.817 9.986 14.953 9.834 15.091 L 9.611 15.301 C 7.954 13.552 7.213 11.973 7.582 11.111 L 7.63 11.014 C 8.028 10.303 9.322 10.078 11.15 10.411 L 11.402 10.46 C 11.454 10.227 11.505 10 11.562 9.78 L 11.649 9.454 C 9.361 8.977 7.596 9.264 6.857 10.372 L 6.777 10.504 C 6.624 10.774 6.532 11.074 6.509 11.384 L 6.502 11.575 L 6.502 11.612 C 6.515 13.28 8.047 15.492 10.622 17.604 L 10.902 17.83 C 11.089 17.98 11.287 18.131 11.49 18.282 L 11.797 18.508 C 11.839 19.038 11.897 19.552 11.968 20.043 L 12.044 20.527 L 12.119 20.947 L 12.199 21.357 C 9.911 21.969 8.224 21.842 7.68 21.084 L 7.623 20.994 C 7.225 20.282 7.685 19.004 8.873 17.535 L 9.04 17.334 L 8.356 16.59 C 6.794 18.416 6.136 20.153 6.699 21.373 L 6.769 21.511 C 7.221 22.321 8.166 22.73 9.439 22.775 L 9.682 22.779 C 10.992 22.779 12.614 22.417 14.395 21.711 L 14.779 21.555 L 14.854 21.522 L 14.934 21.489 C 15.16 21.392 15.386 21.291 15.614 21.186 L 15.957 21.023 L 15.978 21.012 L 15.999 21.001 C 16.459 21.219 16.915 21.421 17.367 21.604 L 17.818 21.781 L 18.208 21.925 L 18.594 22.058 C 17.962 24.416 17.011 25.869 16.104 25.973 L 15.999 25.979 C 15.203 25.979 14.362 24.926 13.729 23.112 L 13.644 22.86 C 13.428 22.937 13.214 23.009 13.003 23.073 L 12.685 23.166 C 13.461 25.542 14.638 27 16 27 C 17.934 27 19.485 24.069 20.063 19.758 L 20.103 19.441 L 20.153 18.973 L 20.195 18.5 C 20.613 18.2 21.011 17.89 21.389 17.577 L 21.761 17.261 L 21.803 17.227 L 21.845 17.188 L 22.115 16.947 L 22.381 16.7 C 24.045 18.44 24.786 20.026 24.417 20.89 L 24.369 20.986 C 24 21.646 22.825 21.889 21.203 21.652 L 20.957 21.613 L 20.781 21.58 L 20.604 21.547 C 20.553 21.776 20.501 21.997 20.445 22.215 L 20.358 22.539 L 20.578 22.582 L 20.795 22.619 C 21.24 22.695 21.659 22.743 22.05 22.759 L 22.339 22.765 C 23.673 22.765 24.644 22.384 25.142 21.646 L 25.23 21.504 C 25.824 20.442 25.435 18.918 24.129 17.202 L 23.953 16.977 C 23.289 16.141 22.447 15.299 21.475 14.487 L 21.105 14.185 L 20.663 13.84 L 20.21 13.5 C 20.169 12.985 20.111 12.472 20.035 11.961 L 19.955 11.473 L 19.881 11.053 L 19.801 10.643 C 20.068 10.569 20.331 10.506 20.586 10.453 L 20.964 10.38 C 22.629 10.095 23.866 10.293 24.315 10.91 L 24.377 11.007 C 24.767 11.704 24.327 12.955 23.177 14.395 L 23.016 14.593 C 23.18 14.758 23.336 14.923 23.483 15.087 L 23.7 15.329 L 23.832 15.173 L 23.953 15.016 C 25.332 13.283 25.81 11.732 25.302 10.63 L 25.23 10.49 C 24.634 9.425 23.161 9.013 21.067 9.324 L 20.802 9.366 C 19.895 9.52 18.912 9.801 17.892 10.182 L 17.452 10.351 L 17.382 10.38 L 17.312 10.409 C 17.048 10.516 16.785 10.629 16.522 10.749 L 16.127 10.934 L 16.074 10.959 L 16.021 10.985 C 15.568 10.766 15.108 10.56 14.643 10.368 L 14.195 10.19 L 13.805 10.046 L 13.42 9.913 C 14.051 7.562 15.003 6.109 15.91 6.005 L 16.014 5.999 C 16.81 5.999 17.658 7.059 18.291 8.874 L 18.376 9.126 L 18.858 8.967 L 19.335 8.82 C 18.568 6.552 17.448 5.11 16.145 5.006 L 15.991 5 L 15.992 5 Z M 19.116 19.251 C 19.087 19.47 19.059 19.689 19.029 19.901 L 18.982 20.213 L 18.903 20.653 L 18.819 21.081 C 18.566 20.986 18.305 20.891 18.037 20.789 L 17.592 20.612 L 17.142 20.425 L 17.205 20.392 L 17.268 20.359 L 17.703 20.114 L 18.143 19.864 L 18.269 19.787 L 18.389 19.71 L 18.755 19.48 L 19.115 19.251 L 19.116 19.251 Z M 12.869 19.244 L 13.325 19.534 L 13.792 19.82 L 13.817 19.837 L 13.842 19.849 L 14.34 20.139 L 14.843 20.417 L 14.839 20.418 L 14.836 20.425 C 14.601 20.527 14.369 20.622 14.14 20.714 L 13.8 20.848 L 13.651 20.906 L 13.408 20.992 L 13.165 21.074 C 13.062 20.581 12.977 20.084 12.911 19.584 L 12.869 19.244 Z M 15.992 12.129 C 16.399 12.332 16.81 12.554 17.229 12.795 L 17.649 13.04 L 18.003 13.255 L 18.347 13.471 C 18.554 13.601 18.754 13.733 18.951 13.866 L 19.243 14.068 C 19.274 14.533 19.294 15.014 19.302 15.508 L 19.306 16.008 L 19.301 16.527 L 19.285 17.035 L 19.263 17.493 L 19.235 17.946 C 18.902 18.18 18.555 18.41 18.197 18.636 L 17.649 18.974 L 17.43 19.104 L 17.212 19.229 C 16.962 19.375 16.714 19.511 16.467 19.642 L 16.097 19.834 L 16.045 19.86 L 15.992 19.885 C 15.429 19.601 14.876 19.298 14.335 18.975 L 13.981 18.762 L 13.637 18.544 C 13.434 18.415 13.232 18.283 13.033 18.148 L 12.742 17.946 C 12.71 17.467 12.69 16.986 12.682 16.506 L 12.678 16.007 L 12.684 15.487 L 12.699 14.979 L 12.721 14.519 L 12.749 14.069 C 13.082 13.835 13.429 13.605 13.788 13.379 L 14.335 13.04 L 14.656 12.85 L 14.976 12.669 L 15.484 12.393 L 15.992 12.129 Z M 15.992 14.695 L 15.862 14.702 C 15.225 14.769 14.723 15.331 14.723 16.007 L 14.73 16.141 C 14.795 16.801 15.338 17.319 15.992 17.319 L 16.122 17.313 C 16.759 17.245 17.262 16.683 17.262 16.007 L 17.255 15.874 C 17.189 15.214 16.647 14.695 15.992 14.695 Z M 20.272 14.834 C 20.474 14.989 20.67 15.148 20.86 15.306 L 21.14 15.541 L 21.402 15.774 L 21.654 16.007 L 21.374 16.262 L 21.083 16.518 L 21.04 16.554 L 20.998 16.59 C 20.843 16.722 20.682 16.856 20.516 16.99 L 20.265 17.188 C 20.279 16.897 20.293 16.598 20.293 16.298 L 20.293 16.008 C 20.293 15.74 20.29 15.479 20.283 15.221 L 20.272 14.834 Z M 11.719 14.834 L 11.703 15.276 L 11.698 15.723 L 11.698 16.007 C 11.698 16.275 11.701 16.535 11.708 16.794 L 11.719 17.181 C 11.421 16.956 11.132 16.72 10.852 16.474 L 10.586 16.241 L 10.33 16.007 C 10.485 15.867 10.644 15.722 10.807 15.579 L 11.057 15.366 C 11.197 15.249 11.342 15.129 11.491 15.011 L 11.719 14.834 Z M 18.827 10.941 L 18.907 11.347 L 18.982 11.765 C 19.019 11.983 19.051 12.205 19.08 12.431 L 19.123 12.771 C 18.818 12.572 18.51 12.378 18.199 12.188 L 18.174 12.17 L 18.15 12.158 L 17.65 11.868 L 17.156 11.59 L 17.198 11.569 L 17.24 11.553 C 17.508 11.437 17.776 11.327 18.04 11.225 L 18.432 11.08 L 18.632 11.008 L 18.827 10.941 Z M 13.165 10.941 C 13.339 10.999 13.513 11.058 13.689 11.122 L 13.954 11.225 C 14.147 11.298 14.343 11.378 14.542 11.461 L 14.842 11.59 L 14.342 11.869 L 13.842 12.159 L 13.82 12.17 L 13.8 12.188 L 13.329 12.476 L 12.869 12.771 C 12.927 12.251 13.006 11.734 13.106 11.221 L 13.165 10.941 Z"/>
</svg>
