<?xml version="1.0" encoding="utf-8"?>
<svg fill="#d1d1d1" width="32" height="32" viewBox="0 0 32 32" xmlns="http://www.w3.org/2000/svg">
  <path d="M 16.14 5.855 L 24.309 10.56 L 26.766 9.132 L 16.14 3 L 16.14 5.855 Z M 24.472 20.272 L 26.953 21.7 L 26.953 9.436 L 24.473 10.864 L 24.473 20.272 L 24.472 20.272 Z M 16.14 25.281 L 16.14 28.136 L 26.766 22.004 L 24.309 20.577 L 16.14 25.281 Z M 5.164 22.004 L 15.789 28.136 L 15.789 25.281 L 7.645 20.577 L 5.164 22.004 Z M 5 9.436 L 5 21.7 L 7.457 20.272 L 7.457 10.864 L 5 9.436 Z M 5.164 9.132 L 7.644 10.56 L 15.789 5.855 L 15.789 3 L 5.164 9.132 Z M 15.988 6.124 L 7.797 10.83 L 7.797 20.285 L 15.988 25.013 L 24.156 20.285 L 24.156 10.83 L 15.988 6.125 L 15.988 6.124 Z M 22.565 14.574 L 22.214 15.182 L 19.874 13.872 L 16.878 15.556 L 19.873 17.241 L 22.213 15.931 L 22.565 16.539 L 20.599 17.639 L 22.565 18.739 L 22.214 19.348 L 20.248 18.248 L 20.248 20.448 L 19.522 20.448 L 19.522 17.85 L 16.527 16.165 L 16.527 19.535 L 18.844 20.822 L 18.493 21.419 L 16.527 20.319 L 16.527 22.519 L 15.8 22.519 L 15.8 20.319 L 13.834 21.419 L 13.46 20.811 L 15.8 19.523 L 15.8 16.165 L 12.804 17.85 L 12.804 20.448 L 12.055 20.448 L 12.055 18.248 L 10.113 19.348 L 9.738 18.739 L 11.704 17.639 L 9.738 16.539 L 10.113 15.931 L 12.43 17.241 L 15.449 15.556 L 12.429 13.871 L 10.113 15.181 L 9.738 14.573 L 11.704 13.473 L 9.738 12.373 L 10.113 11.765 L 12.055 12.865 L 12.055 10.653 L 12.805 10.653 L 12.805 13.251 L 15.8 14.936 L 15.8 11.578 L 13.483 10.29 L 13.834 9.682 L 15.8 10.782 L 15.8 8.582 L 16.526 8.582 L 16.526 10.782 L 18.492 9.682 L 18.842 10.29 L 16.526 11.578 L 16.526 14.948 L 19.521 13.263 L 19.521 10.653 L 20.247 10.653 L 20.247 12.853 L 22.213 11.753 L 22.563 12.362 L 20.598 13.462 L 22.564 14.573 L 22.565 14.574 Z"/>
</svg>
