<?xml version="1.0" encoding="utf-8"?>
<svg fill="#d1d1d1" viewBox="0 0 32 32" xmlns="http://www.w3.org/2000/svg">
  <path fill-rule="evenodd" d="M 18.19 26 C 19.183 26 20.107 25.794 20.961 25.381 C 21.793 24.991 22.467 24.328 22.871 23.503 C 23.292 22.656 23.507 21.722 23.5 20.777 C 23.492 20.284 23.434 19.792 23.325 19.311 C 23.217 18.761 22.972 18.188 22.591 17.592 C 22.211 16.989 21.668 16.515 20.961 16.172 C 20.262 15.82 19.633 15.645 19.074 15.645 C 18.739 15.674 18.409 15.751 18.096 15.874 L 23.267 10.788 L 22.428 9.963 L 13.997 9.986 L 13.997 6.412 L 13.182 6 L 11.016 6 L 11.016 6.595 L 11.761 7.329 L 11.761 9.986 L 8.5 9.986 L 8.5 11.155 L 11.76 11.155 L 11.76 17.432 C 11.76 18.348 12.025 19.074 12.553 19.608 C 13.081 20.143 14.036 20.41 15.418 20.41 C 15.977 20.41 16.489 20.257 16.955 19.952 C 17.421 19.646 17.785 19.204 18.05 18.623 C 18.075 18.517 18.095 18.411 18.108 18.303 C 18.11 18.146 18.051 17.994 17.945 17.878 C 17.828 17.795 17.728 17.753 17.642 17.753 C 17.587 17.754 17.533 17.774 17.491 17.81 C 17.439 17.848 17.398 17.899 17.374 17.959 C 17.131 18.304 16.832 18.606 16.489 18.852 C 16.148 19.097 15.79 19.219 15.418 19.219 C 14.936 19.219 14.579 19.051 14.346 18.715 C 14.113 18.379 13.996 17.951 13.996 17.432 L 13.996 11.155 L 20.379 11.155 L 15.767 17.203 L 15.767 17.707 L 16.792 17.203 C 17.352 16.897 17.817 16.745 18.189 16.745 C 18.748 16.743 19.297 16.897 19.773 17.191 C 20.263 17.489 20.631 17.947 20.88 18.566 C 21.136 19.176 21.264 19.914 21.264 20.776 C 21.264 21.571 21.147 22.281 20.914 22.907 C 20.682 23.533 20.321 24.007 19.832 24.327 C 19.345 24.648 18.772 24.816 18.189 24.809 C 17.755 24.809 17.319 24.748 16.885 24.625 C 16.45 24.511 16.132 24.316 15.93 24.041 C 16.163 23.972 16.365 23.828 16.536 23.606 C 16.706 23.384 16.792 23.098 16.792 22.746 C 16.792 22.456 16.734 22.212 16.617 22.014 C 16.503 21.817 16.338 21.655 16.14 21.544 C 15.91 21.423 15.653 21.364 15.394 21.372 C 15.099 21.372 14.851 21.43 14.649 21.544 C 14.451 21.655 14.286 21.817 14.172 22.014 C 14.055 22.212 13.997 22.457 13.997 22.747 C 13.997 23.541 14.331 24.282 14.998 24.969 C 15.666 25.656 16.73 26 18.189 26 L 18.19 26 Z"/>
</svg>
