<?xml version="1.0" encoding="utf-8"?>
<svg fill="#d1d1d1" viewBox="0 0 32 32" xmlns="http://www.w3.org/2000/svg">
  <path d="M 27 16 C 27 9.925 22.075 5 16 5 C 9.925 5 5 9.924 5 16 C 5 22.075 9.925 27 16 27 C 22.075 27 27 22.075 27 16 Z M 23.23 16.346 L 10.912 16.363 C 11.105 19.025 13.32 21.087 15.989 21.089 C 17.864 21.089 19.586 20.056 20.469 18.403 L 22.791 18.403 C 21.935 20.817 19.865 22.597 17.351 23.084 L 17.351 24.53 L 15.111 25.228 L 15.111 23.16 C 11.537 22.725 8.766 19.686 8.766 15.995 C 8.766 12.39 11.413 9.408 14.869 8.87 L 14.869 7.467 L 17.108 6.77 L 17.108 8.87 C 20.565 9.408 23.23 12.612 23.23 16.22 C 23.23 16.346 23.237 16.22 23.23 16.346 Z M 11.25 14.13 L 20.727 14.13 C 19.961 12.183 18.082 10.902 15.989 10.901 C 13.896 10.902 12.017 12.183 11.251 14.131 L 11.25 14.13 Z"/>
</svg>
