<?xml version="1.0" encoding="utf-8"?>
<svg fill="#d1d1d1" viewBox="0 0 32 32" xmlns="http://www.w3.org/2000/svg">
  <path fill-rule="evenodd" d="M 18.725 19.148 L 22.115 19.148 L 22.115 22.112 L 11.93 22.112 L 24.573 9.46 C 24.983 9.045 25.108 8.428 24.893 7.886 C 24.664 7.347 24.135 6.998 23.55 7 L 8.45 7 C 7.646 6.994 6.993 7.648 7 8.452 L 7 19.148 L 13.275 12.868 L 9.885 12.868 L 9.885 9.888 L 20.053 9.888 L 7.427 22.54 C 7.017 22.955 6.892 23.572 7.107 24.114 C 7.336 24.649 7.855 25 8.45 25 L 23.55 25 C 24.352 25 25.001 24.35 25 23.548 L 25 12.868 L 18.725 19.148 Z"/>
</svg>
