<?xml version="1.0" encoding="utf-8"?>
<svg fill="#d1d1d1" width="32" height="32" viewBox="0 0 32 32" xmlns="http://www.w3.org/2000/svg">
  <path d="M 17.342 16.075 L 17.185 17.745 C 19.142 19.303 19.406 20.46 19.106 22.003 C 18.427 24.393 16.355 24.643 15.473 24.491 C 14.463 24.306 14.039 24.254 13.167 23.23 C 12.307 22.135 12.193 20.63 12.876 19.417 L 12.888 19.397 L 13.33 21.497 L 14.6 21.245 L 13.77 16.821 L 9.5 17.833 L 9.842 19.212 L 11.591 18.872 L 11.574 18.913 C 11.499 19.097 11.194 19.871 11.103 20.475 C 10.515 24.163 13.636 25.833 14.933 25.921 C 17.506 26.109 19 24.997 19.776 23.818 C 21.216 21.458 20.497 19.712 20.079 18.824 C 19.533 17.706 17.342 16.075 17.342 16.075 Z M 16.582 9.755 L 15.209 9.755 L 15.209 22.36 L 16.582 22.36 L 16.582 9.754 L 16.582 9.755 Z M 16.552 6.009 C 13.972 5.888 12.509 7.039 11.767 8.239 C 10.387 10.639 11.152 12.363 11.597 13.236 C 12.173 14.339 14.407 15.912 14.407 15.912 L 14.518 14.239 C 12.518 12.736 12.224 11.588 12.485 10.036 C 13.1 7.627 15.164 7.327 16.052 7.454 C 17.061 7.612 17.488 7.654 18.388 8.654 C 19.278 9.725 19.433 11.228 18.781 12.458 L 18.77 12.478 L 18.273 10.394 L 17.013 10.678 L 17.958 15.078 L 22.197 13.954 L 21.818 12.582 L 20.078 12.969 C 20.078 12.969 20.439 12.045 20.524 11.351 C 21.015 7.648 17.848 6.063 16.552 6.009 Z"/>
</svg>
