<?xml version="1.0" encoding="utf-8"?>
<svg fill="#d1d1d1" height="32" viewBox="0 0 32 32" width="32" xmlns="http://www.w3.org/2000/svg">
  <path d="M 21.49 16.575 C 21.943 16.925 22.604 16.653 22.68 16.086 C 22.684 16.058 22.686 16.029 22.687 16 C 22.687 15.837 22.632 15.678 22.53 15.55 C 22.899 15.884 23.39 16.088 23.93 16.088 C 25.074 16.088 26.001 15.173 26.001 14.044 C 26.001 12.915 25.073 12 23.929 12 C 22.785 12 21.858 12.915 21.858 14.044 C 21.858 14.576 22.064 15.061 22.403 15.425 C 21.95 15.076 21.289 15.349 21.213 15.916 C 21.21 15.944 21.208 15.972 21.207 16 C 21.207 16.17 21.266 16.326 21.364 16.45 C 20.981 16.103 20.481 15.911 19.964 15.912 C 19.424 15.912 18.934 16.116 18.564 16.45 C 18.666 16.322 18.722 16.164 18.722 16 C 19.175 15.651 19.081 14.942 18.552 14.724 C 18.058 14.52 17.516 14.89 17.526 15.425 C 17.876 15.051 18.071 14.557 18.071 14.044 C 18.071 12.915 17.144 12 16 12 C 14.856 12 13.929 12.915 13.929 14.044 C 13.929 14.576 14.135 15.061 14.474 15.425 C 14.021 15.076 13.36 15.349 13.284 15.916 C 13.281 15.944 13.279 15.972 13.278 16 C 13.278 16.17 13.337 16.326 13.435 16.45 C 13.052 16.103 12.552 15.911 12.035 15.912 C 11.495 15.912 11.005 16.116 10.635 16.45 C 10.737 16.322 10.793 16.164 10.793 16 C 11.246 15.651 11.152 14.942 10.623 14.724 C 10.129 14.52 9.587 14.89 9.597 15.425 C 9.947 15.051 10.142 14.557 10.142 14.044 C 10.142 12.915 9.215 12 8.071 12 C 6.927 12 6 12.915 6 14.044 C 6 15.173 6.927 16.088 8.071 16.088 C 8.611 16.088 9.102 15.884 9.471 15.55 C 9.369 15.678 9.314 15.837 9.314 16 C 9.314 16.403 9.644 16.73 10.054 16.73 C 10.225 16.73 10.384 16.672 10.509 16.575 C 10.159 16.95 9.964 17.443 9.964 17.956 C 9.964 19.085 10.892 20 12.036 20 C 13.179 20 14.106 19.085 14.106 17.956 C 14.106 17.424 13.9 16.939 13.562 16.575 C 14.016 16.923 14.676 16.649 14.751 16.082 C 14.754 16.055 14.756 16.027 14.757 16 C 14.757 15.837 14.702 15.678 14.6 15.55 C 14.969 15.884 15.46 16.088 16 16.088 C 16.54 16.088 17.031 15.884 17.4 15.55 C 17.298 15.678 17.243 15.837 17.243 16 C 17.243 16.403 17.573 16.73 17.983 16.73 C 18.154 16.73 18.313 16.672 18.438 16.575 C 18.088 16.95 17.893 17.443 17.893 17.956 C 17.893 19.085 18.821 20 19.964 20 C 21.108 20 22.036 19.085 22.036 17.956 C 22.036 17.424 21.829 16.939 21.491 16.575 L 21.49 16.575 Z"/>
</svg>
