<?xml version="1.0" encoding="utf-8"?>
<svg fill="#d1d1d1" viewBox="0 0 32 32" xmlns="http://www.w3.org/2000/svg">
  <path d="M 15.992 27 C 22.164 26.992 26.988 22.004 27 16.002 C 27.008 9.934 22.08 5.004 16.015 5 C 9.932 4.996 5 9.915 5 15.986 C 5 22.07 9.917 26.996 15.992 27 Z M 11.509 21.03 C 15.228 21.032 18.945 21.03 22.66 21.022 C 20.727 23.72 16.604 25.335 12.672 23.58 C 8.612 21.77 6.992 17.252 8.138 13.65 L 8.274 13.65 C 10.534 13.648 12.796 13.65 15.058 13.653 C 15.143 13.662 15.225 13.615 15.26 13.537 C 15.694 12.76 16.136 11.987 16.573 11.211 C 16.604 11.161 16.632 11.107 16.67 11.033 L 9.49 11.033 C 9.487 11.021 9.479 11.013 9.475 11.002 C 9.634 10.815 9.785 10.622 9.952 10.442 C 11.222 9.068 12.772 8.199 14.612 7.872 C 16.462 7.547 18.224 7.818 19.898 8.672 C 20.572 9.011 21.192 9.448 21.738 9.969 C 22.955 11.134 23.78 12.527 24.156 14.177 C 24.468 15.54 24.432 16.959 24.051 18.304 C 24.032 18.378 24.005 18.409 23.92 18.409 C 21.404 18.406 18.887 18.405 16.368 18.405 C 16.341 18.405 16.314 18.405 16.263 18.401 C 17.658 15.944 19.042 13.501 20.436 11.041 L 20.293 11.041 C 19.29 11.041 18.283 11.041 17.279 11.037 C 17.214 11.03 17.153 11.066 17.128 11.126 C 16.268 12.646 15.408 14.166 14.543 15.684 C 13.556 17.416 12.571 19.15 11.587 20.886 C 11.564 20.924 11.54 20.971 11.509 21.029 L 11.509 21.03 Z M 24.152 22.928 L 22.711 21.46 C 25.353 18.191 25.245 13.638 22.684 10.56 C 23.172 10.066 23.664 9.573 24.168 9.065 C 25.783 11.025 26.648 13.242 26.709 15.765 C 26.787 18.828 25.547 21.379 24.152 22.928 Z" fill-rule="evenodd"/>
</svg>
