<?xml version="1.0" encoding="utf-8"?>
<svg fill="#d1d1d1" viewBox="0 0 32 32" xmlns="http://www.w3.org/2000/svg">
  <path fill-rule="evenodd" d="M 15.096 19.846 C 15.621 19.269 16.127 18.676 16.614 18.068 C 17.862 16.549 19.1 15.023 20.328 13.488 C 20.715 13.008 21.296 12.53 21.393 11.983 C 21.587 10.957 21.458 9.863 21.458 8.735 L 17.55 8.735 L 17.55 6 L 14.418 6 L 14.418 8.803 L 10.833 8.803 L 10.833 12.153 L 16.872 12.153 C 16.322 12.803 15.839 13.35 15.354 13.932 C 14.106 15.451 12.868 16.977 11.64 18.512 C 11.285 18.992 10.704 19.47 10.607 20.017 C 10.413 21.043 10.542 22.137 10.542 23.231 L 14.418 23.231 L 14.418 26 L 17.679 26 C 17.615 25.043 17.582 24.154 17.518 23.197 L 21.393 23.197 L 21.393 19.847 L 15.096 19.847 L 15.096 19.846 Z"/>
</svg>
