<?xml version="1.0" encoding="utf-8"?>
<svg fill="#d1d1d1" width="32" height="32" viewBox="0 0 32 32" xmlns="http://www.w3.org/2000/svg">
  <path d="M 24.8 9.568 L 23.02 12.338 C 23.588 13.451 23.881 14.684 23.876 15.933 C 23.876 20.333 20.316 23.876 15.933 23.876 C 14.689 23.882 13.462 23.588 12.356 23.02 L 9.568 24.817 C 11.365 26.093 13.548 26.866 15.916 26.866 C 21.945 26.866 26.849 21.979 26.849 15.933 C 26.855 13.774 26.215 11.663 25.011 9.871 L 24.8 9.568 Z M 15.933 5 C 9.893 4.994 4.994 9.893 5 15.933 C 5 18.368 5.79 20.602 7.133 22.415 C 7.653 21.475 8.275 20.618 8.997 19.845 C 8.997 19.845 10.072 18.721 10.895 18.15 C 13.136 16.509 15.842 15.626 18.62 15.63 C 19.418 15.63 20.192 15.7 20.953 15.84 L 21.408 15.933 C 21.407 12.9 18.949 10.442 15.916 10.441 C 12.693 10.444 10.168 13.214 10.464 16.424 L 10.492 16.672 C 9.115 17.73 8.46 18.552 8.426 18.586 C 8.129 17.739 7.976 16.848 7.973 15.95 C 7.973 11.55 11.533 8.006 15.916 8.006 C 17.209 8.006 18.418 8.308 19.493 8.863 L 22.264 7.066 C 20.429 5.719 18.21 4.995 15.933 5 Z M 18.687 16.621 C 15.967 16.621 13.431 17.495 11.382 18.973 C 12.399 20.489 14.106 21.397 15.932 21.391 C 18.575 21.392 20.843 19.506 21.324 16.907 C 20.458 16.718 19.574 16.622 18.687 16.621 Z"/>
</svg>
