<?xml version="1.0" encoding="utf-8"?>
<svg fill="#d1d1d1" width="32" height="32" viewBox="0 0 32 32" xmlns="http://www.w3.org/2000/svg">
  <path d="M 18.266 8.637 C 17.839 8.536 17.389 8.593 17 8.797 C 16.153 9.182 15.262 9.462 14.347 9.632 C 13.941 9.728 13.543 9.852 13.154 10.002 C 12.829 10.184 12.49 10.339 12.14 10.465 C 11.268 10.588 9.658 9.518 9.81 11.175 C 9.81 11.479 10.122 11.64 10.027 12.028 C 9.933 12.417 9.516 12.758 9.317 13.061 C 8.908 13.747 8.59 14.482 8.369 15.249 C 7.831 16.986 7.935 18.859 8.663 20.526 C 9.013 21.346 9.48 22.112 10.046 22.8 C 10.323 23.123 10.566 23.472 10.776 23.842 C 10.936 24.28 11.136 24.702 11.373 25.102 C 11.791 25.627 12.468 25.872 13.125 25.737 C 13.456 25.623 13.774 25.474 14.073 25.292 C 14.584 25.089 15.118 24.952 15.664 24.884 C 17.654 24.572 19.47 23.565 20.789 22.042 C 21.414 21.288 21.899 20.428 22.22 19.503 C 22.407 18.987 22.543 18.454 22.627 17.912 C 22.675 17.571 22.571 16.708 22.817 16.482 C 22.977 16.329 23.357 16.292 23.471 16.149 C 23.557 15.961 23.624 15.764 23.669 15.562 C 23.849 15.003 22.798 14.558 22.391 14.368 C 21.86 14.046 21.671 13.098 21.339 12.578 C 20.884 11.848 20.221 11.252 19.823 10.494 C 19.425 9.736 19.378 9.158 18.696 8.798 C 18.61 8.753 18.522 8.715 18.43 8.684 C 18.26 8.277 19.008 8.116 19.236 8.144 C 19.643 8.264 20.016 8.478 20.326 8.769 C 20.922 9.215 22.096 10.532 22.959 10.219 C 23.821 9.906 22.798 8.381 22.324 7.983 C 21.539 7.243 20.45 6.916 19.387 7.103 C 18.909 7.246 18.517 7.593 18.317 8.049 C 18.272 8.216 18.13 8.52 18.267 8.637 L 18.266 8.637 Z M 23.896 6.695 C 23.328 6.553 22.002 6.572 21.595 7.131 C 22.002 7.358 22.286 7.708 22.703 7.718 C 23.12 7.728 23.603 7.329 24.133 7.557 C 23.906 7.557 22.883 7.747 22.817 8.059 C 22.96 8.294 23.132 8.51 23.328 8.703 C 23.594 8.921 23.622 8.997 24.02 8.779 C 24.507 8.471 24.875 8.007 25.062 7.462 C 25.062 7.178 25.147 7.367 24.939 7.131 C 24.633 6.901 24.275 6.752 23.897 6.695 L 23.896 6.695 Z M 18.554 7.197 C 19.323 6.787 20.217 6.675 21.064 6.884 C 20.982 5.972 20.555 5.125 19.871 4.516 C 20.691 5.026 21.268 5.846 21.471 6.789 C 21.936 6.714 22.419 6.534 22.864 6.467 C 22.784 5.56 22.384 4.711 21.737 4.071 C 21.424 3.777 20.543 3 20.04 3 C 19.537 3 18.884 4.137 18.695 4.601 C 18.371 5.429 18.321 6.339 18.553 7.197 L 18.554 7.197 Z M 23.111 15.723 C 22.968 16.045 22.409 16.235 22.163 16.576 C 21.809 17.215 21.337 17.781 20.771 18.243 C 19.596 18.855 18.151 18.545 17.331 17.504 C 16.912 16.98 16.684 16.328 16.687 15.657 C 16.687 15.136 17.256 13.828 16.687 13.544 C 16.119 13.26 15.854 14.179 15.636 14.492 C 15.255 15.125 14.675 15.614 13.987 15.884 C 12.896 16.253 11.691 15.991 10.852 15.202 C 10.294 14.409 10.13 13.404 10.406 12.474 C 10.419 12.006 10.377 11.539 10.283 11.081 C 10.283 10.399 10.88 10.645 11.363 10.74 C 12.56 10.953 13.698 11.422 14.698 12.114 C 15.637 12.894 16.764 13.416 17.966 13.629 C 18.771 13.705 19.569 13.841 20.354 14.037 C 20.742 14.151 21.102 14.34 21.481 14.473 C 21.881 14.603 22.269 14.77 22.637 14.975 C 22.893 15.088 23.262 15.315 23.12 15.685 L 23.11 15.723 L 23.111 15.723 Z"/>
</svg>
