<?xml version="1.0" encoding="utf-8"?>
<svg fill="#d1d1d1" width="32" height="32" viewBox="0 0 32 32" xmlns="http://www.w3.org/2000/svg">
  <path d="M 15.505 6.274 C 15.413 6.664 15.137 7.894 15.011 8.718 C 14.961 9.056 14.751 9.507 15.337 9.75 C 15.203 9.776 15.162 9.793 15.12 9.784 C 14.702 9.732 14.275 9.672 13.857 9.62 C 13.765 9.611 13.648 9.594 13.564 9.637 C 13.004 9.932 12.754 10.634 13.037 11.232 C 13.197 11.57 13.247 11.882 13.18 12.238 C 13.171 12.33 13.189 12.423 13.23 12.506 C 13.556 13.304 13.615 14.101 13.355 14.933 C 13.313 15.063 13.339 15.22 13.347 15.358 C 13.364 15.627 13.38 15.896 13.405 16.164 C 12.995 15.835 12.545 15.54 12.201 15.141 C 11.856 14.735 11.687 14.208 11.733 13.677 C 11.741 13.573 11.658 13.451 11.591 13.356 C 11.398 13.07 11.173 12.81 11.014 12.506 C 10.788 12.073 10.512 11.891 10.06 12.03 C 9.835 12.099 9.625 12.246 9.433 12.394 C 9.266 12.514 9.123 12.671 8.973 12.81 C 8.956 12.792 8.931 12.775 8.915 12.758 C 8.94 12.697 8.948 12.628 8.982 12.567 C 9.216 12.134 9.207 12.142 8.882 11.778 C 8.254 11.076 7.71 10.322 7.476 9.368 C 7.359 8.892 7.216 8.423 7.092 7.955 C 6.464 8.735 6.381 11.545 7 12.654 C 6.807 11.674 6.615 10.747 6.832 9.793 C 6.874 10.01 6.899 10.218 6.908 10.435 C 6.941 11.206 7.125 11.935 7.451 12.619 C 7.518 12.766 7.711 12.853 7.853 12.957 C 7.903 12.992 7.97 13.009 8.028 13.035 C 8.02 13.07 8.02 13.105 8.011 13.13 C 7.702 13.113 7.401 13.078 7.091 13.07 C 6.891 13.061 6.657 13.009 6.498 13.096 C 6.288 13.208 6.121 13.426 6.004 13.642 C 5.971 13.702 6.138 13.945 6.264 14.041 C 6.598 14.292 6.824 14.569 6.774 15.037 C 6.765 15.15 6.891 15.35 7 15.393 C 7.3 15.506 7.384 15.731 7.434 16.017 C 7.468 16.199 7.493 16.433 7.61 16.537 C 7.986 16.884 8.103 17.3 8.112 17.803 C 8.12 18.123 8.287 18.453 8.246 18.765 C 8.212 19.034 8.262 19.233 8.371 19.389 L 8.363 19.389 L 8.388 19.415 C 8.455 19.519 8.547 19.605 8.655 19.684 L 8.873 19.892 C 8.873 19.892 9.249 20.299 9.257 20.698 C 9.266 21.097 9.232 21.148 9.349 21.504 C 9.467 21.851 9.625 22.128 9.676 22.423 C 9.726 22.718 9.617 22.804 9.793 22.995 C 9.968 23.185 10.161 23.315 10.361 23.533 C 10.554 23.758 10.83 23.836 11.014 24.027 C 11.198 24.217 11.49 24.573 11.716 24.798 C 11.833 24.92 11.992 25.015 12.109 25.084 C 12.143 25.119 12.159 25.136 12.151 25.154 C 11.992 25.5 12.318 25.492 12.444 25.604 C 12.661 25.795 12.971 25.916 13.129 26.15 C 13.414 26.575 13.782 26.792 14.242 26.922 C 14.284 26.931 14.334 26.939 14.35 26.965 C 14.409 27.035 14.45 27.121 14.501 27.199 C 14.484 27.225 14.459 27.251 14.442 27.277 C 14.902 27.442 15.362 27.615 15.822 27.771 C 15.914 27.806 16.032 27.806 16.115 27.781 C 16.5 27.651 16.885 27.511 17.269 27.373 C 17.344 27.347 17.461 27.269 17.453 27.234 C 17.395 26.957 17.62 27 17.746 26.931 C 18.046 26.766 18.398 26.645 18.624 26.411 C 18.9 26.116 19.151 25.812 19.519 25.613 C 19.669 25.526 19.97 25.492 19.819 25.163 C 19.811 25.145 19.895 25.076 19.937 25.033 C 19.995 24.98 20.062 24.937 20.146 24.868 C 20.204 24.842 20.271 24.798 20.38 24.72 C 20.72 24.441 21.036 24.133 21.325 23.801 C 21.525 23.55 21.852 23.238 21.852 23.238 C 21.852 23.238 21.642 22.744 21.777 22.31 L 22.487 21.782 C 22.638 21.461 22.68 21.339 22.847 21.01 C 23.006 20.68 23.047 20.048 23.274 19.796 C 23.474 19.58 23.717 19.406 23.708 19.268 C 23.761 19.121 23.778 18.963 23.758 18.808 C 23.734 18.583 23.808 18.348 23.834 18.123 C 23.851 17.933 23.834 17.742 23.884 17.56 C 23.968 17.265 24.026 16.919 24.21 16.71 C 24.41 16.485 24.545 16.286 24.57 15.982 C 24.595 15.722 24.695 15.514 24.955 15.392 C 25.08 15.332 25.205 15.124 25.205 14.985 C 25.197 14.595 25.322 14.318 25.64 14.11 C 25.732 14.05 25.8 13.945 25.891 13.876 C 26.041 13.763 26.017 13.633 25.933 13.486 C 25.716 13.096 25.389 12.957 24.955 13.036 C 24.628 13.096 24.135 13.13 23.959 13.13 C 23.784 13.13 23.909 13 23.909 13 C 24.528 12.983 24.603 12.472 24.745 12.056 C 24.863 11.709 24.929 11.345 24.988 10.981 C 25.047 10.634 25.047 10.469 25.113 9.931 C 25.18 9.394 25.339 10.972 25.088 12.264 C 25.59 11.501 25.431 8.735 24.871 7.921 C 24.854 7.938 24.837 7.947 24.837 7.964 C 24.812 8.068 24.796 8.172 24.771 8.276 C 24.528 9.602 24.026 10.79 23.098 11.761 C 22.755 12.116 22.772 12.125 23.006 12.584 C 23.031 12.628 23.031 12.688 23.039 12.749 C 22.839 12.654 22.689 12.515 22.538 12.385 C 22.272 12.128 21.912 11.99 21.542 12.004 C 21.142 12.004 21.032 12.298 20.915 12.584 C 20.698 13.104 20.188 13.425 20.171 14.119 C 20.146 15.133 19.243 15.644 18.657 16.32 C 18.649 16.33 18.624 16.312 18.59 16.312 C 18.582 16.277 18.557 16.234 18.565 16.199 C 18.565 15.575 18.733 14.942 18.457 14.344 C 18.44 14.309 18.448 14.257 18.457 14.223 C 18.565 13.347 18.666 12.48 18.783 11.613 C 18.799 11.501 18.858 11.397 18.908 11.293 C 19.201 10.669 18.983 9.958 18.39 9.646 C 18.317 9.613 18.236 9.601 18.156 9.611 C 17.829 9.654 17.512 9.715 17.194 9.758 C 17.034 9.784 16.868 9.784 16.709 9.793 C 16.7 9.767 16.692 9.741 16.684 9.723 C 16.951 9.637 17.085 9.473 17.027 9.178 L 16.424 6.178 C 16.408 6.1 16.391 5.71 16.483 5.91 C 16.575 6.118 16.868 7.01 17.035 7.574 C 17.194 8.12 17.319 8.684 17.461 9.238 C 17.227 7.687 16.868 6.178 15.981 4.8 C 15.745 5.096 15.556 5.426 15.421 5.78 C 15.206 6.411 15.005 7.047 14.819 7.687 C 14.677 8.181 14.309 9.152 14.468 9.177 C 14.626 9.204 15.404 6.291 15.454 6.083 C 15.504 5.875 15.597 5.883 15.504 6.273 L 15.505 6.274 Z"/>
</svg>
