<?xml version="1.0" encoding="utf-8"?>
<svg fill="#d1d1d1" viewBox="0 0 32 32" xmlns="http://www.w3.org/2000/svg">
  <path d="M 15.496 27 L 16.521 27 C 16.565 26.991 16.61 26.98 16.655 26.974 C 16.994 26.937 17.335 26.917 17.672 26.864 C 20.342 26.436 22.558 25.188 24.342 23.162 C 24.412 23.082 24.42 23.03 24.353 22.942 C 23.583 21.922 22.817 20.901 22.05 19.879 C 22.026 19.847 21.997 19.819 21.966 19.782 L 21.859 19.94 C 21.17 20.958 20.231 21.781 19.131 22.33 C 19.026 22.384 18.961 22.385 18.871 22.295 C 18.508 21.927 18.135 21.57 17.766 21.208 L 17.101 20.561 C 14.893 22.211 12.697 23.851 10.491 25.501 C 10.528 25.526 10.545 25.541 10.564 25.551 C 11.832 26.278 13.234 26.742 14.686 26.915 C 14.956 26.947 15.226 26.972 15.496 27 Z M 16.466 5 L 15.523 5 C 15.475 5.009 15.426 5.02 15.377 5.026 C 14.942 5.077 14.502 5.103 14.073 5.181 C 11.839 5.586 9.913 6.593 8.29 8.176 C 8.04 8.419 7.81 8.682 7.562 8.946 L 10.029 12.233 L 10.131 12.083 C 10.827 11.048 11.781 10.212 12.9 9.66 C 12.993 9.613 13.05 9.621 13.125 9.695 C 13.594 10.159 14.068 10.618 14.54 11.078 C 14.625 11.161 14.711 11.241 14.8 11.325 C 17.044 9.715 19.276 8.115 21.518 6.505 C 21.485 6.482 21.468 6.468 21.448 6.457 C 20.092 5.678 18.583 5.201 17.026 5.057 C 16.838 5.039 16.651 5.019 16.464 5 L 16.466 5 Z M 6.458 10.534 C 5.123 12.954 4.682 15.492 5.226 18.178 C 5.734 20.688 7 22.756 8.95 24.435 L 12.21 21.989 C 12.193 21.955 12.19 21.945 12.184 21.94 L 12.081 21.87 C 11.046 21.174 10.211 20.219 9.66 19.1 C 9.616 19.013 9.619 18.958 9.691 18.886 C 9.947 18.633 10.196 18.373 10.447 18.116 L 11.455 17.082 L 6.46 10.534 L 6.458 10.534 Z M 20.633 14.904 L 25.556 21.407 C 26.78 19.351 27.41 16.431 26.703 13.479 C 26.137 11.114 24.904 9.155 23.047 7.564 L 19.768 10.024 C 19.831 10.069 19.867 10.096 19.904 10.121 C 20.954 10.821 21.799 11.786 22.354 12.919 C 22.402 13.015 22.404 13.076 22.322 13.157 C 22.059 13.417 21.807 13.685 21.551 13.951 L 20.633 14.904 Z"/>
</svg>
